<?xml version="1.0" encoding="UTF-8" standalone="no"?>
<!DOCTYPE svg PUBLIC "-//W3C//DTD SVG 1.1//EN"
 "http://www.w3.org/Graphics/SVG/1.1/DTD/svg11.dtd">
<!-- Generated by graphviz version 2.40.1 (20161225.0304)
 -->
<!-- Title: %3 Pages: 1 -->
<svg width="1343pt" height="732pt"
 viewBox="0.00 0.00 1343.00 732.00" xmlns="http://www.w3.org/2000/svg" xmlns:xlink="http://www.w3.org/1999/xlink">
<g id="graph0" class="graph" transform="scale(1 1) rotate(0) translate(4 728)">
<title>%3</title>
<polygon fill="#ffffff" stroke="transparent" points="-4,4 -4,-728 1339,-728 1339,4 -4,4"/>
<text text-anchor="middle" x="667.5" y="-7.8" font-family="Times,serif" font-size="14.00" fill="#000000"> &#160;Dependencies of the different code projects relevant to POMS</text>
<g id="clust1" class="cluster">
<title>cluster_0</title>
<polygon fill="none" stroke="#000000" points="108,-47 108,-359 622,-359 622,-47 108,-47"/>
<text text-anchor="middle" x="365" y="-69.8" font-family="Times,serif" font-size="14.00" fill="#000000">Generic utilities</text>
<text text-anchor="middle" x="365" y="-54.8" font-family="Times,serif" font-size="14.00" fill="#000000">(incoming edges are just examples, there are more)</text>
</g>
<g id="clust2" class="cluster">
<title>cluster_1</title>
<polygon fill="none" stroke="#000000" points="1100,-641 1100,-716 1300,-716 1300,-641 1100,-641"/>
<text text-anchor="middle" x="1200" y="-700.8" font-family="Times,serif" font-size="14.00" fill="#000000">VPRO</text>
</g>
<g id="clust3" class="cluster">
<title>cluster_2</title>
<polygon fill="#f0ffff" stroke="#000000" points="8,-474 8,-716 823,-716 823,-474 8,-474"/>
<text text-anchor="middle" x="415.5" y="-700.8" font-family="Times,serif" font-size="14.00" fill="#000000">POMS Services</text>
</g>
<g id="clust4" class="cluster">
<title>cluster_3</title>
<polygon fill="#f0ffff" stroke="#000000" points="506,-380 506,-455 848,-455 848,-380 506,-380"/>
<text text-anchor="middle" x="677" y="-439.8" font-family="Times,serif" font-size="14.00" fill="#000000">Backend utilities</text>
</g>
<g id="clust5" class="cluster">
<title>cluster_4</title>
<polygon fill="#e0eeee" stroke="#000000" points="1107,-380 1107,-622 1239,-622 1239,-380 1107,-380"/>
<text text-anchor="middle" x="1173" y="-606.8" font-family="Times,serif" font-size="14.00" fill="#000000">Sharable utilities</text>
</g>
<!-- vpro_shared -->
<g id="node1" class="node">
<title>vpro_shared</title>
<g id="a_node1"><a xlink:href="https://github.com/vpro/vpro-shared" xlink:title="vpro_shared">
<ellipse fill="none" stroke="#000000" cx="558" cy="-333" rx="55.7903" ry="18"/>
<text text-anchor="middle" x="558" y="-329.3" font-family="Times,serif" font-size="14.00" fill="#0000ff">vpro_shared</text>
</a>
</g>
</g>
<!-- i18n_regions -->
<g id="node3" class="node">
<title>i18n_regions</title>
<g id="a_node3"><a xlink:href="https://github.com/mihxil/i18n-regions" xlink:title="i18n_regions">
<ellipse fill="none" stroke="#000000" cx="556" cy="-222" rx="58.4896" ry="18"/>
<text text-anchor="middle" x="556" y="-218.3" font-family="Times,serif" font-size="14.00" fill="#0000ff">i18n_regions</text>
</a>
</g>
</g>
<!-- vpro_shared&#45;&gt;i18n_regions -->
<g id="edge1" class="edge">
<title>vpro_shared&#45;&gt;i18n_regions</title>
<path fill="none" stroke="#c0c0c0" d="M557.6697,-314.6706C557.3556,-297.2373 556.8783,-270.7482 556.5144,-250.5489"/>
<polygon fill="#c0c0c0" stroke="#c0c0c0" points="560.0104,-250.2919 556.3307,-240.3566 553.0116,-250.4181 560.0104,-250.2919"/>
</g>
<!-- slf4j -->
<g id="node15" class="node">
<title>slf4j</title>
<ellipse fill="none" stroke="#000000" stroke-dasharray="5,2" cx="453" cy="-222" rx="27" ry="18"/>
<text text-anchor="middle" x="453" y="-218.3" font-family="Times,serif" font-size="14.00" fill="#000000">slf4j</text>
</g>
<!-- vpro_shared&#45;&gt;slf4j -->
<g id="edge2" class="edge">
<title>vpro_shared&#45;&gt;slf4j</title>
<path fill="none" stroke="#c0c0c0" d="M541.5938,-315.6563C523.5909,-296.6247 494.6133,-265.9912 474.7322,-244.974"/>
<polygon fill="#c0c0c0" stroke="#c0c0c0" points="477.0145,-242.2936 467.5998,-237.4341 471.9292,-247.104 477.0145,-242.2936"/>
</g>
<!-- guava -->
<g id="node16" class="node">
<title>guava</title>
<ellipse fill="none" stroke="#000000" stroke-dasharray="5,2" cx="376" cy="-222" rx="32.4942" ry="18"/>
<text text-anchor="middle" x="376" y="-218.3" font-family="Times,serif" font-size="14.00" fill="#000000">guava</text>
</g>
<!-- vpro_shared&#45;&gt;guava -->
<g id="edge3" class="edge">
<title>vpro_shared&#45;&gt;guava</title>
<path fill="none" stroke="#c0c0c0" d="M531.5356,-316.8596C498.4122,-296.658 441.786,-262.1222 406.7653,-240.7635"/>
<polygon fill="#c0c0c0" stroke="#c0c0c0" points="408.2865,-237.5916 397.9266,-235.3728 404.6416,-243.5679 408.2865,-237.5916"/>
</g>
<!-- poms_shared -->
<g id="node2" class="node">
<title>poms_shared</title>
<g id="a_node2"><a xlink:href="https://github.com/npo-poms/poms-shared" xlink:title="poms_shared">
<ellipse fill="none" stroke="#000000" cx="1173" cy="-406" rx="58.4896" ry="18"/>
<text text-anchor="middle" x="1173" y="-402.3" font-family="Times,serif" font-size="14.00" fill="#0000ff">poms_shared</text>
</a>
</g>
</g>
<!-- poms_shared&#45;&gt;vpro_shared -->
<g id="edge4" class="edge">
<title>poms_shared&#45;&gt;vpro_shared</title>
<path fill="none" stroke="#c0c0c0" d="M1118.4229,-399.5217C1004.4499,-385.9932 741.7414,-354.81 620.9017,-340.4664"/>
<polygon fill="#c0c0c0" stroke="#c0c0c0" points="621.0474,-336.9592 610.7046,-339.256 620.2223,-343.9104 621.0474,-336.9592"/>
</g>
<!-- poms_shared&#45;&gt;i18n_regions -->
<g id="edge5" class="edge">
<title>poms_shared&#45;&gt;i18n_regions</title>
<path fill="none" stroke="#c0c0c0" d="M1130.5911,-393.3529C1020.8245,-360.6187 727.6495,-273.1888 607.971,-237.4986"/>
<polygon fill="#c0c0c0" stroke="#c0c0c0" points="608.8801,-234.1175 598.2969,-234.6137 606.8796,-240.8256 608.8801,-234.1175"/>
</g>
<!-- nv_i18n -->
<g id="node4" class="node">
<title>nv_i18n</title>
<g id="a_node4"><a xlink:href="https://github.com/TakahikoKawasaki/nv-i18n" xlink:title="nv_i18n">
<ellipse fill="none" stroke="#000000" cx="556" cy="-111" rx="40.0939" ry="18"/>
<text text-anchor="middle" x="556" y="-107.3" font-family="Times,serif" font-size="14.00" fill="#0000ff">nv_i18n</text>
</a>
</g>
</g>
<!-- i18n_regions&#45;&gt;nv_i18n -->
<g id="edge9" class="edge">
<title>i18n_regions&#45;&gt;nv_i18n</title>
<path fill="none" stroke="#c0c0c0" d="M556,-203.6706C556,-186.2373 556,-159.7482 556,-139.5489"/>
<polygon fill="#c0c0c0" stroke="#c0c0c0" points="559.5001,-139.3566 556,-129.3566 552.5001,-139.3567 559.5001,-139.3566"/>
</g>
<!-- resteasy -->
<g id="node5" class="node">
<title>resteasy</title>
<g id="a_node5"><a xlink:href="https://github.com/resteasy/Resteasy" xlink:title="resteasy">
<ellipse fill="none" stroke="#000000" cx="350" cy="-333" rx="40.0939" ry="18"/>
<text text-anchor="middle" x="350" y="-329.3" font-family="Times,serif" font-size="14.00" fill="#0000ff">resteasy</text>
</a>
</g>
</g>
<!-- api_client -->
<g id="node6" class="node">
<title>api_client</title>
<g id="a_node6"><a xlink:href="https://github.com/npo-poms/api-clients" xlink:title="api_client">
<ellipse fill="none" stroke="#000000" cx="1184" cy="-573" rx="46.5926" ry="18"/>
<text text-anchor="middle" x="1184" y="-569.3" font-family="Times,serif" font-size="14.00" fill="#0000ff">api_client</text>
</a>
</g>
</g>
<!-- api_client&#45;&gt;vpro_shared -->
<g id="edge21" class="edge">
<title>api_client&#45;&gt;vpro_shared</title>
<path fill="none" stroke="#c0c0c0" d="M1198.3586,-555.8258C1227.5598,-518.7795 1287.257,-430.6258 1240,-380 1219.1648,-357.6796 791.0107,-340.8698 623.9475,-335.1371"/>
<polygon fill="#c0c0c0" stroke="#c0c0c0" points="623.9169,-331.6341 613.8035,-334.7916 623.6786,-338.63 623.9169,-331.6341"/>
</g>
<!-- api_client&#45;&gt;poms_shared -->
<g id="edge22" class="edge">
<title>api_client&#45;&gt;poms_shared</title>
<path fill="none" stroke="#c0c0c0" d="M1182.8019,-554.8102C1180.8926,-525.8234 1177.1444,-468.9192 1174.8767,-434.4916"/>
<polygon fill="#c0c0c0" stroke="#c0c0c0" points="1178.3464,-433.9157 1174.1967,-424.1674 1171.3616,-434.3759 1178.3464,-433.9157"/>
</g>
<!-- poms_backend -->
<g id="node7" class="node">
<title>poms_backend</title>
<g id="a_node7"><a xlink:href="https://subversion.vpro.nl/viewvc/nl/vpro/media" xlink:title="POMS &#160;&amp; POMS Backend API">
<ellipse fill="none" stroke="#cd950c" cx="391" cy="-667" rx="125.3778" ry="18"/>
<text text-anchor="middle" x="391" y="-663.3" font-family="Times,serif" font-size="14.00" fill="#0000ff">POMS &#160;&amp; POMS Backend API</text>
</a>
</g>
</g>
<!-- poms_backend&#45;&gt;vpro_shared -->
<g id="edge33" class="edge">
<title>poms_backend&#45;&gt;vpro_shared</title>
<path fill="none" stroke="#cd950c" d="M353.1184,-649.6071C342.5488,-642.6698 332.4676,-633.5379 327,-622 298.0106,-560.8254 327.1232,-531.4071 363,-474 391.9219,-427.7216 397.8531,-412.0816 442,-380 442.8099,-379.4114 481.1673,-363.9096 513.552,-350.8686"/>
<polygon fill="#cd950c" stroke="#cd950c" points="514.9561,-354.0764 522.9258,-347.0954 512.3422,-347.5827 514.9561,-354.0764"/>
</g>
<!-- poms_backend&#45;&gt;poms_shared -->
<g id="edge34" class="edge">
<title>poms_backend&#45;&gt;poms_shared</title>
<path fill="none" stroke="#cd950c" d="M458.6622,-651.7708C480.0881,-647.541 503.9373,-643.4419 526,-641 544.2856,-638.9761 841.3461,-640.6652 857,-631 889.6564,-610.837 872.8894,-584.0249 898,-555 937.4893,-509.3551 954.4409,-503.6716 1007,-474 1044.2726,-452.9582 1089.3682,-434.9109 1123.1449,-422.7072"/>
<polygon fill="#cd950c" stroke="#cd950c" points="1124.5535,-425.9209 1132.7981,-419.2668 1122.2035,-419.3272 1124.5535,-425.9209"/>
</g>
<!-- poms_backend&#45;&gt;resteasy -->
<g id="edge35" class="edge">
<title>poms_backend&#45;&gt;resteasy</title>
<path fill="none" stroke="#cd950c" d="M320.2812,-652.0481C297.3515,-646.0353 275.5988,-638.7031 267,-631 246.2209,-612.3855 243,-600.8975 243,-573 243,-573 243,-573 243,-406 243,-397.0199 284.6572,-370.8258 315.9872,-352.3954"/>
<polygon fill="#cd950c" stroke="#cd950c" points="318.0391,-355.2505 324.9133,-347.1884 314.5119,-349.204 318.0391,-355.2505"/>
</g>
<!-- poms_gui -->
<g id="node8" class="node">
<title>poms_gui</title>
<g id="a_node8"><a xlink:href="https://subversion.vpro.nl/viewvc/nl/vpro/media-gui" xlink:title="Angular GUI for POMS">
<ellipse fill="none" stroke="#000000" cx="560" cy="-500" rx="98.5829" ry="18"/>
<text text-anchor="middle" x="560" y="-496.3" font-family="Times,serif" font-size="14.00" fill="#0000ff">Angular GUI for POMS</text>
</a>
</g>
</g>
<!-- poms_backend&#45;&gt;poms_gui -->
<g id="edge36" class="edge">
<title>poms_backend&#45;&gt;poms_gui</title>
<path fill="none" stroke="#cd950c" d="M409.086,-649.1281C439.3266,-619.2453 500.2244,-559.0682 534.7,-525.0006"/>
<polygon fill="#cd950c" stroke="#cd950c" points="537.3911,-527.2619 542.0441,-517.7434 532.4709,-522.2827 537.3911,-527.2619"/>
</g>
<!-- user_backend -->
<g id="node13" class="node">
<title>user_backend</title>
<g id="a_node13"><a xlink:href="https://subversion.vpro.nl/repo/nl/vpro/user" xlink:title="user_backend">
<ellipse fill="none" stroke="#000000" cx="574" cy="-406" rx="60.3893" ry="18"/>
<text text-anchor="middle" x="574" y="-402.3" font-family="Times,serif" font-size="14.00" fill="#0000ff">user_backend</text>
</a>
</g>
</g>
<!-- poms_backend&#45;&gt;user_backend -->
<g id="edge37" class="edge">
<title>poms_backend&#45;&gt;user_backend</title>
<path fill="none" stroke="#cd950c" d="M358.9229,-649.5298C352.509,-644.448 346.6336,-638.2672 343,-631 327.8941,-600.7882 328.6322,-585.5697 343,-555 376.5816,-483.5499 463.2243,-442.2229 520.3276,-421.9239"/>
<polygon fill="#cd950c" stroke="#cd950c" points="521.6152,-425.1821 529.9255,-418.6103 519.3308,-418.5653 521.6152,-425.1821"/>
</g>
<!-- spring -->
<g id="node17" class="node">
<title>spring</title>
<ellipse fill="none" stroke="#000000" stroke-dasharray="5,2" cx="258" cy="-333" rx="33.5952" ry="18"/>
<text text-anchor="middle" x="258" y="-329.3" font-family="Times,serif" font-size="14.00" fill="#000000">spring</text>
</g>
<!-- poms_backend&#45;&gt;spring -->
<g id="edge38" class="edge">
<title>poms_backend&#45;&gt;spring</title>
<path fill="none" stroke="#cd950c" d="M298.2725,-654.8036C251.6818,-642.9036 205,-619.4023 205,-573 205,-573 205,-573 205,-406 205,-386.2309 217.8854,-368.2092 230.9493,-355.018"/>
<polygon fill="#cd950c" stroke="#cd950c" points="233.6935,-357.2408 238.5657,-347.8327 228.89,-352.149 233.6935,-357.2408"/>
</g>
<!-- hibernate -->
<g id="node18" class="node">
<title>hibernate</title>
<ellipse fill="none" stroke="#000000" cx="161" cy="-333" rx="44.6926" ry="18"/>
<text text-anchor="middle" x="161" y="-329.3" font-family="Times,serif" font-size="14.00" fill="#000000">hibernate</text>
</g>
<!-- poms_backend&#45;&gt;hibernate -->
<g id="edge39" class="edge">
<title>poms_backend&#45;&gt;hibernate</title>
<path fill="none" stroke="#cd950c" d="M312.8455,-652.8677C263.9544,-643.2827 208.7956,-630.803 201,-622 135.2234,-547.7232 146.6859,-417.9186 155.6982,-361.044"/>
<polygon fill="#cd950c" stroke="#cd950c" points="159.1819,-361.4326 157.3888,-350.9906 152.2788,-360.2717 159.1819,-361.4326"/>
</g>
<!-- angular -->
<g id="node19" class="node">
<title>angular</title>
<ellipse fill="none" stroke="#000000" cx="446" cy="-333" rx="37.8943" ry="18"/>
<text text-anchor="middle" x="446" y="-329.3" font-family="Times,serif" font-size="14.00" fill="#000000">angular</text>
</g>
<!-- poms_gui&#45;&gt;angular -->
<g id="edge40" class="edge">
<title>poms_gui&#45;&gt;angular</title>
<path fill="none" stroke="#c0c0c0" d="M532.2446,-482.6572C521.7829,-475.1179 510.3959,-465.5836 502,-455 479.2399,-426.3093 463.3214,-386.8729 454.421,-360.6932"/>
<polygon fill="#c0c0c0" stroke="#c0c0c0" points="457.6917,-359.4347 451.248,-351.0246 451.0407,-361.6174 457.6917,-359.4347"/>
</g>
<!-- poms_shared_backend -->
<g id="node9" class="node">
<title>poms_shared_backend</title>
<g id="a_node9"><a xlink:href="https://subversion.vpro.nl/viewvc/nl/publiekeomroep/poms-shared-backend/" xlink:title="poms_shared_backend">
<ellipse fill="none" stroke="#00cdcd" cx="746" cy="-406" rx="93.6835" ry="18"/>
<text text-anchor="middle" x="746" y="-402.3" font-family="Times,serif" font-size="14.00" fill="#0000ff">poms_shared_backend</text>
</a>
</g>
</g>
<!-- poms_shared_backend&#45;&gt;vpro_shared -->
<g id="edge6" class="edge">
<title>poms_shared_backend&#45;&gt;vpro_shared</title>
<path fill="none" stroke="#00cdcd" d="M695.1396,-390.8362C676.3663,-384.8526 655.0367,-377.5948 636,-370 623.1318,-364.8662 609.3868,-358.6157 597.076,-352.7243"/>
<polygon fill="#00cdcd" stroke="#00cdcd" points="598.5048,-349.5274 587.9797,-348.3136 595.4507,-355.826 598.5048,-349.5274"/>
</g>
<!-- poms_shared_backend&#45;&gt;poms_shared -->
<g id="edge7" class="edge">
<title>poms_shared_backend&#45;&gt;poms_shared</title>
<path fill="none" stroke="#00cdcd" d="M839.8232,-406C927.9632,-406 1016.1032,-406 1104.2431,-406"/>
<polygon fill="#00cdcd" stroke="#00cdcd" points="1104.4338,-409.5001 1114.4338,-406 1104.4337,-402.5001 1104.4338,-409.5001"/>
</g>
<!-- poms_shared_backend&#45;&gt;slf4j -->
<g id="edge8" class="edge">
<title>poms_shared_backend&#45;&gt;slf4j</title>
<path fill="none" stroke="#00cdcd" d="M723.9826,-388.28C699.8609,-369.2106 659.7049,-338.4632 623,-315 597.702,-298.8285 525.0323,-259.994 483.3517,-237.963"/>
<polygon fill="#00cdcd" stroke="#00cdcd" points="484.9378,-234.8426 474.4604,-233.2698 481.6702,-241.0331 484.9378,-234.8426"/>
</g>
<!-- api -->
<g id="node10" class="node">
<title>api</title>
<g id="a_node10"><a xlink:href="https://subversion.vpro.nl/viewvc/nl/vpro/api/" xlink:title="Frontend API">
<ellipse fill="none" stroke="#6495ed" cx="595" cy="-667" rx="60.3893" ry="18"/>
<text text-anchor="middle" x="595" y="-663.3" font-family="Times,serif" font-size="14.00" fill="#0000ff">Frontend API</text>
</a>
</g>
</g>
<!-- api&#45;&gt;vpro_shared -->
<g id="edge10" class="edge">
<title>api&#45;&gt;vpro_shared</title>
<path fill="none" stroke="#6495ed" d="M557.3032,-652.7318C546.8659,-648.854 535.5157,-644.7043 525,-641 499.8134,-632.1276 486.2321,-641.511 468,-622 435.3954,-587.1083 447.0487,-565.3699 441,-518 432.5062,-451.482 457.577,-430.2333 502,-380 509.5964,-371.4101 518.8055,-363.0295 527.543,-355.7804"/>
<polygon fill="#6495ed" stroke="#6495ed" points="529.7857,-358.4682 535.3749,-349.4675 525.3927,-353.0182 529.7857,-358.4682"/>
</g>
<!-- api&#45;&gt;poms_shared -->
<g id="edge11" class="edge">
<title>api&#45;&gt;poms_shared</title>
<path fill="none" stroke="#6495ed" d="M628.4052,-651.959C639.508,-647.6281 652.0825,-643.4229 664,-641 717.3974,-630.1438 857.6686,-649.2819 909,-631 933.7779,-622.1752 924.9113,-602.2692 971,-555 1011.6561,-513.3025 1027.0845,-508.5043 1074,-474 1095.5587,-458.1445 1120.384,-441.0956 1139.7817,-428.0352"/>
<polygon fill="#6495ed" stroke="#6495ed" points="1141.9263,-430.8112 1148.2811,-422.3337 1138.0267,-424.998 1141.9263,-430.8112"/>
</g>
<!-- api&#45;&gt;resteasy -->
<g id="edge12" class="edge">
<title>api&#45;&gt;resteasy</title>
<path fill="none" stroke="#6495ed" d="M559.0453,-652.3465C548.2235,-648.2905 536.2361,-644.1437 525,-641 487.3037,-630.453 467.2266,-649.1203 439,-622 364.8476,-550.7539 352.0651,-419.3422 350.151,-361.5455"/>
<polygon fill="#6495ed" stroke="#6495ed" points="353.6446,-361.2359 349.9029,-351.3238 346.6467,-361.4058 353.6446,-361.2359"/>
</g>
<!-- api&#45;&gt;poms_shared_backend -->
<g id="edge13" class="edge">
<title>api&#45;&gt;poms_shared_backend</title>
<path fill="none" stroke="#6495ed" d="M628.4088,-651.9765C639.5117,-647.6466 652.0855,-643.4377 664,-641 676.5847,-638.4252 886.1156,-640.2774 895,-631 957.2071,-566.0417 842.3309,-471.9821 780.975,-428.9944"/>
<polygon fill="#6495ed" stroke="#6495ed" points="782.9137,-426.0798 772.6966,-423.2759 778.9352,-431.8393 782.9137,-426.0798"/>
</g>
<!-- api&#45;&gt;user_backend -->
<g id="edge14" class="edge">
<title>api&#45;&gt;user_backend</title>
<path fill="none" stroke="#6495ed" d="M569.8965,-650.4222C535.6475,-626.1164 475.8159,-577.2098 452,-518 444.7024,-499.8571 442.0946,-490.8613 452,-474 466.7575,-448.8795 494.5364,-432.3601 519.863,-421.9016"/>
<polygon fill="#6495ed" stroke="#6495ed" points="521.3667,-425.0722 529.4174,-418.1848 518.8288,-418.5485 521.3667,-425.0722"/>
</g>
<!-- media_publish -->
<g id="node11" class="node">
<title>media_publish</title>
<g id="a_node11"><a xlink:href="https://subversion.vpro.nl/viewvc/nl/publiekeomroep/npo-publish/" xlink:title="Media Publisher">
<ellipse fill="none" stroke="#bf3eff" cx="744" cy="-667" rx="70.6878" ry="18"/>
<text text-anchor="middle" x="744" y="-663.3" font-family="Times,serif" font-size="14.00" fill="#0000ff">Media Publisher</text>
</a>
</g>
</g>
<!-- media_publish&#45;&gt;poms_shared -->
<g id="edge18" class="edge">
<title>media_publish&#45;&gt;poms_shared</title>
<path fill="none" stroke="#bf3eff" d="M812.4636,-662.2832C873.1025,-657.119 956.3214,-647.3211 985,-631 1022.8862,-609.4388 1019.1472,-588.5331 1047,-555 1083.2075,-511.4082 1125.8935,-461.1681 1151.1331,-431.5792"/>
<polygon fill="#bf3eff" stroke="#bf3eff" points="1153.9395,-433.6824 1157.7694,-423.804 1148.6152,-429.1379 1153.9395,-433.6824"/>
</g>
<!-- pages_publish -->
<g id="node12" class="node">
<title>pages_publish</title>
<g id="a_node12"><a xlink:href="https://subversion.vpro.nl/viewvc/nl/vpro/pages-publish/" xlink:title="Pages Publisher">
<ellipse fill="none" stroke="#8fbc8f" cx="746" cy="-500" rx="68.7879" ry="18"/>
<text text-anchor="middle" x="746" y="-496.3" font-family="Times,serif" font-size="14.00" fill="#0000ff">Pages Publisher</text>
</a>
</g>
</g>
<!-- media_publish&#45;&gt;pages_publish -->
<g id="edge20" class="edge">
<title>media_publish&#45;&gt;pages_publish</title>
<path fill="none" stroke="#c0c0c0" d="M744.2178,-648.8102C744.6026,-616.6863 745.3979,-550.2753 745.7824,-518.1674"/>
<text text-anchor="middle" x="810" y="-569.3" font-family="Times,serif" font-size="14.00" fill="#000000">we plan to merge these</text>
</g>
<!-- media_publish&#45;&gt;user_backend -->
<g id="edge19" class="edge">
<title>media_publish&#45;&gt;user_backend</title>
<path fill="none" stroke="#bf3eff" d="M810.5658,-660.822C873.746,-654.2692 960.5869,-643.1947 971,-631 992.9343,-605.313 988.1802,-584.0823 971,-555 933.0591,-490.7743 895.1724,-496.3369 824,-474 785.4125,-461.8896 680.8358,-469.2867 643,-455 627.6999,-449.2227 612.6598,-439.2054 600.5463,-429.7276"/>
<polygon fill="#bf3eff" stroke="#bf3eff" points="602.6261,-426.9076 592.6604,-423.311 598.208,-432.3373 602.6261,-426.9076"/>
</g>
<!-- pages_publish&#45;&gt;poms_shared -->
<g id="edge15" class="edge">
<title>pages_publish&#45;&gt;poms_shared</title>
<path fill="none" stroke="#8fbc8f" d="M777.2007,-483.8172C792.4654,-476.4944 811.3215,-468.3097 829,-463 923.2187,-434.7018 1036.4384,-419.3617 1106.5687,-411.9314"/>
<polygon fill="#8fbc8f" stroke="#8fbc8f" points="1107.0099,-415.4045 1116.5957,-410.892 1106.2881,-408.4419 1107.0099,-415.4045"/>
</g>
<!-- pages_publish&#45;&gt;poms_shared_backend -->
<g id="edge16" class="edge">
<title>pages_publish&#45;&gt;poms_shared_backend</title>
<path fill="none" stroke="#8fbc8f" d="M746,-481.8759C746,-468.3516 746,-449.6192 746,-434.1514"/>
<polygon fill="#8fbc8f" stroke="#8fbc8f" points="749.5001,-434.0685 746,-424.0685 742.5001,-434.0685 749.5001,-434.0685"/>
</g>
<!-- pages_publish&#45;&gt;user_backend -->
<g id="edge17" class="edge">
<title>pages_publish&#45;&gt;user_backend</title>
<path fill="none" stroke="#8fbc8f" d="M706.936,-485.1535C687.2888,-477.1357 663.383,-466.5276 643,-455 629.5187,-447.3757 615.4404,-437.722 603.5426,-429.0031"/>
<polygon fill="#8fbc8f" stroke="#8fbc8f" points="605.4137,-426.0324 595.3043,-422.8619 601.23,-431.6446 605.4137,-426.0324"/>
</g>
<!-- images -->
<g id="node14" class="node">
<title>images</title>
<g id="a_node14"><a xlink:href="https://subversion.vpro.nl/viewvc/nl/vpro/images/" xlink:title="Images Frontend &amp; Backend">
<ellipse fill="none" stroke="#caff70" cx="132" cy="-667" rx="115.8798" ry="18"/>
<text text-anchor="middle" x="132" y="-663.3" font-family="Times,serif" font-size="14.00" fill="#0000ff">Images Frontend &amp; Backend</text>
</a>
</g>
</g>
<!-- images&#45;&gt;poms_shared -->
<g id="edge23" class="edge">
<title>images&#45;&gt;poms_shared</title>
<path fill="none" stroke="#caff70" d="M194.6019,-651.7808C214.4385,-647.5515 236.5319,-643.4502 257,-641 288.5699,-637.2209 802.0833,-638.9243 829,-622 857.4411,-604.1172 845.4136,-582.9864 864,-555 889.8468,-516.0814 891.8396,-499.479 931,-474 984.6696,-439.0808 1056.3099,-421.8516 1107.6935,-413.5053"/>
<polygon fill="#caff70" stroke="#caff70" points="1108.3449,-416.9461 1117.6888,-411.9519 1107.2699,-410.0292 1108.3449,-416.9461"/>
</g>
<!-- images&#45;&gt;user_backend -->
<g id="edge24" class="edge">
<title>images&#45;&gt;user_backend</title>
<path fill="none" stroke="#caff70" d="M130.346,-648.8647C129.155,-624.6654 130.7293,-581.7647 153,-555 200.2737,-498.1871 410.6323,-443.3558 514.9476,-419.0644"/>
<polygon fill="#caff70" stroke="#caff70" points="516.0505,-422.4018 525.0059,-416.7404 514.4746,-415.5815 516.0505,-422.4018"/>
</g>
<!-- images&#45;&gt;spring -->
<g id="edge25" class="edge">
<title>images&#45;&gt;spring</title>
<path fill="none" stroke="#caff70" d="M128.5348,-649.0012C124.8219,-626.7455 120.1945,-587.7877 126,-555 141.3462,-468.3302 134.7522,-434.0912 194,-369 200.9585,-361.3552 205.899,-363.9027 215,-359 218.9962,-356.8473 223.1442,-354.4956 227.2173,-352.1147"/>
<polygon fill="#caff70" stroke="#caff70" points="229.1297,-355.0494 235.9263,-346.9219 225.5448,-349.0371 229.1297,-355.0494"/>
</g>
<!-- images&#45;&gt;hibernate -->
<g id="edge26" class="edge">
<title>images&#45;&gt;hibernate</title>
<path fill="none" stroke="#caff70" d="M98.5874,-649.7025C90.7579,-644.4902 82.9696,-638.2067 77,-631 59.2038,-609.5159 53,-600.8975 53,-573 53,-573 53,-573 53,-406 53,-374.9922 83.9357,-356.2651 112.6933,-345.5553"/>
<polygon fill="#caff70" stroke="#caff70" points="114.0099,-348.8034 122.3146,-342.2244 111.7198,-342.1885 114.0099,-348.8034"/>
</g>
<!-- magnolia -->
<g id="node20" class="node">
<title>magnolia</title>
<ellipse fill="none" stroke="#000000" cx="1247" cy="-667" rx="44.6926" ry="18"/>
<text text-anchor="middle" x="1247" y="-663.3" font-family="Times,serif" font-size="14.00" fill="#000000">magnolia</text>
</g>
<!-- magnolia&#45;&gt;vpro_shared -->
<g id="edge27" class="edge">
<title>magnolia&#45;&gt;vpro_shared</title>
<path fill="none" stroke="#8b8878" d="M1274.3614,-652.6422C1300.194,-636.8913 1335,-608.9911 1335,-573 1335,-573 1335,-573 1335,-406 1335,-352.5912 1237.3415,-369.6045 1231,-369 1009.1662,-347.8527 744.9236,-338.246 624.1455,-334.7127"/>
<polygon fill="#8b8878" stroke="#8b8878" points="624.0519,-331.2087 613.9552,-334.4191 623.8502,-338.2058 624.0519,-331.2087"/>
</g>
<!-- magnolia&#45;&gt;api_client -->
<g id="edge28" class="edge">
<title>magnolia&#45;&gt;api_client</title>
<path fill="none" stroke="#8b8878" d="M1235.1502,-649.3193C1225.6467,-635.1395 1212.1701,-615.0315 1201.4356,-599.015"/>
<polygon fill="#8b8878" stroke="#8b8878" points="1204.2715,-596.9597 1195.7967,-590.6014 1198.4567,-600.8569 1204.2715,-596.9597"/>
</g>
<!-- vpro_rs -->
<g id="node21" class="node">
<title>vpro_rs</title>
<ellipse fill="none" stroke="#000000" cx="1146" cy="-667" rx="38.1938" ry="18"/>
<text text-anchor="middle" x="1146" y="-663.3" font-family="Times,serif" font-size="14.00" fill="#000000">vpro_rs</text>
</g>
<!-- vpro_rs&#45;&gt;vpro_shared -->
<g id="edge29" class="edge">
<title>vpro_rs&#45;&gt;vpro_shared</title>
<path fill="none" stroke="#8b8878" d="M1170.0534,-652.8347C1177.317,-648.7924 1185.3863,-644.5308 1193,-641 1243.1007,-617.7665 1297,-628.2257 1297,-573 1297,-573 1297,-573 1297,-406 1297,-365.6118 1253.9928,-374.6379 1214,-369 1101.6102,-353.1561 767.494,-340.1892 624.3269,-335.2018"/>
<polygon fill="#8b8878" stroke="#8b8878" points="624.0589,-331.6905 613.9438,-334.8424 623.8167,-338.6863 624.0589,-331.6905"/>
</g>
<!-- vpro_rs&#45;&gt;poms_shared -->
<g id="edge30" class="edge">
<title>vpro_rs&#45;&gt;poms_shared</title>
<path fill="none" stroke="#8b8878" d="M1137.0129,-649.0873C1133.4502,-641.024 1129.7822,-631.254 1128,-622 1114.8836,-553.8922 1142.8345,-474.0697 1160.3203,-433.1773"/>
<polygon fill="#8b8878" stroke="#8b8878" points="1163.5849,-434.4478 1164.4032,-423.8846 1157.1763,-431.632 1163.5849,-434.4478"/>
</g>
<!-- vpro_rs&#45;&gt;api_client -->
<g id="edge31" class="edge">
<title>vpro_rs&#45;&gt;api_client</title>
<path fill="none" stroke="#8b8878" d="M1153.3268,-648.8759C1158.8466,-635.2215 1166.5125,-616.2585 1172.7997,-600.7061"/>
<polygon fill="#8b8878" stroke="#8b8878" points="1176.1926,-601.6514 1176.6957,-591.0685 1169.7029,-599.0278 1176.1926,-601.6514"/>
</g>
<!-- vpro_rs&#45;&gt;poms_shared_backend -->
<g id="edge32" class="edge">
<title>vpro_rs&#45;&gt;poms_shared_backend</title>
<path fill="none" stroke="#8b8878" d="M1129.8039,-650.5786C1121.6302,-642.1594 1111.6419,-631.6675 1103,-622 1077.1354,-593.0657 1077.0922,-579.5079 1047,-555 971.4201,-493.4457 866.198,-448.7463 802.2747,-425.1366"/>
<polygon fill="#8b8878" stroke="#8b8878" points="803.3602,-421.8071 792.7663,-421.6679 800.9612,-428.3832 803.3602,-421.8071"/>
</g>
</g>
</svg>
