<?xml version="1.0" encoding="UTF-8" standalone="no"?>
<!DOCTYPE svg PUBLIC "-//W3C//DTD SVG 1.1//EN"
 "http://www.w3.org/Graphics/SVG/1.1/DTD/svg11.dtd">
<!-- Generated by graphviz version 6.0.1 (20220911.1526)
 -->
<!-- Title: poms_universe Pages: 1 -->
<svg width="1970pt" height="497pt"
 viewBox="0.00 0.00 1970.00 496.95" xmlns="http://www.w3.org/2000/svg" xmlns:xlink="http://www.w3.org/1999/xlink">
<g id="graph0" class="graph" transform="scale(1 1) rotate(0) translate(4 492.95)">
<title>poms_universe</title>
<polygon fill="white" stroke="none" points="-4,4 -4,-492.95 1966,-492.95 1966,4 -4,4"/>
<text text-anchor="middle" x="981" y="-7.8" font-family="Times,serif" font-size="14.00">Deployments relevant for POMS</text>
<g id="clust1" class="cluster">
<title>cluster_0</title>
<polygon fill="azure" stroke="black" points="627,-106 627,-219.95 1447,-219.95 1447,-106 627,-106"/>
<text text-anchor="middle" x="1037" y="-113.8" font-family="Times,serif" font-size="14.00">Generic backend services</text>
</g>
<g id="clust2" class="cluster">
<title>cluster_3</title>
<polygon fill="none" stroke="black" points="549,-322.95 549,-480.95 1098,-480.95 1098,-322.95 549,-322.95"/>
<text text-anchor="middle" x="823.5" y="-465.75" font-family="Times,serif" font-size="14.00">World</text>
</g>
<g id="clust3" class="cluster">
<title>cluster_2</title>
<polygon fill="none" stroke="black" points="557,-330.95 557,-405.95 1055,-405.95 1055,-330.95 557,-330.95"/>
<text text-anchor="middle" x="806" y="-390.75" font-family="Times,serif" font-size="14.00">VPRO</text>
</g>
<g id="clust4" class="cluster">
<title>cluster_4</title>
<polygon fill="azure" stroke="black" points="495,-239.95 495,-314.95 1498,-314.95 1498,-239.95 495,-239.95"/>
<text text-anchor="middle" x="996.5" y="-299.75" font-family="Times,serif" font-size="14.00">POMS &#160;Services</text>
</g>
<g id="clust5" class="cluster">
<title>cluster_5</title>
<polygon fill="none" stroke="black" points="1455,-31 1455,-200.48 1954,-200.48 1954,-31 1455,-31"/>
<text text-anchor="middle" x="1704.5" y="-38.8" font-family="Times,serif" font-size="14.00">NPO Services</text>
</g>
<g id="clust6" class="cluster">
<title>cluster_6</title>
<polygon fill="none" stroke="black" points="8,-125.48 8,-200.48 619,-200.48 619,-125.48 8,-125.48"/>
<text text-anchor="middle" x="313.5" y="-133.28" font-family="Times,serif" font-size="14.00">Auxiliary API&#39;s</text>
</g>
<!-- poms -->
<g id="node1" class="node">
<title>poms</title>
<g id="a_node1"><a xlink:href="https://poms.omroep.nl/" xlink:title="POMS">
<ellipse fill="none" stroke="black" cx="1455" cy="-265.95" rx="35.19" ry="18"/>
<text text-anchor="middle" x="1455" y="-262.25" font-family="Times,serif" font-size="14.00" fill="blue">POMS</text>
</a>
</g>
</g>
<!-- gtaa -->
<g id="node8" class="node">
<title>gtaa</title>
<g id="a_node8"><a xlink:href="http://gtaa.beeldengeluid.nl/" xlink:title="B&amp;G Thesaurus">
<ellipse fill="none" stroke="black" cx="543" cy="-174.48" rx="68.49" ry="18"/>
<text text-anchor="middle" x="543" y="-170.78" font-family="Times,serif" font-size="14.00" fill="blue">B&amp;G Thesaurus</text>
</a>
</g>
</g>
<!-- poms&#45;&gt;gtaa -->
<g id="edge9" class="edge">
<title>poms&#45;&gt;gtaa</title>
<path fill="none" stroke="blue" d="M1435.33,-251.04C1428.03,-246.63 1419.47,-242.31 1411,-239.95 1242.23,-193.06 791.99,-266.07 623,-219.95 605.61,-215.21 587.92,-205.93 573.61,-197.08"/>
<polygon fill="blue" stroke="blue" points="575.48,-194.12 565.17,-191.66 571.7,-200.01 575.48,-194.12"/>
</g>
<!-- postgresql_media -->
<g id="node12" class="node">
<title>postgresql_media</title>
<ellipse fill="none" stroke="black" cx="1366" cy="-174.48" rx="73.39" ry="18"/>
<text text-anchor="middle" x="1366" y="-170.78" font-family="Times,serif" font-size="14.00">postgresql_media</text>
</g>
<!-- poms&#45;&gt;postgresql_media -->
<g id="edge10" class="edge">
<title>poms&#45;&gt;postgresql_media</title>
<path fill="none" stroke="blue" d="M1439.5,-249.37C1425.8,-235.6 1405.62,-215.3 1389.86,-199.47"/>
<polygon fill="blue" stroke="blue" points="1392.07,-196.72 1382.53,-192.1 1387.1,-201.66 1392.07,-196.72"/>
</g>
<!-- jms_ingest -->
<g id="node15" class="node">
<title>jms_ingest</title>
<ellipse fill="none" stroke="black" cx="1019" cy="-174.48" rx="90.52" ry="37.45"/>
<text text-anchor="start" x="963" y="-185.78" font-family="Times,serif" font-size="14.00">JMS ActiveMQ</text>
<text text-anchor="start" x="963" y="-170.78" font-family="Times,serif" font-size="14.00">(broadcast ingests,</text>
<text text-anchor="middle" x="1019" y="-155.78" font-family="Times,serif" font-size="14.00">internal SOAP calls)</text>
</g>
<!-- poms&#45;&gt;jms_ingest -->
<g id="edge11" class="edge">
<title>poms&#45;&gt;jms_ingest</title>
<path fill="none" stroke="blue" d="M1434.83,-250.98C1427.62,-246.68 1419.24,-242.44 1411,-239.95 1286.02,-202.33 1244.62,-251.64 1118,-219.95 1106.5,-217.08 1094.68,-212.93 1083.39,-208.31"/>
<polygon fill="blue" stroke="blue" points="1084.61,-205.03 1074.04,-204.33 1081.87,-211.47 1084.61,-205.03"/>
</g>
<!-- jms_publish -->
<g id="node16" class="node">
<title>jms_publish</title>
<ellipse fill="none" stroke="black" cx="1201" cy="-174.48" rx="73.58" ry="26.74"/>
<text text-anchor="start" x="1157" y="-178.28" font-family="Times,serif" font-size="14.00">JMS ActiveMQ</text>
<text text-anchor="middle" x="1201" y="-163.28" font-family="Times,serif" font-size="14.00">(publication)</text>
</g>
<!-- poms&#45;&gt;jms_publish -->
<g id="edge12" class="edge">
<title>poms&#45;&gt;jms_publish</title>
<path fill="none" stroke="blue" d="M1434.25,-251.13C1427.14,-246.95 1418.96,-242.74 1411,-239.95 1357.06,-221.09 1338.17,-238.15 1284,-219.95 1271.16,-215.64 1257.93,-209.46 1245.92,-203.07"/>
<polygon fill="blue" stroke="blue" points="1247.44,-199.91 1236.99,-198.17 1244.07,-206.05 1247.44,-199.91"/>
</g>
<!-- pd -->
<g id="node24" class="node">
<title>pd</title>
<ellipse fill="none" stroke="black" cx="1919" cy="-174.48" rx="27" ry="18"/>
<text text-anchor="middle" x="1919" y="-170.78" font-family="Times,serif" font-size="14.00">pd</text>
</g>
<!-- poms&#45;&gt;pd -->
<g id="edge13" class="edge">
<title>poms&#45;&gt;pd</title>
<path fill="none" stroke="blue" d="M1490.19,-264.67C1580.02,-263.42 1815.46,-256.64 1883,-219.95 1891.41,-215.39 1898.58,-207.96 1904.27,-200.47"/>
<polygon fill="blue" stroke="blue" points="1907.44,-202.04 1910.23,-191.82 1901.67,-198.07 1907.44,-202.04"/>
</g>
<!-- prepr -->
<g id="node25" class="node">
<title>prepr</title>
<ellipse fill="none" stroke="black" cx="1845" cy="-174.48" rx="29.5" ry="18"/>
<text text-anchor="middle" x="1845" y="-170.78" font-family="Times,serif" font-size="14.00">prepr</text>
</g>
<!-- poms&#45;&gt;prepr -->
<g id="edge14" class="edge">
<title>poms&#45;&gt;prepr</title>
<path fill="none" stroke="blue" d="M1489.96,-263.59C1567.58,-260.08 1751.7,-248.86 1806,-219.95 1814.92,-215.2 1822.75,-207.53 1829,-199.89"/>
<polygon fill="blue" stroke="blue" points="1831.92,-201.84 1835.15,-191.75 1826.33,-197.62 1831.92,-201.84"/>
</g>
<!-- miranda -->
<g id="node26" class="node">
<title>miranda</title>
<ellipse fill="none" stroke="black" cx="1757" cy="-174.48" rx="40.09" ry="18"/>
<text text-anchor="middle" x="1757" y="-170.78" font-family="Times,serif" font-size="14.00">miranda</text>
</g>
<!-- poms&#45;&gt;miranda -->
<g id="edge15" class="edge">
<title>poms&#45;&gt;miranda</title>
<path fill="none" stroke="blue" d="M1490.44,-264.74C1541.19,-263.13 1636.32,-255.16 1708,-219.95 1718.36,-214.86 1728.14,-206.92 1736.2,-199.14"/>
<polygon fill="blue" stroke="blue" points="1739.15,-201.13 1743.64,-191.53 1734.14,-196.23 1739.15,-201.13"/>
</g>
<!-- pluto -->
<g id="node27" class="node">
<title>pluto</title>
<ellipse fill="none" stroke="black" cx="1670" cy="-174.48" rx="28.7" ry="18"/>
<text text-anchor="middle" x="1670" y="-170.78" font-family="Times,serif" font-size="14.00">pluto</text>
</g>
<!-- poms&#45;&gt;pluto -->
<g id="edge16" class="edge">
<title>poms&#45;&gt;pluto</title>
<path fill="none" stroke="blue" d="M1489.7,-262.37C1527.25,-258.22 1587.71,-247.5 1632,-219.95 1640.18,-214.86 1647.52,-207.44 1653.51,-200.11"/>
<polygon fill="blue" stroke="blue" points="1656.64,-201.77 1659.9,-191.69 1651.07,-197.54 1656.64,-201.77"/>
</g>
<!-- nep -->
<g id="node28" class="node">
<title>nep</title>
<ellipse fill="none" stroke="black" cx="1596" cy="-174.48" rx="27" ry="18"/>
<text text-anchor="middle" x="1596" y="-170.78" font-family="Times,serif" font-size="14.00">nep</text>
</g>
<!-- poms&#45;&gt;nep -->
<g id="edge17" class="edge">
<title>poms&#45;&gt;nep</title>
<path fill="none" stroke="blue" d="M1485.09,-256.39C1507.27,-249.1 1537.38,-237.06 1560,-219.95 1567.4,-214.35 1574.2,-206.92 1579.84,-199.73"/>
<polygon fill="blue" stroke="blue" points="1582.77,-201.65 1585.91,-191.53 1577.15,-197.49 1582.77,-201.65"/>
</g>
<!-- keycloak -->
<g id="node29" class="node">
<title>keycloak</title>
<g id="a_node29"><a xlink:href="https://ident.poms.omroep.nl/auth/" xlink:title="Keycloak">
<ellipse fill="none" stroke="black" cx="1507" cy="-174.48" rx="44.39" ry="18"/>
<text text-anchor="middle" x="1507" y="-170.78" font-family="Times,serif" font-size="14.00" fill="blue">Keycloak</text>
</a>
</g>
</g>
<!-- poms&#45;&gt;keycloak -->
<g id="edge18" class="edge">
<title>poms&#45;&gt;keycloak</title>
<path fill="none" stroke="blue" d="M1464.54,-248.54C1472.26,-235.26 1483.27,-216.31 1492.15,-201.04"/>
<polygon fill="blue" stroke="blue" points="1495.35,-202.49 1497.35,-192.09 1489.3,-198.97 1495.35,-202.49"/>
</g>
<!-- poms_backend -->
<g id="node2" class="node">
<title>poms_backend</title>
<g id="a_node2"><a xlink:href="https://api.poms.omroep.nl/" xlink:title="POMS backend API">
<ellipse fill="none" stroke="black" cx="1319" cy="-265.95" rx="83.39" ry="18"/>
<text text-anchor="middle" x="1319" y="-262.25" font-family="Times,serif" font-size="14.00" fill="blue">POMS backend API</text>
</a>
</g>
</g>
<!-- poms_backend&#45;&gt;jms_ingest -->
<g id="edge19" class="edge">
<title>poms_backend&#45;&gt;jms_ingest</title>
<path fill="none" stroke="#ff7f00" d="M1270.97,-251.08C1256.86,-247.23 1241.36,-243.22 1227,-239.95 1178.97,-229.04 1165.03,-234.6 1118,-219.95 1107.15,-216.57 1095.91,-212.32 1085.08,-207.78"/>
<polygon fill="#ff7f00" stroke="#ff7f00" points="1086.25,-204.48 1075.68,-203.75 1083.48,-210.91 1086.25,-204.48"/>
</g>
<!-- poms_backend&#45;&gt;nep -->
<g id="edge20" class="edge">
<title>poms_backend&#45;&gt;nep</title>
<path fill="none" stroke="#ff7f00" d="M1365.99,-250.9C1380.34,-246.96 1396.24,-242.94 1411,-239.95 1476.49,-226.72 1501.75,-252.68 1560,-219.95 1568.34,-215.27 1575.5,-207.81 1581.19,-200.33"/>
<polygon fill="#ff7f00" stroke="#ff7f00" points="1584.35,-201.92 1587.17,-191.71 1578.6,-197.93 1584.35,-201.92"/>
</g>
<!-- poms_backend&#45;&gt;keycloak -->
<g id="edge21" class="edge">
<title>poms_backend&#45;&gt;keycloak</title>
<path fill="none" stroke="#ff7f00" d="M1370.86,-251.76C1395.92,-244.28 1425.93,-233.65 1451,-219.95 1461.96,-213.97 1472.94,-205.83 1482.25,-198.14"/>
<polygon fill="#ff7f00" stroke="#ff7f00" points="1484.61,-200.72 1489.95,-191.57 1480.07,-195.4 1484.61,-200.72"/>
</g>
<!-- api -->
<g id="node3" class="node">
<title>api</title>
<g id="a_node3"><a xlink:href="https://rs.poms.omroep.nl/" xlink:title="NPO Frontend API">
<ellipse fill="none" stroke="black" cx="830" cy="-265.95" rx="78.79" ry="18"/>
<text text-anchor="middle" x="830" y="-262.25" font-family="Times,serif" font-size="14.00" fill="blue">NPO Frontend API</text>
</a>
</g>
</g>
<!-- api&#45;&gt;gtaa -->
<g id="edge22" class="edge">
<title>api&#45;&gt;gtaa</title>
<path fill="none" stroke="cornflowerblue" d="M785.02,-251.14C771.29,-247.21 756.1,-243.13 742,-239.95 689.68,-228.16 673.61,-237.68 623,-219.95 606.64,-214.22 589.69,-205.3 575.63,-196.94"/>
<polygon fill="cornflowerblue" stroke="cornflowerblue" points="577.2,-193.8 566.84,-191.57 573.55,-199.77 577.2,-193.8"/>
</g>
<!-- elasticsearch -->
<g id="node14" class="node">
<title>elasticsearch</title>
<ellipse fill="none" stroke="black" cx="855" cy="-174.48" rx="55.79" ry="18"/>
<text text-anchor="middle" x="855" y="-170.78" font-family="Times,serif" font-size="14.00">elasticsearch</text>
</g>
<!-- api&#45;&gt;elasticsearch -->
<g id="edge23" class="edge">
<title>api&#45;&gt;elasticsearch</title>
<path fill="none" stroke="cornflowerblue" d="M834.82,-247.7C838.38,-234.95 843.3,-217.34 847.39,-202.7"/>
<polygon fill="cornflowerblue" stroke="cornflowerblue" points="850.87,-203.25 850.19,-192.68 844.13,-201.36 850.87,-203.25"/>
</g>
<!-- pages_publish -->
<g id="node4" class="node">
<title>pages_publish</title>
<g id="a_node4"><a xlink:href="https://publish.pages.omroep.nl/" xlink:title="Pages Publisher">
<ellipse fill="none" stroke="black" cx="994" cy="-265.95" rx="66.89" ry="18"/>
<text text-anchor="middle" x="994" y="-262.25" font-family="Times,serif" font-size="14.00" fill="blue">Pages Publisher</text>
</a>
</g>
</g>
<!-- pages_publish&#45;&gt;gtaa -->
<g id="edge24" class="edge">
<title>pages_publish&#45;&gt;gtaa</title>
<path fill="none" stroke="darkseagreen" d="M957.38,-250.86C945.05,-246.66 931.09,-242.51 918,-239.95 789.02,-214.78 749.02,-257.22 623,-219.95 606,-214.93 588.62,-205.83 574.43,-197.17"/>
<polygon fill="darkseagreen" stroke="darkseagreen" points="575.92,-193.97 565.59,-191.59 572.18,-199.89 575.92,-193.97"/>
</g>
<!-- pages_publish&#45;&gt;elasticsearch -->
<g id="edge25" class="edge">
<title>pages_publish&#45;&gt;elasticsearch</title>
<path fill="none" stroke="darkseagreen" d="M967,-249.35C952.61,-240.88 934.69,-230.09 919,-219.95 907.7,-212.65 895.53,-204.31 884.86,-196.84"/>
<polygon fill="darkseagreen" stroke="darkseagreen" points="886.86,-193.97 876.67,-191.08 882.83,-199.7 886.86,-193.97"/>
</g>
<!-- pages_publish&#45;&gt;keycloak -->
<g id="edge26" class="edge">
<title>pages_publish&#45;&gt;keycloak</title>
<path fill="none" stroke="darkseagreen" d="M1030.1,-250.73C1042.27,-246.53 1056.05,-242.4 1069,-239.95 1152.52,-224.15 1371.5,-250.04 1451,-219.95 1463.34,-215.28 1475.08,-206.83 1484.6,-198.54"/>
<polygon fill="darkseagreen" stroke="darkseagreen" points="1487.04,-201.04 1492.03,-191.69 1482.3,-195.89 1487.04,-201.04"/>
</g>
<!-- media_publish -->
<g id="node5" class="node">
<title>media_publish</title>
<ellipse fill="none" stroke="black" cx="1148" cy="-265.95" rx="69.59" ry="18"/>
<text text-anchor="middle" x="1148" y="-262.25" font-family="Times,serif" font-size="14.00">Media Publisher</text>
</g>
<!-- media_publish&#45;&gt;elasticsearch -->
<g id="edge27" class="edge">
<title>media_publish&#45;&gt;elasticsearch</title>
<path fill="none" stroke="#bf3eff" d="M1109.1,-250.98C1096.73,-246.94 1082.9,-242.85 1070,-239.95 1003.95,-225.12 982.13,-244.4 919,-219.95 905.53,-214.74 892.16,-206.13 881.15,-197.88"/>
<polygon fill="#bf3eff" stroke="#bf3eff" points="883.27,-195.09 873.23,-191.69 878.96,-200.6 883.27,-195.09"/>
</g>
<!-- media_publish&#45;&gt;jms_publish -->
<g id="edge28" class="edge">
<title>media_publish&#45;&gt;jms_publish</title>
<path fill="none" stroke="#bf3eff" d="M1157.97,-248.12C1164.35,-237.35 1172.87,-222.97 1180.64,-209.86"/>
<polygon fill="#bf3eff" stroke="#bf3eff" points="1183.77,-211.42 1185.86,-201.04 1177.75,-207.86 1183.77,-211.42"/>
</g>
<!-- images_frontend -->
<g id="node6" class="node">
<title>images_frontend</title>
<g id="a_node6"><a xlink:href="https://images.poms.omroep.nl" xlink:title="Images">
<ellipse fill="none" stroke="black" cx="697" cy="-265.95" rx="36.29" ry="18"/>
<text text-anchor="middle" x="697" y="-262.25" font-family="Times,serif" font-size="14.00" fill="blue">Images</text>
</a>
</g>
</g>
<!-- postgresql_image -->
<g id="node13" class="node">
<title>postgresql_image</title>
<ellipse fill="none" stroke="black" cx="708" cy="-174.48" rx="73.39" ry="18"/>
<text text-anchor="middle" x="708" y="-170.78" font-family="Times,serif" font-size="14.00">postgresql_image</text>
</g>
<!-- images_frontend&#45;&gt;postgresql_image -->
<g id="edge29" class="edge">
<title>images_frontend&#45;&gt;postgresql_image</title>
<path fill="none" stroke="#caff70" d="M699.12,-247.7C700.69,-234.95 702.85,-217.34 704.65,-202.7"/>
<polygon fill="#caff70" stroke="#caff70" points="708.14,-203.03 705.89,-192.68 701.19,-202.17 708.14,-203.03"/>
</g>
<!-- images_backend -->
<g id="node7" class="node">
<title>images_backend</title>
<g id="a_node7"><a xlink:href="https://poms.omroep.nl/images/" xlink:title="Images Backend">
<ellipse fill="none" stroke="black" cx="573" cy="-265.95" rx="69.59" ry="18"/>
<text text-anchor="middle" x="573" y="-262.25" font-family="Times,serif" font-size="14.00" fill="blue">Images Backend</text>
</a>
</g>
</g>
<!-- thineye -->
<g id="node9" class="node">
<title>thineye</title>
<ellipse fill="none" stroke="black" cx="420" cy="-174.48" rx="36.29" ry="18"/>
<text text-anchor="middle" x="420" y="-170.78" font-family="Times,serif" font-size="14.00">thineye</text>
</g>
<!-- images_backend&#45;&gt;thineye -->
<g id="edge30" class="edge">
<title>images_backend&#45;&gt;thineye</title>
<path fill="none" stroke="#caff70" d="M531.32,-251.53C510.75,-243.9 486.1,-233.22 466,-219.95 456.96,-213.99 448.13,-206.11 440.67,-198.65"/>
<polygon fill="#caff70" stroke="#caff70" points="443.16,-196.19 433.7,-191.41 438.11,-201.05 443.16,-196.19"/>
</g>
<!-- images_backend&#45;&gt;postgresql_image -->
<g id="edge31" class="edge">
<title>images_backend&#45;&gt;postgresql_image</title>
<path fill="none" stroke="#caff70" d="M597.14,-248.96C618.89,-234.54 651.05,-213.22 675.14,-197.25"/>
<polygon fill="#caff70" stroke="#caff70" points="677.22,-200.08 683.62,-191.64 673.35,-194.24 677.22,-200.08"/>
</g>
<!-- images_backend&#45;&gt;jms_ingest -->
<g id="edge32" class="edge">
<title>images_backend&#45;&gt;jms_ingest</title>
<path fill="none" stroke="#caff70" d="M611.51,-250.8C624.24,-246.65 638.58,-242.54 652,-239.95 769.28,-217.34 804.22,-249.31 920,-219.95 931.49,-217.04 943.3,-212.87 954.6,-208.25"/>
<polygon fill="#caff70" stroke="#caff70" points="956.11,-211.41 963.94,-204.27 953.37,-204.97 956.11,-211.41"/>
</g>
<!-- images_backend&#45;&gt;keycloak -->
<g id="edge33" class="edge">
<title>images_backend&#45;&gt;keycloak</title>
<path fill="none" stroke="#caff70" d="M610.64,-250.67C623.56,-246.4 638.24,-242.26 652,-239.95 739.59,-225.3 1367.52,-250.25 1451,-219.95 1463.4,-215.45 1475.15,-207.03 1484.66,-198.71"/>
<polygon fill="#caff70" stroke="#caff70" points="1487.12,-201.2 1492.08,-191.84 1482.37,-196.06 1487.12,-201.2"/>
</g>
<!-- wikimedia -->
<g id="node30" class="node">
<title>wikimedia</title>
<ellipse fill="none" stroke="black" cx="318" cy="-174.48" rx="48.19" ry="18"/>
<text text-anchor="middle" x="318" y="-170.78" font-family="Times,serif" font-size="14.00">wikimedia</text>
</g>
<!-- images_backend&#45;&gt;wikimedia -->
<g id="edge34" class="edge">
<title>images_backend&#45;&gt;wikimedia</title>
<path fill="none" stroke="#caff70" d="M510.48,-257.9C470.32,-251.67 417.84,-240.28 375,-219.95 363.42,-214.46 352.01,-206.27 342.48,-198.42"/>
<polygon fill="#caff70" stroke="#caff70" points="344.5,-195.53 334.63,-191.67 339.93,-200.84 344.5,-195.53"/>
</g>
<!-- pixabay -->
<g id="node31" class="node">
<title>pixabay</title>
<ellipse fill="none" stroke="black" cx="214" cy="-174.48" rx="38.19" ry="18"/>
<text text-anchor="middle" x="214" y="-170.78" font-family="Times,serif" font-size="14.00">pixabay</text>
</g>
<!-- images_backend&#45;&gt;pixabay -->
<g id="edge35" class="edge">
<title>images_backend&#45;&gt;pixabay</title>
<path fill="none" stroke="#caff70" d="M506.93,-260.13C428.55,-253.6 303.18,-240.36 261,-219.95 250.84,-215.04 241.41,-207.13 233.71,-199.33"/>
<polygon fill="#caff70" stroke="#caff70" points="235.98,-196.64 226.62,-191.69 230.85,-201.4 235.98,-196.64"/>
</g>
<!-- flickr -->
<g id="node32" class="node">
<title>flickr</title>
<ellipse fill="none" stroke="black" cx="128" cy="-174.48" rx="29.8" ry="18"/>
<text text-anchor="middle" x="128" y="-170.78" font-family="Times,serif" font-size="14.00">flickr</text>
</g>
<!-- images_backend&#45;&gt;flickr -->
<g id="edge36" class="edge">
<title>images_backend&#45;&gt;flickr</title>
<path fill="none" stroke="#caff70" d="M506.82,-260.25C399.48,-252.23 196.4,-235.28 167,-219.95 158.04,-215.28 150.2,-207.63 143.95,-199.98"/>
<polygon fill="#caff70" stroke="#caff70" points="146.62,-197.7 137.82,-191.82 141.03,-201.91 146.62,-197.7"/>
</g>
<!-- api_tests -->
<g id="node10" class="node">
<title>api_tests</title>
<g id="a_node10"><a xlink:href="https://git.vpro.nl/npo/test/api-tests/pipelines" xlink:title="api_tests">
<ellipse fill="azure" stroke="black" cx="674" cy="-431.95" rx="41.69" ry="18"/>
<text text-anchor="middle" x="674" y="-428.25" font-family="Times,serif" font-size="14.00" fill="blue">api_tests</text>
</a>
</g>
</g>
<!-- api_tests&#45;&gt;poms_backend -->
<g id="edge42" class="edge">
<title>api_tests&#45;&gt;poms_backend</title>
<path fill="none" stroke="gray" d="M703.82,-419.34C710.67,-417.14 718.01,-415.15 725,-413.95 749.53,-409.75 1150.6,-416.81 1173,-405.95 1215.92,-385.16 1206.22,-355.58 1241,-322.95 1254.19,-310.58 1270.21,-298.64 1284.29,-288.98"/>
<polygon fill="gray" stroke="gray" points="1286.42,-291.77 1292.76,-283.28 1282.51,-285.96 1286.42,-291.77"/>
</g>
<!-- api_tests&#45;&gt;api -->
<g id="edge43" class="edge">
<title>api_tests&#45;&gt;api</title>
<path fill="none" stroke="gray" d="M703.82,-419.35C710.68,-417.15 718.01,-415.16 725,-413.95 736.01,-412.05 1119.18,-413.93 1127,-405.95 1152.82,-379.61 1152.58,-349.53 1127,-322.95 1118.94,-314.58 929.2,-318.04 918,-314.95 898.04,-309.45 877.63,-298.7 861.49,-288.76"/>
<polygon fill="gray" stroke="gray" points="863.32,-285.77 853,-283.36 859.56,-291.68 863.32,-285.77"/>
</g>
<!-- api_tests&#45;&gt;pages_publish -->
<g id="edge44" class="edge">
<title>api_tests&#45;&gt;pages_publish</title>
<path fill="none" stroke="gray" d="M703.82,-419.34C710.67,-417.14 718.01,-415.16 725,-413.95 736.64,-411.95 1141.73,-414.38 1150,-405.95 1175.84,-379.62 1174.77,-350.29 1150,-322.95 1137.85,-309.55 1086.09,-320.88 1069,-314.95 1052.23,-309.14 1035.41,-298.88 1021.96,-289.33"/>
<polygon fill="gray" stroke="gray" points="1023.78,-286.32 1013.65,-283.22 1019.63,-291.96 1023.78,-286.32"/>
</g>
<!-- fitnesse_tests -->
<g id="node11" class="node">
<title>fitnesse_tests</title>
<g id="a_node11"><a xlink:href="https://jenkins.vpro.nl/view/POMS/job/POMS-Fitnesse-Tests/" xlink:title="fitnesse_tests">
<ellipse fill="azure" stroke="black" cx="946" cy="-431.95" rx="57.69" ry="18"/>
<text text-anchor="middle" x="946" y="-428.25" font-family="Times,serif" font-size="14.00" fill="blue">fitnesse_tests</text>
</a>
</g>
</g>
<!-- fitnesse_tests&#45;&gt;poms -->
<g id="edge45" class="edge">
<title>fitnesse_tests&#45;&gt;poms</title>
<path fill="none" stroke="gray" d="M986.82,-419.12C995.4,-417.05 1004.45,-415.17 1013,-413.95 1064.95,-406.57 1198.47,-420.09 1249,-405.95 1328.53,-383.7 1346.29,-366.26 1411,-314.95 1420,-307.82 1428.78,-298.8 1436.1,-290.5"/>
<polygon fill="gray" stroke="gray" points="1438.8,-292.73 1442.63,-282.86 1433.48,-288.18 1438.8,-292.73"/>
</g>
<!-- fitnesse_tests&#45;&gt;poms_backend -->
<g id="edge46" class="edge">
<title>fitnesse_tests&#45;&gt;poms_backend</title>
<path fill="none" stroke="gray" d="M986.84,-419.19C995.41,-417.12 1004.45,-415.22 1013,-413.95 1032.25,-411.1 1170.31,-414.07 1188,-405.95 1240.61,-381.8 1282.39,-325.94 1303.64,-292.86"/>
<polygon fill="gray" stroke="gray" points="1306.74,-294.51 1309.09,-284.18 1300.81,-290.79 1306.74,-294.51"/>
</g>
<!-- fitnesse_tests&#45;&gt;api -->
<g id="edge47" class="edge">
<title>fitnesse_tests&#45;&gt;api</title>
<path fill="none" stroke="gray" d="M987.2,-419.15C995.67,-417.11 1004.58,-415.23 1013,-413.95 1029.72,-411.42 1153.36,-418.22 1165,-405.95 1190.39,-379.19 1190.66,-349.46 1165,-322.95 1155.45,-313.09 931.25,-318.56 918,-314.95 898.02,-309.51 877.61,-298.76 861.48,-288.81"/>
<polygon fill="gray" stroke="gray" points="863.3,-285.83 852.99,-283.41 859.54,-291.73 863.3,-285.83"/>
</g>
<!-- users -->
<g id="node17" class="node">
<title>users</title>
<ellipse fill="none" stroke="black" cx="586" cy="-431.95" rx="28.7" ry="18"/>
<text text-anchor="middle" x="586" y="-428.25" font-family="Times,serif" font-size="14.00">users</text>
</g>
<!-- users&#45;&gt;api -->
<g id="edge4" class="edge">
<title>users&#45;&gt;api</title>
<path fill="none" stroke="gray" d="M606.99,-419.5C612.09,-417.24 617.62,-415.18 623,-413.95 635.43,-411.12 1073.06,-415.05 1082,-405.95 1107.86,-379.64 1107.44,-349.67 1082,-322.95 1069.42,-309.74 935.56,-319.89 918,-314.95 898.07,-309.35 877.66,-298.59 861.52,-288.67"/>
<polygon fill="gray" stroke="gray" points="863.34,-285.68 853.02,-283.29 859.59,-291.6 863.34,-285.68"/>
</g>
<!-- users&#45;&gt;images_frontend -->
<g id="edge5" class="edge">
<title>users&#45;&gt;images_frontend</title>
<path fill="none" stroke="gray" d="M606.99,-419.51C612.09,-417.24 617.62,-415.18 623,-413.95 634.81,-411.26 1050.51,-414.6 1059,-405.95 1084.84,-379.63 1084.75,-349.36 1059,-322.95 1046.7,-310.34 758.08,-322.16 742,-314.95 730.83,-309.94 721.12,-300.72 713.61,-291.68"/>
<polygon fill="gray" stroke="gray" points="716.23,-289.34 707.36,-283.56 710.69,-293.62 716.23,-289.34"/>
</g>
<!-- magnolia_frontend -->
<g id="node20" class="node">
<title>magnolia_frontend</title>
<ellipse fill="none" stroke="black" cx="797" cy="-356.95" rx="77.99" ry="18"/>
<text text-anchor="middle" x="797" y="-353.25" font-family="Times,serif" font-size="14.00">magnolia_frontend</text>
</g>
<!-- users&#45;&gt;magnolia_frontend -->
<g id="edge6" class="edge">
<title>users&#45;&gt;magnolia_frontend</title>
<path fill="none" stroke="gray" d="M607.46,-419.62C612.44,-417.4 617.81,-415.34 623,-413.95 660.51,-403.93 672.88,-417.35 710,-405.95 729.3,-400.03 749.13,-389.49 764.98,-379.79"/>
<polygon fill="gray" stroke="gray" points="767.23,-382.51 773.82,-374.22 763.49,-376.59 767.23,-382.51"/>
</g>
<!-- backendsystems -->
<g id="node18" class="node">
<title>backendsystems</title>
<ellipse fill="none" stroke="black" cx="802" cy="-431.95" rx="68.49" ry="18"/>
<text text-anchor="middle" x="802" y="-428.25" font-family="Times,serif" font-size="14.00">backendsystems</text>
</g>
<!-- backendsystems&#45;&gt;poms_backend -->
<g id="edge7" class="edge">
<title>backendsystems&#45;&gt;poms_backend</title>
<path fill="none" stroke="gray" d="M849.4,-418.98C859.13,-416.95 869.35,-415.12 879,-413.95 898.14,-411.64 1209.1,-415.23 1226,-405.95 1270.06,-381.77 1297.05,-326.74 1309.92,-293.64"/>
<polygon fill="gray" stroke="gray" points="1313.25,-294.72 1313.46,-284.12 1306.69,-292.27 1313.25,-294.72"/>
</g>
<!-- backendsystems&#45;&gt;pages_publish -->
<g id="edge8" class="edge">
<title>backendsystems&#45;&gt;pages_publish</title>
<path fill="none" stroke="gray" d="M849.4,-418.99C859.13,-416.96 869.35,-415.13 879,-413.95 887.94,-412.87 1196.71,-412.4 1203,-405.95 1228.76,-379.55 1228.3,-349.8 1203,-322.95 1192.77,-312.1 1083.18,-319.57 1069,-314.95 1052,-309.42 1035.05,-299.09 1021.57,-289.43"/>
<polygon fill="gray" stroke="gray" points="1023.37,-286.4 1013.26,-283.23 1019.18,-292.01 1023.37,-286.4"/>
</g>
<!-- editors -->
<g id="node19" class="node">
<title>editors</title>
<ellipse fill="none" stroke="black" cx="1056" cy="-431.95" rx="34.39" ry="18"/>
<text text-anchor="middle" x="1056" y="-428.25" font-family="Times,serif" font-size="14.00">editors</text>
</g>
<!-- editors&#45;&gt;poms -->
<g id="edge1" class="edge">
<title>editors&#45;&gt;poms</title>
<path fill="none" stroke="gray" d="M1090.47,-431.04C1178.43,-430.93 1406.03,-428.44 1431,-405.95 1461.9,-378.12 1462.37,-326.06 1459.18,-294.15"/>
<polygon fill="gray" stroke="gray" points="1462.65,-293.69 1458,-284.17 1455.7,-294.51 1462.65,-293.69"/>
</g>
<!-- magnolia_backend -->
<g id="node21" class="node">
<title>magnolia_backend</title>
<ellipse fill="none" stroke="black" cx="970" cy="-356.95" rx="77.19" ry="18"/>
<text text-anchor="middle" x="970" y="-353.25" font-family="Times,serif" font-size="14.00">magnolia_backend</text>
</g>
<!-- editors&#45;&gt;magnolia_backend -->
<g id="edge2" class="edge">
<title>editors&#45;&gt;magnolia_backend</title>
<path fill="none" stroke="gray" d="M1038.6,-416.18C1026.7,-406.08 1010.69,-392.49 997.13,-380.98"/>
<polygon fill="gray" stroke="gray" points="999.37,-378.29 989.48,-374.49 994.84,-383.63 999.37,-378.29"/>
</g>
<!-- editors&#45;&gt;keycloak -->
<g id="edge3" class="edge">
<title>editors&#45;&gt;keycloak</title>
<path fill="none" stroke="gray" d="M1090.67,-430.8C1182.83,-430.11 1428.9,-426.36 1459,-405.95 1524.23,-361.74 1518.43,-253.41 1511.6,-202.61"/>
<polygon fill="gray" stroke="gray" points="1515.06,-202.07 1510.15,-192.68 1508.13,-203.08 1515.06,-202.07"/>
</g>
<!-- magnolia_frontend&#45;&gt;api -->
<g id="edge39" class="edge">
<title>magnolia_frontend&#45;&gt;api</title>
<path fill="none" stroke="gray" d="M803.36,-338.79C808.11,-325.99 814.69,-308.25 820.12,-293.61"/>
<polygon fill="gray" stroke="gray" points="823.46,-294.65 823.66,-284.06 816.9,-292.22 823.46,-294.65"/>
</g>
<!-- magnolia_backend&#45;&gt;poms_backend -->
<g id="edge37" class="edge">
<title>magnolia_backend&#45;&gt;poms_backend</title>
<path fill="none" stroke="gray" d="M1042.65,-350.65C1094.95,-345.33 1166.63,-334.93 1227,-314.95 1246.91,-308.36 1267.75,-297.84 1284.54,-288.32"/>
<polygon fill="gray" stroke="gray" points="1286.53,-291.21 1293.42,-283.17 1283.02,-285.16 1286.53,-291.21"/>
</g>
<!-- magnolia_backend&#45;&gt;pages_publish -->
<g id="edge38" class="edge">
<title>magnolia_backend&#45;&gt;pages_publish</title>
<path fill="none" stroke="gray" d="M974.63,-338.79C978.05,-326.11 982.77,-308.59 986.7,-294.03"/>
<polygon fill="gray" stroke="gray" points="990.16,-294.63 989.39,-284.06 983.4,-292.8 990.16,-294.63"/>
</g>
<!-- amara_importer -->
<g id="node22" class="node">
<title>amara_importer</title>
<ellipse fill="none" stroke="black" cx="633" cy="-356.95" rx="67.69" ry="18"/>
<text text-anchor="middle" x="633" y="-353.25" font-family="Times,serif" font-size="14.00">amara_importer</text>
</g>
<!-- amara_importer&#45;&gt;poms_backend -->
<g id="edge48" class="edge">
<title>amara_importer&#45;&gt;poms_backend</title>
<path fill="none" stroke="gray" d="M661.73,-340.47C675.84,-333.7 693.36,-326.5 710,-322.95 766.19,-310.97 1171.31,-329.07 1227,-314.95 1247.92,-309.65 1269.41,-298.8 1286.36,-288.75"/>
<polygon fill="gray" stroke="gray" points="1288.57,-291.5 1295.27,-283.29 1284.91,-285.53 1288.57,-291.5"/>
</g>
<!-- amara -->
<g id="node33" class="node">
<title>amara</title>
<ellipse fill="none" stroke="black" cx="48" cy="-174.48" rx="32.49" ry="18"/>
<text text-anchor="middle" x="48" y="-170.78" font-family="Times,serif" font-size="14.00">amara</text>
</g>
<!-- amara_importer&#45;&gt;amara -->
<g id="edge49" class="edge">
<title>amara_importer&#45;&gt;amara</title>
<path fill="none" stroke="gray" d="M568.15,-351.73C461.34,-342.28 244.72,-312.35 89,-219.95 80.24,-214.76 72.24,-207.12 65.68,-199.63"/>
<polygon fill="gray" stroke="gray" points="68.2,-197.2 59.15,-191.69 62.79,-201.64 68.2,-197.2"/>
</g>
<!-- metis -->
<g id="node23" class="node">
<title>metis</title>
<ellipse fill="none" stroke="black" cx="1880" cy="-80" rx="30.59" ry="18"/>
<text text-anchor="middle" x="1880" y="-76.3" font-family="Times,serif" font-size="14.00">metis</text>
</g>
<!-- pd&#45;&gt;metis -->
<g id="edge41" class="edge">
<title>pd&#45;&gt;metis</title>
<path fill="none" stroke="gray" d="M1912.03,-156.94C1906.19,-143.09 1897.74,-123.07 1890.99,-107.06"/>
<polygon fill="gray" stroke="gray" points="1894.15,-105.56 1887.04,-97.7 1887.7,-108.28 1894.15,-105.56"/>
</g>
<!-- prepr&#45;&gt;metis -->
<g id="edge40" class="edge">
<title>prepr&#45;&gt;metis</title>
<path fill="none" stroke="gray" d="M1851.42,-156.52C1856.6,-142.83 1863.98,-123.33 1869.94,-107.57"/>
<polygon fill="gray" stroke="gray" points="1873.35,-108.45 1873.62,-97.85 1866.81,-105.97 1873.35,-108.45"/>
</g>
</g>
</svg>
