<?xml version="1.0" encoding="UTF-8" standalone="no"?>
<!DOCTYPE svg PUBLIC "-//W3C//DTD SVG 1.1//EN"
 "http://www.w3.org/Graphics/SVG/1.1/DTD/svg11.dtd">
<!-- Generated by graphviz version 2.40.1 (20161225.0304)
 -->
<!-- Title: poms_universe Pages: 1 -->
<svg width="683pt" height="432pt"
 viewBox="0.00 0.00 683.00 432.00" xmlns="http://www.w3.org/2000/svg" xmlns:xlink="http://www.w3.org/1999/xlink">
<g id="graph0" class="graph" transform="scale(1 1) rotate(0) translate(4 428)">
<title>poms_universe</title>
<polygon fill="#ffffff" stroke="transparent" points="-4,4 -4,-428 679,-428 679,4 -4,4"/>
<text text-anchor="middle" x="337.5" y="-7.8" font-family="Times,serif" font-size="14.00" fill="#000000">Deployments relevant for POMS</text>
<g id="clust1" class="cluster">
<title>cluster_0</title>
<polygon fill="none" stroke="#000000" points="8,-31 8,-178 354,-178 354,-31 8,-31"/>
<text text-anchor="middle" x="181" y="-162.8" font-family="Times,serif" font-size="14.00" fill="#000000">Generic backend services</text>
</g>
<g id="clust2" class="cluster">
<title>cluster_1</title>
<polygon fill="none" stroke="#000000" points="383,-269 383,-416 666,-416 666,-269 383,-269"/>
<text text-anchor="middle" x="524.5" y="-400.8" font-family="Times,serif" font-size="14.00" fill="#000000">World</text>
</g>
<g id="clust3" class="cluster">
<title>cluster_3</title>
<polygon fill="none" stroke="#000000" points="170,-186 170,-261 667,-261 667,-186 170,-186"/>
<text text-anchor="middle" x="418.5" y="-245.8" font-family="Times,serif" font-size="14.00" fill="#000000">POMS Public Services</text>
</g>
<!-- poms_gui -->
<g id="node1" class="node">
<title>poms_gui</title>
<g id="a_node1"><a xlink:href="https://poms.omroep.nl/" xlink:title="POMS">
<ellipse fill="none" stroke="#000000" cx="207" cy="-212" rx="29.4969" ry="18"/>
<text text-anchor="middle" x="207" y="-208.3" font-family="Times,serif" font-size="14.00" fill="#000000">POMS</text>
</a>
</g>
</g>
<!-- postgresql -->
<g id="node6" class="node">
<title>postgresql</title>
<ellipse fill="none" stroke="#000000" cx="127" cy="-129" rx="38.9931" ry="18"/>
<text text-anchor="middle" x="127" y="-125.3" font-family="Times,serif" font-size="14.00" fill="#000000">postgresql</text>
</g>
<!-- poms_gui&#45;&gt;postgresql -->
<g id="edge8" class="edge">
<title>poms_gui&#45;&gt;postgresql</title>
<path fill="none" stroke="#000000" d="M191.9526,-196.3883C180.1902,-184.1848 163.6348,-167.0086 150.1822,-153.0516"/>
<polygon fill="#000000" stroke="#000000" points="152.5377,-150.452 143.0779,-145.6809 147.4977,-155.3098 152.5377,-150.452"/>
</g>
<!-- sso -->
<g id="node8" class="node">
<title>sso</title>
<ellipse fill="none" stroke="#000000" cx="43" cy="-129" rx="27" ry="18"/>
<text text-anchor="middle" x="43" y="-125.3" font-family="Times,serif" font-size="14.00" fill="#000000">sso</text>
</g>
<!-- poms_gui&#45;&gt;sso -->
<g id="edge9" class="edge">
<title>poms_gui&#45;&gt;sso</title>
<path fill="none" stroke="#000000" d="M189.4884,-197.2624C183.373,-192.8945 176.2234,-188.5906 169,-186 131.1998,-172.4432 113.9902,-197.706 79,-178 69.7161,-172.7714 62.1565,-164.0483 56.4049,-155.3992"/>
<polygon fill="#000000" stroke="#000000" points="59.2343,-153.3137 51.0691,-146.5623 53.2419,-156.932 59.2343,-153.3137"/>
</g>
<!-- jms -->
<g id="node9" class="node">
<title>jms</title>
<ellipse fill="none" stroke="#000000" cx="211" cy="-129" rx="27" ry="18"/>
<text text-anchor="middle" x="211" y="-125.3" font-family="Times,serif" font-size="14.00" fill="#000000">jms</text>
</g>
<!-- poms_gui&#45;&gt;jms -->
<g id="edge10" class="edge">
<title>poms_gui&#45;&gt;jms</title>
<path fill="none" stroke="#000000" d="M207.8679,-193.9902C208.3833,-183.2963 209.0482,-169.4994 209.6327,-157.3706"/>
<polygon fill="#000000" stroke="#000000" points="213.1344,-157.4182 210.1199,-147.2612 206.1425,-157.0811 213.1344,-157.4182"/>
</g>
<!-- ldap -->
<g id="node10" class="node">
<title>ldap</title>
<ellipse fill="none" stroke="#000000" cx="319" cy="-57" rx="27" ry="18"/>
<text text-anchor="middle" x="319" y="-53.3" font-family="Times,serif" font-size="14.00" fill="#000000">ldap</text>
</g>
<!-- poms_gui&#45;&gt;ldap -->
<g id="edge11" class="edge">
<title>poms_gui&#45;&gt;ldap</title>
<path fill="none" stroke="#000000" d="M224.6103,-197.4719C230.974,-193.0059 238.4572,-188.5889 246,-186 257.4859,-182.0577 346.7334,-186.8956 355,-178 379.906,-151.1991 357.0226,-107.9002 338.085,-81.0156"/>
<polygon fill="#000000" stroke="#000000" points="340.8752,-78.9018 332.1406,-72.9053 335.2293,-83.04 340.8752,-78.9018"/>
</g>
<!-- poms_backend -->
<g id="node2" class="node">
<title>poms_backend</title>
<g id="a_node2"><a xlink:href="https://api.poms.omroep.nl/" xlink:title="POMS backend API">
<ellipse fill="none" stroke="#000000" cx="321" cy="-212" rx="66.0889" ry="18"/>
<text text-anchor="middle" x="321" y="-208.3" font-family="Times,serif" font-size="14.00" fill="#000000">POMS backend API</text>
</a>
</g>
</g>
<!-- poms_backend&#45;&gt;jms -->
<g id="edge12" class="edge">
<title>poms_backend&#45;&gt;jms</title>
<path fill="none" stroke="#000000" d="M280.0646,-197.6211C268.6688,-192.4824 256.7532,-185.9506 247,-178 239.0686,-171.5345 231.982,-162.9396 226.2376,-154.755"/>
<polygon fill="#000000" stroke="#000000" points="228.9879,-152.5685 220.5547,-146.1551 223.1478,-156.4277 228.9879,-152.5685"/>
</g>
<!-- poms_backend&#45;&gt;ldap -->
<g id="edge13" class="edge">
<title>poms_backend&#45;&gt;ldap</title>
<path fill="none" stroke="#000000" d="M365.0647,-198.3094C374.1643,-193.3814 382.6086,-186.7818 388,-178 403.5796,-152.623 401.0427,-137.7694 388,-111 379.9996,-94.5796 364.3235,-81.6826 349.9327,-72.6165"/>
<polygon fill="#000000" stroke="#000000" points="351.6087,-69.5415 341.2185,-67.4693 348.0487,-75.5686 351.6087,-69.5415"/>
</g>
<!-- api -->
<g id="node3" class="node">
<title>api</title>
<g id="a_node3"><a xlink:href="https://rs.poms.omroep.nl/" xlink:title="NPO Frontend API">
<ellipse fill="none" stroke="#000000" cx="595" cy="-212" rx="63.8893" ry="18"/>
<text text-anchor="middle" x="595" y="-208.3" font-family="Times,serif" font-size="14.00" fill="#000000">NPO Frontend API</text>
</a>
</g>
</g>
<!-- elasticsearch -->
<g id="node7" class="node">
<title>elasticsearch</title>
<ellipse fill="none" stroke="#000000" cx="301" cy="-129" rx="45.4919" ry="18"/>
<text text-anchor="middle" x="301" y="-125.3" font-family="Times,serif" font-size="14.00" fill="#000000">elasticsearch</text>
</g>
<!-- api&#45;&gt;elasticsearch -->
<g id="edge14" class="edge">
<title>api&#45;&gt;elasticsearch</title>
<path fill="none" stroke="#000000" d="M556.5726,-197.5852C545.4831,-193.624 533.3197,-189.468 522,-186 463.5319,-168.0874 395.242,-151.0568 350.2209,-140.3546"/>
<polygon fill="#000000" stroke="#000000" points="350.9567,-136.9321 340.4197,-138.0373 349.3461,-143.7443 350.9567,-136.9321"/>
</g>
<!-- pages_publish -->
<g id="node4" class="node">
<title>pages_publish</title>
<g id="a_node4"><a xlink:href="https://publish.pages.omroep.nl/" xlink:title="Pages Publisher">
<ellipse fill="none" stroke="#000000" cx="459" cy="-212" rx="53.8905" ry="18"/>
<text text-anchor="middle" x="459" y="-208.3" font-family="Times,serif" font-size="14.00" fill="#000000">Pages Publisher</text>
</a>
</g>
</g>
<!-- pages_publish&#45;&gt;elasticsearch -->
<g id="edge15" class="edge">
<title>pages_publish&#45;&gt;elasticsearch</title>
<path fill="none" stroke="#000000" d="M430.0204,-196.7765C404.0072,-183.1114 365.7021,-162.9891 337.5856,-148.219"/>
<polygon fill="#000000" stroke="#000000" points="338.9541,-144.9844 328.4735,-143.4323 335.6987,-151.1814 338.9541,-144.9844"/>
</g>
<!-- pages_publish&#45;&gt;ldap -->
<g id="edge16" class="edge">
<title>pages_publish&#45;&gt;ldap</title>
<path fill="none" stroke="#000000" d="M453.0579,-193.785C445.2518,-172.053 429.8031,-135.5791 407,-111 391.3239,-94.103 369.1938,-80.5565 351.0482,-71.2576"/>
<polygon fill="#000000" stroke="#000000" points="352.4947,-68.0686 341.9777,-66.7868 349.4,-74.3473 352.4947,-68.0686"/>
</g>
<!-- media_publish -->
<g id="node5" class="node">
<title>media_publish</title>
<g id="a_node5"><a xlink:href="https://publish.pages.omroep.nl/" xlink:title="Media Publisher">
<ellipse fill="none" stroke="#000000" cx="104" cy="-212" rx="55.7903" ry="18"/>
<text text-anchor="middle" x="104" y="-208.3" font-family="Times,serif" font-size="14.00" fill="#000000">Media Publisher</text>
</a>
</g>
</g>
<!-- media_publish&#45;&gt;elasticsearch -->
<g id="edge17" class="edge">
<title>media_publish&#45;&gt;elasticsearch</title>
<path fill="none" stroke="#000000" d="M134.916,-196.9025C144.6544,-192.732 155.5896,-188.6334 166,-186 201.0705,-177.1286 213.9346,-192.6738 247,-178 259.2943,-172.544 270.6853,-163.1763 279.805,-154.0838"/>
<polygon fill="#000000" stroke="#000000" points="282.5586,-156.2666 286.9013,-146.6026 277.4799,-151.4492 282.5586,-156.2666"/>
</g>
<!-- media_publish&#45;&gt;jms -->
<g id="edge18" class="edge">
<title>media_publish&#45;&gt;jms</title>
<path fill="none" stroke="#000000" d="M141.0612,-198.4002C152.6471,-193.101 165.0021,-186.2833 175,-178 182.8797,-171.4716 189.9538,-162.8614 195.7025,-154.6822"/>
<polygon fill="#000000" stroke="#000000" points="198.7871,-156.3635 201.3957,-146.0948 192.9529,-152.4955 198.7871,-156.3635"/>
</g>
<!-- sso&#45;&gt;ldap -->
<g id="edge22" class="edge">
<title>sso&#45;&gt;ldap</title>
<path fill="none" stroke="#000000" d="M63.9462,-117.4625C68.7927,-115.0944 73.9978,-112.7835 79,-111 148.937,-86.0653 234.5695,-70.0932 282.3255,-62.4101"/>
<polygon fill="#000000" stroke="#000000" points="283.1544,-65.8227 292.4877,-60.8088 282.0648,-58.9081 283.1544,-65.8227"/>
</g>
<!-- magnolia_frontend -->
<g id="node11" class="node">
<title>magnolia_frontend</title>
<ellipse fill="none" stroke="#000000" cx="596" cy="-295" rx="62.2891" ry="18"/>
<text text-anchor="middle" x="596" y="-291.3" font-family="Times,serif" font-size="14.00" fill="#000000">magnolia_frontend</text>
</g>
<!-- magnolia_frontend&#45;&gt;api -->
<g id="edge21" class="edge">
<title>magnolia_frontend&#45;&gt;api</title>
<path fill="none" stroke="#000000" d="M595.783,-276.9902C595.6542,-266.2963 595.4879,-252.4994 595.3418,-240.3706"/>
<polygon fill="#000000" stroke="#000000" points="598.8403,-240.2183 595.22,-230.2612 591.8408,-240.3027 598.8403,-240.2183"/>
</g>
<!-- magnolia_backend -->
<g id="node12" class="node">
<title>magnolia_backend</title>
<ellipse fill="none" stroke="#000000" cx="453" cy="-295" rx="62.2891" ry="18"/>
<text text-anchor="middle" x="453" y="-291.3" font-family="Times,serif" font-size="14.00" fill="#000000">magnolia_backend</text>
</g>
<!-- magnolia_backend&#45;&gt;poms_backend -->
<g id="edge19" class="edge">
<title>magnolia_backend&#45;&gt;poms_backend</title>
<path fill="none" stroke="#000000" d="M425.3198,-278.7968C415.9593,-273.236 405.4799,-266.9207 396,-261 382.3875,-252.4983 367.5635,-242.8893 354.7162,-234.4468"/>
<polygon fill="#000000" stroke="#000000" points="356.4522,-231.3991 346.177,-228.8163 352.5989,-237.2431 356.4522,-231.3991"/>
</g>
<!-- magnolia_backend&#45;&gt;pages_publish -->
<g id="edge20" class="edge">
<title>magnolia_backend&#45;&gt;pages_publish</title>
<path fill="none" stroke="#000000" d="M454.3019,-276.9902C455.075,-266.2963 456.0723,-252.4994 456.9491,-240.3706"/>
<polygon fill="#000000" stroke="#000000" points="460.4497,-240.4876 457.6799,-230.2612 453.4679,-239.9828 460.4497,-240.4876"/>
</g>
<!-- users -->
<g id="node13" class="node">
<title>users</title>
<ellipse fill="none" stroke="#000000" cx="622" cy="-367" rx="27" ry="18"/>
<text text-anchor="middle" x="622" y="-363.3" font-family="Times,serif" font-size="14.00" fill="#000000">users</text>
</g>
<!-- users&#45;&gt;api -->
<g id="edge4" class="edge">
<title>users&#45;&gt;api</title>
<path fill="none" stroke="#000000" d="M601.1134,-355.2887C596.2638,-352.9297 591.0425,-350.6663 586,-349 498.5819,-320.112 441.175,-383.532 382,-313 369.431,-298.0187 368.5724,-283.2168 382,-269 392.6985,-257.6727 507.2303,-265.9621 522,-261 538.3796,-255.497 554.5475,-245.2794 567.4881,-235.5928"/>
<polygon fill="#000000" stroke="#000000" points="569.755,-238.2636 575.4957,-229.3589 565.4549,-232.7401 569.755,-238.2636"/>
</g>
<!-- users&#45;&gt;magnolia_frontend -->
<g id="edge5" class="edge">
<title>users&#45;&gt;magnolia_frontend</title>
<path fill="none" stroke="#000000" d="M615.573,-349.2022C612.6886,-341.2146 609.2183,-331.6045 606.0059,-322.7087"/>
<polygon fill="#000000" stroke="#000000" points="609.2221,-321.3099 602.5336,-313.0931 602.6382,-323.6874 609.2221,-321.3099"/>
</g>
<!-- backendsystems -->
<g id="node14" class="node">
<title>backendsystems</title>
<ellipse fill="none" stroke="#000000" cx="522" cy="-367" rx="55.4913" ry="18"/>
<text text-anchor="middle" x="522" y="-363.3" font-family="Times,serif" font-size="14.00" fill="#000000">backendsystems</text>
</g>
<!-- backendsystems&#45;&gt;poms_backend -->
<g id="edge6" class="edge">
<title>backendsystems&#45;&gt;poms_backend</title>
<path fill="none" stroke="#000000" d="M480.9455,-354.7345C433.0163,-340.2659 359.6466,-317.5913 355,-313 335.4584,-293.691 327.1474,-262.8027 323.6134,-240.2634"/>
<polygon fill="#000000" stroke="#000000" points="327.0701,-239.7062 322.2681,-230.2621 320.1325,-240.6394 327.0701,-239.7062"/>
</g>
<!-- backendsystems&#45;&gt;pages_publish -->
<g id="edge7" class="edge">
<title>backendsystems&#45;&gt;pages_publish</title>
<path fill="none" stroke="#000000" d="M480.4119,-355.111C437.157,-342.3299 374.7803,-322.5626 368,-313 356.689,-297.0476 356.2237,-284.6122 368,-269 375.7939,-258.6674 384.459,-266.8577 396,-261 409.1938,-254.3035 422.3419,-244.6681 433.187,-235.7107"/>
<polygon fill="#000000" stroke="#000000" points="435.6562,-238.205 440.994,-229.053 431.114,-232.8787 435.6562,-238.205"/>
</g>
<!-- editors -->
<g id="node15" class="node">
<title>editors</title>
<ellipse fill="none" stroke="#000000" cx="420" cy="-367" rx="29.4969" ry="18"/>
<text text-anchor="middle" x="420" y="-363.3" font-family="Times,serif" font-size="14.00" fill="#000000">editors</text>
</g>
<!-- editors&#45;&gt;poms_gui -->
<g id="edge1" class="edge">
<title>editors&#45;&gt;poms_gui</title>
<path fill="none" stroke="#000000" d="M396.4421,-356.2616C361.1208,-339.4078 293.52,-304.1694 246,-261 238.2353,-253.9462 230.7837,-245.2491 224.512,-237.1494"/>
<polygon fill="#000000" stroke="#000000" points="227.2279,-234.9367 218.4399,-229.0188 221.6194,-239.1253 227.2279,-234.9367"/>
</g>
<!-- editors&#45;&gt;sso -->
<g id="edge2" class="edge">
<title>editors&#45;&gt;sso</title>
<path fill="none" stroke="#000000" d="M391.1617,-363.4468C309.9662,-352.7931 82.5087,-318.2659 39,-261 16.2703,-231.0833 24.2799,-185.3778 32.9882,-156.3567"/>
<polygon fill="#000000" stroke="#000000" points="36.4352,-157.0713 36.1725,-146.4797 29.7728,-154.9233 36.4352,-157.0713"/>
</g>
<!-- editors&#45;&gt;magnolia_backend -->
<g id="edge3" class="edge">
<title>editors&#45;&gt;magnolia_backend</title>
<path fill="none" stroke="#000000" d="M427.9884,-349.5708C431.7542,-341.3544 436.3346,-331.3608 440.5415,-322.1821"/>
<polygon fill="#000000" stroke="#000000" points="443.7557,-323.5696 444.7406,-313.0206 437.3922,-320.6529 443.7557,-323.5696"/>
</g>
</g>
</svg>
