<?xml version="1.0" encoding="UTF-8" standalone="no"?>
<!DOCTYPE svg PUBLIC "-//W3C//DTD SVG 1.1//EN"
 "http://www.w3.org/Graphics/SVG/1.1/DTD/svg11.dtd">
<!-- Generated by graphviz version 2.40.1 (20161225.0304)
 -->
<!-- Title: poms_universe Pages: 1 -->
<svg width="2142pt" height="517pt"
 viewBox="0.00 0.00 2142.00 516.82" xmlns="http://www.w3.org/2000/svg" xmlns:xlink="http://www.w3.org/1999/xlink">
<g id="graph0" class="graph" transform="scale(1 1) rotate(0) translate(4 512.8234)">
<title>poms_universe</title>
<polygon fill="#ffffff" stroke="transparent" points="-4,4 -4,-512.8234 2138,-512.8234 2138,4 -4,4"/>
<text text-anchor="middle" x="1067" y="-7.8" font-family="Times,serif" font-size="14.00" fill="#000000">Deployments relevant for POMS</text>
<g id="clust1" class="cluster">
<title>cluster_0</title>
<polygon fill="#f0ffff" stroke="#000000" points="1023,-31 1023,-144.9533 1933,-144.9533 1933,-31 1023,-31"/>
<text text-anchor="middle" x="1478" y="-38.8" font-family="Times,serif" font-size="14.00" fill="#000000">Generic backend services</text>
</g>
<g id="clust2" class="cluster">
<title>cluster_1</title>
<polygon fill="none" stroke="#000000" points="1865,-167.0833 1865,-259.8234 2126,-259.8234 2126,-167.0833 1865,-167.0833"/>
<text text-anchor="middle" x="1995.5" y="-244.6234" font-family="Times,serif" font-size="14.00" fill="#000000">Single signon</text>
</g>
<g id="clust3" class="cluster">
<title>cluster_3</title>
<polygon fill="none" stroke="#000000" points="1240,-342.8234 1240,-500.8234 1608,-500.8234 1608,-342.8234 1240,-342.8234"/>
<text text-anchor="middle" x="1424" y="-485.6234" font-family="Times,serif" font-size="14.00" fill="#000000">World</text>
</g>
<g id="clust4" class="cluster">
<title>cluster_2</title>
<polygon fill="none" stroke="#000000" points="1248,-350.8234 1248,-425.8234 1600,-425.8234 1600,-350.8234 1248,-350.8234"/>
<text text-anchor="middle" x="1424" y="-410.6234" font-family="Times,serif" font-size="14.00" fill="#000000">VPRO</text>
</g>
<g id="clust5" class="cluster">
<title>cluster_4</title>
<polygon fill="#f0ffff" stroke="#000000" points="993,-175.9533 993,-334.8234 1857,-334.8234 1857,-175.9533 993,-175.9533"/>
<text text-anchor="middle" x="1425" y="-319.6234" font-family="Times,serif" font-size="14.00" fill="#000000">POMS &#160;Services</text>
</g>
<g id="clust6" class="cluster">
<title>cluster_5</title>
<polygon fill="none" stroke="#000000" points="590,-50.4767 590,-227.9533 985,-227.9533 985,-50.4767 590,-50.4767"/>
<text text-anchor="middle" x="787.5" y="-58.2767" font-family="Times,serif" font-size="14.00" fill="#000000">NPO Services</text>
</g>
<g id="clust7" class="cluster">
<title>cluster_6</title>
<polygon fill="none" stroke="#000000" points="8,-152.9533 8,-227.9533 550,-227.9533 550,-152.9533 8,-152.9533"/>
<text text-anchor="middle" x="279" y="-160.7533" font-family="Times,serif" font-size="14.00" fill="#000000">Auxiliary API&#39;s</text>
</g>
<!-- poms -->
<g id="node1" class="node">
<title>poms</title>
<g id="a_node1"><a xlink:href="https://poms.omroep.nl/" xlink:title="POMS">
<ellipse fill="none" stroke="#000000" cx="1377" cy="-285.8234" rx="35.9954" ry="18"/>
<text text-anchor="middle" x="1377" y="-282.1234" font-family="Times,serif" font-size="14.00" fill="#0000ff">POMS</text>
</a>
</g>
</g>
<!-- gtaa -->
<g id="node8" class="node">
<title>gtaa</title>
<g id="a_node8"><a xlink:href="http://gtaa.beeldengeluid.nl/" xlink:title="B&amp;G Thesaurus">
<ellipse fill="none" stroke="#000000" cx="472" cy="-201.9533" rx="70.3881" ry="18"/>
<text text-anchor="middle" x="472" y="-198.2533" font-family="Times,serif" font-size="14.00" fill="#0000ff">B&amp;G Thesaurus</text>
</a>
</g>
</g>
<!-- poms&#45;&gt;gtaa -->
<g id="edge9" class="edge">
<title>poms&#45;&gt;gtaa</title>
<path fill="none" stroke="#0000ff" d="M1350.8474,-273.4823C1344.7877,-271.1559 1338.2732,-269.065 1332,-267.8234 1289.7071,-259.4522 597.1004,-272.8433 556,-259.8234 534.4355,-252.9921 513.4778,-238.5704 497.8902,-225.8337"/>
<polygon fill="#0000ff" stroke="#0000ff" points="500.1494,-223.1605 490.2536,-219.3759 495.6294,-228.5056 500.1494,-223.1605"/>
</g>
<!-- postgresql_media -->
<g id="node10" class="node">
<title>postgresql_media</title>
<ellipse fill="none" stroke="#000000" cx="1106" cy="-99.4767" rx="74.9875" ry="18"/>
<text text-anchor="middle" x="1106" y="-95.7767" font-family="Times,serif" font-size="14.00" fill="#000000">postgresql_media</text>
</g>
<!-- poms&#45;&gt;postgresql_media -->
<g id="edge10" class="edge">
<title>poms&#45;&gt;postgresql_media</title>
<path fill="none" stroke="#0000ff" d="M1348.9914,-274.3901C1343.382,-272.1652 1337.5174,-269.8852 1332,-267.8234 1321.8618,-264.0348 1318.4895,-265.0277 1309,-259.8234 1238.5987,-221.2129 1167.5222,-158.3266 1131.0499,-123.9027"/>
<polygon fill="#0000ff" stroke="#0000ff" points="1133.4618,-121.3665 1123.805,-117.008 1128.6361,-126.4373 1133.4618,-121.3665"/>
</g>
<!-- jms_ingest -->
<g id="node13" class="node">
<title>jms_ingest</title>
<ellipse fill="none" stroke="#000000" cx="1292" cy="-99.4767" rx="93.1765" ry="37.4533"/>
<text text-anchor="start" x="1234" y="-110.7767" font-family="Times,serif" font-size="14.00" fill="#000000">JMS ActiveMQ</text>
<text text-anchor="start" x="1234" y="-95.7767" font-family="Times,serif" font-size="14.00" fill="#000000">(broadcast ingests,</text>
<text text-anchor="middle" x="1292" y="-80.7767" font-family="Times,serif" font-size="14.00" fill="#000000">internal SOAP calls)</text>
</g>
<!-- poms&#45;&gt;jms_ingest -->
<g id="edge11" class="edge">
<title>poms&#45;&gt;jms_ingest</title>
<path fill="none" stroke="#0000ff" d="M1365.9702,-268.684C1364.234,-265.7683 1362.5146,-262.7396 1361,-259.8234 1341.6957,-222.6535 1323.1248,-178.8842 1310.1216,-146.474"/>
<polygon fill="#0000ff" stroke="#0000ff" points="1313.2209,-144.7963 1306.2702,-136.8002 1306.7174,-147.3856 1313.2209,-144.7963"/>
</g>
<!-- jms_publish -->
<g id="node14" class="node">
<title>jms_publish</title>
<ellipse fill="none" stroke="#000000" cx="1778" cy="-99.4767" rx="74.9067" ry="26.7407"/>
<text text-anchor="start" x="1733" y="-103.2767" font-family="Times,serif" font-size="14.00" fill="#000000">JMS ActiveMQ</text>
<text text-anchor="middle" x="1778" y="-88.2767" font-family="Times,serif" font-size="14.00" fill="#000000">(publication)</text>
</g>
<!-- poms&#45;&gt;jms_publish -->
<g id="edge12" class="edge">
<title>poms&#45;&gt;jms_publish</title>
<path fill="none" stroke="#0000ff" d="M1391.7863,-269.343C1419.5626,-239.6966 1482.9054,-178.1208 1551,-152.9533 1580.8537,-141.9195 1663.3775,-153.628 1694,-144.9533 1707.4812,-141.1344 1721.2137,-134.8825 1733.5632,-128.2196"/>
<polygon fill="#0000ff" stroke="#0000ff" points="1735.2795,-131.27 1742.2878,-123.3242 1731.8541,-125.1653 1735.2795,-131.27"/>
</g>
<!-- ldap -->
<g id="node15" class="node">
<title>ldap</title>
<ellipse fill="none" stroke="#000000" cx="1898" cy="-99.4767" rx="27" ry="18"/>
<text text-anchor="middle" x="1898" y="-95.7767" font-family="Times,serif" font-size="14.00" fill="#000000">ldap</text>
</g>
<!-- poms&#45;&gt;ldap -->
<g id="edge13" class="edge">
<title>poms&#45;&gt;ldap</title>
<path fill="none" stroke="#0000ff" d="M1404.3058,-273.9088C1410.0761,-271.6726 1416.1814,-269.5106 1422,-267.8234 1440.67,-262.4097 1447.6559,-268.6017 1465,-259.8234 1526.9644,-228.4616 1514.7844,-179.4016 1579,-152.9533 1608.0866,-140.9735 1833.8792,-159.0516 1862,-144.9533 1870.5404,-140.6716 1877.6951,-133.3174 1883.3181,-125.7562"/>
<polygon fill="#0000ff" stroke="#0000ff" points="1886.5541,-127.2139 1889.2069,-116.9565 1880.7365,-123.3207 1886.5541,-127.2139"/>
</g>
<!-- keycloak -->
<g id="node17" class="node">
<title>keycloak</title>
<g id="a_node17"><a xlink:href="https://ident-test.poms.omroep.nl/auth/" xlink:title="Keycloak\l(replaces sso,gosa)">
<ellipse fill="none" stroke="#000000" cx="2032" cy="-201.9533" rx="86.0347" ry="26.7407"/>
<text text-anchor="start" x="1979" y="-205.7533" font-family="Times,serif" font-size="14.00" fill="#0000ff">Keycloak</text>
<text text-anchor="middle" x="2032" y="-190.7533" font-family="Times,serif" font-size="14.00" fill="#0000ff">(replaces sso,gosa)</text>
</a>
</g>
</g>
<!-- poms&#45;&gt;keycloak -->
<g id="edge14" class="edge">
<title>poms&#45;&gt;keycloak</title>
<path fill="none" stroke="#0000ff" d="M1403.1574,-273.5067C1409.2169,-271.1791 1415.7301,-269.0815 1422,-267.8234 1478.0017,-256.5858 1881.091,-275.5547 1936,-259.8234 1955.5733,-254.2157 1975.1824,-243.5257 1991.5289,-232.8442"/>
<polygon fill="#0000ff" stroke="#0000ff" points="1993.9311,-235.4448 2000.2536,-226.9432 1990.0094,-229.6465 1993.9311,-235.4448"/>
</g>
<!-- metis -->
<g id="node23" class="node">
<title>metis</title>
<ellipse fill="none" stroke="#000000" cx="666" cy="-99.4767" rx="30.5947" ry="18"/>
<text text-anchor="middle" x="666" y="-95.7767" font-family="Times,serif" font-size="14.00" fill="#000000">metis</text>
</g>
<!-- poms&#45;&gt;metis -->
<g id="edge15" class="edge">
<title>poms&#45;&gt;metis</title>
<path fill="none" stroke="#0000ff" d="M1350.847,-273.4844C1344.7873,-271.1579 1338.2729,-269.0665 1332,-267.8234 1321.8768,-265.8173 596.258,-267.1599 589,-259.8234 555.5953,-226.057 566.9871,-195.0422 589,-152.9533 598.0168,-135.713 615.4021,-122.9133 631.3744,-114.1661"/>
<polygon fill="#0000ff" stroke="#0000ff" points="633.2297,-117.1487 640.5415,-109.4813 630.0442,-110.9154 633.2297,-117.1487"/>
</g>
<!-- pd -->
<g id="node24" class="node">
<title>pd</title>
<ellipse fill="none" stroke="#000000" cx="703" cy="-201.9533" rx="27" ry="18"/>
<text text-anchor="middle" x="703" y="-198.2533" font-family="Times,serif" font-size="14.00" fill="#000000">pd</text>
</g>
<!-- poms&#45;&gt;pd -->
<g id="edge16" class="edge">
<title>poms&#45;&gt;pd</title>
<path fill="none" stroke="#0000ff" d="M1350.8445,-273.4971C1344.7849,-271.1699 1338.2712,-269.075 1332,-267.8234 1299.6898,-261.3747 767.6919,-276.0194 739,-259.8234 727.086,-253.0982 718.5903,-240.6427 712.8555,-229.0051"/>
<polygon fill="#0000ff" stroke="#0000ff" points="715.924,-227.2906 708.6731,-219.5656 709.5241,-230.1262 715.924,-227.2906"/>
</g>
<!-- prepr -->
<g id="node25" class="node">
<title>prepr</title>
<ellipse fill="none" stroke="#000000" cx="628" cy="-201.9533" rx="29.795" ry="18"/>
<text text-anchor="middle" x="628" y="-198.2533" font-family="Times,serif" font-size="14.00" fill="#000000">prepr</text>
</g>
<!-- poms&#45;&gt;prepr -->
<g id="edge17" class="edge">
<title>poms&#45;&gt;prepr</title>
<path fill="none" stroke="#0000ff" d="M1350.8458,-273.4903C1344.7862,-271.1635 1338.2721,-269.0704 1332,-267.8234 1313.8811,-264.2208 683.257,-268.5974 667,-259.8234 654.5491,-253.1035 645.342,-240.4719 639.0103,-228.7206"/>
<polygon fill="#0000ff" stroke="#0000ff" points="642.0893,-227.0501 634.5417,-219.6147 635.8052,-230.134 642.0893,-227.0501"/>
</g>
<!-- miranda -->
<g id="node26" class="node">
<title>miranda</title>
<ellipse fill="none" stroke="#000000" cx="865" cy="-201.9533" rx="40.0939" ry="18"/>
<text text-anchor="middle" x="865" y="-198.2533" font-family="Times,serif" font-size="14.00" fill="#000000">miranda</text>
</g>
<!-- poms&#45;&gt;miranda -->
<g id="edge18" class="edge">
<title>poms&#45;&gt;miranda</title>
<path fill="none" stroke="#0000ff" d="M1350.8392,-273.5234C1344.7799,-271.1948 1338.2676,-269.0927 1332,-267.8234 1309.2357,-263.2131 934.9777,-269.7935 914,-259.8234 899.8397,-253.0933 888.2498,-240.1008 879.9034,-228.1291"/>
<polygon fill="#0000ff" stroke="#0000ff" points="882.8004,-226.1639 874.4087,-219.6963 876.9355,-229.9854 882.8004,-226.1639"/>
</g>
<!-- pluto -->
<g id="node27" class="node">
<title>pluto</title>
<ellipse fill="none" stroke="#000000" cx="777" cy="-201.9533" rx="29.4969" ry="18"/>
<text text-anchor="middle" x="777" y="-198.2533" font-family="Times,serif" font-size="14.00" fill="#000000">pluto</text>
</g>
<!-- poms&#45;&gt;pluto -->
<g id="edge19" class="edge">
<title>poms&#45;&gt;pluto</title>
<path fill="none" stroke="#0000ff" d="M1350.8426,-273.5065C1344.7832,-271.1788 1338.2699,-269.0813 1332,-267.8234 1303.8901,-262.1836 841.2064,-273.4841 816,-259.8234 803.5608,-253.0819 794.3547,-240.4484 788.0206,-228.7014"/>
<polygon fill="#0000ff" stroke="#0000ff" points="791.1003,-227.0324 783.5496,-219.6001 784.8174,-230.1188 791.1003,-227.0324"/>
</g>
<!-- nep -->
<g id="node28" class="node">
<title>nep</title>
<ellipse fill="none" stroke="#000000" cx="950" cy="-201.9533" rx="27" ry="18"/>
<text text-anchor="middle" x="950" y="-198.2533" font-family="Times,serif" font-size="14.00" fill="#000000">nep</text>
</g>
<!-- poms&#45;&gt;nep -->
<g id="edge20" class="edge">
<title>poms&#45;&gt;nep</title>
<path fill="none" stroke="#0000ff" d="M1350.8353,-273.5428C1344.7762,-271.2133 1338.265,-269.1058 1332,-267.8234 1313.3265,-264.0009 1005.7223,-268.9708 989,-259.8234 976.5872,-253.0333 967.3835,-240.3956 961.0441,-228.6583"/>
<polygon fill="#0000ff" stroke="#0000ff" points="964.1251,-226.9924 956.5675,-219.5673 957.8452,-230.0848 964.1251,-226.9924"/>
</g>
<!-- poms_backend -->
<g id="node2" class="node">
<title>poms_backend</title>
<g id="a_node2"><a xlink:href="https://api.poms.omroep.nl/" xlink:title="POMS backend API">
<ellipse fill="none" stroke="#000000" cx="1516" cy="-285.8234" rx="85.2851" ry="18"/>
<text text-anchor="middle" x="1516" y="-282.1234" font-family="Times,serif" font-size="14.00" fill="#0000ff">POMS backend API</text>
</a>
</g>
</g>
<!-- poms_backend&#45;&gt;jms_ingest -->
<g id="edge21" class="edge">
<title>poms_backend&#45;&gt;jms_ingest</title>
<path fill="none" stroke="#ff7f00" d="M1508.9801,-267.614C1496.844,-238.6458 1469.1235,-182.3455 1427,-152.9533 1414.6236,-144.3175 1408.2839,-149.8239 1394,-144.9533 1383.2839,-141.2994 1372.1494,-136.9461 1361.3449,-132.4028"/>
<polygon fill="#ff7f00" stroke="#ff7f00" points="1362.5238,-129.1001 1351.9538,-128.374 1359.764,-135.5331 1362.5238,-129.1001"/>
</g>
<!-- poms_backend&#45;&gt;ldap -->
<g id="edge22" class="edge">
<title>poms_backend&#45;&gt;ldap</title>
<path fill="none" stroke="#ff7f00" d="M1560.7812,-270.4357C1567.1616,-267.3754 1573.4374,-263.8428 1579,-259.8234 1629.7994,-223.1169 1614.5918,-180.2674 1671,-152.9533 1709.235,-134.4391 1824.1541,-164.2504 1862,-144.9533 1870.511,-140.6137 1877.6582,-133.2445 1883.2833,-125.6873"/>
<polygon fill="#ff7f00" stroke="#ff7f00" points="1886.5139,-127.1541 1889.1782,-116.8997 1880.7007,-123.2545 1886.5139,-127.1541"/>
</g>
<!-- poms_backend&#45;&gt;metis -->
<g id="edge23" class="edge">
<title>poms_backend&#45;&gt;metis</title>
<path fill="none" stroke="#ff7f00" d="M1464.4094,-271.4256C1370.0103,-245.4092 1162.9045,-189.848 986,-152.9533 885.9217,-132.0813 766.9005,-113.9246 706.102,-105.1245"/>
<polygon fill="#ff7f00" stroke="#ff7f00" points="706.5463,-101.6525 696.1498,-103.6925 705.5493,-108.5811 706.5463,-101.6525"/>
</g>
<!-- poms_backend&#45;&gt;nep -->
<g id="edge24" class="edge">
<title>poms_backend&#45;&gt;nep</title>
<path fill="none" stroke="#ff7f00" d="M1456.5557,-272.8535C1445.1381,-270.8135 1433.238,-268.9945 1422,-267.8234 1398.0699,-265.3296 1010.1359,-271.3187 989,-259.8234 976.5708,-253.0634 967.3656,-240.4283 961.0295,-228.685"/>
<polygon fill="#ff7f00" stroke="#ff7f00" points="964.1097,-227.0172 956.5564,-219.5876 957.828,-230.1059 964.1097,-227.0172"/>
</g>
<!-- api -->
<g id="node3" class="node">
<title>api</title>
<g id="a_node3"><a xlink:href="https://rs.poms.omroep.nl/" xlink:title="NPO Frontend API">
<ellipse fill="none" stroke="#000000" cx="1242" cy="-285.8234" rx="81.4863" ry="18"/>
<text text-anchor="middle" x="1242" y="-282.1234" font-family="Times,serif" font-size="14.00" fill="#0000ff">NPO Frontend API</text>
</a>
</g>
</g>
<!-- api&#45;&gt;gtaa -->
<g id="edge25" class="edge">
<title>api&#45;&gt;gtaa</title>
<path fill="none" stroke="#6495ed" d="M1185.1103,-272.8032C1174.1763,-270.7678 1162.7753,-268.9634 1152,-267.8234 1119.0697,-264.3393 587.5524,-269.8727 556,-259.8234 534.6439,-253.0215 513.8731,-238.8007 498.3286,-226.1591"/>
<polygon fill="#6495ed" stroke="#6495ed" points="500.1612,-223.1262 490.26,-219.3556 495.6488,-228.4777 500.1612,-223.1262"/>
</g>
<!-- elasticsearch -->
<g id="node12" class="node">
<title>elasticsearch</title>
<ellipse fill="none" stroke="#000000" cx="1628" cy="-99.4767" rx="57.3905" ry="18"/>
<text text-anchor="middle" x="1628" y="-95.7767" font-family="Times,serif" font-size="14.00" fill="#000000">elasticsearch</text>
</g>
<!-- api&#45;&gt;elasticsearch -->
<g id="edge26" class="edge">
<title>api&#45;&gt;elasticsearch</title>
<path fill="none" stroke="#6495ed" d="M1251.5795,-267.9291C1268.8415,-237.7872 1308.3299,-177.7555 1361,-152.9533 1401.4424,-133.9091 1519.5892,-159.0811 1562,-144.9533 1576.0971,-140.2573 1589.9169,-131.5667 1601.2382,-123.0308"/>
<polygon fill="#6495ed" stroke="#6495ed" points="1603.6966,-125.549 1609.3717,-116.6023 1599.356,-120.0572 1603.6966,-125.549"/>
</g>
<!-- pages_publish -->
<g id="node4" class="node">
<title>pages_publish</title>
<g id="a_node4"><a xlink:href="https://publish.pages.omroep.nl/" xlink:title="Pages Publisher">
<ellipse fill="none" stroke="#000000" cx="1780" cy="-285.8234" rx="68.7879" ry="18"/>
<text text-anchor="middle" x="1780" y="-282.1234" font-family="Times,serif" font-size="14.00" fill="#0000ff">Pages Publisher</text>
</a>
</g>
</g>
<!-- media_publish -->
<g id="node5" class="node">
<title>media_publish</title>
<ellipse fill="none" stroke="#000000" cx="1778" cy="-201.9533" rx="70.6878" ry="18"/>
<text text-anchor="middle" x="1778" y="-198.2533" font-family="Times,serif" font-size="14.00" fill="#000000">Media Publisher</text>
</g>
<!-- pages_publish&#45;&gt;media_publish -->
<g id="edge32" class="edge">
<title>pages_publish&#45;&gt;media_publish</title>
<path fill="none" stroke="#c0c0c0" d="M1779.566,-267.6248C1779.2306,-253.557 1778.7684,-234.1752 1778.4331,-220.1164"/>
</g>
<!-- pages_publish&#45;&gt;gtaa -->
<g id="edge27" class="edge">
<title>pages_publish&#45;&gt;gtaa</title>
<path fill="none" stroke="#8fbc8f" d="M1731.6076,-272.9231C1721.8717,-270.8192 1711.6618,-268.9588 1702,-267.8234 1640.4222,-260.5867 646.2473,-274.468 586,-259.8234 557.1869,-252.8196 527.4007,-237.366 505.5036,-224.1891"/>
<polygon fill="#8fbc8f" stroke="#8fbc8f" points="507.2743,-221.1691 496.9252,-218.9003 503.6007,-227.1276 507.2743,-221.1691"/>
</g>
<!-- pages_publish&#45;&gt;elasticsearch -->
<g id="edge28" class="edge">
<title>pages_publish&#45;&gt;elasticsearch</title>
<path fill="none" stroke="#8fbc8f" d="M1728.4588,-273.8264C1700.5371,-267.278 1671.5753,-260.3829 1671,-259.8234 1635.1422,-224.9505 1628.1401,-163.6686 1627.3493,-127.8106"/>
<polygon fill="#8fbc8f" stroke="#8fbc8f" points="1630.8476,-127.5313 1627.2783,-117.5558 1623.8477,-127.5799 1630.8476,-127.5313"/>
</g>
<!-- pages_publish&#45;&gt;ldap -->
<g id="edge29" class="edge">
<title>pages_publish&#45;&gt;ldap</title>
<path fill="none" stroke="#8fbc8f" d="M1726.7199,-274.1772C1713.5352,-270.1769 1702.0137,-265.3066 1698,-259.8234 1669.945,-221.4964 1665.2424,-187.3478 1698,-152.9533 1710.5822,-139.7424 1845.7756,-153.2964 1862,-144.9533 1870.4961,-140.5844 1877.6393,-133.2076 1883.2655,-125.6525"/>
<polygon fill="#8fbc8f" stroke="#8fbc8f" points="1886.4934,-127.1239 1889.1635,-116.8711 1880.6824,-123.221 1886.4934,-127.1239"/>
</g>
<!-- media_publish&#45;&gt;elasticsearch -->
<g id="edge30" class="edge">
<title>media_publish&#45;&gt;elasticsearch</title>
<path fill="none" stroke="#bf3eff" d="M1752.9744,-185.0397C1736.2557,-173.7237 1713.7852,-158.4823 1694,-144.9533 1682.9425,-137.3923 1670.8684,-129.0871 1660.1058,-121.6666"/>
<polygon fill="#bf3eff" stroke="#bf3eff" points="1662.0188,-118.7343 1651.8001,-115.9363 1658.0436,-124.4961 1662.0188,-118.7343"/>
</g>
<!-- media_publish&#45;&gt;jms_publish -->
<g id="edge31" class="edge">
<title>media_publish&#45;&gt;jms_publish</title>
<path fill="none" stroke="#bf3eff" d="M1778,-183.6325C1778,-170.5983 1778,-152.6356 1778,-136.652"/>
<polygon fill="#bf3eff" stroke="#bf3eff" points="1781.5001,-136.5059 1778,-126.5059 1774.5001,-136.5059 1781.5001,-136.5059"/>
</g>
<!-- images_frontend -->
<g id="node6" class="node">
<title>images_frontend</title>
<g id="a_node6"><a xlink:href="https://images.poms.omroep.nl" xlink:title="Images">
<ellipse fill="none" stroke="#000000" cx="1656" cy="-285.8234" rx="37.0935" ry="18"/>
<text text-anchor="middle" x="1656" y="-282.1234" font-family="Times,serif" font-size="14.00" fill="#0000ff">Images</text>
</a>
</g>
</g>
<!-- postgresql_image -->
<g id="node11" class="node">
<title>postgresql_image</title>
<ellipse fill="none" stroke="#000000" cx="1478" cy="-99.4767" rx="74.9875" ry="18"/>
<text text-anchor="middle" x="1478" y="-95.7767" font-family="Times,serif" font-size="14.00" fill="#000000">postgresql_image</text>
</g>
<!-- images_frontend&#45;&gt;postgresql_image -->
<g id="edge33" class="edge">
<title>images_frontend&#45;&gt;postgresql_image</title>
<path fill="none" stroke="#caff70" d="M1636.6403,-270.2553C1632.705,-266.9062 1628.6542,-263.3198 1625,-259.8234 1577.9601,-214.8134 1527.6137,-157.7107 1499.7452,-125.2124"/>
<polygon fill="#caff70" stroke="#caff70" points="1502.316,-122.8333 1493.1599,-117.5026 1496.9933,-127.3796 1502.316,-122.8333"/>
</g>
<!-- images_backend -->
<g id="node7" class="node">
<title>images_backend</title>
<g id="a_node7"><a xlink:href="https://poms.omroep.nl/images/" xlink:title="Images Backend">
<ellipse fill="none" stroke="#000000" cx="1072" cy="-285.8234" rx="70.6878" ry="18"/>
<text text-anchor="middle" x="1072" y="-282.1234" font-family="Times,serif" font-size="14.00" fill="#0000ff">Images Backend</text>
</a>
</g>
</g>
<!-- thineye -->
<g id="node9" class="node">
<title>thineye</title>
<ellipse fill="none" stroke="#000000" cx="170" cy="-201.9533" rx="37.8943" ry="18"/>
<text text-anchor="middle" x="170" y="-198.2533" font-family="Times,serif" font-size="14.00" fill="#000000">thineye</text>
</g>
<!-- images_backend&#45;&gt;thineye -->
<g id="edge34" class="edge">
<title>images_backend&#45;&gt;thineye</title>
<path fill="none" stroke="#caff70" d="M1001.07,-285.2689C802.2661,-283.5022 251.8554,-277.0725 217,-259.8234 203.319,-253.0529 192.2683,-240.2385 184.328,-228.3858"/>
<polygon fill="#caff70" stroke="#caff70" points="187.1287,-226.2623 178.8702,-219.6255 181.1874,-229.9638 187.1287,-226.2623"/>
</g>
<!-- images_backend&#45;&gt;postgresql_image -->
<g id="edge35" class="edge">
<title>images_backend&#45;&gt;postgresql_image</title>
<path fill="none" stroke="#caff70" d="M1099.1251,-269.09C1103.7987,-266.0743 1108.5741,-262.9073 1113,-259.8234 1177.2254,-215.0714 1179.5837,-180.1137 1253,-152.9533 1282.4341,-142.0642 1363.8078,-153.519 1394,-144.9533 1411.7037,-139.9307 1429.8427,-130.7174 1444.7131,-121.8903"/>
<polygon fill="#caff70" stroke="#caff70" points="1446.8261,-124.7001 1453.5166,-116.485 1443.1633,-118.7348 1446.8261,-124.7001"/>
</g>
<!-- images_backend&#45;&gt;jms_ingest -->
<g id="edge36" class="edge">
<title>images_backend&#45;&gt;jms_ingest</title>
<path fill="none" stroke="#caff70" d="M1073.5157,-267.7799C1077.0163,-238.5202 1088.4187,-181.1604 1125,-152.9533 1136.5251,-144.0666 1175.9774,-148.8482 1190,-144.9533 1201.457,-141.771 1213.2784,-137.5036 1224.6322,-132.8534"/>
<polygon fill="#caff70" stroke="#caff70" points="1226.1952,-135.9926 1234.0411,-128.8728 1223.4677,-129.5458 1226.1952,-135.9926"/>
</g>
<!-- images_backend&#45;&gt;ldap -->
<g id="edge37" class="edge">
<title>images_backend&#45;&gt;ldap</title>
<path fill="none" stroke="#caff70" d="M1124.4273,-273.6697C1133.602,-271.6451 1143.068,-269.6212 1152,-267.8234 1171.9142,-263.815 1177.4646,-265.3921 1197,-259.8234 1320.3197,-224.6702 1339.3187,-178.4036 1465,-152.9533 1486.6212,-148.5751 1842.2396,-154.76 1862,-144.9533 1870.5577,-140.7063 1877.7168,-133.3611 1883.3387,-125.7974"/>
<polygon fill="#caff70" stroke="#caff70" points="1886.5778,-127.2496 1889.2238,-116.9905 1880.7577,-123.3603 1886.5778,-127.2496"/>
</g>
<!-- sso -->
<g id="node16" class="node">
<title>sso</title>
<g id="a_node16"><a xlink:href="https://sso.omroep.nl" xlink:title="SSO">
<ellipse fill="none" stroke="#000000" cx="1900" cy="-201.9533" rx="27.0966" ry="18"/>
<text text-anchor="middle" x="1900" y="-198.2533" font-family="Times,serif" font-size="14.00" fill="#0000ff">SSO</text>
</a>
</g>
</g>
<!-- images_backend&#45;&gt;sso -->
<g id="edge38" class="edge">
<title>images_backend&#45;&gt;sso</title>
<path fill="none" stroke="#caff70" d="M1121.6516,-272.9561C1131.6356,-270.8495 1142.102,-268.9797 1152,-267.8234 1171.5627,-265.538 1843.6641,-269.1714 1861,-259.8234 1873.4534,-253.1082 1882.6607,-240.477 1888.992,-228.7247"/>
<polygon fill="#caff70" stroke="#caff70" points="1892.1975,-230.1372 1893.46,-219.6179 1885.9131,-227.0539 1892.1975,-230.1372"/>
</g>
<!-- wikimedia -->
<g id="node29" class="node">
<title>wikimedia</title>
<ellipse fill="none" stroke="#000000" cx="65" cy="-201.9533" rx="49.2915" ry="18"/>
<text text-anchor="middle" x="65" y="-198.2533" font-family="Times,serif" font-size="14.00" fill="#000000">wikimedia</text>
</g>
<!-- images_backend&#45;&gt;wikimedia -->
<g id="edge39" class="edge">
<title>images_backend&#45;&gt;wikimedia</title>
<path fill="none" stroke="#caff70" d="M1001.0899,-285.3113C787.6101,-283.5812 163.1293,-277.0664 123,-259.8234 107.1783,-253.025 93.35,-239.7148 83.168,-227.572"/>
<polygon fill="#caff70" stroke="#caff70" points="85.6787,-225.1052 76.7217,-219.4463 80.1948,-229.4557 85.6787,-225.1052"/>
</g>
<!-- pixabay -->
<g id="node30" class="node">
<title>pixabay</title>
<ellipse fill="none" stroke="#000000" cx="344" cy="-201.9533" rx="39.7935" ry="18"/>
<text text-anchor="middle" x="344" y="-198.2533" font-family="Times,serif" font-size="14.00" fill="#000000">pixabay</text>
</g>
<!-- images_backend&#45;&gt;pixabay -->
<g id="edge40" class="edge">
<title>images_backend&#45;&gt;pixabay</title>
<path fill="none" stroke="#caff70" d="M1001.136,-284.6438C832.6186,-281.6316 419.9618,-272.9553 393,-259.8234 378.9047,-252.9582 367.3194,-239.9562 358.9592,-228.0131"/>
<polygon fill="#caff70" stroke="#caff70" points="361.8596,-226.0534 353.4519,-219.6066 356.0042,-229.8894 361.8596,-226.0534"/>
</g>
<!-- flickr -->
<g id="node31" class="node">
<title>flickr</title>
<ellipse fill="none" stroke="#000000" cx="256" cy="-201.9533" rx="29.795" ry="18"/>
<text text-anchor="middle" x="256" y="-198.2533" font-family="Times,serif" font-size="14.00" fill="#000000">flickr</text>
</g>
<!-- images_backend&#45;&gt;flickr -->
<g id="edge41" class="edge">
<title>images_backend&#45;&gt;flickr</title>
<path fill="none" stroke="#caff70" d="M1001.193,-285.193C815.3085,-283.3061 325.5724,-276.7489 295,-259.8234 282.6218,-252.9705 273.4211,-240.3273 267.0747,-228.6026"/>
<polygon fill="#caff70" stroke="#caff70" points="270.1576,-226.9407 262.5909,-219.5248 263.8814,-230.0407 270.1576,-226.9407"/>
</g>
<!-- sso&#45;&gt;ldap -->
<g id="edge45" class="edge">
<title>sso&#45;&gt;ldap</title>
<path fill="none" stroke="#c0c0c0" d="M1899.6424,-183.6325C1899.3395,-168.1129 1898.9003,-145.6061 1898.5522,-127.7723"/>
<polygon fill="#c0c0c0" stroke="#c0c0c0" points="1902.049,-127.5686 1898.3545,-117.6388 1895.0504,-127.7052 1902.049,-127.5686"/>
</g>
<!-- keycloak&#45;&gt;ldap -->
<g id="edge48" class="edge">
<title>keycloak&#45;&gt;ldap</title>
<path fill="none" stroke="#c0c0c0" d="M1999.2199,-176.8847C1976.1002,-159.2039 1945.5493,-135.84 1924.0815,-119.4225"/>
<polygon fill="#c0c0c0" stroke="#c0c0c0" points="1926.1208,-116.5759 1916.0512,-113.2813 1921.8684,-122.1363 1926.1208,-116.5759"/>
</g>
<!-- users -->
<g id="node18" class="node">
<title>users</title>
<ellipse fill="none" stroke="#000000" cx="1324" cy="-451.8234" rx="29.4969" ry="18"/>
<text text-anchor="middle" x="1324" y="-448.1234" font-family="Times,serif" font-size="14.00" fill="#000000">users</text>
</g>
<!-- users&#45;&gt;api -->
<g id="edge4" class="edge">
<title>users&#45;&gt;api</title>
<path fill="none" stroke="#c0c0c0" d="M1345.9441,-439.5783C1351.0685,-437.247 1356.6081,-435.1298 1362,-433.8234 1375.0735,-430.6558 1594.6466,-435.4911 1604,-425.8234 1629.6499,-399.3116 1629.6981,-369.2884 1604,-342.8234 1593.4685,-331.9776 1346.5939,-338.768 1332,-334.8234 1311.8577,-329.379 1291.2815,-318.6389 1274.8965,-308.5979"/>
<polygon fill="#c0c0c0" stroke="#c0c0c0" points="1276.5762,-305.5189 1266.2543,-303.1296 1272.8333,-311.4342 1276.5762,-305.5189"/>
</g>
<!-- users&#45;&gt;images_frontend -->
<g id="edge5" class="edge">
<title>users&#45;&gt;images_frontend</title>
<path fill="none" stroke="#c0c0c0" d="M1345.9413,-439.5669C1351.0658,-437.2361 1356.6062,-435.1221 1362,-433.8234 1376.3197,-430.3756 1615.7192,-435.2935 1627,-425.8234 1659.1103,-398.8671 1661.4729,-346.5366 1659.3639,-314.0498"/>
<polygon fill="#c0c0c0" stroke="#c0c0c0" points="1662.833,-313.5331 1658.5137,-303.8587 1655.8572,-314.115 1662.833,-313.5331"/>
</g>
<!-- magnolia_frontend -->
<g id="node21" class="node">
<title>magnolia_frontend</title>
<ellipse fill="none" stroke="#000000" cx="1336" cy="-376.8234" rx="79.8859" ry="18"/>
<text text-anchor="middle" x="1336" y="-373.1234" font-family="Times,serif" font-size="14.00" fill="#000000">magnolia_frontend</text>
</g>
<!-- users&#45;&gt;magnolia_frontend -->
<g id="edge6" class="edge">
<title>users&#45;&gt;magnolia_frontend</title>
<path fill="none" stroke="#c0c0c0" d="M1326.9049,-433.668C1328.2802,-425.072 1329.9544,-414.6085 1331.4896,-405.0133"/>
<polygon fill="#c0c0c0" stroke="#c0c0c0" points="1334.9563,-405.4989 1333.0803,-395.0715 1328.0443,-404.393 1334.9563,-405.4989"/>
</g>
<!-- backendsystems -->
<g id="node19" class="node">
<title>backendsystems</title>
<ellipse fill="none" stroke="#000000" cx="1530" cy="-451.8234" rx="69.5877" ry="18"/>
<text text-anchor="middle" x="1530" y="-448.1234" font-family="Times,serif" font-size="14.00" fill="#000000">backendsystems</text>
</g>
<!-- backendsystems&#45;&gt;poms_backend -->
<g id="edge7" class="edge">
<title>backendsystems&#45;&gt;poms_backend</title>
<path fill="none" stroke="#c0c0c0" d="M1596.4692,-446.4204C1644.5763,-441.8166 1702.43,-434.5654 1710,-425.8234 1734.148,-397.9367 1735.0227,-369.9279 1710,-342.8234 1702.439,-334.6333 1620.712,-337.9057 1610,-334.8234 1589.4069,-328.8978 1568.1005,-318.2257 1550.9899,-308.3507"/>
<polygon fill="#c0c0c0" stroke="#c0c0c0" points="1552.3324,-305.0774 1541.9468,-302.9818 1548.7588,-311.0965 1552.3324,-305.0774"/>
</g>
<!-- backendsystems&#45;&gt;pages_publish -->
<g id="edge8" class="edge">
<title>backendsystems&#45;&gt;pages_publish</title>
<path fill="none" stroke="#c0c0c0" d="M1597.0395,-446.7702C1652.0355,-442.0476 1722.4937,-434.4443 1733,-425.8234 1766.2995,-398.4995 1776.1345,-346.7413 1778.9613,-314.3888"/>
<polygon fill="#c0c0c0" stroke="#c0c0c0" points="1782.4659,-314.445 1779.6751,-304.2244 1775.4831,-313.9546 1782.4659,-314.445"/>
</g>
<!-- editors -->
<g id="node20" class="node">
<title>editors</title>
<ellipse fill="none" stroke="#000000" cx="1407" cy="-451.8234" rx="35.9954" ry="18"/>
<text text-anchor="middle" x="1407" y="-448.1234" font-family="Times,serif" font-size="14.00" fill="#000000">editors</text>
</g>
<!-- editors&#45;&gt;poms -->
<g id="edge1" class="edge">
<title>editors&#45;&gt;poms</title>
<path fill="none" stroke="#c0c0c0" d="M1433.0504,-439.4508C1438.8412,-437.1886 1445.0344,-435.1324 1451,-433.8234 1470.8798,-429.4612 1619.9262,-440.5259 1634,-425.8234 1659.5084,-399.1755 1659.5878,-369.395 1634,-342.8234 1617.6491,-325.8439 1443.3986,-344.7104 1422,-334.8234 1410.922,-329.7049 1401.323,-320.4649 1393.8692,-311.3772"/>
<polygon fill="#c0c0c0" stroke="#c0c0c0" points="1396.4863,-309.0366 1387.6461,-303.1969 1390.9151,-313.2748 1396.4863,-309.0366"/>
</g>
<!-- editors&#45;&gt;keycloak -->
<g id="edge2" class="edge">
<title>editors&#45;&gt;keycloak</title>
<path fill="none" stroke="#c0c0c0" d="M1433.0456,-439.4287C1438.8367,-437.168 1445.0313,-435.1178 1451,-433.8234 1540.543,-414.4038 1567.7716,-446.6405 1657,-425.8234 1753.6821,-403.2673 1775.8521,-385.8727 1861,-334.8234 1910.7033,-305.0245 1962.5476,-262.9388 1995.9348,-234.1661"/>
<polygon fill="#c0c0c0" stroke="#c0c0c0" points="1998.3394,-236.7136 2003.5982,-227.516 1993.7515,-231.4267 1998.3394,-236.7136"/>
</g>
<!-- magnolia_backend -->
<g id="node22" class="node">
<title>magnolia_backend</title>
<ellipse fill="none" stroke="#000000" cx="1513" cy="-376.8234" rx="79.0865" ry="18"/>
<text text-anchor="middle" x="1513" y="-373.1234" font-family="Times,serif" font-size="14.00" fill="#000000">magnolia_backend</text>
</g>
<!-- editors&#45;&gt;magnolia_backend -->
<g id="edge3" class="edge">
<title>editors&#45;&gt;magnolia_backend</title>
<path fill="none" stroke="#c0c0c0" d="M1427.9422,-437.0058C1442.8422,-426.4634 1463.1568,-412.0898 1480.1964,-400.0335"/>
<polygon fill="#c0c0c0" stroke="#c0c0c0" points="1482.6207,-402.6057 1488.7625,-393.9726 1478.5776,-396.8914 1482.6207,-402.6057"/>
</g>
<!-- magnolia_frontend&#45;&gt;api -->
<g id="edge44" class="edge">
<title>magnolia_frontend&#45;&gt;api</title>
<path fill="none" stroke="#c0c0c0" d="M1317.8759,-359.2777C1303.663,-345.5184 1283.6983,-326.1909 1267.8153,-310.8148"/>
<polygon fill="#c0c0c0" stroke="#c0c0c0" points="1270.0085,-308.0666 1260.3892,-303.6257 1265.1396,-313.0959 1270.0085,-308.0666"/>
</g>
<!-- magnolia_backend&#45;&gt;poms_backend -->
<g id="edge42" class="edge">
<title>magnolia_backend&#45;&gt;poms_backend</title>
<path fill="none" stroke="#c0c0c0" d="M1513.6071,-358.4082C1514.0246,-345.7443 1514.5872,-328.6792 1515.062,-314.2775"/>
<polygon fill="#c0c0c0" stroke="#c0c0c0" points="1518.5726,-314.0106 1515.404,-303.9006 1511.5764,-313.7799 1518.5726,-314.0106"/>
</g>
<!-- magnolia_backend&#45;&gt;pages_publish -->
<g id="edge43" class="edge">
<title>magnolia_backend&#45;&gt;pages_publish</title>
<path fill="none" stroke="#c0c0c0" d="M1581.1776,-367.4718C1617.8985,-361.0103 1663.4464,-350.6613 1702,-334.8234 1718.2602,-328.1436 1734.9375,-318.1661 1748.6758,-308.9544"/>
<polygon fill="#c0c0c0" stroke="#c0c0c0" points="1750.9939,-311.6078 1757.2456,-303.0539 1747.0242,-305.8422 1750.9939,-311.6078"/>
</g>
<!-- pd&#45;&gt;metis -->
<g id="edge47" class="edge">
<title>pd&#45;&gt;metis</title>
<path fill="none" stroke="#c0c0c0" d="M696.5551,-184.1032C690.8251,-168.2332 682.3623,-144.7942 675.7951,-126.6055"/>
<polygon fill="#c0c0c0" stroke="#c0c0c0" points="679.0591,-125.3393 672.3711,-117.1222 672.4751,-127.7165 679.0591,-125.3393"/>
</g>
<!-- prepr&#45;&gt;metis -->
<g id="edge46" class="edge">
<title>prepr&#45;&gt;metis</title>
<path fill="none" stroke="#c0c0c0" d="M634.6191,-184.1032C640.504,-168.2332 649.1955,-144.7942 655.9402,-126.6055"/>
<polygon fill="#c0c0c0" stroke="#c0c0c0" points="659.2615,-127.7152 659.4568,-117.1222 652.6982,-125.2814 659.2615,-127.7152"/>
</g>
</g>
</svg>
