<?xml version="1.0" encoding="UTF-8" standalone="no"?>
<!DOCTYPE svg PUBLIC "-//W3C//DTD SVG 1.1//EN"
 "http://www.w3.org/Graphics/SVG/1.1/DTD/svg11.dtd">
<!-- Generated by graphviz version 6.0.1 (20220911.1526)
 -->
<!-- Title: poms_universe Pages: 1 -->
<svg width="1759pt" height="458pt"
 viewBox="0.00 0.00 1759.00 458.00" xmlns="http://www.w3.org/2000/svg" xmlns:xlink="http://www.w3.org/1999/xlink">
<g id="graph0" class="graph" transform="scale(1 1) rotate(0) translate(4 454)">
<title>poms_universe</title>
<polygon fill="white" stroke="none" points="-4,4 -4,-454 1755,-454 1755,4 -4,4"/>
<text text-anchor="middle" x="875.5" y="-7.8" font-family="Times,serif" font-size="14.00">Deployments relevant for POMS</text>
<g id="clust6" class="cluster">
<title>cluster_6</title>
<polygon fill="none" stroke="black" points="8,-106 8,-181 619,-181 619,-106 8,-106"/>
<text text-anchor="middle" x="313.5" y="-113.8" font-family="Times,serif" font-size="14.00">Auxiliary API&#39;s</text>
</g>
<g id="clust1" class="cluster">
<title>cluster_0</title>
<polygon fill="azure" stroke="black" points="627,-106 627,-181 1236,-181 1236,-106 627,-106"/>
<text text-anchor="middle" x="931.5" y="-113.8" font-family="Times,serif" font-size="14.00">Generic backend services</text>
</g>
<g id="clust2" class="cluster">
<title>cluster_3</title>
<polygon fill="none" stroke="black" points="397,-284 397,-442 946,-442 946,-284 397,-284"/>
<text text-anchor="middle" x="671.5" y="-426.8" font-family="Times,serif" font-size="14.00">World</text>
</g>
<g id="clust3" class="cluster">
<title>cluster_2</title>
<polygon fill="none" stroke="black" points="405,-292 405,-367 903,-367 903,-292 405,-292"/>
<text text-anchor="middle" x="654" y="-351.8" font-family="Times,serif" font-size="14.00">VPRO</text>
</g>
<g id="clust4" class="cluster">
<title>cluster_4</title>
<polygon fill="azure" stroke="black" points="343,-201 343,-276 1346,-276 1346,-201 343,-201"/>
<text text-anchor="middle" x="844.5" y="-260.8" font-family="Times,serif" font-size="14.00">POMS &#160;Services</text>
</g>
<g id="clust5" class="cluster">
<title>cluster_5</title>
<polygon fill="none" stroke="black" points="1244,-31 1244,-181 1743,-181 1743,-31 1244,-31"/>
<text text-anchor="middle" x="1493.5" y="-38.8" font-family="Times,serif" font-size="14.00">NPO Services</text>
</g>
<!-- poms -->
<g id="node1" class="node">
<title>poms</title>
<g id="a_node1"><a xlink:href="https://poms.omroep.nl/" xlink:title="POMS">
<ellipse fill="none" stroke="black" cx="1303" cy="-227" rx="35.19" ry="18"/>
<text text-anchor="middle" x="1303" y="-223.3" font-family="Times,serif" font-size="14.00" fill="blue">POMS</text>
</a>
</g>
</g>
<!-- gtaa -->
<g id="node8" class="node">
<title>gtaa</title>
<g id="a_node8"><a xlink:href="http://gtaa.beeldengeluid.nl/" xlink:title="B&amp;G Thesaurus">
<ellipse fill="none" stroke="black" cx="543" cy="-155" rx="68.49" ry="18"/>
<text text-anchor="middle" x="543" y="-151.3" font-family="Times,serif" font-size="14.00" fill="blue">B&amp;G Thesaurus</text>
</a>
</g>
</g>
<!-- poms&#45;&gt;gtaa -->
<g id="edge9" class="edge">
<title>poms&#45;&gt;gtaa</title>
<path fill="none" stroke="blue" d="M1282.88,-211.85C1275.68,-207.54 1267.29,-203.33 1259,-201 1122.87,-162.73 762.43,-204.53 623,-181 612.34,-179.2 601.14,-176.34 590.6,-173.19"/>
<polygon fill="blue" stroke="blue" points="591.33,-169.75 580.74,-170.1 589.23,-176.43 591.33,-169.75"/>
</g>
<!-- postgresql_media -->
<g id="node12" class="node">
<title>postgresql_media</title>
<ellipse fill="none" stroke="black" cx="1155" cy="-155" rx="73.39" ry="18"/>
<text text-anchor="middle" x="1155" y="-151.3" font-family="Times,serif" font-size="14.00">postgresql_media</text>
</g>
<!-- poms&#45;&gt;postgresql_media -->
<g id="edge10" class="edge">
<title>poms&#45;&gt;postgresql_media</title>
<path fill="none" stroke="blue" d="M1280.87,-212.81C1273.95,-208.85 1266.23,-204.61 1259,-201 1240.26,-191.66 1219.12,-182.3 1200.82,-174.56"/>
<polygon fill="blue" stroke="blue" points="1202.11,-171.31 1191.54,-170.67 1199.41,-177.76 1202.11,-171.31"/>
</g>
<!-- jms -->
<g id="node15" class="node">
<title>jms</title>
<ellipse fill="none" stroke="black" cx="996" cy="-155" rx="67.69" ry="18"/>
<text text-anchor="middle" x="996" y="-151.3" font-family="Times,serif" font-size="14.00">JMS ActiveMQ</text>
</g>
<!-- poms&#45;&gt;jms -->
<g id="edge11" class="edge">
<title>poms&#45;&gt;jms</title>
<path fill="none" stroke="blue" d="M1282.77,-212.21C1275.56,-207.93 1267.19,-203.64 1259,-201 1179.87,-175.49 1154.31,-198.37 1073,-181 1063.41,-178.95 1053.33,-176.16 1043.74,-173.19"/>
<polygon fill="blue" stroke="blue" points="1044.55,-169.77 1033.96,-170.05 1042.41,-176.44 1044.55,-169.77"/>
</g>
<!-- pd -->
<g id="node23" class="node">
<title>pd</title>
<ellipse fill="none" stroke="black" cx="1708" cy="-155" rx="27" ry="18"/>
<text text-anchor="middle" x="1708" y="-151.3" font-family="Times,serif" font-size="14.00">pd</text>
</g>
<!-- poms&#45;&gt;pd -->
<g id="edge12" class="edge">
<title>poms&#45;&gt;pd</title>
<path fill="none" stroke="blue" d="M1337.79,-223.9C1417.52,-218.74 1611.24,-204.16 1672,-181 1675.81,-179.55 1679.6,-177.61 1683.22,-175.45"/>
<polygon fill="blue" stroke="blue" points="1685.36,-178.23 1691.75,-169.78 1681.48,-172.4 1685.36,-178.23"/>
</g>
<!-- prepr -->
<g id="node24" class="node">
<title>prepr</title>
<ellipse fill="none" stroke="black" cx="1634" cy="-155" rx="29.5" ry="18"/>
<text text-anchor="middle" x="1634" y="-151.3" font-family="Times,serif" font-size="14.00">prepr</text>
</g>
<!-- poms&#45;&gt;prepr -->
<g id="edge13" class="edge">
<title>poms&#45;&gt;prepr</title>
<path fill="none" stroke="blue" d="M1338.35,-225.24C1394.49,-223.02 1506.72,-214.38 1595,-181 1599.26,-179.39 1603.55,-177.27 1607.64,-174.94"/>
<polygon fill="blue" stroke="blue" points="1609.54,-177.87 1616.19,-169.63 1605.85,-171.93 1609.54,-177.87"/>
</g>
<!-- miranda -->
<g id="node25" class="node">
<title>miranda</title>
<ellipse fill="none" stroke="black" cx="1546" cy="-155" rx="40.09" ry="18"/>
<text text-anchor="middle" x="1546" y="-151.3" font-family="Times,serif" font-size="14.00">miranda</text>
</g>
<!-- poms&#45;&gt;miranda -->
<g id="edge14" class="edge">
<title>poms&#45;&gt;miranda</title>
<path fill="none" stroke="blue" d="M1336.32,-220.82C1375.54,-214.15 1442.27,-200.97 1497,-181 1502.27,-179.08 1507.7,-176.72 1512.95,-174.23"/>
<polygon fill="blue" stroke="blue" points="1514.71,-177.26 1522.1,-169.67 1511.59,-170.99 1514.71,-177.26"/>
</g>
<!-- pluto -->
<g id="node26" class="node">
<title>pluto</title>
<ellipse fill="none" stroke="black" cx="1459" cy="-155" rx="28.7" ry="18"/>
<text text-anchor="middle" x="1459" y="-151.3" font-family="Times,serif" font-size="14.00">pluto</text>
</g>
<!-- poms&#45;&gt;pluto -->
<g id="edge15" class="edge">
<title>poms&#45;&gt;pluto</title>
<path fill="none" stroke="blue" d="M1332.37,-216.79C1356.72,-208.69 1391.92,-195.89 1421,-181 1424.8,-179.06 1428.68,-176.82 1432.45,-174.5"/>
<polygon fill="blue" stroke="blue" points="1434.42,-177.4 1440.93,-169.04 1430.63,-171.51 1434.42,-177.4"/>
</g>
<!-- nep -->
<g id="node27" class="node">
<title>nep</title>
<ellipse fill="none" stroke="black" cx="1385" cy="-155" rx="27" ry="18"/>
<text text-anchor="middle" x="1385" y="-151.3" font-family="Times,serif" font-size="14.00">nep</text>
</g>
<!-- poms&#45;&gt;nep -->
<g id="edge16" class="edge">
<title>poms&#45;&gt;nep</title>
<path fill="none" stroke="blue" d="M1320.39,-211.15C1332.3,-200.98 1348.25,-187.37 1361.32,-176.21"/>
<polygon fill="blue" stroke="blue" points="1363.69,-178.79 1369.03,-169.64 1359.15,-173.47 1363.69,-178.79"/>
</g>
<!-- keycloak -->
<g id="node28" class="node">
<title>keycloak</title>
<g id="a_node28"><a xlink:href="https://ident.poms.omroep.nl/auth/" xlink:title="Keycloak">
<ellipse fill="none" stroke="black" cx="1296" cy="-155" rx="44.39" ry="18"/>
<text text-anchor="middle" x="1296" y="-151.3" font-family="Times,serif" font-size="14.00" fill="blue">Keycloak</text>
</a>
</g>
</g>
<!-- poms&#45;&gt;keycloak -->
<g id="edge17" class="edge">
<title>poms&#45;&gt;keycloak</title>
<path fill="none" stroke="blue" d="M1301.27,-208.7C1300.5,-200.98 1299.57,-191.71 1298.71,-183.11"/>
<polygon fill="blue" stroke="blue" points="1302.19,-182.71 1297.71,-173.1 1295.22,-183.4 1302.19,-182.71"/>
</g>
<!-- poms_backend -->
<g id="node2" class="node">
<title>poms_backend</title>
<g id="a_node2"><a xlink:href="https://api.poms.omroep.nl/" xlink:title="POMS backend API">
<ellipse fill="none" stroke="black" cx="1167" cy="-227" rx="83.39" ry="18"/>
<text text-anchor="middle" x="1167" y="-223.3" font-family="Times,serif" font-size="14.00" fill="blue">POMS backend API</text>
</a>
</g>
</g>
<!-- poms_backend&#45;&gt;jms -->
<g id="edge18" class="edge">
<title>poms_backend&#45;&gt;jms</title>
<path fill="none" stroke="#ff7f00" d="M1129.9,-210.81C1103.71,-200.09 1068.5,-185.68 1040.75,-174.32"/>
<polygon fill="#ff7f00" stroke="#ff7f00" points="1041.86,-170.99 1031.28,-170.44 1039.21,-177.47 1041.86,-170.99"/>
</g>
<!-- poms_backend&#45;&gt;nep -->
<g id="edge19" class="edge">
<title>poms_backend&#45;&gt;nep</title>
<path fill="none" stroke="#ff7f00" d="M1215.59,-212.34C1229.57,-208.54 1244.86,-204.49 1259,-201 1298.78,-191.18 1311.47,-197.44 1349,-181 1352.74,-179.36 1356.48,-177.32 1360.08,-175.1"/>
<polygon fill="#ff7f00" stroke="#ff7f00" points="1362.24,-177.87 1368.59,-169.4 1358.34,-172.06 1362.24,-177.87"/>
</g>
<!-- poms_backend&#45;&gt;keycloak -->
<g id="edge20" class="edge">
<title>poms_backend&#45;&gt;keycloak</title>
<path fill="none" stroke="#ff7f00" d="M1196.27,-210.12C1215.61,-199.62 1241.05,-185.82 1261.39,-174.78"/>
<polygon fill="#ff7f00" stroke="#ff7f00" points="1263.22,-177.77 1270.34,-169.93 1259.88,-171.62 1263.22,-177.77"/>
</g>
<!-- api -->
<g id="node3" class="node">
<title>api</title>
<g id="a_node3"><a xlink:href="https://rs.poms.omroep.nl/" xlink:title="NPO Frontend API">
<ellipse fill="none" stroke="black" cx="678" cy="-227" rx="78.79" ry="18"/>
<text text-anchor="middle" x="678" y="-223.3" font-family="Times,serif" font-size="14.00" fill="blue">NPO Frontend API</text>
</a>
</g>
</g>
<!-- api&#45;&gt;gtaa -->
<g id="edge21" class="edge">
<title>api&#45;&gt;gtaa</title>
<path fill="none" stroke="cornflowerblue" d="M647.7,-210.29C628.2,-200.18 602.67,-186.94 581.7,-176.07"/>
<polygon fill="cornflowerblue" stroke="cornflowerblue" points="583.22,-172.91 572.73,-171.42 580,-179.13 583.22,-172.91"/>
</g>
<!-- elasticsearch -->
<g id="node14" class="node">
<title>elasticsearch</title>
<ellipse fill="none" stroke="black" cx="855" cy="-155" rx="55.79" ry="18"/>
<text text-anchor="middle" x="855" y="-151.3" font-family="Times,serif" font-size="14.00">elasticsearch</text>
</g>
<!-- api&#45;&gt;elasticsearch -->
<g id="edge22" class="edge">
<title>api&#45;&gt;elasticsearch</title>
<path fill="none" stroke="cornflowerblue" d="M715.54,-211.15C743.62,-200.05 782.08,-184.84 811.51,-173.2"/>
<polygon fill="cornflowerblue" stroke="cornflowerblue" points="813.1,-176.34 821.11,-169.4 810.52,-169.83 813.1,-176.34"/>
</g>
<!-- pages_publish -->
<g id="node4" class="node">
<title>pages_publish</title>
<g id="a_node4"><a xlink:href="https://publish.pages.omroep.nl/" xlink:title="Pages Publisher">
<ellipse fill="none" stroke="black" cx="842" cy="-227" rx="66.89" ry="18"/>
<text text-anchor="middle" x="842" y="-223.3" font-family="Times,serif" font-size="14.00" fill="blue">Pages Publisher</text>
</a>
</g>
</g>
<!-- pages_publish&#45;&gt;gtaa -->
<g id="edge23" class="edge">
<title>pages_publish&#45;&gt;gtaa</title>
<path fill="none" stroke="darkseagreen" d="M804.11,-212.06C792.05,-208.02 778.58,-203.92 766,-201 703.49,-186.47 685.61,-195.06 623,-181 612.99,-178.75 602.43,-175.85 592.37,-172.82"/>
<polygon fill="darkseagreen" stroke="darkseagreen" points="593.12,-169.38 582.53,-169.76 591.04,-176.07 593.12,-169.38"/>
</g>
<!-- pages_publish&#45;&gt;elasticsearch -->
<g id="edge24" class="edge">
<title>pages_publish&#45;&gt;elasticsearch</title>
<path fill="none" stroke="darkseagreen" d="M845.21,-208.7C846.65,-200.98 848.37,-191.71 849.96,-183.11"/>
<polygon fill="darkseagreen" stroke="darkseagreen" points="853.44,-183.58 851.82,-173.1 846.56,-182.3 853.44,-183.58"/>
</g>
<!-- pages_publish&#45;&gt;keycloak -->
<g id="edge25" class="edge">
<title>pages_publish&#45;&gt;keycloak</title>
<path fill="none" stroke="darkseagreen" d="M878.49,-211.72C890.57,-207.57 904.2,-203.49 917,-201 1058.19,-173.58 1100.32,-215.31 1240,-181 1246.95,-179.29 1254.1,-176.76 1260.88,-173.95"/>
<polygon fill="darkseagreen" stroke="darkseagreen" points="1262.75,-176.95 1270.48,-169.71 1259.92,-170.55 1262.75,-176.95"/>
</g>
<!-- media_publish -->
<g id="node5" class="node">
<title>media_publish</title>
<ellipse fill="none" stroke="black" cx="996" cy="-227" rx="69.59" ry="18"/>
<text text-anchor="middle" x="996" y="-223.3" font-family="Times,serif" font-size="14.00">Media Publisher</text>
</g>
<!-- media_publish&#45;&gt;elasticsearch -->
<g id="edge26" class="edge">
<title>media_publish&#45;&gt;elasticsearch</title>
<path fill="none" stroke="#bf3eff" d="M965.41,-210.81C944.19,-200.28 915.79,-186.18 893.11,-174.92"/>
<polygon fill="#bf3eff" stroke="#bf3eff" points="894.6,-171.75 884.09,-170.44 891.49,-178.02 894.6,-171.75"/>
</g>
<!-- media_publish&#45;&gt;jms -->
<g id="edge27" class="edge">
<title>media_publish&#45;&gt;jms</title>
<path fill="none" stroke="#bf3eff" d="M996,-208.7C996,-200.98 996,-191.71 996,-183.11"/>
<polygon fill="#bf3eff" stroke="#bf3eff" points="999.5,-183.1 996,-173.1 992.5,-183.1 999.5,-183.1"/>
</g>
<!-- images_frontend -->
<g id="node6" class="node">
<title>images_frontend</title>
<g id="a_node6"><a xlink:href="https://images.poms.omroep.nl" xlink:title="Images">
<ellipse fill="none" stroke="black" cx="545" cy="-227" rx="36.29" ry="18"/>
<text text-anchor="middle" x="545" y="-223.3" font-family="Times,serif" font-size="14.00" fill="blue">Images</text>
</a>
</g>
</g>
<!-- postgresql_image -->
<g id="node13" class="node">
<title>postgresql_image</title>
<ellipse fill="none" stroke="black" cx="708" cy="-155" rx="73.39" ry="18"/>
<text text-anchor="middle" x="708" y="-151.3" font-family="Times,serif" font-size="14.00">postgresql_image</text>
</g>
<!-- images_frontend&#45;&gt;postgresql_image -->
<g id="edge28" class="edge">
<title>images_frontend&#45;&gt;postgresql_image</title>
<path fill="none" stroke="#caff70" d="M567.56,-212.64C574.64,-208.68 582.55,-204.47 590,-201 611.72,-190.89 636.39,-181.21 657.55,-173.44"/>
<polygon fill="#caff70" stroke="#caff70" points="658.79,-176.71 666.99,-170.01 656.4,-170.13 658.79,-176.71"/>
</g>
<!-- images_backend -->
<g id="node7" class="node">
<title>images_backend</title>
<g id="a_node7"><a xlink:href="https://poms.omroep.nl/images/" xlink:title="Images Backend">
<ellipse fill="none" stroke="black" cx="421" cy="-227" rx="69.59" ry="18"/>
<text text-anchor="middle" x="421" y="-223.3" font-family="Times,serif" font-size="14.00" fill="blue">Images Backend</text>
</a>
</g>
</g>
<!-- thineye -->
<g id="node9" class="node">
<title>thineye</title>
<ellipse fill="none" stroke="black" cx="420" cy="-155" rx="36.29" ry="18"/>
<text text-anchor="middle" x="420" y="-151.3" font-family="Times,serif" font-size="14.00">thineye</text>
</g>
<!-- images_backend&#45;&gt;thineye -->
<g id="edge29" class="edge">
<title>images_backend&#45;&gt;thineye</title>
<path fill="none" stroke="#caff70" d="M420.75,-208.7C420.64,-200.98 420.51,-191.71 420.39,-183.11"/>
<polygon fill="#caff70" stroke="#caff70" points="423.89,-183.05 420.24,-173.1 416.89,-183.15 423.89,-183.05"/>
</g>
<!-- images_backend&#45;&gt;postgresql_image -->
<g id="edge30" class="edge">
<title>images_backend&#45;&gt;postgresql_image</title>
<path fill="none" stroke="#caff70" d="M460.87,-212.14C473.3,-208.16 487.13,-204.07 500,-201 553.88,-188.17 568.99,-193.28 623,-181 633.56,-178.6 644.75,-175.62 655.42,-172.58"/>
<polygon fill="#caff70" stroke="#caff70" points="656.41,-175.93 665.03,-169.77 654.45,-169.21 656.41,-175.93"/>
</g>
<!-- images_backend&#45;&gt;jms -->
<g id="edge31" class="edge">
<title>images_backend&#45;&gt;jms</title>
<path fill="none" stroke="#caff70" d="M459.07,-211.76C471.9,-207.56 486.41,-203.43 500,-201 683.96,-168.09 736.23,-214.95 920,-181 929.83,-179.18 940.15,-176.41 949.89,-173.36"/>
<polygon fill="#caff70" stroke="#caff70" points="951,-176.69 959.41,-170.25 948.82,-170.03 951,-176.69"/>
</g>
<!-- images_backend&#45;&gt;keycloak -->
<g id="edge32" class="edge">
<title>images_backend&#45;&gt;keycloak</title>
<path fill="none" stroke="#caff70" d="M458.64,-211.73C471.56,-207.47 486.24,-203.32 500,-201 662.22,-173.7 1079.59,-217.45 1240,-181 1246.98,-179.41 1254.15,-176.94 1260.93,-174.15"/>
<polygon fill="#caff70" stroke="#caff70" points="1262.8,-177.15 1270.53,-169.91 1259.96,-170.75 1262.8,-177.15"/>
</g>
<!-- wikimedia -->
<g id="node29" class="node">
<title>wikimedia</title>
<ellipse fill="none" stroke="black" cx="318" cy="-155" rx="48.19" ry="18"/>
<text text-anchor="middle" x="318" y="-151.3" font-family="Times,serif" font-size="14.00">wikimedia</text>
</g>
<!-- images_backend&#45;&gt;wikimedia -->
<g id="edge33" class="edge">
<title>images_backend&#45;&gt;wikimedia</title>
<path fill="none" stroke="#caff70" d="M397.37,-209.94C382.84,-200.06 364.07,-187.31 348.43,-176.68"/>
<polygon fill="#caff70" stroke="#caff70" points="350.35,-173.75 340.11,-171.03 346.41,-179.54 350.35,-173.75"/>
</g>
<!-- pixabay -->
<g id="node30" class="node">
<title>pixabay</title>
<ellipse fill="none" stroke="black" cx="214" cy="-155" rx="38.19" ry="18"/>
<text text-anchor="middle" x="214" y="-151.3" font-family="Times,serif" font-size="14.00">pixabay</text>
</g>
<!-- images_backend&#45;&gt;pixabay -->
<g id="edge34" class="edge">
<title>images_backend&#45;&gt;pixabay</title>
<path fill="none" stroke="#caff70" d="M369.99,-214.62C338.1,-206.79 296.48,-195.24 261,-181 256.09,-179.03 251.02,-176.69 246.11,-174.24"/>
<polygon fill="#caff70" stroke="#caff70" points="247.44,-170.99 236.96,-169.48 244.21,-177.2 247.44,-170.99"/>
</g>
<!-- flickr -->
<g id="node31" class="node">
<title>flickr</title>
<ellipse fill="none" stroke="black" cx="128" cy="-155" rx="29.8" ry="18"/>
<text text-anchor="middle" x="128" y="-151.3" font-family="Times,serif" font-size="14.00">flickr</text>
</g>
<!-- images_backend&#45;&gt;flickr -->
<g id="edge35" class="edge">
<title>images_backend&#45;&gt;flickr</title>
<path fill="none" stroke="#caff70" d="M354.61,-221.43C302.2,-216.14 228,-204.85 167,-181 162.76,-179.34 158.48,-177.19 154.4,-174.85"/>
<polygon fill="#caff70" stroke="#caff70" points="156.18,-171.84 145.84,-169.53 152.49,-177.79 156.18,-171.84"/>
</g>
<!-- api_tests -->
<g id="node10" class="node">
<title>api_tests</title>
<g id="a_node10"><a xlink:href="https://git.vpro.nl/npo/test/api-tests/pipelines" xlink:title="api_tests">
<ellipse fill="azure" stroke="black" cx="522" cy="-393" rx="41.69" ry="18"/>
<text text-anchor="middle" x="522" y="-389.3" font-family="Times,serif" font-size="14.00" fill="blue">api_tests</text>
</a>
</g>
</g>
<!-- api_tests&#45;&gt;poms_backend -->
<g id="edge41" class="edge">
<title>api_tests&#45;&gt;poms_backend</title>
<path fill="none" stroke="gray" d="M551.82,-380.38C558.67,-378.18 566.01,-376.2 573,-375 597.53,-370.79 998.6,-377.85 1021,-367 1063.92,-346.21 1054.22,-316.63 1089,-284 1102.19,-271.63 1118.21,-259.68 1132.29,-250.03"/>
<polygon fill="gray" stroke="gray" points="1134.42,-252.81 1140.76,-244.33 1130.51,-247 1134.42,-252.81"/>
</g>
<!-- api_tests&#45;&gt;api -->
<g id="edge42" class="edge">
<title>api_tests&#45;&gt;api</title>
<path fill="none" stroke="gray" d="M551.82,-380.39C558.68,-378.19 566.01,-376.21 573,-375 584.01,-373.1 967.18,-374.98 975,-367 1000.82,-340.66 1000.58,-310.58 975,-284 966.94,-275.63 777.2,-279.09 766,-276 746.04,-270.5 725.63,-259.75 709.49,-249.81"/>
<polygon fill="gray" stroke="gray" points="711.32,-246.82 701,-244.41 707.56,-252.73 711.32,-246.82"/>
</g>
<!-- api_tests&#45;&gt;pages_publish -->
<g id="edge43" class="edge">
<title>api_tests&#45;&gt;pages_publish</title>
<path fill="none" stroke="gray" d="M551.82,-380.39C558.67,-378.19 566.01,-376.2 573,-375 584.64,-373 989.73,-375.43 998,-367 1023.84,-340.67 1022.77,-311.34 998,-284 985.85,-270.6 934.09,-281.93 917,-276 900.23,-270.18 883.41,-259.92 869.96,-250.38"/>
<polygon fill="gray" stroke="gray" points="871.78,-247.37 861.65,-244.27 867.63,-253.01 871.78,-247.37"/>
</g>
<!-- fitnesse_tests -->
<g id="node11" class="node">
<title>fitnesse_tests</title>
<g id="a_node11"><a xlink:href="https://jenkins.vpro.nl/view/POMS/job/POMS-Fitnesse-Tests/" xlink:title="fitnesse_tests">
<ellipse fill="azure" stroke="black" cx="794" cy="-393" rx="57.69" ry="18"/>
<text text-anchor="middle" x="794" y="-389.3" font-family="Times,serif" font-size="14.00" fill="blue">fitnesse_tests</text>
</a>
</g>
</g>
<!-- fitnesse_tests&#45;&gt;poms -->
<g id="edge44" class="edge">
<title>fitnesse_tests&#45;&gt;poms</title>
<path fill="none" stroke="gray" d="M834.82,-380.16C843.4,-378.09 852.45,-376.22 861,-375 912.95,-367.62 1046.47,-381.14 1097,-367 1176.53,-344.75 1194.29,-327.3 1259,-276 1268,-268.87 1276.78,-259.84 1284.1,-251.55"/>
<polygon fill="gray" stroke="gray" points="1286.8,-253.78 1290.63,-243.9 1281.48,-249.23 1286.8,-253.78"/>
</g>
<!-- fitnesse_tests&#45;&gt;poms_backend -->
<g id="edge45" class="edge">
<title>fitnesse_tests&#45;&gt;poms_backend</title>
<path fill="none" stroke="gray" d="M834.84,-380.24C843.41,-378.17 852.45,-376.27 861,-375 880.25,-372.15 1018.31,-375.12 1036,-367 1088.61,-342.85 1130.39,-286.99 1151.64,-253.9"/>
<polygon fill="gray" stroke="gray" points="1154.74,-255.55 1157.09,-245.22 1148.81,-251.84 1154.74,-255.55"/>
</g>
<!-- fitnesse_tests&#45;&gt;api -->
<g id="edge46" class="edge">
<title>fitnesse_tests&#45;&gt;api</title>
<path fill="none" stroke="gray" d="M835.2,-380.2C843.67,-378.15 852.58,-376.28 861,-375 877.72,-372.46 1001.36,-379.27 1013,-367 1038.39,-340.24 1038.66,-310.5 1013,-284 1003.45,-274.14 779.25,-279.61 766,-276 746.02,-270.56 725.61,-259.81 709.48,-249.86"/>
<polygon fill="gray" stroke="gray" points="711.3,-246.87 700.99,-244.45 707.54,-252.78 711.3,-246.87"/>
</g>
<!-- users -->
<g id="node16" class="node">
<title>users</title>
<ellipse fill="none" stroke="black" cx="434" cy="-393" rx="28.7" ry="18"/>
<text text-anchor="middle" x="434" y="-389.3" font-family="Times,serif" font-size="14.00">users</text>
</g>
<!-- users&#45;&gt;api -->
<g id="edge4" class="edge">
<title>users&#45;&gt;api</title>
<path fill="none" stroke="gray" d="M454.99,-380.55C460.09,-378.28 465.62,-376.23 471,-375 483.43,-372.17 921.06,-376.1 930,-367 955.86,-340.69 955.44,-310.71 930,-284 917.42,-270.79 783.56,-280.94 766,-276 746.07,-270.4 725.66,-259.64 709.52,-249.72"/>
<polygon fill="gray" stroke="gray" points="711.34,-246.73 701.02,-244.34 707.59,-252.64 711.34,-246.73"/>
</g>
<!-- users&#45;&gt;images_frontend -->
<g id="edge5" class="edge">
<title>users&#45;&gt;images_frontend</title>
<path fill="none" stroke="gray" d="M454.99,-380.55C460.09,-378.29 465.62,-376.23 471,-375 482.81,-372.3 898.51,-375.64 907,-367 932.84,-340.68 932.75,-310.41 907,-284 894.7,-271.39 606.08,-283.21 590,-276 578.83,-270.99 569.12,-261.76 561.61,-252.72"/>
<polygon fill="gray" stroke="gray" points="564.23,-250.39 555.36,-244.61 558.69,-254.66 564.23,-250.39"/>
</g>
<!-- magnolia_frontend -->
<g id="node19" class="node">
<title>magnolia_frontend</title>
<ellipse fill="none" stroke="black" cx="645" cy="-318" rx="77.99" ry="18"/>
<text text-anchor="middle" x="645" y="-314.3" font-family="Times,serif" font-size="14.00">magnolia_frontend</text>
</g>
<!-- users&#45;&gt;magnolia_frontend -->
<g id="edge6" class="edge">
<title>users&#45;&gt;magnolia_frontend</title>
<path fill="none" stroke="gray" d="M455.46,-380.66C460.44,-378.45 465.81,-376.39 471,-375 508.51,-364.97 520.88,-378.4 558,-367 577.3,-361.07 597.13,-350.53 612.98,-340.84"/>
<polygon fill="gray" stroke="gray" points="615.23,-343.56 621.82,-335.27 611.49,-337.64 615.23,-343.56"/>
</g>
<!-- backendsystems -->
<g id="node17" class="node">
<title>backendsystems</title>
<ellipse fill="none" stroke="black" cx="650" cy="-393" rx="68.49" ry="18"/>
<text text-anchor="middle" x="650" y="-389.3" font-family="Times,serif" font-size="14.00">backendsystems</text>
</g>
<!-- backendsystems&#45;&gt;poms_backend -->
<g id="edge7" class="edge">
<title>backendsystems&#45;&gt;poms_backend</title>
<path fill="none" stroke="gray" d="M697.4,-380.02C707.13,-377.99 717.35,-376.17 727,-375 746.14,-372.69 1057.1,-376.28 1074,-367 1118.06,-342.81 1145.05,-287.79 1157.92,-254.68"/>
<polygon fill="gray" stroke="gray" points="1161.25,-255.76 1161.46,-245.17 1154.69,-253.32 1161.25,-255.76"/>
</g>
<!-- backendsystems&#45;&gt;pages_publish -->
<g id="edge8" class="edge">
<title>backendsystems&#45;&gt;pages_publish</title>
<path fill="none" stroke="gray" d="M697.4,-380.04C707.13,-378 717.35,-376.17 727,-375 735.94,-373.91 1044.71,-373.44 1051,-367 1076.76,-340.6 1076.3,-310.85 1051,-284 1040.77,-273.14 931.18,-280.61 917,-276 900,-270.47 883.05,-260.14 869.57,-250.47"/>
<polygon fill="gray" stroke="gray" points="871.37,-247.44 861.26,-244.27 867.18,-253.06 871.37,-247.44"/>
</g>
<!-- editors -->
<g id="node18" class="node">
<title>editors</title>
<ellipse fill="none" stroke="black" cx="904" cy="-393" rx="34.39" ry="18"/>
<text text-anchor="middle" x="904" y="-389.3" font-family="Times,serif" font-size="14.00">editors</text>
</g>
<!-- editors&#45;&gt;poms -->
<g id="edge1" class="edge">
<title>editors&#45;&gt;poms</title>
<path fill="none" stroke="gray" d="M938.47,-392.09C1026.43,-391.97 1254.03,-389.49 1279,-367 1309.9,-339.17 1310.37,-287.1 1307.18,-255.2"/>
<polygon fill="gray" stroke="gray" points="1310.65,-254.73 1306,-245.21 1303.7,-255.56 1310.65,-254.73"/>
</g>
<!-- magnolia_backend -->
<g id="node20" class="node">
<title>magnolia_backend</title>
<ellipse fill="none" stroke="black" cx="818" cy="-318" rx="77.19" ry="18"/>
<text text-anchor="middle" x="818" y="-314.3" font-family="Times,serif" font-size="14.00">magnolia_backend</text>
</g>
<!-- editors&#45;&gt;magnolia_backend -->
<g id="edge2" class="edge">
<title>editors&#45;&gt;magnolia_backend</title>
<path fill="none" stroke="gray" d="M886.6,-377.23C874.7,-367.13 858.69,-353.54 845.13,-342.03"/>
<polygon fill="gray" stroke="gray" points="847.37,-339.34 837.48,-335.53 842.84,-344.67 847.37,-339.34"/>
</g>
<!-- editors&#45;&gt;keycloak -->
<g id="edge3" class="edge">
<title>editors&#45;&gt;keycloak</title>
<path fill="none" stroke="gray" d="M938.67,-391.84C1030.83,-391.16 1276.9,-387.4 1307,-367 1370.09,-324.24 1382.33,-270.02 1350,-201 1345.41,-191.2 1337.52,-182.79 1329.17,-175.99"/>
<polygon fill="gray" stroke="gray" points="1331.22,-173.15 1321.12,-169.96 1327.03,-178.75 1331.22,-173.15"/>
</g>
<!-- magnolia_frontend&#45;&gt;api -->
<g id="edge38" class="edge">
<title>magnolia_frontend&#45;&gt;api</title>
<path fill="none" stroke="gray" d="M651.36,-299.84C656.11,-287.04 662.69,-269.3 668.12,-254.65"/>
<polygon fill="gray" stroke="gray" points="671.46,-255.7 671.66,-245.11 664.9,-253.27 671.46,-255.7"/>
</g>
<!-- magnolia_backend&#45;&gt;poms_backend -->
<g id="edge36" class="edge">
<title>magnolia_backend&#45;&gt;poms_backend</title>
<path fill="none" stroke="gray" d="M890.65,-311.7C942.95,-306.38 1014.63,-295.98 1075,-276 1094.91,-269.41 1115.75,-258.89 1132.54,-249.37"/>
<polygon fill="gray" stroke="gray" points="1134.53,-252.26 1141.42,-244.22 1131.02,-246.21 1134.53,-252.26"/>
</g>
<!-- magnolia_backend&#45;&gt;pages_publish -->
<g id="edge37" class="edge">
<title>magnolia_backend&#45;&gt;pages_publish</title>
<path fill="none" stroke="gray" d="M822.63,-299.84C826.05,-287.16 830.77,-269.64 834.7,-255.08"/>
<polygon fill="gray" stroke="gray" points="838.16,-255.67 837.39,-245.11 831.4,-253.85 838.16,-255.67"/>
</g>
<!-- amara_importer -->
<g id="node21" class="node">
<title>amara_importer</title>
<ellipse fill="none" stroke="black" cx="481" cy="-318" rx="67.69" ry="18"/>
<text text-anchor="middle" x="481" y="-314.3" font-family="Times,serif" font-size="14.00">amara_importer</text>
</g>
<!-- amara_importer&#45;&gt;poms_backend -->
<g id="edge47" class="edge">
<title>amara_importer&#45;&gt;poms_backend</title>
<path fill="none" stroke="gray" d="M509.73,-301.52C523.84,-294.75 541.36,-287.55 558,-284 614.19,-272.01 1019.31,-290.11 1075,-276 1095.92,-270.7 1117.41,-259.84 1134.36,-249.8"/>
<polygon fill="gray" stroke="gray" points="1136.57,-252.55 1143.27,-244.34 1132.91,-246.58 1136.57,-252.55"/>
</g>
<!-- amara -->
<g id="node32" class="node">
<title>amara</title>
<ellipse fill="none" stroke="black" cx="48" cy="-155" rx="32.49" ry="18"/>
<text text-anchor="middle" x="48" y="-151.3" font-family="Times,serif" font-size="14.00">amara</text>
</g>
<!-- amara_importer&#45;&gt;amara -->
<g id="edge48" class="edge">
<title>amara_importer&#45;&gt;amara</title>
<path fill="none" stroke="gray" d="M434.98,-304.74C407.04,-297.05 370.76,-286.6 339,-276 226.25,-238.37 195.75,-233.27 89,-181 84.93,-179.01 80.74,-176.73 76.67,-174.39"/>
<polygon fill="gray" stroke="gray" points="78.4,-171.35 68.02,-169.22 74.81,-177.36 78.4,-171.35"/>
</g>
<!-- metis -->
<g id="node22" class="node">
<title>metis</title>
<ellipse fill="none" stroke="black" cx="1669" cy="-80" rx="30.59" ry="18"/>
<text text-anchor="middle" x="1669" y="-76.3" font-family="Times,serif" font-size="14.00">metis</text>
</g>
<!-- pd&#45;&gt;metis -->
<g id="edge40" class="edge">
<title>pd&#45;&gt;metis</title>
<path fill="none" stroke="gray" d="M1699.34,-137.8C1694.43,-128.6 1688.17,-116.88 1682.61,-106.48"/>
<polygon fill="gray" stroke="gray" points="1685.57,-104.58 1677.77,-97.41 1679.39,-107.88 1685.57,-104.58"/>
</g>
<!-- prepr&#45;&gt;metis -->
<g id="edge39" class="edge">
<title>prepr&#45;&gt;metis</title>
<path fill="none" stroke="gray" d="M1641.94,-137.44C1646.28,-128.38 1651.76,-116.97 1656.64,-106.78"/>
<polygon fill="gray" stroke="gray" points="1659.92,-108.03 1661.09,-97.5 1653.61,-105 1659.92,-108.03"/>
</g>
</g>
</svg>
