<?xml version="1.0" encoding="UTF-8" standalone="no"?>
<!DOCTYPE svg PUBLIC "-//W3C//DTD SVG 1.1//EN"
 "http://www.w3.org/Graphics/SVG/1.1/DTD/svg11.dtd">
<!-- Generated by graphviz version 2.40.1 (20161225.0304)
 -->
<!-- Title: %3 Pages: 1 -->
<svg width="762pt" height="676pt"
 viewBox="0.00 0.00 762.00 676.00" xmlns="http://www.w3.org/2000/svg" xmlns:xlink="http://www.w3.org/1999/xlink">
<g id="graph0" class="graph" transform="scale(1 1) rotate(0) translate(4 672)">
<title>%3</title>
<polygon fill="#ffffff" stroke="transparent" points="-4,4 -4,-672 758,-672 758,4 -4,4"/>
<text text-anchor="middle" x="377" y="-22.8" font-family="Times,serif" font-size="14.00" fill="#000000">Dependencies of the different code projects relevant to</text>
<text text-anchor="middle" x="377" y="-7.8" font-family="Times,serif" font-size="14.00" fill="#000000"> &#160;&#160;&#160;POMS</text>
<g id="clust1" class="cluster">
<title>cluster_0</title>
<polygon fill="none" stroke="#000000" points="521,-46 521,-121 746,-121 746,-46 521,-46"/>
<text text-anchor="middle" x="633.5" y="-105.8" font-family="Times,serif" font-size="14.00" fill="#000000">Generic utilities</text>
</g>
<g id="clust2" class="cluster">
<title>cluster_1</title>
<polygon fill="none" stroke="#000000" points="543,-491 543,-566 631,-566 631,-491 543,-491"/>
<text text-anchor="middle" x="587" y="-550.8" font-family="Times,serif" font-size="14.00" fill="#000000">VPRO</text>
</g>
<g id="clust3" class="cluster">
<title>cluster_2</title>
<polygon fill="none" stroke="#000000" points="8,-251 8,-660 300,-660 300,-251 8,-251"/>
<text text-anchor="middle" x="154" y="-644.8" font-family="Times,serif" font-size="14.00" fill="#000000">POMS Services</text>
</g>
<g id="clust4" class="cluster">
<title>cluster_4</title>
<polygon fill="none" stroke="#000000" points="503,-140 503,-472 633,-472 633,-140 503,-140"/>
<text text-anchor="middle" x="568" y="-456.8" font-family="Times,serif" font-size="14.00" fill="#000000">Sharable utilities</text>
</g>
<!-- vpro_shared -->
<g id="node1" class="node">
<title>vpro_shared</title>
<g id="a_node1"><a xlink:href="https://github.com/vpro/vpro-shared" xlink:title="vpro_shared">
<ellipse fill="none" stroke="#000000" cx="581" cy="-166" rx="44.393" ry="18"/>
<text text-anchor="middle" x="581" y="-162.3" font-family="Times,serif" font-size="14.00" fill="#0000ff">vpro_shared</text>
</a>
</g>
</g>
<!-- slf4j -->
<g id="node8" class="node">
<title>slf4j</title>
<ellipse fill="none" stroke="#000000" cx="556" cy="-72" rx="27" ry="18"/>
<text text-anchor="middle" x="556" y="-68.3" font-family="Times,serif" font-size="14.00" fill="#000000">slf4j</text>
</g>
<!-- vpro_shared&#45;&gt;slf4j -->
<g id="edge1" class="edge">
<title>vpro_shared&#45;&gt;slf4j</title>
<path fill="none" stroke="#000000" d="M576.1797,-147.8759C572.5598,-134.2649 567.5369,-115.3788 563.4081,-99.8543"/>
<polygon fill="#000000" stroke="#000000" points="566.6734,-98.5142 560.7207,-89.7497 559.9085,-100.3134 566.6734,-98.5142"/>
</g>
<!-- guava -->
<g id="node9" class="node">
<title>guava</title>
<ellipse fill="none" stroke="#000000" cx="628" cy="-72" rx="27.0966" ry="18"/>
<text text-anchor="middle" x="628" y="-68.3" font-family="Times,serif" font-size="14.00" fill="#000000">guava</text>
</g>
<!-- vpro_shared&#45;&gt;guava -->
<g id="edge2" class="edge">
<title>vpro_shared&#45;&gt;guava</title>
<path fill="none" stroke="#000000" d="M589.8403,-148.3193C596.843,-134.314 606.7372,-114.5256 614.6959,-98.6081"/>
<polygon fill="#000000" stroke="#000000" points="618.0164,-99.7934 619.3581,-89.2838 611.7554,-96.6628 618.0164,-99.7934"/>
</g>
<!-- poms_backend -->
<g id="node2" class="node">
<title>poms_backend</title>
<g id="a_node2"><a xlink:href="https://subversion.vpro.nl/viewvc/nl/vpro/media" xlink:title="POMS &amp; Backend API">
<ellipse fill="none" stroke="#000000" cx="91" cy="-423" rx="74.9875" ry="18"/>
<text text-anchor="middle" x="91" y="-419.3" font-family="Times,serif" font-size="14.00" fill="#0000ff">POMS &amp; Backend API</text>
</a>
</g>
</g>
<!-- poms_gui -->
<g id="node3" class="node">
<title>poms_gui</title>
<g id="a_node3"><a xlink:href="https://subversion.vpro.nl/viewvc/nl/vpro/media-gui" xlink:title="Angular GUI for POMS">
<ellipse fill="none" stroke="#000000" cx="93" cy="-277" rx="76.8869" ry="18"/>
<text text-anchor="middle" x="93" y="-273.3" font-family="Times,serif" font-size="14.00" fill="#0000ff">Angular GUI for POMS</text>
</a>
</g>
</g>
<!-- poms_backend&#45;&gt;poms_gui -->
<g id="edge23" class="edge">
<title>poms_backend&#45;&gt;poms_gui</title>
<path fill="none" stroke="#000000" d="M91.2493,-404.8042C91.5906,-379.8868 92.2069,-334.8938 92.6098,-305.4877"/>
<polygon fill="#000000" stroke="#000000" points="96.1102,-305.4721 92.7476,-295.4251 89.1109,-305.3762 96.1102,-305.4721"/>
</g>
<!-- poms_shared -->
<g id="node13" class="node">
<title>poms_shared</title>
<ellipse fill="none" stroke="#000000" cx="558" cy="-277" rx="46.5926" ry="18"/>
<text text-anchor="middle" x="558" y="-273.3" font-family="Times,serif" font-size="14.00" fill="#000000">poms_shared</text>
</g>
<!-- poms_backend&#45;&gt;poms_shared -->
<g id="edge22" class="edge">
<title>poms_backend&#45;&gt;poms_shared</title>
<path fill="none" stroke="#000000" d="M117.5415,-406.1331C150.3376,-385.9485 208.3886,-352.3348 262,-332 342.1543,-301.5975 441.0994,-287.5757 501.8579,-281.4244"/>
<polygon fill="#000000" stroke="#000000" points="502.3954,-284.8886 512.0083,-280.4342 501.7157,-277.9217 502.3954,-284.8886"/>
</g>
<!-- poms_shared_backend -->
<g id="node4" class="node">
<title>poms_shared_backend</title>
<g id="a_node4"><a xlink:href="https://subversion.vpro.nl/viewvc/nl/publiekeomroep/poms-shared-backend/" xlink:title="poms_shared_backend">
<ellipse fill="none" stroke="#000000" cx="381" cy="-350" rx="72.5877" ry="18"/>
<text text-anchor="middle" x="381" y="-346.3" font-family="Times,serif" font-size="14.00" fill="#0000ff">poms_shared_backend</text>
</a>
</g>
</g>
<!-- poms_shared_backend&#45;&gt;vpro_shared -->
<g id="edge4" class="edge">
<title>poms_shared_backend&#45;&gt;vpro_shared</title>
<path fill="none" stroke="#000000" d="M400.1768,-332.3573C436.3824,-299.0482 514.8066,-226.8979 555.4392,-189.5159"/>
<polygon fill="#000000" stroke="#000000" points="558.0485,-191.8713 563.0381,-182.5249 553.3091,-186.7198 558.0485,-191.8713"/>
</g>
<!-- poms_shared_backend&#45;&gt;slf4j -->
<g id="edge6" class="edge">
<title>poms_shared_backend&#45;&gt;slf4j</title>
<path fill="none" stroke="#000000" d="M381.779,-331.7035C382.3405,-316.9408 383,-295.6372 383,-277 383,-277 383,-277 383,-166 383,-104.6006 468.1726,-83.0855 518.9933,-75.7128"/>
<polygon fill="#000000" stroke="#000000" points="519.5194,-79.1737 528.9688,-74.382 518.5937,-72.2352 519.5194,-79.1737"/>
</g>
<!-- poms_shared_backend&#45;&gt;poms_shared -->
<g id="edge5" class="edge">
<title>poms_shared_backend&#45;&gt;poms_shared</title>
<path fill="none" stroke="#000000" d="M417.3298,-334.3426C432.9001,-327.6858 451.31,-319.8861 468,-313 483.4411,-306.6292 500.4382,-299.7867 515.4634,-293.7961"/>
<polygon fill="#000000" stroke="#000000" points="517.0182,-296.9444 525.0162,-289.9959 514.4307,-290.4402 517.0182,-296.9444"/>
</g>
<!-- api -->
<g id="node5" class="node">
<title>api</title>
<g id="a_node5"><a xlink:href="https://subversion.vpro.nl/viewvc/nl/vpro/api/" xlink:title="Frontend API">
<ellipse fill="none" stroke="#000000" cx="244" cy="-611" rx="48.1917" ry="18"/>
<text text-anchor="middle" x="244" y="-607.3" font-family="Times,serif" font-size="14.00" fill="#0000ff">Frontend API</text>
</a>
</g>
</g>
<!-- api&#45;&gt;vpro_shared -->
<g id="edge9" class="edge">
<title>api&#45;&gt;vpro_shared</title>
<path fill="none" stroke="#000000" d="M292.0777,-609.0311C382.592,-604.7438 574.626,-592.7233 635,-566 665.2415,-552.6142 691,-550.0716 691,-517 691,-517 691,-517 691,-221.5 691,-193.3726 661.9773,-179.4975 633.7472,-172.6544"/>
<polygon fill="#000000" stroke="#000000" points="634.3574,-169.2056 623.8438,-170.5154 632.8795,-176.0478 634.3574,-169.2056"/>
</g>
<!-- api&#45;&gt;poms_shared_backend -->
<g id="edge8" class="edge">
<title>api&#45;&gt;poms_shared_backend</title>
<path fill="none" stroke="#000000" d="M291.567,-607.959C338.3176,-603.8609 404.9285,-594.6693 421,-575 468.3233,-517.0828 424.2609,-422.4567 397.7404,-376.5907"/>
<polygon fill="#000000" stroke="#000000" points="400.6572,-374.6476 392.5445,-367.8333 394.6371,-378.2195 400.6572,-374.6476"/>
</g>
<!-- resteasy -->
<g id="node10" class="node">
<title>resteasy</title>
<ellipse fill="none" stroke="#000000" cx="706" cy="-72" rx="32.4942" ry="18"/>
<text text-anchor="middle" x="706" y="-68.3" font-family="Times,serif" font-size="14.00" fill="#000000">resteasy</text>
</g>
<!-- api&#45;&gt;resteasy -->
<g id="edge10" class="edge">
<title>api&#45;&gt;resteasy</title>
<path fill="none" stroke="#000000" d="M291.3537,-607.7065C363.5281,-602.4202 505.3076,-590.9885 625,-575 677.4584,-567.9926 729,-569.9244 729,-517 729,-517 729,-517 729,-166 729,-143.0353 722.443,-117.7958 716.331,-99.2575"/>
<polygon fill="#000000" stroke="#000000" points="719.6033,-98.0108 713.0257,-89.705 712.9881,-100.2997 719.6033,-98.0108"/>
</g>
<!-- api&#45;&gt;poms_shared -->
<g id="edge7" class="edge">
<title>api&#45;&gt;poms_shared</title>
<path fill="none" stroke="#000000" d="M291.2712,-607.3331C345.5213,-602.0303 429.5351,-590.0911 449,-566 518.8299,-479.5739 497.6276,-435.9013 537,-332 540.4209,-322.9724 544.1762,-313.1193 547.5535,-304.2787"/>
<polygon fill="#000000" stroke="#000000" points="550.8656,-305.4162 551.1679,-294.8257 544.3272,-302.9162 550.8656,-305.4162"/>
</g>
<!-- media_publish -->
<g id="node6" class="node">
<title>media_publish</title>
<g id="a_node6"><a xlink:href="https://subversion.vpro.nl/viewvc/nl/publiekeomroep/npo-publish/" xlink:title="Media Publisher">
<ellipse fill="none" stroke="#000000" cx="122" cy="-611" rx="55.7903" ry="18"/>
<text text-anchor="middle" x="122" y="-607.3" font-family="Times,serif" font-size="14.00" fill="#0000ff">Media Publisher</text>
</a>
</g>
</g>
<!-- media_publish&#45;&gt;poms_backend -->
<g id="edge15" class="edge">
<title>media_publish&#45;&gt;poms_backend</title>
<path fill="none" stroke="#c0c0c0" d="M119.0276,-592.9738C113.6137,-560.1414 102.1096,-490.3746 95.6499,-451.1996"/>
<polygon fill="#c0c0c0" stroke="#c0c0c0" points="99.0894,-450.5452 94.009,-441.2479 92.1826,-451.6841 99.0894,-450.5452"/>
<text text-anchor="middle" x="117.5" y="-513.3" font-family="Times,serif" font-size="14.00" fill="#000000">?</text>
</g>
<!-- media_publish&#45;&gt;poms_shared_backend -->
<g id="edge14" class="edge">
<title>media_publish&#45;&gt;poms_shared_backend</title>
<path fill="none" stroke="#000000" d="M164.2587,-599.1034C171.8208,-597.0299 179.6358,-594.923 187,-593 235.7068,-580.2813 259.164,-599.2048 297,-566 353.3928,-516.5097 372.2003,-424.5109 378.2566,-378.1905"/>
<polygon fill="#000000" stroke="#000000" points="381.7342,-378.5853 379.4514,-368.2393 374.7841,-377.7507 381.7342,-378.5853"/>
</g>
<!-- pages_publish -->
<g id="node7" class="node">
<title>pages_publish</title>
<g id="a_node7"><a xlink:href="https://subversion.vpro.nl/viewvc/nl/publiekeomroep/npo-publish/" xlink:title="Pages Publisher">
<ellipse fill="none" stroke="#000000" cx="238" cy="-423" rx="53.8905" ry="18"/>
<text text-anchor="middle" x="238" y="-419.3" font-family="Times,serif" font-size="14.00" fill="#0000ff">Pages Publisher</text>
</a>
</g>
</g>
<!-- media_publish&#45;&gt;pages_publish -->
<g id="edge16" class="edge">
<title>media_publish&#45;&gt;pages_publish</title>
<path fill="none" stroke="#c0c0c0" d="M132.913,-593.3134C155.0216,-557.4822 204.8765,-476.6829 227.0315,-440.7765"/>
<text text-anchor="middle" x="244.5" y="-513.3" font-family="Times,serif" font-size="14.00" fill="#000000">we plan to merge these</text>
</g>
<!-- media_publish&#45;&gt;poms_shared -->
<g id="edge13" class="edge">
<title>media_publish&#45;&gt;poms_shared</title>
<path fill="none" stroke="#000000" d="M163.4361,-598.77C171.2263,-596.686 179.3326,-594.6613 187,-593 253.2018,-578.6557 280.3941,-603.205 337,-566 364.2777,-548.0713 491.6049,-370.6553 539.6162,-303.0128"/>
<polygon fill="#000000" stroke="#000000" points="542.6592,-304.7722 545.5872,-294.59 536.9485,-300.7239 542.6592,-304.7722"/>
</g>
<!-- pages_publish&#45;&gt;poms_shared_backend -->
<g id="edge11" class="edge">
<title>pages_publish&#45;&gt;poms_shared_backend</title>
<path fill="none" stroke="#000000" d="M267.6297,-407.8744C288.646,-397.1458 317.1141,-382.6131 340.265,-370.7948"/>
<polygon fill="#000000" stroke="#000000" points="341.8583,-373.9112 349.1735,-366.2471 338.6755,-367.6766 341.8583,-373.9112"/>
</g>
<!-- pages_publish&#45;&gt;poms_shared -->
<g id="edge12" class="edge">
<title>pages_publish&#45;&gt;poms_shared</title>
<path fill="none" stroke="#000000" d="M245.1222,-404.8538C254.3199,-383.8996 272.3761,-350.0101 299,-332 331.7077,-309.8744 437.17,-292.6743 502.9998,-283.7541"/>
<polygon fill="#000000" stroke="#000000" points="503.7574,-287.1842 513.2076,-282.3941 502.8329,-280.2455 503.7574,-287.1842"/>
</g>
<!-- magnolia -->
<g id="node11" class="node">
<title>magnolia</title>
<ellipse fill="none" stroke="#000000" cx="587" cy="-517" rx="36.2938" ry="18"/>
<text text-anchor="middle" x="587" y="-513.3" font-family="Times,serif" font-size="14.00" fill="#000000">magnolia</text>
</g>
<!-- magnolia&#45;&gt;vpro_shared -->
<g id="edge20" class="edge">
<title>magnolia&#45;&gt;vpro_shared</title>
<path fill="none" stroke="#000000" d="M606.8022,-501.6654C626.2429,-484.7239 653,-455.5028 653,-423 653,-423 653,-423 653,-221.5 653,-203.9529 639.4199,-191.1791 624.0552,-182.3421"/>
<polygon fill="#000000" stroke="#000000" points="625.38,-179.0864 614.8917,-177.5876 622.1561,-185.2999 625.38,-179.0864"/>
</g>
<!-- api_client -->
<g id="node12" class="node">
<title>api_client</title>
<ellipse fill="none" stroke="#000000" cx="587" cy="-423" rx="37.8943" ry="18"/>
<text text-anchor="middle" x="587" y="-419.3" font-family="Times,serif" font-size="14.00" fill="#000000">api_client</text>
</g>
<!-- magnolia&#45;&gt;api_client -->
<g id="edge19" class="edge">
<title>magnolia&#45;&gt;api_client</title>
<path fill="none" stroke="#000000" d="M587,-498.8759C587,-485.3516 587,-466.6192 587,-451.1514"/>
<polygon fill="#000000" stroke="#000000" points="590.5001,-451.0685 587,-441.0685 583.5001,-451.0685 590.5001,-451.0685"/>
</g>
<!-- magnolia&#45;&gt;poms_shared -->
<g id="edge21" class="edge">
<title>magnolia&#45;&gt;poms_shared</title>
<path fill="none" stroke="#000000" d="M564.8221,-502.158C555.2786,-494.4208 545.146,-484.0515 540,-472 527.4899,-442.7026 542.9415,-351.8017 552.1205,-305.1898"/>
<polygon fill="#000000" stroke="#000000" points="555.5985,-305.6469 554.1352,-295.1536 548.7355,-304.2692 555.5985,-305.6469"/>
</g>
<!-- api_client&#45;&gt;vpro_shared -->
<g id="edge18" class="edge">
<title>api_client&#45;&gt;vpro_shared</title>
<path fill="none" stroke="#000000" d="M601.1993,-406.213C611.6335,-392.1416 624,-371.0287 624,-350 624,-350 624,-350 624,-221.5 624,-209.3386 617.4684,-198.2265 609.4965,-189.193"/>
<polygon fill="#000000" stroke="#000000" points="611.7531,-186.4958 602.2481,-181.8155 606.7598,-191.4017 611.7531,-186.4958"/>
</g>
<!-- api_client&#45;&gt;poms_shared -->
<g id="edge17" class="edge">
<title>api_client&#45;&gt;poms_shared</title>
<path fill="none" stroke="#000000" d="M585.8379,-404.8383C584.1296,-382.8202 580.2082,-344.7209 572,-313 571.2755,-310.2003 570.3979,-307.3222 569.4392,-304.4716"/>
<polygon fill="#000000" stroke="#000000" points="572.7075,-303.2184 565.9724,-295.0398 566.1373,-305.6334 572.7075,-303.2184"/>
</g>
<!-- poms_shared&#45;&gt;vpro_shared -->
<g id="edge3" class="edge">
<title>poms_shared&#45;&gt;vpro_shared</title>
<path fill="none" stroke="#000000" d="M561.798,-258.6706C565.4487,-241.0521 571.0159,-214.1843 575.2174,-193.9073"/>
<polygon fill="#000000" stroke="#000000" points="578.6708,-194.4905 577.2727,-183.9883 571.8164,-193.0702 578.6708,-194.4905"/>
</g>
</g>
</svg>
