<?xml version="1.0" encoding="UTF-8" standalone="no"?>
<!DOCTYPE svg PUBLIC "-//W3C//DTD SVG 1.1//EN"
 "http://www.w3.org/Graphics/SVG/1.1/DTD/svg11.dtd">
<!-- Generated by graphviz version 2.40.1 (20161225.0304)
 -->
<!-- Title: poms_universe Pages: 1 -->
<svg width="1025pt" height="507pt"
 viewBox="0.00 0.00 1024.92 507.00" xmlns="http://www.w3.org/2000/svg" xmlns:xlink="http://www.w3.org/1999/xlink">
<g id="graph0" class="graph" transform="scale(1 1) rotate(0) translate(4 503)">
<title>poms_universe</title>
<polygon fill="#ffffff" stroke="transparent" points="-4,4 -4,-503 1020.9164,-503 1020.9164,4 -4,4"/>
<text text-anchor="middle" x="508.4582" y="-7.8" font-family="Times,serif" font-size="14.00" fill="#000000">Deployments relevant for POMS</text>
<g id="clust1" class="cluster">
<title>cluster_0</title>
<polygon fill="none" stroke="#000000" points="597.2095,-31 597.2095,-178 943.2095,-178 943.2095,-31 597.2095,-31"/>
<text text-anchor="middle" x="770.2095" y="-162.8" font-family="Times,serif" font-size="14.00" fill="#000000">Generic backend services</text>
</g>
<g id="clust2" class="cluster">
<title>cluster_1</title>
<polygon fill="none" stroke="#000000" points="632.2095,-344 632.2095,-491 915.2095,-491 915.2095,-344 632.2095,-344"/>
<text text-anchor="middle" x="773.7095" y="-475.8" font-family="Times,serif" font-size="14.00" fill="#000000">World</text>
</g>
<g id="clust3" class="cluster">
<title>cluster_3</title>
<polygon fill="none" stroke="#000000" points="418.2095,-186 418.2095,-336 915.2095,-336 915.2095,-186 418.2095,-186"/>
<text text-anchor="middle" x="666.7095" y="-320.8" font-family="Times,serif" font-size="14.00" fill="#000000">POMS &#160;Services</text>
</g>
<g id="clust4" class="cluster">
<title>cluster_4</title>
<polygon fill="none" stroke="#000000" points="40.2095,-103 40.2095,-261 410.2095,-261 410.2095,-103 40.2095,-103"/>
<text text-anchor="middle" x="225.2095" y="-245.8" font-family="Times,serif" font-size="14.00" fill="#000000">NPO Services</text>
</g>
<!-- poms -->
<g id="node1" class="node">
<title>poms</title>
<g id="a_node1"><a xlink:href="https://poms.omroep.nl/" xlink:title="POMS">
<ellipse fill="none" stroke="#000000" cx="606.2095" cy="-287" rx="29.4969" ry="18"/>
<text text-anchor="middle" x="606.2095" y="-283.3" font-family="Times,serif" font-size="14.00" fill="#0000ff">POMS</text>
</a>
</g>
</g>
<!-- postgresql -->
<g id="node6" class="node">
<title>postgresql</title>
<ellipse fill="none" stroke="#000000" cx="716.2095" cy="-129" rx="38.9931" ry="18"/>
<text text-anchor="middle" x="716.2095" y="-125.3" font-family="Times,serif" font-size="14.00" fill="#000000">postgresql</text>
</g>
<!-- poms&#45;&gt;postgresql -->
<g id="edge8" class="edge">
<title>poms&#45;&gt;postgresql</title>
<path fill="none" stroke="#cd950c" d="M629.3244,-275.5076C634.193,-273.2408 639.3325,-270.9596 644.2095,-269 654.6425,-264.808 660.1524,-268.8423 668.2095,-261 696.8451,-233.1279 708.4885,-186.8494 713.1602,-157.151"/>
<polygon fill="#cd950c" stroke="#cd950c" points="716.6575,-157.4145 714.5845,-147.0245 709.7257,-156.4395 716.6575,-157.4145"/>
</g>
<!-- sso -->
<g id="node8" class="node">
<title>sso</title>
<ellipse fill="none" stroke="#000000" cx="908.2095" cy="-129" rx="27" ry="18"/>
<text text-anchor="middle" x="908.2095" y="-125.3" font-family="Times,serif" font-size="14.00" fill="#000000">sso</text>
</g>
<!-- poms&#45;&gt;sso -->
<g id="edge9" class="edge">
<title>poms&#45;&gt;sso</title>
<path fill="none" stroke="#cd950c" d="M628.2679,-275.1774C633.3864,-272.8241 638.8947,-270.5913 644.2095,-269 668.7163,-261.6626 676.7379,-268.4538 701.2095,-261 782.0234,-236.385 807.2989,-232.0685 872.2095,-178 880.072,-171.4508 887.1418,-162.8356 892.892,-154.6581"/>
<polygon fill="#cd950c" stroke="#cd950c" points="895.975,-156.3423 898.5887,-146.0749 890.1426,-152.4714 895.975,-156.3423"/>
</g>
<!-- jms -->
<g id="node9" class="node">
<title>jms</title>
<ellipse fill="none" stroke="#000000" cx="632.2095" cy="-129" rx="27" ry="18"/>
<text text-anchor="middle" x="632.2095" y="-125.3" font-family="Times,serif" font-size="14.00" fill="#000000">jms</text>
</g>
<!-- poms&#45;&gt;jms -->
<g id="edge10" class="edge">
<title>poms&#45;&gt;jms</title>
<path fill="none" stroke="#cd950c" d="M631.8029,-277.6448C639.0454,-273.6738 646.0758,-268.2441 650.2095,-261 668.8924,-228.2592 656.4901,-183.7038 645.011,-155.6485"/>
<polygon fill="#cd950c" stroke="#cd950c" points="648.0673,-153.8982 640.883,-146.1113 641.6432,-156.6788 648.0673,-153.8982"/>
</g>
<!-- ldap -->
<g id="node10" class="node">
<title>ldap</title>
<ellipse fill="none" stroke="#000000" cx="908.2095" cy="-57" rx="27" ry="18"/>
<text text-anchor="middle" x="908.2095" y="-53.3" font-family="Times,serif" font-size="14.00" fill="#000000">ldap</text>
</g>
<!-- poms&#45;&gt;ldap -->
<g id="edge11" class="edge">
<title>poms&#45;&gt;ldap</title>
<path fill="none" stroke="#cd950c" d="M628.1736,-274.8358C633.2969,-272.5002 638.8311,-270.3609 644.2095,-269 708.9312,-252.6235 730.0359,-279.4076 794.2095,-261 867.4482,-239.9922 905.5146,-243.6349 944.2095,-178 961.1382,-149.2853 955.0747,-134.5128 944.2095,-103 941.311,-94.5932 936.1743,-86.5486 930.6729,-79.6043"/>
<polygon fill="#cd950c" stroke="#cd950c" points="933.3237,-77.3188 924.1594,-72.0021 928.0079,-81.8732 933.3237,-77.3188"/>
</g>
<!-- metis -->
<g id="node16" class="node">
<title>metis</title>
<ellipse fill="none" stroke="#000000" cx="303.2095" cy="-129" rx="27" ry="18"/>
<text text-anchor="middle" x="303.2095" y="-125.3" font-family="Times,serif" font-size="14.00" fill="#000000">metis</text>
</g>
<!-- poms&#45;&gt;metis -->
<g id="edge12" class="edge">
<title>poms&#45;&gt;metis</title>
<path fill="none" stroke="#cd950c" d="M584.0044,-275.2128C578.6342,-272.7976 572.8215,-270.5293 567.2095,-269 549.9716,-264.3027 502.1041,-270.8672 487.2095,-261 455.5396,-240.0196 474.6465,-211.1892 446.2095,-186 415.6535,-158.9338 370.6566,-143.8746 339.3268,-136.1296"/>
<polygon fill="#cd950c" stroke="#cd950c" points="339.8008,-132.646 329.2665,-133.7766 338.2066,-139.4621 339.8008,-132.646"/>
</g>
<!-- pd -->
<g id="node17" class="node">
<title>pd</title>
<ellipse fill="none" stroke="#000000" cx="231.2095" cy="-212" rx="27" ry="18"/>
<text text-anchor="middle" x="231.2095" y="-208.3" font-family="Times,serif" font-size="14.00" fill="#000000">pd</text>
</g>
<!-- poms&#45;&gt;pd -->
<g id="edge13" class="edge">
<title>poms&#45;&gt;pd</title>
<path fill="none" stroke="#cd950c" d="M584.0799,-274.9142C578.7066,-272.5114 572.8736,-270.3234 567.2095,-269 534.7389,-261.4132 296.757,-276.4546 267.2095,-261 257.5283,-255.9363 249.7908,-246.9577 244.0079,-238.0575"/>
<polygon fill="#cd950c" stroke="#cd950c" points="246.9627,-236.1775 238.8768,-229.3313 240.9285,-239.7256 246.9627,-236.1775"/>
</g>
<!-- prepr -->
<g id="node18" class="node">
<title>prepr</title>
<ellipse fill="none" stroke="#000000" cx="159.2095" cy="-212" rx="27" ry="18"/>
<text text-anchor="middle" x="159.2095" y="-208.3" font-family="Times,serif" font-size="14.00" fill="#000000">prepr</text>
</g>
<!-- poms&#45;&gt;prepr -->
<g id="edge14" class="edge">
<title>poms&#45;&gt;prepr</title>
<path fill="none" stroke="#cd950c" d="M584.0848,-274.893C578.7114,-272.4911 572.877,-270.3088 567.2095,-269 547.0682,-264.3487 213.5513,-270.5334 195.2095,-261 185.5152,-255.9613 177.7753,-246.9875 171.994,-238.0841"/>
<polygon fill="#cd950c" stroke="#cd950c" points="174.9481,-236.2028 166.8657,-229.3526 168.9122,-239.7479 174.9481,-236.2028"/>
</g>
<!-- miranda -->
<g id="node19" class="node">
<title>miranda</title>
<ellipse fill="none" stroke="#000000" cx="81.2095" cy="-212" rx="33.2948" ry="18"/>
<text text-anchor="middle" x="81.2095" y="-208.3" font-family="Times,serif" font-size="14.00" fill="#000000">miranda</text>
</g>
<!-- poms&#45;&gt;miranda -->
<g id="edge15" class="edge">
<title>poms&#45;&gt;miranda</title>
<path fill="none" stroke="#cd950c" d="M584.0881,-274.8787C578.7145,-272.4773 572.8792,-270.2989 567.2095,-269 543.1618,-263.4907 145.5294,-271.5103 123.2095,-261 112.4995,-255.9567 103.4758,-246.7298 96.5707,-237.6317"/>
<polygon fill="#cd950c" stroke="#cd950c" points="99.4376,-235.6239 90.8374,-229.4362 93.7018,-239.6365 99.4376,-235.6239"/>
</g>
<!-- pluto -->
<g id="node20" class="node">
<title>pluto</title>
<ellipse fill="none" stroke="#000000" cx="375.2095" cy="-212" rx="27" ry="18"/>
<text text-anchor="middle" x="375.2095" y="-208.3" font-family="Times,serif" font-size="14.00" fill="#000000">pluto</text>
</g>
<!-- poms&#45;&gt;pluto -->
<g id="edge16" class="edge">
<title>poms&#45;&gt;pluto</title>
<path fill="none" stroke="#cd950c" d="M584.0547,-275.0191C578.6825,-272.612 572.8562,-270.3958 567.2095,-269 534.1578,-260.8302 444.4806,-276.5827 414.2095,-261 404.1,-255.7959 395.7419,-246.6666 389.3913,-237.6875"/>
<polygon fill="#cd950c" stroke="#cd950c" points="392.3028,-235.7445 383.926,-229.2576 386.4292,-239.5525 392.3028,-235.7445"/>
</g>
<!-- nep -->
<g id="node21" class="node">
<title>nep</title>
<ellipse fill="none" stroke="#000000" cx="303.2095" cy="-212" rx="27" ry="18"/>
<text text-anchor="middle" x="303.2095" y="-208.3" font-family="Times,serif" font-size="14.00" fill="#000000">nep</text>
</g>
<!-- poms&#45;&gt;nep -->
<g id="edge17" class="edge">
<title>poms&#45;&gt;nep</title>
<path fill="none" stroke="#cd950c" d="M584.0718,-274.9488C578.6988,-272.5445 572.8679,-270.3472 567.2095,-269 542.5499,-263.1287 361.6218,-272.843 339.2095,-261 329.5497,-255.8956 321.8163,-246.9093 316.0306,-238.0142"/>
<polygon fill="#cd950c" stroke="#cd950c" points="318.9865,-236.1362 310.895,-229.2968 312.9553,-239.6894 318.9865,-236.1362"/>
</g>
<!-- poms_backend -->
<g id="node2" class="node">
<title>poms_backend</title>
<g id="a_node2"><a xlink:href="https://api.poms.omroep.nl/" xlink:title="POMS backend API">
<ellipse fill="none" stroke="#000000" cx="492.2095" cy="-287" rx="66.0889" ry="18"/>
<text text-anchor="middle" x="492.2095" y="-283.3" font-family="Times,serif" font-size="14.00" fill="#0000ff">POMS backend API</text>
</a>
</g>
</g>
<!-- poms_backend&#45;&gt;jms -->
<g id="edge18" class="edge">
<title>poms_backend&#45;&gt;jms</title>
<path fill="none" stroke="#ff7f00" d="M541.5655,-274.7757C550.4132,-272.7371 559.5667,-270.7268 568.2095,-269 579.0287,-266.8384 609.6002,-268.9891 617.2095,-261 643.2771,-233.6313 642.1177,-187.2117 637.9074,-157.3466"/>
<polygon fill="#ff7f00" stroke="#ff7f00" points="641.3118,-156.4731 636.263,-147.1586 634.4013,-157.5886 641.3118,-156.4731"/>
</g>
<!-- poms_backend&#45;&gt;ldap -->
<g id="edge19" class="edge">
<title>poms_backend&#45;&gt;ldap</title>
<path fill="none" stroke="#ff7f00" d="M425.8188,-285.5893C302.5084,-282.6424 49.3628,-274.9246 36.2095,-261 -12.0111,-209.9517 -12.1195,-153.9457 36.2095,-103 65.3409,-72.2913 707.4973,-60.1509 870.7354,-57.5548"/>
<polygon fill="#ff7f00" stroke="#ff7f00" points="871.2718,-61.047 881.2158,-57.3909 871.1622,-54.0478 871.2718,-61.047"/>
</g>
<!-- poms_backend&#45;&gt;metis -->
<g id="edge20" class="edge">
<title>poms_backend&#45;&gt;metis</title>
<path fill="none" stroke="#ff7f00" d="M464.8224,-270.5115C461.0258,-267.6033 457.3551,-264.406 454.2095,-261 428.1409,-232.7728 438.8496,-212.6903 411.2095,-186 389.9912,-165.5108 359.9381,-150.4569 336.9195,-140.982"/>
<polygon fill="#ff7f00" stroke="#ff7f00" points="338.1175,-137.692 327.5314,-137.2633 335.5396,-144.2001 338.1175,-137.692"/>
</g>
<!-- api -->
<g id="node3" class="node">
<title>api</title>
<g id="a_node3"><a xlink:href="https://rs.poms.omroep.nl/" xlink:title="NPO Frontend API">
<ellipse fill="none" stroke="#000000" cx="843.2095" cy="-287" rx="63.8893" ry="18"/>
<text text-anchor="middle" x="843.2095" y="-283.3" font-family="Times,serif" font-size="14.00" fill="#0000ff">NPO Frontend API</text>
</a>
</g>
</g>
<!-- elasticsearch -->
<g id="node7" class="node">
<title>elasticsearch</title>
<ellipse fill="none" stroke="#000000" cx="818.2095" cy="-129" rx="45.4919" ry="18"/>
<text text-anchor="middle" x="818.2095" y="-125.3" font-family="Times,serif" font-size="14.00" fill="#000000">elasticsearch</text>
</g>
<!-- api&#45;&gt;elasticsearch -->
<g id="edge21" class="edge">
<title>api&#45;&gt;elasticsearch</title>
<path fill="none" stroke="#6495ed" d="M840.3417,-268.8754C836.0321,-241.6388 827.8467,-189.907 822.7289,-157.5623"/>
<polygon fill="#6495ed" stroke="#6495ed" points="826.1408,-156.73 821.1209,-147.3999 819.2268,-157.8241 826.1408,-156.73"/>
</g>
<!-- pages_publish -->
<g id="node4" class="node">
<title>pages_publish</title>
<g id="a_node4"><a xlink:href="https://publish.pages.omroep.nl/" xlink:title="Pages Publisher">
<ellipse fill="none" stroke="#000000" cx="707.2095" cy="-287" rx="53.8905" ry="18"/>
<text text-anchor="middle" x="707.2095" y="-283.3" font-family="Times,serif" font-size="14.00" fill="#0000ff">Pages Publisher</text>
</a>
</g>
</g>
<!-- media_publish -->
<g id="node5" class="node">
<title>media_publish</title>
<ellipse fill="none" stroke="#000000" cx="552.2095" cy="-212" rx="55.7903" ry="18"/>
<text text-anchor="middle" x="552.2095" y="-208.3" font-family="Times,serif" font-size="14.00" fill="#000000">Media Publisher</text>
</g>
<!-- pages_publish&#45;&gt;media_publish -->
<g id="edge26" class="edge">
<title>pages_publish&#45;&gt;media_publish</title>
<path fill="none" stroke="#c0c0c0" d="M676.2155,-272.0029C649.2701,-258.9648 610.4226,-240.1676 583.4151,-227.0995"/>
</g>
<!-- pages_publish&#45;&gt;elasticsearch -->
<g id="edge22" class="edge">
<title>pages_publish&#45;&gt;elasticsearch</title>
<path fill="none" stroke="#8fbc8f" d="M719.7268,-269.1825C739.3169,-241.2976 777.3161,-187.2087 799.9568,-154.9814"/>
<polygon fill="#8fbc8f" stroke="#8fbc8f" points="803.0226,-156.7059 805.9073,-146.5113 797.2948,-152.6819 803.0226,-156.7059"/>
</g>
<!-- pages_publish&#45;&gt;ldap -->
<g id="edge23" class="edge">
<title>pages_publish&#45;&gt;ldap</title>
<path fill="none" stroke="#8fbc8f" d="M745.8636,-274.3734C753.8356,-272.2183 762.2334,-270.2687 770.2095,-269 782.0138,-267.1223 976.9163,-269.6075 985.2095,-261 1033.9322,-210.4306 1019.8663,-164.0743 985.2095,-103 976.0449,-86.8496 958.7103,-75.7641 942.8058,-68.5293"/>
<polygon fill="#8fbc8f" stroke="#8fbc8f" points="943.7504,-65.131 933.1737,-64.5114 941.0554,-71.5915 943.7504,-65.131"/>
</g>
<!-- media_publish&#45;&gt;elasticsearch -->
<g id="edge24" class="edge">
<title>media_publish&#45;&gt;elasticsearch</title>
<path fill="none" stroke="#bf3eff" d="M605.9608,-206.9037C659.3282,-201.2192 736.9951,-191.0776 764.2095,-178 776.3329,-172.1742 787.6949,-162.7437 796.8391,-153.7041"/>
<polygon fill="#bf3eff" stroke="#bf3eff" points="799.559,-155.9251 803.9666,-146.2906 794.5128,-151.0736 799.559,-155.9251"/>
</g>
<!-- media_publish&#45;&gt;jms -->
<g id="edge25" class="edge">
<title>media_publish&#45;&gt;jms</title>
<path fill="none" stroke="#bf3eff" d="M568.7856,-194.8023C580.7986,-182.3388 597.1637,-165.36 610.2613,-151.7713"/>
<polygon fill="#bf3eff" stroke="#bf3eff" points="613.118,-153.8509 617.5377,-144.222 608.0779,-148.9931 613.118,-153.8509"/>
</g>
<!-- sso&#45;&gt;ldap -->
<g id="edge30" class="edge">
<title>sso&#45;&gt;ldap</title>
<path fill="none" stroke="#c0c0c0" d="M908.2095,-110.8314C908.2095,-103.131 908.2095,-93.9743 908.2095,-85.4166"/>
<polygon fill="#c0c0c0" stroke="#c0c0c0" points="911.7096,-85.4132 908.2095,-75.4133 904.7096,-85.4133 911.7096,-85.4132"/>
</g>
<!-- magnolia_frontend -->
<g id="node11" class="node">
<title>magnolia_frontend</title>
<ellipse fill="none" stroke="#000000" cx="845.2095" cy="-370" rx="62.2891" ry="18"/>
<text text-anchor="middle" x="845.2095" y="-366.3" font-family="Times,serif" font-size="14.00" fill="#000000">magnolia_frontend</text>
</g>
<!-- magnolia_frontend&#45;&gt;api -->
<g id="edge29" class="edge">
<title>magnolia_frontend&#45;&gt;api</title>
<path fill="none" stroke="#c0c0c0" d="M844.7755,-351.9902C844.5178,-341.2963 844.1854,-327.4994 843.8931,-315.3706"/>
<polygon fill="#c0c0c0" stroke="#c0c0c0" points="847.3895,-315.174 843.6495,-305.2612 840.3915,-315.3427 847.3895,-315.174"/>
</g>
<!-- magnolia_backend -->
<g id="node12" class="node">
<title>magnolia_backend</title>
<ellipse fill="none" stroke="#000000" cx="702.2095" cy="-370" rx="62.2891" ry="18"/>
<text text-anchor="middle" x="702.2095" y="-366.3" font-family="Times,serif" font-size="14.00" fill="#000000">magnolia_backend</text>
</g>
<!-- magnolia_backend&#45;&gt;poms_backend -->
<g id="edge27" class="edge">
<title>magnolia_backend&#45;&gt;poms_backend</title>
<path fill="none" stroke="#c0c0c0" d="M648.7188,-360.5867C623.6433,-355.1353 593.7369,-347.1125 568.2095,-336 552.387,-329.1122 536.1402,-319.1053 522.7507,-309.9278"/>
<polygon fill="#c0c0c0" stroke="#c0c0c0" points="524.5919,-306.9438 514.3977,-304.0577 520.5671,-312.6711 524.5919,-306.9438"/>
</g>
<!-- magnolia_backend&#45;&gt;pages_publish -->
<g id="edge28" class="edge">
<title>magnolia_backend&#45;&gt;pages_publish</title>
<path fill="none" stroke="#c0c0c0" d="M703.2944,-351.9902C703.9386,-341.2963 704.7698,-327.4994 705.5004,-315.3706"/>
<polygon fill="#c0c0c0" stroke="#c0c0c0" points="709.0017,-315.4536 706.1094,-305.2612 702.0144,-315.0326 709.0017,-315.4536"/>
</g>
<!-- users -->
<g id="node13" class="node">
<title>users</title>
<ellipse fill="none" stroke="#000000" cx="871.2095" cy="-442" rx="27" ry="18"/>
<text text-anchor="middle" x="871.2095" y="-438.3" font-family="Times,serif" font-size="14.00" fill="#000000">users</text>
</g>
<!-- users&#45;&gt;api -->
<g id="edge4" class="edge">
<title>users&#45;&gt;api</title>
<path fill="none" stroke="#c0c0c0" d="M850.3229,-430.2887C845.4733,-427.9297 840.252,-425.6663 835.2095,-424 747.7914,-395.112 690.3845,-458.532 631.2095,-388 618.6405,-373.0187 617.7848,-358.2196 631.2095,-344 641.8295,-332.7512 755.546,-340.9298 770.2095,-336 786.588,-330.4936 802.7558,-320.2756 815.6966,-310.5896"/>
<polygon fill="#c0c0c0" stroke="#c0c0c0" points="817.9632,-313.2607 823.7043,-304.3563 813.6633,-307.737 817.9632,-313.2607"/>
</g>
<!-- users&#45;&gt;magnolia_frontend -->
<g id="edge5" class="edge">
<title>users&#45;&gt;magnolia_frontend</title>
<path fill="none" stroke="#c0c0c0" d="M864.7825,-424.2022C861.8981,-416.2146 858.4278,-406.6045 855.2154,-397.7087"/>
<polygon fill="#c0c0c0" stroke="#c0c0c0" points="858.4316,-396.3099 851.7431,-388.0931 851.8477,-398.6874 858.4316,-396.3099"/>
</g>
<!-- backendsystems -->
<g id="node14" class="node">
<title>backendsystems</title>
<ellipse fill="none" stroke="#000000" cx="695.2095" cy="-442" rx="55.4913" ry="18"/>
<text text-anchor="middle" x="695.2095" y="-438.3" font-family="Times,serif" font-size="14.00" fill="#000000">backendsystems</text>
</g>
<!-- backendsystems&#45;&gt;poms_backend -->
<g id="edge6" class="edge">
<title>backendsystems&#45;&gt;poms_backend</title>
<path fill="none" stroke="#c0c0c0" d="M659.1307,-428.3069C636.6844,-418.845 607.8796,-404.9311 585.2095,-388 556.2519,-366.3731 528.9713,-334.9327 511.54,-312.8909"/>
<polygon fill="#c0c0c0" stroke="#c0c0c0" points="514.2607,-310.6882 505.3585,-304.9435 508.7353,-314.9858 514.2607,-310.6882"/>
</g>
<!-- backendsystems&#45;&gt;pages_publish -->
<g id="edge7" class="edge">
<title>backendsystems&#45;&gt;pages_publish</title>
<path fill="none" stroke="#c0c0c0" d="M653.597,-429.9679C633.0848,-421.7019 610.223,-408.4376 598.2095,-388 588.2997,-371.1413 585.6219,-358.9657 598.2095,-344 611.5668,-328.1192 625.2332,-344.3974 644.2095,-336 657.9418,-329.9232 671.3379,-320.2099 682.2214,-311.0281"/>
<polygon fill="#c0c0c0" stroke="#c0c0c0" points="684.8149,-313.4085 690.0182,-304.1793 680.1952,-308.1493 684.8149,-313.4085"/>
</g>
<!-- editors -->
<g id="node15" class="node">
<title>editors</title>
<ellipse fill="none" stroke="#000000" cx="797.2095" cy="-442" rx="29.4969" ry="18"/>
<text text-anchor="middle" x="797.2095" y="-438.3" font-family="Times,serif" font-size="14.00" fill="#000000">editors</text>
</g>
<!-- editors&#45;&gt;poms -->
<g id="edge1" class="edge">
<title>editors&#45;&gt;poms</title>
<path fill="none" stroke="#c0c0c0" d="M774.6068,-430.4153C769.6121,-428.1041 764.2925,-425.8286 759.2095,-424 697.9456,-401.9604 659.9196,-437.1413 617.2095,-388 600.0289,-368.2324 599.0778,-337.4175 601.3093,-315.0207"/>
<polygon fill="#c0c0c0" stroke="#c0c0c0" points="604.7829,-315.4489 602.5571,-305.0905 597.8375,-314.576 604.7829,-315.4489"/>
</g>
<!-- editors&#45;&gt;sso -->
<g id="edge2" class="edge">
<title>editors&#45;&gt;sso</title>
<path fill="none" stroke="#c0c0c0" d="M820.4796,-430.8685C825.337,-428.5755 830.4327,-426.1925 835.2095,-424 871.0137,-407.5665 893.7996,-420.4006 916.2095,-388 965.2887,-317.0405 936.3407,-207.0376 918.7307,-156.3178"/>
<polygon fill="#c0c0c0" stroke="#c0c0c0" points="921.9549,-154.9403 915.2817,-146.7112 915.3667,-157.3057 921.9549,-154.9403"/>
</g>
<!-- editors&#45;&gt;magnolia_backend -->
<g id="edge3" class="edge">
<title>editors&#45;&gt;magnolia_backend</title>
<path fill="none" stroke="#c0c0c0" d="M778.4406,-427.7751C765.3918,-417.8855 747.7095,-404.4842 732.6599,-393.0782"/>
<polygon fill="#c0c0c0" stroke="#c0c0c0" points="734.6998,-390.2326 724.616,-386.9818 730.4717,-395.8114 734.6998,-390.2326"/>
</g>
<!-- pd&#45;&gt;metis -->
<g id="edge32" class="edge">
<title>pd&#45;&gt;metis</title>
<path fill="none" stroke="#c0c0c0" d="M244.7522,-196.3883C255.4446,-184.0623 270.5378,-166.6632 282.7094,-152.6321"/>
<polygon fill="#c0c0c0" stroke="#c0c0c0" points="285.5738,-154.6713 289.4828,-144.8239 280.2861,-150.0843 285.5738,-154.6713"/>
</g>
<!-- prepr&#45;&gt;metis -->
<g id="edge31" class="edge">
<title>prepr&#45;&gt;metis</title>
<path fill="none" stroke="#c0c0c0" d="M177.1837,-198.266C182.8391,-194.1509 189.1834,-189.7408 195.2095,-186 220.3147,-170.4154 250.0957,-154.9051 272.0199,-144.0076"/>
<polygon fill="#c0c0c0" stroke="#c0c0c0" points="273.7721,-147.0461 281.1962,-139.4874 270.6789,-140.7666 273.7721,-147.0461"/>
</g>
</g>
</svg>
