<?xml version="1.0" encoding="UTF-8" standalone="no"?>
<!DOCTYPE svg PUBLIC "-//W3C//DTD SVG 1.1//EN"
 "http://www.w3.org/Graphics/SVG/1.1/DTD/svg11.dtd">
<!-- Generated by graphviz version 2.40.1 (20161225.0304)
 -->
<!-- Title: %3 Pages: 1 -->
<svg width="1178pt" height="598pt"
 viewBox="0.00 0.00 1178.00 598.00" xmlns="http://www.w3.org/2000/svg" xmlns:xlink="http://www.w3.org/1999/xlink">
<g id="graph0" class="graph" transform="scale(1 1) rotate(0) translate(4 594)">
<title>%3</title>
<polygon fill="#ffffff" stroke="transparent" points="-4,4 -4,-594 1174,-594 1174,4 -4,4"/>
<text text-anchor="middle" x="585" y="-7.8" font-family="Times,serif" font-size="14.00" fill="#000000"> &#160;Dependencies of the different code projects relevant to POMS</text>
<g id="clust1" class="cluster">
<title>cluster_0</title>
<polygon fill="none" stroke="#000000" points="634,-47 634,-137 1104,-137 1104,-47 634,-47"/>
<text text-anchor="middle" x="869" y="-121.8" font-family="Times,serif" font-size="14.00" fill="#000000">Generic utilities</text>
<text text-anchor="middle" x="869" y="-106.8" font-family="Times,serif" font-size="14.00" fill="#000000">(incoming edges are just examples, there are more)</text>
</g>
<g id="clust2" class="cluster">
<title>cluster_1</title>
<polygon fill="none" stroke="#000000" points="8,-507 8,-582 178,-582 178,-507 8,-507"/>
<text text-anchor="middle" x="93" y="-566.8" font-family="Times,serif" font-size="14.00" fill="#000000">VPRO</text>
</g>
<g id="clust3" class="cluster">
<title>cluster_2</title>
<polygon fill="none" stroke="#000000" points="510,-340 510,-582 1162,-582 1162,-340 510,-340"/>
<text text-anchor="middle" x="836" y="-566.8" font-family="Times,serif" font-size="14.00" fill="#000000">POMS Services</text>
</g>
<g id="clust4" class="cluster">
<title>cluster_4</title>
<polygon fill="none" stroke="#000000" points="148,-156 148,-488 278,-488 278,-156 148,-156"/>
<text text-anchor="middle" x="213" y="-472.8" font-family="Times,serif" font-size="14.00" fill="#000000">Sharable utilities</text>
</g>
<!-- vpro_shared -->
<g id="node1" class="node">
<title>vpro_shared</title>
<g id="a_node1"><a xlink:href="https://github.com/vpro/vpro-shared" xlink:title="vpro_shared">
<ellipse fill="none" stroke="#000000" cx="226" cy="-182" rx="44.393" ry="18"/>
<text text-anchor="middle" x="226" y="-178.3" font-family="Times,serif" font-size="14.00" fill="#0000ff">vpro_shared</text>
</a>
</g>
</g>
<!-- slf4j -->
<g id="node11" class="node">
<title>slf4j</title>
<ellipse fill="none" stroke="#000000" cx="741" cy="-73" rx="27" ry="18"/>
<text text-anchor="middle" x="741" y="-69.3" font-family="Times,serif" font-size="14.00" fill="#000000">slf4j</text>
</g>
<!-- vpro_shared&#45;&gt;slf4j -->
<g id="edge1" class="edge">
<title>vpro_shared&#45;&gt;slf4j</title>
<path fill="none" stroke="#c0c0c0" d="M267.8079,-175.5628C324.2277,-167.1331 427.941,-152.5433 517,-145 537.8332,-143.2354 687.1807,-147.9366 705,-137 718.3768,-128.79 727.2136,-113.6742 732.7832,-100.1939"/>
<polygon fill="#c0c0c0" stroke="#c0c0c0" points="736.0754,-101.3822 736.2795,-90.7893 729.5142,-98.9429 736.0754,-101.3822"/>
</g>
<!-- guava -->
<g id="node12" class="node">
<title>guava</title>
<ellipse fill="none" stroke="#000000" cx="669" cy="-73" rx="27.0966" ry="18"/>
<text text-anchor="middle" x="669" y="-69.3" font-family="Times,serif" font-size="14.00" fill="#000000">guava</text>
</g>
<!-- vpro_shared&#45;&gt;guava -->
<g id="edge2" class="edge">
<title>vpro_shared&#45;&gt;guava</title>
<path fill="none" stroke="#c0c0c0" d="M264.1533,-172.6124C348.7858,-151.7886 551.2388,-101.9751 633.4214,-81.7541"/>
<polygon fill="#c0c0c0" stroke="#c0c0c0" points="634.4135,-85.1145 643.2876,-79.3265 632.741,-78.3172 634.4135,-85.1145"/>
</g>
<!-- poms_shared -->
<g id="node2" class="node">
<title>poms_shared</title>
<g id="a_node2"><a xlink:href="https://github.com/npo-poms/poms-shared" xlink:title="poms_shared">
<ellipse fill="none" stroke="#000000" cx="223" cy="-293" rx="46.5926" ry="18"/>
<text text-anchor="middle" x="223" y="-289.3" font-family="Times,serif" font-size="14.00" fill="#0000ff">poms_shared</text>
</a>
</g>
</g>
<!-- poms_shared&#45;&gt;vpro_shared -->
<g id="edge3" class="edge">
<title>poms_shared&#45;&gt;vpro_shared</title>
<path fill="none" stroke="#c0c0c0" d="M223.4954,-274.6706C223.9666,-257.2373 224.6825,-230.7482 225.2284,-210.5489"/>
<polygon fill="#c0c0c0" stroke="#c0c0c0" points="228.7323,-210.4476 225.5039,-200.3566 221.7349,-210.2584 228.7323,-210.4476"/>
</g>
<!-- api_client -->
<g id="node3" class="node">
<title>api_client</title>
<g id="a_node3"><a xlink:href="https://github.com/npo-poms/api-clients" xlink:title="api_client">
<ellipse fill="none" stroke="#000000" cx="194" cy="-439" rx="37.8943" ry="18"/>
<text text-anchor="middle" x="194" y="-435.3" font-family="Times,serif" font-size="14.00" fill="#0000ff">api_client</text>
</a>
</g>
</g>
<!-- api_client&#45;&gt;vpro_shared -->
<g id="edge16" class="edge">
<title>api_client&#45;&gt;vpro_shared</title>
<path fill="none" stroke="#c0c0c0" d="M179.8007,-422.213C169.3665,-408.1416 157,-387.0287 157,-366 157,-366 157,-366 157,-237.5 157,-220.6949 169.5808,-208.1221 183.9984,-199.2313"/>
<polygon fill="#c0c0c0" stroke="#c0c0c0" points="186.0743,-202.0819 193.1167,-194.1663 182.6752,-195.9626 186.0743,-202.0819"/>
</g>
<!-- api_client&#45;&gt;poms_shared -->
<g id="edge17" class="edge">
<title>api_client&#45;&gt;poms_shared</title>
<path fill="none" stroke="#c0c0c0" d="M194.1513,-420.7403C194.7516,-398.6257 197.1344,-360.4315 206,-329 206.8361,-326.0356 207.8963,-323.0124 209.0772,-320.0407"/>
<polygon fill="#c0c0c0" stroke="#c0c0c0" points="212.2941,-321.42 213.134,-310.8585 205.8912,-318.5911 212.2941,-321.42"/>
</g>
<!-- poms_backend -->
<g id="node4" class="node">
<title>poms_backend</title>
<g id="a_node4"><a xlink:href="https://subversion.vpro.nl/viewvc/nl/vpro/media" xlink:title="POMS &#160;&amp; POMS Backend API">
<ellipse fill="none" stroke="#cd950c" cx="859" cy="-533" rx="96.6831" ry="18"/>
<text text-anchor="middle" x="859" y="-529.3" font-family="Times,serif" font-size="14.00" fill="#0000ff">POMS &#160;&amp; POMS Backend API</text>
</a>
</g>
</g>
<!-- poms_backend&#45;&gt;vpro_shared -->
<g id="edge28" class="edge">
<title>poms_backend&#45;&gt;vpro_shared</title>
<path fill="none" stroke="#cd950c" d="M875.6993,-515.1177C890.5731,-497.2664 910,-468.3353 910,-439 910,-439 910,-439 910,-329.5 910,-274.9396 850.7829,-294.9482 800,-275 742.382,-252.3668 726.3113,-250.9516 666,-237 529.0206,-205.313 363.547,-190.8452 279.9511,-185.1551"/>
<polygon fill="#cd950c" stroke="#cd950c" points="280.1366,-181.6598 269.9263,-184.4883 279.6719,-188.6444 280.1366,-181.6598"/>
</g>
<!-- poms_backend&#45;&gt;poms_shared -->
<g id="edge29" class="edge">
<title>poms_backend&#45;&gt;poms_shared</title>
<path fill="none" stroke="#cd950c" d="M806.3006,-517.8353C789.4154,-513.5812 770.5461,-509.452 753,-507 738.1892,-504.9303 495.719,-506.2904 484,-497 427.3064,-452.0555 493.5444,-389.7319 441,-340 418.0359,-318.2651 335.633,-305.1325 278.986,-298.4729"/>
<polygon fill="#cd950c" stroke="#cd950c" points="279.0607,-294.9589 268.7287,-297.3042 278.2681,-301.9139 279.0607,-294.9589"/>
</g>
<!-- poms_gui -->
<g id="node5" class="node">
<title>poms_gui</title>
<g id="a_node5"><a xlink:href="https://subversion.vpro.nl/viewvc/nl/vpro/media-gui" xlink:title="Angular GUI for POMS">
<ellipse fill="none" stroke="#000000" cx="729" cy="-366" rx="76.8869" ry="18"/>
<text text-anchor="middle" x="729" y="-362.3" font-family="Times,serif" font-size="14.00" fill="#0000ff">Angular GUI for POMS</text>
</a>
</g>
</g>
<!-- poms_backend&#45;&gt;poms_gui -->
<g id="edge30" class="edge">
<title>poms_backend&#45;&gt;poms_gui</title>
<path fill="none" stroke="#cd950c" d="M845.0877,-515.1281C822.0212,-485.4964 775.7669,-426.0775 749.1344,-391.865"/>
<polygon fill="#cd950c" stroke="#cd950c" points="751.7168,-389.4845 742.8122,-383.7434 746.1931,-393.7844 751.7168,-389.4845"/>
</g>
<!-- resteasy -->
<g id="node13" class="node">
<title>resteasy</title>
<ellipse fill="none" stroke="#000000" cx="899" cy="-73" rx="32.4942" ry="18"/>
<text text-anchor="middle" x="899" y="-69.3" font-family="Times,serif" font-size="14.00" fill="#000000">resteasy</text>
</g>
<!-- poms_backend&#45;&gt;resteasy -->
<g id="edge31" class="edge">
<title>poms_backend&#45;&gt;resteasy</title>
<path fill="none" stroke="#cd950c" d="M891.131,-515.9771C916.624,-499.8938 948,-473.1601 948,-439 948,-439 948,-439 948,-182 948,-151.1376 931.4564,-119.3396 917.5947,-98.1132"/>
<polygon fill="#cd950c" stroke="#cd950c" points="920.3903,-95.9999 911.8742,-89.697 914.6009,-99.9349 920.3903,-95.9999"/>
</g>
<!-- spring -->
<g id="node14" class="node">
<title>spring</title>
<ellipse fill="none" stroke="#000000" cx="1068" cy="-73" rx="27.8951" ry="18"/>
<text text-anchor="middle" x="1068" y="-69.3" font-family="Times,serif" font-size="14.00" fill="#000000">spring</text>
</g>
<!-- poms_backend&#45;&gt;spring -->
<g id="edge32" class="edge">
<title>poms_backend&#45;&gt;spring</title>
<path fill="none" stroke="#cd950c" d="M922.0967,-519.2901C944.1155,-512.4055 968.0389,-502.3698 987,-488 1008.7489,-471.5174 1024,-466.289 1024,-439 1024,-439 1024,-439 1024,-256.5 1024,-199.698 1044.1834,-135.6642 1057.2104,-100.2504"/>
<polygon fill="#cd950c" stroke="#cd950c" points="1060.5829,-101.2261 1060.8327,-90.6342 1054.0323,-98.7585 1060.5829,-101.2261"/>
</g>
<!-- hibernate -->
<g id="node15" class="node">
<title>hibernate</title>
<ellipse fill="none" stroke="#000000" cx="986" cy="-73" rx="36.2938" ry="18"/>
<text text-anchor="middle" x="986" y="-69.3" font-family="Times,serif" font-size="14.00" fill="#000000">hibernate</text>
</g>
<!-- poms_backend&#45;&gt;hibernate -->
<g id="edge33" class="edge">
<title>poms_backend&#45;&gt;hibernate</title>
<path fill="none" stroke="#cd950c" d="M910.2897,-517.5956C945.5369,-503.4775 986,-478.6379 986,-439 986,-439 986,-439 986,-182 986,-154.6413 986,-123.42 986,-101.4245"/>
<polygon fill="#cd950c" stroke="#cd950c" points="989.5001,-101.1292 986,-91.1292 982.5001,-101.1292 989.5001,-101.1292"/>
</g>
<!-- angular -->
<g id="node16" class="node">
<title>angular</title>
<ellipse fill="none" stroke="#000000" cx="817" cy="-73" rx="31.3957" ry="18"/>
<text text-anchor="middle" x="817" y="-69.3" font-family="Times,serif" font-size="14.00" fill="#000000">angular</text>
</g>
<!-- poms_gui&#45;&gt;angular -->
<g id="edge34" class="edge">
<title>poms_gui&#45;&gt;angular</title>
<path fill="none" stroke="#c0c0c0" d="M734.5048,-347.6715C749.4488,-297.9149 790.8461,-160.0806 808.6657,-100.7494"/>
<polygon fill="#c0c0c0" stroke="#c0c0c0" points="812.0852,-101.5316 811.6096,-90.9474 805.381,-99.518 812.0852,-101.5316"/>
</g>
<!-- poms_shared_backend -->
<g id="node6" class="node">
<title>poms_shared_backend</title>
<g id="a_node6"><a xlink:href="https://subversion.vpro.nl/viewvc/nl/publiekeomroep/poms-shared-backend/" xlink:title="poms_shared_backend">
<ellipse fill="none" stroke="#00cdcd" cx="359" cy="-366" rx="72.5877" ry="18"/>
<text text-anchor="middle" x="359" y="-362.3" font-family="Times,serif" font-size="14.00" fill="#0000ff">poms_shared_backend</text>
</a>
</g>
</g>
<!-- poms_shared_backend&#45;&gt;vpro_shared -->
<g id="edge4" class="edge">
<title>poms_shared_backend&#45;&gt;vpro_shared</title>
<path fill="none" stroke="#00cdcd" d="M346.0052,-348.0223C322.3448,-315.2891 272.1566,-245.8557 244.7769,-207.9771"/>
<polygon fill="#00cdcd" stroke="#00cdcd" points="247.3518,-205.5647 238.6571,-199.5106 241.6787,-209.6654 247.3518,-205.5647"/>
</g>
<!-- poms_shared_backend&#45;&gt;poms_shared -->
<g id="edge5" class="edge">
<title>poms_shared_backend&#45;&gt;poms_shared</title>
<path fill="none" stroke="#00cdcd" d="M328.4789,-349.6174C308.0583,-338.6563 281.0798,-324.1752 259.5194,-312.6023"/>
<polygon fill="#00cdcd" stroke="#00cdcd" points="261.1121,-309.4849 250.6458,-307.8393 257.8015,-315.6526 261.1121,-309.4849"/>
</g>
<!-- poms_shared_backend&#45;&gt;slf4j -->
<g id="edge6" class="edge">
<title>poms_shared_backend&#45;&gt;slf4j</title>
<path fill="none" stroke="#00cdcd" d="M413.4219,-353.8506C463.8125,-340.9792 531,-318.9514 531,-293 531,-293 531,-293 531,-182 531,-102.1223 641.6893,-185.7052 705,-137 717.0777,-127.7085 725.7253,-113.141 731.5128,-100.2499"/>
<polygon fill="#00cdcd" stroke="#00cdcd" points="734.8188,-101.4135 735.3905,-90.8341 728.3462,-98.7478 734.8188,-101.4135"/>
</g>
<!-- api -->
<g id="node7" class="node">
<title>api</title>
<g id="a_node7"><a xlink:href="https://subversion.vpro.nl/viewvc/nl/vpro/api/" xlink:title="Frontend API">
<ellipse fill="none" stroke="#6495ed" cx="696" cy="-533" rx="48.1917" ry="18"/>
<text text-anchor="middle" x="696" y="-529.3" font-family="Times,serif" font-size="14.00" fill="#0000ff">Frontend API</text>
</a>
</g>
</g>
<!-- api&#45;&gt;vpro_shared -->
<g id="edge7" class="edge">
<title>api&#45;&gt;vpro_shared</title>
<path fill="none" stroke="#6495ed" d="M716.0276,-516.2708C744.4703,-491.0552 795.2983,-440.239 815,-384 832.6215,-333.6991 810.6324,-302.5386 765,-275 683.5324,-225.8353 399.292,-196.6525 279.6866,-186.2966"/>
<polygon fill="#6495ed" stroke="#6495ed" points="279.9191,-182.8038 269.6573,-185.439 279.3227,-189.7783 279.9191,-182.8038"/>
</g>
<!-- api&#45;&gt;poms_shared -->
<g id="edge8" class="edge">
<title>api&#45;&gt;poms_shared</title>
<path fill="none" stroke="#6495ed" d="M668.6343,-517.989C659.4763,-513.6598 649.0387,-509.4482 639,-507 585.3012,-493.9042 440.5559,-512.48 391,-488 383.3138,-484.2031 282.4132,-390.6477 277,-384 260.7257,-364.0143 246.0707,-338.6032 236.148,-319.7158"/>
<polygon fill="#6495ed" stroke="#6495ed" points="239.2267,-318.0494 231.5389,-310.7591 233.0025,-321.2523 239.2267,-318.0494"/>
</g>
<!-- api&#45;&gt;poms_shared_backend -->
<g id="edge9" class="edge">
<title>api&#45;&gt;poms_shared_backend</title>
<path fill="none" stroke="#6495ed" d="M668.6324,-517.9967C659.4742,-513.6681 649.0371,-509.4547 639,-507 597.2831,-496.7975 483.3089,-518.2707 446,-497 443.3102,-495.4665 400.7247,-430.2926 376.1512,-392.4655"/>
<polygon fill="#6495ed" stroke="#6495ed" points="378.9988,-390.424 370.6182,-383.942 373.1274,-394.2355 378.9988,-390.424"/>
</g>
<!-- api&#45;&gt;resteasy -->
<g id="edge10" class="edge">
<title>api&#45;&gt;resteasy</title>
<path fill="none" stroke="#6495ed" d="M725.856,-518.7359C776.0696,-494.5193 872,-447.1838 872,-439 872,-439 872,-439 872,-329.5 872,-246.0017 886.3259,-148.05 894.1073,-101.0045"/>
<polygon fill="#6495ed" stroke="#6495ed" points="897.5881,-101.4105 895.7967,-90.9682 890.6853,-100.2485 897.5881,-101.4105"/>
</g>
<!-- media_publish -->
<g id="node8" class="node">
<title>media_publish</title>
<g id="a_node8"><a xlink:href="https://subversion.vpro.nl/viewvc/nl/publiekeomroep/npo-publish/" xlink:title="Media Publisher">
<ellipse fill="none" stroke="#bf3eff" cx="574" cy="-533" rx="55.7903" ry="18"/>
<text text-anchor="middle" x="574" y="-529.3" font-family="Times,serif" font-size="14.00" fill="#0000ff">Media Publisher</text>
</a>
</g>
</g>
<!-- media_publish&#45;&gt;poms_shared -->
<g id="edge13" class="edge">
<title>media_publish&#45;&gt;poms_shared</title>
<path fill="none" stroke="#bf3eff" d="M519.9415,-528.2735C459.3698,-522.0286 365.9804,-509.26 338,-488 288.391,-450.3062 272.8189,-439.239 244,-384 233.7333,-364.3213 228.4418,-339.6672 225.7403,-320.9859"/>
<polygon fill="#bf3eff" stroke="#bf3eff" points="229.2065,-320.4986 224.4608,-311.0261 222.2636,-321.3905 229.2065,-320.4986"/>
</g>
<!-- media_publish&#45;&gt;poms_shared_backend -->
<g id="edge14" class="edge">
<title>media_publish&#45;&gt;poms_shared_backend</title>
<path fill="none" stroke="#bf3eff" d="M520.4955,-527.5793C460.5472,-520.9576 370.3411,-509.1318 360,-497 335.9533,-468.7893 342.1203,-423.4011 349.7764,-394.1425"/>
<polygon fill="#bf3eff" stroke="#bf3eff" points="353.2477,-394.7302 352.6112,-384.1545 346.5137,-392.8188 353.2477,-394.7302"/>
</g>
<!-- pages_publish -->
<g id="node9" class="node">
<title>pages_publish</title>
<g id="a_node9"><a xlink:href="https://subversion.vpro.nl/viewvc/nl/publiekeomroep/npo-publish/" xlink:title="Pages Publisher">
<ellipse fill="none" stroke="#8fbc8f" cx="580" cy="-366" rx="53.8905" ry="18"/>
<text text-anchor="middle" x="580" y="-362.3" font-family="Times,serif" font-size="14.00" fill="#0000ff">Pages Publisher</text>
</a>
</g>
</g>
<!-- media_publish&#45;&gt;pages_publish -->
<g id="edge15" class="edge">
<title>media_publish&#45;&gt;pages_publish</title>
<path fill="none" stroke="#c0c0c0" d="M574.6535,-514.8102C575.8077,-482.6863 578.1937,-416.2753 579.3473,-384.1674"/>
<text text-anchor="middle" x="625.5" y="-435.3" font-family="Times,serif" font-size="14.00" fill="#000000">we plan to merge these</text>
</g>
<!-- pages_publish&#45;&gt;poms_shared -->
<g id="edge11" class="edge">
<title>pages_publish&#45;&gt;poms_shared</title>
<path fill="none" stroke="#8fbc8f" d="M555.5016,-349.7586C542.9898,-342.2353 527.2258,-333.8961 512,-329 469.9646,-315.4829 350.762,-303.6528 279.2564,-297.4997"/>
<polygon fill="#8fbc8f" stroke="#8fbc8f" points="279.3279,-293.9933 269.0673,-296.6336 278.7349,-300.9681 279.3279,-293.9933"/>
</g>
<!-- pages_publish&#45;&gt;poms_shared_backend -->
<g id="edge12" class="edge">
<title>pages_publish&#45;&gt;poms_shared_backend</title>
<path fill="none" stroke="#8fbc8f" d="M525.9261,-366C498.0261,-366 470.1261,-366 442.2262,-366"/>
<polygon fill="#8fbc8f" stroke="#8fbc8f" points="441.9473,-362.5001 431.9473,-366 441.9472,-369.5001 441.9473,-362.5001"/>
</g>
<!-- images -->
<g id="node10" class="node">
<title>images</title>
<g id="a_node10"><a xlink:href="https://subversion.vpro.nl/viewvc/nl/vpro/images/" xlink:title="Images Frontend &amp; Backend">
<ellipse fill="none" stroke="#000000" cx="1064" cy="-533" rx="89.8845" ry="18"/>
<text text-anchor="middle" x="1064" y="-529.3" font-family="Times,serif" font-size="14.00" fill="#0000ff">Images Frontend &amp; Backend</text>
</a>
</g>
</g>
<!-- images&#45;&gt;poms_shared -->
<g id="edge18" class="edge">
<title>images&#45;&gt;poms_shared</title>
<path fill="none" stroke="#000000" d="M1014.8231,-517.9225C999.055,-513.6728 981.4224,-509.5241 965,-507 921.68,-500.3417 609.49,-508.9636 571,-488 499.9469,-449.3008 528.8275,-389.7214 465,-340 454.4523,-331.7834 449.8841,-332.5727 437,-329 384.0637,-314.321 322.0052,-304.6847 278.3892,-299.1087"/>
<polygon fill="#000000" stroke="#000000" points="278.6256,-295.6111 268.269,-297.8454 277.7585,-302.5572 278.6256,-295.6111"/>
</g>
<!-- images&#45;&gt;spring -->
<g id="edge19" class="edge">
<title>images&#45;&gt;spring</title>
<path fill="none" stroke="#000000" d="M1075.3906,-515.0537C1085.9375,-496.6891 1100,-466.9605 1100,-439 1100,-439 1100,-439 1100,-182 1100,-152.9251 1089.3881,-121.1899 1080.3863,-99.5002"/>
<polygon fill="#000000" stroke="#000000" points="1083.5855,-98.0801 1076.4076,-90.2872 1077.1592,-100.8554 1083.5855,-98.0801"/>
</g>
<!-- images&#45;&gt;hibernate -->
<g id="edge20" class="edge">
<title>images&#45;&gt;hibernate</title>
<path fill="none" stroke="#000000" d="M1063.3891,-514.982C1062.8009,-496.0619 1062,-465.4435 1062,-439 1062,-439 1062,-439 1062,-256.5 1062,-196.3587 1026.7226,-132.9902 1004.2371,-98.708"/>
<polygon fill="#000000" stroke="#000000" points="1007.0299,-96.5887 998.5499,-90.2374 1001.2183,-100.4907 1007.0299,-96.5887"/>
</g>
<!-- magnolia -->
<g id="node17" class="node">
<title>magnolia</title>
<ellipse fill="none" stroke="#000000" cx="52" cy="-533" rx="36.2938" ry="18"/>
<text text-anchor="middle" x="52" y="-529.3" font-family="Times,serif" font-size="14.00" fill="#000000">magnolia</text>
</g>
<!-- magnolia&#45;&gt;vpro_shared -->
<g id="edge21" class="edge">
<title>magnolia&#45;&gt;vpro_shared</title>
<path fill="none" stroke="#8b8878" d="M40.3923,-515.8203C29.2172,-497.5839 14,-467.516 14,-439 14,-439 14,-439 14,-237.5 14,-204.8842 109.0948,-191.0619 171.9056,-185.4895"/>
<polygon fill="#8b8878" stroke="#8b8878" points="172.4023,-188.9602 182.0735,-184.6338 171.8151,-181.9849 172.4023,-188.9602"/>
</g>
<!-- magnolia&#45;&gt;poms_shared -->
<g id="edge22" class="edge">
<title>magnolia&#45;&gt;poms_shared</title>
<path fill="none" stroke="#8b8878" d="M52.7776,-514.8606C54.44,-491.777 59.6535,-451.2709 76,-421 101.7566,-373.3034 152.8352,-335.1807 187.4621,-313.3253"/>
<polygon fill="#8b8878" stroke="#8b8878" points="189.6476,-316.0896 196.3212,-307.8607 185.9726,-310.1318 189.6476,-316.0896"/>
</g>
<!-- magnolia&#45;&gt;api_client -->
<g id="edge23" class="edge">
<title>magnolia&#45;&gt;api_client</title>
<path fill="none" stroke="#8b8878" d="M73.8763,-518.5185C97.7807,-502.6945 136.2567,-477.2244 163.2054,-459.3852"/>
<polygon fill="#8b8878" stroke="#8b8878" points="165.4583,-462.0912 171.8649,-453.6528 161.5944,-456.2542 165.4583,-462.0912"/>
</g>
<!-- vpro_rs -->
<g id="node18" class="node">
<title>vpro_rs</title>
<ellipse fill="none" stroke="#000000" cx="138" cy="-533" rx="31.6951" ry="18"/>
<text text-anchor="middle" x="138" y="-529.3" font-family="Times,serif" font-size="14.00" fill="#000000">vpro_rs</text>
</g>
<!-- vpro_rs&#45;&gt;vpro_shared -->
<g id="edge24" class="edge">
<title>vpro_rs&#45;&gt;vpro_shared</title>
<path fill="none" stroke="#8b8878" d="M134.3597,-514.7591C133.3909,-509.0928 132.4808,-502.8095 132,-497 129.214,-463.3373 130.1723,-454.7283 132,-421 136.451,-338.8611 135.0876,-317.5021 152,-237 153.8207,-228.3337 152.3298,-224.8021 158,-218 164.6714,-209.9968 173.5901,-203.5285 182.7674,-198.4027"/>
<polygon fill="#8b8878" stroke="#8b8878" points="184.6381,-201.3777 191.9573,-193.7174 181.4586,-195.1414 184.6381,-201.3777"/>
</g>
<!-- vpro_rs&#45;&gt;poms_shared -->
<g id="edge25" class="edge">
<title>vpro_rs&#45;&gt;poms_shared</title>
<path fill="none" stroke="#8b8878" d="M136.5561,-514.743C135.2218,-488.5839 135.4872,-439.4642 152,-402 165.4495,-371.4857 187.0043,-339.9097 202.84,-318.6482"/>
<polygon fill="#8b8878" stroke="#8b8878" points="205.7799,-320.5634 209.0236,-310.4773 200.1981,-316.3392 205.7799,-320.5634"/>
</g>
<!-- vpro_rs&#45;&gt;api_client -->
<g id="edge26" class="edge">
<title>vpro_rs&#45;&gt;api_client</title>
<path fill="none" stroke="#8b8878" d="M148.2713,-515.759C156.665,-501.6695 168.6695,-481.519 178.2729,-465.3991"/>
<polygon fill="#8b8878" stroke="#8b8878" points="181.493,-466.8324 183.6042,-456.4501 175.4792,-463.2498 181.493,-466.8324"/>
</g>
<!-- vpro_rs&#45;&gt;poms_shared_backend -->
<g id="edge27" class="edge">
<title>vpro_rs&#45;&gt;poms_shared_backend</title>
<path fill="none" stroke="#8b8878" d="M169.5452,-529.5362C200.8304,-524.7328 248.7738,-513.5396 282,-488 298.9893,-474.941 327.6674,-424.8353 344.8188,-393.0407"/>
<polygon fill="#8b8878" stroke="#8b8878" points="347.9098,-394.6826 349.5387,-384.2137 341.7369,-391.3818 347.9098,-394.6826"/>
</g>
</g>
</svg>
