<?xml version="1.0" encoding="UTF-8" standalone="no"?>
<!DOCTYPE svg PUBLIC "-//W3C//DTD SVG 1.1//EN"
 "http://www.w3.org/Graphics/SVG/1.1/DTD/svg11.dtd">
<!-- Generated by graphviz version 2.40.1 (20161225.0304)
 -->
<!-- Title: %3 Pages: 1 -->
<svg width="864pt" height="567pt"
 viewBox="0.00 0.00 863.79 567.00" xmlns="http://www.w3.org/2000/svg" xmlns:xlink="http://www.w3.org/1999/xlink">
<g id="graph0" class="graph" transform="scale(1 1) rotate(0) translate(4 563)">
<title>%3</title>
<polygon fill="#ffffff" stroke="transparent" points="-4,4 -4,-563 859.7935,-563 859.7935,4 -4,4"/>
<text text-anchor="middle" x="427.8968" y="-7.8" font-family="Times,serif" font-size="14.00" fill="#000000">Dependencies of the different code projects relevant to POMS</text>
<g id="clust1" class="cluster">
<title>cluster_0</title>
<polygon fill="none" stroke="#000000" points="593.7935,-31 593.7935,-106 818.7935,-106 818.7935,-31 593.7935,-31"/>
<text text-anchor="middle" x="706.2935" y="-90.8" font-family="Times,serif" font-size="14.00" fill="#000000">Generic utilities</text>
</g>
<g id="clust2" class="cluster">
<title>cluster_1</title>
<polygon fill="none" stroke="#000000" points="759.7935,-476 759.7935,-551 847.7935,-551 847.7935,-476 759.7935,-476"/>
<text text-anchor="middle" x="803.7935" y="-535.8" font-family="Times,serif" font-size="14.00" fill="#000000">VPRO</text>
</g>
<g id="clust3" class="cluster">
<title>cluster_2</title>
<polygon fill="none" stroke="#000000" points="153.7935,-309 153.7935,-551 581.7935,-551 581.7935,-309 153.7935,-309"/>
<text text-anchor="middle" x="367.7935" y="-535.8" font-family="Times,serif" font-size="14.00" fill="#000000">POMS Services</text>
</g>
<g id="clust4" class="cluster">
<title>cluster_4</title>
<polygon fill="none" stroke="#000000" points="589.7935,-125 589.7935,-457 719.7935,-457 719.7935,-125 589.7935,-125"/>
<text text-anchor="middle" x="654.7935" y="-441.8" font-family="Times,serif" font-size="14.00" fill="#000000">Sharable utilities</text>
</g>
<!-- slf4j -->
<g id="node1" class="node">
<title>slf4j</title>
<ellipse fill="none" stroke="#000000" cx="628.7935" cy="-57" rx="27" ry="18"/>
<text text-anchor="middle" x="628.7935" y="-53.3" font-family="Times,serif" font-size="14.00" fill="#000000">slf4j</text>
</g>
<!-- guava -->
<g id="node2" class="node">
<title>guava</title>
<ellipse fill="none" stroke="#000000" cx="700.7935" cy="-57" rx="27.0966" ry="18"/>
<text text-anchor="middle" x="700.7935" y="-53.3" font-family="Times,serif" font-size="14.00" fill="#000000">guava</text>
</g>
<!-- resteasy -->
<g id="node3" class="node">
<title>resteasy</title>
<ellipse fill="none" stroke="#000000" cx="778.7935" cy="-57" rx="32.4942" ry="18"/>
<text text-anchor="middle" x="778.7935" y="-53.3" font-family="Times,serif" font-size="14.00" fill="#000000">resteasy</text>
</g>
<!-- magnolia -->
<g id="node4" class="node">
<title>magnolia</title>
<ellipse fill="none" stroke="#000000" cx="803.7935" cy="-502" rx="36.2938" ry="18"/>
<text text-anchor="middle" x="803.7935" y="-498.3" font-family="Times,serif" font-size="14.00" fill="#000000">magnolia</text>
</g>
<!-- api_client -->
<g id="node10" class="node">
<title>api_client</title>
<ellipse fill="none" stroke="#000000" cx="661.7935" cy="-408" rx="37.8943" ry="18"/>
<text text-anchor="middle" x="661.7935" y="-404.3" font-family="Times,serif" font-size="14.00" fill="#000000">api_client</text>
</g>
<!-- magnolia&#45;&gt;api_client -->
<g id="edge19" class="edge">
<title>magnolia&#45;&gt;api_client</title>
<path fill="none" stroke="#000000" d="M781.9172,-487.5185C758.0128,-471.6945 719.5368,-446.2244 692.5882,-428.3852"/>
<polygon fill="#000000" stroke="#000000" points="694.1992,-425.2542 683.9287,-422.6528 690.3352,-431.0912 694.1992,-425.2542"/>
</g>
<!-- vpro_shared -->
<g id="node11" class="node">
<title>vpro_shared</title>
<ellipse fill="none" stroke="#000000" cx="667.7935" cy="-151" rx="44.393" ry="18"/>
<text text-anchor="middle" x="667.7935" y="-147.3" font-family="Times,serif" font-size="14.00" fill="#000000">vpro_shared</text>
</g>
<!-- magnolia&#45;&gt;vpro_shared -->
<g id="edge20" class="edge">
<title>magnolia&#45;&gt;vpro_shared</title>
<path fill="none" stroke="#000000" d="M811.6701,-484.2377C813.6275,-478.2359 815.0982,-471.4262 814.7935,-465 810.1216,-366.446 842.3763,-329.8745 793.7935,-244 774.3444,-209.6218 736.392,-184.312 707.2007,-168.8495"/>
<polygon fill="#000000" stroke="#000000" points="708.5621,-165.6146 698.0654,-164.1762 705.3741,-171.8465 708.5621,-165.6146"/>
</g>
<!-- poms_shared -->
<g id="node12" class="node">
<title>poms_shared</title>
<ellipse fill="none" stroke="#000000" cx="644.7935" cy="-262" rx="46.5926" ry="18"/>
<text text-anchor="middle" x="644.7935" y="-258.3" font-family="Times,serif" font-size="14.00" fill="#000000">poms_shared</text>
</g>
<!-- magnolia&#45;&gt;poms_shared -->
<g id="edge21" class="edge">
<title>magnolia&#45;&gt;poms_shared</title>
<path fill="none" stroke="#000000" d="M803.1718,-483.7747C801.6743,-460.6004 796.6346,-419.9986 779.7935,-390 754.5026,-344.9499 708.109,-306.2231 676.859,-283.5065"/>
<polygon fill="#000000" stroke="#000000" points="678.6514,-280.4859 668.4767,-277.5318 674.5884,-286.1862 678.6514,-280.4859"/>
</g>
<!-- poms_gui -->
<g id="node5" class="node">
<title>poms_gui</title>
<ellipse fill="none" stroke="#000000" cx="453.7935" cy="-335" rx="37.8943" ry="18"/>
<text text-anchor="middle" x="453.7935" y="-331.3" font-family="Times,serif" font-size="14.00" fill="#000000">poms_gui</text>
</g>
<!-- poms_gui&#45;&gt;poms_shared -->
<g id="edge7" class="edge">
<title>poms_gui&#45;&gt;poms_shared</title>
<path fill="none" stroke="#000000" d="M472.5025,-319.1491C481.968,-311.813 493.942,-303.5206 505.7935,-298 532.8436,-285.3997 564.9892,-276.7118 591.5503,-271.0324"/>
<polygon fill="#000000" stroke="#000000" points="592.3436,-274.4426 601.4344,-269.0012 590.9345,-267.5859 592.3436,-274.4426"/>
</g>
<!-- poms_backend -->
<g id="node6" class="node">
<title>poms_backend</title>
<ellipse fill="none" stroke="#000000" cx="450.7935" cy="-502" rx="51.1914" ry="18"/>
<text text-anchor="middle" x="450.7935" y="-498.3" font-family="Times,serif" font-size="14.00" fill="#000000">poms_backend</text>
</g>
<!-- poms_backend&#45;&gt;poms_gui -->
<g id="edge23" class="edge">
<title>poms_backend&#45;&gt;poms_gui</title>
<path fill="none" stroke="#c0c0c0" d="M451.1203,-483.8102C451.641,-454.8234 452.6633,-397.9192 453.2817,-363.4916"/>
<polygon fill="#c0c0c0" stroke="#c0c0c0" points="456.7869,-363.2287 453.4672,-353.1674 449.788,-363.1029 456.7869,-363.2287"/>
<text text-anchor="middle" x="454.2935" y="-404.3" font-family="Times,serif" font-size="14.00" fill="#000000">?</text>
</g>
<!-- poms_backend&#45;&gt;poms_shared -->
<g id="edge22" class="edge">
<title>poms_backend&#45;&gt;poms_shared</title>
<path fill="none" stroke="#000000" d="M483.5612,-487.8058C506.7412,-477.7619 533.7283,-466.0613 533.7935,-466 534.6852,-465.162 613.1779,-310.0575 613.7935,-309 617.7829,-302.1468 622.357,-294.9172 626.7445,-288.2381"/>
<polygon fill="#000000" stroke="#000000" points="629.8977,-289.8185 632.5395,-279.5583 624.0759,-285.9316 629.8977,-289.8185"/>
</g>
<!-- pages_publish -->
<g id="node7" class="node">
<title>pages_publish</title>
<ellipse fill="none" stroke="#000000" cx="211.7935" cy="-502" rx="50.0912" ry="18"/>
<text text-anchor="middle" x="211.7935" y="-498.3" font-family="Times,serif" font-size="14.00" fill="#000000">pages_publish</text>
</g>
<!-- pages_publish&#45;&gt;poms_shared -->
<g id="edge13" class="edge">
<title>pages_publish&#45;&gt;poms_shared</title>
<path fill="none" stroke="#000000" d="M223.8284,-484.4525C251.3126,-445.8614 322.8421,-353.521 406.7935,-309 437.9226,-292.4917 530.0304,-277.4851 590.1083,-269.0694"/>
<polygon fill="#000000" stroke="#000000" points="590.7684,-272.5115 600.1954,-267.6759 589.8105,-265.5773 590.7684,-272.5115"/>
</g>
<!-- poms_shared_backend -->
<g id="node13" class="node">
<title>poms_shared_backend</title>
<ellipse fill="none" stroke="#000000" cx="72.7935" cy="-408" rx="72.5877" ry="18"/>
<text text-anchor="middle" x="72.7935" y="-404.3" font-family="Times,serif" font-size="14.00" fill="#000000">poms_shared_backend</text>
</g>
<!-- pages_publish&#45;&gt;poms_shared_backend -->
<g id="edge12" class="edge">
<title>pages_publish&#45;&gt;poms_shared_backend</title>
<path fill="none" stroke="#000000" d="M188.2141,-486.0542C165.7652,-470.873 131.7468,-447.8677 106.4505,-430.7609"/>
<polygon fill="#000000" stroke="#000000" points="108.1443,-427.6811 97.9,-424.9785 104.223,-433.4797 108.1443,-427.6811"/>
</g>
<!-- media_publish -->
<g id="node8" class="node">
<title>media_publish</title>
<ellipse fill="none" stroke="#000000" cx="330.7935" cy="-502" rx="50.8918" ry="18"/>
<text text-anchor="middle" x="330.7935" y="-498.3" font-family="Times,serif" font-size="14.00" fill="#000000">media_publish</text>
</g>
<!-- media_publish&#45;&gt;poms_gui -->
<g id="edge16" class="edge">
<title>media_publish&#45;&gt;poms_gui</title>
<path fill="none" stroke="#c0c0c0" d="M343.7242,-484.4437C365.5587,-454.7986 409.818,-394.7066 435.055,-360.4418"/>
<polygon fill="#c0c0c0" stroke="#c0c0c0" points="437.9239,-362.4485 441.0361,-352.3211 432.2876,-358.2972 437.9239,-362.4485"/>
<text text-anchor="middle" x="414.2935" y="-404.3" font-family="Times,serif" font-size="14.00" fill="#000000">?</text>
</g>
<!-- media_publish&#45;&gt;poms_shared -->
<g id="edge14" class="edge">
<title>media_publish&#45;&gt;poms_shared</title>
<path fill="none" stroke="#000000" d="M361.597,-487.6423C370.8724,-483.5946 381.1508,-479.3782 390.7935,-476 421.2173,-465.3414 433.5716,-474.2677 460.7935,-457 533.742,-410.7266 524.9722,-369.3394 586.7935,-309 595.5453,-300.458 605.7253,-291.8276 615.0916,-284.3345"/>
<polygon fill="#000000" stroke="#000000" points="617.358,-287.0049 623.0568,-278.0732 613.032,-281.5016 617.358,-287.0049"/>
</g>
<!-- media_publish&#45;&gt;poms_shared_backend -->
<g id="edge15" class="edge">
<title>media_publish&#45;&gt;poms_shared_backend</title>
<path fill="none" stroke="#000000" d="M301.128,-487.3783C291.6245,-483.177 280.9335,-478.9414 270.7935,-476 218.512,-460.8342 200.7169,-476.2399 149.7935,-457 133.3787,-450.7981 116.7564,-440.7925 103.1779,-431.4346"/>
<polygon fill="#000000" stroke="#000000" points="104.9051,-428.3682 94.7272,-425.4252 100.8484,-434.0728 104.9051,-428.3682"/>
</g>
<!-- api -->
<g id="node9" class="node">
<title>api</title>
<ellipse fill="none" stroke="#000000" cx="546.7935" cy="-502" rx="27" ry="18"/>
<text text-anchor="middle" x="546.7935" y="-498.3" font-family="Times,serif" font-size="14.00" fill="#000000">api</text>
</g>
<!-- api&#45;&gt;resteasy -->
<g id="edge11" class="edge">
<title>api&#45;&gt;resteasy</title>
<path fill="none" stroke="#000000" d="M573.5659,-499.6049C621.2142,-494.7442 717.7201,-481.9987 738.7935,-457 786.1478,-400.8253 782.666,-166.4835 779.9368,-85.039"/>
<polygon fill="#000000" stroke="#000000" points="783.4339,-84.8919 779.5784,-75.0235 776.4384,-85.1423 783.4339,-84.8919"/>
</g>
<!-- api&#45;&gt;vpro_shared -->
<g id="edge10" class="edge">
<title>api&#45;&gt;vpro_shared</title>
<path fill="none" stroke="#000000" d="M573.4942,-498.4962C615.129,-492.424 692.4547,-478.496 708.7935,-457 776.3892,-368.0683 730.6544,-312.1261 695.7935,-206 692.985,-197.4501 692.631,-195.1401 688.7935,-187 687.2981,-183.8278 685.6161,-180.5663 683.8719,-177.3631"/>
<polygon fill="#000000" stroke="#000000" points="686.8809,-175.5741 678.8944,-168.6123 680.7963,-179.0351 686.8809,-175.5741"/>
</g>
<!-- api&#45;&gt;poms_shared -->
<g id="edge8" class="edge">
<title>api&#45;&gt;poms_shared</title>
<path fill="none" stroke="#000000" d="M559.4505,-485.7251C563.735,-479.7389 568.3114,-472.7657 571.7935,-466 602.6069,-406.1301 626.0205,-330.245 637.3172,-290.0135"/>
<polygon fill="#000000" stroke="#000000" points="640.7613,-290.6901 640.052,-280.119 634.0143,-288.8252 640.7613,-290.6901"/>
</g>
<!-- api&#45;&gt;poms_shared_backend -->
<g id="edge9" class="edge">
<title>api&#45;&gt;poms_shared_backend</title>
<path fill="none" stroke="#000000" d="M530.7238,-487.3848C524.8645,-482.9118 517.9189,-478.5127 510.7935,-476 435.0331,-449.2831 226.306,-481.48 149.7935,-457 132.5466,-451.4819 115.3533,-441.1256 101.6028,-431.3504"/>
<polygon fill="#000000" stroke="#000000" points="103.6421,-428.5055 93.5164,-425.3876 99.4877,-434.1394 103.6421,-428.5055"/>
</g>
<!-- api_client&#45;&gt;vpro_shared -->
<g id="edge18" class="edge">
<title>api_client&#45;&gt;vpro_shared</title>
<path fill="none" stroke="#000000" d="M670.7896,-390.4346C684.9891,-360.5819 710.0789,-297.9344 700.7935,-244 696.8449,-221.0644 687.7948,-196.2831 680.1692,-178.0731"/>
<polygon fill="#000000" stroke="#000000" points="683.2948,-176.4822 676.1207,-168.6859 676.8671,-179.2544 683.2948,-176.4822"/>
</g>
<!-- api_client&#45;&gt;poms_shared -->
<g id="edge17" class="edge">
<title>api_client&#45;&gt;poms_shared</title>
<path fill="none" stroke="#000000" d="M659.6749,-389.8042C656.7735,-364.8868 651.5346,-319.8938 648.1106,-290.4877"/>
<polygon fill="#000000" stroke="#000000" points="651.5721,-289.9532 646.9389,-280.4251 644.6191,-290.7628 651.5721,-289.9532"/>
</g>
<!-- vpro_shared&#45;&gt;slf4j -->
<g id="edge1" class="edge">
<title>vpro_shared&#45;&gt;slf4j</title>
<path fill="none" stroke="#000000" d="M660.2739,-132.8759C654.5362,-119.0465 646.5391,-99.7714 640.0411,-84.1096"/>
<polygon fill="#000000" stroke="#000000" points="643.0914,-82.3282 636.0263,-74.4329 636.6258,-85.0108 643.0914,-82.3282"/>
</g>
<!-- vpro_shared&#45;&gt;guava -->
<g id="edge2" class="edge">
<title>vpro_shared&#45;&gt;guava</title>
<path fill="none" stroke="#000000" d="M674.1563,-132.8759C678.9805,-119.134 685.6925,-100.0152 691.1718,-84.4074"/>
<polygon fill="#000000" stroke="#000000" points="694.5522,-85.3446 694.5623,-74.7497 687.9473,-83.0258 694.5522,-85.3446"/>
</g>
<!-- poms_shared&#45;&gt;vpro_shared -->
<g id="edge3" class="edge">
<title>poms_shared&#45;&gt;vpro_shared</title>
<path fill="none" stroke="#000000" d="M648.5915,-243.6706C652.2422,-226.0521 657.8094,-199.1843 662.011,-178.9073"/>
<polygon fill="#000000" stroke="#000000" points="665.4644,-179.4905 664.0662,-168.9883 658.61,-178.0702 665.4644,-179.4905"/>
</g>
<!-- poms_shared_backend&#45;&gt;slf4j -->
<g id="edge6" class="edge">
<title>poms_shared_backend&#45;&gt;slf4j</title>
<path fill="none" stroke="#000000" d="M67.7302,-389.8591C64.08,-375.1845 59.7935,-353.9233 59.7935,-335 59.7935,-335 59.7935,-335 59.7935,-151 59.7935,-96.9443 464.7069,-67.1964 591.3821,-59.2125"/>
<polygon fill="#000000" stroke="#000000" points="591.9684,-62.683 601.7323,-58.5698 591.5346,-55.6964 591.9684,-62.683"/>
</g>
<!-- poms_shared_backend&#45;&gt;vpro_shared -->
<g id="edge4" class="edge">
<title>poms_shared_backend&#45;&gt;vpro_shared</title>
<path fill="none" stroke="#000000" d="M82.6742,-389.9818C89.6621,-375.5518 97.7935,-354.5585 97.7935,-335 97.7935,-335 97.7935,-335 97.7935,-206.5 97.7935,-180.765 470.7184,-160.3509 613.2803,-153.4872"/>
<polygon fill="#000000" stroke="#000000" points="613.7192,-156.9703 623.5409,-152.9975 613.3854,-149.9783 613.7192,-156.9703"/>
</g>
<!-- poms_shared_backend&#45;&gt;poms_shared -->
<g id="edge5" class="edge">
<title>poms_shared_backend&#45;&gt;poms_shared</title>
<path fill="none" stroke="#000000" d="M93.7074,-390.6955C99.8927,-385.0673 106.4363,-378.57 111.7935,-372 132.4577,-346.6578 122.6384,-327.2163 149.7935,-309 185.4932,-285.0518 465.3316,-269.916 587.7646,-264.3781"/>
<polygon fill="#000000" stroke="#000000" points="588.2248,-267.8611 598.0587,-263.9183 587.9124,-260.8681 588.2248,-267.8611"/>
</g>
</g>
</svg>
