<?xml version="1.0" encoding="UTF-8" standalone="no"?>
<!DOCTYPE svg PUBLIC "-//W3C//DTD SVG 1.1//EN"
 "http://www.w3.org/Graphics/SVG/1.1/DTD/svg11.dtd">
<!-- Generated by graphviz version 2.40.1 (20161225.0304)
 -->
<!-- Title: %3 Pages: 1 -->
<svg width="802pt" height="567pt"
 viewBox="0.00 0.00 802.00 567.00" xmlns="http://www.w3.org/2000/svg" xmlns:xlink="http://www.w3.org/1999/xlink">
<g id="graph0" class="graph" transform="scale(1 1) rotate(0) translate(4 563)">
<title>%3</title>
<polygon fill="#ffffff" stroke="transparent" points="-4,4 -4,-563 798,-563 798,4 -4,4"/>
<text text-anchor="middle" x="397" y="-7.8" font-family="Times,serif" font-size="14.00" fill="#000000">Dependencies of the different code projects relevant to POMS</text>
<g id="clust1" class="cluster">
<title>cluster_0</title>
<polygon fill="none" stroke="#000000" points="525,-31 525,-106 749,-106 749,-31 525,-31"/>
<text text-anchor="middle" x="637" y="-90.8" font-family="Times,serif" font-size="14.00" fill="#000000">Generic utilities</text>
</g>
<g id="clust2" class="cluster">
<title>cluster_1</title>
<polygon fill="none" stroke="#000000" points="517,-476 517,-551 605,-551 605,-476 517,-476"/>
<text text-anchor="middle" x="561" y="-535.8" font-family="Times,serif" font-size="14.00" fill="#000000">VPRO</text>
</g>
<g id="clust3" class="cluster">
<title>cluster_2</title>
<polygon fill="none" stroke="#000000" points="8,-309 8,-551 436,-551 436,-309 8,-309"/>
<text text-anchor="middle" x="222" y="-535.8" font-family="Times,serif" font-size="14.00" fill="#000000">POMS Services</text>
</g>
<g id="clust4" class="cluster">
<title>cluster_4</title>
<polygon fill="none" stroke="#000000" points="444,-125 444,-457 574,-457 574,-125 444,-125"/>
<text text-anchor="middle" x="509" y="-441.8" font-family="Times,serif" font-size="14.00" fill="#000000">Sharable utilities</text>
</g>
<!-- vpro_shared -->
<g id="node1" class="node">
<title>vpro_shared</title>
<g id="a_node1"><a xlink:href="https://github.com/vpro/vpro-shared" xlink:title="vpro_shared">
<ellipse fill="none" stroke="#000000" cx="522" cy="-151" rx="44.393" ry="18"/>
<text text-anchor="middle" x="522" y="-147.3" font-family="Times,serif" font-size="14.00" fill="#000000">vpro_shared</text>
</a>
</g>
</g>
<!-- slf4j -->
<g id="node2" class="node">
<title>slf4j</title>
<ellipse fill="none" stroke="#000000" cx="632" cy="-57" rx="27" ry="18"/>
<text text-anchor="middle" x="632" y="-53.3" font-family="Times,serif" font-size="14.00" fill="#000000">slf4j</text>
</g>
<!-- vpro_shared&#45;&gt;slf4j -->
<g id="edge1" class="edge">
<title>vpro_shared&#45;&gt;slf4j</title>
<path fill="none" stroke="#000000" d="M550.4829,-137.1057C565.035,-129.194 582.4753,-118.3931 596,-106 603.4301,-99.1916 610.3251,-90.6467 616.0508,-82.6073"/>
<polygon fill="#000000" stroke="#000000" points="619.0467,-84.4258 621.7748,-74.1882 613.2579,-80.49 619.0467,-84.4258"/>
</g>
<!-- guava -->
<g id="node3" class="node">
<title>guava</title>
<ellipse fill="none" stroke="#000000" cx="560" cy="-57" rx="27.0966" ry="18"/>
<text text-anchor="middle" x="560" y="-53.3" font-family="Times,serif" font-size="14.00" fill="#000000">guava</text>
</g>
<!-- vpro_shared&#45;&gt;guava -->
<g id="edge2" class="edge">
<title>vpro_shared&#45;&gt;guava</title>
<path fill="none" stroke="#000000" d="M529.3268,-132.8759C534.9174,-119.0465 542.7094,-99.7714 549.0408,-84.1096"/>
<polygon fill="#000000" stroke="#000000" points="552.4496,-85.0158 552.9527,-74.4329 545.9598,-82.3922 552.4496,-85.0158"/>
</g>
<!-- resteasy -->
<g id="node4" class="node">
<title>resteasy</title>
<ellipse fill="none" stroke="#000000" cx="709" cy="-57" rx="32.4942" ry="18"/>
<text text-anchor="middle" x="709" y="-53.3" font-family="Times,serif" font-size="14.00" fill="#000000">resteasy</text>
</g>
<!-- magnolia -->
<g id="node5" class="node">
<title>magnolia</title>
<ellipse fill="none" stroke="#000000" cx="561" cy="-502" rx="36.2938" ry="18"/>
<text text-anchor="middle" x="561" y="-498.3" font-family="Times,serif" font-size="14.00" fill="#000000">magnolia</text>
</g>
<!-- magnolia&#45;&gt;vpro_shared -->
<g id="edge20" class="edge">
<title>magnolia&#45;&gt;vpro_shared</title>
<path fill="none" stroke="#000000" d="M597.1684,-499.9297C649.7556,-496.2411 743.9039,-486.8672 770,-466 791.7882,-448.5775 794,-435.8975 794,-408 794,-408 794,-408 794,-206.5 794,-184.418 654.5949,-165.5084 575.386,-156.5464"/>
<polygon fill="#000000" stroke="#000000" points="575.4254,-153.0292 565.0992,-155.4 574.65,-159.9861 575.4254,-153.0292"/>
</g>
<!-- api_client -->
<g id="node11" class="node">
<title>api_client</title>
<ellipse fill="none" stroke="#000000" cx="527" cy="-408" rx="37.8943" ry="18"/>
<text text-anchor="middle" x="527" y="-404.3" font-family="Times,serif" font-size="14.00" fill="#000000">api_client</text>
</g>
<!-- magnolia&#45;&gt;api_client -->
<g id="edge19" class="edge">
<title>magnolia&#45;&gt;api_client</title>
<path fill="none" stroke="#000000" d="M554.4445,-483.8759C549.474,-470.134 542.5587,-451.0152 536.9133,-435.4074"/>
<polygon fill="#000000" stroke="#000000" points="540.1129,-433.963 533.4201,-425.7497 533.5302,-436.344 540.1129,-433.963"/>
</g>
<!-- poms_shared -->
<g id="node12" class="node">
<title>poms_shared</title>
<ellipse fill="none" stroke="#000000" cx="499" cy="-262" rx="46.5926" ry="18"/>
<text text-anchor="middle" x="499" y="-258.3" font-family="Times,serif" font-size="14.00" fill="#000000">poms_shared</text>
</g>
<!-- magnolia&#45;&gt;poms_shared -->
<g id="edge21" class="edge">
<title>magnolia&#45;&gt;poms_shared</title>
<path fill="none" stroke="#000000" d="M529.1567,-493.1264C511.3276,-486.347 490.6056,-475.0243 480,-457 448.9115,-404.1646 471.0132,-329.0746 486.8206,-289.2518"/>
<polygon fill="#000000" stroke="#000000" points="490.0912,-290.5013 490.6676,-279.9222 483.6198,-287.8328 490.0912,-290.5013"/>
</g>
<!-- poms_gui -->
<g id="node6" class="node">
<title>poms_gui</title>
<ellipse fill="none" stroke="#000000" cx="281" cy="-335" rx="37.8943" ry="18"/>
<text text-anchor="middle" x="281" y="-331.3" font-family="Times,serif" font-size="14.00" fill="#000000">poms_gui</text>
</g>
<!-- poms_gui&#45;&gt;poms_shared -->
<g id="edge7" class="edge">
<title>poms_gui&#45;&gt;poms_shared</title>
<path fill="none" stroke="#000000" d="M299.6151,-318.9422C309.0584,-311.5572 321.0408,-303.2833 333,-298 368.2016,-282.4488 410.6509,-273.3975 443.8113,-268.2605"/>
<polygon fill="#000000" stroke="#000000" points="444.4038,-271.711 453.7859,-266.789 443.3821,-264.786 444.4038,-271.711"/>
</g>
<!-- poms_backend -->
<g id="node7" class="node">
<title>poms_backend</title>
<ellipse fill="none" stroke="#000000" cx="67" cy="-502" rx="51.1914" ry="18"/>
<text text-anchor="middle" x="67" y="-498.3" font-family="Times,serif" font-size="14.00" fill="#000000">poms_backend</text>
</g>
<!-- poms_backend&#45;&gt;poms_gui -->
<g id="edge23" class="edge">
<title>poms_backend&#45;&gt;poms_gui</title>
<path fill="none" stroke="#c0c0c0" d="M98.5429,-487.6569C110.6532,-481.6138 124.3537,-474.1018 136,-466 182.8399,-433.4157 230.7196,-387.103 258.0555,-359.1648"/>
<polygon fill="#c0c0c0" stroke="#c0c0c0" points="260.751,-361.4129 265.2029,-351.7987 255.7273,-356.5382 260.751,-361.4129"/>
<text text-anchor="middle" x="227.5" y="-404.3" font-family="Times,serif" font-size="14.00" fill="#000000">?</text>
</g>
<!-- poms_backend&#45;&gt;poms_shared -->
<g id="edge22" class="edge">
<title>poms_backend&#45;&gt;poms_shared</title>
<path fill="none" stroke="#000000" d="M76.7473,-484.0328C98.9447,-445.0142 157.3274,-352.5456 234,-309 268.9743,-289.1366 376.7584,-274.7332 443.6042,-267.4296"/>
<polygon fill="#000000" stroke="#000000" points="443.9903,-270.9084 453.5597,-266.3612 443.2433,-263.9484 443.9903,-270.9084"/>
</g>
<!-- pages_publish -->
<g id="node8" class="node">
<title>pages_publish</title>
<ellipse fill="none" stroke="#000000" cx="306" cy="-502" rx="50.0912" ry="18"/>
<text text-anchor="middle" x="306" y="-498.3" font-family="Times,serif" font-size="14.00" fill="#000000">pages_publish</text>
</g>
<!-- pages_publish&#45;&gt;poms_shared -->
<g id="edge13" class="edge">
<title>pages_publish&#45;&gt;poms_shared</title>
<path fill="none" stroke="#000000" d="M334.7641,-487.1461C343.9469,-481.4271 353.6285,-474.2585 361,-466 413.0166,-407.7247 390.7517,-369.6328 440,-309 447.5992,-299.6441 457.3606,-290.9403 466.747,-283.6292"/>
<polygon fill="#000000" stroke="#000000" points="468.9226,-286.3728 474.8355,-277.5814 464.7307,-280.7666 468.9226,-286.3728"/>
</g>
<!-- poms_shared_backend -->
<g id="node13" class="node">
<title>poms_shared_backend</title>
<ellipse fill="none" stroke="#000000" cx="655" cy="-408" rx="72.5877" ry="18"/>
<text text-anchor="middle" x="655" y="-404.3" font-family="Times,serif" font-size="14.00" fill="#000000">poms_shared_backend</text>
</g>
<!-- pages_publish&#45;&gt;poms_shared_backend -->
<g id="edge12" class="edge">
<title>pages_publish&#45;&gt;poms_shared_backend</title>
<path fill="none" stroke="#000000" d="M334.4155,-487.1488C343.9002,-482.8292 354.6846,-478.5829 365,-476 411.0982,-464.4576 533.1784,-472.7892 578,-457 594.7957,-451.0834 611.6842,-440.9184 625.3471,-431.3753"/>
<polygon fill="#000000" stroke="#000000" points="627.7732,-433.9402 633.8264,-425.2448 623.6719,-428.2675 627.7732,-433.9402"/>
</g>
<!-- media_publish -->
<g id="node9" class="node">
<title>media_publish</title>
<ellipse fill="none" stroke="#000000" cx="187" cy="-502" rx="50.8918" ry="18"/>
<text text-anchor="middle" x="187" y="-498.3" font-family="Times,serif" font-size="14.00" fill="#000000">media_publish</text>
</g>
<!-- media_publish&#45;&gt;poms_gui -->
<g id="edge16" class="edge">
<title>media_publish&#45;&gt;poms_gui</title>
<path fill="none" stroke="#c0c0c0" d="M218.8179,-487.8299C242.9327,-476.778 272.5098,-462.4235 276,-457 293.9468,-429.1118 291.8258,-389.7472 287.462,-363.348"/>
<polygon fill="#c0c0c0" stroke="#c0c0c0" points="290.8509,-362.4278 285.5772,-353.2387 283.9694,-363.7108 290.8509,-362.4278"/>
<text text-anchor="middle" x="292.5" y="-404.3" font-family="Times,serif" font-size="14.00" fill="#000000">?</text>
</g>
<!-- media_publish&#45;&gt;poms_shared -->
<g id="edge14" class="edge">
<title>media_publish&#45;&gt;poms_shared</title>
<path fill="none" stroke="#000000" d="M218.6162,-487.8876C227.7314,-483.9311 237.7209,-479.702 247,-476 269.8538,-466.8822 279.2783,-471.7135 299,-457 364.6891,-407.9921 346.6582,-362.2009 409,-309 423.123,-296.9478 440.8598,-286.8568 456.846,-279.1535"/>
<polygon fill="#000000" stroke="#000000" points="458.4188,-282.2821 466.0156,-274.897 455.4715,-275.9329 458.4188,-282.2821"/>
</g>
<!-- media_publish&#45;&gt;poms_shared_backend -->
<g id="edge15" class="edge">
<title>media_publish&#45;&gt;poms_shared_backend</title>
<path fill="none" stroke="#000000" d="M215.8935,-487.0404C225.5388,-482.7143 236.5067,-478.4915 247,-476 282.8418,-467.4897 542.9406,-468.3092 578,-457 595.2338,-451.4409 612.4256,-441.0802 626.1786,-431.3127"/>
<polygon fill="#000000" stroke="#000000" points="628.2904,-434.1042 634.267,-425.356 624.1394,-428.4678 628.2904,-434.1042"/>
</g>
<!-- api -->
<g id="node10" class="node">
<title>api</title>
<ellipse fill="none" stroke="#000000" cx="401" cy="-502" rx="27" ry="18"/>
<text text-anchor="middle" x="401" y="-498.3" font-family="Times,serif" font-size="14.00" fill="#000000">api</text>
</g>
<!-- api&#45;&gt;vpro_shared -->
<g id="edge10" class="edge">
<title>api&#45;&gt;vpro_shared</title>
<path fill="none" stroke="#000000" d="M384.4383,-487.4609C378.6467,-483.1063 371.8673,-478.76 365,-476 308.371,-453.2406 275.0583,-497.0433 229,-457 211.9074,-442.1396 215,-430.6492 215,-408 215,-408 215,-408 215,-206.5 215,-181.0688 380.2392,-163.0804 468.263,-155.3021"/>
<polygon fill="#000000" stroke="#000000" points="468.681,-158.7791 478.3404,-154.4264 468.0749,-151.8054 468.681,-158.7791"/>
</g>
<!-- api&#45;&gt;resteasy -->
<g id="edge11" class="edge">
<title>api&#45;&gt;resteasy</title>
<path fill="none" stroke="#000000" d="M426.1513,-495.0699C448.7182,-489.1141 482.8315,-480.756 513,-476 562.3471,-468.2206 697.0124,-486.9441 737,-457 755.6966,-442.9994 756,-431.3577 756,-408 756,-408 756,-408 756,-151 756,-125.4418 741.9279,-99.7093 729.1837,-81.6455"/>
<polygon fill="#000000" stroke="#000000" points="731.8641,-79.3838 723.1015,-73.4283 726.2376,-83.5483 731.8641,-79.3838"/>
</g>
<!-- api&#45;&gt;poms_shared -->
<g id="edge8" class="edge">
<title>api&#45;&gt;poms_shared</title>
<path fill="none" stroke="#000000" d="M404.8238,-483.9357C412.6933,-448.8379 432.6383,-369.5645 464,-309 467.8156,-301.6314 472.7527,-294.1872 477.7093,-287.4636"/>
<polygon fill="#000000" stroke="#000000" points="480.5944,-289.4534 483.9152,-279.3924 475.0451,-285.1866 480.5944,-289.4534"/>
</g>
<!-- api&#45;&gt;poms_shared_backend -->
<g id="edge9" class="edge">
<title>api&#45;&gt;poms_shared_backend</title>
<path fill="none" stroke="#000000" d="M426.7501,-495.9314C472.4143,-485.0989 564.1019,-463.005 578,-457 593.8695,-450.1432 610.1979,-440.2311 623.7116,-431.1133"/>
<polygon fill="#000000" stroke="#000000" points="625.9182,-433.8428 632.1526,-425.2763 621.9368,-428.0852 625.9182,-433.8428"/>
</g>
<!-- api_client&#45;&gt;vpro_shared -->
<g id="edge18" class="edge">
<title>api_client&#45;&gt;vpro_shared</title>
<path fill="none" stroke="#000000" d="M541.5831,-391.2757C552.2993,-377.2407 565,-356.1461 565,-335 565,-335 565,-335 565,-206.5 565,-194.3386 558.4684,-183.2265 550.4965,-174.193"/>
<polygon fill="#000000" stroke="#000000" points="552.7531,-171.4958 543.2481,-166.8155 547.7598,-176.4017 552.7531,-171.4958"/>
</g>
<!-- api_client&#45;&gt;poms_shared -->
<g id="edge17" class="edge">
<title>api_client&#45;&gt;poms_shared</title>
<path fill="none" stroke="#000000" d="M523.5104,-389.8042C518.7056,-364.7506 510.0085,-319.4015 504.3712,-290.007"/>
<polygon fill="#000000" stroke="#000000" points="507.7665,-289.1282 502.4456,-279.9665 500.8918,-290.4467 507.7665,-289.1282"/>
</g>
<!-- poms_shared&#45;&gt;vpro_shared -->
<g id="edge3" class="edge">
<title>poms_shared&#45;&gt;vpro_shared</title>
<path fill="none" stroke="#000000" d="M502.798,-243.6706C506.4487,-226.0521 512.0159,-199.1843 516.2174,-178.9073"/>
<polygon fill="#000000" stroke="#000000" points="519.6708,-179.4905 518.2727,-168.9883 512.8164,-178.0702 519.6708,-179.4905"/>
</g>
<!-- poms_shared_backend&#45;&gt;vpro_shared -->
<g id="edge4" class="edge">
<title>poms_shared_backend&#45;&gt;vpro_shared</title>
<path fill="none" stroke="#000000" d="M645.9098,-389.8941C639.4809,-375.4157 632,-354.4001 632,-335 632,-335 632,-335 632,-206.5 632,-178.3726 602.9773,-164.4975 574.7472,-157.6544"/>
<polygon fill="#000000" stroke="#000000" points="575.3574,-154.2056 564.8438,-155.5154 573.8795,-161.0478 575.3574,-154.2056"/>
</g>
<!-- poms_shared_backend&#45;&gt;slf4j -->
<g id="edge6" class="edge">
<title>poms_shared_backend&#45;&gt;slf4j</title>
<path fill="none" stroke="#000000" d="M660.8423,-389.9113C665.0541,-375.2663 670,-354.0194 670,-335 670,-335 670,-335 670,-151 670,-126.417 658.691,-100.6808 648.4118,-82.3655"/>
<polygon fill="#000000" stroke="#000000" points="651.2867,-80.3499 643.1957,-73.5097 645.2551,-83.9025 651.2867,-80.3499"/>
</g>
<!-- poms_shared_backend&#45;&gt;poms_shared -->
<g id="edge5" class="edge">
<title>poms_shared_backend&#45;&gt;poms_shared</title>
<path fill="none" stroke="#000000" d="M636.1828,-390.389C608.2425,-364.2398 555.7241,-315.088 524.3995,-285.7714"/>
<polygon fill="#000000" stroke="#000000" points="526.613,-283.0492 516.9202,-278.7714 521.8298,-288.1601 526.613,-283.0492"/>
</g>
</g>
</svg>
