<?xml version="1.0" encoding="UTF-8" standalone="no"?>
<!DOCTYPE svg PUBLIC "-//W3C//DTD SVG 1.1//EN"
 "http://www.w3.org/Graphics/SVG/1.1/DTD/svg11.dtd">
<!-- Generated by graphviz version 2.40.1 (20161225.0304)
 -->
<!-- Title: poms_universe Pages: 1 -->
<svg width="1205pt" height="507pt"
 viewBox="0.00 0.00 1205.34 507.00" xmlns="http://www.w3.org/2000/svg" xmlns:xlink="http://www.w3.org/1999/xlink">
<g id="graph0" class="graph" transform="scale(1 1) rotate(0) translate(4 503)">
<title>poms_universe</title>
<polygon fill="#ffffff" stroke="transparent" points="-4,4 -4,-503 1201.3408,-503 1201.3408,4 -4,4"/>
<text text-anchor="middle" x="598.6704" y="-7.8" font-family="Times,serif" font-size="14.00" fill="#000000">Deployments relevant for POMS</text>
<g id="clust1" class="cluster">
<title>cluster_0</title>
<polygon fill="#f0ffff" stroke="#000000" points="417,-31 417,-178 1025,-178 1025,-31 417,-31"/>
<text text-anchor="middle" x="721" y="-162.8" font-family="Times,serif" font-size="14.00" fill="#000000">Generic backend services</text>
</g>
<g id="clust2" class="cluster">
<title>cluster_1</title>
<polygon fill="none" stroke="#000000" points="467,-344 467,-491 750,-491 750,-344 467,-344"/>
<text text-anchor="middle" x="608.5" y="-475.8" font-family="Times,serif" font-size="14.00" fill="#000000">World</text>
</g>
<g id="clust3" class="cluster">
<title>cluster_3</title>
<polygon fill="#f0ffff" stroke="#000000" points="386,-186 386,-336 1092,-336 1092,-186 386,-186"/>
<text text-anchor="middle" x="739" y="-320.8" font-family="Times,serif" font-size="14.00" fill="#000000">POMS &#160;Services</text>
</g>
<g id="clust4" class="cluster">
<title>cluster_4</title>
<polygon fill="none" stroke="#000000" points="8,-103 8,-261 378,-261 378,-103 8,-103"/>
<text text-anchor="middle" x="193" y="-245.8" font-family="Times,serif" font-size="14.00" fill="#000000">NPO Services</text>
</g>
<!-- poms -->
<g id="node1" class="node">
<title>poms</title>
<g id="a_node1"><a xlink:href="https://poms.omroep.nl/" xlink:title="POMS">
<ellipse fill="none" stroke="#000000" cx="423" cy="-287" rx="29.4969" ry="18"/>
<text text-anchor="middle" x="423" y="-283.3" font-family="Times,serif" font-size="14.00" fill="#0000ff">POMS</text>
</a>
</g>
</g>
<!-- postgresql -->
<g id="node8" class="node">
<title>postgresql</title>
<ellipse fill="none" stroke="#000000" cx="906" cy="-129" rx="38.9931" ry="18"/>
<text text-anchor="middle" x="906" y="-125.3" font-family="Times,serif" font-size="14.00" fill="#000000">postgresql</text>
</g>
<!-- poms&#45;&gt;postgresql -->
<g id="edge9" class="edge">
<title>poms&#45;&gt;postgresql</title>
<path fill="none" stroke="#cd950c" d="M445.1382,-274.9507C450.5111,-272.5464 456.3419,-270.3486 462,-269 510.6684,-257.4004 638.9795,-275.0423 687,-261 749.9173,-242.6015 752.5729,-208.8866 814,-186 832.6254,-179.0605 840.4419,-187.3153 858,-178 869.0654,-172.1294 879.1413,-162.8104 887.1727,-153.8681"/>
<polygon fill="#cd950c" stroke="#cd950c" points="889.8759,-156.092 893.6778,-146.2027 884.5387,-151.5626 889.8759,-156.092"/>
</g>
<!-- sso -->
<g id="node10" class="node">
<title>sso</title>
<ellipse fill="none" stroke="#000000" cx="990" cy="-129" rx="27" ry="18"/>
<text text-anchor="middle" x="990" y="-125.3" font-family="Times,serif" font-size="14.00" fill="#000000">sso</text>
</g>
<!-- poms&#45;&gt;sso -->
<g id="edge10" class="edge">
<title>poms&#45;&gt;sso</title>
<path fill="none" stroke="#cd950c" d="M445.1294,-274.9135C450.5027,-272.5107 456.3358,-270.3229 462,-269 527.3752,-253.731 698.4713,-275.5965 764,-261 853.9458,-240.9647 882.0296,-235.5492 954,-178 961.9919,-171.6095 969.0932,-163.0328 974.8325,-154.8419"/>
<polygon fill="#cd950c" stroke="#cd950c" points="977.9285,-156.5042 980.5033,-146.227 972.0815,-152.6554 977.9285,-156.5042"/>
</g>
<!-- jms -->
<g id="node11" class="node">
<title>jms</title>
<ellipse fill="none" stroke="#000000" cx="714" cy="-129" rx="27" ry="18"/>
<text text-anchor="middle" x="714" y="-125.3" font-family="Times,serif" font-size="14.00" fill="#000000">jms</text>
</g>
<!-- poms&#45;&gt;jms -->
<g id="edge11" class="edge">
<title>poms&#45;&gt;jms</title>
<path fill="none" stroke="#cd950c" d="M445.1436,-274.9731C450.5163,-272.5678 456.3456,-270.364 462,-269 483.0802,-263.9149 639.1282,-273.2815 657,-261 658.1656,-260.199 686.2683,-194.3286 702.5699,-155.9546"/>
<polygon fill="#cd950c" stroke="#cd950c" points="705.9435,-156.9645 706.6298,-146.3919 699.5001,-154.2289 705.9435,-156.9645"/>
</g>
<!-- ldap -->
<g id="node12" class="node">
<title>ldap</title>
<ellipse fill="none" stroke="#000000" cx="990" cy="-57" rx="27" ry="18"/>
<text text-anchor="middle" x="990" y="-53.3" font-family="Times,serif" font-size="14.00" fill="#000000">ldap</text>
</g>
<!-- poms&#45;&gt;ldap -->
<g id="edge12" class="edge">
<title>poms&#45;&gt;ldap</title>
<path fill="none" stroke="#cd950c" d="M420.8821,-268.7916C415.9527,-224.7086 404.9418,-114.9799 416,-103 434.2634,-83.2144 828.4186,-64.1475 952.7665,-58.6061"/>
<polygon fill="#cd950c" stroke="#cd950c" points="953.1,-62.0949 962.9355,-58.1564 952.7906,-55.1017 953.1,-62.0949"/>
</g>
<!-- metis -->
<g id="node20" class="node">
<title>metis</title>
<ellipse fill="none" stroke="#000000" cx="306" cy="-129" rx="27" ry="18"/>
<text text-anchor="middle" x="306" y="-125.3" font-family="Times,serif" font-size="14.00" fill="#000000">metis</text>
</g>
<!-- poms&#45;&gt;metis -->
<g id="edge13" class="edge">
<title>poms&#45;&gt;metis</title>
<path fill="none" stroke="#cd950c" d="M418.1833,-269.1643C411.7861,-247.8056 398.9189,-211.6993 379,-186 367.0087,-170.5288 349.9147,-156.8824 335.2824,-146.8238"/>
<polygon fill="#cd950c" stroke="#cd950c" points="336.8264,-143.6481 326.5575,-141.0402 332.9588,-149.4827 336.8264,-143.6481"/>
</g>
<!-- pd -->
<g id="node21" class="node">
<title>pd</title>
<ellipse fill="none" stroke="#000000" cx="271" cy="-212" rx="27" ry="18"/>
<text text-anchor="middle" x="271" y="-208.3" font-family="Times,serif" font-size="14.00" fill="#000000">pd</text>
</g>
<!-- poms&#45;&gt;pd -->
<g id="edge14" class="edge">
<title>poms&#45;&gt;pd</title>
<path fill="none" stroke="#cd950c" d="M394.3125,-282.9268C364.7889,-278.3246 321.1668,-270.258 307,-261 298.2118,-255.2569 290.8186,-246.5809 285.0628,-238.1174"/>
<polygon fill="#cd950c" stroke="#cd950c" points="287.943,-236.1222 279.6676,-229.5064 282.0112,-239.8388 287.943,-236.1222"/>
</g>
<!-- prepr -->
<g id="node22" class="node">
<title>prepr</title>
<ellipse fill="none" stroke="#000000" cx="199" cy="-212" rx="27" ry="18"/>
<text text-anchor="middle" x="199" y="-208.3" font-family="Times,serif" font-size="14.00" fill="#000000">prepr</text>
</g>
<!-- poms&#45;&gt;prepr -->
<g id="edge15" class="edge">
<title>poms&#45;&gt;prepr</title>
<path fill="none" stroke="#cd950c" d="M393.6808,-285.7093C347.7035,-283.2307 261.1838,-276.5992 235,-261 225.8463,-255.5466 218.3143,-246.776 212.5483,-238.1518"/>
<polygon fill="#cd950c" stroke="#cd950c" points="215.3816,-236.0756 207.1848,-229.3626 209.4063,-239.722 215.3816,-236.0756"/>
</g>
<!-- miranda -->
<g id="node23" class="node">
<title>miranda</title>
<ellipse fill="none" stroke="#000000" cx="121" cy="-212" rx="33.2948" ry="18"/>
<text text-anchor="middle" x="121" y="-208.3" font-family="Times,serif" font-size="14.00" fill="#000000">miranda</text>
</g>
<!-- poms&#45;&gt;miranda -->
<g id="edge16" class="edge">
<title>poms&#45;&gt;miranda</title>
<path fill="none" stroke="#cd950c" d="M393.5277,-285.2891C329.7531,-281.4098 183.0589,-271.4663 163,-261 152.7624,-255.6582 143.9606,-246.6757 137.0979,-237.8497"/>
<polygon fill="#cd950c" stroke="#cd950c" points="139.8123,-235.6297 131.1287,-229.5596 134.1316,-239.72 139.8123,-235.6297"/>
</g>
<!-- pluto -->
<g id="node24" class="node">
<title>pluto</title>
<ellipse fill="none" stroke="#000000" cx="43" cy="-212" rx="27" ry="18"/>
<text text-anchor="middle" x="43" y="-208.3" font-family="Times,serif" font-size="14.00" fill="#000000">pluto</text>
</g>
<!-- poms&#45;&gt;pluto -->
<g id="edge17" class="edge">
<title>poms&#45;&gt;pluto</title>
<path fill="none" stroke="#cd950c" d="M393.5631,-286.1763C315.2987,-283.7906 106.1715,-276.0669 79,-261 69.5836,-255.7785 61.9558,-246.939 56.1862,-238.1935"/>
<polygon fill="#cd950c" stroke="#cd950c" points="59.1858,-236.3899 51.0386,-229.6169 53.1838,-239.9923 59.1858,-236.3899"/>
</g>
<!-- nep -->
<g id="node25" class="node">
<title>nep</title>
<ellipse fill="none" stroke="#000000" cx="343" cy="-212" rx="27" ry="18"/>
<text text-anchor="middle" x="343" y="-208.3" font-family="Times,serif" font-size="14.00" fill="#000000">nep</text>
</g>
<!-- poms&#45;&gt;nep -->
<g id="edge18" class="edge">
<title>poms&#45;&gt;nep</title>
<path fill="none" stroke="#cd950c" d="M400.7579,-274.7753C394.3862,-270.7876 387.6434,-266.0692 382,-261 374.0758,-253.882 366.505,-245.0359 360.1776,-236.8267"/>
<polygon fill="#cd950c" stroke="#cd950c" points="362.8424,-234.5445 354.0713,-228.6016 357.222,-238.7171 362.8424,-234.5445"/>
</g>
<!-- poms_backend -->
<g id="node2" class="node">
<title>poms_backend</title>
<g id="a_node2"><a xlink:href="https://api.poms.omroep.nl/" xlink:title="POMS backend API">
<ellipse fill="none" stroke="#000000" cx="537" cy="-287" rx="66.0889" ry="18"/>
<text text-anchor="middle" x="537" y="-283.3" font-family="Times,serif" font-size="14.00" fill="#0000ff">POMS backend API</text>
</a>
</g>
</g>
<!-- poms_backend&#45;&gt;jms -->
<g id="edge19" class="edge">
<title>poms_backend&#45;&gt;jms</title>
<path fill="none" stroke="#ff7f00" d="M584.8157,-274.5192C593.8039,-272.4595 603.1559,-270.5079 612,-269 629.1764,-266.0714 677.2103,-272.8333 690,-261 718.1701,-234.9365 720.0205,-187.7429 717.7616,-157.4151"/>
<polygon fill="#ff7f00" stroke="#ff7f00" points="721.2099,-156.7016 716.7846,-147.0752 714.2409,-157.3601 721.2099,-156.7016"/>
</g>
<!-- poms_backend&#45;&gt;ldap -->
<g id="edge20" class="edge">
<title>poms_backend&#45;&gt;ldap</title>
<path fill="none" stroke="#ff7f00" d="M583.933,-274.1869C593.1733,-272.1045 602.8427,-270.23 612,-269 667.9698,-261.4824 811.3538,-275.2455 866,-261 943.5191,-240.7919 984.3922,-246.4571 1026,-178 1043.3128,-149.5153 1036.8652,-134.5128 1026,-103 1023.1015,-94.5932 1017.9648,-86.5486 1012.4634,-79.6043"/>
<polygon fill="#ff7f00" stroke="#ff7f00" points="1015.1142,-77.3188 1005.9499,-72.0021 1009.7984,-81.8732 1015.1142,-77.3188"/>
</g>
<!-- poms_backend&#45;&gt;metis -->
<g id="edge21" class="edge">
<title>poms_backend&#45;&gt;metis</title>
<path fill="none" stroke="#ff7f00" d="M517.7575,-269.7656C493.7337,-248.6844 450.9281,-212.5336 411,-186 387.073,-170.0996 358.3014,-154.7197 336.9313,-143.9514"/>
<polygon fill="#ff7f00" stroke="#ff7f00" points="338.4815,-140.8134 327.97,-139.487 335.36,-147.079 338.4815,-140.8134"/>
</g>
<!-- poms_backend&#45;&gt;nep -->
<g id="edge22" class="edge">
<title>poms_backend&#45;&gt;nep</title>
<path fill="none" stroke="#ff7f00" d="M488.5417,-274.519C479.434,-272.4593 469.9588,-270.5078 461,-269 443.5994,-266.0714 397.4875,-269.4555 382,-261 372.0202,-255.5514 363.6858,-246.3774 357.3178,-237.4308"/>
<polygon fill="#ff7f00" stroke="#ff7f00" points="360.2349,-235.4966 351.8255,-229.052 354.3806,-239.3342 360.2349,-235.4966"/>
</g>
<!-- api -->
<g id="node3" class="node">
<title>api</title>
<g id="a_node3"><a xlink:href="https://rs.poms.omroep.nl/" xlink:title="NPO Frontend API">
<ellipse fill="none" stroke="#000000" cx="811" cy="-287" rx="63.8893" ry="18"/>
<text text-anchor="middle" x="811" y="-283.3" font-family="Times,serif" font-size="14.00" fill="#0000ff">NPO Frontend API</text>
</a>
</g>
</g>
<!-- elasticsearch -->
<g id="node9" class="node">
<title>elasticsearch</title>
<ellipse fill="none" stroke="#000000" cx="804" cy="-129" rx="45.4919" ry="18"/>
<text text-anchor="middle" x="804" y="-125.3" font-family="Times,serif" font-size="14.00" fill="#000000">elasticsearch</text>
</g>
<!-- api&#45;&gt;elasticsearch -->
<g id="edge23" class="edge">
<title>api&#45;&gt;elasticsearch</title>
<path fill="none" stroke="#6495ed" d="M810.197,-268.8754C808.9903,-241.6388 806.6984,-189.907 805.2654,-157.5623"/>
<polygon fill="#6495ed" stroke="#6495ed" points="808.7545,-157.2352 804.8152,-147.3999 801.7613,-157.5451 808.7545,-157.2352"/>
</g>
<!-- pages_publish -->
<g id="node4" class="node">
<title>pages_publish</title>
<g id="a_node4"><a xlink:href="https://publish.pages.omroep.nl/" xlink:title="Pages Publisher">
<ellipse fill="none" stroke="#000000" cx="675" cy="-287" rx="53.8905" ry="18"/>
<text text-anchor="middle" x="675" y="-283.3" font-family="Times,serif" font-size="14.00" fill="#0000ff">Pages Publisher</text>
</a>
</g>
</g>
<!-- media_publish -->
<g id="node5" class="node">
<title>media_publish</title>
<ellipse fill="none" stroke="#000000" cx="592" cy="-212" rx="55.7903" ry="18"/>
<text text-anchor="middle" x="592" y="-208.3" font-family="Times,serif" font-size="14.00" fill="#000000">Media Publisher</text>
</g>
<!-- pages_publish&#45;&gt;media_publish -->
<g id="edge28" class="edge">
<title>pages_publish&#45;&gt;media_publish</title>
<path fill="none" stroke="#c0c0c0" d="M656.166,-269.9813C642.6782,-257.7936 624.5827,-241.4422 611.0468,-229.2109"/>
</g>
<!-- pages_publish&#45;&gt;elasticsearch -->
<g id="edge24" class="edge">
<title>pages_publish&#45;&gt;elasticsearch</title>
<path fill="none" stroke="#8fbc8f" d="M710.535,-273.2332C716.7864,-269.8285 722.9113,-265.7619 728,-261 759.6074,-231.4225 781.8682,-185.6974 793.8117,-156.5699"/>
<polygon fill="#8fbc8f" stroke="#8fbc8f" points="797.1688,-157.5989 797.6043,-147.0131 790.6624,-155.0168 797.1688,-157.5989"/>
</g>
<!-- pages_publish&#45;&gt;ldap -->
<g id="edge25" class="edge">
<title>pages_publish&#45;&gt;ldap</title>
<path fill="none" stroke="#8fbc8f" d="M713.6429,-274.3017C721.6158,-272.1521 730.0168,-270.223 738,-269 755.0842,-266.3829 1036.2169,-272.6324 1049,-261 1101.041,-213.6434 1092.2012,-165.037 1059,-103 1051.2725,-88.561 1036.7892,-77.8716 1023.0795,-70.4503"/>
<polygon fill="#8fbc8f" stroke="#8fbc8f" points="1024.3157,-67.1559 1013.8043,-65.8287 1021.1938,-73.4212 1024.3157,-67.1559"/>
</g>
<!-- media_publish&#45;&gt;elasticsearch -->
<g id="edge26" class="edge">
<title>media_publish&#45;&gt;elasticsearch</title>
<path fill="none" stroke="#bf3eff" d="M646.3017,-207.4075C677.9341,-203.0392 717.8022,-194.5351 750,-178 761.789,-171.9458 772.9665,-162.649 782.0611,-153.774"/>
<polygon fill="#bf3eff" stroke="#bf3eff" points="784.6873,-156.0945 789.1784,-146.4987 779.6834,-151.1994 784.6873,-156.0945"/>
</g>
<!-- media_publish&#45;&gt;jms -->
<g id="edge27" class="edge">
<title>media_publish&#45;&gt;jms</title>
<path fill="none" stroke="#bf3eff" d="M629.0767,-198.432C650.3774,-190.4457 673.7406,-181.2841 678,-178 686.1899,-171.6853 693.3837,-163.0276 699.1443,-154.745"/>
<polygon fill="#bf3eff" stroke="#bf3eff" points="702.0795,-156.6515 704.6104,-146.3634 696.2162,-152.8277 702.0795,-156.6515"/>
</g>
<!-- images_frontend -->
<g id="node6" class="node">
<title>images_frontend</title>
<g id="a_node6"><a xlink:href="https://images.poms.omroep.nl" xlink:title="Images">
<ellipse fill="none" stroke="#000000" cx="1053" cy="-287" rx="30.5947" ry="18"/>
<text text-anchor="middle" x="1053" y="-283.3" font-family="Times,serif" font-size="14.00" fill="#0000ff">Images</text>
</a>
</g>
</g>
<!-- images_frontend&#45;&gt;postgresql -->
<g id="edge29" class="edge">
<title>images_frontend&#45;&gt;postgresql</title>
<path fill="none" stroke="#caff70" d="M1038.0959,-270.9806C1012.2825,-243.2357 959.1067,-186.0806 928.6833,-153.3807"/>
<polygon fill="#caff70" stroke="#caff70" points="931.2049,-150.9527 921.8308,-146.0154 926.08,-155.7209 931.2049,-150.9527"/>
</g>
<!-- images_backend -->
<g id="node7" class="node">
<title>images_backend</title>
<g id="a_node7"><a xlink:href="https://images-backend.poms.omroep.nl" xlink:title="Images Backend">
<ellipse fill="none" stroke="#000000" cx="949" cy="-287" rx="55.7903" ry="18"/>
<text text-anchor="middle" x="949" y="-283.3" font-family="Times,serif" font-size="14.00" fill="#0000ff">Images Backend</text>
</a>
</g>
</g>
<!-- images_backend&#45;&gt;postgresql -->
<g id="edge30" class="edge">
<title>images_backend&#45;&gt;postgresql</title>
<path fill="none" stroke="#caff70" d="M944.0674,-268.8754C936.5828,-241.3741 922.3017,-188.8991 913.5181,-156.6248"/>
<polygon fill="#caff70" stroke="#caff70" points="916.8784,-155.6432 910.8751,-146.9132 910.124,-157.4814 916.8784,-155.6432"/>
</g>
<!-- images_backend&#45;&gt;sso -->
<g id="edge31" class="edge">
<title>images_backend&#45;&gt;sso</title>
<path fill="none" stroke="#caff70" d="M956.3134,-268.9272C957.2753,-266.2882 958.2024,-263.5882 959,-261 969.8935,-225.6492 979.0939,-183.9612 984.5752,-157.0357"/>
<polygon fill="#caff70" stroke="#caff70" points="988.0245,-157.6355 986.5567,-147.1429 981.1608,-156.2607 988.0245,-157.6355"/>
</g>
<!-- images_backend&#45;&gt;jms -->
<g id="edge32" class="edge">
<title>images_backend&#45;&gt;jms</title>
<path fill="none" stroke="#caff70" d="M913.0259,-272.9843C870.7691,-255.3094 800.0872,-221.8532 750,-178 742.3011,-171.2593 735.2709,-162.5977 729.5069,-154.4363"/>
<polygon fill="#caff70" stroke="#caff70" points="732.2536,-152.248 723.7776,-145.8914 726.4395,-156.1464 732.2536,-152.248"/>
</g>
<!-- images_backend&#45;&gt;ldap -->
<g id="edge33" class="edge">
<title>images_backend&#45;&gt;ldap</title>
<path fill="none" stroke="#caff70" d="M988.98,-274.296C996.8711,-272.2041 1005.1424,-270.2981 1013,-269 1029.4672,-266.2796 1151.5167,-273.1121 1163,-261 1211.3143,-210.0403 1205.802,-158.67 1163,-103 1146.5244,-81.5711 1072.563,-68.0251 1026.8451,-61.5432"/>
<polygon fill="#caff70" stroke="#caff70" points="1027.0985,-58.0453 1016.7162,-60.1567 1026.1491,-64.9806 1027.0985,-58.0453"/>
</g>
<!-- sso&#45;&gt;ldap -->
<g id="edge37" class="edge">
<title>sso&#45;&gt;ldap</title>
<path fill="none" stroke="#c0c0c0" d="M990,-110.8314C990,-103.131 990,-93.9743 990,-85.4166"/>
<polygon fill="#c0c0c0" stroke="#c0c0c0" points="993.5001,-85.4132 990,-75.4133 986.5001,-85.4133 993.5001,-85.4132"/>
</g>
<!-- keycloak -->
<g id="node13" class="node">
<title>keycloak</title>
<ellipse fill="none" stroke="#000000" cx="583" cy="-129" rx="85.5853" ry="18"/>
<text text-anchor="middle" x="583" y="-125.3" font-family="Times,serif" font-size="14.00" fill="#000000">Keycloak (will replace sso)</text>
</g>
<!-- gosa -->
<g id="node14" class="node">
<title>gosa</title>
<g id="a_node14"><a xlink:href="https://admin.sso.omroep.nl/" xlink:title="GOSa">
<ellipse fill="none" stroke="#000000" cx="452" cy="-129" rx="27.0966" ry="18"/>
<text text-anchor="middle" x="452" y="-125.3" font-family="Times,serif" font-size="14.00" fill="#000000">GOSa</text>
</a>
</g>
</g>
<!-- gosa&#45;&gt;ldap -->
<g id="edge40" class="edge">
<title>gosa&#45;&gt;ldap</title>
<path fill="none" stroke="#000000" d="M468.4873,-114.2692C474.2739,-109.9017 481.0692,-105.5964 488,-103 573.2892,-71.0495 851.7205,-60.6457 952.8584,-57.8721"/>
<polygon fill="#000000" stroke="#000000" points="953.0097,-61.3695 962.9134,-57.6057 952.8242,-54.3719 953.0097,-61.3695"/>
</g>
<!-- magnolia_frontend -->
<g id="node15" class="node">
<title>magnolia_frontend</title>
<ellipse fill="none" stroke="#000000" cx="680" cy="-370" rx="62.2891" ry="18"/>
<text text-anchor="middle" x="680" y="-366.3" font-family="Times,serif" font-size="14.00" fill="#000000">magnolia_frontend</text>
</g>
<!-- magnolia_frontend&#45;&gt;api -->
<g id="edge36" class="edge">
<title>magnolia_frontend&#45;&gt;api</title>
<path fill="none" stroke="#c0c0c0" d="M708.2328,-353.9124C717.7624,-348.3601 728.4116,-342.0206 738,-336 751.444,-327.5584 766.0126,-317.8887 778.5733,-309.3819"/>
<polygon fill="#c0c0c0" stroke="#c0c0c0" points="780.6123,-312.2279 786.9098,-303.7078 776.6736,-306.4411 780.6123,-312.2279"/>
</g>
<!-- magnolia_backend -->
<g id="node16" class="node">
<title>magnolia_backend</title>
<ellipse fill="none" stroke="#000000" cx="537" cy="-370" rx="62.2891" ry="18"/>
<text text-anchor="middle" x="537" y="-366.3" font-family="Times,serif" font-size="14.00" fill="#000000">magnolia_backend</text>
</g>
<!-- magnolia_backend&#45;&gt;poms_backend -->
<g id="edge34" class="edge">
<title>magnolia_backend&#45;&gt;poms_backend</title>
<path fill="none" stroke="#c0c0c0" d="M537,-351.9902C537,-341.2963 537,-327.4994 537,-315.3706"/>
<polygon fill="#c0c0c0" stroke="#c0c0c0" points="540.5001,-315.2612 537,-305.2612 533.5001,-315.2613 540.5001,-315.2612"/>
</g>
<!-- magnolia_backend&#45;&gt;pages_publish -->
<g id="edge35" class="edge">
<title>magnolia_backend&#45;&gt;pages_publish</title>
<path fill="none" stroke="#c0c0c0" d="M573.7373,-355.4102C586.2055,-349.9234 600.0072,-343.2433 612,-336 624.3816,-328.5219 637.1411,-318.9948 647.9115,-310.3332"/>
<polygon fill="#c0c0c0" stroke="#c0c0c0" points="650.2093,-312.9752 655.7207,-303.9267 645.7695,-307.5633 650.2093,-312.9752"/>
</g>
<!-- users -->
<g id="node17" class="node">
<title>users</title>
<ellipse fill="none" stroke="#000000" cx="715" cy="-442" rx="27" ry="18"/>
<text text-anchor="middle" x="715" y="-438.3" font-family="Times,serif" font-size="14.00" fill="#000000">users</text>
</g>
<!-- users&#45;&gt;api -->
<g id="edge4" class="edge">
<title>users&#45;&gt;api</title>
<path fill="none" stroke="#c0c0c0" d="M741.6897,-438.9646C771.449,-433.9952 818.2502,-421.0884 840,-388 854.9058,-365.3235 842.6983,-334.8995 829.8536,-313.3876"/>
<polygon fill="#c0c0c0" stroke="#c0c0c0" points="832.6965,-311.3351 824.3869,-304.7624 826.7841,-315.0825 832.6965,-311.3351"/>
</g>
<!-- users&#45;&gt;images_frontend -->
<g id="edge5" class="edge">
<title>users&#45;&gt;images_frontend</title>
<path fill="none" stroke="#c0c0c0" d="M741.2496,-437.7445C796.2249,-427.8135 925.6717,-399.0077 1014,-336 1022.8956,-329.6545 1030.8173,-320.7394 1037.1589,-312.2502"/>
<polygon fill="#c0c0c0" stroke="#c0c0c0" points="1040.0615,-314.2072 1042.9513,-304.014 1034.3357,-310.1803 1040.0615,-314.2072"/>
</g>
<!-- users&#45;&gt;magnolia_frontend -->
<g id="edge6" class="edge">
<title>users&#45;&gt;magnolia_frontend</title>
<path fill="none" stroke="#c0c0c0" d="M706.5275,-424.5708C702.5334,-416.3544 697.6754,-406.3608 693.2135,-397.1821"/>
<polygon fill="#c0c0c0" stroke="#c0c0c0" points="696.2798,-395.4841 688.76,-388.0206 689.9842,-398.5445 696.2798,-395.4841"/>
</g>
<!-- backendsystems -->
<g id="node18" class="node">
<title>backendsystems</title>
<ellipse fill="none" stroke="#000000" cx="615" cy="-442" rx="55.4913" ry="18"/>
<text text-anchor="middle" x="615" y="-438.3" font-family="Times,serif" font-size="14.00" fill="#000000">backendsystems</text>
</g>
<!-- backendsystems&#45;&gt;poms_backend -->
<g id="edge7" class="edge">
<title>backendsystems&#45;&gt;poms_backend</title>
<path fill="none" stroke="#c0c0c0" d="M656.8103,-429.9768C705.5828,-415.7552 780.1058,-393.3325 784,-388 795.5331,-372.2074 797.5028,-358.1454 784,-344 770.7898,-330.1611 630.2046,-341.8836 612,-336 595.1249,-330.5461 578.4034,-320.2297 565.0464,-310.4644"/>
<polygon fill="#c0c0c0" stroke="#c0c0c0" points="566.8655,-307.4507 556.7871,-304.1833 562.6283,-313.0225 566.8655,-307.4507"/>
</g>
<!-- backendsystems&#45;&gt;pages_publish -->
<g id="edge8" class="edge">
<title>backendsystems&#45;&gt;pages_publish</title>
<path fill="none" stroke="#c0c0c0" d="M656.6108,-430.1177C664.0564,-428.0427 671.7505,-425.9316 679,-424 742.3292,-407.1263 781.7092,-439.691 822,-388 834.022,-372.5763 835.156,-358.4685 822,-344 809.3851,-330.1266 755.4274,-342.9203 738,-336 723.8029,-330.3624 710.1502,-320.4935 699.2059,-311.083"/>
<polygon fill="#c0c0c0" stroke="#c0c0c0" points="701.5235,-308.4601 691.7463,-304.3788 696.8444,-313.6664 701.5235,-308.4601"/>
</g>
<!-- editors -->
<g id="node19" class="node">
<title>editors</title>
<ellipse fill="none" stroke="#000000" cx="513" cy="-442" rx="29.4969" ry="18"/>
<text text-anchor="middle" x="513" y="-438.3" font-family="Times,serif" font-size="14.00" fill="#000000">editors</text>
</g>
<!-- editors&#45;&gt;poms -->
<g id="edge1" class="edge">
<title>editors&#45;&gt;poms</title>
<path fill="none" stroke="#c0c0c0" d="M535.5102,-430.1431C540.5106,-427.8489 545.8559,-425.6491 551,-424 637.0059,-396.4278 693.0683,-457.2904 751,-388 763.5434,-372.9972 764.6352,-358.0179 751,-344 739.8009,-332.4866 476.3699,-343.1753 462,-336 451.8274,-330.9205 443.4577,-321.814 437.1155,-312.8182"/>
<polygon fill="#c0c0c0" stroke="#c0c0c0" points="440.024,-310.8702 431.6634,-304.3624 434.1408,-314.6635 440.024,-310.8702"/>
</g>
<!-- editors&#45;&gt;sso -->
<g id="edge2" class="edge">
<title>editors&#45;&gt;sso</title>
<path fill="none" stroke="#c0c0c0" d="M535.488,-430.0728C540.4898,-427.7829 545.8413,-425.6027 551,-424 668.1558,-387.6015 1016.4662,-429.4061 1096,-336 1139.2203,-285.2412 1130.2019,-243.2248 1096,-186 1080.8314,-160.6206 1050.0452,-145.8828 1025.5412,-137.7765"/>
<polygon fill="#c0c0c0" stroke="#c0c0c0" points="1026.4149,-134.3835 1015.828,-134.7931 1024.3595,-141.075 1026.4149,-134.3835"/>
</g>
<!-- editors&#45;&gt;magnolia_backend -->
<g id="edge3" class="edge">
<title>editors&#45;&gt;magnolia_backend</title>
<path fill="none" stroke="#c0c0c0" d="M518.9326,-424.2022C521.5951,-416.2146 524.7985,-406.6045 527.7638,-397.7087"/>
<polygon fill="#c0c0c0" stroke="#c0c0c0" points="531.127,-398.6868 530.969,-388.0931 524.4862,-396.4731 531.127,-398.6868"/>
</g>
<!-- pd&#45;&gt;metis -->
<g id="edge39" class="edge">
<title>pd&#45;&gt;metis</title>
<path fill="none" stroke="#c0c0c0" d="M278.4226,-194.3978C283.1093,-183.2836 289.2589,-168.7004 294.5614,-156.1259"/>
<polygon fill="#c0c0c0" stroke="#c0c0c0" points="297.9275,-157.151 298.5881,-146.5768 291.4775,-154.4311 297.9275,-157.151"/>
</g>
<!-- prepr&#45;&gt;metis -->
<g id="edge38" class="edge">
<title>prepr&#45;&gt;metis</title>
<path fill="none" stroke="#c0c0c0" d="M216.6689,-198.2942C234.0161,-184.838 260.665,-164.1664 280.3448,-148.9008"/>
<polygon fill="#c0c0c0" stroke="#c0c0c0" points="282.5486,-151.6209 288.3049,-142.7261 278.2582,-146.0898 282.5486,-151.6209"/>
</g>
</g>
</svg>
