<?xml version="1.0" encoding="UTF-8" standalone="no"?>
<!DOCTYPE svg PUBLIC "-//W3C//DTD SVG 1.1//EN"
 "http://www.w3.org/Graphics/SVG/1.1/DTD/svg11.dtd">
<!-- Generated by graphviz version 2.40.1 (20161225.0304)
 -->
<!-- Title: %3 Pages: 1 -->
<svg width="941pt" height="598pt"
 viewBox="0.00 0.00 941.00 598.00" xmlns="http://www.w3.org/2000/svg" xmlns:xlink="http://www.w3.org/1999/xlink">
<g id="graph0" class="graph" transform="scale(1 1) rotate(0) translate(4 594)">
<title>%3</title>
<polygon fill="#ffffff" stroke="transparent" points="-4,4 -4,-594 937,-594 937,4 -4,4"/>
<text text-anchor="middle" x="466.5" y="-7.8" font-family="Times,serif" font-size="14.00" fill="#000000"> &#160;Dependencies of the different code projects relevant to POMS</text>
<g id="clust1" class="cluster">
<title>cluster_0</title>
<polygon fill="none" stroke="#000000" points="456,-47 456,-137 925,-137 925,-47 456,-47"/>
<text text-anchor="middle" x="690.5" y="-121.8" font-family="Times,serif" font-size="14.00" fill="#000000">Generic utilities</text>
<text text-anchor="middle" x="690.5" y="-106.8" font-family="Times,serif" font-size="14.00" fill="#000000">(incoming edges are just examples, there are more)</text>
</g>
<g id="clust2" class="cluster">
<title>cluster_1</title>
<polygon fill="none" stroke="#000000" points="22,-507 22,-582 110,-582 110,-507 22,-507"/>
<text text-anchor="middle" x="66" y="-566.8" font-family="Times,serif" font-size="14.00" fill="#000000">VPRO</text>
</g>
<g id="clust3" class="cluster">
<title>cluster_2</title>
<polygon fill="none" stroke="#000000" points="340,-340 340,-582 794,-582 794,-340 340,-340"/>
<text text-anchor="middle" x="567" y="-566.8" font-family="Times,serif" font-size="14.00" fill="#000000">POMS Services</text>
</g>
<g id="clust4" class="cluster">
<title>cluster_4</title>
<polygon fill="none" stroke="#000000" points="20,-156 20,-488 150,-488 150,-156 20,-156"/>
<text text-anchor="middle" x="85" y="-472.8" font-family="Times,serif" font-size="14.00" fill="#000000">Sharable utilities</text>
</g>
<!-- vpro_shared -->
<g id="node1" class="node">
<title>vpro_shared</title>
<g id="a_node1"><a xlink:href="https://github.com/vpro/vpro-shared" xlink:title="vpro_shared">
<ellipse fill="none" stroke="#000000" cx="98" cy="-182" rx="44.393" ry="18"/>
<text text-anchor="middle" x="98" y="-178.3" font-family="Times,serif" font-size="14.00" fill="#0000ff">vpro_shared</text>
</a>
</g>
</g>
<!-- slf4j -->
<g id="node10" class="node">
<title>slf4j</title>
<ellipse fill="none" stroke="#000000" cx="563" cy="-73" rx="27" ry="18"/>
<text text-anchor="middle" x="563" y="-69.3" font-family="Times,serif" font-size="14.00" fill="#000000">slf4j</text>
</g>
<!-- vpro_shared&#45;&gt;slf4j -->
<g id="edge1" class="edge">
<title>vpro_shared&#45;&gt;slf4j</title>
<path fill="none" stroke="#c0c0c0" d="M141.8456,-179.6751C244.7128,-173.8997 495.2793,-157.8486 527,-137 539.9038,-128.5189 548.656,-113.736 554.2966,-100.5132"/>
<polygon fill="#c0c0c0" stroke="#c0c0c0" points="557.6955,-101.4258 558.0206,-90.836 551.1626,-98.9117 557.6955,-101.4258"/>
</g>
<!-- guava -->
<g id="node11" class="node">
<title>guava</title>
<ellipse fill="none" stroke="#000000" cx="491" cy="-73" rx="27.0966" ry="18"/>
<text text-anchor="middle" x="491" y="-69.3" font-family="Times,serif" font-size="14.00" fill="#000000">guava</text>
</g>
<!-- vpro_shared&#45;&gt;guava -->
<g id="edge2" class="edge">
<title>vpro_shared&#45;&gt;guava</title>
<path fill="none" stroke="#c0c0c0" d="M134.6196,-171.8434C209.964,-150.9464 381.4817,-103.3753 455.6936,-82.7924"/>
<polygon fill="#c0c0c0" stroke="#c0c0c0" points="456.7985,-86.1181 465.4993,-80.0727 454.9276,-79.3728 456.7985,-86.1181"/>
</g>
<!-- poms_shared -->
<g id="node2" class="node">
<title>poms_shared</title>
<g id="a_node2"><a xlink:href="https://github.com/npo-poms/poms-shared" xlink:title="poms_shared">
<ellipse fill="none" stroke="#000000" cx="95" cy="-293" rx="46.5926" ry="18"/>
<text text-anchor="middle" x="95" y="-289.3" font-family="Times,serif" font-size="14.00" fill="#0000ff">poms_shared</text>
</a>
</g>
</g>
<!-- poms_shared&#45;&gt;vpro_shared -->
<g id="edge3" class="edge">
<title>poms_shared&#45;&gt;vpro_shared</title>
<path fill="none" stroke="#c0c0c0" d="M95.4954,-274.6706C95.9666,-257.2373 96.6825,-230.7482 97.2284,-210.5489"/>
<polygon fill="#c0c0c0" stroke="#c0c0c0" points="100.7323,-210.4476 97.5039,-200.3566 93.7349,-210.2584 100.7323,-210.4476"/>
</g>
<!-- api_client -->
<g id="node3" class="node">
<title>api_client</title>
<g id="a_node3"><a xlink:href="https://github.com/npo-poms/api-client" xlink:title="api_client">
<ellipse fill="none" stroke="#000000" cx="66" cy="-439" rx="37.8943" ry="18"/>
<text text-anchor="middle" x="66" y="-435.3" font-family="Times,serif" font-size="14.00" fill="#0000ff">api_client</text>
</a>
</g>
</g>
<!-- api_client&#45;&gt;vpro_shared -->
<g id="edge16" class="edge">
<title>api_client&#45;&gt;vpro_shared</title>
<path fill="none" stroke="#c0c0c0" d="M51.8007,-422.213C41.3665,-408.1416 29,-387.0287 29,-366 29,-366 29,-366 29,-237.5 29,-220.6949 41.5808,-208.1221 55.9984,-199.2313"/>
<polygon fill="#c0c0c0" stroke="#c0c0c0" points="58.0743,-202.0819 65.1167,-194.1663 54.6752,-195.9626 58.0743,-202.0819"/>
</g>
<!-- api_client&#45;&gt;poms_shared -->
<g id="edge17" class="edge">
<title>api_client&#45;&gt;poms_shared</title>
<path fill="none" stroke="#c0c0c0" d="M69.6142,-420.8042C74.5906,-395.7506 83.5983,-350.4015 89.437,-321.007"/>
<polygon fill="#c0c0c0" stroke="#c0c0c0" points="92.9159,-321.4568 91.4313,-310.9665 86.0501,-320.0929 92.9159,-321.4568"/>
</g>
<!-- poms_backend -->
<g id="node4" class="node">
<title>poms_backend</title>
<g id="a_node4"><a xlink:href="https://subversion.vpro.nl/viewvc/nl/vpro/media" xlink:title="POMS &#160;&amp; POMS Backend API">
<ellipse fill="none" stroke="#cd950c" cx="689" cy="-533" rx="96.6831" ry="18"/>
<text text-anchor="middle" x="689" y="-529.3" font-family="Times,serif" font-size="14.00" fill="#0000ff">POMS &#160;&amp; POMS Backend API</text>
</a>
</g>
</g>
<!-- poms_backend&#45;&gt;vpro_shared -->
<g id="edge21" class="edge">
<title>poms_backend&#45;&gt;vpro_shared</title>
<path fill="none" stroke="#cd950c" d="M634.2859,-518.0626C617.8911,-513.9986 599.8018,-509.9187 583,-507 502.436,-493.0052 477.3005,-514.6656 400,-488 361.2984,-474.6495 322,-479.9396 322,-439 322,-439 322,-439 322,-237.5 322,-202.6548 218.5838,-189.5389 152.2878,-184.7108"/>
<polygon fill="#cd950c" stroke="#cd950c" points="152.2038,-181.197 141.9879,-184.0051 151.7252,-188.1806 152.2038,-181.197"/>
</g>
<!-- poms_backend&#45;&gt;poms_shared -->
<g id="edge22" class="edge">
<title>poms_backend&#45;&gt;poms_shared</title>
<path fill="none" stroke="#cd950c" d="M636.3018,-517.8267C619.4166,-513.5722 600.5471,-509.4449 583,-507 552.7168,-502.7806 334.5051,-512.2432 308,-497 273.3682,-477.083 284.8479,-452.2831 260,-421 228.5295,-381.3792 220.3309,-370.5551 180,-340 165.864,-329.2904 148.9967,-319.4478 134.0281,-311.5673"/>
<polygon fill="#cd950c" stroke="#cd950c" points="135.4887,-308.3829 124.9948,-306.924 132.2885,-314.6085 135.4887,-308.3829"/>
</g>
<!-- poms_gui -->
<g id="node5" class="node">
<title>poms_gui</title>
<g id="a_node5"><a xlink:href="https://subversion.vpro.nl/viewvc/nl/vpro/media-gui" xlink:title="Angular GUI for POMS">
<ellipse fill="none" stroke="#000000" cx="553" cy="-366" rx="76.8869" ry="18"/>
<text text-anchor="middle" x="553" y="-362.3" font-family="Times,serif" font-size="14.00" fill="#0000ff">Angular GUI for POMS</text>
</a>
</g>
</g>
<!-- poms_backend&#45;&gt;poms_gui -->
<g id="edge23" class="edge">
<title>poms_backend&#45;&gt;poms_gui</title>
<path fill="none" stroke="#cd950c" d="M674.4456,-515.1281C650.3145,-485.4964 601.9254,-426.0775 574.0637,-391.865"/>
<polygon fill="#cd950c" stroke="#cd950c" points="576.4784,-389.2873 567.4497,-383.7434 571.0505,-393.7076 576.4784,-389.2873"/>
</g>
<!-- resteasy -->
<g id="node12" class="node">
<title>resteasy</title>
<ellipse fill="none" stroke="#000000" cx="721" cy="-73" rx="32.4942" ry="18"/>
<text text-anchor="middle" x="721" y="-69.3" font-family="Times,serif" font-size="14.00" fill="#000000">resteasy</text>
</g>
<!-- poms_backend&#45;&gt;resteasy -->
<g id="edge24" class="edge">
<title>poms_backend&#45;&gt;resteasy</title>
<path fill="none" stroke="#cd950c" d="M724.8534,-516.0771C733.252,-510.8576 741.604,-504.477 748,-497 766.1345,-475.8007 772,-466.8975 772,-439 772,-439 772,-439 772,-182 772,-150.9223 754.7811,-119.1592 740.3536,-97.9998"/>
<polygon fill="#cd950c" stroke="#cd950c" points="743.0427,-95.7414 734.3996,-89.6136 737.3349,-99.7938 743.0427,-95.7414"/>
</g>
<!-- spring -->
<g id="node13" class="node">
<title>spring</title>
<ellipse fill="none" stroke="#000000" cx="799" cy="-73" rx="27.8951" ry="18"/>
<text text-anchor="middle" x="799" y="-69.3" font-family="Times,serif" font-size="14.00" fill="#000000">spring</text>
</g>
<!-- poms_backend&#45;&gt;spring -->
<g id="edge25" class="edge">
<title>poms_backend&#45;&gt;spring</title>
<path fill="none" stroke="#cd950c" d="M737.1701,-517.2122C770.9131,-502.7779 810,-477.7045 810,-439 810,-439 810,-439 810,-182 810,-154.3768 806.4596,-123.014 803.3959,-101.0454"/>
<polygon fill="#cd950c" stroke="#cd950c" points="806.8486,-100.4661 801.9478,-91.0729 799.9212,-101.4721 806.8486,-100.4661"/>
</g>
<!-- hibernate -->
<g id="node14" class="node">
<title>hibernate</title>
<ellipse fill="none" stroke="#000000" cx="881" cy="-73" rx="36.2938" ry="18"/>
<text text-anchor="middle" x="881" y="-69.3" font-family="Times,serif" font-size="14.00" fill="#000000">hibernate</text>
</g>
<!-- poms_backend&#45;&gt;hibernate -->
<g id="edge26" class="edge">
<title>poms_backend&#45;&gt;hibernate</title>
<path fill="none" stroke="#cd950c" d="M768.6526,-522.7031C817.2128,-511.4467 870,-487.9524 870,-439 870,-439 870,-439 870,-182 870,-154.3768 873.5404,-123.014 876.6041,-101.0454"/>
<polygon fill="#cd950c" stroke="#cd950c" points="880.0788,-101.4721 878.0522,-91.0729 873.1514,-100.4661 880.0788,-101.4721"/>
</g>
<!-- angular -->
<g id="node15" class="node">
<title>angular</title>
<ellipse fill="none" stroke="#000000" cx="639" cy="-73" rx="31.3957" ry="18"/>
<text text-anchor="middle" x="639" y="-69.3" font-family="Times,serif" font-size="14.00" fill="#000000">angular</text>
</g>
<!-- poms_gui&#45;&gt;angular -->
<g id="edge27" class="edge">
<title>poms_gui&#45;&gt;angular</title>
<path fill="none" stroke="#c0c0c0" d="M609.2353,-353.5917C639.6274,-343.2128 671,-324.7981 671,-293 671,-293 671,-293 671,-182 671,-153.0961 660.5126,-121.5631 651.5454,-99.884"/>
<polygon fill="#c0c0c0" stroke="#c0c0c0" points="654.7442,-98.4628 647.5754,-90.6616 648.3146,-101.2306 654.7442,-98.4628"/>
</g>
<!-- poms_shared_backend -->
<g id="node6" class="node">
<title>poms_shared_backend</title>
<g id="a_node6"><a xlink:href="https://subversion.vpro.nl/viewvc/nl/publiekeomroep/poms-shared-backend/" xlink:title="poms_shared_backend">
<ellipse fill="none" stroke="#00cdcd" cx="509" cy="-293" rx="72.5877" ry="18"/>
<text text-anchor="middle" x="509" y="-289.3" font-family="Times,serif" font-size="14.00" fill="#0000ff">poms_shared_backend</text>
</a>
</g>
</g>
<!-- poms_shared_backend&#45;&gt;vpro_shared -->
<g id="edge4" class="edge">
<title>poms_shared_backend&#45;&gt;vpro_shared</title>
<path fill="none" stroke="#00cdcd" d="M478.0231,-276.6436C444.088,-259.4289 387.6017,-232.8158 336,-218 274.1261,-200.2349 200.5401,-190.8146 151.7403,-186.1287"/>
<polygon fill="#00cdcd" stroke="#00cdcd" points="151.9968,-182.6376 141.7163,-185.1994 151.3505,-189.6077 151.9968,-182.6376"/>
</g>
<!-- poms_shared_backend&#45;&gt;poms_shared -->
<g id="edge5" class="edge">
<title>poms_shared_backend&#45;&gt;poms_shared</title>
<path fill="none" stroke="#00cdcd" d="M435.8665,-293C341.2264,-293 246.5863,-293 151.9462,-293"/>
<polygon fill="#00cdcd" stroke="#00cdcd" points="151.8985,-289.5001 141.8984,-293 151.8984,-296.5001 151.8985,-289.5001"/>
</g>
<!-- poms_shared_backend&#45;&gt;slf4j -->
<g id="edge6" class="edge">
<title>poms_shared_backend&#45;&gt;slf4j</title>
<path fill="none" stroke="#00cdcd" d="M513.419,-274.9965C522.8366,-236.6285 544.9385,-146.584 556.178,-100.7934"/>
<polygon fill="#00cdcd" stroke="#00cdcd" points="559.6109,-101.4898 558.5956,-90.9437 552.8127,-99.8211 559.6109,-101.4898"/>
</g>
<!-- api -->
<g id="node7" class="node">
<title>api</title>
<g id="a_node7"><a xlink:href="https://subversion.vpro.nl/viewvc/nl/vpro/api/" xlink:title="Frontend API">
<ellipse fill="none" stroke="#6495ed" cx="526" cy="-533" rx="48.1917" ry="18"/>
<text text-anchor="middle" x="526" y="-529.3" font-family="Times,serif" font-size="14.00" fill="#0000ff">Frontend API</text>
</a>
</g>
</g>
<!-- api&#45;&gt;vpro_shared -->
<g id="edge7" class="edge">
<title>api&#45;&gt;vpro_shared</title>
<path fill="none" stroke="#6495ed" d="M498.62,-518.0467C489.4612,-513.7211 479.0267,-509.4969 469,-507 423.7461,-495.7308 297.0678,-516.3 260,-488 238.8689,-471.8672 163.6404,-298.3882 151,-275 138.7547,-252.343 124.2352,-226.9621 113.4924,-208.4463"/>
<polygon fill="#6495ed" stroke="#6495ed" points="116.4549,-206.5783 108.4,-199.6958 110.4048,-210.0992 116.4549,-206.5783"/>
</g>
<!-- api&#45;&gt;poms_shared -->
<g id="edge8" class="edge">
<title>api&#45;&gt;poms_shared</title>
<path fill="none" stroke="#6495ed" d="M498.935,-518.0764C489.7087,-513.6961 479.1545,-509.4319 469,-507 443.368,-500.8615 254.105,-511.3544 232,-497 166.6541,-454.5661 202.9687,-400.6035 154,-340 146.4246,-330.6247 136.67,-321.9156 127.2823,-314.6054"/>
<polygon fill="#6495ed" stroke="#6495ed" points="129.2969,-311.7416 119.1911,-308.5599 125.107,-317.3492 129.2969,-311.7416"/>
</g>
<!-- api&#45;&gt;poms_shared_backend -->
<g id="edge9" class="edge">
<title>api&#45;&gt;poms_shared_backend</title>
<path fill="none" stroke="#6495ed" d="M553.7504,-518.2174C562.8435,-513.956 573.1461,-509.7263 583,-507 602.1816,-501.693 658.7359,-511.8379 672,-497 718.5042,-444.9779 700.0969,-403.871 672,-340 664.3199,-322.5413 622.6855,-310.7177 583.4213,-303.2963"/>
<polygon fill="#6495ed" stroke="#6495ed" points="583.9754,-299.8398 573.512,-301.5036 582.7292,-306.728 583.9754,-299.8398"/>
</g>
<!-- api&#45;&gt;resteasy -->
<g id="edge10" class="edge">
<title>api&#45;&gt;resteasy</title>
<path fill="none" stroke="#6495ed" d="M553.726,-518.1279C562.8178,-513.8617 573.1258,-509.6518 583,-507 635.5739,-492.8809 663.8934,-524.8078 704,-488 722.8133,-470.7341 734,-464.5353 734,-439 734,-439 734,-439 734,-182 734,-154.3216 729.8159,-122.9663 726.1952,-101.0144"/>
<polygon fill="#6495ed" stroke="#6495ed" points="729.6262,-100.3138 724.4838,-91.0507 722.7272,-101.4989 729.6262,-100.3138"/>
</g>
<!-- media_publish -->
<g id="node8" class="node">
<title>media_publish</title>
<g id="a_node8"><a xlink:href="https://subversion.vpro.nl/viewvc/nl/publiekeomroep/npo-publish/" xlink:title="Media Publisher">
<ellipse fill="none" stroke="#bf3eff" cx="404" cy="-533" rx="55.7903" ry="18"/>
<text text-anchor="middle" x="404" y="-529.3" font-family="Times,serif" font-size="14.00" fill="#0000ff">Media Publisher</text>
</a>
</g>
</g>
<!-- media_publish&#45;&gt;poms_shared -->
<g id="edge13" class="edge">
<title>media_publish&#45;&gt;poms_shared</title>
<path fill="none" stroke="#bf3eff" d="M349.0289,-529.5984C294.9709,-525.2139 217.2714,-515.7989 194,-497 135.5131,-449.7537 167.3887,-405.7936 131,-340 126.9427,-332.664 121.8164,-325.2317 116.7142,-318.5091"/>
<polygon fill="#bf3eff" stroke="#bf3eff" points="119.2869,-316.1191 110.3465,-310.434 113.7902,-320.4535 119.2869,-316.1191"/>
</g>
<!-- media_publish&#45;&gt;poms_shared_backend -->
<g id="edge14" class="edge">
<title>media_publish&#45;&gt;poms_shared_backend</title>
<path fill="none" stroke="#bf3eff" d="M440.5779,-519.2001C460.2436,-511.1696 484.5783,-500.2296 505,-488 569.6774,-449.2677 605.8431,-451.7051 639,-384 647.6008,-366.4374 650.2338,-356.0069 639,-340 630.5773,-327.9986 600.5795,-316.7466 571.5207,-308.2625"/>
<polygon fill="#bf3eff" stroke="#bf3eff" points="572.3096,-304.8484 561.7345,-305.4944 570.4043,-311.5842 572.3096,-304.8484"/>
</g>
<!-- pages_publish -->
<g id="node9" class="node">
<title>pages_publish</title>
<g id="a_node9"><a xlink:href="https://subversion.vpro.nl/viewvc/nl/publiekeomroep/npo-publish/" xlink:title="Pages Publisher">
<ellipse fill="none" stroke="#8fbc8f" cx="404" cy="-366" rx="53.8905" ry="18"/>
<text text-anchor="middle" x="404" y="-362.3" font-family="Times,serif" font-size="14.00" fill="#0000ff">Pages Publisher</text>
</a>
</g>
</g>
<!-- media_publish&#45;&gt;pages_publish -->
<g id="edge15" class="edge">
<title>media_publish&#45;&gt;pages_publish</title>
<path fill="none" stroke="#c0c0c0" d="M404,-514.8102C404,-482.6863 404,-416.2753 404,-384.1674"/>
<text text-anchor="middle" x="452.5" y="-435.3" font-family="Times,serif" font-size="14.00" fill="#000000">we plan to merge these</text>
</g>
<!-- pages_publish&#45;&gt;poms_shared -->
<g id="edge11" class="edge">
<title>pages_publish&#45;&gt;poms_shared</title>
<path fill="none" stroke="#8fbc8f" d="M360.7095,-355.2466C341.5131,-350.513 318.6436,-344.9213 298,-340 245.986,-327.6001 186.3604,-313.8505 145.2535,-304.4437"/>
<polygon fill="#8fbc8f" stroke="#8fbc8f" points="146.0063,-301.0255 135.4778,-302.2086 144.4461,-307.8495 146.0063,-301.0255"/>
</g>
<!-- pages_publish&#45;&gt;poms_shared_backend -->
<g id="edge12" class="edge">
<title>pages_publish&#45;&gt;poms_shared_backend</title>
<path fill="none" stroke="#8fbc8f" d="M427.564,-349.6174C441.8486,-339.6862 460.2895,-326.8654 476.0096,-315.9362"/>
<polygon fill="#8fbc8f" stroke="#8fbc8f" points="478.2067,-318.6715 484.4195,-310.0893 474.2109,-312.924 478.2067,-318.6715"/>
</g>
<!-- magnolia -->
<g id="node16" class="node">
<title>magnolia</title>
<ellipse fill="none" stroke="#000000" cx="66" cy="-533" rx="36.2938" ry="18"/>
<text text-anchor="middle" x="66" y="-529.3" font-family="Times,serif" font-size="14.00" fill="#000000">magnolia</text>
</g>
<!-- magnolia&#45;&gt;vpro_shared -->
<g id="edge18" class="edge">
<title>magnolia&#45;&gt;vpro_shared</title>
<path fill="none" stroke="#8b8878" d="M46.1978,-517.6654C26.7571,-500.7239 0,-471.5028 0,-439 0,-439 0,-439 0,-237.5 0,-213.1831 23.1283,-199.3944 46.9134,-191.6435"/>
<polygon fill="#8b8878" stroke="#8b8878" points="48.1092,-194.9404 56.7232,-188.7719 46.1426,-188.2223 48.1092,-194.9404"/>
</g>
<!-- magnolia&#45;&gt;poms_shared -->
<g id="edge19" class="edge">
<title>magnolia&#45;&gt;poms_shared</title>
<path fill="none" stroke="#8b8878" d="M88.1779,-518.158C97.7214,-510.4208 107.854,-500.0515 113,-488 136.8377,-432.1746 118.669,-359.3663 105.4926,-320.4191"/>
<polygon fill="#8b8878" stroke="#8b8878" points="108.7369,-319.0946 102.1134,-310.8255 102.1345,-321.4203 108.7369,-319.0946"/>
</g>
<!-- magnolia&#45;&gt;api_client -->
<g id="edge20" class="edge">
<title>magnolia&#45;&gt;api_client</title>
<path fill="none" stroke="#8b8878" d="M66,-514.8759C66,-501.3516 66,-482.6192 66,-467.1514"/>
<polygon fill="#8b8878" stroke="#8b8878" points="69.5001,-467.0685 66,-457.0685 62.5001,-467.0685 69.5001,-467.0685"/>
</g>
</g>
</svg>
