<?xml version="1.0" encoding="UTF-8" standalone="no"?>
<!DOCTYPE svg PUBLIC "-//W3C//DTD SVG 1.1//EN"
 "http://www.w3.org/Graphics/SVG/1.1/DTD/svg11.dtd">
<!-- Generated by graphviz version 2.40.1 (20161225.0304)
 -->
<!-- Title: %3 Pages: 1 -->
<svg width="2003pt" height="753pt"
 viewBox="0.00 0.00 2003.00 753.00" xmlns="http://www.w3.org/2000/svg" xmlns:xlink="http://www.w3.org/1999/xlink">
<g id="graph0" class="graph" transform="scale(1 1) rotate(0) translate(4 749)">
<title>%3</title>
<polygon fill="#ffffff" stroke="transparent" points="-4,4 -4,-749 1999,-749 1999,4 -4,4"/>
<text text-anchor="middle" x="997.5" y="-7.8" font-family="Times,serif" font-size="14.00" fill="#000000"> &#160;Dependencies of the different code projects relevant to POMS</text>
<g id="clust1" class="cluster">
<title>cluster_0</title>
<polygon fill="none" stroke="#000000" points="1209,-47 1209,-359 1847,-359 1847,-47 1209,-47"/>
<text text-anchor="middle" x="1528" y="-69.8" font-family="Times,serif" font-size="14.00" fill="#000000">Generic utilities</text>
<text text-anchor="middle" x="1528" y="-54.8" font-family="Times,serif" font-size="14.00" fill="#000000">(incoming edges are just examples, there are more)</text>
</g>
<g id="clust2" class="cluster">
<title>cluster_1</title>
<polygon fill="none" stroke="#000000" points="8,-568 8,-643 364,-643 364,-568 8,-568"/>
<text text-anchor="middle" x="186" y="-627.8" font-family="Times,serif" font-size="14.00" fill="#000000">VPRO</text>
</g>
<g id="clust3" class="cluster">
<title>cluster_2</title>
<polygon fill="#f0ffff" stroke="#000000" points="374,-474 374,-737 1189,-737 1189,-474 374,-474"/>
<text text-anchor="middle" x="781.5" y="-721.8" font-family="Times,serif" font-size="14.00" fill="#000000">POMS Services</text>
</g>
<g id="clust4" class="cluster">
<title>cluster_3</title>
<polygon fill="#f0ffff" stroke="#000000" points="1139,-380 1139,-455 1481,-455 1481,-380 1139,-380"/>
<text text-anchor="middle" x="1310" y="-439.8" font-family="Times,serif" font-size="14.00" fill="#000000">Backend utilities</text>
</g>
<g id="clust5" class="cluster">
<title>cluster_4</title>
<polygon fill="#f0ffff" stroke="#000000" points="16,-307 16,-549 148,-549 148,-307 16,-307"/>
<text text-anchor="middle" x="82" y="-533.8" font-family="Times,serif" font-size="14.00" fill="#000000">Sharable utilities</text>
</g>
<!-- vpro_shared -->
<g id="node1" class="node">
<title>vpro_shared</title>
<g id="a_node1"><a xlink:href="https://github.com/vpro/vpro-shared" xlink:title="vpro_shared">
<ellipse fill="none" stroke="#000000" cx="1397" cy="-333" rx="55.7903" ry="18"/>
<text text-anchor="middle" x="1397" y="-329.3" font-family="Times,serif" font-size="14.00" fill="#0000ff">vpro_shared</text>
</a>
</g>
</g>
<!-- i18n_regions -->
<g id="node3" class="node">
<title>i18n_regions</title>
<g id="a_node3"><a xlink:href="https://github.com/mihxil/i18n-regions" xlink:title="i18n_regions">
<ellipse fill="none" stroke="#000000" cx="1281" cy="-222" rx="58.4896" ry="18"/>
<text text-anchor="middle" x="1281" y="-218.3" font-family="Times,serif" font-size="14.00" fill="#0000ff">i18n_regions</text>
</a>
</g>
</g>
<!-- vpro_shared&#45;&gt;i18n_regions -->
<g id="edge1" class="edge">
<title>vpro_shared&#45;&gt;i18n_regions</title>
<path fill="none" stroke="#c0c0c0" d="M1379.1292,-315.8995C1359.6866,-297.2949 1328.4437,-267.3987 1306.4438,-246.3471"/>
<polygon fill="#c0c0c0" stroke="#c0c0c0" points="1308.7271,-243.6877 1299.0822,-239.3028 1303.8875,-248.7453 1308.7271,-243.6877"/>
</g>
<!-- guava -->
<g id="node9" class="node">
<title>guava</title>
<g id="a_node9"><a xlink:href="https://github.com/google/guava" xlink:title="guava">
<ellipse fill="none" stroke="#000000" stroke-dasharray="5,2" cx="1397" cy="-222" rx="32.4942" ry="18"/>
<text text-anchor="middle" x="1397" y="-218.3" font-family="Times,serif" font-size="14.00" fill="#0000ff">guava</text>
</a>
</g>
</g>
<!-- vpro_shared&#45;&gt;guava -->
<g id="edge2" class="edge">
<title>vpro_shared&#45;&gt;guava</title>
<path fill="none" stroke="#c0c0c0" d="M1397,-314.6706C1397,-297.2373 1397,-270.7482 1397,-250.5489"/>
<polygon fill="#c0c0c0" stroke="#c0c0c0" points="1400.5001,-250.3566 1397,-240.3566 1393.5001,-250.3567 1400.5001,-250.3566"/>
</g>
<!-- slf4j -->
<g id="node22" class="node">
<title>slf4j</title>
<ellipse fill="none" stroke="#000000" stroke-dasharray="5,2" cx="1643" cy="-222" rx="27" ry="18"/>
<text text-anchor="middle" x="1643" y="-218.3" font-family="Times,serif" font-size="14.00" fill="#000000">slf4j</text>
</g>
<!-- vpro_shared&#45;&gt;slf4j -->
<g id="edge3" class="edge">
<title>vpro_shared&#45;&gt;slf4j</title>
<path fill="none" stroke="#c0c0c0" d="M1429.6669,-318.2601C1477.0098,-296.898 1564.1454,-257.5807 1611.0709,-236.407"/>
<polygon fill="#c0c0c0" stroke="#c0c0c0" points="1612.7697,-239.4804 1620.4452,-232.1772 1609.8906,-233.0998 1612.7697,-239.4804"/>
</g>
<!-- poms_shared -->
<g id="node2" class="node">
<title>poms_shared</title>
<g id="a_node2"><a xlink:href="https://github.com/npo-poms/poms-shared" xlink:title="poms_shared">
<ellipse fill="none" stroke="#000000" cx="82" cy="-333" rx="58.4896" ry="18"/>
<text text-anchor="middle" x="82" y="-329.3" font-family="Times,serif" font-size="14.00" fill="#0000ff">poms_shared</text>
</a>
</g>
</g>
<!-- poms_shared&#45;&gt;vpro_shared -->
<g id="edge4" class="edge">
<title>poms_shared&#45;&gt;vpro_shared</title>
<path fill="none" stroke="#c0c0c0" d="M140.0073,-335.531C306.8471,-342.6679 802.3596,-362.8653 1214,-369.5 1262.4382,-370.2807 1275.8215,-380.5024 1323,-369.5 1336.6738,-366.3111 1350.7248,-360.2135 1362.8596,-353.902"/>
<polygon fill="#c0c0c0" stroke="#c0c0c0" points="1364.6154,-356.9313 1371.7277,-349.0785 1361.2707,-350.782 1364.6154,-356.9313"/>
</g>
<!-- poms_shared&#45;&gt;i18n_regions -->
<g id="edge5" class="edge">
<title>poms_shared&#45;&gt;i18n_regions</title>
<path fill="none" stroke="#c0c0c0" d="M138.2221,-327.7951C336.3741,-309.4508 1001.7768,-247.8497 1214.8014,-228.1285"/>
<polygon fill="#c0c0c0" stroke="#c0c0c0" points="1215.2648,-231.6006 1224.8996,-227.1936 1214.6195,-224.6304 1215.2648,-231.6006"/>
</g>
<!-- nv_i18n -->
<g id="node4" class="node">
<title>nv_i18n</title>
<g id="a_node4"><a xlink:href="https://github.com/TakahikoKawasaki/nv-i18n" xlink:title="nv_i18n">
<ellipse fill="none" stroke="#000000" cx="1281" cy="-111" rx="40.0939" ry="18"/>
<text text-anchor="middle" x="1281" y="-107.3" font-family="Times,serif" font-size="14.00" fill="#0000ff">nv_i18n</text>
</a>
</g>
</g>
<!-- i18n_regions&#45;&gt;nv_i18n -->
<g id="edge9" class="edge">
<title>i18n_regions&#45;&gt;nv_i18n</title>
<path fill="none" stroke="#c0c0c0" d="M1281,-203.6706C1281,-186.2373 1281,-159.7482 1281,-139.5489"/>
<polygon fill="#c0c0c0" stroke="#c0c0c0" points="1284.5001,-139.3566 1281,-129.3566 1277.5001,-139.3567 1284.5001,-139.3566"/>
</g>
<!-- amara_importer -->
<g id="node5" class="node">
<title>amara_importer</title>
<g id="a_node5"><a xlink:href="https://github.com/vpro/amara-poms" xlink:title="amara_importer">
<ellipse fill="none" stroke="#000000" cx="193" cy="-594" rx="68.7879" ry="18"/>
<text text-anchor="middle" x="193" y="-590.3" font-family="Times,serif" font-size="14.00" fill="#0000ff">amara_importer</text>
</a>
</g>
</g>
<!-- amara_importer&#45;&gt;vpro_shared -->
<g id="edge42" class="edge">
<title>amara_importer&#45;&gt;vpro_shared</title>
<path fill="none" stroke="#c0c0c0" d="M206.3824,-576.1037C210.3464,-570.4514 214.5465,-564.0893 218,-558 238.2144,-522.3575 232.3409,-507.4554 256,-474 290.8472,-424.7239 298.2486,-403.1139 354,-380 404.2024,-359.1867 1278.7481,-369.8495 1332,-359 1340.1281,-357.344 1348.5423,-354.723 1356.5122,-351.7692"/>
<polygon fill="#c0c0c0" stroke="#c0c0c0" points="1357.9444,-354.9669 1365.9644,-348.0437 1355.3776,-348.4544 1357.9444,-354.9669"/>
</g>
<!-- amara_java -->
<g id="node6" class="node">
<title>amara_java</title>
<g id="a_node6"><a xlink:href="https://github.com/vpro/amara-java" xlink:title="amara_java">
<ellipse fill="none" stroke="#000000" cx="1270" cy="-333" rx="52.7911" ry="18"/>
<text text-anchor="middle" x="1270" y="-329.3" font-family="Times,serif" font-size="14.00" fill="#0000ff">amara_java</text>
</a>
</g>
</g>
<!-- amara_importer&#45;&gt;amara_java -->
<g id="edge43" class="edge">
<title>amara_importer&#45;&gt;amara_java</title>
<path fill="none" stroke="#c0c0c0" d="M189.4092,-575.9237C182.284,-534.1611 171.5578,-430.6817 228,-380 264.5363,-347.1926 987.379,-336.2372 1207.1553,-333.6575"/>
<polygon fill="#c0c0c0" stroke="#c0c0c0" points="1207.277,-337.1565 1217.2358,-333.541 1207.196,-330.1569 1207.277,-337.1565"/>
</g>
<!-- api_client -->
<g id="node11" class="node">
<title>api_client</title>
<g id="a_node11"><a xlink:href="https://github.com/npo-poms/api-clients" xlink:title="api_client">
<ellipse fill="none" stroke="#000000" cx="91" cy="-500" rx="46.5926" ry="18"/>
<text text-anchor="middle" x="91" y="-496.3" font-family="Times,serif" font-size="14.00" fill="#0000ff">api_client</text>
</a>
</g>
</g>
<!-- amara_importer&#45;&gt;api_client -->
<g id="edge44" class="edge">
<title>amara_importer&#45;&gt;api_client</title>
<path fill="none" stroke="#c0c0c0" d="M159.0117,-578.3222C149.0116,-572.7601 138.4879,-565.8912 130,-558 120.3772,-549.0537 111.9175,-537.2989 105.3584,-526.712"/>
<polygon fill="#c0c0c0" stroke="#c0c0c0" points="108.2002,-524.6409 100.1023,-517.809 102.1723,-528.1996 108.2002,-524.6409"/>
</g>
<!-- resteasy -->
<g id="node7" class="node">
<title>resteasy</title>
<g id="a_node7"><a xlink:href="https://github.com/resteasy/Resteasy" xlink:title="resteasy">
<ellipse fill="none" stroke="#000000" cx="1605" cy="-333" rx="40.0939" ry="18"/>
<text text-anchor="middle" x="1605" y="-329.3" font-family="Times,serif" font-size="14.00" fill="#0000ff">resteasy</text>
</a>
</g>
</g>
<!-- spring -->
<g id="node8" class="node">
<title>spring</title>
<g id="a_node8"><a xlink:href="https://github.com/spring-projects/spring-framework" xlink:title="spring">
<ellipse fill="none" stroke="#000000" stroke-dasharray="5,2" cx="1697" cy="-333" rx="33.5952" ry="18"/>
<text text-anchor="middle" x="1697" y="-329.3" font-family="Times,serif" font-size="14.00" fill="#0000ff">spring</text>
</a>
</g>
</g>
<!-- hibernate -->
<g id="node10" class="node">
<title>hibernate</title>
<g id="a_node10"><a xlink:href="https://github.com/hibernate/" xlink:title="hibernate">
<ellipse fill="none" stroke="#000000" cx="1794" cy="-333" rx="44.6926" ry="18"/>
<text text-anchor="middle" x="1794" y="-329.3" font-family="Times,serif" font-size="14.00" fill="#0000ff">hibernate</text>
</a>
</g>
</g>
<!-- api_client&#45;&gt;vpro_shared -->
<g id="edge21" class="edge">
<title>api_client&#45;&gt;vpro_shared</title>
<path fill="none" stroke="#c0c0c0" d="M104.2535,-482.4856C126.3708,-454.8229 173.7652,-401.9134 228,-380 233.8275,-377.6454 447.7176,-369.1886 454,-369 502.759,-367.5362 1284.1526,-368.4975 1332,-359 1340.1364,-357.385 1348.5544,-354.7831 1356.5255,-351.8354"/>
<polygon fill="#c0c0c0" stroke="#c0c0c0" points="1357.957,-355.0333 1365.978,-348.1113 1355.3911,-348.5205 1357.957,-355.0333"/>
</g>
<!-- api_client&#45;&gt;poms_shared -->
<g id="edge22" class="edge">
<title>api_client&#45;&gt;poms_shared</title>
<path fill="none" stroke="#c0c0c0" d="M90.0197,-481.8102C88.4575,-452.8234 85.3909,-395.9192 83.5355,-361.4916"/>
<polygon fill="#c0c0c0" stroke="#c0c0c0" points="87.0122,-360.9645 82.9791,-351.1674 80.0224,-361.3413 87.0122,-360.9645"/>
</g>
<!-- poms_backend -->
<g id="node12" class="node">
<title>poms_backend</title>
<g id="a_node12"><a xlink:href="https://git.vpro.nl/npo/media.git" xlink:title="POMS &#160;&amp; POMS Backend API">
<ellipse fill="none" stroke="#cd950c" cx="667" cy="-688" rx="125.3778" ry="18"/>
<text text-anchor="middle" x="667" y="-684.3" font-family="Times,serif" font-size="14.00" fill="#006400">POMS &#160;&amp; POMS Backend API</text>
</a>
</g>
</g>
<!-- poms_backend&#45;&gt;vpro_shared -->
<g id="edge33" class="edge">
<title>poms_backend&#45;&gt;vpro_shared</title>
<path fill="none" stroke="#cd950c" d="M753.6316,-674.9815C769.6794,-672.9877 786.3218,-671.1976 802,-670 827.0154,-668.0891 1687.4375,-669.916 1705,-652 1799.2002,-555.9033 1691.0873,-442.6616 1572,-380 1527.9536,-356.8236 1509.7701,-372.9733 1462,-359 1454.702,-356.8652 1447.0889,-354.2211 1439.7507,-351.4439"/>
<polygon fill="#cd950c" stroke="#cd950c" points="1440.5574,-348.0009 1429.9698,-347.6099 1438.0027,-354.5181 1440.5574,-348.0009"/>
</g>
<!-- poms_backend&#45;&gt;poms_shared -->
<g id="edge34" class="edge">
<title>poms_backend&#45;&gt;poms_shared</title>
<path fill="none" stroke="#cd950c" d="M754.3645,-675.0013C770.1874,-673.0321 786.5627,-671.2456 802,-670 1082.0925,-647.4002 1153.4288,-667.5673 1434,-652 1502.4789,-648.2005 1577,-662.5843 1577,-594 1577,-594 1577,-594 1577,-463.5 1577,-422.5405 1572.4565,-402.1456 1538,-380 1524.458,-371.2964 395.0625,-371.0663 379,-370 297.5182,-364.5911 204.1486,-351.879 144.1952,-342.869"/>
<polygon fill="#cd950c" stroke="#cd950c" points="144.5459,-339.3822 134.1344,-341.3445 143.4971,-346.3032 144.5459,-339.3822"/>
</g>
<!-- poms_backend&#45;&gt;resteasy -->
<g id="edge35" class="edge">
<title>poms_backend&#45;&gt;resteasy</title>
<path fill="none" stroke="#cd950c" d="M754.0006,-675.0251C769.9358,-673.0403 786.4439,-671.2422 802,-670 1099.3828,-646.2527 1175.1548,-668.9921 1473,-652 1541.0619,-648.1171 1615,-662.1726 1615,-594 1615,-594 1615,-594 1615,-406 1615,-391.1623 1612.9471,-374.7839 1610.7015,-361.307"/>
<polygon fill="#cd950c" stroke="#cd950c" points="1614.1009,-360.4333 1608.8949,-351.2057 1607.2102,-361.6657 1614.1009,-360.4333"/>
</g>
<!-- poms_backend&#45;&gt;spring -->
<g id="edge36" class="edge">
<title>poms_backend&#45;&gt;spring</title>
<path fill="none" stroke="#cd950c" d="M753.9992,-675.0081C769.9346,-673.025 786.4431,-671.2319 802,-670 1114.9003,-645.2228 1194.5965,-669.2849 1508,-652 1577.3035,-648.1778 1653,-663.4088 1653,-594 1653,-594 1653,-594 1653,-463.5 1653,-425.9744 1669.5383,-385.4103 1682.3362,-359.6382"/>
<polygon fill="#cd950c" stroke="#cd950c" points="1685.5626,-361.0169 1687.0157,-350.5222 1679.3352,-357.8201 1685.5626,-361.0169"/>
</g>
<!-- poms_backend&#45;&gt;hibernate -->
<g id="edge37" class="edge">
<title>poms_backend&#45;&gt;hibernate</title>
<path fill="none" stroke="#cd950c" d="M753.9978,-674.9901C769.9333,-673.0088 786.4422,-671.221 802,-670 849.1566,-666.2991 1614.3687,-670.2959 1653,-643 1702.4892,-608.0322 1763.1236,-430.3172 1785.3273,-360.8668"/>
<polygon fill="#cd950c" stroke="#cd950c" points="1788.7503,-361.6512 1788.4363,-351.061 1782.0776,-359.5356 1788.7503,-361.6512"/>
</g>
<!-- poms_gui -->
<g id="node13" class="node">
<title>poms_gui</title>
<g id="a_node13"><a xlink:href="https://git.vpro.nl/npo/media-gui.git" xlink:title="Angular GUI for POMS">
<ellipse fill="none" stroke="#000000" cx="797" cy="-500" rx="98.5829" ry="18"/>
<text text-anchor="middle" x="797" y="-496.3" font-family="Times,serif" font-size="14.00" fill="#006400">Angular GUI for POMS</text>
</a>
</g>
</g>
<!-- poms_backend&#45;&gt;poms_gui -->
<g id="edge38" class="edge">
<title>poms_backend&#45;&gt;poms_gui</title>
<path fill="none" stroke="#cd950c" d="M679.4649,-669.9738C702.4691,-636.7063 751.6943,-565.519 778.566,-526.6584"/>
<polygon fill="#cd950c" stroke="#cd950c" points="781.764,-528.1874 784.5728,-517.9717 776.0064,-524.2061 781.764,-528.1874"/>
</g>
<!-- user_backend -->
<g id="node18" class="node">
<title>user_backend</title>
<g id="a_node18"><a xlink:href="https://git.vpro.nl/npo/user.git" xlink:title="user_backend">
<ellipse fill="none" stroke="#000000" cx="1413" cy="-406" rx="60.3893" ry="18"/>
<text text-anchor="middle" x="1413" y="-402.3" font-family="Times,serif" font-size="14.00" fill="#006400">user_backend</text>
</a>
</g>
</g>
<!-- poms_backend&#45;&gt;user_backend -->
<g id="edge39" class="edge">
<title>poms_backend&#45;&gt;user_backend</title>
<path fill="none" stroke="#cd950c" d="M754.3662,-675.0214C770.1888,-673.0501 786.5637,-671.2577 802,-670 835.1828,-667.2964 1377.2393,-675.3204 1401,-652 1459.527,-594.5574 1437.0959,-485.1149 1422.1607,-433.8256"/>
<polygon fill="#cd950c" stroke="#cd950c" points="1425.4599,-432.644 1419.2095,-424.0892 1418.7608,-434.6745 1425.4599,-432.644"/>
</g>
<!-- angular -->
<g id="node23" class="node">
<title>angular</title>
<ellipse fill="none" stroke="#000000" cx="1509" cy="-333" rx="37.8943" ry="18"/>
<text text-anchor="middle" x="1509" y="-329.3" font-family="Times,serif" font-size="14.00" fill="#000000">angular</text>
</g>
<!-- poms_gui&#45;&gt;angular -->
<g id="edge40" class="edge">
<title>poms_gui&#45;&gt;angular</title>
<path fill="none" stroke="#c0c0c0" d="M833.547,-483.2186C894.5288,-456.0946 1021.5494,-403.3096 1135,-380 1277.6529,-350.6905 1322.23,-399.9054 1462,-359 1467.3698,-357.4285 1472.8043,-355.1654 1477.9781,-352.6212"/>
<polygon fill="#c0c0c0" stroke="#c0c0c0" points="1479.7731,-355.6304 1486.9394,-347.8268 1476.4709,-349.4582 1479.7731,-355.6304"/>
</g>
<!-- poms_shared_backend -->
<g id="node14" class="node">
<title>poms_shared_backend</title>
<g id="a_node14"><a xlink:href="https://git.vpro.nl/npo/poms-shared-backend.git" xlink:title="poms_shared_backend">
<ellipse fill="none" stroke="#00cdcd" cx="1241" cy="-406" rx="93.6835" ry="18"/>
<text text-anchor="middle" x="1241" y="-402.3" font-family="Times,serif" font-size="14.00" fill="#006400">poms_shared_backend</text>
</a>
</g>
</g>
<!-- poms_shared_backend&#45;&gt;vpro_shared -->
<g id="edge6" class="edge">
<title>poms_shared_backend&#45;&gt;vpro_shared</title>
<path fill="none" stroke="#00cdcd" d="M1276.7896,-389.2523C1300.3997,-378.204 1331.3937,-363.7004 1355.9965,-352.1875"/>
<polygon fill="#00cdcd" stroke="#00cdcd" points="1357.5102,-355.3435 1365.0841,-347.935 1354.5433,-349.0034 1357.5102,-355.3435"/>
</g>
<!-- poms_shared_backend&#45;&gt;poms_shared -->
<g id="edge7" class="edge">
<title>poms_shared_backend&#45;&gt;poms_shared</title>
<path fill="none" stroke="#00cdcd" d="M1147.8296,-403.9243C944.3511,-399.1454 465.5464,-386.4984 304,-370 248.4644,-364.3283 185.7714,-353.463 141.2073,-344.9677"/>
<polygon fill="#00cdcd" stroke="#00cdcd" points="141.6166,-341.4823 131.1353,-343.0292 140.2936,-348.3562 141.6166,-341.4823"/>
</g>
<!-- poms_shared_backend&#45;&gt;slf4j -->
<g id="edge8" class="edge">
<title>poms_shared_backend&#45;&gt;slf4j</title>
<path fill="none" stroke="#00cdcd" d="M1292.1899,-390.872C1308.5963,-386.6196 1326.9355,-382.4823 1344,-380 1371.7324,-375.9659 1828.6007,-379.2244 1848,-359 1906.7241,-297.7781 1751.6738,-249.2421 1678.6373,-230.4403"/>
<polygon fill="#00cdcd" stroke="#00cdcd" points="1679.4589,-227.0379 1668.9066,-227.9863 1677.7471,-233.8254 1679.4589,-227.0379"/>
</g>
<!-- api -->
<g id="node15" class="node">
<title>api</title>
<g id="a_node15"><a xlink:href="https://git.vpro.nl/npo/user.git" xlink:title="Frontend API">
<ellipse fill="none" stroke="#6495ed" cx="871" cy="-688" rx="60.3893" ry="18"/>
<text text-anchor="middle" x="871" y="-684.3" font-family="Times,serif" font-size="14.00" fill="#006400">Frontend API</text>
</a>
</g>
</g>
<!-- api&#45;&gt;vpro_shared -->
<g id="edge10" class="edge">
<title>api&#45;&gt;vpro_shared</title>
<path fill="none" stroke="#6495ed" d="M913.7521,-675.2003C922.3693,-673.0881 931.4173,-671.199 940,-670 962.0966,-666.9132 1727.4014,-667.9522 1743,-652 1785.6695,-608.3634 1754.0834,-416.272 1705,-380 1694.1024,-371.9468 1475.183,-362.1334 1462,-359 1454.1847,-357.1424 1446.0722,-354.5109 1438.337,-351.629"/>
<polygon fill="#6495ed" stroke="#6495ed" points="1439.379,-348.2781 1428.7915,-347.884 1436.8223,-354.7946 1439.379,-348.2781"/>
</g>
<!-- api&#45;&gt;poms_shared -->
<g id="edge11" class="edge">
<title>api&#45;&gt;poms_shared</title>
<path fill="none" stroke="#6495ed" d="M913.7517,-675.1975C922.3689,-673.0855 931.417,-671.1972 940,-670 1030.0392,-657.4408 1671.5278,-680.0596 1758,-652 1833.449,-627.5174 1815.843,-539.4298 1771,-474 1715.7022,-393.3157 1667.0943,-402.91 1572,-380 1502.215,-363.1875 434.0793,-340.2114 150.6188,-334.386"/>
<polygon fill="#6495ed" stroke="#6495ed" points="150.5424,-330.8838 140.4727,-334.1779 150.3988,-337.8823 150.5424,-330.8838"/>
</g>
<!-- api&#45;&gt;resteasy -->
<g id="edge12" class="edge">
<title>api&#45;&gt;resteasy</title>
<path fill="none" stroke="#6495ed" d="M913.7502,-675.1871C922.3676,-673.076 931.4161,-671.1907 940,-670 964.1902,-666.6446 1801.9089,-669.4447 1819,-652 1861.7117,-608.4047 1828.6382,-418.1503 1781,-380 1736.344,-344.2379 1708.2003,-377.3142 1654,-359 1648.6399,-357.1888 1643.1593,-354.8396 1637.8959,-352.2947"/>
<polygon fill="#6495ed" stroke="#6495ed" points="1639.2223,-349.041 1628.7291,-347.5765 1636.0187,-355.265 1639.2223,-349.041"/>
</g>
<!-- api&#45;&gt;poms_shared_backend -->
<g id="edge13" class="edge">
<title>api&#45;&gt;poms_shared_backend</title>
<path fill="none" stroke="#6495ed" d="M914.1349,-675.2022C922.6397,-673.1185 931.5482,-671.2395 940,-670 967.4467,-665.9747 1419.7415,-671.9657 1439,-652 1513.2459,-575.0276 1359.3765,-472.5242 1281.9268,-428.0915"/>
<polygon fill="#6495ed" stroke="#6495ed" points="1283.307,-424.8507 1272.881,-422.9663 1279.8563,-430.9411 1283.307,-424.8507"/>
</g>
<!-- api&#45;&gt;user_backend -->
<g id="edge14" class="edge">
<title>api&#45;&gt;user_backend</title>
<path fill="none" stroke="#6495ed" d="M914.1338,-675.1951C922.6388,-673.112 931.5475,-671.2351 940,-670 1053.0913,-653.475 1345.5196,-687.9823 1454,-652 1536.1136,-624.7634 1465.0692,-490.1815 1429.9262,-432.4149"/>
<polygon fill="#6495ed" stroke="#6495ed" points="1432.8568,-430.4992 1424.6232,-423.8314 1426.9017,-434.1784 1432.8568,-430.4992"/>
</g>
<!-- media_publish -->
<g id="node16" class="node">
<title>media_publish</title>
<g id="a_node16"><a xlink:href="https://git.vpro.nl/npo/npo-publish.git" xlink:title="Media Publisher">
<ellipse fill="none" stroke="#bf3eff" cx="453" cy="-688" rx="70.6878" ry="18"/>
<text text-anchor="middle" x="453" y="-684.3" font-family="Times,serif" font-size="14.00" fill="#006400">Media Publisher</text>
</a>
</g>
</g>
<!-- media_publish&#45;&gt;poms_shared -->
<g id="edge18" class="edge">
<title>media_publish&#45;&gt;poms_shared</title>
<path fill="none" stroke="#bf3eff" d="M503.0899,-675.1273C512.9438,-673.0502 523.2498,-671.1927 533,-670 891.7476,-626.1143 986.3266,-687.5081 1346,-652 1435.1341,-643.2004 1539,-683.5674 1539,-594 1539,-594 1539,-594 1539,-463.5 1539,-423.9139 1540.4015,-402.7421 1508,-380 1494.8807,-370.7918 369.9869,-371.152 354,-370 281.0596,-364.7442 197.8339,-352.4953 142.8602,-343.5251"/>
<polygon fill="#bf3eff" stroke="#bf3eff" points="143.3688,-340.0618 132.933,-341.8908 142.2316,-346.9689 143.3688,-340.0618"/>
</g>
<!-- pages_publish -->
<g id="node17" class="node">
<title>pages_publish</title>
<g id="a_node17"><a xlink:href="https://git.vpro.nl/npo/pages-publish.git" xlink:title="Pages Publisher">
<ellipse fill="none" stroke="#8fbc8f" cx="1112" cy="-500" rx="68.7879" ry="18"/>
<text text-anchor="middle" x="1112" y="-496.3" font-family="Times,serif" font-size="14.00" fill="#006400">Pages Publisher</text>
</a>
</g>
</g>
<!-- media_publish&#45;&gt;pages_publish -->
<g id="edge20" class="edge">
<title>media_publish&#45;&gt;pages_publish</title>
<path fill="none" stroke="#c0c0c0" d="M500.1292,-674.555C621.6468,-639.8883 944.5217,-547.7783 1065.4248,-513.287"/>
<text text-anchor="middle" x="935" y="-590.3" font-family="Times,serif" font-size="14.00" fill="#000000">we plan to merge these</text>
</g>
<!-- media_publish&#45;&gt;user_backend -->
<g id="edge19" class="edge">
<title>media_publish&#45;&gt;user_backend</title>
<path fill="none" stroke="#bf3eff" d="M503.0998,-675.2068C512.9528,-673.1227 523.256,-671.2424 533,-670 579.0404,-664.1297 1332.7338,-673.174 1368,-643 1399.2411,-616.2699 1409.0312,-491.1269 1411.8975,-434.2556"/>
<polygon fill="#bf3eff" stroke="#bf3eff" points="1415.3988,-434.3075 1412.3692,-424.155 1408.4064,-433.9808 1415.3988,-434.3075"/>
</g>
<!-- pages_publish&#45;&gt;poms_shared -->
<g id="edge15" class="edge">
<title>pages_publish&#45;&gt;poms_shared</title>
<path fill="none" stroke="#8fbc8f" d="M1180.0272,-496.604C1282.1097,-490.8026 1465.149,-477.3898 1485,-455 1507.1137,-430.0581 1508.4681,-403.672 1485,-380 1473.6958,-368.5976 345.0065,-371.2619 329,-370 264.7001,-364.931 191.7292,-353.2604 141.8739,-344.3715"/>
<polygon fill="#8fbc8f" stroke="#8fbc8f" points="142.3714,-340.9048 131.9094,-342.577 141.1307,-347.794 142.3714,-340.9048"/>
</g>
<!-- pages_publish&#45;&gt;poms_shared_backend -->
<g id="edge16" class="edge">
<title>pages_publish&#45;&gt;poms_shared_backend</title>
<path fill="none" stroke="#8fbc8f" d="M1135.3609,-482.9773C1155.8341,-468.0589 1185.798,-446.2247 1208.5892,-429.6172"/>
<polygon fill="#8fbc8f" stroke="#8fbc8f" points="1210.9174,-432.2513 1216.9382,-423.5334 1206.795,-426.5939 1210.9174,-432.2513"/>
</g>
<!-- pages_publish&#45;&gt;user_backend -->
<g id="edge17" class="edge">
<title>pages_publish&#45;&gt;user_backend</title>
<path fill="none" stroke="#8fbc8f" d="M1177.9405,-494.7303C1225.6106,-489.1486 1290.7251,-477.8102 1344,-455 1358.815,-448.6568 1373.6018,-438.7537 1385.6648,-429.5058"/>
<polygon fill="#8fbc8f" stroke="#8fbc8f" points="1387.8834,-432.2134 1393.5478,-423.2599 1383.5362,-426.7269 1387.8834,-432.2134"/>
</g>
<!-- images -->
<g id="node19" class="node">
<title>images</title>
<g id="a_node19"><a xlink:href="https://git.vpro.nl/npo/images.git" xlink:title="Images Frontend &amp; Backend">
<ellipse fill="none" stroke="#caff70" cx="1065" cy="-688" rx="115.8798" ry="18"/>
<text text-anchor="middle" x="1065" y="-684.3" font-family="Times,serif" font-size="14.00" fill="#006400">Images Frontend &amp; Backend</text>
</a>
</g>
</g>
<!-- images&#45;&gt;poms_shared -->
<g id="edge23" class="edge">
<title>images&#45;&gt;poms_shared</title>
<path fill="none" stroke="#caff70" d="M1145.5314,-674.9954C1160.2887,-673.0136 1175.5812,-671.2242 1190,-670 1265.5324,-663.5869 1798.9298,-672.1746 1872,-652 1908.6339,-641.8854 1899.7527,-604.1417 1888,-568 1849.3632,-449.1847 1796.1258,-423.4905 1679,-380 1642.6811,-366.5143 452.7919,-340.7573 151.0263,-334.4302"/>
<polygon fill="#caff70" stroke="#caff70" points="150.7407,-330.9235 140.6696,-334.2133 150.5941,-337.922 150.7407,-330.9235"/>
</g>
<!-- images&#45;&gt;spring -->
<g id="edge24" class="edge">
<title>images&#45;&gt;spring</title>
<path fill="none" stroke="#caff70" d="M1145.1939,-675.0146C1160.055,-673.0175 1175.4707,-671.2178 1190,-670 1210.5728,-668.2757 1918.5797,-666.7739 1933,-652 2023.9676,-558.8019 1970.7892,-432.3484 1857,-369 1834.2003,-356.307 1764.8145,-367.0734 1740,-359 1735.2714,-357.4615 1730.5167,-355.3192 1725.982,-352.9182"/>
<polygon fill="#caff70" stroke="#caff70" points="1727.4668,-349.7331 1717.0617,-347.737 1723.951,-355.7861 1727.4668,-349.7331"/>
</g>
<!-- images&#45;&gt;hibernate -->
<g id="edge25" class="edge">
<title>images&#45;&gt;hibernate</title>
<path fill="none" stroke="#caff70" d="M1145.1934,-675.0093C1160.0546,-673.0127 1175.4704,-671.2145 1190,-670 1357.685,-655.9834 1781.4041,-681.8784 1947,-652 1959.034,-649.8287 1963.9782,-651.2546 1973,-643 1990.6124,-626.8854 1995,-617.8721 1995,-594 1995,-594 1995,-594 1995,-406 1995,-374.3262 1905.7062,-352.4447 1846.1506,-341.373"/>
<polygon fill="#caff70" stroke="#caff70" points="1846.5997,-337.8975 1836.1362,-339.5602 1845.3528,-344.7855 1846.5997,-337.8975"/>
</g>
<!-- images&#45;&gt;user_backend -->
<g id="edge26" class="edge">
<title>images&#45;&gt;user_backend</title>
<path fill="none" stroke="#caff70" d="M1145.532,-675.0025C1160.2893,-673.02 1175.5816,-671.2285 1190,-670 1226.9352,-666.853 1831.1442,-678.563 1857,-652 1982.3549,-523.2166 1626.2091,-443.5013 1476.1711,-416.4051"/>
<polygon fill="#caff70" stroke="#caff70" points="1476.6228,-412.9305 1466.1636,-414.6207 1475.394,-419.8218 1476.6228,-412.9305"/>
</g>
<!-- functional_tests -->
<g id="node20" class="node">
<title>functional_tests</title>
<g id="a_node20"><a xlink:href="https://github.com/npo-poms/functional-tests" xlink:title="Functional fitnesse tests">
<ellipse fill="#e0eeee" stroke="#9acd32" cx="1296" cy="-688" rx="97.4827" ry="18"/>
<text text-anchor="middle" x="1296" y="-684.3" font-family="Times,serif" font-size="14.00" fill="#0000ff">Functional fitnesse tests</text>
</a>
</g>
</g>
<!-- api_tests -->
<g id="node21" class="node">
<title>api_tests</title>
<g id="a_node21"><a xlink:href="https://git.vpro.nl/npo/test/api-tests" xlink:title="Functional api tests">
<ellipse fill="#e0eeee" stroke="#9acd32" cx="1278" cy="-594" rx="81.4863" ry="18"/>
<text text-anchor="middle" x="1278" y="-590.3" font-family="Times,serif" font-size="14.00" fill="#006400">Functional api tests</text>
</a>
</g>
</g>
<!-- api_tests&#45;&gt;api_client -->
<g id="edge41" class="edge">
<title>api_tests&#45;&gt;api_client</title>
<path fill="none" stroke="#c0c0c0" d="M1235.7349,-578.5811C1222.2603,-574.3423 1207.1684,-570.286 1193,-568 1012.3979,-538.8613 552.0515,-566.9844 370,-549 289.6026,-541.0577 197.5008,-523.1314 141.822,-511.305"/>
<polygon fill="#c0c0c0" stroke="#c0c0c0" points="142.3717,-507.8434 131.8605,-509.1715 140.9057,-514.6882 142.3717,-507.8434"/>
</g>
<!-- magnolia -->
<g id="node24" class="node">
<title>magnolia</title>
<ellipse fill="none" stroke="#000000" cx="61" cy="-594" rx="44.6926" ry="18"/>
<text text-anchor="middle" x="61" y="-590.3" font-family="Times,serif" font-size="14.00" fill="#000000">magnolia</text>
</g>
<!-- magnolia&#45;&gt;vpro_shared -->
<g id="edge27" class="edge">
<title>magnolia&#45;&gt;vpro_shared</title>
<path fill="none" stroke="#8b8878" d="M90.1333,-580.0369C115.7594,-567.6857 149.3957,-551.2763 152,-549 220.217,-489.3743 187.0366,-424.425 266,-380 277.1974,-373.7003 484.1578,-369.3825 497,-369 543.3716,-367.6187 1286.4982,-368.0457 1332,-359 1340.1359,-357.3826 1348.5537,-354.7796 1356.5248,-351.8315"/>
<polygon fill="#8b8878" stroke="#8b8878" points="1357.9563,-355.0294 1365.9772,-348.1074 1355.3903,-348.5167 1357.9563,-355.0294"/>
</g>
<!-- magnolia&#45;&gt;api_client -->
<g id="edge28" class="edge">
<title>magnolia&#45;&gt;api_client</title>
<path fill="none" stroke="#8b8878" d="M66.7843,-575.8759C71.1421,-562.2215 77.1941,-543.2585 82.1576,-527.7061"/>
<polygon fill="#8b8878" stroke="#8b8878" points="85.5273,-528.6593 85.2335,-518.0685 78.8587,-526.5309 85.5273,-528.6593"/>
</g>
<!-- vpro_rs -->
<g id="node25" class="node">
<title>vpro_rs</title>
<ellipse fill="none" stroke="#000000" cx="318" cy="-594" rx="38.1938" ry="18"/>
<text text-anchor="middle" x="318" y="-590.3" font-family="Times,serif" font-size="14.00" fill="#000000">vpro_rs</text>
</g>
<!-- vpro_rs&#45;&gt;vpro_shared -->
<g id="edge29" class="edge">
<title>vpro_rs&#45;&gt;vpro_shared</title>
<path fill="none" stroke="#8b8878" d="M314.258,-575.7564C310.0375,-549.5065 306.816,-501.2511 333,-474 487.8279,-312.8621 1113.657,-406.5754 1332,-359 1340.0205,-357.2524 1348.3332,-354.6172 1356.2257,-351.6844"/>
<polygon fill="#8b8878" stroke="#8b8878" points="1357.5713,-354.9163 1365.5965,-347.9992 1355.0093,-348.4019 1357.5713,-354.9163"/>
</g>
<!-- vpro_rs&#45;&gt;poms_shared -->
<g id="edge30" class="edge">
<title>vpro_rs&#45;&gt;poms_shared</title>
<path fill="none" stroke="#8b8878" d="M309.9327,-576.252C296.5447,-547.1956 269.8434,-491.0026 256,-474 215.4321,-424.1741 154.7345,-379.9216 116.7995,-354.8091"/>
<polygon fill="#8b8878" stroke="#8b8878" points="118.4221,-351.6883 108.1369,-349.1454 114.5915,-357.5472 118.4221,-351.6883"/>
</g>
<!-- vpro_rs&#45;&gt;api_client -->
<g id="edge31" class="edge">
<title>vpro_rs&#45;&gt;api_client</title>
<path fill="none" stroke="#8b8878" d="M293.9509,-579.8254C286.6875,-575.7828 278.6171,-571.5234 271,-568 226.1904,-547.273 173.1265,-527.8141 136.2737,-515.0673"/>
<polygon fill="#8b8878" stroke="#8b8878" points="137.3945,-511.7516 126.7999,-511.8147 135.1215,-518.3723 137.3945,-511.7516"/>
</g>
<!-- vpro_rs&#45;&gt;poms_shared_backend -->
<g id="edge32" class="edge">
<title>vpro_rs&#45;&gt;poms_shared_backend</title>
<path fill="none" stroke="#8b8878" d="M325.1902,-576.0988C338.3914,-543.4266 365.5531,-477.174 370,-474 400.9283,-451.9246 917.2793,-422.7361 1140.0321,-411.1024"/>
<polygon fill="#8b8878" stroke="#8b8878" points="1140.2875,-414.594 1150.0919,-410.5786 1139.9234,-407.6034 1140.2875,-414.594"/>
</g>
</g>
</svg>
