<?xml version="1.0" encoding="UTF-8" standalone="no"?>
<!DOCTYPE svg PUBLIC "-//W3C//DTD SVG 1.1//EN"
 "http://www.w3.org/Graphics/SVG/1.1/DTD/svg11.dtd">
<!-- Generated by graphviz version 12.1.1 (20240910.0053)
 -->
<!-- Pages: 1 -->
<svg width="2244pt" height="483pt"
 viewBox="0.00 0.00 2244.06 482.50" xmlns="http://www.w3.org/2000/svg" xmlns:xlink="http://www.w3.org/1999/xlink">
<g id="graph0" class="graph" transform="scale(1 1) rotate(0) translate(4 478.5)">
<polygon fill="white" stroke="none" points="-4,4 -4,-478.5 2240.06,-478.5 2240.06,4 -4,4"/>
<text text-anchor="middle" x="1118.03" y="-7.2" font-family="Times,serif" font-size="14.00"> &#160;Dependencies of the different code projects relevant to POMS</text>
<g id="clust1" class="cluster">
<title>cluster_0</title>
<polygon fill="none" stroke="black" points="613.08,-48.5 613.08,-285.5 1256.08,-285.5 1256.08,-48.5 613.08,-48.5"/>
<text text-anchor="middle" x="934.58" y="-72.2" font-family="Times,serif" font-size="14.00">Generic utilities</text>
<text text-anchor="middle" x="934.58" y="-55.7" font-family="Times,serif" font-size="14.00">(incoming edges are just examples, there are more)</text>
</g>
<g id="clust2" class="cluster">
<title>cluster_1</title>
<polygon fill="none" stroke="black" points="176.08,-390 176.08,-466.5 540.08,-466.5 540.08,-390 176.08,-390"/>
<text text-anchor="middle" x="358.08" y="-449.2" font-family="Times,serif" font-size="14.00">VPRO</text>
</g>
<g id="clust3" class="cluster">
<title>cluster_2</title>
<polygon fill="azure" stroke="black" points="1036.08,-305.5 1036.08,-466.5 2026.08,-466.5 2026.08,-305.5 1036.08,-305.5"/>
<text text-anchor="middle" x="1531.08" y="-449.2" font-family="Times,serif" font-size="14.00">POMS Services</text>
</g>
<g id="clust4" class="cluster">
<title>cluster_3</title>
<polygon fill="azure" stroke="black" points="680.08,-305.5 680.08,-382 1028.08,-382 1028.08,-305.5 680.08,-305.5"/>
<text text-anchor="middle" x="854.08" y="-364.7" font-family="Times,serif" font-size="14.00">Backend utilities</text>
</g>
<g id="clust5" class="cluster">
<title>cluster_4</title>
<polygon fill="azure" stroke="black" points="164.08,-233.5 164.08,-382 300.08,-382 300.08,-233.5 164.08,-233.5"/>
<text text-anchor="middle" x="232.08" y="-364.7" font-family="Times,serif" font-size="14.00">Sharable utilities</text>
</g>
<!-- vpro_shared -->
<g id="node1" class="node">
<title>vpro_shared</title>
<g id="a_node1"><a xlink:href="https://github.com/vpro/vpro-shared" xlink:title="vpro_shared">
<ellipse fill="none" stroke="black" cx="803.08" cy="-259.5" rx="56.47" ry="18"/>
<text text-anchor="middle" x="803.08" y="-254.45" font-family="Times,serif" font-size="14.00" fill="blue">vpro_shared</text>
</a>
</g>
</g>
<!-- i18n_regions -->
<g id="node3" class="node">
<title>i18n_regions</title>
<g id="a_node3"><a xlink:href="https://github.com/mihxil/i18n-regions" xlink:title="i18n_regions">
<ellipse fill="none" stroke="black" cx="680.08" cy="-187.5" rx="59.03" ry="18"/>
<text text-anchor="middle" x="680.08" y="-182.45" font-family="Times,serif" font-size="14.00" fill="blue">i18n_regions</text>
</a>
</g>
</g>
<!-- vpro_shared&#45;&gt;i18n_regions -->
<g id="edge1" class="edge">
<title>vpro_shared&#45;&gt;i18n_regions</title>
<path fill="none" stroke="gray" d="M776.39,-243.31C759.03,-233.43 736.13,-220.4 717.03,-209.52"/>
<polygon fill="gray" stroke="gray" points="718.88,-206.55 708.46,-204.65 715.42,-212.64 718.88,-206.55"/>
</g>
<!-- guava -->
<g id="node9" class="node">
<title>guava</title>
<g id="a_node9"><a xlink:href="https://github.com/google/guava" xlink:title="guava">
<ellipse fill="none" stroke="black" stroke-dasharray="5,2" cx="862.08" cy="-187.5" rx="32.93" ry="18"/>
<text text-anchor="middle" x="862.08" y="-182.45" font-family="Times,serif" font-size="14.00" fill="blue">guava</text>
</a>
</g>
</g>
<!-- vpro_shared&#45;&gt;guava -->
<g id="edge2" class="edge">
<title>vpro_shared&#45;&gt;guava</title>
<path fill="none" stroke="gray" d="M817.07,-241.91C824.4,-233.21 833.52,-222.39 841.63,-212.76"/>
<polygon fill="gray" stroke="gray" points="844.27,-215.07 848.03,-205.17 838.91,-210.56 844.27,-215.07"/>
</g>
<!-- slf4j -->
<g id="node22" class="node">
<title>slf4j</title>
<ellipse fill="none" stroke="black" stroke-dasharray="5,2" cx="784.08" cy="-187.5" rx="27.3" ry="18"/>
<text text-anchor="middle" x="784.08" y="-182.45" font-family="Times,serif" font-size="14.00">slf4j</text>
</g>
<!-- vpro_shared&#45;&gt;slf4j -->
<g id="edge3" class="edge">
<title>vpro_shared&#45;&gt;slf4j</title>
<path fill="none" stroke="gray" d="M798.39,-241.2C796.36,-233.74 793.94,-224.82 791.67,-216.47"/>
<polygon fill="gray" stroke="gray" points="795.12,-215.8 789.12,-207.07 788.36,-217.63 795.12,-215.8"/>
</g>
<!-- poms_shared -->
<g id="node2" class="node">
<title>poms_shared</title>
<g id="a_node2"><a xlink:href="https://github.com/npo-poms/poms-shared" xlink:title="poms_shared">
<ellipse fill="none" stroke="black" cx="232.08" cy="-259.5" rx="60.05" ry="18"/>
<text text-anchor="middle" x="232.08" y="-254.45" font-family="Times,serif" font-size="14.00" fill="blue">poms_shared</text>
</a>
</g>
</g>
<!-- poms_shared&#45;&gt;vpro_shared -->
<g id="edge4" class="edge">
<title>poms_shared&#45;&gt;vpro_shared</title>
<path fill="none" stroke="gray" d="M286.3,-267.46C397.13,-283.08 646.15,-314.6 729.08,-295.5 742.11,-292.5 755.51,-286.88 767.25,-280.96"/>
<polygon fill="gray" stroke="gray" points="768.57,-284.22 775.77,-276.45 765.29,-278.04 768.57,-284.22"/>
</g>
<!-- poms_shared&#45;&gt;i18n_regions -->
<g id="edge5" class="edge">
<title>poms_shared&#45;&gt;i18n_regions</title>
<path fill="none" stroke="gray" d="M284.35,-250.33C367.16,-237.39 528.23,-212.23 617.22,-198.32"/>
<polygon fill="gray" stroke="gray" points="617.66,-201.8 627,-196.79 616.58,-194.88 617.66,-201.8"/>
</g>
<!-- nv_i18n -->
<g id="node4" class="node">
<title>nv_i18n</title>
<g id="a_node4"><a xlink:href="https://github.com/TakahikoKawasaki/nv-i18n" xlink:title="nv_i18n">
<ellipse fill="none" stroke="black" cx="680.08" cy="-115.5" rx="41.12" ry="18"/>
<text text-anchor="middle" x="680.08" y="-110.45" font-family="Times,serif" font-size="14.00" fill="blue">nv_i18n</text>
</a>
</g>
</g>
<!-- i18n_regions&#45;&gt;nv_i18n -->
<g id="edge9" class="edge">
<title>i18n_regions&#45;&gt;nv_i18n</title>
<path fill="none" stroke="gray" d="M680.08,-169.2C680.08,-161.91 680.08,-153.23 680.08,-145.04"/>
<polygon fill="gray" stroke="gray" points="683.58,-145.12 680.08,-135.12 676.58,-145.12 683.58,-145.12"/>
</g>
<!-- amara_importer -->
<g id="node5" class="node">
<title>amara_importer</title>
<g id="a_node5"><a xlink:href="https://github.com/vpro/amara-poms" xlink:title="amara_importer">
<ellipse fill="none" stroke="black" cx="365.08" cy="-416" rx="70.8" ry="18"/>
<text text-anchor="middle" x="365.08" y="-410.95" font-family="Times,serif" font-size="14.00" fill="blue">amara_importer</text>
</a>
</g>
</g>
<!-- amara_importer&#45;&gt;vpro_shared -->
<g id="edge41" class="edge">
<title>amara_importer&#45;&gt;vpro_shared</title>
<path fill="none" stroke="gray" d="M384.77,-398.34C415.61,-373.32 478.2,-326.69 540.08,-305.5 623.76,-276.85 652.04,-306 738.08,-285.5 745.51,-283.73 753.23,-281.31 760.64,-278.67"/>
<polygon fill="gray" stroke="gray" points="761.67,-282.03 769.8,-275.23 759.21,-275.47 761.67,-282.03"/>
</g>
<!-- amara_java -->
<g id="node6" class="node">
<title>amara_java</title>
<g id="a_node6"><a xlink:href="https://github.com/vpro/amara-java" xlink:title="amara_java">
<ellipse fill="none" stroke="black" cx="675.08" cy="-259.5" rx="53.91" ry="18"/>
<text text-anchor="middle" x="675.08" y="-254.45" font-family="Times,serif" font-size="14.00" fill="blue">amara_java</text>
</a>
</g>
</g>
<!-- amara_importer&#45;&gt;amara_java -->
<g id="edge42" class="edge">
<title>amara_importer&#45;&gt;amara_java</title>
<path fill="none" stroke="gray" d="M361.8,-397.88C358.25,-373.76 355.98,-329.97 380.08,-305.5 411.2,-273.9 532.65,-264.44 609.68,-261.64"/>
<polygon fill="gray" stroke="gray" points="609.78,-265.14 619.66,-261.31 609.55,-258.14 609.78,-265.14"/>
</g>
<!-- api_client -->
<g id="node11" class="node">
<title>api_client</title>
<g id="a_node11"><a xlink:href="https://github.com/npo-poms/api-clients" xlink:title="api_client">
<ellipse fill="none" stroke="black" cx="238.08" cy="-331.5" rx="47.26" ry="18"/>
<text text-anchor="middle" x="238.08" y="-326.45" font-family="Times,serif" font-size="14.00" fill="blue">api_client</text>
</a>
</g>
</g>
<!-- amara_importer&#45;&gt;api_client -->
<g id="edge43" class="edge">
<title>amara_importer&#45;&gt;api_client</title>
<path fill="none" stroke="gray" d="M339.99,-398.7C320.06,-385.75 292.03,-367.55 270.42,-353.5"/>
<polygon fill="gray" stroke="gray" points="272.55,-350.72 262.26,-348.2 268.74,-356.59 272.55,-350.72"/>
</g>
<!-- resteasy -->
<g id="node7" class="node">
<title>resteasy</title>
<g id="a_node7"><a xlink:href="https://github.com/resteasy/Resteasy" xlink:title="resteasy">
<ellipse fill="none" stroke="black" cx="918.08" cy="-259.5" rx="40.6" ry="18"/>
<text text-anchor="middle" x="918.08" y="-254.45" font-family="Times,serif" font-size="14.00" fill="blue">resteasy</text>
</a>
</g>
</g>
<!-- spring -->
<g id="node8" class="node">
<title>spring</title>
<g id="a_node8"><a xlink:href="https://github.com/spring-projects/spring-framework" xlink:title="spring">
<ellipse fill="none" stroke="black" stroke-dasharray="5,2" cx="1106.08" cy="-259.5" rx="33.95" ry="18"/>
<text text-anchor="middle" x="1106.08" y="-254.45" font-family="Times,serif" font-size="14.00" fill="blue">spring</text>
</a>
</g>
</g>
<!-- hibernate -->
<g id="node10" class="node">
<title>hibernate</title>
<g id="a_node10"><a xlink:href="https://github.com/hibernate/" xlink:title="hibernate">
<ellipse fill="none" stroke="black" cx="1203.08" cy="-259.5" rx="45.21" ry="18"/>
<text text-anchor="middle" x="1203.08" y="-254.45" font-family="Times,serif" font-size="14.00" fill="blue">hibernate</text>
</a>
</g>
</g>
<!-- api_client&#45;&gt;vpro_shared -->
<g id="edge20" class="edge">
<title>api_client&#45;&gt;vpro_shared</title>
<path fill="none" stroke="gray" d="M267.71,-316.99C278.88,-312.52 291.84,-308.03 304.08,-305.5 493.17,-266.37 549.1,-325.11 738.08,-285.5 745.72,-283.9 753.63,-281.52 761.2,-278.85"/>
<polygon fill="gray" stroke="gray" points="762.42,-282.13 770.55,-275.33 759.95,-275.58 762.42,-282.13"/>
</g>
<!-- api_client&#45;&gt;poms_shared -->
<g id="edge21" class="edge">
<title>api_client&#45;&gt;poms_shared</title>
<path fill="none" stroke="gray" d="M236.6,-313.2C235.98,-305.91 235.23,-297.23 234.53,-289.04"/>
<polygon fill="gray" stroke="gray" points="238.02,-288.78 233.68,-279.11 231.05,-289.37 238.02,-288.78"/>
</g>
<!-- poms_backend -->
<g id="node12" class="node">
<title>poms_backend</title>
<g id="a_node12"><a xlink:href="https://gitlab.com/npo-identity/poms/media" xlink:title="POMS &#160;&amp; POMS Backend API">
<ellipse fill="none" stroke="#cd950c" cx="1633.08" cy="-416" rx="129.15" ry="18"/>
<text text-anchor="middle" x="1633.08" y="-410.95" font-family="Times,serif" font-size="14.00" fill="darkgreen">POMS &#160;&amp; POMS Backend API</text>
</a>
</g>
</g>
<!-- poms_backend&#45;&gt;vpro_shared -->
<g id="edge32" class="edge">
<title>poms_backend&#45;&gt;vpro_shared</title>
<path fill="none" stroke="#cd950c" d="M1564.6,-400.35C1542.52,-396.23 1517.86,-392.26 1495.08,-390 1483.14,-388.82 1072.97,-388.8 1063.08,-382 1032.85,-361.22 1061.21,-327.81 1032.08,-305.5 1002.94,-283.18 903.71,-294.38 868.08,-285.5 860.84,-283.69 853.31,-281.3 846.05,-278.72"/>
<polygon fill="#cd950c" stroke="#cd950c" points="847.32,-275.46 836.73,-275.22 844.86,-282.01 847.32,-275.46"/>
</g>
<!-- poms_backend&#45;&gt;poms_shared -->
<g id="edge33" class="edge">
<title>poms_backend&#45;&gt;poms_shared</title>
<path fill="none" stroke="#cd950c" d="M1564.96,-400.29C1542.79,-396.14 1517.99,-392.17 1495.08,-390 1471.6,-387.78 667.24,-392.42 646.08,-382 607.32,-362.91 623.67,-326.82 586.08,-305.5 539.11,-278.85 391.91,-267.63 302.8,-263.18"/>
<polygon fill="#cd950c" stroke="#cd950c" points="303.1,-259.69 292.94,-262.71 302.76,-266.68 303.1,-259.69"/>
</g>
<!-- poms_backend&#45;&gt;resteasy -->
<g id="edge34" class="edge">
<title>poms_backend&#45;&gt;resteasy</title>
<path fill="none" stroke="#cd950c" d="M1564.6,-400.38C1542.51,-396.26 1517.86,-392.29 1495.08,-390 1473.91,-387.87 1130.65,-392.41 1112.08,-382 1076.86,-362.25 1096.33,-328.41 1063.08,-305.5 1027.19,-280.77 1008.19,-299.98 967.08,-285.5 962.24,-283.79 957.27,-281.7 952.44,-279.46"/>
<polygon fill="#cd950c" stroke="#cd950c" points="954.07,-276.36 943.55,-275.08 950.97,-282.64 954.07,-276.36"/>
</g>
<!-- poms_backend&#45;&gt;spring -->
<g id="edge35" class="edge">
<title>poms_backend&#45;&gt;spring</title>
<path fill="none" stroke="#cd950c" d="M1564.24,-400.36C1542.24,-396.27 1517.73,-392.31 1495.08,-390 1476.89,-388.14 1181.49,-391.84 1166.08,-382 1133.67,-361.3 1118.19,-317.49 1111.23,-288.53"/>
<polygon fill="#cd950c" stroke="#cd950c" points="1114.7,-288 1109.14,-278.98 1107.86,-289.5 1114.7,-288"/>
</g>
<!-- poms_backend&#45;&gt;hibernate -->
<g id="edge36" class="edge">
<title>poms_backend&#45;&gt;hibernate</title>
<path fill="none" stroke="#cd950c" d="M1564.24,-400.38C1542.24,-396.29 1517.73,-392.33 1495.08,-390 1486.46,-389.11 1189.13,-388.21 1183.08,-382 1158.85,-357.13 1173.42,-314.91 1187.31,-287.36"/>
<polygon fill="#cd950c" stroke="#cd950c" points="1190.38,-289.05 1192,-278.58 1184.2,-285.75 1190.38,-289.05"/>
</g>
<!-- poms_gui -->
<g id="node13" class="node">
<title>poms_gui</title>
<g id="a_node13"><a xlink:href="https://gitlab.com/npo-identity/poms/media-gui" xlink:title="Angular GUI for POMS">
<ellipse fill="none" stroke="black" cx="1294.08" cy="-331.5" rx="101.51" ry="18"/>
<text text-anchor="middle" x="1294.08" y="-326.45" font-family="Times,serif" font-size="14.00" fill="darkgreen">Angular GUI for POMS</text>
</a>
</g>
</g>
<!-- poms_backend&#45;&gt;poms_gui -->
<g id="edge37" class="edge">
<title>poms_backend&#45;&gt;poms_gui</title>
<path fill="none" stroke="#cd950c" d="M1570.91,-399.87C1512.15,-385.57 1424.18,-364.16 1363.24,-349.33"/>
<polygon fill="#cd950c" stroke="#cd950c" points="1364.2,-345.96 1353.66,-347 1362.55,-352.76 1364.2,-345.96"/>
</g>
<!-- user_backend -->
<g id="node18" class="node">
<title>user_backend</title>
<g id="a_node18"><a xlink:href="https://gitlab.com/npo-identity/poms/user" xlink:title="user_backend">
<ellipse fill="none" stroke="black" cx="958.08" cy="-331.5" rx="61.59" ry="18"/>
<text text-anchor="middle" x="958.08" y="-326.45" font-family="Times,serif" font-size="14.00" fill="darkgreen">user_backend</text>
</a>
</g>
</g>
<!-- poms_backend&#45;&gt;user_backend -->
<g id="edge38" class="edge">
<title>poms_backend&#45;&gt;user_backend</title>
<path fill="none" stroke="#cd950c" d="M1564.6,-400.33C1542.52,-396.21 1517.86,-392.24 1495.08,-390 1469.48,-387.48 1056.63,-389.69 1032.08,-382 1015.11,-376.69 998.44,-366.15 985.24,-356.16"/>
<polygon fill="#cd950c" stroke="#cd950c" points="987.48,-353.46 977.47,-350 983.13,-358.95 987.48,-353.46"/>
</g>
<!-- angular -->
<g id="node23" class="node">
<title>angular</title>
<ellipse fill="none" stroke="black" cx="1015.08" cy="-259.5" rx="38.56" ry="18"/>
<text text-anchor="middle" x="1015.08" y="-254.45" font-family="Times,serif" font-size="14.00">angular</text>
</g>
<!-- poms_gui&#45;&gt;angular -->
<g id="edge39" class="edge">
<title>poms_gui&#45;&gt;angular</title>
<path fill="none" stroke="gray" d="M1212.4,-320.45C1167.5,-313.48 1111.3,-302.35 1063.08,-285.5 1058.03,-283.73 1052.84,-281.51 1047.84,-279.13"/>
<polygon fill="gray" stroke="gray" points="1049.77,-276.18 1039.27,-274.79 1046.61,-282.43 1049.77,-276.18"/>
</g>
<!-- poms_shared_backend -->
<g id="node14" class="node">
<title>poms_shared_backend</title>
<g id="a_node14"><a xlink:href="https://github.com/npo-poms/poms-shared-backend" xlink:title="poms_shared_backend">
<ellipse fill="none" stroke="#00cdcd" cx="783.08" cy="-331.5" rx="95.37" ry="18"/>
<text text-anchor="middle" x="783.08" y="-326.45" font-family="Times,serif" font-size="14.00" fill="darkgreen">poms_shared_backend</text>
</a>
</g>
</g>
<!-- poms_shared_backend&#45;&gt;vpro_shared -->
<g id="edge6" class="edge">
<title>poms_shared_backend&#45;&gt;vpro_shared</title>
<path fill="none" stroke="#00cdcd" d="M788.03,-313.2C790.16,-305.74 792.71,-296.82 795.09,-288.47"/>
<polygon fill="#00cdcd" stroke="#00cdcd" points="798.4,-289.64 797.78,-279.06 791.67,-287.71 798.4,-289.64"/>
</g>
<!-- poms_shared_backend&#45;&gt;poms_shared -->
<g id="edge7" class="edge">
<title>poms_shared_backend&#45;&gt;poms_shared</title>
<path fill="none" stroke="#00cdcd" d="M727.9,-316.44C710.74,-312.45 691.71,-308.41 674.08,-305.5 543.53,-283.97 389.47,-271.09 302.03,-264.93"/>
<polygon fill="#00cdcd" stroke="#00cdcd" points="302.39,-261.45 292.17,-264.25 301.91,-268.43 302.39,-261.45"/>
</g>
<!-- poms_shared_backend&#45;&gt;slf4j -->
<g id="edge8" class="edge">
<title>poms_shared_backend&#45;&gt;slf4j</title>
<path fill="none" stroke="#00cdcd" d="M724.52,-316.88C676.44,-305.41 615.68,-290.16 612.08,-285.5 597.97,-267.2 597.48,-251.41 612.08,-233.5 651.07,-185.67 689.55,-225.04 748.08,-205.5 749.64,-204.98 751.22,-204.41 752.8,-203.81"/>
<polygon fill="#00cdcd" stroke="#00cdcd" points="753.88,-207.15 761.72,-200.02 751.14,-200.71 753.88,-207.15"/>
</g>
<!-- api -->
<g id="node15" class="node">
<title>api</title>
<g id="a_node15"><a xlink:href="https://gitlab.com/npo-identity/poms/api" xlink:title="Frontend API">
<ellipse fill="none" stroke="cornflowerblue" cx="1425.08" cy="-416" rx="61.08" ry="18"/>
<text text-anchor="middle" x="1425.08" y="-410.95" font-family="Times,serif" font-size="14.00" fill="darkgreen">Frontend API</text>
</a>
</g>
</g>
<!-- api&#45;&gt;vpro_shared -->
<g id="edge10" class="edge">
<title>api&#45;&gt;vpro_shared</title>
<path fill="none" stroke="cornflowerblue" d="M1427.79,-397.8C1430.58,-373.16 1431.38,-328.27 1405.08,-305.5 1382.52,-285.96 897.33,-291.5 868.08,-285.5 860.44,-283.93 852.53,-281.57 844.96,-278.91"/>
<polygon fill="cornflowerblue" stroke="cornflowerblue" points="846.2,-275.64 835.61,-275.39 843.74,-282.19 846.2,-275.64"/>
</g>
<!-- api&#45;&gt;poms_shared -->
<g id="edge11" class="edge">
<title>api&#45;&gt;poms_shared</title>
<path fill="none" stroke="cornflowerblue" d="M1391.88,-400.6C1380.44,-396.33 1367.41,-392.2 1355.08,-390 1314.23,-382.7 646.09,-398.66 608.08,-382 565.32,-363.25 577.47,-327.12 536.08,-305.5 496.36,-284.75 377.87,-271.86 301.09,-265.44"/>
<polygon fill="cornflowerblue" stroke="cornflowerblue" points="301.84,-261.99 291.58,-264.67 301.27,-268.97 301.84,-261.99"/>
</g>
<!-- api&#45;&gt;resteasy -->
<g id="edge12" class="edge">
<title>api&#45;&gt;resteasy</title>
<path fill="none" stroke="cornflowerblue" d="M1434.34,-397.95C1445.99,-373.92 1461.79,-330.24 1438.08,-305.5 1401.84,-267.68 1017.74,-298.82 967.08,-285.5 961.71,-284.09 956.25,-282.02 951.01,-279.68"/>
<polygon fill="cornflowerblue" stroke="cornflowerblue" points="952.57,-276.55 942.05,-275.26 949.47,-282.82 952.57,-276.55"/>
</g>
<!-- api&#45;&gt;poms_shared_backend -->
<g id="edge13" class="edge">
<title>api&#45;&gt;poms_shared_backend</title>
<path fill="none" stroke="cornflowerblue" d="M1391.51,-400.51C1380.16,-396.29 1367.27,-392.22 1355.08,-390 1303.92,-380.69 937.71,-393.89 887.08,-382 863.49,-376.46 838.92,-365.07 819.59,-354.61"/>
<polygon fill="cornflowerblue" stroke="cornflowerblue" points="821.47,-351.65 811.04,-349.84 818.06,-357.76 821.47,-351.65"/>
</g>
<!-- api&#45;&gt;user_backend -->
<g id="edge14" class="edge">
<title>api&#45;&gt;user_backend</title>
<path fill="none" stroke="cornflowerblue" d="M1391.5,-400.56C1380.15,-396.35 1367.26,-392.27 1355.08,-390 1319.79,-383.44 1066.3,-392.85 1032.08,-382 1015.13,-376.62 998.47,-366.08 985.26,-356.1"/>
<polygon fill="cornflowerblue" stroke="cornflowerblue" points="987.5,-353.41 977.48,-349.95 983.16,-358.9 987.5,-353.41"/>
</g>
<!-- media_publish -->
<g id="node16" class="node">
<title>media_publish</title>
<g id="a_node16"><a xlink:href="https://gitlab.com/npo-identity/poms/media-publish" xlink:title="Media Publisher">
<ellipse fill="none" stroke="#bf3eff" cx="1116.08" cy="-416" rx="72.34" ry="18"/>
<text text-anchor="middle" x="1116.08" y="-410.95" font-family="Times,serif" font-size="14.00" fill="darkgreen">Media Publisher</text>
</a>
</g>
</g>
<!-- media_publish&#45;&gt;poms_shared -->
<g id="edge18" class="edge">
<title>media_publish&#45;&gt;poms_shared</title>
<path fill="none" stroke="#bf3eff" d="M1043.5,-414.74C909.02,-413.64 626.26,-408.16 532.08,-382 461.88,-362.5 454.64,-332.8 387.08,-305.5 355.52,-292.75 319.01,-281.96 289.36,-274.15"/>
<polygon fill="#bf3eff" stroke="#bf3eff" points="290.37,-270.8 279.82,-271.69 288.62,-277.58 290.37,-270.8"/>
</g>
<!-- media_publish&#45;&gt;user_backend -->
<g id="edge19" class="edge">
<title>media_publish&#45;&gt;user_backend</title>
<path fill="none" stroke="#bf3eff" d="M1074.71,-400.78C1060.87,-395.49 1045.55,-389.04 1032.08,-382 1017.35,-374.29 1001.93,-364.32 989.01,-355.35"/>
<polygon fill="#bf3eff" stroke="#bf3eff" points="991.08,-352.53 980.9,-349.61 987.04,-358.25 991.08,-352.53"/>
</g>
<!-- pages_publish -->
<g id="node17" class="node">
<title>pages_publish</title>
<g id="a_node17"><a xlink:href="https://gitlab.com/npo-identity/poms/pages-publish" xlink:title="Pages Publisher">
<ellipse fill="none" stroke="darkseagreen" cx="1276.08" cy="-416" rx="69.78" ry="18"/>
<text text-anchor="middle" x="1276.08" y="-410.95" font-family="Times,serif" font-size="14.00" fill="darkgreen">Pages Publisher</text>
</a>
</g>
</g>
<!-- pages_publish&#45;&gt;poms_shared -->
<g id="edge15" class="edge">
<title>pages_publish&#45;&gt;poms_shared</title>
<path fill="none" stroke="darkseagreen" d="M1238.06,-400.48C1225.24,-396.26 1210.72,-392.2 1197.08,-390 1162.69,-384.46 602.89,-393.71 570.08,-382 518.7,-363.66 523.71,-328.16 474.08,-305.5 419.63,-280.63 352.3,-269.51 302.5,-264.53"/>
<polygon fill="darkseagreen" stroke="darkseagreen" points="302.99,-261.06 292.7,-263.61 302.34,-268.03 302.99,-261.06"/>
</g>
<!-- pages_publish&#45;&gt;poms_shared_backend -->
<g id="edge16" class="edge">
<title>pages_publish&#45;&gt;poms_shared_backend</title>
<path fill="none" stroke="darkseagreen" d="M1238.04,-400.59C1225.22,-396.37 1210.7,-392.28 1197.08,-390 1129.12,-378.6 954.1,-398.05 887.08,-382 863.51,-376.36 838.95,-364.96 819.61,-354.52"/>
<polygon fill="darkseagreen" stroke="darkseagreen" points="821.49,-351.56 811.05,-349.76 818.09,-357.68 821.49,-351.56"/>
</g>
<!-- pages_publish&#45;&gt;user_backend -->
<g id="edge17" class="edge">
<title>pages_publish&#45;&gt;user_backend</title>
<path fill="none" stroke="darkseagreen" d="M1237.61,-400.64C1224.88,-396.48 1210.54,-392.41 1197.08,-390 1160.95,-383.52 1066.94,-393.51 1032.08,-382 1015.31,-376.46 998.77,-366 985.59,-356.12"/>
<polygon fill="darkseagreen" stroke="darkseagreen" points="987.86,-353.45 977.83,-350.04 983.54,-358.97 987.86,-353.45"/>
</g>
<!-- images -->
<g id="node19" class="node">
<title>images</title>
<g id="a_node19"><a xlink:href="https://gitlab.com/npo-identity/poms/images" xlink:title="Images Frontend &amp; Backend">
<ellipse fill="none" stroke="#caff70" cx="1899.08" cy="-416" rx="118.91" ry="18"/>
<text text-anchor="middle" x="1899.08" y="-410.95" font-family="Times,serif" font-size="14.00" fill="darkgreen">Images Frontend &amp; Backend</text>
</a>
</g>
</g>
<!-- images&#45;&gt;poms_shared -->
<g id="edge22" class="edge">
<title>images&#45;&gt;poms_shared</title>
<path fill="none" stroke="#caff70" d="M1836.28,-400.32C1815.63,-396.15 1792.49,-392.15 1771.08,-390 1755.95,-388.48 689.29,-389.54 676.08,-382 641.62,-362.34 663.46,-326.94 630.08,-305.5 577.6,-271.79 403.23,-263.23 303.57,-261.12"/>
<polygon fill="#caff70" stroke="#caff70" points="303.67,-257.62 293.61,-260.93 303.54,-264.62 303.67,-257.62"/>
</g>
<!-- images&#45;&gt;spring -->
<g id="edge23" class="edge">
<title>images&#45;&gt;spring</title>
<path fill="none" stroke="#caff70" d="M1832.18,-400.76C1812.56,-396.9 1791.01,-392.98 1771.08,-390 1737.05,-384.92 1727.74,-389.12 1694.08,-382 1586.21,-359.18 1566.38,-326.22 1458.08,-305.5 1322.91,-279.64 1280.73,-325.59 1149.08,-285.5 1144.53,-284.11 1139.94,-282.16 1135.55,-279.96"/>
<polygon fill="#caff70" stroke="#caff70" points="1137.51,-277.05 1127.07,-275.23 1134.1,-283.16 1137.51,-277.05"/>
</g>
<!-- images&#45;&gt;hibernate -->
<g id="edge24" class="edge">
<title>images&#45;&gt;hibernate</title>
<path fill="none" stroke="#caff70" d="M1874.93,-397.92C1837.96,-372.77 1764.24,-326.51 1694.08,-305.5 1613.99,-281.51 1370.25,-267.93 1259.24,-262.84"/>
<polygon fill="#caff70" stroke="#caff70" points="1259.62,-259.36 1249.47,-262.4 1259.31,-266.35 1259.62,-259.36"/>
</g>
<!-- images&#45;&gt;user_backend -->
<g id="edge25" class="edge">
<title>images&#45;&gt;user_backend</title>
<path fill="none" stroke="#caff70" d="M1835.95,-400.3C1815.38,-396.15 1792.37,-392.18 1771.08,-390 1730.24,-385.83 1071.31,-394.14 1032.08,-382 1015.09,-376.74 998.43,-366.21 985.22,-356.21"/>
<polygon fill="#caff70" stroke="#caff70" points="987.46,-353.51 977.45,-350.04 983.11,-359 987.46,-353.51"/>
</g>
<!-- functional_tests -->
<g id="node20" class="node">
<title>functional_tests</title>
<g id="a_node20"><a xlink:href="https://github.com/npo-poms/functional-tests" xlink:title="Functional fitnesse tests">
<ellipse fill="#e0eeee" stroke="yellowgreen" cx="2136.08" cy="-416" rx="99.97" ry="18"/>
<text text-anchor="middle" x="2136.08" y="-410.95" font-family="Times,serif" font-size="14.00" fill="blue">Functional fitnesse tests</text>
</a>
</g>
</g>
<!-- api_tests -->
<g id="node21" class="node">
<title>api_tests</title>
<g id="a_node21"><a xlink:href="https://gitlab.com/npo-identity/poms/api-tests" xlink:title="Functional api tests">
<ellipse fill="#e0eeee" stroke="yellowgreen" cx="83.08" cy="-416" rx="83.08" ry="18"/>
<text text-anchor="middle" x="83.08" y="-410.95" font-family="Times,serif" font-size="14.00" fill="darkgreen">Functional api tests</text>
</a>
</g>
</g>
<!-- api_tests&#45;&gt;api_client -->
<g id="edge40" class="edge">
<title>api_tests&#45;&gt;api_client</title>
<path fill="none" stroke="gray" d="M113.34,-398.9C138.46,-385.53 174.29,-366.45 201.11,-352.18"/>
<polygon fill="gray" stroke="gray" points="202.75,-355.27 209.93,-347.48 199.46,-349.09 202.75,-355.27"/>
</g>
<!-- magnolia -->
<g id="node24" class="node">
<title>magnolia</title>
<ellipse fill="none" stroke="black" cx="230.08" cy="-416" rx="45.72" ry="18"/>
<text text-anchor="middle" x="230.08" y="-410.95" font-family="Times,serif" font-size="14.00">magnolia</text>
</g>
<!-- magnolia&#45;&gt;vpro_shared -->
<g id="edge26" class="edge">
<title>magnolia&#45;&gt;vpro_shared</title>
<path fill="none" stroke="#8b8878" d="M259.13,-401.61C267.49,-397.81 276.63,-393.7 285.08,-390 293.48,-386.33 296.15,-386.58 304.08,-382 352.86,-353.85 352.27,-325.03 405.08,-305.5 474.62,-279.79 665.63,-301.21 738.08,-285.5 745.63,-283.86 753.45,-281.49 760.94,-278.85"/>
<polygon fill="#8b8878" stroke="#8b8878" points="762.07,-282.16 770.2,-275.37 759.6,-275.61 762.07,-282.16"/>
</g>
<!-- magnolia&#45;&gt;api_client -->
<g id="edge27" class="edge">
<title>magnolia&#45;&gt;api_client</title>
<path fill="none" stroke="#8b8878" d="M231.74,-397.91C232.77,-387.25 234.13,-373.27 235.32,-360.97"/>
<polygon fill="#8b8878" stroke="#8b8878" points="238.77,-361.65 236.25,-351.36 231.81,-360.98 238.77,-361.65"/>
</g>
<!-- vpro_rs -->
<g id="node25" class="node">
<title>vpro_rs</title>
<ellipse fill="none" stroke="black" cx="493.08" cy="-416" rx="39.07" ry="18"/>
<text text-anchor="middle" x="493.08" y="-410.95" font-family="Times,serif" font-size="14.00">vpro_rs</text>
</g>
<!-- vpro_rs&#45;&gt;vpro_shared -->
<g id="edge28" class="edge">
<title>vpro_rs&#45;&gt;vpro_shared</title>
<path fill="none" stroke="#8b8878" d="M513.91,-400.38C547.01,-377.65 614.21,-333.55 676.08,-305.5 702.45,-293.55 710.78,-295.15 738.08,-285.5 744.67,-283.17 751.59,-280.63 758.36,-278.07"/>
<polygon fill="#8b8878" stroke="#8b8878" points="759.3,-281.46 767.39,-274.63 756.8,-274.92 759.3,-281.46"/>
</g>
<!-- vpro_rs&#45;&gt;poms_shared -->
<g id="edge29" class="edge">
<title>vpro_rs&#45;&gt;poms_shared</title>
<path fill="none" stroke="#8b8878" d="M469.92,-401.29C424.23,-374.24 322.23,-313.86 267.84,-281.67"/>
<polygon fill="#8b8878" stroke="#8b8878" points="269.96,-278.85 259.57,-276.77 266.39,-284.87 269.96,-278.85"/>
</g>
<!-- vpro_rs&#45;&gt;api_client -->
<g id="edge30" class="edge">
<title>vpro_rs&#45;&gt;api_client</title>
<path fill="none" stroke="#8b8878" d="M469.62,-401.53C461.95,-397.47 453.3,-393.24 445.08,-390 437.57,-387.04 345.34,-361.73 286.55,-345.69"/>
<polygon fill="#8b8878" stroke="#8b8878" points="287.66,-342.36 277.09,-343.11 285.82,-349.12 287.66,-342.36"/>
</g>
<!-- vpro_rs&#45;&gt;poms_shared_backend -->
<g id="edge31" class="edge">
<title>vpro_rs&#45;&gt;poms_shared_backend</title>
<path fill="none" stroke="#8b8878" d="M525.79,-405.7C572.99,-392.27 661.11,-367.2 720.92,-350.18"/>
<polygon fill="#8b8878" stroke="#8b8878" points="721.63,-353.62 730.29,-347.52 719.71,-346.89 721.63,-353.62"/>
</g>
</g>
</svg>
