<?xml version="1.0" encoding="UTF-8" standalone="no"?>
<!DOCTYPE svg PUBLIC "-//W3C//DTD SVG 1.1//EN"
 "http://www.w3.org/Graphics/SVG/1.1/DTD/svg11.dtd">
<!-- Generated by graphviz version 2.40.1 (20161225.0304)
 -->
<!-- Title: poms_universe Pages: 1 -->
<svg width="2142pt" height="517pt"
 viewBox="0.00 0.00 2142.00 516.82" xmlns="http://www.w3.org/2000/svg" xmlns:xlink="http://www.w3.org/1999/xlink">
<g id="graph0" class="graph" transform="scale(1 1) rotate(0) translate(4 512.8234)">
<title>poms_universe</title>
<polygon fill="#ffffff" stroke="transparent" points="-4,4 -4,-512.8234 2138,-512.8234 2138,4 -4,4"/>
<text text-anchor="middle" x="1067" y="-7.8" font-family="Times,serif" font-size="14.00" fill="#000000">Deployments relevant for POMS</text>
<g id="clust1" class="cluster">
<title>cluster_0</title>
<polygon fill="#f0ffff" stroke="#000000" points="993,-31 993,-144.9533 1903,-144.9533 1903,-31 993,-31"/>
<text text-anchor="middle" x="1448" y="-38.8" font-family="Times,serif" font-size="14.00" fill="#000000">Generic backend services</text>
</g>
<g id="clust2" class="cluster">
<title>cluster_1</title>
<polygon fill="none" stroke="#000000" points="1865,-167.0833 1865,-259.8234 2126,-259.8234 2126,-167.0833 1865,-167.0833"/>
<text text-anchor="middle" x="1995.5" y="-244.6234" font-family="Times,serif" font-size="14.00" fill="#000000">Single signon</text>
</g>
<g id="clust3" class="cluster">
<title>cluster_3</title>
<polygon fill="none" stroke="#000000" points="1105,-342.8234 1105,-500.8234 1581,-500.8234 1581,-342.8234 1105,-342.8234"/>
<text text-anchor="middle" x="1343" y="-485.6234" font-family="Times,serif" font-size="14.00" fill="#000000">World</text>
</g>
<g id="clust4" class="cluster">
<title>cluster_2</title>
<polygon fill="none" stroke="#000000" points="1113,-350.8234 1113,-425.8234 1465,-425.8234 1465,-350.8234 1113,-350.8234"/>
<text text-anchor="middle" x="1289" y="-410.6234" font-family="Times,serif" font-size="14.00" fill="#000000">VPRO</text>
</g>
<g id="clust5" class="cluster">
<title>cluster_4</title>
<polygon fill="#f0ffff" stroke="#000000" points="993,-175.9533 993,-334.8234 1857,-334.8234 1857,-175.9533 993,-175.9533"/>
<text text-anchor="middle" x="1425" y="-319.6234" font-family="Times,serif" font-size="14.00" fill="#000000">POMS &#160;Services</text>
</g>
<g id="clust6" class="cluster">
<title>cluster_5</title>
<polygon fill="none" stroke="#000000" points="590,-50.4767 590,-227.9533 985,-227.9533 985,-50.4767 590,-50.4767"/>
<text text-anchor="middle" x="787.5" y="-58.2767" font-family="Times,serif" font-size="14.00" fill="#000000">NPO Services</text>
</g>
<g id="clust7" class="cluster">
<title>cluster_6</title>
<polygon fill="none" stroke="#000000" points="8,-152.9533 8,-227.9533 550,-227.9533 550,-152.9533 8,-152.9533"/>
<text text-anchor="middle" x="279" y="-160.7533" font-family="Times,serif" font-size="14.00" fill="#000000">Auxiliary API&#39;s</text>
</g>
<!-- poms -->
<g id="node1" class="node">
<title>poms</title>
<g id="a_node1"><a xlink:href="https://poms.omroep.nl/" xlink:title="POMS">
<ellipse fill="none" stroke="#000000" cx="1377" cy="-285.8234" rx="35.9954" ry="18"/>
<text text-anchor="middle" x="1377" y="-282.1234" font-family="Times,serif" font-size="14.00" fill="#0000ff">POMS</text>
</a>
</g>
</g>
<!-- gtaa -->
<g id="node8" class="node">
<title>gtaa</title>
<g id="a_node8"><a xlink:href="http://gtaa.beeldengeluid.nl/" xlink:title="B&amp;G Thesaurus">
<ellipse fill="none" stroke="#000000" cx="472" cy="-201.9533" rx="70.3881" ry="18"/>
<text text-anchor="middle" x="472" y="-198.2533" font-family="Times,serif" font-size="14.00" fill="#0000ff">B&amp;G Thesaurus</text>
</a>
</g>
</g>
<!-- poms&#45;&gt;gtaa -->
<g id="edge9" class="edge">
<title>poms&#45;&gt;gtaa</title>
<path fill="none" stroke="#0000ff" d="M1350.8474,-273.4823C1344.7877,-271.1559 1338.2732,-269.065 1332,-267.8234 1289.7071,-259.4522 597.1004,-272.8433 556,-259.8234 534.4355,-252.9921 513.4778,-238.5704 497.8902,-225.8337"/>
<polygon fill="#0000ff" stroke="#0000ff" points="500.1494,-223.1605 490.2536,-219.3759 495.6294,-228.5056 500.1494,-223.1605"/>
</g>
<!-- postgresql_media -->
<g id="node11" class="node">
<title>postgresql_media</title>
<ellipse fill="none" stroke="#000000" cx="1076" cy="-99.4767" rx="74.9875" ry="18"/>
<text text-anchor="middle" x="1076" y="-95.7767" font-family="Times,serif" font-size="14.00" fill="#000000">postgresql_media</text>
</g>
<!-- poms&#45;&gt;postgresql_media -->
<g id="edge10" class="edge">
<title>poms&#45;&gt;postgresql_media</title>
<path fill="none" stroke="#0000ff" d="M1354.3761,-271.8171C1302.5119,-239.7084 1174.6885,-160.574 1111.9336,-121.7228"/>
<polygon fill="#0000ff" stroke="#0000ff" points="1113.5084,-118.5814 1103.1635,-116.2934 1109.8237,-124.5331 1113.5084,-118.5814"/>
</g>
<!-- jms_ingest -->
<g id="node14" class="node">
<title>jms_ingest</title>
<ellipse fill="none" stroke="#000000" cx="1429" cy="-99.4767" rx="93.1765" ry="37.4533"/>
<text text-anchor="start" x="1371" y="-110.7767" font-family="Times,serif" font-size="14.00" fill="#000000">JMS ActiveMQ</text>
<text text-anchor="start" x="1371" y="-95.7767" font-family="Times,serif" font-size="14.00" fill="#000000">(broadcast ingests,</text>
<text text-anchor="middle" x="1429" y="-80.7767" font-family="Times,serif" font-size="14.00" fill="#000000">internal SOAP calls)</text>
</g>
<!-- poms&#45;&gt;jms_ingest -->
<g id="edge11" class="edge">
<title>poms&#45;&gt;jms_ingest</title>
<path fill="none" stroke="#0000ff" d="M1373.7662,-267.8419C1369.8557,-241.5404 1365.5613,-191.5185 1381,-152.9533 1382.4707,-149.2797 1384.3138,-145.6954 1386.4144,-142.2348"/>
<polygon fill="#0000ff" stroke="#0000ff" points="1389.3524,-144.1388 1392.1013,-133.9068 1383.5716,-140.1913 1389.3524,-144.1388"/>
</g>
<!-- jms_publish -->
<g id="node15" class="node">
<title>jms_publish</title>
<ellipse fill="none" stroke="#000000" cx="1748" cy="-99.4767" rx="74.9067" ry="26.7407"/>
<text text-anchor="start" x="1703" y="-103.2767" font-family="Times,serif" font-size="14.00" fill="#000000">JMS ActiveMQ</text>
<text text-anchor="middle" x="1748" y="-88.2767" font-family="Times,serif" font-size="14.00" fill="#000000">(publication)</text>
</g>
<!-- poms&#45;&gt;jms_publish -->
<g id="edge12" class="edge">
<title>poms&#45;&gt;jms_publish</title>
<path fill="none" stroke="#0000ff" d="M1386.5637,-268.4465C1404.1239,-238.5261 1444.6529,-178.0771 1498,-152.9533 1531.4118,-137.218 1628.4279,-154.8818 1664,-144.9533 1677.4958,-141.1865 1691.2334,-134.9523 1703.583,-128.2898"/>
<polygon fill="#0000ff" stroke="#0000ff" points="1705.3005,-131.3394 1712.3068,-123.3919 1701.8736,-125.2356 1705.3005,-131.3394"/>
</g>
<!-- ldap -->
<g id="node16" class="node">
<title>ldap</title>
<ellipse fill="none" stroke="#000000" cx="1868" cy="-99.4767" rx="27" ry="18"/>
<text text-anchor="middle" x="1868" y="-95.7767" font-family="Times,serif" font-size="14.00" fill="#000000">ldap</text>
</g>
<!-- poms&#45;&gt;ldap -->
<g id="edge13" class="edge">
<title>poms&#45;&gt;ldap</title>
<path fill="none" stroke="#0000ff" d="M1404.3447,-274.0392C1410.1122,-271.7936 1416.2064,-269.5947 1422,-267.8234 1438.0892,-262.9041 1443.6212,-266.6464 1459,-259.8234 1533.4925,-226.7736 1530.8748,-179.2805 1608,-152.9533 1631.5694,-144.9078 1809.7782,-156.1978 1832,-144.9533 1840.5244,-140.6399 1847.6749,-133.2775 1853.2992,-125.7185"/>
<polygon fill="#0000ff" stroke="#0000ff" points="1856.5321,-127.1812 1859.1912,-116.9254 1850.717,-123.2845 1856.5321,-127.1812"/>
</g>
<!-- keycloak -->
<g id="node18" class="node">
<title>keycloak</title>
<g id="a_node18"><a xlink:href="https://ident-test.poms.omroep.nl/auth/" xlink:title="Keycloak\l(replaces sso,gosa)">
<ellipse fill="none" stroke="#000000" cx="2032" cy="-201.9533" rx="86.0347" ry="26.7407"/>
<text text-anchor="start" x="1979" y="-205.7533" font-family="Times,serif" font-size="14.00" fill="#0000ff">Keycloak</text>
<text text-anchor="middle" x="2032" y="-190.7533" font-family="Times,serif" font-size="14.00" fill="#0000ff">(replaces sso,gosa)</text>
</a>
</g>
</g>
<!-- poms&#45;&gt;keycloak -->
<g id="edge14" class="edge">
<title>poms&#45;&gt;keycloak</title>
<path fill="none" stroke="#0000ff" d="M1403.1574,-273.5067C1409.2169,-271.1791 1415.7301,-269.0815 1422,-267.8234 1478.0017,-256.5858 1881.091,-275.5547 1936,-259.8234 1955.5733,-254.2157 1975.1824,-243.5257 1991.5289,-232.8442"/>
<polygon fill="#0000ff" stroke="#0000ff" points="1993.9311,-235.4448 2000.2536,-226.9432 1990.0094,-229.6465 1993.9311,-235.4448"/>
</g>
<!-- metis -->
<g id="node24" class="node">
<title>metis</title>
<ellipse fill="none" stroke="#000000" cx="666" cy="-99.4767" rx="30.5947" ry="18"/>
<text text-anchor="middle" x="666" y="-95.7767" font-family="Times,serif" font-size="14.00" fill="#000000">metis</text>
</g>
<!-- poms&#45;&gt;metis -->
<g id="edge15" class="edge">
<title>poms&#45;&gt;metis</title>
<path fill="none" stroke="#0000ff" d="M1350.847,-273.4844C1344.7873,-271.1579 1338.2729,-269.0665 1332,-267.8234 1321.8768,-265.8173 596.258,-267.1599 589,-259.8234 555.5953,-226.057 566.9871,-195.0422 589,-152.9533 598.0168,-135.713 615.4021,-122.9133 631.3744,-114.1661"/>
<polygon fill="#0000ff" stroke="#0000ff" points="633.2297,-117.1487 640.5415,-109.4813 630.0442,-110.9154 633.2297,-117.1487"/>
</g>
<!-- pd -->
<g id="node25" class="node">
<title>pd</title>
<ellipse fill="none" stroke="#000000" cx="703" cy="-201.9533" rx="27" ry="18"/>
<text text-anchor="middle" x="703" y="-198.2533" font-family="Times,serif" font-size="14.00" fill="#000000">pd</text>
</g>
<!-- poms&#45;&gt;pd -->
<g id="edge16" class="edge">
<title>poms&#45;&gt;pd</title>
<path fill="none" stroke="#0000ff" d="M1350.8445,-273.4971C1344.7849,-271.1699 1338.2712,-269.075 1332,-267.8234 1299.6898,-261.3747 767.6919,-276.0194 739,-259.8234 727.086,-253.0982 718.5903,-240.6427 712.8555,-229.0051"/>
<polygon fill="#0000ff" stroke="#0000ff" points="715.924,-227.2906 708.6731,-219.5656 709.5241,-230.1262 715.924,-227.2906"/>
</g>
<!-- prepr -->
<g id="node26" class="node">
<title>prepr</title>
<ellipse fill="none" stroke="#000000" cx="628" cy="-201.9533" rx="29.795" ry="18"/>
<text text-anchor="middle" x="628" y="-198.2533" font-family="Times,serif" font-size="14.00" fill="#000000">prepr</text>
</g>
<!-- poms&#45;&gt;prepr -->
<g id="edge17" class="edge">
<title>poms&#45;&gt;prepr</title>
<path fill="none" stroke="#0000ff" d="M1350.8458,-273.4903C1344.7862,-271.1635 1338.2721,-269.0704 1332,-267.8234 1313.8811,-264.2208 683.257,-268.5974 667,-259.8234 654.5491,-253.1035 645.342,-240.4719 639.0103,-228.7206"/>
<polygon fill="#0000ff" stroke="#0000ff" points="642.0893,-227.0501 634.5417,-219.6147 635.8052,-230.134 642.0893,-227.0501"/>
</g>
<!-- miranda -->
<g id="node27" class="node">
<title>miranda</title>
<ellipse fill="none" stroke="#000000" cx="865" cy="-201.9533" rx="40.0939" ry="18"/>
<text text-anchor="middle" x="865" y="-198.2533" font-family="Times,serif" font-size="14.00" fill="#000000">miranda</text>
</g>
<!-- poms&#45;&gt;miranda -->
<g id="edge18" class="edge">
<title>poms&#45;&gt;miranda</title>
<path fill="none" stroke="#0000ff" d="M1350.8392,-273.5234C1344.7799,-271.1948 1338.2676,-269.0927 1332,-267.8234 1309.2357,-263.2131 934.9777,-269.7935 914,-259.8234 899.8397,-253.0933 888.2498,-240.1008 879.9034,-228.1291"/>
<polygon fill="#0000ff" stroke="#0000ff" points="882.8004,-226.1639 874.4087,-219.6963 876.9355,-229.9854 882.8004,-226.1639"/>
</g>
<!-- pluto -->
<g id="node28" class="node">
<title>pluto</title>
<ellipse fill="none" stroke="#000000" cx="777" cy="-201.9533" rx="29.4969" ry="18"/>
<text text-anchor="middle" x="777" y="-198.2533" font-family="Times,serif" font-size="14.00" fill="#000000">pluto</text>
</g>
<!-- poms&#45;&gt;pluto -->
<g id="edge19" class="edge">
<title>poms&#45;&gt;pluto</title>
<path fill="none" stroke="#0000ff" d="M1350.8426,-273.5065C1344.7832,-271.1788 1338.2699,-269.0813 1332,-267.8234 1303.8901,-262.1836 841.2064,-273.4841 816,-259.8234 803.5608,-253.0819 794.3547,-240.4484 788.0206,-228.7014"/>
<polygon fill="#0000ff" stroke="#0000ff" points="791.1003,-227.0324 783.5496,-219.6001 784.8174,-230.1188 791.1003,-227.0324"/>
</g>
<!-- nep -->
<g id="node29" class="node">
<title>nep</title>
<ellipse fill="none" stroke="#000000" cx="950" cy="-201.9533" rx="27" ry="18"/>
<text text-anchor="middle" x="950" y="-198.2533" font-family="Times,serif" font-size="14.00" fill="#000000">nep</text>
</g>
<!-- poms&#45;&gt;nep -->
<g id="edge20" class="edge">
<title>poms&#45;&gt;nep</title>
<path fill="none" stroke="#0000ff" d="M1350.8353,-273.5428C1344.7762,-271.2133 1338.265,-269.1058 1332,-267.8234 1313.3265,-264.0009 1005.7223,-268.9708 989,-259.8234 976.5872,-253.0333 967.3835,-240.3956 961.0441,-228.6583"/>
<polygon fill="#0000ff" stroke="#0000ff" points="964.1251,-226.9924 956.5675,-219.5673 957.8452,-230.0848 964.1251,-226.9924"/>
</g>
<!-- poms_backend -->
<g id="node2" class="node">
<title>poms_backend</title>
<g id="a_node2"><a xlink:href="https://api.poms.omroep.nl/" xlink:title="POMS backend API">
<ellipse fill="none" stroke="#000000" cx="1608" cy="-285.8234" rx="85.2851" ry="18"/>
<text text-anchor="middle" x="1608" y="-282.1234" font-family="Times,serif" font-size="14.00" fill="#0000ff">POMS backend API</text>
</a>
</g>
</g>
<!-- poms_backend&#45;&gt;jms_ingest -->
<g id="edge21" class="edge">
<title>poms_backend&#45;&gt;jms_ingest</title>
<path fill="none" stroke="#ff7f00" d="M1592.0253,-267.8745C1568.8837,-242.0338 1524.4774,-193.0478 1485,-152.9533 1481.1684,-149.0618 1477.1426,-145.0587 1473.0808,-141.0774"/>
<polygon fill="#ff7f00" stroke="#ff7f00" points="1475.3741,-138.4255 1465.7647,-133.9634 1470.4942,-143.4441 1475.3741,-138.4255"/>
</g>
<!-- poms_backend&#45;&gt;ldap -->
<g id="edge22" class="edge">
<title>poms_backend&#45;&gt;ldap</title>
<path fill="none" stroke="#ff7f00" d="M1610.698,-267.3685C1616.1481,-237.5173 1631.5126,-179.3264 1671,-152.9533 1700.7889,-133.0578 1800.1507,-161.3494 1832,-144.9533 1840.4941,-140.5805 1847.6368,-133.2028 1853.2632,-125.6479"/>
<polygon fill="#ff7f00" stroke="#ff7f00" points="1856.4907,-127.12 1859.1616,-116.8673 1850.68,-123.2166 1856.4907,-127.12"/>
</g>
<!-- poms_backend&#45;&gt;metis -->
<g id="edge23" class="edge">
<title>poms_backend&#45;&gt;metis</title>
<path fill="none" stroke="#ff7f00" d="M1546.2836,-273.3267C1525.5295,-269.0875 1502.2533,-264.2931 1481,-259.8234 1260.749,-213.5034 1207.0564,-195.2629 986,-152.9533 885.3295,-133.6853 766.0887,-114.7892 705.5451,-105.472"/>
<polygon fill="#ff7f00" stroke="#ff7f00" points="706.0569,-102.0096 695.6418,-103.9529 704.9955,-108.9287 706.0569,-102.0096"/>
</g>
<!-- poms_backend&#45;&gt;nep -->
<g id="edge24" class="edge">
<title>poms_backend&#45;&gt;nep</title>
<path fill="none" stroke="#ff7f00" d="M1548.8105,-272.8691C1537.3159,-270.8134 1525.3225,-268.9848 1514,-267.8234 1499.4911,-266.3351 1001.8239,-266.7711 989,-259.8234 976.5599,-253.0835 967.3537,-240.4502 961.0198,-228.7029"/>
<polygon fill="#ff7f00" stroke="#ff7f00" points="964.0994,-227.0337 956.549,-219.6012 957.8165,-230.12 964.0994,-227.0337"/>
</g>
<!-- api -->
<g id="node3" class="node">
<title>api</title>
<g id="a_node3"><a xlink:href="https://rs.poms.omroep.nl/" xlink:title="NPO Frontend API">
<ellipse fill="none" stroke="#000000" cx="1242" cy="-285.8234" rx="81.4863" ry="18"/>
<text text-anchor="middle" x="1242" y="-282.1234" font-family="Times,serif" font-size="14.00" fill="#0000ff">NPO Frontend API</text>
</a>
</g>
</g>
<!-- api&#45;&gt;gtaa -->
<g id="edge25" class="edge">
<title>api&#45;&gt;gtaa</title>
<path fill="none" stroke="#6495ed" d="M1185.1103,-272.8032C1174.1763,-270.7678 1162.7753,-268.9634 1152,-267.8234 1119.0697,-264.3393 587.5524,-269.8727 556,-259.8234 534.6439,-253.0215 513.8731,-238.8007 498.3286,-226.1591"/>
<polygon fill="#6495ed" stroke="#6495ed" points="500.1612,-223.1262 490.26,-219.3556 495.6488,-228.4777 500.1612,-223.1262"/>
</g>
<!-- elasticsearch -->
<g id="node13" class="node">
<title>elasticsearch</title>
<ellipse fill="none" stroke="#000000" cx="1598" cy="-99.4767" rx="57.3905" ry="18"/>
<text text-anchor="middle" x="1598" y="-95.7767" font-family="Times,serif" font-size="14.00" fill="#000000">elasticsearch</text>
</g>
<!-- api&#45;&gt;elasticsearch -->
<g id="edge26" class="edge">
<title>api&#45;&gt;elasticsearch</title>
<path fill="none" stroke="#6495ed" d="M1254.0181,-267.951C1275.4322,-237.8424 1323.3921,-177.8594 1381,-152.9533 1411.6398,-139.7066 1499.3647,-155.6059 1531,-144.9533 1545.3662,-140.1158 1559.5169,-131.2853 1571.0848,-122.6838"/>
<polygon fill="#6495ed" stroke="#6495ed" points="1573.2677,-125.4201 1579.0178,-116.5214 1568.9734,-119.892 1573.2677,-125.4201"/>
</g>
<!-- pages_publish -->
<g id="node4" class="node">
<title>pages_publish</title>
<g id="a_node4"><a xlink:href="https://publish.pages.omroep.nl/" xlink:title="Pages Publisher">
<ellipse fill="none" stroke="#000000" cx="1780" cy="-285.8234" rx="68.7879" ry="18"/>
<text text-anchor="middle" x="1780" y="-282.1234" font-family="Times,serif" font-size="14.00" fill="#0000ff">Pages Publisher</text>
</a>
</g>
</g>
<!-- media_publish -->
<g id="node5" class="node">
<title>media_publish</title>
<ellipse fill="none" stroke="#000000" cx="1778" cy="-201.9533" rx="70.6878" ry="18"/>
<text text-anchor="middle" x="1778" y="-198.2533" font-family="Times,serif" font-size="14.00" fill="#000000">Media Publisher</text>
</g>
<!-- pages_publish&#45;&gt;media_publish -->
<g id="edge32" class="edge">
<title>pages_publish&#45;&gt;media_publish</title>
<path fill="none" stroke="#c0c0c0" d="M1779.566,-267.6248C1779.2306,-253.557 1778.7684,-234.1752 1778.4331,-220.1164"/>
</g>
<!-- pages_publish&#45;&gt;gtaa -->
<g id="edge27" class="edge">
<title>pages_publish&#45;&gt;gtaa</title>
<path fill="none" stroke="#8fbc8f" d="M1731.6076,-272.9231C1721.8717,-270.8192 1711.6618,-268.9588 1702,-267.8234 1640.4222,-260.5867 646.2473,-274.468 586,-259.8234 557.1869,-252.8196 527.4007,-237.366 505.5036,-224.1891"/>
<polygon fill="#8fbc8f" stroke="#8fbc8f" points="507.2743,-221.1691 496.9252,-218.9003 503.6007,-227.1276 507.2743,-221.1691"/>
</g>
<!-- pages_publish&#45;&gt;elasticsearch -->
<g id="edge28" class="edge">
<title>pages_publish&#45;&gt;elasticsearch</title>
<path fill="none" stroke="#8fbc8f" d="M1728.4899,-273.7916C1700.5799,-267.2302 1671.6195,-260.3335 1671,-259.8234 1629.7375,-225.8466 1610.7925,-163.5399 1602.9232,-127.4123"/>
<polygon fill="#8fbc8f" stroke="#8fbc8f" points="1606.3356,-126.629 1600.9058,-117.5313 1599.4771,-128.0294 1606.3356,-126.629"/>
</g>
<!-- pages_publish&#45;&gt;ldap -->
<g id="edge29" class="edge">
<title>pages_publish&#45;&gt;ldap</title>
<path fill="none" stroke="#8fbc8f" d="M1726.7199,-274.1772C1713.5352,-270.1769 1702.0137,-265.3066 1698,-259.8234 1669.945,-221.4964 1665.4301,-187.5256 1698,-152.9533 1708.2277,-142.0968 1818.7729,-151.8464 1832,-144.9533 1840.4722,-140.5382 1847.6092,-133.1495 1853.2371,-125.5976"/>
<polygon fill="#8fbc8f" stroke="#8fbc8f" points="1856.4607,-127.0763 1859.1401,-116.8258 1850.6533,-123.1681 1856.4607,-127.0763"/>
</g>
<!-- media_publish&#45;&gt;elasticsearch -->
<g id="edge30" class="edge">
<title>media_publish&#45;&gt;elasticsearch</title>
<path fill="none" stroke="#bf3eff" d="M1743.4174,-186.2097C1720.4662,-175.3877 1689.9118,-160.2572 1664,-144.9533 1652.1824,-137.9737 1639.6738,-129.6216 1628.7609,-121.9907"/>
<polygon fill="#bf3eff" stroke="#bf3eff" points="1630.5782,-118.989 1620.3947,-116.0655 1626.5325,-124.7014 1630.5782,-118.989"/>
</g>
<!-- media_publish&#45;&gt;jms_publish -->
<g id="edge31" class="edge">
<title>media_publish&#45;&gt;jms_publish</title>
<path fill="none" stroke="#bf3eff" d="M1772.6366,-183.6325C1768.7845,-170.4742 1763.462,-152.2931 1758.7495,-136.1959"/>
<polygon fill="#bf3eff" stroke="#bf3eff" points="1762.0815,-135.1197 1755.9128,-126.5059 1755.3634,-137.0865 1762.0815,-135.1197"/>
</g>
<!-- images_frontend -->
<g id="node6" class="node">
<title>images_frontend</title>
<g id="a_node6"><a xlink:href="https://images.poms.omroep.nl" xlink:title="Images">
<ellipse fill="none" stroke="#000000" cx="1468" cy="-285.8234" rx="37.0935" ry="18"/>
<text text-anchor="middle" x="1468" y="-282.1234" font-family="Times,serif" font-size="14.00" fill="#0000ff">Images</text>
</a>
</g>
</g>
<!-- postgresql_image -->
<g id="node12" class="node">
<title>postgresql_image</title>
<ellipse fill="none" stroke="#000000" cx="1243" cy="-99.4767" rx="74.9875" ry="18"/>
<text text-anchor="middle" x="1243" y="-95.7767" font-family="Times,serif" font-size="14.00" fill="#000000">postgresql_image</text>
</g>
<!-- images_frontend&#45;&gt;postgresql_image -->
<g id="edge33" class="edge">
<title>images_frontend&#45;&gt;postgresql_image</title>
<path fill="none" stroke="#caff70" d="M1449.2036,-270.2561C1409.9471,-237.7435 1319.0183,-162.4356 1272.1277,-123.6004"/>
<polygon fill="#caff70" stroke="#caff70" points="1274.1126,-120.6999 1264.1785,-117.0169 1269.6476,-126.091 1274.1126,-120.6999"/>
</g>
<!-- images_backend -->
<g id="node7" class="node">
<title>images_backend</title>
<g id="a_node7"><a xlink:href="https://poms.omroep.nl/images/" xlink:title="Images Backend">
<ellipse fill="none" stroke="#000000" cx="1072" cy="-285.8234" rx="70.6878" ry="18"/>
<text text-anchor="middle" x="1072" y="-282.1234" font-family="Times,serif" font-size="14.00" fill="#0000ff">Images Backend</text>
</a>
</g>
</g>
<!-- thineye -->
<g id="node9" class="node">
<title>thineye</title>
<ellipse fill="none" stroke="#000000" cx="170" cy="-201.9533" rx="37.8943" ry="18"/>
<text text-anchor="middle" x="170" y="-198.2533" font-family="Times,serif" font-size="14.00" fill="#000000">thineye</text>
</g>
<!-- images_backend&#45;&gt;thineye -->
<g id="edge34" class="edge">
<title>images_backend&#45;&gt;thineye</title>
<path fill="none" stroke="#caff70" d="M1001.07,-285.2689C802.2661,-283.5022 251.8554,-277.0725 217,-259.8234 203.319,-253.0529 192.2683,-240.2385 184.328,-228.3858"/>
<polygon fill="#caff70" stroke="#caff70" points="187.1287,-226.2623 178.8702,-219.6255 181.1874,-229.9638 187.1287,-226.2623"/>
</g>
<!-- images_backend&#45;&gt;postgresql_image -->
<g id="edge35" class="edge">
<title>images_backend&#45;&gt;postgresql_image</title>
<path fill="none" stroke="#caff70" d="M1085.9799,-268.038C1106.7132,-241.9809 1147.2377,-192.2605 1185,-152.9533 1194.5087,-143.0556 1205.4606,-132.7124 1215.2687,-123.7892"/>
<polygon fill="#caff70" stroke="#caff70" points="1217.7497,-126.265 1222.8399,-116.973 1213.0662,-121.0626 1217.7497,-126.265"/>
</g>
<!-- images_backend&#45;&gt;jms_ingest -->
<g id="edge36" class="edge">
<title>images_backend&#45;&gt;jms_ingest</title>
<path fill="none" stroke="#caff70" d="M1123.8002,-273.368C1133.8871,-269.807 1144.0867,-265.3472 1153,-259.8234 1209.335,-224.9107 1197.5075,-182.1625 1257,-152.9533 1285.1085,-139.1528 1296.7926,-153.2028 1327,-144.9533 1338.4706,-141.8207 1350.2992,-137.5791 1361.656,-132.9396"/>
<polygon fill="#caff70" stroke="#caff70" points="1363.2165,-136.08 1371.0664,-128.9645 1360.4926,-129.6317 1363.2165,-136.08"/>
</g>
<!-- images_backend&#45;&gt;ldap -->
<g id="edge37" class="edge">
<title>images_backend&#45;&gt;ldap</title>
<path fill="none" stroke="#caff70" d="M1123.4868,-273.4238C1132.9369,-271.3804 1142.7397,-269.4137 1152,-267.8234 1181.5566,-262.7474 1190.1135,-267.881 1219,-259.8234 1329.9082,-228.8865 1342.7144,-178.4419 1455,-152.9533 1475.4294,-148.3159 1813.2397,-154.2762 1832,-144.9533 1840.5554,-140.7017 1847.714,-133.3553 1853.336,-125.792"/>
<polygon fill="#caff70" stroke="#caff70" points="1856.5747,-127.2449 1859.2216,-116.986 1850.7549,-123.3551 1856.5747,-127.2449"/>
</g>
<!-- sso -->
<g id="node17" class="node">
<title>sso</title>
<g id="a_node17"><a xlink:href="https://sso.omroep.nl" xlink:title="SSO">
<ellipse fill="none" stroke="#000000" cx="1900" cy="-201.9533" rx="27.0966" ry="18"/>
<text text-anchor="middle" x="1900" y="-198.2533" font-family="Times,serif" font-size="14.00" fill="#0000ff">SSO</text>
</a>
</g>
</g>
<!-- images_backend&#45;&gt;sso -->
<g id="edge38" class="edge">
<title>images_backend&#45;&gt;sso</title>
<path fill="none" stroke="#caff70" d="M1121.6516,-272.9561C1131.6356,-270.8495 1142.102,-268.9797 1152,-267.8234 1171.5627,-265.538 1843.6641,-269.1714 1861,-259.8234 1873.4534,-253.1082 1882.6607,-240.477 1888.992,-228.7247"/>
<polygon fill="#caff70" stroke="#caff70" points="1892.1975,-230.1372 1893.46,-219.6179 1885.9131,-227.0539 1892.1975,-230.1372"/>
</g>
<!-- wikimedia -->
<g id="node30" class="node">
<title>wikimedia</title>
<ellipse fill="none" stroke="#000000" cx="65" cy="-201.9533" rx="49.2915" ry="18"/>
<text text-anchor="middle" x="65" y="-198.2533" font-family="Times,serif" font-size="14.00" fill="#000000">wikimedia</text>
</g>
<!-- images_backend&#45;&gt;wikimedia -->
<g id="edge39" class="edge">
<title>images_backend&#45;&gt;wikimedia</title>
<path fill="none" stroke="#caff70" d="M1001.0899,-285.3113C787.6101,-283.5812 163.1293,-277.0664 123,-259.8234 107.1783,-253.025 93.35,-239.7148 83.168,-227.572"/>
<polygon fill="#caff70" stroke="#caff70" points="85.6787,-225.1052 76.7217,-219.4463 80.1948,-229.4557 85.6787,-225.1052"/>
</g>
<!-- pixabay -->
<g id="node31" class="node">
<title>pixabay</title>
<ellipse fill="none" stroke="#000000" cx="344" cy="-201.9533" rx="39.7935" ry="18"/>
<text text-anchor="middle" x="344" y="-198.2533" font-family="Times,serif" font-size="14.00" fill="#000000">pixabay</text>
</g>
<!-- images_backend&#45;&gt;pixabay -->
<g id="edge40" class="edge">
<title>images_backend&#45;&gt;pixabay</title>
<path fill="none" stroke="#caff70" d="M1001.136,-284.6438C832.6186,-281.6316 419.9618,-272.9553 393,-259.8234 378.9047,-252.9582 367.3194,-239.9562 358.9592,-228.0131"/>
<polygon fill="#caff70" stroke="#caff70" points="361.8596,-226.0534 353.4519,-219.6066 356.0042,-229.8894 361.8596,-226.0534"/>
</g>
<!-- flickr -->
<g id="node32" class="node">
<title>flickr</title>
<ellipse fill="none" stroke="#000000" cx="256" cy="-201.9533" rx="29.795" ry="18"/>
<text text-anchor="middle" x="256" y="-198.2533" font-family="Times,serif" font-size="14.00" fill="#000000">flickr</text>
</g>
<!-- images_backend&#45;&gt;flickr -->
<g id="edge41" class="edge">
<title>images_backend&#45;&gt;flickr</title>
<path fill="none" stroke="#caff70" d="M1001.193,-285.193C815.3085,-283.3061 325.5724,-276.7489 295,-259.8234 282.6218,-252.9705 273.4211,-240.3273 267.0747,-228.6026"/>
<polygon fill="#caff70" stroke="#caff70" points="270.1576,-226.9407 262.5909,-219.5248 263.8814,-230.0407 270.1576,-226.9407"/>
</g>
<!-- functional_tests -->
<g id="node10" class="node">
<title>functional_tests</title>
<g id="a_node10"><a xlink:href="https://jenkins.vpro.nl/job/POMS%20Functional%20Tests/" xlink:title="functional_tests">
<ellipse fill="#f0ffff" stroke="#000000" cx="1347" cy="-451.8234" rx="68.4888" ry="18"/>
<text text-anchor="middle" x="1347" y="-448.1234" font-family="Times,serif" font-size="14.00" fill="#0000ff">functional_tests</text>
</a>
</g>
</g>
<!-- functional_tests&#45;&gt;poms_backend -->
<g id="edge49" class="edge">
<title>functional_tests&#45;&gt;poms_backend</title>
<path fill="none" stroke="#c0c0c0" d="M1396.0864,-439.2532C1405.3148,-437.2022 1414.9175,-435.2767 1424,-433.8234 1444.0452,-430.6159 1497.5474,-436.1919 1515,-425.8234 1557.9683,-400.2962 1585.0708,-346.2566 1598.3032,-313.2854"/>
<polygon fill="#c0c0c0" stroke="#c0c0c0" points="1601.6347,-314.3739 1601.9668,-303.7842 1595.1034,-311.8554 1601.6347,-314.3739"/>
</g>
<!-- functional_tests&#45;&gt;api -->
<g id="edge50" class="edge">
<title>functional_tests&#45;&gt;api</title>
<path fill="none" stroke="#c0c0c0" d="M1396.5363,-439.3787C1405.6341,-437.34 1415.0751,-435.3864 1424,-433.8234 1438.9872,-431.1986 1481.8892,-437.1934 1492,-425.8234 1516.5132,-398.2572 1517.4247,-369.5511 1492,-342.8234 1479.7318,-329.9264 1349.1347,-339.6443 1332,-334.8234 1312.0592,-329.213 1291.6392,-318.5693 1275.3012,-308.6317"/>
<polygon fill="#c0c0c0" stroke="#c0c0c0" points="1277.0047,-305.5687 1266.6735,-303.2199 1273.2851,-311.4986 1277.0047,-305.5687"/>
</g>
<!-- functional_tests&#45;&gt;pages_publish -->
<g id="edge51" class="edge">
<title>functional_tests&#45;&gt;pages_publish</title>
<path fill="none" stroke="#c0c0c0" d="M1395.6392,-439.1197C1404.9969,-437.0551 1414.7607,-435.159 1424,-433.8234 1454.6217,-429.3967 1533.5845,-435.4158 1563,-425.8234 1639.0066,-401.0375 1714.4126,-342.8556 1753.1779,-309.8272"/>
<polygon fill="#c0c0c0" stroke="#c0c0c0" points="1755.5952,-312.3643 1760.8809,-303.1821 1751.0228,-307.0639 1755.5952,-312.3643"/>
</g>
<!-- sso&#45;&gt;ldap -->
<g id="edge45" class="edge">
<title>sso&#45;&gt;ldap</title>
<path fill="none" stroke="#c0c0c0" d="M1894.426,-184.1032C1889.4933,-168.3067 1882.2189,-145.0111 1876.5504,-126.8584"/>
<polygon fill="#c0c0c0" stroke="#c0c0c0" points="1879.8318,-125.6243 1873.5101,-117.1222 1873.15,-127.7109 1879.8318,-125.6243"/>
</g>
<!-- keycloak&#45;&gt;ldap -->
<g id="edge48" class="edge">
<title>keycloak&#45;&gt;ldap</title>
<path fill="none" stroke="#c0c0c0" d="M1993.1343,-177.6678C1963.5193,-159.1626 1923.4107,-134.1004 1896.668,-117.3901"/>
<polygon fill="#c0c0c0" stroke="#c0c0c0" points="1898.4808,-114.3957 1888.1456,-112.0648 1894.7714,-120.3321 1898.4808,-114.3957"/>
</g>
<!-- users -->
<g id="node19" class="node">
<title>users</title>
<ellipse fill="none" stroke="#000000" cx="1142" cy="-451.8234" rx="29.4969" ry="18"/>
<text text-anchor="middle" x="1142" y="-448.1234" font-family="Times,serif" font-size="14.00" fill="#000000">users</text>
</g>
<!-- users&#45;&gt;api -->
<g id="edge4" class="edge">
<title>users&#45;&gt;api</title>
<path fill="none" stroke="#c0c0c0" d="M1163.9389,-439.5568C1169.0636,-437.2266 1174.6046,-435.1153 1180,-433.8234 1195.6201,-430.0831 1457.8009,-437.3368 1469,-425.8234 1494.721,-399.3806 1494.3127,-369.6573 1469,-342.8234 1458.5369,-331.7315 1346.6608,-339.0145 1332,-334.8234 1312.0828,-329.1296 1291.665,-318.4784 1275.3223,-308.5573"/>
<polygon fill="#c0c0c0" stroke="#c0c0c0" points="1277.0252,-305.4942 1266.6914,-303.1569 1273.3121,-311.4283 1277.0252,-305.4942"/>
</g>
<!-- users&#45;&gt;images_frontend -->
<g id="edge5" class="edge">
<title>users&#45;&gt;images_frontend</title>
<path fill="none" stroke="#c0c0c0" d="M1163.937,-439.5487C1169.0617,-437.2188 1174.6033,-435.1098 1180,-433.8234 1196.8665,-429.8029 1479.8976,-438.2401 1492,-425.8234 1521.3256,-395.7362 1500.987,-343.687 1484.1009,-312.2348"/>
<polygon fill="#c0c0c0" stroke="#c0c0c0" points="1486.9707,-310.1961 1479.03,-303.1821 1480.8635,-313.6171 1486.9707,-310.1961"/>
</g>
<!-- magnolia_frontend -->
<g id="node22" class="node">
<title>magnolia_frontend</title>
<ellipse fill="none" stroke="#000000" cx="1201" cy="-376.8234" rx="79.8859" ry="18"/>
<text text-anchor="middle" x="1201" y="-373.1234" font-family="Times,serif" font-size="14.00" fill="#000000">magnolia_frontend</text>
</g>
<!-- users&#45;&gt;magnolia_frontend -->
<g id="edge6" class="edge">
<title>users&#45;&gt;magnolia_frontend</title>
<path fill="none" stroke="#c0c0c0" d="M1154.8021,-435.5495C1162.3641,-425.9368 1172.1088,-413.5494 1180.6977,-402.6314"/>
<polygon fill="#c0c0c0" stroke="#c0c0c0" points="1183.5531,-404.6625 1186.9851,-394.6389 1178.0514,-400.3345 1183.5531,-404.6625"/>
</g>
<!-- backendsystems -->
<g id="node20" class="node">
<title>backendsystems</title>
<ellipse fill="none" stroke="#000000" cx="1503" cy="-451.8234" rx="69.5877" ry="18"/>
<text text-anchor="middle" x="1503" y="-448.1234" font-family="Times,serif" font-size="14.00" fill="#000000">backendsystems</text>
</g>
<!-- backendsystems&#45;&gt;poms_backend -->
<g id="edge7" class="edge">
<title>backendsystems&#45;&gt;poms_backend</title>
<path fill="none" stroke="#c0c0c0" d="M1571.3647,-448.1758C1604.9838,-444.8019 1640.5154,-438.3104 1651,-425.8234 1674.7206,-397.5723 1662.7143,-377.8029 1651,-342.8234 1647.2026,-331.4842 1640.1611,-320.5968 1632.8597,-311.4309"/>
<polygon fill="#c0c0c0" stroke="#c0c0c0" points="1635.3023,-308.8996 1626.1668,-303.5337 1629.9621,-313.4254 1635.3023,-308.8996"/>
</g>
<!-- backendsystems&#45;&gt;pages_publish -->
<g id="edge8" class="edge">
<title>backendsystems&#45;&gt;pages_publish</title>
<path fill="none" stroke="#c0c0c0" d="M1572.3872,-450.4403C1653.7112,-448.0857 1779.3227,-441.8706 1794,-425.8234 1821.6692,-395.5718 1807.0405,-344.8113 1793.6828,-313.4365"/>
<polygon fill="#c0c0c0" stroke="#c0c0c0" points="1796.7293,-311.6759 1789.4458,-303.9816 1790.3414,-314.5385 1796.7293,-311.6759"/>
</g>
<!-- editors -->
<g id="node21" class="node">
<title>editors</title>
<ellipse fill="none" stroke="#000000" cx="1225" cy="-451.8234" rx="35.9954" ry="18"/>
<text text-anchor="middle" x="1225" y="-448.1234" font-family="Times,serif" font-size="14.00" fill="#000000">editors</text>
</g>
<!-- editors&#45;&gt;poms -->
<g id="edge1" class="edge">
<title>editors&#45;&gt;poms</title>
<path fill="none" stroke="#c0c0c0" d="M1251.6562,-439.4181C1257.5778,-437.158 1263.908,-435.1108 1270,-433.8234 1282.0747,-431.2717 1483.4319,-434.7058 1492,-425.8234 1517.6104,-399.2735 1516.5589,-370.3488 1492,-342.8234 1481.5764,-331.1407 1435.953,-341.9261 1422,-334.8234 1411.2823,-329.3675 1401.8385,-320.2435 1394.4055,-311.3379"/>
<polygon fill="#c0c0c0" stroke="#c0c0c0" points="1397.0738,-309.0678 1388.1657,-303.3322 1391.5527,-313.3711 1397.0738,-309.0678"/>
</g>
<!-- editors&#45;&gt;keycloak -->
<g id="edge2" class="edge">
<title>editors&#45;&gt;keycloak</title>
<path fill="none" stroke="#c0c0c0" d="M1251.6529,-439.4024C1257.5747,-437.1433 1263.9058,-435.1005 1270,-433.8234 1323.3153,-422.6504 1461.0975,-433.6896 1515,-425.8234 1672.3408,-402.8619 1718.4417,-405.2542 1861,-334.8234 1913.7367,-308.7689 1965.8836,-264.9321 1998.4636,-234.7805"/>
<polygon fill="#c0c0c0" stroke="#c0c0c0" points="2001.003,-237.1977 2005.9123,-227.8089 1996.2196,-232.087 2001.003,-237.1977"/>
</g>
<!-- magnolia_backend -->
<g id="node23" class="node">
<title>magnolia_backend</title>
<ellipse fill="none" stroke="#000000" cx="1378" cy="-376.8234" rx="79.0865" ry="18"/>
<text text-anchor="middle" x="1378" y="-373.1234" font-family="Times,serif" font-size="14.00" fill="#000000">magnolia_backend</text>
</g>
<!-- editors&#45;&gt;magnolia_backend -->
<g id="edge3" class="edge">
<title>editors&#45;&gt;magnolia_backend</title>
<path fill="none" stroke="#c0c0c0" d="M1253.2462,-440.5306C1270.7281,-433.5404 1289.8808,-425.8801 1290,-425.8234 1307.0261,-417.7185 1325.3228,-407.7473 1340.7986,-398.9201"/>
<polygon fill="#c0c0c0" stroke="#c0c0c0" points="1342.6349,-401.9016 1349.5536,-393.8778 1339.1413,-395.8357 1342.6349,-401.9016"/>
</g>
<!-- magnolia_frontend&#45;&gt;api -->
<g id="edge44" class="edge">
<title>magnolia_frontend&#45;&gt;api</title>
<path fill="none" stroke="#c0c0c0" d="M1209.1003,-358.8447C1214.9966,-345.7578 1223.0851,-327.8053 1229.7664,-312.9761"/>
<polygon fill="#c0c0c0" stroke="#c0c0c0" points="1232.9997,-314.3198 1233.9165,-303.7647 1226.6176,-311.4443 1232.9997,-314.3198"/>
</g>
<!-- magnolia_backend&#45;&gt;poms_backend -->
<g id="edge42" class="edge">
<title>magnolia_backend&#45;&gt;poms_backend</title>
<path fill="none" stroke="#c0c0c0" d="M1430.1165,-363.1256C1455.7657,-355.7828 1486.9162,-345.9572 1514,-334.8234 1532.814,-327.0892 1552.9051,-316.8991 1569.6631,-307.8157"/>
<polygon fill="#c0c0c0" stroke="#c0c0c0" points="1571.5214,-310.7882 1578.6009,-302.9058 1568.1511,-304.653 1571.5214,-310.7882"/>
</g>
<!-- magnolia_backend&#45;&gt;pages_publish -->
<g id="edge43" class="edge">
<title>magnolia_backend&#45;&gt;pages_publish</title>
<path fill="none" stroke="#c0c0c0" d="M1453.1848,-370.8344C1534.2441,-363.7141 1657.6277,-350.7648 1702,-334.8234 1719.0749,-328.6889 1736.3351,-318.3679 1750.2626,-308.7759"/>
<polygon fill="#c0c0c0" stroke="#c0c0c0" points="1752.3485,-311.5875 1758.4724,-302.9417 1748.2936,-305.8815 1752.3485,-311.5875"/>
</g>
<!-- pd&#45;&gt;metis -->
<g id="edge47" class="edge">
<title>pd&#45;&gt;metis</title>
<path fill="none" stroke="#c0c0c0" d="M696.5551,-184.1032C690.8251,-168.2332 682.3623,-144.7942 675.7951,-126.6055"/>
<polygon fill="#c0c0c0" stroke="#c0c0c0" points="679.0591,-125.3393 672.3711,-117.1222 672.4751,-127.7165 679.0591,-125.3393"/>
</g>
<!-- prepr&#45;&gt;metis -->
<g id="edge46" class="edge">
<title>prepr&#45;&gt;metis</title>
<path fill="none" stroke="#c0c0c0" d="M634.6191,-184.1032C640.504,-168.2332 649.1955,-144.7942 655.9402,-126.6055"/>
<polygon fill="#c0c0c0" stroke="#c0c0c0" points="659.2615,-127.7152 659.4568,-117.1222 652.6982,-125.2814 659.2615,-127.7152"/>
</g>
</g>
</svg>
