<?xml version="1.0" encoding="UTF-8" standalone="no"?>
<!DOCTYPE svg PUBLIC "-//W3C//DTD SVG 1.1//EN"
 "http://www.w3.org/Graphics/SVG/1.1/DTD/svg11.dtd">
<!-- Generated by graphviz version 2.40.1 (20161225.0304)
 -->
<!-- Title: poms_universe Pages: 1 -->
<svg width="741pt" height="432pt"
 viewBox="0.00 0.00 740.73 432.00" xmlns="http://www.w3.org/2000/svg" xmlns:xlink="http://www.w3.org/1999/xlink">
<g id="graph0" class="graph" transform="scale(1 1) rotate(0) translate(4 428)">
<title>poms_universe</title>
<polygon fill="#ffffff" stroke="transparent" points="-4,4 -4,-428 736.7275,-428 736.7275,4 -4,4"/>
<text text-anchor="middle" x="366.3638" y="-7.8" font-family="Times,serif" font-size="14.00" fill="#000000">Deployments relevant for POMS</text>
<g id="clust1" class="cluster">
<title>cluster_0</title>
<polygon fill="none" stroke="#000000" points="378.7275,-31 378.7275,-178 724.7275,-178 724.7275,-31 378.7275,-31"/>
<text text-anchor="middle" x="551.7275" y="-162.8" font-family="Times,serif" font-size="14.00" fill="#000000">Generic backend services</text>
</g>
<g id="clust2" class="cluster">
<title>cluster_1</title>
<polygon fill="none" stroke="#000000" points="297.7275,-269 297.7275,-416 580.7275,-416 580.7275,-269 297.7275,-269"/>
<text text-anchor="middle" x="439.2275" y="-400.8" font-family="Times,serif" font-size="14.00" fill="#000000">World</text>
</g>
<g id="clust3" class="cluster">
<title>cluster_3</title>
<polygon fill="none" stroke="#000000" points="38.7275,-186 38.7275,-261 534.7275,-261 534.7275,-186 38.7275,-186"/>
<text text-anchor="middle" x="286.7275" y="-245.8" font-family="Times,serif" font-size="14.00" fill="#000000">POMS Public Services</text>
</g>
<g id="clust4" class="cluster">
<title>cluster_4</title>
<polygon fill="none" stroke="#000000" points="40.7275,-103 40.7275,-178 338.7275,-178 338.7275,-103 40.7275,-103"/>
<text text-anchor="middle" x="189.7275" y="-162.8" font-family="Times,serif" font-size="14.00" fill="#000000">NPO Services</text>
</g>
<!-- poms -->
<g id="node1" class="node">
<title>poms</title>
<g id="a_node1"><a xlink:href="https://poms.omroep.nl/" xlink:title="POMS">
<ellipse fill="none" stroke="#000000" cx="351.7275" cy="-212" rx="29.4969" ry="18"/>
<text text-anchor="middle" x="351.7275" y="-208.3" font-family="Times,serif" font-size="14.00" fill="#0000ff">POMS</text>
</a>
</g>
</g>
<!-- postgresql -->
<g id="node6" class="node">
<title>postgresql</title>
<ellipse fill="none" stroke="#000000" cx="425.7275" cy="-129" rx="38.9931" ry="18"/>
<text text-anchor="middle" x="425.7275" y="-125.3" font-family="Times,serif" font-size="14.00" fill="#000000">postgresql</text>
</g>
<!-- poms&#45;&gt;postgresql -->
<g id="edge8" class="edge">
<title>poms&#45;&gt;postgresql</title>
<path fill="none" stroke="#000000" d="M365.9955,-195.9968C376.7387,-183.9469 391.6565,-167.2147 403.8962,-153.4865"/>
<polygon fill="#000000" stroke="#000000" points="406.699,-155.6022 410.7414,-145.8088 401.4741,-150.9438 406.699,-155.6022"/>
</g>
<!-- sso -->
<g id="node8" class="node">
<title>sso</title>
<ellipse fill="none" stroke="#000000" cx="689.7275" cy="-129" rx="27" ry="18"/>
<text text-anchor="middle" x="689.7275" y="-125.3" font-family="Times,serif" font-size="14.00" fill="#000000">sso</text>
</g>
<!-- poms&#45;&gt;sso -->
<g id="edge9" class="edge">
<title>poms&#45;&gt;sso</title>
<path fill="none" stroke="#000000" d="M368.7737,-197.2884C374.9653,-192.8076 382.2796,-188.4283 389.7275,-186 417.6288,-176.9031 627.7478,-191.6487 653.7275,-178 663.3995,-172.9187 671.1352,-163.9368 676.9193,-155.0388"/>
<polygon fill="#000000" stroke="#000000" points="679.997,-156.71 682.0524,-146.3164 673.9641,-153.1596 679.997,-156.71"/>
</g>
<!-- jms -->
<g id="node9" class="node">
<title>jms</title>
<ellipse fill="none" stroke="#000000" cx="509.7275" cy="-129" rx="27" ry="18"/>
<text text-anchor="middle" x="509.7275" y="-125.3" font-family="Times,serif" font-size="14.00" fill="#000000">jms</text>
</g>
<!-- poms&#45;&gt;jms -->
<g id="edge10" class="edge">
<title>poms&#45;&gt;jms</title>
<path fill="none" stroke="#000000" d="M369.2487,-197.2891C375.3647,-192.9229 382.5123,-188.6133 389.7275,-186 424.9881,-173.2286 441.1091,-196.5057 473.7275,-178 482.9949,-172.7422 490.551,-164.0129 496.3044,-155.3671"/>
<polygon fill="#000000" stroke="#000000" points="499.4647,-156.9047 501.6438,-146.5364 493.4745,-153.2828 499.4647,-156.9047"/>
</g>
<!-- ldap -->
<g id="node10" class="node">
<title>ldap</title>
<ellipse fill="none" stroke="#000000" cx="413.7275" cy="-57" rx="27" ry="18"/>
<text text-anchor="middle" x="413.7275" y="-53.3" font-family="Times,serif" font-size="14.00" fill="#000000">ldap</text>
</g>
<!-- poms&#45;&gt;ldap -->
<g id="edge11" class="edge">
<title>poms&#45;&gt;ldap</title>
<path fill="none" stroke="#000000" d="M353.6463,-193.8414C356.5356,-171.5347 363.2843,-132.9684 377.7275,-103 381.5043,-95.1635 386.7921,-87.4139 392.1542,-80.5728"/>
<polygon fill="#000000" stroke="#000000" points="395.1945,-82.389 398.8779,-72.4551 389.8036,-77.9238 395.1945,-82.389"/>
</g>
<!-- metis -->
<g id="node16" class="node">
<title>metis</title>
<ellipse fill="none" stroke="#000000" cx="219.7275" cy="-129" rx="27" ry="18"/>
<text text-anchor="middle" x="219.7275" y="-125.3" font-family="Times,serif" font-size="14.00" fill="#000000">metis</text>
</g>
<!-- poms&#45;&gt;metis -->
<g id="edge12" class="edge">
<title>poms&#45;&gt;metis</title>
<path fill="none" stroke="#000000" d="M334.1399,-197.4664C328.0195,-193.1121 320.8861,-188.7647 313.7275,-186 289.4531,-176.6251 278.0852,-191.3143 255.7275,-178 246.5728,-172.5483 239.0406,-163.778 233.2747,-155.1536"/>
<polygon fill="#000000" stroke="#000000" points="236.108,-153.0773 227.9114,-146.3641 230.1326,-156.7235 236.108,-153.0773"/>
</g>
<!-- pd -->
<g id="node17" class="node">
<title>pd</title>
<ellipse fill="none" stroke="#000000" cx="147.7275" cy="-129" rx="27" ry="18"/>
<text text-anchor="middle" x="147.7275" y="-125.3" font-family="Times,serif" font-size="14.00" fill="#000000">pd</text>
</g>
<!-- poms&#45;&gt;pd -->
<g id="edge13" class="edge">
<title>poms&#45;&gt;pd</title>
<path fill="none" stroke="#000000" d="M334.2564,-197.1471C328.1437,-192.7715 320.9855,-188.4922 313.7275,-186 286.3528,-176.6004 209.1374,-191.8588 183.7275,-178 174.2749,-172.8444 166.6397,-164.0183 160.8744,-155.2651"/>
<polygon fill="#000000" stroke="#000000" points="163.8723,-153.4588 155.7342,-146.6749 157.8655,-157.0531 163.8723,-153.4588"/>
</g>
<!-- prepr -->
<g id="node18" class="node">
<title>prepr</title>
<ellipse fill="none" stroke="#000000" cx="75.7275" cy="-129" rx="27" ry="18"/>
<text text-anchor="middle" x="75.7275" y="-125.3" font-family="Times,serif" font-size="14.00" fill="#000000">prepr</text>
</g>
<!-- poms&#45;&gt;prepr -->
<g id="edge14" class="edge">
<title>poms&#45;&gt;prepr</title>
<path fill="none" stroke="#000000" d="M334.6683,-197.3279C328.4757,-192.8503 321.1641,-188.4629 313.7275,-186 292.4044,-178.9381 131.5637,-188.539 111.7275,-178 102.0792,-172.8738 94.348,-163.8833 88.5609,-154.991"/>
<polygon fill="#000000" stroke="#000000" points="91.5174,-153.1141 83.4228,-146.2783 85.4877,-156.6699 91.5174,-153.1141"/>
</g>
<!-- miranda -->
<g id="node19" class="node">
<title>miranda</title>
<ellipse fill="none" stroke="#000000" cx="297.7275" cy="-129" rx="33.2948" ry="18"/>
<text text-anchor="middle" x="297.7275" y="-125.3" font-family="Times,serif" font-size="14.00" fill="#000000">miranda</text>
</g>
<!-- poms&#45;&gt;miranda -->
<g id="edge15" class="edge">
<title>poms&#45;&gt;miranda</title>
<path fill="none" stroke="#000000" d="M340.7998,-195.2037C333.2378,-183.5806 323.0311,-167.8926 314.4516,-154.7055"/>
<polygon fill="#000000" stroke="#000000" points="317.2115,-152.5296 308.8243,-146.0562 311.344,-156.347 317.2115,-152.5296"/>
</g>
<!-- poms_backend -->
<g id="node2" class="node">
<title>poms_backend</title>
<g id="a_node2"><a xlink:href="https://api.poms.omroep.nl/" xlink:title="POMS backend API">
<ellipse fill="none" stroke="#000000" cx="112.7275" cy="-212" rx="66.0889" ry="18"/>
<text text-anchor="middle" x="112.7275" y="-208.3" font-family="Times,serif" font-size="14.00" fill="#0000ff">POMS backend API</text>
</a>
</g>
</g>
<!-- poms_backend&#45;&gt;jms -->
<g id="edge16" class="edge">
<title>poms_backend&#45;&gt;jms</title>
<path fill="none" stroke="#000000" d="M149.1269,-196.8779C161.2005,-192.5421 174.849,-188.3546 187.7275,-186 218.9993,-180.2825 445.5675,-192.7523 473.7275,-178 483.4054,-172.93 491.1423,-163.9502 496.9256,-155.0508"/>
<polygon fill="#000000" stroke="#000000" points="500.0044,-156.72 502.0574,-146.326 493.9707,-153.1711 500.0044,-156.72"/>
</g>
<!-- poms_backend&#45;&gt;ldap -->
<g id="edge17" class="edge">
<title>poms_backend&#45;&gt;ldap</title>
<path fill="none" stroke="#000000" d="M62.5323,-200.1139C42.0158,-194.1481 21.6887,-186.4063 15.7275,-178 -3.5543,-150.8095 -6.4484,-127.8866 15.7275,-103 39.5101,-76.3103 281.753,-62.8223 376.2567,-58.5444"/>
<polygon fill="#000000" stroke="#000000" points="376.6685,-62.0297 386.5038,-58.0906 376.3587,-55.0366 376.6685,-62.0297"/>
</g>
<!-- api -->
<g id="node3" class="node">
<title>api</title>
<g id="a_node3"><a xlink:href="https://rs.poms.omroep.nl/" xlink:title="NPO Frontend API">
<ellipse fill="none" stroke="#000000" cx="462.7275" cy="-212" rx="63.8893" ry="18"/>
<text text-anchor="middle" x="462.7275" y="-208.3" font-family="Times,serif" font-size="14.00" fill="#0000ff">NPO Frontend API</text>
</a>
</g>
</g>
<!-- elasticsearch -->
<g id="node7" class="node">
<title>elasticsearch</title>
<ellipse fill="none" stroke="#000000" cx="599.7275" cy="-129" rx="45.4919" ry="18"/>
<text text-anchor="middle" x="599.7275" y="-125.3" font-family="Times,serif" font-size="14.00" fill="#000000">elasticsearch</text>
</g>
<!-- api&#45;&gt;elasticsearch -->
<g id="edge18" class="edge">
<title>api&#45;&gt;elasticsearch</title>
<path fill="none" stroke="#000000" d="M504.2251,-198.2723C517.9426,-192.8931 532.9528,-186.0597 545.7275,-178 556.7686,-171.034 567.6771,-161.7289 576.7681,-153.0995"/>
<polygon fill="#000000" stroke="#000000" points="579.2443,-155.5734 583.9401,-146.076 574.3466,-150.5721 579.2443,-155.5734"/>
</g>
<!-- pages_publish -->
<g id="node4" class="node">
<title>pages_publish</title>
<g id="a_node4"><a xlink:href="https://publish.pages.omroep.nl/" xlink:title="Pages Publisher">
<ellipse fill="none" stroke="#000000" cx="250.7275" cy="-212" rx="53.8905" ry="18"/>
<text text-anchor="middle" x="250.7275" y="-208.3" font-family="Times,serif" font-size="14.00" fill="#0000ff">Pages Publisher</text>
</a>
</g>
</g>
<!-- pages_publish&#45;&gt;elasticsearch -->
<g id="edge19" class="edge">
<title>pages_publish&#45;&gt;elasticsearch</title>
<path fill="none" stroke="#000000" d="M280.7832,-197.0397C290.99,-192.6569 302.625,-188.4005 313.7275,-186 338.9381,-180.5491 521.8291,-187.7031 545.7275,-178 558.4997,-172.8143 570.1765,-163.1747 579.379,-153.8085"/>
<polygon fill="#000000" stroke="#000000" points="581.972,-156.1595 586.2023,-146.4458 576.8378,-151.4014 581.972,-156.1595"/>
</g>
<!-- pages_publish&#45;&gt;ldap -->
<g id="edge20" class="edge">
<title>pages_publish&#45;&gt;ldap</title>
<path fill="none" stroke="#000000" d="M220.3258,-197.023C210.1945,-192.6959 198.692,-188.4768 187.7275,-186 171.3391,-182.2979 48.2893,-190.1905 36.7275,-178 13.7893,-153.8143 14.6307,-127.9568 36.7275,-103 59.0639,-77.7725 286.085,-63.5045 376.6836,-58.7781"/>
<polygon fill="#000000" stroke="#000000" points="376.9742,-62.2679 386.7823,-58.2614 376.6165,-55.277 376.9742,-62.2679"/>
</g>
<!-- media_publish -->
<g id="node5" class="node">
<title>media_publish</title>
<g id="a_node5"><a xlink:href="https://publish.pages.omroep.nl/" xlink:title="Media Publisher">
<ellipse fill="none" stroke="#000000" cx="600.7275" cy="-212" rx="55.7903" ry="18"/>
<text text-anchor="middle" x="600.7275" y="-208.3" font-family="Times,serif" font-size="14.00" fill="#0000ff">Media Publisher</text>
</a>
</g>
</g>
<!-- media_publish&#45;&gt;elasticsearch -->
<g id="edge21" class="edge">
<title>media_publish&#45;&gt;elasticsearch</title>
<path fill="none" stroke="#000000" d="M600.5105,-193.9902C600.3817,-183.2963 600.2155,-169.4994 600.0693,-157.3706"/>
<polygon fill="#000000" stroke="#000000" points="603.5678,-157.2183 599.9475,-147.2612 596.5683,-157.3027 603.5678,-157.2183"/>
</g>
<!-- media_publish&#45;&gt;jms -->
<g id="edge22" class="edge">
<title>media_publish&#45;&gt;jms</title>
<path fill="none" stroke="#000000" d="M571.2752,-196.6419C562.554,-191.3664 553.3163,-185.0051 545.7275,-178 538.3224,-171.1644 531.4337,-162.6126 525.7062,-154.5752"/>
<polygon fill="#000000" stroke="#000000" points="528.4986,-152.4574 519.9775,-146.1613 522.7124,-156.3971 528.4986,-152.4574"/>
</g>
<!-- sso&#45;&gt;ldap -->
<g id="edge26" class="edge">
<title>sso&#45;&gt;ldap</title>
<path fill="none" stroke="#000000" d="M673.0814,-114.6633C667.2842,-110.3221 660.5229,-105.9327 653.7275,-103 585.866,-73.7126 499.2182,-62.9835 450.782,-59.1174"/>
<polygon fill="#000000" stroke="#000000" points="450.9916,-55.6234 440.7597,-58.3726 450.4728,-62.6042 450.9916,-55.6234"/>
</g>
<!-- magnolia_frontend -->
<g id="node11" class="node">
<title>magnolia_frontend</title>
<ellipse fill="none" stroke="#000000" cx="510.7275" cy="-295" rx="62.2891" ry="18"/>
<text text-anchor="middle" x="510.7275" y="-291.3" font-family="Times,serif" font-size="14.00" fill="#000000">magnolia_frontend</text>
</g>
<!-- magnolia_frontend&#45;&gt;api -->
<g id="edge25" class="edge">
<title>magnolia_frontend&#45;&gt;api</title>
<path fill="none" stroke="#000000" d="M500.3122,-276.9902C493.8335,-265.7875 485.3855,-251.1795 478.1402,-238.6512"/>
<polygon fill="#000000" stroke="#000000" points="481.1586,-236.8791 473.1225,-229.9746 475.0989,-240.3835 481.1586,-236.8791"/>
</g>
<!-- magnolia_backend -->
<g id="node12" class="node">
<title>magnolia_backend</title>
<ellipse fill="none" stroke="#000000" cx="367.7275" cy="-295" rx="62.2891" ry="18"/>
<text text-anchor="middle" x="367.7275" y="-291.3" font-family="Times,serif" font-size="14.00" fill="#000000">magnolia_backend</text>
</g>
<!-- magnolia_backend&#45;&gt;poms_backend -->
<g id="edge23" class="edge">
<title>magnolia_backend&#45;&gt;poms_backend</title>
<path fill="none" stroke="#000000" d="M308.122,-289.672C272.2506,-285.0308 226.2276,-276.4982 187.7275,-261 171.7493,-254.568 155.5601,-244.5313 142.3326,-235.2123"/>
<polygon fill="#000000" stroke="#000000" points="144.2488,-232.2784 134.0999,-229.2371 140.1371,-237.9436 144.2488,-232.2784"/>
</g>
<!-- magnolia_backend&#45;&gt;pages_publish -->
<g id="edge24" class="edge">
<title>magnolia_backend&#45;&gt;pages_publish</title>
<path fill="none" stroke="#000000" d="M340.7427,-278.7407C332.0031,-273.2818 322.345,-267.042 313.7275,-261 302.2685,-252.9658 290.0452,-243.644 279.4442,-235.3012"/>
<polygon fill="#000000" stroke="#000000" points="281.3439,-232.3405 271.3358,-228.8635 276.9913,-237.8227 281.3439,-232.3405"/>
</g>
<!-- users -->
<g id="node13" class="node">
<title>users</title>
<ellipse fill="none" stroke="#000000" cx="536.7275" cy="-367" rx="27" ry="18"/>
<text text-anchor="middle" x="536.7275" y="-363.3" font-family="Times,serif" font-size="14.00" fill="#000000">users</text>
</g>
<!-- users&#45;&gt;api -->
<g id="edge4" class="edge">
<title>users&#45;&gt;api</title>
<path fill="none" stroke="#000000" d="M515.8409,-355.2887C510.9913,-352.9297 505.77,-350.6663 500.7275,-349 413.3094,-320.112 355.9025,-383.532 296.7275,-313 284.1585,-298.0187 283.5055,-283.4082 296.7275,-269 310.7524,-253.7169 370.1615,-267.8879 389.7275,-261 406.0263,-255.2623 422.185,-245.0175 435.1403,-235.3737"/>
<polygon fill="#000000" stroke="#000000" points="437.3875,-238.0604 443.1605,-229.1765 433.1075,-232.5213 437.3875,-238.0604"/>
</g>
<!-- users&#45;&gt;magnolia_frontend -->
<g id="edge5" class="edge">
<title>users&#45;&gt;magnolia_frontend</title>
<path fill="none" stroke="#000000" d="M530.3005,-349.2022C527.4161,-341.2146 523.9458,-331.6045 520.7334,-322.7087"/>
<polygon fill="#000000" stroke="#000000" points="523.9496,-321.3099 517.2611,-313.0931 517.3657,-323.6874 523.9496,-321.3099"/>
</g>
<!-- backendsystems -->
<g id="node14" class="node">
<title>backendsystems</title>
<ellipse fill="none" stroke="#000000" cx="360.7275" cy="-367" rx="55.4913" ry="18"/>
<text text-anchor="middle" x="360.7275" y="-363.3" font-family="Times,serif" font-size="14.00" fill="#000000">backendsystems</text>
</g>
<!-- backendsystems&#45;&gt;poms_backend -->
<g id="edge6" class="edge">
<title>backendsystems&#45;&gt;poms_backend</title>
<path fill="none" stroke="#000000" d="M316.3035,-356.1316C285.8798,-347.4218 245.4559,-333.2797 213.7275,-313 181.5338,-292.4229 151.5061,-260.0284 132.6991,-237.4956"/>
<polygon fill="#000000" stroke="#000000" points="135.3402,-235.1965 126.2946,-229.6803 129.9259,-239.6334 135.3402,-235.1965"/>
</g>
<!-- backendsystems&#45;&gt;pages_publish -->
<g id="edge7" class="edge">
<title>backendsystems&#45;&gt;pages_publish</title>
<path fill="none" stroke="#000000" d="M308.8603,-360.5347C279.1826,-353.8812 244.2665,-340.3828 225.7275,-313 210.5748,-290.6189 221.675,-259.8977 233.5161,-238.231"/>
<polygon fill="#000000" stroke="#000000" points="236.5624,-239.9548 238.5619,-229.5504 230.5105,-236.437 236.5624,-239.9548"/>
</g>
<!-- editors -->
<g id="node15" class="node">
<title>editors</title>
<ellipse fill="none" stroke="#000000" cx="462.7275" cy="-367" rx="29.4969" ry="18"/>
<text text-anchor="middle" x="462.7275" y="-363.3" font-family="Times,serif" font-size="14.00" fill="#000000">editors</text>
</g>
<!-- editors&#45;&gt;poms -->
<g id="edge1" class="edge">
<title>editors&#45;&gt;poms</title>
<path fill="none" stroke="#000000" d="M440.1248,-355.4153C435.1301,-353.1041 429.8105,-350.8286 424.7275,-349 363.4636,-326.9604 322.7106,-364.3845 282.7275,-313 270.7183,-297.5663 270.7513,-284.4593 282.7275,-269 291.4418,-257.7514 301.8399,-268.8201 313.7275,-261 322.7662,-255.054 330.5646,-246.2248 336.7035,-237.6925"/>
<polygon fill="#000000" stroke="#000000" points="339.6162,-239.6332 342.2737,-229.377 333.8004,-235.7374 339.6162,-239.6332"/>
</g>
<!-- editors&#45;&gt;sso -->
<g id="edge2" class="edge">
<title>editors&#45;&gt;sso</title>
<path fill="none" stroke="#000000" d="M485.9976,-355.8685C490.855,-353.5755 495.9507,-351.1925 500.7275,-349 576.2623,-314.3308 618.925,-329.6803 665.7275,-261 686.7793,-230.1076 690.868,-186.0677 690.9888,-157.5079"/>
<polygon fill="#000000" stroke="#000000" points="694.4871,-157.3372 690.8679,-147.3797 687.4876,-157.4208 694.4871,-157.3372"/>
</g>
<!-- editors&#45;&gt;magnolia_backend -->
<g id="edge3" class="edge">
<title>editors&#45;&gt;magnolia_backend</title>
<path fill="none" stroke="#000000" d="M443.9586,-352.7751C430.9098,-342.8855 413.2275,-329.4842 398.1779,-318.0782"/>
<polygon fill="#000000" stroke="#000000" points="400.2178,-315.2326 390.134,-311.9818 395.9897,-320.8114 400.2178,-315.2326"/>
</g>
</g>
</svg>
