<?xml version="1.0" encoding="UTF-8" standalone="no"?>
<!DOCTYPE svg PUBLIC "-//W3C//DTD SVG 1.1//EN"
 "http://www.w3.org/Graphics/SVG/1.1/DTD/svg11.dtd">
<!-- Generated by graphviz version 2.40.1 (20161225.0304)
 -->
<!-- Title: %3 Pages: 1 -->
<svg width="1114pt" height="600pt"
 viewBox="0.00 0.00 1114.00 600.00" xmlns="http://www.w3.org/2000/svg" xmlns:xlink="http://www.w3.org/1999/xlink">
<g id="graph0" class="graph" transform="scale(1 1) rotate(0) translate(4 596)">
<title>%3</title>
<polygon fill="#ffffff" stroke="transparent" points="-4,4 -4,-596 1110,-596 1110,4 -4,4"/>
<text text-anchor="middle" x="553" y="-7.8" font-family="Times,serif" font-size="14.00" fill="#000000"> &#160;Dependencies of the different code projects relevant to POMS</text>
<g id="clust1" class="cluster">
<title>cluster_0</title>
<polygon fill="none" stroke="#000000" points="67,-47 67,-137 537,-137 537,-47 67,-47"/>
<text text-anchor="middle" x="302" y="-69.8" font-family="Times,serif" font-size="14.00" fill="#000000">Generic utilities</text>
<text text-anchor="middle" x="302" y="-54.8" font-family="Times,serif" font-size="14.00" fill="#000000">(incoming edges are just examples, there are more)</text>
</g>
<g id="clust2" class="cluster">
<title>cluster_1</title>
<polygon fill="none" stroke="#000000" points="864,-509 864,-584 1034,-584 1034,-509 864,-509"/>
<text text-anchor="middle" x="949" y="-568.8" font-family="Times,serif" font-size="14.00" fill="#000000">VPRO</text>
</g>
<g id="clust3" class="cluster">
<title>cluster_2</title>
<polygon fill="#f0ffff" stroke="#000000" points="8,-342 8,-584 660,-584 660,-342 8,-342"/>
<text text-anchor="middle" x="334" y="-568.8" font-family="Times,serif" font-size="14.00" fill="#000000">POMS Services</text>
</g>
<g id="clust4" class="cluster">
<title>cluster_4</title>
<polygon fill="#f0ffff" stroke="#000000" points="802,-158 802,-490 932,-490 932,-158 802,-158"/>
<text text-anchor="middle" x="867" y="-474.8" font-family="Times,serif" font-size="14.00" fill="#000000">Sharable utilities</text>
</g>
<!-- vpro_shared -->
<g id="node1" class="node">
<title>vpro_shared</title>
<g id="a_node1"><a xlink:href="https://github.com/vpro/vpro-shared" xlink:title="vpro_shared">
<ellipse fill="none" stroke="#000000" cx="880" cy="-184" rx="44.393" ry="18"/>
<text text-anchor="middle" x="880" y="-180.3" font-family="Times,serif" font-size="14.00" fill="#0000ff">vpro_shared</text>
</a>
</g>
</g>
<!-- slf4j -->
<g id="node11" class="node">
<title>slf4j</title>
<ellipse fill="none" stroke="#000000" stroke-dasharray="5,2" cx="430" cy="-111" rx="27" ry="18"/>
<text text-anchor="middle" x="430" y="-107.3" font-family="Times,serif" font-size="14.00" fill="#000000">slf4j</text>
</g>
<!-- vpro_shared&#45;&gt;slf4j -->
<g id="edge1" class="edge">
<title>vpro_shared&#45;&gt;slf4j</title>
<path fill="none" stroke="#c0c0c0" d="M838.1914,-177.7525C783.3735,-169.7316 684.1645,-155.8016 599,-147 569.518,-143.9531 493.8393,-147.1705 466,-137 462.0081,-135.5417 458.0662,-133.5058 454.3377,-131.2088"/>
<polygon fill="#c0c0c0" stroke="#c0c0c0" points="456.3205,-128.3245 446.1025,-125.5239 452.3438,-134.0853 456.3205,-128.3245"/>
</g>
<!-- guava -->
<g id="node12" class="node">
<title>guava</title>
<ellipse fill="none" stroke="#000000" stroke-dasharray="5,2" cx="502" cy="-111" rx="27.0966" ry="18"/>
<text text-anchor="middle" x="502" y="-107.3" font-family="Times,serif" font-size="14.00" fill="#000000">guava</text>
</g>
<!-- vpro_shared&#45;&gt;guava -->
<g id="edge2" class="edge">
<title>vpro_shared&#45;&gt;guava</title>
<path fill="none" stroke="#c0c0c0" d="M846.7972,-172.0745C823.1447,-163.9756 790.4553,-153.58 761,-147 683.03,-129.5824 589.8645,-119.0994 539.2409,-114.2477"/>
<polygon fill="#c0c0c0" stroke="#c0c0c0" points="539.388,-110.7463 529.1049,-113.2975 538.7345,-117.7157 539.388,-110.7463"/>
</g>
<!-- poms_shared -->
<g id="node2" class="node">
<title>poms_shared</title>
<g id="a_node2"><a xlink:href="https://github.com/npo-poms/poms-shared" xlink:title="poms_shared">
<ellipse fill="none" stroke="#000000" cx="857" cy="-295" rx="46.5926" ry="18"/>
<text text-anchor="middle" x="857" y="-291.3" font-family="Times,serif" font-size="14.00" fill="#0000ff">poms_shared</text>
</a>
</g>
</g>
<!-- poms_shared&#45;&gt;vpro_shared -->
<g id="edge3" class="edge">
<title>poms_shared&#45;&gt;vpro_shared</title>
<path fill="none" stroke="#c0c0c0" d="M860.798,-276.6706C864.4487,-259.0521 870.0159,-232.1843 874.2174,-211.9073"/>
<polygon fill="#c0c0c0" stroke="#c0c0c0" points="877.6708,-212.4905 876.2727,-201.9883 870.8164,-211.0702 877.6708,-212.4905"/>
</g>
<!-- api_client -->
<g id="node3" class="node">
<title>api_client</title>
<g id="a_node3"><a xlink:href="https://github.com/npo-poms/api-clients" xlink:title="api_client">
<ellipse fill="none" stroke="#000000" cx="850" cy="-441" rx="37.8943" ry="18"/>
<text text-anchor="middle" x="850" y="-437.3" font-family="Times,serif" font-size="14.00" fill="#0000ff">api_client</text>
</a>
</g>
</g>
<!-- api_client&#45;&gt;vpro_shared -->
<g id="edge15" class="edge">
<title>api_client&#45;&gt;vpro_shared</title>
<path fill="none" stroke="#c0c0c0" d="M861.7166,-423.751C877.0462,-400.0355 903.1177,-355.4568 913,-313 921.2252,-277.6626 906.9612,-237.1674 894.6919,-211.121"/>
<polygon fill="#c0c0c0" stroke="#c0c0c0" points="897.7001,-209.3076 890.1383,-201.8868 891.422,-212.4036 897.7001,-209.3076"/>
</g>
<!-- api_client&#45;&gt;poms_shared -->
<g id="edge16" class="edge">
<title>api_client&#45;&gt;poms_shared</title>
<path fill="none" stroke="#c0c0c0" d="M850.8724,-422.8042C852.0671,-397.8868 854.2243,-352.8938 855.6342,-323.4877"/>
<polygon fill="#c0c0c0" stroke="#c0c0c0" points="859.1336,-323.5813 856.1166,-313.4251 852.1416,-323.246 859.1336,-323.5813"/>
</g>
<!-- poms_backend -->
<g id="node4" class="node">
<title>poms_backend</title>
<g id="a_node4"><a xlink:href="https://subversion.vpro.nl/viewvc/nl/vpro/media" xlink:title="POMS &#160;&amp; POMS Backend API">
<ellipse fill="none" stroke="#cd950c" cx="311" cy="-535" rx="96.6831" ry="18"/>
<text text-anchor="middle" x="311" y="-531.3" font-family="Times,serif" font-size="14.00" fill="#0000ff">POMS &#160;&amp; POMS Backend API</text>
</a>
</g>
</g>
<!-- poms_backend&#45;&gt;vpro_shared -->
<g id="edge27" class="edge">
<title>poms_backend&#45;&gt;vpro_shared</title>
<path fill="none" stroke="#cd950c" d="M363.703,-519.8608C380.5884,-515.608 399.4568,-511.4731 417,-509 469.8525,-501.5493 847.3305,-509.5407 897,-490 928.088,-477.7695 954,-474.4073 954,-441 954,-441 954,-441 954,-239.5 954,-221.4788 939.7806,-208.5923 923.808,-199.8018"/>
<polygon fill="#cd950c" stroke="#cd950c" points="925.3449,-196.6572 914.8331,-195.333 922.2248,-202.9234 925.3449,-196.6572"/>
</g>
<!-- poms_backend&#45;&gt;poms_shared -->
<g id="edge28" class="edge">
<title>poms_backend&#45;&gt;poms_shared</title>
<path fill="none" stroke="#cd950c" d="M363.9802,-519.8359C380.7966,-515.6091 399.5557,-511.4954 417,-509 442.212,-505.3934 624.0911,-511.9867 646,-499 679.9645,-478.8673 671.2584,-456.5961 692,-423 714.3482,-386.8015 710.4614,-369.4047 743,-342 761.6012,-326.3337 786.1424,-315.3162 807.6889,-307.9066"/>
<polygon fill="#cd950c" stroke="#cd950c" points="808.9268,-311.1844 817.3458,-304.7524 806.7533,-304.5303 808.9268,-311.1844"/>
</g>
<!-- poms_gui -->
<g id="node5" class="node">
<title>poms_gui</title>
<g id="a_node5"><a xlink:href="https://subversion.vpro.nl/viewvc/nl/vpro/media-gui" xlink:title="Angular GUI for POMS">
<ellipse fill="none" stroke="#000000" cx="363" cy="-368" rx="76.8869" ry="18"/>
<text text-anchor="middle" x="363" y="-364.3" font-family="Times,serif" font-size="14.00" fill="#0000ff">Angular GUI for POMS</text>
</a>
</g>
</g>
<!-- poms_backend&#45;&gt;poms_gui -->
<g id="edge29" class="edge">
<title>poms_backend&#45;&gt;poms_gui</title>
<path fill="none" stroke="#cd950c" d="M316.6639,-516.8102C325.7288,-487.6979 343.562,-430.426 354.2672,-396.0457"/>
<polygon fill="#cd950c" stroke="#cd950c" points="357.7118,-396.7558 357.3431,-386.1674 351.0283,-394.6747 357.7118,-396.7558"/>
</g>
<!-- spring -->
<g id="node13" class="node">
<title>spring</title>
<ellipse fill="none" stroke="#000000" stroke-dasharray="5,2" cx="103" cy="-111" rx="27.8951" ry="18"/>
<text text-anchor="middle" x="103" y="-107.3" font-family="Times,serif" font-size="14.00" fill="#000000">spring</text>
</g>
<!-- poms_backend&#45;&gt;spring -->
<g id="edge30" class="edge">
<title>poms_backend&#45;&gt;spring</title>
<path fill="none" stroke="#cd950c" d="M245.0642,-521.6678C222.2759,-514.833 197.5731,-504.7325 178,-490 156.8219,-474.0593 144,-467.5069 144,-441 144,-441 144,-441 144,-184 144,-165.8758 134.2737,-148.0891 124.2956,-134.6107"/>
<polygon fill="#cd950c" stroke="#cd950c" points="126.7556,-132.0796 117.8019,-126.4154 121.2691,-136.4269 126.7556,-132.0796"/>
</g>
<!-- resteasy -->
<g id="node14" class="node">
<title>resteasy</title>
<ellipse fill="none" stroke="#000000" cx="272" cy="-111" rx="32.4942" ry="18"/>
<text text-anchor="middle" x="272" y="-107.3" font-family="Times,serif" font-size="14.00" fill="#000000">resteasy</text>
</g>
<!-- poms_backend&#45;&gt;resteasy -->
<g id="edge31" class="edge">
<title>poms_backend&#45;&gt;resteasy</title>
<path fill="none" stroke="#cd950c" d="M269.9337,-518.6544C260.5142,-513.4516 251.1728,-506.9342 244,-499 225.2914,-478.3056 220,-468.8975 220,-441 220,-441 220,-441 220,-184 220,-164.3588 232.6423,-146.3389 245.4597,-133.1166"/>
<polygon fill="#cd950c" stroke="#cd950c" points="248.164,-135.3711 252.9324,-125.9099 243.3047,-130.3324 248.164,-135.3711"/>
</g>
<!-- hibernate -->
<g id="node15" class="node">
<title>hibernate</title>
<ellipse fill="none" stroke="#000000" cx="185" cy="-111" rx="36.2938" ry="18"/>
<text text-anchor="middle" x="185" y="-107.3" font-family="Times,serif" font-size="14.00" fill="#000000">hibernate</text>
</g>
<!-- poms_backend&#45;&gt;hibernate -->
<g id="edge32" class="edge">
<title>poms_backend&#45;&gt;hibernate</title>
<path fill="none" stroke="#cd950c" d="M258.9026,-519.8258C223.1003,-505.8297 182,-481.0423 182,-441 182,-441 182,-441 182,-184 182,-169.1871 182.6243,-152.6977 183.3033,-139.1439"/>
<polygon fill="#cd950c" stroke="#cd950c" points="186.8071,-139.1649 183.8487,-128.9915 179.8172,-138.7893 186.8071,-139.1649"/>
</g>
<!-- angular -->
<g id="node16" class="node">
<title>angular</title>
<ellipse fill="none" stroke="#000000" cx="354" cy="-111" rx="31.3957" ry="18"/>
<text text-anchor="middle" x="354" y="-107.3" font-family="Times,serif" font-size="14.00" fill="#000000">angular</text>
</g>
<!-- poms_gui&#45;&gt;angular -->
<g id="edge33" class="edge">
<title>poms_gui&#45;&gt;angular</title>
<path fill="none" stroke="#c0c0c0" d="M361.8315,-349.7082C360.9892,-334.9483 360,-313.6459 360,-295 360,-295 360,-295 360,-184 360,-169.1497 358.7514,-152.657 357.3934,-139.1107"/>
<polygon fill="#c0c0c0" stroke="#c0c0c0" points="360.8517,-138.5346 356.3026,-128.9662 353.8918,-139.2831 360.8517,-138.5346"/>
</g>
<!-- poms_shared_backend -->
<g id="node6" class="node">
<title>poms_shared_backend</title>
<g id="a_node6"><a xlink:href="https://subversion.vpro.nl/viewvc/nl/publiekeomroep/poms-shared-backend/" xlink:title="poms_shared_backend">
<ellipse fill="none" stroke="#00cdcd" cx="648" cy="-295" rx="72.5877" ry="18"/>
<text text-anchor="middle" x="648" y="-291.3" font-family="Times,serif" font-size="14.00" fill="#0000ff">poms_shared_backend</text>
</a>
</g>
</g>
<!-- poms_shared_backend&#45;&gt;vpro_shared -->
<g id="edge4" class="edge">
<title>poms_shared_backend&#45;&gt;vpro_shared</title>
<path fill="none" stroke="#00cdcd" d="M681.7348,-278.8596C724.4421,-258.4264 797.7998,-223.3285 842.307,-202.0341"/>
<polygon fill="#00cdcd" stroke="#00cdcd" points="843.8349,-205.1831 851.345,-197.7099 840.8138,-198.8687 843.8349,-205.1831"/>
</g>
<!-- poms_shared_backend&#45;&gt;poms_shared -->
<g id="edge5" class="edge">
<title>poms_shared_backend&#45;&gt;poms_shared</title>
<path fill="none" stroke="#00cdcd" d="M721.0684,-295C747.3565,-295 773.6447,-295 799.9328,-295"/>
<polygon fill="#00cdcd" stroke="#00cdcd" points="800.008,-298.5001 810.008,-295 800.008,-291.5001 800.008,-298.5001"/>
</g>
<!-- poms_shared_backend&#45;&gt;slf4j -->
<g id="edge6" class="edge">
<title>poms_shared_backend&#45;&gt;slf4j</title>
<path fill="none" stroke="#00cdcd" d="M627.4911,-277.6897C587.2628,-243.7356 498.1533,-168.5239 454.7383,-131.88"/>
<polygon fill="#00cdcd" stroke="#00cdcd" points="456.8382,-129.0724 446.9388,-125.297 452.3232,-134.4217 456.8382,-129.0724"/>
</g>
<!-- api -->
<g id="node7" class="node">
<title>api</title>
<g id="a_node7"><a xlink:href="https://subversion.vpro.nl/viewvc/nl/vpro/api/" xlink:title="Frontend API">
<ellipse fill="none" stroke="#6495ed" cx="604" cy="-535" rx="48.1917" ry="18"/>
<text text-anchor="middle" x="604" y="-531.3" font-family="Times,serif" font-size="14.00" fill="#0000ff">Frontend API</text>
</a>
</g>
</g>
<!-- api&#45;&gt;vpro_shared -->
<g id="edge7" class="edge">
<title>api&#45;&gt;vpro_shared</title>
<path fill="none" stroke="#6495ed" d="M650.7017,-530.1311C702.0098,-524.8113 786.8566,-516.1004 860,-509 883.9899,-506.6712 948.6012,-513.3048 968,-499 990.453,-482.443 992,-468.8975 992,-441 992,-441 992,-441 992,-239.5 992,-223.9326 956.8216,-208.3822 925.8955,-197.7194"/>
<polygon fill="#6495ed" stroke="#6495ed" points="926.6477,-194.2807 916.054,-194.4354 924.4319,-200.9208 926.6477,-194.2807"/>
</g>
<!-- api&#45;&gt;poms_shared -->
<g id="edge8" class="edge">
<title>api&#45;&gt;poms_shared</title>
<path fill="none" stroke="#6495ed" d="M650.1331,-529.6807C673.8149,-524.9353 701.8427,-515.9621 722,-499 758.1957,-468.5418 744.4431,-443.8079 770,-404 789.6022,-373.4672 816.0668,-341.3305 834.6427,-319.93"/>
<polygon fill="#6495ed" stroke="#6495ed" points="837.3881,-322.1076 841.3451,-312.2795 832.1228,-317.4949 837.3881,-322.1076"/>
</g>
<!-- api&#45;&gt;poms_shared_backend -->
<g id="edge9" class="edge">
<title>api&#45;&gt;poms_shared_backend</title>
<path fill="none" stroke="#6495ed" d="M602.4177,-516.8687C599.9963,-481.9863 597.5881,-403.5416 618,-342 620.3885,-334.7988 624.1263,-327.6017 628.1635,-321.0811"/>
<polygon fill="#6495ed" stroke="#6495ed" points="631.1326,-322.9369 633.7556,-312.6719 625.3038,-319.0607 631.1326,-322.9369"/>
</g>
<!-- api&#45;&gt;resteasy -->
<g id="edge10" class="edge">
<title>api&#45;&gt;resteasy</title>
<path fill="none" stroke="#6495ed" d="M575.1583,-520.5118C566.2748,-516.4139 556.3653,-512.2028 547,-509 484.5736,-487.6509 258,-506.9761 258,-441 258,-441 258,-441 258,-184 258,-168.7807 260.9713,-152.0908 264.1763,-138.5155"/>
<polygon fill="#6495ed" stroke="#6495ed" points="267.5702,-139.3702 266.6273,-128.8174 260.7836,-137.655 267.5702,-139.3702"/>
</g>
<!-- media_publish -->
<g id="node8" class="node">
<title>media_publish</title>
<g id="a_node8"><a xlink:href="https://subversion.vpro.nl/viewvc/nl/publiekeomroep/npo-publish/" xlink:title="Media Publisher">
<ellipse fill="none" stroke="#bf3eff" cx="482" cy="-535" rx="55.7903" ry="18"/>
<text text-anchor="middle" x="482" y="-531.3" font-family="Times,serif" font-size="14.00" fill="#0000ff">Media Publisher</text>
</a>
</g>
</g>
<!-- media_publish&#45;&gt;poms_shared -->
<g id="edge13" class="edge">
<title>media_publish&#45;&gt;poms_shared</title>
<path fill="none" stroke="#bf3eff" d="M513.7706,-520.0269C524.1467,-515.7552 535.8675,-511.5677 547,-509 576.7445,-502.1395 658.128,-515.2 684,-499 717.0803,-478.2865 707.9695,-456.4983 728,-423 749.7118,-386.6899 747.8414,-371.6697 778,-342 789.3694,-330.8149 803.9014,-321.2 817.3941,-313.6339"/>
<polygon fill="#bf3eff" stroke="#bf3eff" points="819.367,-316.5471 826.5175,-308.7291 816.0523,-310.3816 819.367,-316.5471"/>
</g>
<!-- pages_publish -->
<g id="node9" class="node">
<title>pages_publish</title>
<g id="a_node9"><a xlink:href="https://subversion.vpro.nl/viewvc/nl/vpro/pages-publish/" xlink:title="Pages Publisher">
<ellipse fill="none" stroke="#8fbc8f" cx="512" cy="-368" rx="53.8905" ry="18"/>
<text text-anchor="middle" x="512" y="-364.3" font-family="Times,serif" font-size="14.00" fill="#0000ff">Pages Publisher</text>
</a>
</g>
</g>
<!-- media_publish&#45;&gt;pages_publish -->
<g id="edge14" class="edge">
<title>media_publish&#45;&gt;pages_publish</title>
<path fill="none" stroke="#c0c0c0" d="M479.5679,-516.8206C477.1534,-494.3828 474.8677,-455.2415 483,-423 486.3265,-409.8118 493.4037,-396.2821 499.7336,-385.9418"/>
<text text-anchor="middle" x="531.5" y="-437.3" font-family="Times,serif" font-size="14.00" fill="#000000">we plan to merge these</text>
</g>
<!-- pages_publish&#45;&gt;poms_shared -->
<g id="edge11" class="edge">
<title>pages_publish&#45;&gt;poms_shared</title>
<path fill="none" stroke="#8fbc8f" d="M549.7839,-354.9811C573.4667,-347.1879 604.7542,-337.5556 633,-331 664.4244,-323.7067 747.3451,-311.0076 802.9951,-302.8066"/>
<polygon fill="#8fbc8f" stroke="#8fbc8f" points="803.665,-306.2459 813.0503,-301.33 802.6479,-299.3202 803.665,-306.2459"/>
</g>
<!-- pages_publish&#45;&gt;poms_shared_backend -->
<g id="edge12" class="edge">
<title>pages_publish&#45;&gt;poms_shared_backend</title>
<path fill="none" stroke="#8fbc8f" d="M540.0826,-352.6265C552.3253,-345.9485 566.8553,-338.0553 580,-331 589.0038,-326.1673 598.6987,-321.0081 607.8677,-316.1492"/>
<polygon fill="#8fbc8f" stroke="#8fbc8f" points="609.6147,-319.1846 616.8162,-311.4135 606.3404,-312.9975 609.6147,-319.1846"/>
</g>
<!-- images -->
<g id="node10" class="node">
<title>images</title>
<g id="a_node10"><a xlink:href="https://subversion.vpro.nl/viewvc/nl/vpro/images/" xlink:title="Images Frontend &amp; Backend">
<ellipse fill="none" stroke="#caff70" cx="106" cy="-535" rx="89.8845" ry="18"/>
<text text-anchor="middle" x="106" y="-531.3" font-family="Times,serif" font-size="14.00" fill="#0000ff">Images Frontend &amp; Backend</text>
</a>
</g>
</g>
<!-- images&#45;&gt;poms_shared -->
<g id="edge17" class="edge">
<title>images&#45;&gt;poms_shared</title>
<path fill="none" stroke="#caff70" d="M155.1798,-519.9414C170.9481,-515.6926 188.58,-511.5398 205,-509 246.6685,-502.555 546.327,-508.9353 584,-490 660.1656,-451.7174 635.241,-389.5387 706,-342 735.1775,-322.3974 772.9374,-310.6465 803.398,-303.7968"/>
<polygon fill="#caff70" stroke="#caff70" points="804.3757,-307.167 813.4253,-301.6574 802.9151,-300.3211 804.3757,-307.167"/>
</g>
<!-- images&#45;&gt;spring -->
<g id="edge18" class="edge">
<title>images&#45;&gt;spring</title>
<path fill="none" stroke="#caff70" d="M93.9766,-517.1395C82.8438,-498.8417 68,-469.164 68,-441 68,-441 68,-441 68,-184 68,-166.7563 76.0388,-149.2741 84.4111,-135.7424"/>
<polygon fill="#caff70" stroke="#caff70" points="87.5602,-137.3264 90.166,-127.057 81.7249,-133.46 87.5602,-137.3264"/>
</g>
<!-- images&#45;&gt;hibernate -->
<g id="edge19" class="edge">
<title>images&#45;&gt;hibernate</title>
<path fill="none" stroke="#caff70" d="M106,-516.9796C106,-498.0575 106,-467.4375 106,-441 106,-441 106,-441 106,-184 106,-170.1734 132.4333,-147.9169 154.7195,-131.6094"/>
<polygon fill="#caff70" stroke="#caff70" points="156.9038,-134.3501 162.9941,-125.6806 152.8268,-128.6599 156.9038,-134.3501"/>
</g>
<!-- magnolia -->
<g id="node17" class="node">
<title>magnolia</title>
<ellipse fill="none" stroke="#000000" cx="990" cy="-535" rx="36.2938" ry="18"/>
<text text-anchor="middle" x="990" y="-531.3" font-family="Times,serif" font-size="14.00" fill="#000000">magnolia</text>
</g>
<!-- magnolia&#45;&gt;vpro_shared -->
<g id="edge20" class="edge">
<title>magnolia&#45;&gt;vpro_shared</title>
<path fill="none" stroke="#8b8878" d="M1020.7813,-525.1051C1055.1469,-511.8998 1106,-484.9361 1106,-441 1106,-441 1106,-441 1106,-239.5 1106,-204.3137 1001.3755,-191.3155 934.499,-186.6012"/>
<polygon fill="#8b8878" stroke="#8b8878" points="934.321,-183.0818 924.1116,-185.9135 933.8585,-190.0665 934.321,-183.0818"/>
</g>
<!-- magnolia&#45;&gt;poms_shared -->
<g id="edge21" class="edge">
<title>magnolia&#45;&gt;poms_shared</title>
<path fill="none" stroke="#8b8878" d="M1018.0879,-523.2508C1028.1376,-517.5122 1038.3644,-509.5302 1044,-499 1063.9229,-461.7737 1065.0353,-440.6092 1044,-404 1014.5235,-352.7001 950.5702,-323.2717 905.6983,-308.2163"/>
<polygon fill="#8b8878" stroke="#8b8878" points="906.7419,-304.8754 896.1501,-305.1313 904.5897,-311.5363 906.7419,-304.8754"/>
</g>
<!-- magnolia&#45;&gt;api_client -->
<g id="edge22" class="edge">
<title>magnolia&#45;&gt;api_client</title>
<path fill="none" stroke="#8b8878" d="M968.125,-520.3125C944.6331,-504.5394 907.1256,-479.3558 880.6884,-461.6051"/>
<polygon fill="#8b8878" stroke="#8b8878" points="882.4367,-458.5632 872.1834,-455.8946 878.5346,-464.3747 882.4367,-458.5632"/>
</g>
<!-- vpro_rs -->
<g id="node18" class="node">
<title>vpro_rs</title>
<ellipse fill="none" stroke="#000000" cx="904" cy="-535" rx="31.6951" ry="18"/>
<text text-anchor="middle" x="904" y="-531.3" font-family="Times,serif" font-size="14.00" fill="#000000">vpro_rs</text>
</g>
<!-- vpro_rs&#45;&gt;vpro_shared -->
<g id="edge23" class="edge">
<title>vpro_rs&#45;&gt;vpro_shared</title>
<path fill="none" stroke="#8b8878" d="M923.1658,-520.6008C929.7821,-516.2554 937.4381,-511.8793 945,-509 970.6747,-499.2238 984.4741,-516.0705 1006,-499 1027.8585,-481.6657 1030,-468.8975 1030,-441 1030,-441 1030,-441 1030,-239.5 1030,-217.8612 974.3997,-201.9988 930.9009,-192.9"/>
<polygon fill="#8b8878" stroke="#8b8878" points="931.4833,-189.447 920.9882,-190.8973 930.097,-196.3084 931.4833,-189.447"/>
</g>
<!-- vpro_rs&#45;&gt;poms_shared -->
<g id="edge24" class="edge">
<title>vpro_rs&#45;&gt;poms_shared</title>
<path fill="none" stroke="#8b8878" d="M903.9459,-516.6435C903.6293,-494.3584 902.2724,-455.6977 897,-423 891.2414,-387.2869 877.7382,-347.7736 868.0127,-322.2286"/>
<polygon fill="#8b8878" stroke="#8b8878" points="871.2481,-320.8913 864.3663,-312.8358 864.7225,-323.4246 871.2481,-320.8913"/>
</g>
<!-- vpro_rs&#45;&gt;api_client -->
<g id="edge25" class="edge">
<title>vpro_rs&#45;&gt;api_client</title>
<path fill="none" stroke="#8b8878" d="M894.0956,-517.759C886.0017,-503.6695 874.4258,-483.519 865.1655,-467.3991"/>
<polygon fill="#8b8878" stroke="#8b8878" points="868.0407,-465.3777 860.0245,-458.4501 861.9709,-468.8646 868.0407,-465.3777"/>
</g>
<!-- vpro_rs&#45;&gt;poms_shared_backend -->
<g id="edge26" class="edge">
<title>vpro_rs&#45;&gt;poms_shared_backend</title>
<path fill="none" stroke="#8b8878" d="M873.5158,-529.2544C849.8638,-523.2845 817.8608,-511.6623 798,-490 770.8351,-460.3711 791.9679,-437.6632 770,-404 747.0294,-368.8003 709.8485,-337.8728 682.562,-318.0405"/>
<polygon fill="#8b8878" stroke="#8b8878" points="684.2567,-314.9505 674.081,-311.9999 680.1957,-320.6521 684.2567,-314.9505"/>
</g>
</g>
</svg>
