<?xml version="1.0" encoding="UTF-8" standalone="no"?>
<!DOCTYPE svg PUBLIC "-//W3C//DTD SVG 1.1//EN"
 "http://www.w3.org/Graphics/SVG/1.1/DTD/svg11.dtd">
<!-- Generated by graphviz version 8.1.0 (20230707.0739)
 -->
<!-- Title: poms_universe Pages: 1 -->
<svg width="1979pt" height="467pt"
 viewBox="0.00 0.00 1979.00 467.00" xmlns="http://www.w3.org/2000/svg" xmlns:xlink="http://www.w3.org/1999/xlink">
<g id="graph0" class="graph" transform="scale(1 1) rotate(0) translate(4 463)">
<title>poms_universe</title>
<polygon fill="white" stroke="none" points="-4,4 -4,-463 1975,-463 1975,4 -4,4"/>
<text text-anchor="middle" x="985.5" y="-7.2" font-family="Times,serif" font-size="14.00">Deployments relevant for POMS</text>
<g id="clust1" class="cluster">
<title>cluster_0</title>
<polygon fill="azure" stroke="black" points="650,-109 650,-185.5 1281,-185.5 1281,-109 650,-109"/>
<text text-anchor="middle" x="965.5" y="-116.2" font-family="Times,serif" font-size="14.00">Generic backend services</text>
</g>
<g id="clust2" class="cluster">
<title>cluster_3</title>
<polygon fill="none" stroke="black" points="430,-290 430,-451 998,-451 998,-290 430,-290"/>
<text text-anchor="middle" x="714" y="-433.7" font-family="Times,serif" font-size="14.00">World</text>
</g>
<g id="clust3" class="cluster">
<title>cluster_2</title>
<polygon fill="none" stroke="black" points="438,-298 438,-374.5 957,-374.5 957,-298 438,-298"/>
<text text-anchor="middle" x="697.5" y="-357.2" font-family="Times,serif" font-size="14.00">VPRO</text>
</g>
<g id="clust4" class="cluster">
<title>cluster_4</title>
<polygon fill="azure" stroke="black" points="361,-205.5 361,-282 1402,-282 1402,-205.5 361,-205.5"/>
<text text-anchor="middle" x="881.5" y="-264.7" font-family="Times,serif" font-size="14.00">POMS &#160;Services</text>
</g>
<g id="clust5" class="cluster">
<title>cluster_5</title>
<polygon fill="none" stroke="black" points="1289,-32.5 1289,-185.5 1963,-185.5 1963,-32.5 1289,-32.5"/>
<text text-anchor="middle" x="1626" y="-39.7" font-family="Times,serif" font-size="14.00">NPO Services</text>
</g>
<g id="clust6" class="cluster">
<title>cluster_6</title>
<polygon fill="none" stroke="black" points="8,-109 8,-185.5 642,-185.5 642,-109 8,-109"/>
<text text-anchor="middle" x="325" y="-116.2" font-family="Times,serif" font-size="14.00">Auxiliary API&#39;s</text>
</g>
<!-- poms -->
<g id="node1" class="node">
<title>poms</title>
<g id="a_node1"><a xlink:href="https://poms.omroep.nl/" xlink:title="POMS">
<ellipse fill="none" stroke="black" cx="1357" cy="-231.5" rx="36.51" ry="18"/>
<text text-anchor="middle" x="1357" y="-226.45" font-family="Times,serif" font-size="14.00" fill="blue">POMS</text>
</a>
</g>
</g>
<!-- gtaa -->
<g id="node8" class="node">
<title>gtaa</title>
<g id="a_node8"><a xlink:href="http://gtaa.beeldengeluid.nl/" xlink:title="B&amp;G Thesaurus">
<ellipse fill="none" stroke="black" cx="563" cy="-159.5" rx="71.31" ry="18"/>
<text text-anchor="middle" x="563" y="-154.45" font-family="Times,serif" font-size="14.00" fill="blue">B&amp;G Thesaurus</text>
</a>
</g>
</g>
<!-- poms&#45;&gt;gtaa -->
<g id="edge9" class="edge">
<title>poms&#45;&gt;gtaa</title>
<path fill="none" stroke="blue" d="M1336.38,-216.34C1329.02,-212.03 1320.44,-207.82 1312,-205.5 1169.24,-166.21 792.14,-209.28 646,-185.5 635.19,-183.74 623.83,-180.96 613.09,-177.89"/>
<polygon fill="blue" stroke="blue" points="614.19,-174.26 603.61,-174.74 612.18,-180.97 614.19,-174.26"/>
</g>
<!-- postgresql_media -->
<g id="node12" class="node">
<title>postgresql_media</title>
<ellipse fill="none" stroke="black" cx="1197" cy="-159.5" rx="76.43" ry="18"/>
<text text-anchor="middle" x="1197" y="-154.45" font-family="Times,serif" font-size="14.00">postgresql_media</text>
</g>
<!-- poms&#45;&gt;postgresql_media -->
<g id="edge10" class="edge">
<title>poms&#45;&gt;postgresql_media</title>
<path fill="none" stroke="blue" d="M1334.42,-217.18C1327.34,-213.22 1319.44,-209 1312,-205.5 1291.52,-195.86 1268.37,-186.51 1248.23,-178.86"/>
<polygon fill="blue" stroke="blue" points="1249.6,-175.26 1239.01,-175.02 1247.14,-181.81 1249.6,-175.26"/>
</g>
<!-- jms -->
<g id="node15" class="node">
<title>jms</title>
<ellipse fill="none" stroke="black" cx="1032" cy="-159.5" rx="70.29" ry="18"/>
<text text-anchor="middle" x="1032" y="-154.45" font-family="Times,serif" font-size="14.00">JMS ActiveMQ</text>
</g>
<!-- poms&#45;&gt;jms -->
<g id="edge11" class="edge">
<title>poms&#45;&gt;jms</title>
<path fill="none" stroke="blue" d="M1335.83,-216.41C1328.56,-212.22 1320.19,-208.06 1312,-205.5 1226.75,-178.81 1199.53,-203.36 1112,-185.5 1102.26,-183.51 1092.03,-180.81 1082.25,-177.91"/>
<polygon fill="blue" stroke="blue" points="1083.46,-174.31 1072.87,-174.71 1081.4,-181 1083.46,-174.31"/>
</g>
<!-- pd -->
<g id="node23" class="node">
<title>pd</title>
<ellipse fill="none" stroke="black" cx="1749" cy="-159.5" rx="27" ry="18"/>
<text text-anchor="middle" x="1749" y="-154.45" font-family="Times,serif" font-size="14.00">pd</text>
</g>
<!-- poms&#45;&gt;pd -->
<g id="edge12" class="edge">
<title>poms&#45;&gt;pd</title>
<path fill="none" stroke="blue" d="M1393.18,-228.12C1471.65,-222.62 1655.06,-207.73 1713,-185.5 1716.59,-184.12 1720.17,-182.31 1723.59,-180.3"/>
<polygon fill="blue" stroke="blue" points="1725.32,-182.69 1731.74,-174.26 1721.47,-176.85 1725.32,-182.69"/>
</g>
<!-- prepr -->
<g id="node24" class="node">
<title>prepr</title>
<ellipse fill="none" stroke="black" cx="1674" cy="-159.5" rx="30.37" ry="18"/>
<text text-anchor="middle" x="1674" y="-154.45" font-family="Times,serif" font-size="14.00">prepr</text>
</g>
<!-- poms&#45;&gt;prepr -->
<g id="edge13" class="edge">
<title>poms&#45;&gt;prepr</title>
<path fill="none" stroke="blue" d="M1393.32,-229.32C1447.6,-226.52 1552.34,-217.11 1635,-185.5 1638.94,-183.99 1642.91,-182.05 1646.72,-179.92"/>
<polygon fill="blue" stroke="blue" points="1648.1,-182.57 1654.79,-174.36 1644.44,-176.6 1648.1,-182.57"/>
</g>
<!-- miranda -->
<g id="node25" class="node">
<title>miranda</title>
<ellipse fill="none" stroke="black" cx="1913" cy="-159.5" rx="41.63" ry="18"/>
<text text-anchor="middle" x="1913" y="-154.45" font-family="Times,serif" font-size="14.00">miranda</text>
</g>
<!-- poms&#45;&gt;miranda -->
<g id="edge14" class="edge">
<title>poms&#45;&gt;miranda</title>
<path fill="none" stroke="blue" d="M1393.66,-229.02C1494.53,-224.65 1774.54,-210.57 1863,-185.5 1868.6,-183.91 1874.33,-181.7 1879.8,-179.23"/>
<polygon fill="blue" stroke="blue" points="1880.86,-182.13 1888.32,-174.61 1877.8,-175.83 1880.86,-182.13"/>
</g>
<!-- pluto -->
<g id="node26" class="node">
<title>pluto</title>
<ellipse fill="none" stroke="black" cx="1824" cy="-159.5" rx="29.86" ry="18"/>
<text text-anchor="middle" x="1824" y="-154.45" font-family="Times,serif" font-size="14.00">pluto</text>
</g>
<!-- poms&#45;&gt;pluto -->
<g id="edge15" class="edge">
<title>poms&#45;&gt;pluto</title>
<path fill="none" stroke="blue" d="M1393.57,-228.82C1483.44,-224.36 1713,-210.76 1785,-185.5 1789.07,-184.07 1793.14,-182.15 1797.04,-180"/>
<polygon fill="blue" stroke="blue" points="1798.58,-182.55 1805.27,-174.33 1794.92,-176.58 1798.58,-182.55"/>
</g>
<!-- nep -->
<g id="node27" class="node">
<title>nep</title>
<ellipse fill="none" stroke="black" cx="1599" cy="-159.5" rx="27" ry="18"/>
<text text-anchor="middle" x="1599" y="-154.45" font-family="Times,serif" font-size="14.00">nep</text>
</g>
<!-- poms&#45;&gt;nep -->
<g id="edge16" class="edge">
<title>poms&#45;&gt;nep</title>
<path fill="none" stroke="blue" d="M1392.55,-227.01C1434.68,-221.91 1506.29,-210.22 1563,-185.5 1566.52,-183.96 1570.06,-182.06 1573.47,-179.99"/>
<polygon fill="blue" stroke="blue" points="1575.22,-182.37 1581.6,-173.91 1571.34,-176.54 1575.22,-182.37"/>
</g>
<!-- sourcing_service -->
<g id="node28" class="node">
<title>sourcing_service</title>
<ellipse fill="none" stroke="black" cx="1481" cy="-159.5" rx="73.36" ry="18"/>
<text text-anchor="middle" x="1481" y="-154.45" font-family="Times,serif" font-size="14.00">sourcing_service</text>
</g>
<!-- poms&#45;&gt;sourcing_service -->
<g id="edge17" class="edge">
<title>poms&#45;&gt;sourcing_service</title>
<path fill="none" stroke="blue" d="M1380.32,-217.33C1398.01,-207.35 1422.68,-193.42 1443.18,-181.85"/>
<polygon fill="blue" stroke="blue" points="1444.57,-184.52 1451.56,-176.56 1441.13,-178.42 1444.57,-184.52"/>
</g>
<!-- keycloak -->
<g id="node29" class="node">
<title>keycloak</title>
<g id="a_node29"><a xlink:href="https://ident.poms.omroep.nl/auth/" xlink:title="Keycloak">
<ellipse fill="none" stroke="black" cx="1343" cy="-159.5" rx="46.23" ry="18"/>
<text text-anchor="middle" x="1343" y="-154.45" font-family="Times,serif" font-size="14.00" fill="blue">Keycloak</text>
</a>
</g>
</g>
<!-- poms&#45;&gt;keycloak -->
<g id="edge18" class="edge">
<title>poms&#45;&gt;keycloak</title>
<path fill="none" stroke="blue" d="M1353.54,-213.2C1352.03,-205.65 1350.22,-196.62 1348.54,-188.18"/>
<polygon fill="blue" stroke="blue" points="1351.81,-187.72 1346.42,-178.6 1344.95,-189.1 1351.81,-187.72"/>
</g>
<!-- poms_backend -->
<g id="node2" class="node">
<title>poms_backend</title>
<g id="a_node2"><a xlink:href="https://api.poms.omroep.nl/" xlink:title="POMS backend API">
<ellipse fill="none" stroke="black" cx="1216" cy="-231.5" rx="86.67" ry="18"/>
<text text-anchor="middle" x="1216" y="-226.45" font-family="Times,serif" font-size="14.00" fill="blue">POMS backend API</text>
</a>
</g>
</g>
<!-- poms_backend&#45;&gt;postgresql_media -->
<g id="edge19" class="edge">
<title>poms_backend&#45;&gt;postgresql_media</title>
<path fill="none" stroke="#ff7f00" d="M1211.3,-213.2C1209.26,-205.65 1206.8,-196.62 1204.51,-188.18"/>
<polygon fill="#ff7f00" stroke="#ff7f00" points="1207.64,-187.34 1201.64,-178.6 1200.88,-189.17 1207.64,-187.34"/>
</g>
<!-- poms_backend&#45;&gt;jms -->
<g id="edge20" class="edge">
<title>poms_backend&#45;&gt;jms</title>
<path fill="none" stroke="#ff7f00" d="M1175.62,-215.14C1147.52,-204.45 1109.91,-190.14 1080.23,-178.85"/>
<polygon fill="#ff7f00" stroke="#ff7f00" points="1081.68,-175.27 1071.09,-174.99 1079.19,-181.82 1081.68,-175.27"/>
</g>
<!-- poms_backend&#45;&gt;nep -->
<g id="edge21" class="edge">
<title>poms_backend&#45;&gt;nep</title>
<path fill="none" stroke="#ff7f00" d="M1263.97,-216.1C1278.91,-212.1 1295.53,-208.13 1311,-205.5 1421.77,-186.68 1457.2,-223.3 1563,-185.5 1566.62,-184.21 1570.22,-182.45 1573.65,-180.46"/>
<polygon fill="#ff7f00" stroke="#ff7f00" points="1575.37,-182.86 1581.81,-174.45 1571.53,-177.01 1575.37,-182.86"/>
</g>
<!-- poms_backend&#45;&gt;sourcing_service -->
<g id="edge22" class="edge">
<title>poms_backend&#45;&gt;sourcing_service</title>
<path fill="none" stroke="#ff7f00" d="M1267.2,-216.71C1281.37,-212.98 1296.76,-209.01 1311,-205.5 1349.52,-196.01 1359.65,-195.67 1398,-185.5 1407.4,-183.01 1417.34,-180.18 1426.96,-177.34"/>
<polygon fill="#ff7f00" stroke="#ff7f00" points="1427.64,-180.5 1436.22,-174.28 1425.64,-173.79 1427.64,-180.5"/>
</g>
<!-- poms_backend&#45;&gt;keycloak -->
<g id="edge23" class="edge">
<title>poms_backend&#45;&gt;keycloak</title>
<path fill="none" stroke="#ff7f00" d="M1245.46,-214.26C1264.01,-204.04 1288.07,-190.78 1307.65,-179.98"/>
<polygon fill="#ff7f00" stroke="#ff7f00" points="1309.08,-182.64 1316.15,-174.75 1305.7,-176.51 1309.08,-182.64"/>
</g>
<!-- api -->
<g id="node3" class="node">
<title>api</title>
<g id="a_node3"><a xlink:href="https://rs.poms.omroep.nl/" xlink:title="NPO Frontend API">
<ellipse fill="none" stroke="black" cx="709" cy="-231.5" rx="82.06" ry="18"/>
<text text-anchor="middle" x="709" y="-226.45" font-family="Times,serif" font-size="14.00" fill="blue">NPO Frontend API</text>
</a>
</g>
</g>
<!-- api&#45;&gt;gtaa -->
<g id="edge24" class="edge">
<title>api&#45;&gt;gtaa</title>
<path fill="none" stroke="cornflowerblue" d="M675.87,-214.62C654.84,-204.53 627.43,-191.39 604.89,-180.59"/>
<polygon fill="cornflowerblue" stroke="cornflowerblue" points="606.78,-177.13 596.25,-175.96 603.75,-183.44 606.78,-177.13"/>
</g>
<!-- elasticsearch -->
<g id="node14" class="node">
<title>elasticsearch</title>
<ellipse fill="none" stroke="black" cx="886" cy="-159.5" rx="58" ry="18"/>
<text text-anchor="middle" x="886" y="-154.45" font-family="Times,serif" font-size="14.00">elasticsearch</text>
</g>
<!-- api&#45;&gt;elasticsearch -->
<g id="edge25" class="edge">
<title>api&#45;&gt;elasticsearch</title>
<path fill="none" stroke="cornflowerblue" d="M747.41,-215.31C775.06,-204.38 812.43,-189.6 841.4,-178.14"/>
<polygon fill="cornflowerblue" stroke="cornflowerblue" points="842.26,-181.17 850.27,-174.24 839.68,-174.66 842.26,-181.17"/>
</g>
<!-- pages_publish -->
<g id="node4" class="node">
<title>pages_publish</title>
<g id="a_node4"><a xlink:href="https://publish.pages.omroep.nl/" xlink:title="Pages Publisher">
<ellipse fill="none" stroke="black" cx="879" cy="-231.5" rx="69.78" ry="18"/>
<text text-anchor="middle" x="879" y="-226.45" font-family="Times,serif" font-size="14.00" fill="blue">Pages Publisher</text>
</a>
</g>
</g>
<!-- pages_publish&#45;&gt;gtaa -->
<g id="edge26" class="edge">
<title>pages_publish&#45;&gt;gtaa</title>
<path fill="none" stroke="darkseagreen" d="M839.19,-216.39C826.76,-212.39 812.92,-208.36 800,-205.5 732.61,-190.59 713.49,-199.95 646,-185.5 635.84,-183.33 625.13,-180.51 614.9,-177.55"/>
<polygon fill="darkseagreen" stroke="darkseagreen" points="616.04,-173.94 605.45,-174.44 614.04,-180.65 616.04,-173.94"/>
</g>
<!-- pages_publish&#45;&gt;elasticsearch -->
<g id="edge27" class="edge">
<title>pages_publish&#45;&gt;elasticsearch</title>
<path fill="none" stroke="darkseagreen" d="M880.73,-213.2C881.48,-205.74 882.37,-196.82 883.2,-188.47"/>
<polygon fill="darkseagreen" stroke="darkseagreen" points="886.78,-188.9 884.29,-178.6 879.81,-188.21 886.78,-188.9"/>
</g>
<!-- pages_publish&#45;&gt;keycloak -->
<g id="edge28" class="edge">
<title>pages_publish&#45;&gt;keycloak</title>
<path fill="none" stroke="darkseagreen" d="M917.9,-216.11C930.52,-212 944.71,-207.97 958,-205.5 1101.15,-178.89 1143.36,-219.27 1285,-185.5 1292.02,-183.83 1299.27,-181.36 1306.16,-178.62"/>
<polygon fill="darkseagreen" stroke="darkseagreen" points="1307.1,-181.6 1314.94,-174.47 1304.36,-175.15 1307.1,-181.6"/>
</g>
<!-- media_publish -->
<g id="node5" class="node">
<title>media_publish</title>
<ellipse fill="none" stroke="black" cx="1039" cy="-231.5" rx="72.34" ry="18"/>
<text text-anchor="middle" x="1039" y="-226.45" font-family="Times,serif" font-size="14.00">Media Publisher</text>
</g>
<!-- media_publish&#45;&gt;elasticsearch -->
<g id="edge29" class="edge">
<title>media_publish&#45;&gt;elasticsearch</title>
<path fill="none" stroke="#bf3eff" d="M1005.42,-215.14C982.46,-204.63 951.87,-190.64 927.4,-179.44"/>
<polygon fill="#bf3eff" stroke="#bf3eff" points="929.22,-175.97 918.67,-174.99 926.31,-182.33 929.22,-175.97"/>
</g>
<!-- media_publish&#45;&gt;jms -->
<g id="edge30" class="edge">
<title>media_publish&#45;&gt;jms</title>
<path fill="none" stroke="#bf3eff" d="M1037.27,-213.2C1036.52,-205.74 1035.63,-196.82 1034.8,-188.47"/>
<polygon fill="#bf3eff" stroke="#bf3eff" points="1038.19,-188.21 1033.71,-178.6 1031.22,-188.9 1038.19,-188.21"/>
</g>
<!-- images_frontend -->
<g id="node6" class="node">
<title>images_frontend</title>
<g id="a_node6"><a xlink:href="https://images.poms.omroep.nl" xlink:title="Images">
<ellipse fill="none" stroke="black" cx="571" cy="-231.5" rx="38.04" ry="18"/>
<text text-anchor="middle" x="571" y="-226.45" font-family="Times,serif" font-size="14.00" fill="blue">Images</text>
</a>
</g>
</g>
<!-- postgresql_image -->
<g id="node13" class="node">
<title>postgresql_image</title>
<ellipse fill="none" stroke="black" cx="734" cy="-159.5" rx="76.43" ry="18"/>
<text text-anchor="middle" x="734" y="-154.45" font-family="Times,serif" font-size="14.00">postgresql_image</text>
</g>
<!-- images_frontend&#45;&gt;postgresql_image -->
<g id="edge31" class="edge">
<title>images_frontend&#45;&gt;postgresql_image</title>
<path fill="none" stroke="#caff70" d="M594.63,-217.22C602.02,-213.26 610.27,-209.04 618,-205.5 638.92,-195.92 662.51,-186.52 682.93,-178.81"/>
<polygon fill="#caff70" stroke="#caff70" points="683.83,-181.84 691.98,-175.06 681.38,-175.28 683.83,-181.84"/>
</g>
<!-- images_backend -->
<g id="node7" class="node">
<title>images_backend</title>
<g id="a_node7"><a xlink:href="https://poms.omroep.nl/images/" xlink:title="Images Backend">
<ellipse fill="none" stroke="black" cx="442" cy="-231.5" rx="72.85" ry="18"/>
<text text-anchor="middle" x="442" y="-226.45" font-family="Times,serif" font-size="14.00" fill="blue">Images Backend</text>
</a>
</g>
</g>
<!-- thineye -->
<g id="node9" class="node">
<title>thineye</title>
<ellipse fill="none" stroke="black" cx="436" cy="-159.5" rx="38.04" ry="18"/>
<text text-anchor="middle" x="436" y="-154.45" font-family="Times,serif" font-size="14.00">thineye</text>
</g>
<!-- images_backend&#45;&gt;thineye -->
<g id="edge32" class="edge">
<title>images_backend&#45;&gt;thineye</title>
<path fill="none" stroke="#caff70" d="M440.52,-213.2C439.88,-205.74 439.11,-196.82 438.4,-188.47"/>
<polygon fill="#caff70" stroke="#caff70" points="441.81,-188.27 437.47,-178.6 434.83,-188.87 441.81,-188.27"/>
</g>
<!-- images_backend&#45;&gt;postgresql_image -->
<g id="edge33" class="edge">
<title>images_backend&#45;&gt;postgresql_image</title>
<path fill="none" stroke="#caff70" d="M484.27,-216.44C496.95,-212.54 510.96,-208.54 524,-205.5 577.51,-193.02 592.37,-197.47 646,-185.5 656.58,-183.14 667.77,-180.26 678.5,-177.31"/>
<polygon fill="#caff70" stroke="#caff70" points="679.35,-180.42 688.03,-174.34 677.46,-173.68 679.35,-180.42"/>
</g>
<!-- images_backend&#45;&gt;jms -->
<g id="edge34" class="edge">
<title>images_backend&#45;&gt;jms</title>
<path fill="none" stroke="#caff70" d="M481.97,-216.13C495.18,-211.97 510.07,-207.91 524,-205.5 712.08,-172.97 765.09,-219.02 953,-185.5 962.88,-183.74 973.24,-181.08 983.09,-178.14"/>
<polygon fill="#caff70" stroke="#caff70" points="984.03,-181.2 992.53,-174.88 981.94,-174.52 984.03,-181.2"/>
</g>
<!-- images_backend&#45;&gt;keycloak -->
<g id="edge35" class="edge">
<title>images_backend&#45;&gt;keycloak</title>
<path fill="none" stroke="#caff70" d="M481.53,-216.1C494.84,-211.88 509.9,-207.79 524,-205.5 690.98,-178.36 1119.78,-221.86 1285,-185.5 1292.12,-183.93 1299.46,-181.49 1306.42,-178.74"/>
<polygon fill="#caff70" stroke="#caff70" points="1307.44,-181.68 1315.28,-174.54 1304.7,-175.24 1307.44,-181.68"/>
</g>
<!-- wikimedia -->
<g id="node30" class="node">
<title>wikimedia</title>
<ellipse fill="none" stroke="black" cx="330" cy="-159.5" rx="50.33" ry="18"/>
<text text-anchor="middle" x="330" y="-154.45" font-family="Times,serif" font-size="14.00">wikimedia</text>
</g>
<!-- images_backend&#45;&gt;wikimedia -->
<g id="edge36" class="edge">
<title>images_backend&#45;&gt;wikimedia</title>
<path fill="none" stroke="#caff70" d="M416.02,-214.26C400.32,-204.45 380.15,-191.84 363.28,-181.3"/>
<polygon fill="#caff70" stroke="#caff70" points="365.64,-178.02 355.3,-175.69 361.93,-183.96 365.64,-178.02"/>
</g>
<!-- pixabay -->
<g id="node31" class="node">
<title>pixabay</title>
<ellipse fill="none" stroke="black" cx="222" cy="-159.5" rx="40.09" ry="18"/>
<text text-anchor="middle" x="222" y="-154.45" font-family="Times,serif" font-size="14.00">pixabay</text>
</g>
<!-- images_backend&#45;&gt;pixabay -->
<g id="edge37" class="edge">
<title>images_backend&#45;&gt;pixabay</title>
<path fill="none" stroke="#caff70" d="M387.15,-219.22C353.14,-211.46 308.86,-199.95 271,-185.5 266.07,-183.62 260.99,-181.39 256.05,-179.04"/>
<polygon fill="#caff70" stroke="#caff70" points="257.72,-175.47 247.21,-174.15 254.6,-181.73 257.72,-175.47"/>
</g>
<!-- flickr -->
<g id="node32" class="node">
<title>flickr</title>
<ellipse fill="none" stroke="black" cx="133" cy="-159.5" rx="30.88" ry="18"/>
<text text-anchor="middle" x="133" y="-154.45" font-family="Times,serif" font-size="14.00">flickr</text>
</g>
<!-- images_backend&#45;&gt;flickr -->
<g id="edge38" class="edge">
<title>images_backend&#45;&gt;flickr</title>
<path fill="none" stroke="#caff70" d="M371.78,-226.31C316.32,-221.22 237.76,-210.04 173,-185.5 168.98,-183.98 164.93,-182.03 161.02,-179.89"/>
<polygon fill="#caff70" stroke="#caff70" points="163.11,-176.46 152.73,-174.33 159.51,-182.47 163.11,-176.46"/>
</g>
<!-- api_tests -->
<g id="node10" class="node">
<title>api_tests</title>
<g id="a_node10"><a xlink:href="https://git.vpro.nl/npo/test/api-tests/pipelines" xlink:title="api_tests">
<ellipse fill="azure" stroke="black" cx="559" cy="-400.5" rx="43.16" ry="18"/>
<text text-anchor="middle" x="559" y="-395.45" font-family="Times,serif" font-size="14.00" fill="blue">api_tests</text>
</a>
</g>
</g>
<!-- api_tests&#45;&gt;poms_backend -->
<g id="edge44" class="edge">
<title>api_tests&#45;&gt;poms_backend</title>
<path fill="none" stroke="gray" d="M590.24,-387.62C597,-385.53 604.16,-383.65 611,-382.5 636.42,-378.22 1051.84,-385.83 1075,-374.5 1118.3,-353.31 1108.74,-323.91 1143,-290 1155.39,-277.74 1170.33,-265.58 1183.46,-255.63"/>
<polygon fill="gray" stroke="gray" points="1185.27,-257.89 1191.2,-249.11 1181.09,-252.28 1185.27,-257.89"/>
</g>
<!-- api_tests&#45;&gt;api -->
<g id="edge45" class="edge">
<title>api_tests&#45;&gt;api</title>
<path fill="none" stroke="gray" d="M590.25,-387.63C597,-385.54 604.16,-383.66 611,-382.5 622.45,-380.56 1020.87,-382.79 1029,-374.5 1055.3,-347.69 1055.09,-317.02 1029,-290 1020.16,-280.84 812.28,-285.35 800,-282 779.41,-276.38 758.34,-265.33 741.68,-255.09"/>
<polygon fill="gray" stroke="gray" points="743.73,-251.61 733.41,-249.2 739.97,-257.52 743.73,-251.61"/>
</g>
<!-- api_tests&#45;&gt;pages_publish -->
<g id="edge46" class="edge">
<title>api_tests&#45;&gt;pages_publish</title>
<path fill="none" stroke="gray" d="M590.25,-387.63C597,-385.53 604.16,-383.65 611,-382.5 623.08,-380.46 1043.42,-383.24 1052,-374.5 1078.31,-347.7 1077.4,-317.66 1052,-290 1037.82,-274.56 977.88,-288.64 958,-282 940.24,-276.07 922.41,-265.39 908.18,-255.47"/>
<polygon fill="gray" stroke="gray" points="910.55,-252.14 900.4,-249.12 906.45,-257.81 910.55,-252.14"/>
</g>
<!-- fitnesse_tests -->
<g id="node11" class="node">
<title>fitnesse_tests</title>
<g id="a_node11"><a xlink:href="https://jenkins.vpro.nl/view/POMS/job/POMS-Fitnesse-Tests/" xlink:title="fitnesse_tests">
<ellipse fill="azure" stroke="black" cx="840" cy="-400.5" rx="60.05" ry="18"/>
<text text-anchor="middle" x="840" y="-395.45" font-family="Times,serif" font-size="14.00" fill="blue">fitnesse_tests</text>
</a>
</g>
</g>
<!-- fitnesse_tests&#45;&gt;poms -->
<g id="edge47" class="edge">
<title>fitnesse_tests&#45;&gt;poms</title>
<path fill="none" stroke="gray" d="M882.8,-387.49C891.41,-385.49 900.45,-383.68 909,-382.5 961.64,-375.22 1096.83,-388.85 1148,-374.5 1228.57,-351.9 1246.58,-334.18 1312,-282 1321.26,-274.61 1330.29,-265.25 1337.79,-256.67"/>
<polygon fill="gray" stroke="gray" points="1340.96,-259.34 1344.75,-249.44 1335.62,-254.82 1340.96,-259.34"/>
</g>
<!-- fitnesse_tests&#45;&gt;poms_backend -->
<g id="edge48" class="edge">
<title>fitnesse_tests&#45;&gt;poms_backend</title>
<path fill="none" stroke="gray" d="M882.81,-387.57C891.42,-385.56 900.45,-383.73 909,-382.5 928.93,-379.63 1071.83,-383.16 1090,-374.5 1142,-349.73 1181.72,-292.61 1201.69,-258.85"/>
<polygon fill="gray" stroke="gray" points="1205.07,-261 1207.02,-250.58 1199,-257.51 1205.07,-261"/>
</g>
<!-- fitnesse_tests&#45;&gt;api -->
<g id="edge49" class="edge">
<title>fitnesse_tests&#45;&gt;api</title>
<path fill="none" stroke="gray" d="M882.81,-387.61C891.43,-385.6 900.46,-383.76 909,-382.5 926.39,-379.94 1054.89,-387.24 1067,-374.5 1092.88,-347.28 1093.16,-316.95 1067,-290 1056.66,-279.35 814.33,-285.87 800,-282 779.39,-276.43 758.33,-265.38 741.67,-255.13"/>
<polygon fill="gray" stroke="gray" points="743.72,-251.65 733.4,-249.24 739.96,-257.56 743.72,-251.65"/>
</g>
<!-- users -->
<g id="node16" class="node">
<title>users</title>
<ellipse fill="none" stroke="black" cx="468" cy="-400.5" rx="29.86" ry="18"/>
<text text-anchor="middle" x="468" y="-395.45" font-family="Times,serif" font-size="14.00">users</text>
</g>
<!-- users&#45;&gt;api -->
<g id="edge4" class="edge">
<title>users&#45;&gt;api</title>
<path fill="none" stroke="gray" d="M490.18,-388.05C495.55,-385.78 501.37,-383.72 507,-382.5 519.95,-379.69 974.71,-383.95 984,-374.5 1010.33,-347.72 1009.97,-317.13 984,-290 969.85,-275.22 819.72,-287.47 800,-282 779.43,-276.29 758.37,-265.23 741.7,-255.01"/>
<polygon fill="gray" stroke="gray" points="743.75,-251.53 733.43,-249.14 740,-257.45 743.75,-251.53"/>
</g>
<!-- users&#45;&gt;images_frontend -->
<g id="edge5" class="edge">
<title>users&#45;&gt;images_frontend</title>
<path fill="none" stroke="gray" d="M490.18,-388.05C495.55,-385.78 501.37,-383.73 507,-382.5 519.32,-379.82 952.16,-383.5 961,-374.5 987.32,-347.71 987.24,-316.86 961,-290 947.68,-276.37 635.42,-289.73 618,-282 606.22,-276.78 595.97,-267.06 588.07,-257.61"/>
<polygon fill="gray" stroke="gray" points="590.4,-255.91 581.51,-250.15 584.87,-260.2 590.4,-255.91"/>
</g>
<!-- magnolia_frontend -->
<g id="node19" class="node">
<title>magnolia_frontend</title>
<ellipse fill="none" stroke="black" cx="687" cy="-324" rx="81.55" ry="18"/>
<text text-anchor="middle" x="687" y="-318.95" font-family="Times,serif" font-size="14.00">magnolia_frontend</text>
</g>
<!-- users&#45;&gt;magnolia_frontend -->
<g id="edge6" class="edge">
<title>users&#45;&gt;magnolia_frontend</title>
<path fill="none" stroke="gray" d="M490.25,-388.34C495.62,-386.06 501.42,-383.92 507,-382.5 545.91,-372.57 558.59,-386.2 597,-374.5 617.11,-368.37 637.78,-357.4 654.23,-347.33"/>
<polygon fill="gray" stroke="gray" points="655.8,-349.85 662.39,-341.56 652.07,-343.93 655.8,-349.85"/>
</g>
<!-- backendsystems -->
<g id="node17" class="node">
<title>backendsystems</title>
<ellipse fill="none" stroke="black" cx="691" cy="-400.5" rx="71.31" ry="18"/>
<text text-anchor="middle" x="691" y="-395.45" font-family="Times,serif" font-size="14.00">backendsystems</text>
</g>
<!-- backendsystems&#45;&gt;poms_backend -->
<g id="edge7" class="edge">
<title>backendsystems&#45;&gt;poms_backend</title>
<path fill="none" stroke="gray" d="M741.12,-387.35C750.97,-385.39 761.27,-383.63 771,-382.5 790.71,-380.21 1110.78,-384.34 1128,-374.5 1171.63,-349.57 1196.51,-293.35 1208.03,-259.6"/>
<polygon fill="gray" stroke="gray" points="1211.55,-261.1 1211.32,-250.51 1204.9,-258.94 1211.55,-261.1"/>
</g>
<!-- backendsystems&#45;&gt;pages_publish -->
<g id="edge8" class="edge">
<title>backendsystems&#45;&gt;pages_publish</title>
<path fill="none" stroke="gray" d="M741.12,-387.36C750.97,-385.4 761.27,-383.64 771,-382.5 780.22,-381.42 1098.52,-381.14 1105,-374.5 1131.24,-347.63 1130.82,-317.27 1105,-290 1093.75,-278.12 973.59,-286.94 958,-282 940.03,-276.3 922.06,-265.54 907.8,-255.5"/>
<polygon fill="gray" stroke="gray" points="910.15,-252.15 900.01,-249.07 906.02,-257.8 910.15,-252.15"/>
</g>
<!-- editors -->
<g id="node18" class="node">
<title>editors</title>
<ellipse fill="none" stroke="black" cx="954" cy="-400.5" rx="36" ry="18"/>
<text text-anchor="middle" x="954" y="-395.45" font-family="Times,serif" font-size="14.00">editors</text>
</g>
<!-- editors&#45;&gt;poms -->
<g id="edge1" class="edge">
<title>editors&#45;&gt;poms</title>
<path fill="none" stroke="gray" d="M990.15,-399.62C1079.97,-399.56 1307.92,-397.15 1333,-374.5 1364.53,-346.02 1364.78,-292.76 1361.38,-260.19"/>
<polygon fill="gray" stroke="gray" points="1364.77,-260.09 1360.07,-250.6 1357.82,-260.95 1364.77,-260.09"/>
</g>
<!-- magnolia_backend -->
<g id="node20" class="node">
<title>magnolia_backend</title>
<ellipse fill="none" stroke="black" cx="868" cy="-324" rx="81.04" ry="18"/>
<text text-anchor="middle" x="868" y="-318.95" font-family="Times,serif" font-size="14.00">magnolia_backend</text>
</g>
<!-- editors&#45;&gt;magnolia_backend -->
<g id="edge2" class="edge">
<title>editors&#45;&gt;magnolia_backend</title>
<path fill="none" stroke="gray" d="M936.6,-384.42C924.81,-374.21 908.99,-360.51 895.51,-348.83"/>
<polygon fill="gray" stroke="gray" points="898.33,-345.78 888.48,-341.87 893.74,-351.07 898.33,-345.78"/>
</g>
<!-- editors&#45;&gt;keycloak -->
<g id="edge3" class="edge">
<title>editors&#45;&gt;keycloak</title>
<path fill="none" stroke="gray" d="M990.36,-399.34C1084.43,-398.63 1330.63,-394.82 1361,-374.5 1425.6,-331.28 1441.57,-274.61 1406,-205.5 1400.54,-194.89 1391.28,-186.22 1381.52,-179.43"/>
<polygon fill="gray" stroke="gray" points="1383.84,-176.12 1373.52,-173.72 1380.09,-182.03 1383.84,-176.12"/>
</g>
<!-- magnolia_frontend&#45;&gt;api -->
<g id="edge41" class="edge">
<title>magnolia_frontend&#45;&gt;api</title>
<path fill="none" stroke="gray" d="M691.24,-305.55C694.35,-292.78 698.62,-275.19 702.2,-260.47"/>
<polygon fill="gray" stroke="gray" points="705.81,-261.44 704.77,-250.9 699.01,-259.79 705.81,-261.44"/>
</g>
<!-- magnolia_backend&#45;&gt;poms_backend -->
<g id="edge39" class="edge">
<title>magnolia_backend&#45;&gt;poms_backend</title>
<path fill="none" stroke="gray" d="M943.35,-316.99C994.22,-311.43 1062.33,-301.03 1120,-282 1140.89,-275.11 1162.78,-264.14 1180.38,-254.28"/>
<polygon fill="gray" stroke="gray" points="1181.75,-256.96 1188.68,-248.95 1178.27,-250.89 1181.75,-256.96"/>
</g>
<!-- magnolia_backend&#45;&gt;pages_publish -->
<g id="edge40" class="edge">
<title>magnolia_backend&#45;&gt;pages_publish</title>
<path fill="none" stroke="gray" d="M870.12,-305.55C871.67,-292.78 873.81,-275.19 875.6,-260.47"/>
<polygon fill="gray" stroke="gray" points="879.15,-261.25 876.89,-250.9 872.2,-260.4 879.15,-261.25"/>
</g>
<!-- amara_importer -->
<g id="node21" class="node">
<title>amara_importer</title>
<ellipse fill="none" stroke="black" cx="517" cy="-324" rx="70.8" ry="18"/>
<text text-anchor="middle" x="517" y="-318.95" font-family="Times,serif" font-size="14.00">amara_importer</text>
</g>
<!-- amara_importer&#45;&gt;poms_backend -->
<g id="edge50" class="edge">
<title>amara_importer&#45;&gt;poms_backend</title>
<path fill="none" stroke="gray" d="M546.89,-307.34C561.32,-300.62 579.12,-293.52 596,-290 653,-278.12 1063.52,-296.16 1120,-282 1141.95,-276.5 1164.53,-265.19 1182.28,-254.76"/>
<polygon fill="gray" stroke="gray" points="1183.87,-257.29 1190.6,-249.11 1180.24,-251.3 1183.87,-257.29"/>
</g>
<!-- amara -->
<g id="node33" class="node">
<title>amara</title>
<ellipse fill="none" stroke="black" cx="50" cy="-159.5" rx="33.95" ry="18"/>
<text text-anchor="middle" x="50" y="-154.45" font-family="Times,serif" font-size="14.00">amara</text>
</g>
<!-- amara_importer&#45;&gt;amara -->
<g id="edge51" class="edge">
<title>amara_importer&#45;&gt;amara</title>
<path fill="none" stroke="gray" d="M465.84,-311.26C434.25,-303.68 393.02,-293.17 357,-282 237.68,-245 206.11,-238.55 93,-185.5 88.87,-183.56 84.61,-181.36 80.45,-179.08"/>
<polygon fill="gray" stroke="gray" points="82.46,-175.63 72.04,-173.72 79,-181.71 82.46,-175.63"/>
</g>
<!-- metis -->
<g id="node22" class="node">
<title>metis</title>
<ellipse fill="none" stroke="black" cx="1711" cy="-83" rx="31.39" ry="18"/>
<text text-anchor="middle" x="1711" y="-77.95" font-family="Times,serif" font-size="14.00">metis</text>
</g>
<!-- pd&#45;&gt;metis -->
<g id="edge43" class="edge">
<title>pd&#45;&gt;metis</title>
<path fill="none" stroke="gray" d="M1740.57,-141.97C1735.83,-132.68 1729.8,-120.86 1724.43,-110.33"/>
<polygon fill="gray" stroke="gray" points="1727.2,-109.06 1719.54,-101.75 1720.97,-112.24 1727.2,-109.06"/>
</g>
<!-- prepr&#45;&gt;metis -->
<g id="edge42" class="edge">
<title>prepr&#45;&gt;metis</title>
<path fill="none" stroke="gray" d="M1682.21,-141.97C1686.83,-132.68 1692.69,-120.86 1697.92,-110.33"/>
<polygon fill="gray" stroke="gray" points="1701.37,-112.26 1702.68,-101.75 1695.1,-109.14 1701.37,-112.26"/>
</g>
</g>
</svg>
