<?xml version="1.0" encoding="UTF-8" standalone="no"?>
<!DOCTYPE svg PUBLIC "-//W3C//DTD SVG 1.1//EN"
 "http://www.w3.org/Graphics/SVG/1.1/DTD/svg11.dtd">
<!-- Generated by graphviz version 2.40.1 (20161225.0304)
 -->
<!-- Title: %3 Pages: 1 -->
<svg width="976pt" height="598pt"
 viewBox="0.00 0.00 976.00 598.00" xmlns="http://www.w3.org/2000/svg" xmlns:xlink="http://www.w3.org/1999/xlink">
<g id="graph0" class="graph" transform="scale(1 1) rotate(0) translate(4 594)">
<title>%3</title>
<polygon fill="#ffffff" stroke="transparent" points="-4,4 -4,-594 972,-594 972,4 -4,4"/>
<text text-anchor="middle" x="484" y="-7.8" font-family="Times,serif" font-size="14.00" fill="#000000"> &#160;Dependencies of the different code projects relevant to POMS</text>
<g id="clust1" class="cluster">
<title>cluster_0</title>
<polygon fill="none" stroke="#000000" points="491,-47 491,-137 960,-137 960,-47 491,-47"/>
<text text-anchor="middle" x="725.5" y="-121.8" font-family="Times,serif" font-size="14.00" fill="#000000">Generic utilities</text>
<text text-anchor="middle" x="725.5" y="-106.8" font-family="Times,serif" font-size="14.00" fill="#000000">(incoming edges are just examples, there are more)</text>
</g>
<g id="clust2" class="cluster">
<title>cluster_1</title>
<polygon fill="none" stroke="#000000" points="22,-507 22,-582 110,-582 110,-507 22,-507"/>
<text text-anchor="middle" x="66" y="-566.8" font-family="Times,serif" font-size="14.00" fill="#000000">VPRO</text>
</g>
<g id="clust3" class="cluster">
<title>cluster_2</title>
<polygon fill="none" stroke="#000000" points="307,-340 307,-582 959,-582 959,-340 307,-340"/>
<text text-anchor="middle" x="633" y="-566.8" font-family="Times,serif" font-size="14.00" fill="#000000">POMS Services</text>
</g>
<g id="clust4" class="cluster">
<title>cluster_4</title>
<polygon fill="none" stroke="#000000" points="20,-156 20,-488 150,-488 150,-156 20,-156"/>
<text text-anchor="middle" x="85" y="-472.8" font-family="Times,serif" font-size="14.00" fill="#000000">Sharable utilities</text>
</g>
<!-- vpro_shared -->
<g id="node1" class="node">
<title>vpro_shared</title>
<g id="a_node1"><a xlink:href="https://github.com/vpro/vpro-shared" xlink:title="vpro_shared">
<ellipse fill="none" stroke="#000000" cx="98" cy="-182" rx="44.393" ry="18"/>
<text text-anchor="middle" x="98" y="-178.3" font-family="Times,serif" font-size="14.00" fill="#0000ff">vpro_shared</text>
</a>
</g>
</g>
<!-- slf4j -->
<g id="node11" class="node">
<title>slf4j</title>
<ellipse fill="none" stroke="#000000" cx="598" cy="-73" rx="27" ry="18"/>
<text text-anchor="middle" x="598" y="-69.3" font-family="Times,serif" font-size="14.00" fill="#000000">slf4j</text>
</g>
<!-- vpro_shared&#45;&gt;slf4j -->
<g id="edge1" class="edge">
<title>vpro_shared&#45;&gt;slf4j</title>
<path fill="none" stroke="#c0c0c0" d="M139.9636,-176.2644C200.5698,-168.1715 316.1795,-153.448 415,-145 431.2981,-143.6067 548.1097,-145.6388 562,-137 575.328,-128.7109 584.1629,-113.5922 589.7437,-100.13"/>
<polygon fill="#c0c0c0" stroke="#c0c0c0" points="593.0301,-101.3342 593.25,-90.7416 586.4725,-98.885 593.0301,-101.3342"/>
</g>
<!-- guava -->
<g id="node12" class="node">
<title>guava</title>
<ellipse fill="none" stroke="#000000" cx="526" cy="-73" rx="27.0966" ry="18"/>
<text text-anchor="middle" x="526" y="-69.3" font-family="Times,serif" font-size="14.00" fill="#000000">guava</text>
</g>
<!-- vpro_shared&#45;&gt;guava -->
<g id="edge2" class="edge">
<title>vpro_shared&#45;&gt;guava</title>
<path fill="none" stroke="#c0c0c0" d="M135.607,-172.4225C217.4039,-151.5911 410.5401,-102.4045 490.4408,-82.056"/>
<polygon fill="#c0c0c0" stroke="#c0c0c0" points="491.671,-85.3545 500.4979,-79.4947 489.9434,-78.571 491.671,-85.3545"/>
</g>
<!-- poms_shared -->
<g id="node2" class="node">
<title>poms_shared</title>
<g id="a_node2"><a xlink:href="https://github.com/npo-poms/poms-shared" xlink:title="poms_shared">
<ellipse fill="none" stroke="#000000" cx="95" cy="-293" rx="46.5926" ry="18"/>
<text text-anchor="middle" x="95" y="-289.3" font-family="Times,serif" font-size="14.00" fill="#0000ff">poms_shared</text>
</a>
</g>
</g>
<!-- poms_shared&#45;&gt;vpro_shared -->
<g id="edge3" class="edge">
<title>poms_shared&#45;&gt;vpro_shared</title>
<path fill="none" stroke="#c0c0c0" d="M95.4954,-274.6706C95.9666,-257.2373 96.6825,-230.7482 97.2284,-210.5489"/>
<polygon fill="#c0c0c0" stroke="#c0c0c0" points="100.7323,-210.4476 97.5039,-200.3566 93.7349,-210.2584 100.7323,-210.4476"/>
</g>
<!-- api_client -->
<g id="node3" class="node">
<title>api_client</title>
<g id="a_node3"><a xlink:href="https://github.com/npo-poms/api-clients" xlink:title="api_client">
<ellipse fill="none" stroke="#000000" cx="66" cy="-439" rx="37.8943" ry="18"/>
<text text-anchor="middle" x="66" y="-435.3" font-family="Times,serif" font-size="14.00" fill="#0000ff">api_client</text>
</a>
</g>
</g>
<!-- api_client&#45;&gt;vpro_shared -->
<g id="edge16" class="edge">
<title>api_client&#45;&gt;vpro_shared</title>
<path fill="none" stroke="#c0c0c0" d="M51.8007,-422.213C41.3665,-408.1416 29,-387.0287 29,-366 29,-366 29,-366 29,-237.5 29,-220.6949 41.5808,-208.1221 55.9984,-199.2313"/>
<polygon fill="#c0c0c0" stroke="#c0c0c0" points="58.0743,-202.0819 65.1167,-194.1663 54.6752,-195.9626 58.0743,-202.0819"/>
</g>
<!-- api_client&#45;&gt;poms_shared -->
<g id="edge17" class="edge">
<title>api_client&#45;&gt;poms_shared</title>
<path fill="none" stroke="#c0c0c0" d="M69.6142,-420.8042C74.5906,-395.7506 83.5983,-350.4015 89.437,-321.007"/>
<polygon fill="#c0c0c0" stroke="#c0c0c0" points="92.9159,-321.4568 91.4313,-310.9665 86.0501,-320.0929 92.9159,-321.4568"/>
</g>
<!-- poms_backend -->
<g id="node4" class="node">
<title>poms_backend</title>
<g id="a_node4"><a xlink:href="https://subversion.vpro.nl/viewvc/nl/vpro/media" xlink:title="POMS &#160;&amp; POMS Backend API">
<ellipse fill="none" stroke="#cd950c" cx="656" cy="-533" rx="96.6831" ry="18"/>
<text text-anchor="middle" x="656" y="-529.3" font-family="Times,serif" font-size="14.00" fill="#0000ff">POMS &#160;&amp; POMS Backend API</text>
</a>
</g>
</g>
<!-- poms_backend&#45;&gt;vpro_shared -->
<g id="edge24" class="edge">
<title>poms_backend&#45;&gt;vpro_shared</title>
<path fill="none" stroke="#cd950c" d="M598.9199,-518.3935C583.1148,-514.5144 565.9264,-510.4486 550,-507 505.3583,-497.3336 480.6978,-520.8872 449,-488 382.5671,-419.0745 477.3953,-349.2728 417,-275 383.2757,-233.5267 231.2033,-203.3624 149.8057,-189.8681"/>
<polygon fill="#cd950c" stroke="#cd950c" points="150.1976,-186.3858 139.7642,-188.2285 149.0695,-193.2943 150.1976,-186.3858"/>
</g>
<!-- poms_backend&#45;&gt;poms_shared -->
<g id="edge25" class="edge">
<title>poms_backend&#45;&gt;poms_shared</title>
<path fill="none" stroke="#cd950c" d="M602.1503,-517.9895C585.5423,-513.8483 567.1191,-509.7442 550,-507 521.6098,-502.449 447.2337,-508.769 421,-497 376.5474,-477.0577 381.5939,-449.391 342,-421 275.0743,-373.0106 187.724,-332.1636 136.8475,-310.2342"/>
<polygon fill="#cd950c" stroke="#cd950c" points="138.0515,-306.9426 127.4804,-306.2331 135.3018,-313.3799 138.0515,-306.9426"/>
</g>
<!-- poms_gui -->
<g id="node5" class="node">
<title>poms_gui</title>
<g id="a_node5"><a xlink:href="https://subversion.vpro.nl/viewvc/nl/vpro/media-gui" xlink:title="Angular GUI for POMS">
<ellipse fill="none" stroke="#000000" cx="667" cy="-366" rx="76.8869" ry="18"/>
<text text-anchor="middle" x="667" y="-362.3" font-family="Times,serif" font-size="14.00" fill="#0000ff">Angular GUI for POMS</text>
</a>
</g>
</g>
<!-- poms_backend&#45;&gt;poms_gui -->
<g id="edge26" class="edge">
<title>poms_backend&#45;&gt;poms_gui</title>
<path fill="none" stroke="#cd950c" d="M657.1981,-514.8102C659.1074,-485.8234 662.8556,-428.9192 665.1233,-394.4916"/>
<polygon fill="#cd950c" stroke="#cd950c" points="668.6384,-394.3759 665.8033,-384.1674 661.6536,-393.9157 668.6384,-394.3759"/>
</g>
<!-- resteasy -->
<g id="node13" class="node">
<title>resteasy</title>
<ellipse fill="none" stroke="#000000" cx="756" cy="-73" rx="32.4942" ry="18"/>
<text text-anchor="middle" x="756" y="-69.3" font-family="Times,serif" font-size="14.00" fill="#000000">resteasy</text>
</g>
<!-- poms_backend&#45;&gt;resteasy -->
<g id="edge27" class="edge">
<title>poms_backend&#45;&gt;resteasy</title>
<path fill="none" stroke="#cd950c" d="M716.4261,-518.8151C747.633,-511.036 780.3653,-501.9851 786,-497 806.8941,-478.5147 810,-466.8975 810,-439 810,-439 810,-439 810,-182 810,-164.809 788.1603,-125.3995 772.259,-98.9842"/>
<polygon fill="#cd950c" stroke="#cd950c" points="775.122,-96.9564 766.9277,-90.2404 769.1453,-100.6006 775.122,-96.9564"/>
</g>
<!-- spring -->
<g id="node14" class="node">
<title>spring</title>
<ellipse fill="none" stroke="#000000" cx="834" cy="-73" rx="27.8951" ry="18"/>
<text text-anchor="middle" x="834" y="-69.3" font-family="Times,serif" font-size="14.00" fill="#000000">spring</text>
</g>
<!-- poms_backend&#45;&gt;spring -->
<g id="edge28" class="edge">
<title>poms_backend&#45;&gt;spring</title>
<path fill="none" stroke="#cd950c" d="M714.9187,-518.6501C752.831,-509.3534 795.7949,-498.6732 800,-497 807.5809,-493.9837 810.0432,-493.5753 816,-488 834.9902,-470.226 848,-465.0104 848,-439 848,-439 848,-439 848,-182 848,-154.2906 843.494,-122.9394 839.5948,-100.997"/>
<polygon fill="#cd950c" stroke="#cd950c" points="843.0132,-100.2343 837.7517,-91.0382 836.13,-101.5082 843.0132,-100.2343"/>
</g>
<!-- hibernate -->
<g id="node15" class="node">
<title>hibernate</title>
<ellipse fill="none" stroke="#000000" cx="916" cy="-73" rx="36.2938" ry="18"/>
<text text-anchor="middle" x="916" y="-69.3" font-family="Times,serif" font-size="14.00" fill="#000000">hibernate</text>
</g>
<!-- poms_backend&#45;&gt;hibernate -->
<g id="edge29" class="edge">
<title>poms_backend&#45;&gt;hibernate</title>
<path fill="none" stroke="#cd950c" d="M713.0813,-518.3992C728.8864,-514.5201 746.0745,-510.4529 762,-507 785.4269,-501.9207 791.685,-502.5704 815,-497 828.9539,-493.6662 834.034,-495.9147 846,-488 869.4477,-472.4911 886,-467.1126 886,-439 886,-439 886,-439 886,-218.5 886,-176.9229 897.8957,-130.014 906.7056,-100.9745"/>
<polygon fill="#cd950c" stroke="#cd950c" points="910.1408,-101.716 909.784,-91.1272 903.4596,-99.6273 910.1408,-101.716"/>
</g>
<!-- angular -->
<g id="node16" class="node">
<title>angular</title>
<ellipse fill="none" stroke="#000000" cx="674" cy="-73" rx="31.3957" ry="18"/>
<text text-anchor="middle" x="674" y="-69.3" font-family="Times,serif" font-size="14.00" fill="#000000">angular</text>
</g>
<!-- poms_gui&#45;&gt;angular -->
<g id="edge30" class="edge">
<title>poms_gui&#45;&gt;angular</title>
<path fill="none" stroke="#c0c0c0" d="M668.9474,-347.7234C670.3514,-332.972 672,-311.6739 672,-293 672,-293 672,-293 672,-182 672,-154.6367 672.6379,-123.416 673.1931,-101.4219"/>
<polygon fill="#c0c0c0" stroke="#c0c0c0" points="676.6997,-101.216 673.464,-91.1273 669.7021,-101.0318 676.6997,-101.216"/>
</g>
<!-- poms_shared_backend -->
<g id="node6" class="node">
<title>poms_shared_backend</title>
<g id="a_node6"><a xlink:href="https://subversion.vpro.nl/viewvc/nl/publiekeomroep/poms-shared-backend/" xlink:title="poms_shared_backend">
<ellipse fill="none" stroke="#00cdcd" cx="335" cy="-293" rx="72.5877" ry="18"/>
<text text-anchor="middle" x="335" y="-289.3" font-family="Times,serif" font-size="14.00" fill="#0000ff">poms_shared_backend</text>
</a>
</g>
</g>
<!-- poms_shared_backend&#45;&gt;vpro_shared -->
<g id="edge4" class="edge">
<title>poms_shared_backend&#45;&gt;vpro_shared</title>
<path fill="none" stroke="#00cdcd" d="M319.4524,-275.4077C303.2817,-258.2092 276.3965,-232.5498 248,-218 217.8311,-202.5421 180.8251,-193.5692 151.1185,-188.4475"/>
<polygon fill="#00cdcd" stroke="#00cdcd" points="151.3706,-184.9426 140.9385,-186.7922 150.2471,-191.8519 151.3706,-184.9426"/>
</g>
<!-- poms_shared_backend&#45;&gt;poms_shared -->
<g id="edge5" class="edge">
<title>poms_shared_backend&#45;&gt;poms_shared</title>
<path fill="none" stroke="#00cdcd" d="M262.2009,-293C225.5391,-293 188.8773,-293 152.2155,-293"/>
<polygon fill="#00cdcd" stroke="#00cdcd" points="151.875,-289.5001 141.875,-293 151.875,-296.5001 151.875,-289.5001"/>
</g>
<!-- poms_shared_backend&#45;&gt;slf4j -->
<g id="edge6" class="edge">
<title>poms_shared_backend&#45;&gt;slf4j</title>
<path fill="none" stroke="#00cdcd" d="M367.7861,-276.7143C415.2938,-251.8457 503.927,-200.5313 562,-137 571.9766,-126.0857 580.3032,-111.9229 586.4267,-99.6961"/>
<polygon fill="#00cdcd" stroke="#00cdcd" points="589.7122,-100.9376 590.8549,-90.4045 583.3931,-97.926 589.7122,-100.9376"/>
</g>
<!-- api -->
<g id="node7" class="node">
<title>api</title>
<g id="a_node7"><a xlink:href="https://subversion.vpro.nl/viewvc/nl/vpro/api/" xlink:title="Frontend API">
<ellipse fill="none" stroke="#6495ed" cx="493" cy="-533" rx="48.1917" ry="18"/>
<text text-anchor="middle" x="493" y="-529.3" font-family="Times,serif" font-size="14.00" fill="#0000ff">Frontend API</text>
</a>
</g>
</g>
<!-- api&#45;&gt;vpro_shared -->
<g id="edge7" class="edge">
<title>api&#45;&gt;vpro_shared</title>
<path fill="none" stroke="#6495ed" d="M465.2593,-518.1824C456.1666,-513.9191 445.8619,-509.6972 436,-507 382.2208,-492.2916 357.1826,-520.6661 312,-488 258.0615,-449.0035 152.9673,-275.6889 113.4866,-208.6237"/>
<polygon fill="#6495ed" stroke="#6495ed" points="116.4423,-206.7449 108.3633,-199.8907 110.4046,-210.287 116.4423,-206.7449"/>
</g>
<!-- api&#45;&gt;poms_shared -->
<g id="edge8" class="edge">
<title>api&#45;&gt;poms_shared</title>
<path fill="none" stroke="#6495ed" d="M465.9252,-518.1169C456.6983,-513.7393 446.1462,-509.4664 436,-507 413.9483,-501.6395 250.9908,-509.4243 232,-497 166.799,-454.3438 202.9687,-400.6035 154,-340 146.4246,-330.6247 136.67,-321.9156 127.2823,-314.6054"/>
<polygon fill="#6495ed" stroke="#6495ed" points="129.2969,-311.7416 119.1911,-308.5599 125.107,-317.3492 129.2969,-311.7416"/>
</g>
<!-- api&#45;&gt;poms_shared_backend -->
<g id="edge9" class="edge">
<title>api&#45;&gt;poms_shared_backend</title>
<path fill="none" stroke="#6495ed" d="M465.2517,-518.2101C456.1586,-513.9483 445.8556,-509.7202 436,-507 416.6022,-501.6461 359.8195,-511.6274 346,-497 301.1258,-449.5023 315.1422,-364.7172 326.5281,-320.9113"/>
<polygon fill="#6495ed" stroke="#6495ed" points="329.9203,-321.7754 329.1841,-311.2062 323.1685,-319.9277 329.9203,-321.7754"/>
</g>
<!-- api&#45;&gt;resteasy -->
<g id="edge10" class="edge">
<title>api&#45;&gt;resteasy</title>
<path fill="none" stroke="#6495ed" d="M522.5675,-518.6259C531.3021,-514.6222 540.9491,-510.4336 550,-507 646.4821,-470.3982 772,-542.1915 772,-439 772,-439 772,-439 772,-182 772,-154.2219 766.8503,-122.88 762.394,-100.9584"/>
<polygon fill="#6495ed" stroke="#6495ed" points="765.7833,-100.0685 760.2877,-91.0105 758.9351,-101.5186 765.7833,-100.0685"/>
</g>
<!-- media_publish -->
<g id="node8" class="node">
<title>media_publish</title>
<g id="a_node8"><a xlink:href="https://subversion.vpro.nl/viewvc/nl/publiekeomroep/npo-publish/" xlink:title="Media Publisher">
<ellipse fill="none" stroke="#bf3eff" cx="371" cy="-533" rx="55.7903" ry="18"/>
<text text-anchor="middle" x="371" y="-529.3" font-family="Times,serif" font-size="14.00" fill="#0000ff">Media Publisher</text>
</a>
</g>
</g>
<!-- media_publish&#45;&gt;poms_shared -->
<g id="edge13" class="edge">
<title>media_publish&#45;&gt;poms_shared</title>
<path fill="none" stroke="#bf3eff" d="M317.4872,-527.7195C272.4406,-522.284 212.4863,-512.4111 194,-497 136.2494,-448.8564 167.3887,-405.7936 131,-340 126.9427,-332.664 121.8164,-325.2317 116.7142,-318.5091"/>
<polygon fill="#bf3eff" stroke="#bf3eff" points="119.2869,-316.1191 110.3465,-310.434 113.7902,-320.4535 119.2869,-316.1191"/>
</g>
<!-- media_publish&#45;&gt;poms_shared_backend -->
<g id="edge14" class="edge">
<title>media_publish&#45;&gt;poms_shared_backend</title>
<path fill="none" stroke="#bf3eff" d="M333.063,-519.5892C323.1666,-514.1666 313.6906,-506.806 308,-497 270.5228,-432.42 284.3883,-399.835 308,-329 309.121,-325.637 310.6929,-322.3352 312.5205,-319.1785"/>
<polygon fill="#bf3eff" stroke="#bf3eff" points="315.5199,-320.9899 318.1867,-310.7362 309.7077,-317.0889 315.5199,-320.9899"/>
</g>
<!-- pages_publish -->
<g id="node9" class="node">
<title>pages_publish</title>
<g id="a_node9"><a xlink:href="https://subversion.vpro.nl/viewvc/nl/publiekeomroep/npo-publish/" xlink:title="Pages Publisher">
<ellipse fill="none" stroke="#8fbc8f" cx="518" cy="-366" rx="53.8905" ry="18"/>
<text text-anchor="middle" x="518" y="-362.3" font-family="Times,serif" font-size="14.00" fill="#0000ff">Pages Publisher</text>
</a>
</g>
</g>
<!-- media_publish&#45;&gt;pages_publish -->
<g id="edge15" class="edge">
<title>media_publish&#45;&gt;pages_publish</title>
<path fill="none" stroke="#c0c0c0" d="M386.4537,-515.4437C414.76,-483.2863 474.6016,-415.3029 502.7533,-383.3211"/>
<text text-anchor="middle" x="516.5" y="-435.3" font-family="Times,serif" font-size="14.00" fill="#000000">we plan to merge these</text>
</g>
<!-- pages_publish&#45;&gt;poms_shared -->
<g id="edge11" class="edge">
<title>pages_publish&#45;&gt;poms_shared</title>
<path fill="none" stroke="#8fbc8f" d="M483.7208,-351.8457C463.2387,-343.9436 436.5145,-334.5922 412,-329 342.6631,-313.183 323.6638,-319.025 253,-311 218.7426,-307.1095 180.3088,-302.7313 149.9255,-299.267"/>
<polygon fill="#8fbc8f" stroke="#8fbc8f" points="150.2802,-295.7848 139.948,-298.1292 149.487,-302.7398 150.2802,-295.7848"/>
</g>
<!-- pages_publish&#45;&gt;poms_shared_backend -->
<g id="edge12" class="edge">
<title>pages_publish&#45;&gt;poms_shared_backend</title>
<path fill="none" stroke="#8fbc8f" d="M505.0413,-348.3876C499.0573,-341.4005 491.4122,-333.8825 483,-329 461.1904,-316.3415 435.0926,-308.1184 410.9278,-302.7827"/>
<polygon fill="#8fbc8f" stroke="#8fbc8f" points="411.5684,-299.3411 401.066,-300.7376 410.147,-306.1953 411.5684,-299.3411"/>
</g>
<!-- images -->
<g id="node10" class="node">
<title>images</title>
<g id="a_node10"><a xlink:href="https://subversion.vpro.nl/viewvc/nl/vpro/images/" xlink:title="Images Frontend &amp; Backend">
<ellipse fill="none" stroke="#000000" cx="861" cy="-533" rx="89.8845" ry="18"/>
<text text-anchor="middle" x="861" y="-529.3" font-family="Times,serif" font-size="14.00" fill="#0000ff">Images Frontend &amp; Backend</text>
</a>
</g>
</g>
<!-- images&#45;&gt;poms_shared -->
<g id="edge18" class="edge">
<title>images&#45;&gt;poms_shared</title>
<path fill="none" stroke="#000000" d="M811.2837,-517.9928C795.6437,-513.7998 778.2199,-509.6659 762,-507 641.1084,-487.1302 602.8245,-527.9282 487,-488 436.7715,-470.6847 432.5542,-449.9421 388,-421 330.9119,-383.916 320.1875,-367.6946 258,-340 221.9147,-323.9298 178.8983,-311.7974 146.1188,-303.8877"/>
<polygon fill="#000000" stroke="#000000" points="146.8301,-300.4595 136.2935,-301.5689 145.2222,-307.2724 146.8301,-300.4595"/>
</g>
<!-- images&#45;&gt;spring -->
<g id="edge19" class="edge">
<title>images&#45;&gt;spring</title>
<path fill="none" stroke="#000000" d="M883.3513,-515.431C889.3047,-509.9842 895.3624,-503.6516 900,-497 915.9555,-474.1156 924,-466.8975 924,-439 924,-439 924,-439 924,-218.5 924,-175.2922 893.5984,-173.827 871,-137 863.3729,-124.5706 855.2273,-110.5667 848.526,-98.8345"/>
<polygon fill="#000000" stroke="#000000" points="851.4819,-96.9519 843.4989,-89.9861 845.3956,-100.4098 851.4819,-96.9519"/>
</g>
<!-- images&#45;&gt;hibernate -->
<g id="edge20" class="edge">
<title>images&#45;&gt;hibernate</title>
<path fill="none" stroke="#000000" d="M898.6087,-516.4787C927.3244,-501.0276 962,-474.9309 962,-439 962,-439 962,-439 962,-182 962,-151.6269 946.6514,-119.9736 933.6861,-98.6535"/>
<polygon fill="#000000" stroke="#000000" points="936.6314,-96.7624 928.3272,-90.1829 930.7158,-100.505 936.6314,-96.7624"/>
</g>
<!-- magnolia -->
<g id="node17" class="node">
<title>magnolia</title>
<ellipse fill="none" stroke="#000000" cx="66" cy="-533" rx="36.2938" ry="18"/>
<text text-anchor="middle" x="66" y="-529.3" font-family="Times,serif" font-size="14.00" fill="#000000">magnolia</text>
</g>
<!-- magnolia&#45;&gt;vpro_shared -->
<g id="edge21" class="edge">
<title>magnolia&#45;&gt;vpro_shared</title>
<path fill="none" stroke="#8b8878" d="M46.1978,-517.6654C26.7571,-500.7239 0,-471.5028 0,-439 0,-439 0,-439 0,-237.5 0,-213.1831 23.1283,-199.3944 46.9134,-191.6435"/>
<polygon fill="#8b8878" stroke="#8b8878" points="48.1092,-194.9404 56.7232,-188.7719 46.1426,-188.2223 48.1092,-194.9404"/>
</g>
<!-- magnolia&#45;&gt;poms_shared -->
<g id="edge22" class="edge">
<title>magnolia&#45;&gt;poms_shared</title>
<path fill="none" stroke="#8b8878" d="M88.1779,-518.158C97.7214,-510.4208 107.854,-500.0515 113,-488 136.8377,-432.1746 118.669,-359.3663 105.4926,-320.4191"/>
<polygon fill="#8b8878" stroke="#8b8878" points="108.7369,-319.0946 102.1134,-310.8255 102.1345,-321.4203 108.7369,-319.0946"/>
</g>
<!-- magnolia&#45;&gt;api_client -->
<g id="edge23" class="edge">
<title>magnolia&#45;&gt;api_client</title>
<path fill="none" stroke="#8b8878" d="M66,-514.8759C66,-501.3516 66,-482.6192 66,-467.1514"/>
<polygon fill="#8b8878" stroke="#8b8878" points="69.5001,-467.0685 66,-457.0685 62.5001,-467.0685 69.5001,-467.0685"/>
</g>
</g>
</svg>
