<?xml version="1.0" encoding="UTF-8" standalone="no"?>
<!DOCTYPE svg PUBLIC "-//W3C//DTD SVG 1.1//EN"
 "http://www.w3.org/Graphics/SVG/1.1/DTD/svg11.dtd">
<!-- Generated by graphviz version 2.40.1 (20161225.0304)
 -->
<!-- Title: poms_universe Pages: 1 -->
<svg width="1950pt" height="505pt"
 viewBox="0.00 0.00 1950.00 504.95" xmlns="http://www.w3.org/2000/svg" xmlns:xlink="http://www.w3.org/1999/xlink">
<g id="graph0" class="graph" transform="scale(1 1) rotate(0) translate(4 500.9533)">
<title>poms_universe</title>
<polygon fill="#ffffff" stroke="transparent" points="-4,4 -4,-500.9533 1946,-500.9533 1946,4 -4,4"/>
<text text-anchor="middle" x="971" y="-7.8" font-family="Times,serif" font-size="14.00" fill="#000000">Deployments relevant for POMS</text>
<g id="clust1" class="cluster">
<title>cluster_0</title>
<polygon fill="#f0ffff" stroke="#000000" points="513,-31 513,-144.9533 1423,-144.9533 1423,-31 513,-31"/>
<text text-anchor="middle" x="968" y="-38.8" font-family="Times,serif" font-size="14.00" fill="#000000">Generic backend services</text>
</g>
<g id="clust2" class="cluster">
<title>cluster_3</title>
<polygon fill="none" stroke="#000000" points="501,-330.9533 501,-488.9533 1025,-488.9533 1025,-330.9533 501,-330.9533"/>
<text text-anchor="middle" x="763" y="-473.7533" font-family="Times,serif" font-size="14.00" fill="#000000">World</text>
</g>
<g id="clust3" class="cluster">
<title>cluster_2</title>
<polygon fill="none" stroke="#000000" points="509,-338.9533 509,-413.9533 1017,-413.9533 1017,-338.9533 509,-338.9533"/>
<text text-anchor="middle" x="763" y="-398.7533" font-family="Times,serif" font-size="14.00" fill="#000000">VPRO</text>
</g>
<g id="clust4" class="cluster">
<title>cluster_4</title>
<polygon fill="#f0ffff" stroke="#000000" points="423,-247.9533 423,-322.9533 1447,-322.9533 1447,-247.9533 423,-247.9533"/>
<text text-anchor="middle" x="935" y="-307.7533" font-family="Times,serif" font-size="14.00" fill="#000000">POMS &#160;Services</text>
</g>
<g id="clust5" class="cluster">
<title>cluster_5</title>
<polygon fill="none" stroke="#000000" points="1431,-50.4767 1431,-227.9533 1934,-227.9533 1934,-50.4767 1431,-50.4767"/>
<text text-anchor="middle" x="1682.5" y="-58.2767" font-family="Times,serif" font-size="14.00" fill="#000000">NPO Services</text>
</g>
<g id="clust6" class="cluster">
<title>cluster_6</title>
<polygon fill="none" stroke="#000000" points="8,-152.9533 8,-227.9533 635,-227.9533 635,-152.9533 8,-152.9533"/>
<text text-anchor="middle" x="321.5" y="-160.7533" font-family="Times,serif" font-size="14.00" fill="#000000">Auxiliary API&#39;s</text>
</g>
<!-- poms -->
<g id="node1" class="node">
<title>poms</title>
<g id="a_node1"><a xlink:href="https://poms.omroep.nl/" xlink:title="POMS">
<ellipse fill="none" stroke="#000000" cx="1403" cy="-273.9533" rx="35.9954" ry="18"/>
<text text-anchor="middle" x="1403" y="-270.2533" font-family="Times,serif" font-size="14.00" fill="#0000ff">POMS</text>
</a>
</g>
</g>
<!-- gtaa -->
<g id="node8" class="node">
<title>gtaa</title>
<g id="a_node8"><a xlink:href="http://gtaa.beeldengeluid.nl/" xlink:title="B&amp;G Thesaurus">
<ellipse fill="none" stroke="#000000" cx="557" cy="-201.9533" rx="70.3881" ry="18"/>
<text text-anchor="middle" x="557" y="-198.2533" font-family="Times,serif" font-size="14.00" fill="#0000ff">B&amp;G Thesaurus</text>
</a>
</g>
</g>
<!-- poms&#45;&gt;gtaa -->
<g id="edge9" class="edge">
<title>poms&#45;&gt;gtaa</title>
<path fill="none" stroke="#0000ff" d="M1382.0031,-258.9516C1374.744,-254.5661 1366.3327,-250.3185 1358,-247.9533 1211.7141,-206.43 824.8983,-246.7536 674,-227.9533 654.8345,-225.5655 634.1862,-221.4913 615.6497,-217.2675"/>
<polygon fill="#0000ff" stroke="#0000ff" points="616.415,-213.8521 605.8808,-214.9845 614.822,-220.6684 616.415,-213.8521"/>
</g>
<!-- postgresql_media -->
<g id="node11" class="node">
<title>postgresql_media</title>
<ellipse fill="none" stroke="#000000" cx="1340" cy="-99.4767" rx="74.9875" ry="18"/>
<text text-anchor="middle" x="1340" y="-95.7767" font-family="Times,serif" font-size="14.00" fill="#000000">postgresql_media</text>
</g>
<!-- poms&#45;&gt;postgresql_media -->
<g id="edge10" class="edge">
<title>poms&#45;&gt;postgresql_media</title>
<path fill="none" stroke="#0000ff" d="M1396.4952,-255.9384C1385.4603,-225.3778 1363.004,-163.1856 1349.9722,-127.0944"/>
<polygon fill="#0000ff" stroke="#0000ff" points="1353.252,-125.8719 1346.5638,-117.655 1346.6681,-128.2493 1353.252,-125.8719"/>
</g>
<!-- jms_ingest -->
<g id="node14" class="node">
<title>jms_ingest</title>
<ellipse fill="none" stroke="#000000" cx="986" cy="-99.4767" rx="93.1765" ry="37.4533"/>
<text text-anchor="start" x="928" y="-110.7767" font-family="Times,serif" font-size="14.00" fill="#000000">JMS ActiveMQ</text>
<text text-anchor="start" x="928" y="-95.7767" font-family="Times,serif" font-size="14.00" fill="#000000">(broadcast ingests,</text>
<text text-anchor="middle" x="986" y="-80.7767" font-family="Times,serif" font-size="14.00" fill="#000000">internal SOAP calls)</text>
</g>
<!-- poms&#45;&gt;jms_ingest -->
<g id="edge11" class="edge">
<title>poms&#45;&gt;jms_ingest</title>
<path fill="none" stroke="#0000ff" d="M1381.2689,-259.5194C1374.0996,-255.2766 1365.9268,-250.9699 1358,-247.9533 1316.8603,-232.2976 1296.3873,-254.132 1261,-227.9533 1230.4596,-205.3603 1252.0744,-173.31 1220,-152.9533 1195.1882,-137.206 1116.5451,-151.9377 1088,-144.9533 1076.1116,-142.0445 1063.8843,-137.8051 1052.208,-133.0681"/>
<polygon fill="#0000ff" stroke="#0000ff" points="1053.5533,-129.837 1042.979,-129.1785 1050.8346,-136.2876 1053.5533,-129.837"/>
</g>
<!-- jms_publish -->
<g id="node15" class="node">
<title>jms_publish</title>
<ellipse fill="none" stroke="#000000" cx="1172" cy="-99.4767" rx="74.9067" ry="26.7407"/>
<text text-anchor="start" x="1127" y="-103.2767" font-family="Times,serif" font-size="14.00" fill="#000000">JMS ActiveMQ</text>
<text text-anchor="middle" x="1172" y="-88.2767" font-family="Times,serif" font-size="14.00" fill="#000000">(publication)</text>
</g>
<!-- poms&#45;&gt;jms_publish -->
<g id="edge12" class="edge">
<title>poms&#45;&gt;jms_publish</title>
<path fill="none" stroke="#0000ff" d="M1385.8335,-257.6945C1359.8739,-233.4936 1308.5974,-187.1774 1261,-152.9533 1248.633,-144.061 1234.7334,-135.2127 1221.6605,-127.3481"/>
<polygon fill="#0000ff" stroke="#0000ff" points="1223.1569,-124.1662 1212.771,-122.0721 1219.5841,-130.1858 1223.1569,-124.1662"/>
</g>
<!-- ldap -->
<g id="node16" class="node">
<title>ldap</title>
<ellipse fill="none" stroke="#000000" cx="848" cy="-99.4767" rx="27" ry="18"/>
<text text-anchor="middle" x="848" y="-95.7767" font-family="Times,serif" font-size="14.00" fill="#000000">ldap</text>
</g>
<!-- poms&#45;&gt;ldap -->
<g id="edge13" class="edge">
<title>poms&#45;&gt;ldap</title>
<path fill="none" stroke="#0000ff" d="M1381.3724,-259.235C1374.2086,-254.977 1366.0129,-250.7331 1358,-247.9533 1299.4491,-227.6412 1279.8777,-243.9363 1220,-227.9533 1132.685,-204.6465 1119.2707,-172.3282 1031,-152.9533 999.0457,-145.9395 913.0515,-159.9959 884,-144.9533 875.5163,-140.5605 868.3762,-133.1776 862.7491,-125.6241"/>
<polygon fill="#0000ff" stroke="#0000ff" points="865.3326,-123.1937 856.8486,-116.8477 859.5235,-127.0993 865.3326,-123.1937"/>
</g>
<!-- metis -->
<g id="node23" class="node">
<title>metis</title>
<ellipse fill="none" stroke="#000000" cx="1504" cy="-99.4767" rx="30.5947" ry="18"/>
<text text-anchor="middle" x="1504" y="-95.7767" font-family="Times,serif" font-size="14.00" fill="#000000">metis</text>
</g>
<!-- poms&#45;&gt;metis -->
<g id="edge14" class="edge">
<title>poms&#45;&gt;metis</title>
<path fill="none" stroke="#0000ff" d="M1403.1413,-255.5868C1404.1624,-230.4346 1409.0493,-184.772 1430,-152.9533 1440.1783,-137.4951 1456.4667,-125.013 1471.1739,-116.008"/>
<polygon fill="#0000ff" stroke="#0000ff" points="1473.1639,-118.8999 1480.0581,-110.855 1469.6518,-112.8448 1473.1639,-118.8999"/>
</g>
<!-- pd -->
<g id="node24" class="node">
<title>pd</title>
<ellipse fill="none" stroke="#000000" cx="1538" cy="-201.9533" rx="27" ry="18"/>
<text text-anchor="middle" x="1538" y="-198.2533" font-family="Times,serif" font-size="14.00" fill="#000000">pd</text>
</g>
<!-- poms&#45;&gt;pd -->
<g id="edge15" class="edge">
<title>poms&#45;&gt;pd</title>
<path fill="none" stroke="#0000ff" d="M1431.0285,-262.6267C1451.2553,-254.0497 1478.9465,-241.4677 1502,-227.9533 1505.2507,-226.0477 1508.5723,-223.922 1511.8193,-221.7298"/>
<polygon fill="#0000ff" stroke="#0000ff" points="1513.9747,-224.4929 1520.1401,-215.8767 1509.9472,-218.7675 1513.9747,-224.4929"/>
</g>
<!-- prepr -->
<g id="node25" class="node">
<title>prepr</title>
<ellipse fill="none" stroke="#000000" cx="1689" cy="-201.9533" rx="29.795" ry="18"/>
<text text-anchor="middle" x="1689" y="-198.2533" font-family="Times,serif" font-size="14.00" fill="#000000">prepr</text>
</g>
<!-- poms&#45;&gt;prepr -->
<g id="edge16" class="edge">
<title>poms&#45;&gt;prepr</title>
<path fill="none" stroke="#0000ff" d="M1438.6145,-271.8207C1487.78,-267.8859 1578.4764,-257.0249 1650,-227.9533 1654.1839,-226.2527 1658.3868,-224.0675 1662.4036,-221.6876"/>
<polygon fill="#0000ff" stroke="#0000ff" points="1664.2995,-224.6297 1670.8208,-216.2796 1660.5157,-218.7405 1664.2995,-224.6297"/>
</g>
<!-- miranda -->
<g id="node26" class="node">
<title>miranda</title>
<ellipse fill="none" stroke="#000000" cx="1777" cy="-201.9533" rx="40.0939" ry="18"/>
<text text-anchor="middle" x="1777" y="-198.2533" font-family="Times,serif" font-size="14.00" fill="#000000">miranda</text>
</g>
<!-- poms&#45;&gt;miranda -->
<g id="edge17" class="edge">
<title>poms&#45;&gt;miranda</title>
<path fill="none" stroke="#0000ff" d="M1439.016,-272.9076C1499.9531,-270.2529 1626.6538,-260.8895 1728,-227.9533 1733.3808,-226.2046 1738.8726,-223.8892 1744.141,-221.3593"/>
<polygon fill="#0000ff" stroke="#0000ff" points="1746.0143,-224.3319 1753.3107,-216.6499 1742.8162,-218.1051 1746.0143,-224.3319"/>
</g>
<!-- pluto -->
<g id="node27" class="node">
<title>pluto</title>
<ellipse fill="none" stroke="#000000" cx="1612" cy="-201.9533" rx="29.4969" ry="18"/>
<text text-anchor="middle" x="1612" y="-198.2533" font-family="Times,serif" font-size="14.00" fill="#000000">pluto</text>
</g>
<!-- poms&#45;&gt;pluto -->
<g id="edge18" class="edge">
<title>poms&#45;&gt;pluto</title>
<path fill="none" stroke="#0000ff" d="M1437.2641,-268.2636C1472.6479,-261.5884 1528.8994,-248.7148 1574,-227.9533 1577.8394,-226.1859 1581.7138,-224.0394 1585.4451,-221.7459"/>
<polygon fill="#0000ff" stroke="#0000ff" points="1587.3826,-224.6608 1593.8076,-216.2365 1583.5315,-218.8153 1587.3826,-224.6608"/>
</g>
<!-- nep -->
<g id="node28" class="node">
<title>nep</title>
<ellipse fill="none" stroke="#000000" cx="1466" cy="-201.9533" rx="27" ry="18"/>
<text text-anchor="middle" x="1466" y="-198.2533" font-family="Times,serif" font-size="14.00" fill="#000000">nep</text>
</g>
<!-- poms&#45;&gt;nep -->
<g id="edge19" class="edge">
<title>poms&#45;&gt;nep</title>
<path fill="none" stroke="#0000ff" d="M1417.6118,-257.2541C1425.954,-247.7202 1436.5397,-235.6222 1445.6816,-225.1743"/>
<polygon fill="#0000ff" stroke="#0000ff" points="1448.3789,-227.4068 1452.3299,-217.5762 1443.1108,-222.7973 1448.3789,-227.4068"/>
</g>
<!-- keycloak -->
<g id="node29" class="node">
<title>keycloak</title>
<g id="a_node29"><a xlink:href="https://ident.poms.omroep.nl/auth/" xlink:title="Keycloak">
<ellipse fill="none" stroke="#000000" cx="1881" cy="-201.9533" rx="45.4919" ry="18"/>
<text text-anchor="middle" x="1881" y="-198.2533" font-family="Times,serif" font-size="14.00" fill="#0000ff">Keycloak</text>
</a>
</g>
</g>
<!-- poms&#45;&gt;keycloak -->
<g id="edge20" class="edge">
<title>poms&#45;&gt;keycloak</title>
<path fill="none" stroke="#0000ff" d="M1438.3072,-270.4363C1536.5956,-260.6026 1807.404,-233.1993 1826,-227.9533 1832.3373,-226.1656 1838.8498,-223.7066 1845.0764,-221.0093"/>
<polygon fill="#0000ff" stroke="#0000ff" points="1846.9437,-224.0025 1854.5593,-216.6368 1844.0126,-217.6457 1846.9437,-224.0025"/>
</g>
<!-- poms_backend -->
<g id="node2" class="node">
<title>poms_backend</title>
<g id="a_node2"><a xlink:href="https://api.poms.omroep.nl/" xlink:title="POMS backend API">
<ellipse fill="none" stroke="#000000" cx="1264" cy="-273.9533" rx="85.2851" ry="18"/>
<text text-anchor="middle" x="1264" y="-270.2533" font-family="Times,serif" font-size="14.00" fill="#0000ff">POMS backend API</text>
</a>
</g>
</g>
<!-- poms_backend&#45;&gt;jms_ingest -->
<g id="edge21" class="edge">
<title>poms_backend&#45;&gt;jms_ingest</title>
<path fill="none" stroke="#ff7f00" d="M1236.5835,-256.7463C1192.2578,-228.9269 1103.8698,-173.4534 1044.8196,-136.3927"/>
<polygon fill="#ff7f00" stroke="#ff7f00" points="1046.6595,-133.4152 1036.3289,-131.0638 1042.9384,-139.3442 1046.6595,-133.4152"/>
</g>
<!-- poms_backend&#45;&gt;ldap -->
<g id="edge22" class="edge">
<title>poms_backend&#45;&gt;ldap</title>
<path fill="none" stroke="#ff7f00" d="M1213.4339,-259.2624C1199.4183,-255.383 1184.1628,-251.3381 1170,-247.9533 1126.3407,-237.519 1112.2514,-245.6546 1071,-227.9533 1017.6315,-205.0525 1018.443,-173.1673 964,-152.9533 930.5015,-140.5158 915.3512,-162.098 884,-144.9533 875.6179,-140.3695 868.5042,-132.9371 862.87,-125.3971"/>
<polygon fill="#ff7f00" stroke="#ff7f00" points="865.4561,-122.9745 856.9481,-116.6606 859.6618,-126.9021 865.4561,-122.9745"/>
</g>
<!-- poms_backend&#45;&gt;metis -->
<g id="edge23" class="edge">
<title>poms_backend&#45;&gt;metis</title>
<path fill="none" stroke="#ff7f00" d="M1279.486,-256.1147C1303.1588,-229.8986 1350.8994,-181.0421 1401,-152.9533 1411.5459,-147.0408 1415.9409,-149.8389 1427,-144.9533 1443.5424,-137.6453 1460.9728,-127.5724 1475.0581,-118.7637"/>
<polygon fill="#ff7f00" stroke="#ff7f00" points="1477.2365,-121.5257 1483.7882,-113.1994 1473.4742,-115.6228 1477.2365,-121.5257"/>
</g>
<!-- poms_backend&#45;&gt;nep -->
<g id="edge24" class="edge">
<title>poms_backend&#45;&gt;nep</title>
<path fill="none" stroke="#ff7f00" d="M1307.831,-258.3304C1345.3225,-244.9671 1398.4846,-226.0182 1432.6082,-213.8553"/>
<polygon fill="#ff7f00" stroke="#ff7f00" points="1433.8791,-217.1181 1442.1236,-210.4637 1431.5289,-210.5244 1433.8791,-217.1181"/>
</g>
<!-- api -->
<g id="node3" class="node">
<title>api</title>
<g id="a_node3"><a xlink:href="https://rs.poms.omroep.nl/" xlink:title="NPO Frontend API">
<ellipse fill="none" stroke="#000000" cx="764" cy="-273.9533" rx="81.4863" ry="18"/>
<text text-anchor="middle" x="764" y="-270.2533" font-family="Times,serif" font-size="14.00" fill="#0000ff">NPO Frontend API</text>
</a>
</g>
</g>
<!-- api&#45;&gt;gtaa -->
<g id="edge25" class="edge">
<title>api&#45;&gt;gtaa</title>
<path fill="none" stroke="#6495ed" d="M720.1006,-258.684C687.48,-247.3377 642.8773,-231.8237 608.5591,-219.8869"/>
<polygon fill="#6495ed" stroke="#6495ed" points="609.3131,-216.4436 598.7183,-216.464 607.0134,-223.055 609.3131,-216.4436"/>
</g>
<!-- elasticsearch -->
<g id="node13" class="node">
<title>elasticsearch</title>
<ellipse fill="none" stroke="#000000" cx="746" cy="-99.4767" rx="57.3905" ry="18"/>
<text text-anchor="middle" x="746" y="-95.7767" font-family="Times,serif" font-size="14.00" fill="#000000">elasticsearch</text>
</g>
<!-- api&#45;&gt;elasticsearch -->
<g id="edge26" class="edge">
<title>api&#45;&gt;elasticsearch</title>
<path fill="none" stroke="#6495ed" d="M792.0238,-256.969C801.8202,-249.4222 811.6903,-239.5923 817,-227.9533 830.8349,-197.6266 831.8767,-182.7827 817,-152.9533 812.8161,-144.564 796.6106,-132.0922 780.737,-121.3027"/>
<polygon fill="#6495ed" stroke="#6495ed" points="782.2971,-118.1372 772.031,-115.5183 778.4232,-123.9676 782.2971,-118.1372"/>
</g>
<!-- pages_publish -->
<g id="node4" class="node">
<title>pages_publish</title>
<g id="a_node4"><a xlink:href="https://publish.pages.omroep.nl/" xlink:title="Pages Publisher">
<ellipse fill="none" stroke="#000000" cx="932" cy="-273.9533" rx="68.7879" ry="18"/>
<text text-anchor="middle" x="932" y="-270.2533" font-family="Times,serif" font-size="14.00" fill="#0000ff">Pages Publisher</text>
</a>
</g>
</g>
<!-- pages_publish&#45;&gt;gtaa -->
<g id="edge27" class="edge">
<title>pages_publish&#45;&gt;gtaa</title>
<path fill="none" stroke="#8fbc8f" d="M892.7727,-259.0821C880.5077,-254.9207 866.8265,-250.7705 854,-247.9533 775.3816,-230.6858 753.4035,-241.1476 674,-227.9533 655.555,-224.8884 635.6432,-220.7716 617.5671,-216.7191"/>
<polygon fill="#8fbc8f" stroke="#8fbc8f" points="618.262,-213.2878 607.7346,-214.4814 616.7086,-220.1133 618.262,-213.2878"/>
</g>
<!-- pages_publish&#45;&gt;elasticsearch -->
<g id="edge28" class="edge">
<title>pages_publish&#45;&gt;elasticsearch</title>
<path fill="none" stroke="#8fbc8f" d="M916.5885,-256.2252C909.3247,-247.7561 900.6042,-237.4234 893,-227.9533 866.7865,-195.3077 870.0425,-177.3254 836,-152.9533 826.8578,-146.4081 822.0622,-149.9705 812,-144.9533 799.2981,-138.6199 786.2403,-130.1139 775.1268,-122.172"/>
<polygon fill="#8fbc8f" stroke="#8fbc8f" points="777.1812,-119.3384 767.0452,-116.2541 773.0455,-124.9861 777.1812,-119.3384"/>
</g>
<!-- pages_publish&#45;&gt;ldap -->
<g id="edge29" class="edge">
<title>pages_publish&#45;&gt;ldap</title>
<path fill="none" stroke="#8fbc8f" d="M929.2478,-255.8445C924.8163,-230.9911 914.3429,-185.6738 893,-152.9533 890.0761,-148.4708 887.6749,-148.844 884,-144.9533 877.9715,-138.5708 871.8736,-131.2608 866.4529,-124.3954"/>
<polygon fill="#8fbc8f" stroke="#8fbc8f" points="868.8854,-121.8186 860.0049,-116.0403 863.3437,-126.0954 868.8854,-121.8186"/>
</g>
<!-- media_publish -->
<g id="node5" class="node">
<title>media_publish</title>
<ellipse fill="none" stroke="#000000" cx="1090" cy="-273.9533" rx="70.6878" ry="18"/>
<text text-anchor="middle" x="1090" y="-270.2533" font-family="Times,serif" font-size="14.00" fill="#000000">Media Publisher</text>
</g>
<!-- media_publish&#45;&gt;elasticsearch -->
<g id="edge30" class="edge">
<title>media_publish&#45;&gt;elasticsearch</title>
<path fill="none" stroke="#bf3eff" d="M1067.2997,-256.8788C1029.9983,-229.8079 952.4294,-177.588 878,-152.9533 849.9485,-143.6689 839.6333,-155.417 812,-144.9533 798.3116,-139.77 784.7293,-131.1685 773.4769,-122.8327"/>
<polygon fill="#bf3eff" stroke="#bf3eff" points="775.4181,-119.9098 765.3631,-116.5712 771.1415,-125.4516 775.4181,-119.9098"/>
</g>
<!-- media_publish&#45;&gt;jms_publish -->
<g id="edge31" class="edge">
<title>media_publish&#45;&gt;jms_publish</title>
<path fill="none" stroke="#bf3eff" d="M1098.4666,-255.9384C1111.7639,-227.6449 1137.8034,-172.239 1155.0538,-135.5341"/>
<polygon fill="#bf3eff" stroke="#bf3eff" points="1158.3666,-136.7138 1159.4525,-126.1748 1152.0314,-133.7364 1158.3666,-136.7138"/>
</g>
<!-- images_frontend -->
<g id="node6" class="node">
<title>images_frontend</title>
<g id="a_node6"><a xlink:href="https://images.poms.omroep.nl" xlink:title="Images">
<ellipse fill="none" stroke="#000000" cx="628" cy="-273.9533" rx="37.0935" ry="18"/>
<text text-anchor="middle" x="628" y="-270.2533" font-family="Times,serif" font-size="14.00" fill="#0000ff">Images</text>
</a>
</g>
</g>
<!-- postgresql_image -->
<g id="node12" class="node">
<title>postgresql_image</title>
<ellipse fill="none" stroke="#000000" cx="596" cy="-99.4767" rx="74.9875" ry="18"/>
<text text-anchor="middle" x="596" y="-95.7767" font-family="Times,serif" font-size="14.00" fill="#000000">postgresql_image</text>
</g>
<!-- images_frontend&#45;&gt;postgresql_image -->
<g id="edge32" class="edge">
<title>images_frontend&#45;&gt;postgresql_image</title>
<path fill="none" stroke="#caff70" d="M650.8474,-259.59C658.0689,-255.4493 666.2028,-251.183 674,-247.9533 704.6835,-235.2438 725.9028,-254.3941 746,-227.9533 766.1709,-201.4157 768.1067,-177.9014 746,-152.9533 736.2019,-141.8958 694.0769,-149.438 680,-144.9533 662.7276,-139.4507 644.8902,-130.3555 630.1195,-121.7392"/>
<polygon fill="#caff70" stroke="#caff70" points="631.7261,-118.6213 621.3514,-116.4725 628.1216,-124.6221 631.7261,-118.6213"/>
</g>
<!-- images_backend -->
<g id="node7" class="node">
<title>images_backend</title>
<g id="a_node7"><a xlink:href="https://poms.omroep.nl/images/" xlink:title="Images Backend">
<ellipse fill="none" stroke="#000000" cx="502" cy="-273.9533" rx="70.6878" ry="18"/>
<text text-anchor="middle" x="502" y="-270.2533" font-family="Times,serif" font-size="14.00" fill="#0000ff">Images Backend</text>
</a>
</g>
</g>
<!-- thineye -->
<g id="node9" class="node">
<title>thineye</title>
<ellipse fill="none" stroke="#000000" cx="255" cy="-201.9533" rx="37.8943" ry="18"/>
<text text-anchor="middle" x="255" y="-198.2533" font-family="Times,serif" font-size="14.00" fill="#000000">thineye</text>
</g>
<!-- images_backend&#45;&gt;thineye -->
<g id="edge33" class="edge">
<title>images_backend&#45;&gt;thineye</title>
<path fill="none" stroke="#caff70" d="M441.1916,-264.5282C400.8685,-257.1796 347.2514,-245.2801 302,-227.9533 297.1178,-226.0839 292.1199,-223.7864 287.2911,-221.3379"/>
<polygon fill="#caff70" stroke="#caff70" points="288.7563,-218.1522 278.2885,-216.5161 285.4513,-224.3229 288.7563,-218.1522"/>
</g>
<!-- images_backend&#45;&gt;postgresql_image -->
<g id="edge34" class="edge">
<title>images_backend&#45;&gt;postgresql_image</title>
<path fill="none" stroke="#caff70" d="M545.4131,-259.705C585.2679,-246.5754 638.2699,-228.9686 639,-227.9533 658.4607,-200.8906 650.0727,-184.3938 639,-152.9533 635.4384,-142.8402 629.0664,-133.2284 622.3003,-125.0153"/>
<polygon fill="#caff70" stroke="#caff70" points="624.7337,-122.4832 615.4923,-117.3017 619.4854,-127.1152 624.7337,-122.4832"/>
</g>
<!-- images_backend&#45;&gt;jms_ingest -->
<g id="edge35" class="edge">
<title>images_backend&#45;&gt;jms_ingest</title>
<path fill="none" stroke="#caff70" d="M542.2301,-258.9601C554.8095,-254.7938 568.8421,-250.6714 582,-247.9533 675.5504,-228.6282 706.067,-260.1589 796,-227.9533 850.0212,-208.608 903.4277,-170.3333 939.7948,-140.5695"/>
<polygon fill="#caff70" stroke="#caff70" points="942.2839,-143.0522 947.7466,-133.9742 937.8151,-137.6642 942.2839,-143.0522"/>
</g>
<!-- images_backend&#45;&gt;ldap -->
<g id="edge36" class="edge">
<title>images_backend&#45;&gt;ldap</title>
<path fill="none" stroke="#caff70" d="M542.6896,-259.0523C555.1649,-254.9402 569.0243,-250.8249 582,-247.9533 653.6943,-232.0872 681.9217,-263.8109 746,-227.9533 787.9367,-204.4859 818.9043,-156.1372 835.1432,-125.903"/>
<polygon fill="#caff70" stroke="#caff70" points="838.3805,-127.264 839.8933,-116.7777 832.1714,-124.0318 838.3805,-127.264"/>
</g>
<!-- wikimedia -->
<g id="node30" class="node">
<title>wikimedia</title>
<ellipse fill="none" stroke="#000000" cx="150" cy="-201.9533" rx="49.2915" ry="18"/>
<text text-anchor="middle" x="150" y="-198.2533" font-family="Times,serif" font-size="14.00" fill="#000000">wikimedia</text>
</g>
<!-- images_backend&#45;&gt;wikimedia -->
<g id="edge37" class="edge">
<title>images_backend&#45;&gt;wikimedia</title>
<path fill="none" stroke="#caff70" d="M434.3214,-268.5206C373.995,-262.4694 283.7813,-250.4282 208,-227.9533 201.4606,-226.0139 194.6977,-223.4952 188.2005,-220.7901"/>
<polygon fill="#caff70" stroke="#caff70" points="189.4933,-217.5355 178.9284,-216.7391 186.6907,-223.95 189.4933,-217.5355"/>
</g>
<!-- pixabay -->
<g id="node31" class="node">
<title>pixabay</title>
<ellipse fill="none" stroke="#000000" cx="429" cy="-201.9533" rx="39.7935" ry="18"/>
<text text-anchor="middle" x="429" y="-198.2533" font-family="Times,serif" font-size="14.00" fill="#000000">pixabay</text>
</g>
<!-- images_backend&#45;&gt;pixabay -->
<g id="edge38" class="edge">
<title>images_backend&#45;&gt;pixabay</title>
<path fill="none" stroke="#caff70" d="M483.9551,-256.1556C474.669,-246.9967 463.2202,-235.7047 453.1803,-225.8024"/>
<polygon fill="#caff70" stroke="#caff70" points="455.4139,-223.0894 445.8365,-218.5592 450.4984,-228.0732 455.4139,-223.0894"/>
</g>
<!-- flickr -->
<g id="node32" class="node">
<title>flickr</title>
<ellipse fill="none" stroke="#000000" cx="341" cy="-201.9533" rx="29.795" ry="18"/>
<text text-anchor="middle" x="341" y="-198.2533" font-family="Times,serif" font-size="14.00" fill="#000000">flickr</text>
</g>
<!-- images_backend&#45;&gt;flickr -->
<g id="edge39" class="edge">
<title>images_backend&#45;&gt;flickr</title>
<path fill="none" stroke="#caff70" d="M457.4841,-259.9027C433.9004,-251.7848 404.7692,-240.669 380,-227.9533 376.2537,-226.0301 372.4283,-223.8219 368.7088,-221.5226"/>
<polygon fill="#caff70" stroke="#caff70" points="370.6058,-218.5813 360.3097,-216.0835 366.8009,-224.4569 370.6058,-218.5813"/>
</g>
<!-- sso -->
<g id="node34" class="node">
<title>sso</title>
<ellipse fill="none" stroke="#000000" cx="710" cy="-201.9533" rx="27" ry="18"/>
<text text-anchor="middle" x="710" y="-198.2533" font-family="Times,serif" font-size="14.00" fill="#000000">sso</text>
</g>
<!-- images_backend&#45;&gt;sso -->
<g id="edge40" class="edge">
<title>images_backend&#45;&gt;sso</title>
<path fill="none" stroke="#caff70" d="M544.5523,-259.3531C556.5935,-255.4322 569.7552,-251.3434 582,-247.9533 620.2368,-237.367 632.3884,-243.241 669,-227.9533 673.6181,-226.025 678.2995,-223.5925 682.7665,-220.9935"/>
<polygon fill="#caff70" stroke="#caff70" points="684.9026,-223.7867 691.5453,-215.5329 681.2053,-217.8427 684.9026,-223.7867"/>
</g>
<!-- functional_tests -->
<g id="node10" class="node">
<title>functional_tests</title>
<g id="a_node10"><a xlink:href="https://jenkins.vpro.nl/job/POMS%20Functional%20Tests/" xlink:title="functional_tests">
<ellipse fill="#f0ffff" stroke="#000000" cx="702" cy="-439.9533" rx="68.4888" ry="18"/>
<text text-anchor="middle" x="702" y="-436.2533" font-family="Times,serif" font-size="14.00" fill="#0000ff">functional_tests</text>
</a>
</g>
</g>
<!-- functional_tests&#45;&gt;poms_backend -->
<g id="edge48" class="edge">
<title>functional_tests&#45;&gt;poms_backend</title>
<path fill="none" stroke="#c0c0c0" d="M750.1909,-427.0777C759.677,-425.0008 769.6025,-423.1442 779,-421.9533 798.6258,-419.4662 1116.972,-422.0988 1135,-413.9533 1187.308,-390.3194 1228.0141,-334.3195 1248.786,-300.7452"/>
<polygon fill="#c0c0c0" stroke="#c0c0c0" points="1251.9434,-302.2869 1254.1092,-291.9158 1245.9486,-298.6726 1251.9434,-302.2869"/>
</g>
<!-- functional_tests&#45;&gt;api -->
<g id="edge49" class="edge">
<title>functional_tests&#45;&gt;api</title>
<path fill="none" stroke="#c0c0c0" d="M750.1941,-427.1028C759.68,-425.0237 769.6045,-423.1599 779,-421.9533 796.0876,-419.7589 1076.9762,-426.2915 1089,-413.9533 1114.7457,-387.5346 1114.6368,-357.4777 1089,-330.9533 1079.9215,-321.5605 866.6027,-326.391 854,-322.9533 833.8703,-317.4624 813.2952,-306.7183 796.9076,-296.6868"/>
<polygon fill="#c0c0c0" stroke="#c0c0c0" points="798.5871,-293.6078 788.2637,-291.2249 794.8478,-299.5255 798.5871,-293.6078"/>
</g>
<!-- functional_tests&#45;&gt;pages_publish -->
<g id="edge50" class="edge">
<title>functional_tests&#45;&gt;pages_publish</title>
<path fill="none" stroke="#c0c0c0" d="M750.1924,-427.0894C759.6784,-425.0115 769.6035,-423.1515 779,-421.9533 788.1783,-420.7829 1105.5364,-420.574 1112,-413.9533 1137.7692,-387.5576 1137.0438,-358.0383 1112,-330.9533 1096.5644,-314.2596 1031.585,-330.0965 1010,-322.9533 992.6495,-317.2115 975.2459,-306.8313 961.2942,-297.0981"/>
<polygon fill="#c0c0c0" stroke="#c0c0c0" points="963.2406,-294.1865 953.0847,-291.1687 959.142,-299.8612 963.2406,-294.1865"/>
</g>
<!-- users -->
<g id="node17" class="node">
<title>users</title>
<ellipse fill="none" stroke="#000000" cx="587" cy="-439.9533" rx="29.4969" ry="18"/>
<text text-anchor="middle" x="587" y="-436.2533" font-family="Times,serif" font-size="14.00" fill="#000000">users</text>
</g>
<!-- users&#45;&gt;api -->
<g id="edge4" class="edge">
<title>users&#45;&gt;api</title>
<path fill="none" stroke="#c0c0c0" d="M608.9308,-427.6524C614.0558,-425.3239 619.5991,-423.2221 625,-421.9533 636.3325,-419.2911 1035.8475,-422.263 1044,-413.9533 1069.8342,-387.6211 1069.5298,-357.5807 1044,-330.9533 1029.3766,-315.7013 874.3625,-328.5959 854,-322.9533 833.8926,-317.3814 813.3193,-306.6306 796.9272,-296.6155"/>
<polygon fill="#c0c0c0" stroke="#c0c0c0" points="798.6062,-293.5365 788.2802,-291.1648 794.8734,-299.4582 798.6062,-293.5365"/>
</g>
<!-- users&#45;&gt;images_frontend -->
<g id="edge5" class="edge">
<title>users&#45;&gt;images_frontend</title>
<path fill="none" stroke="#c0c0c0" d="M608.9318,-427.6569C614.0568,-425.3282 619.5998,-423.2251 625,-421.9533 635.7093,-419.4313 1013.2992,-421.8113 1021,-413.9533 1046.8196,-387.6068 1046.782,-357.3366 1021,-330.9533 1007.523,-317.162 691.6069,-330.8163 674,-322.9533 662.6285,-317.875 652.743,-308.5135 645.0811,-299.3233"/>
<polygon fill="#c0c0c0" stroke="#c0c0c0" points="647.8329,-297.1604 638.9389,-291.403 642.3014,-301.4501 647.8329,-297.1604"/>
</g>
<!-- magnolia_frontend -->
<g id="node20" class="node">
<title>magnolia_frontend</title>
<ellipse fill="none" stroke="#000000" cx="597" cy="-364.9533" rx="79.8859" ry="18"/>
<text text-anchor="middle" x="597" y="-361.2533" font-family="Times,serif" font-size="14.00" fill="#000000">magnolia_frontend</text>
</g>
<!-- users&#45;&gt;magnolia_frontend -->
<g id="edge6" class="edge">
<title>users&#45;&gt;magnolia_frontend</title>
<path fill="none" stroke="#c0c0c0" d="M589.4207,-421.7979C590.5669,-413.2019 591.962,-402.7385 593.2413,-393.1432"/>
<polygon fill="#c0c0c0" stroke="#c0c0c0" points="596.7145,-393.5764 594.5669,-383.2015 589.7759,-392.6512 596.7145,-393.5764"/>
</g>
<!-- backendsystems -->
<g id="node18" class="node">
<title>backendsystems</title>
<ellipse fill="none" stroke="#000000" cx="858" cy="-439.9533" rx="69.5877" ry="18"/>
<text text-anchor="middle" x="858" y="-436.2533" font-family="Times,serif" font-size="14.00" fill="#000000">backendsystems</text>
</g>
<!-- backendsystems&#45;&gt;poms_backend -->
<g id="edge7" class="edge">
<title>backendsystems&#45;&gt;poms_backend</title>
<path fill="none" stroke="#c0c0c0" d="M906.8277,-427.1081C916.4361,-425.0286 926.4873,-423.1632 936,-421.9533 952.8148,-419.8146 1228.2243,-425.093 1241,-413.9533 1272.1909,-386.7568 1272.348,-334.9588 1268.7711,-302.5639"/>
<polygon fill="#c0c0c0" stroke="#c0c0c0" points="1272.2084,-301.8535 1267.4543,-292.3852 1265.2663,-302.7517 1272.2084,-301.8535"/>
</g>
<!-- backendsystems&#45;&gt;pages_publish -->
<g id="edge8" class="edge">
<title>backendsystems&#45;&gt;pages_publish</title>
<path fill="none" stroke="#c0c0c0" d="M907.2543,-427.0838C916.7351,-425.0345 926.6305,-423.1865 936,-421.9533 948.6211,-420.2922 1156.1571,-423.1106 1165,-413.9533 1190.625,-387.4175 1190.4032,-357.7015 1165,-330.9533 1153.1243,-318.4488 1026.4428,-328.1522 1010,-322.9533 992.5744,-317.4437 975.1627,-307.0883 961.2251,-297.3116"/>
<polygon fill="#c0c0c0" stroke="#c0c0c0" points="963.1724,-294.4 953.0269,-291.3474 959.0544,-300.0606 963.1724,-294.4"/>
</g>
<!-- editors -->
<g id="node19" class="node">
<title>editors</title>
<ellipse fill="none" stroke="#000000" cx="981" cy="-439.9533" rx="35.9954" ry="18"/>
<text text-anchor="middle" x="981" y="-436.2533" font-family="Times,serif" font-size="14.00" fill="#000000">editors</text>
</g>
<!-- editors&#45;&gt;poms -->
<g id="edge1" class="edge">
<title>editors&#45;&gt;poms</title>
<path fill="none" stroke="#c0c0c0" d="M1016.8308,-438.1069C1088.9611,-434.1888 1246.7211,-424.5309 1269,-413.9533 1321.7843,-388.8923 1364.6216,-333.4015 1386.715,-300.3024"/>
<polygon fill="#c0c0c0" stroke="#c0c0c0" points="1389.8565,-301.8925 1392.3875,-291.6044 1383.9932,-298.0687 1389.8565,-301.8925"/>
</g>
<!-- magnolia_backend -->
<g id="node21" class="node">
<title>magnolia_backend</title>
<ellipse fill="none" stroke="#000000" cx="930" cy="-364.9533" rx="79.0865" ry="18"/>
<text text-anchor="middle" x="930" y="-361.2533" font-family="Times,serif" font-size="14.00" fill="#000000">magnolia_backend</text>
</g>
<!-- editors&#45;&gt;magnolia_backend -->
<g id="edge2" class="edge">
<title>editors&#45;&gt;magnolia_backend</title>
<path fill="none" stroke="#c0c0c0" d="M969.1714,-422.5583C962.8265,-413.2276 954.8783,-401.5391 947.8026,-391.1337"/>
<polygon fill="#c0c0c0" stroke="#c0c0c0" points="950.636,-389.076 942.1186,-382.7748 944.8475,-393.0122 950.636,-389.076"/>
</g>
<!-- editors&#45;&gt;keycloak -->
<g id="edge3" class="edge">
<title>editors&#45;&gt;keycloak</title>
<path fill="none" stroke="#c0c0c0" d="M1016.894,-438.561C1093.3896,-435.3836 1270.271,-426.8608 1329,-413.9533 1530.9449,-369.5696 1756.8097,-263.7979 1843.953,-220.7069"/>
<polygon fill="#c0c0c0" stroke="#c0c0c0" points="1845.5204,-223.8364 1852.9184,-216.2522 1842.4055,-217.5676 1845.5204,-223.8364"/>
</g>
<!-- magnolia_frontend&#45;&gt;api -->
<g id="edge43" class="edge">
<title>magnolia_frontend&#45;&gt;api</title>
<path fill="none" stroke="#c0c0c0" d="M627.6304,-348.2625C654.8523,-333.429 694.8098,-311.6557 724.4422,-295.5087"/>
<polygon fill="#c0c0c0" stroke="#c0c0c0" points="726.1752,-298.5504 733.2815,-290.6921 722.8258,-292.4037 726.1752,-298.5504"/>
</g>
<!-- magnolia_backend&#45;&gt;poms_backend -->
<g id="edge41" class="edge">
<title>magnolia_backend&#45;&gt;poms_backend</title>
<path fill="none" stroke="#c0c0c0" d="M1003.3853,-358.0297C1051.662,-352.0454 1115.7187,-341.3573 1170,-322.9533 1189.8528,-316.2223 1210.6486,-305.7802 1227.6178,-296.2622"/>
<polygon fill="#c0c0c0" stroke="#c0c0c0" points="1229.6877,-299.11 1236.6212,-291.0989 1226.2053,-293.0376 1229.6877,-299.11"/>
</g>
<!-- magnolia_backend&#45;&gt;pages_publish -->
<g id="edge42" class="edge">
<title>magnolia_backend&#45;&gt;pages_publish</title>
<path fill="none" stroke="#c0c0c0" d="M930.4047,-346.5381C930.6831,-333.8742 931.0581,-316.8091 931.3746,-302.4074"/>
<polygon fill="#c0c0c0" stroke="#c0c0c0" points="934.882,-302.1051 931.6027,-292.0306 927.8837,-301.9512 934.882,-302.1051"/>
</g>
<!-- amara_importer -->
<g id="node22" class="node">
<title>amara_importer</title>
<ellipse fill="none" stroke="#000000" cx="764" cy="-364.9533" rx="68.7879" ry="18"/>
<text text-anchor="middle" x="764" y="-361.2533" font-family="Times,serif" font-size="14.00" fill="#000000">amara_importer</text>
</g>
<!-- amara_importer&#45;&gt;poms_backend -->
<g id="edge51" class="edge">
<title>amara_importer&#45;&gt;poms_backend</title>
<path fill="none" stroke="#c0c0c0" d="M793.8255,-348.712C807.9881,-341.8567 825.413,-334.6229 842,-330.9533 913.1892,-315.204 1099.4005,-341.165 1170,-322.9533 1191.0933,-317.5121 1212.7768,-306.627 1229.9951,-296.4955"/>
<polygon fill="#c0c0c0" stroke="#c0c0c0" points="1231.8293,-299.4766 1238.5655,-291.2989 1228.1999,-293.491 1231.8293,-299.4766"/>
</g>
<!-- amara -->
<g id="node33" class="node">
<title>amara</title>
<ellipse fill="none" stroke="#000000" cx="49" cy="-201.9533" rx="33.2948" ry="18"/>
<text text-anchor="middle" x="49" y="-198.2533" font-family="Times,serif" font-size="14.00" fill="#000000">amara</text>
</g>
<!-- amara_importer&#45;&gt;amara -->
<g id="edge52" class="edge">
<title>amara_importer&#45;&gt;amara</title>
<path fill="none" stroke="#c0c0c0" d="M733.7949,-348.5753C719.6976,-341.7819 702.4326,-334.6368 686,-330.9533 628.0774,-317.9697 477.6359,-332.1962 419,-322.9533 269.5036,-299.3879 230.6003,-288.7354 92,-227.9533 87.5409,-225.9978 82.9823,-223.6592 78.5795,-221.1974"/>
<polygon fill="#c0c0c0" stroke="#c0c0c0" points="80.2361,-218.1112 69.8428,-216.0546 76.6851,-224.1437 80.2361,-218.1112"/>
</g>
<!-- pd&#45;&gt;metis -->
<g id="edge46" class="edge">
<title>pd&#45;&gt;metis</title>
<path fill="none" stroke="#c0c0c0" d="M1532.0777,-184.1032C1526.8686,-168.403 1519.2017,-145.2949 1513.1952,-127.1911"/>
<polygon fill="#c0c0c0" stroke="#c0c0c0" points="1516.4396,-125.8551 1509.9686,-117.466 1509.7957,-128.0594 1516.4396,-125.8551"/>
</g>
<!-- prepr&#45;&gt;metis -->
<g id="edge45" class="edge">
<title>prepr&#45;&gt;metis</title>
<path fill="none" stroke="#c0c0c0" d="M1678.9211,-184.9813C1671.9482,-174.5015 1661.8166,-161.4757 1650,-152.9533 1617.7407,-129.6873 1574.2503,-115.488 1543.1437,-107.626"/>
<polygon fill="#c0c0c0" stroke="#c0c0c0" points="1543.6458,-104.1466 1533.1033,-105.1987 1542.0009,-110.9506 1543.6458,-104.1466"/>
</g>
<!-- keycloak&#45;&gt;ldap -->
<g id="edge47" class="edge">
<title>keycloak&#45;&gt;ldap</title>
<path fill="none" stroke="#c0c0c0" d="M1867.2111,-184.3667C1857.1616,-173.047 1842.4656,-159.3044 1826,-152.9533 1801.5856,-143.5363 907.5072,-156.4493 884,-144.9533 875.0983,-140.6 867.7208,-132.8738 862.0109,-125.011"/>
<polygon fill="#c0c0c0" stroke="#c0c0c0" points="864.8896,-123.0183 856.4765,-116.5785 859.0375,-126.8592 864.8896,-123.0183"/>
</g>
<!-- sso&#45;&gt;ldap -->
<g id="edge44" class="edge">
<title>sso&#45;&gt;ldap</title>
<path fill="none" stroke="#c0c0c0" d="M719.5508,-185.0152C726.7172,-173.985 737.5831,-160.3219 751,-152.9533 774.9667,-139.7908 788.2141,-158.4398 812,-144.9533 820.3106,-140.2412 827.4059,-132.7757 833.0452,-125.2447"/>
<polygon fill="#c0c0c0" stroke="#c0c0c0" points="836.2416,-126.7694 838.9819,-116.535 830.4575,-122.8267 836.2416,-126.7694"/>
</g>
</g>
</svg>
