<?xml version="1.0" encoding="UTF-8" standalone="no"?>
<!DOCTYPE svg PUBLIC "-//W3C//DTD SVG 1.1//EN"
 "http://www.w3.org/Graphics/SVG/1.1/DTD/svg11.dtd">
<!-- Generated by graphviz version 2.40.1 (20161225.0304)
 -->
<!-- Title: poms_universe Pages: 1 -->
<svg width="1203pt" height="519pt"
 viewBox="0.00 0.00 1202.67 519.00" xmlns="http://www.w3.org/2000/svg" xmlns:xlink="http://www.w3.org/1999/xlink">
<g id="graph0" class="graph" transform="scale(1 1) rotate(0) translate(4 515)">
<title>poms_universe</title>
<polygon fill="#ffffff" stroke="transparent" points="-4,4 -4,-515 1198.6667,-515 1198.6667,4 -4,4"/>
<text text-anchor="middle" x="597.3334" y="-7.8" font-family="Times,serif" font-size="14.00" fill="#000000">Deployments relevant for POMS</text>
<g id="clust1" class="cluster">
<title>cluster_0</title>
<polygon fill="#f0ffff" stroke="#000000" points="417,-31 417,-181 1025,-181 1025,-31 417,-31"/>
<text text-anchor="middle" x="721" y="-38.8" font-family="Times,serif" font-size="14.00" fill="#000000">Generic backend services</text>
</g>
<g id="clust2" class="cluster">
<title>cluster_1</title>
<polygon fill="none" stroke="#000000" points="467,-356 467,-503 750,-503 750,-356 467,-356"/>
<text text-anchor="middle" x="608.5" y="-487.8" font-family="Times,serif" font-size="14.00" fill="#000000">World</text>
</g>
<g id="clust3" class="cluster">
<title>cluster_3</title>
<polygon fill="#f0ffff" stroke="#000000" points="386,-201 386,-348 1092,-348 1092,-201 386,-201"/>
<text text-anchor="middle" x="739" y="-332.8" font-family="Times,serif" font-size="14.00" fill="#000000">POMS &#160;Services</text>
</g>
<g id="clust4" class="cluster">
<title>cluster_4</title>
<polygon fill="none" stroke="#000000" points="8,-106 8,-253 378,-253 378,-106 8,-106"/>
<text text-anchor="middle" x="193" y="-113.8" font-family="Times,serif" font-size="14.00" fill="#000000">NPO Services</text>
</g>
<!-- poms -->
<g id="node1" class="node">
<title>poms</title>
<g id="a_node1"><a xlink:href="https://poms.omroep.nl/" xlink:title="POMS">
<ellipse fill="none" stroke="#000000" cx="423" cy="-299" rx="29.4969" ry="18"/>
<text text-anchor="middle" x="423" y="-295.3" font-family="Times,serif" font-size="14.00" fill="#0000ff">POMS</text>
</a>
</g>
</g>
<!-- postgresql -->
<g id="node8" class="node">
<title>postgresql</title>
<ellipse fill="none" stroke="#000000" cx="906" cy="-155" rx="38.9931" ry="18"/>
<text text-anchor="middle" x="906" y="-151.3" font-family="Times,serif" font-size="14.00" fill="#000000">postgresql</text>
</g>
<!-- poms&#45;&gt;postgresql -->
<g id="edge9" class="edge">
<title>poms&#45;&gt;postgresql</title>
<path fill="none" stroke="#cd950c" d="M445.6463,-287.125C450.8991,-284.7745 456.5503,-282.5559 462,-281 558.8994,-253.3346 589.6458,-279.0198 687,-253 706.9165,-247.6769 839.4142,-189.9201 858,-181 862.686,-178.751 867.5672,-176.2723 872.3449,-173.7656"/>
<polygon fill="#cd950c" stroke="#cd950c" points="874.1581,-176.7651 881.3265,-168.9635 870.8575,-170.592 874.1581,-176.7651"/>
</g>
<!-- sso -->
<g id="node10" class="node">
<title>sso</title>
<g id="a_node10"><a xlink:href="https://sso.omroep.nl" xlink:title="SSO">
<ellipse fill="none" stroke="#000000" cx="990" cy="-155" rx="27" ry="18"/>
<text text-anchor="middle" x="990" y="-151.3" font-family="Times,serif" font-size="14.00" fill="#0000ff">SSO</text>
</a>
</g>
</g>
<!-- poms&#45;&gt;sso -->
<g id="edge10" class="edge">
<title>poms&#45;&gt;sso</title>
<path fill="none" stroke="#cd950c" d="M445.1975,-287.1846C450.568,-284.7707 456.3828,-282.5098 462,-281 591.75,-246.1247 632.08,-283.1881 763,-253 851.4004,-232.6162 874.0827,-223.9342 954,-181 957.4913,-179.1244 961.032,-176.9536 964.4616,-174.6819"/>
<polygon fill="#cd950c" stroke="#cd950c" points="966.4819,-177.5401 972.6663,-168.9376 962.4671,-171.8058 966.4819,-177.5401"/>
</g>
<!-- jms -->
<g id="node11" class="node">
<title>jms</title>
<ellipse fill="none" stroke="#000000" cx="714" cy="-155" rx="27" ry="18"/>
<text text-anchor="middle" x="714" y="-151.3" font-family="Times,serif" font-size="14.00" fill="#000000">jms</text>
</g>
<!-- poms&#45;&gt;jms -->
<g id="edge11" class="edge">
<title>poms&#45;&gt;jms</title>
<path fill="none" stroke="#cd950c" d="M445.6684,-287.2009C450.92,-284.8464 456.5652,-282.6071 462,-281 545.9616,-256.1722 584.4078,-301.9526 657,-253 663.7514,-248.4472 685.5934,-208.8281 700.1944,-181.3816"/>
<polygon fill="#cd950c" stroke="#cd950c" points="703.4382,-182.7346 705.0204,-172.2586 697.2506,-179.4614 703.4382,-182.7346"/>
</g>
<!-- ldap -->
<g id="node12" class="node">
<title>ldap</title>
<ellipse fill="none" stroke="#000000" cx="990" cy="-80" rx="27" ry="18"/>
<text text-anchor="middle" x="990" y="-76.3" font-family="Times,serif" font-size="14.00" fill="#000000">ldap</text>
</g>
<!-- poms&#45;&gt;ldap -->
<g id="edge12" class="edge">
<title>poms&#45;&gt;ldap</title>
<path fill="none" stroke="#cd950c" d="M420.9009,-280.8858C415.8152,-235.2788 404.0985,-118.4528 416,-106 434.5636,-86.5766 828.5136,-81.4307 952.789,-80.2882"/>
<polygon fill="#cd950c" stroke="#cd950c" points="952.9835,-83.7867 962.9521,-80.1982 952.9215,-76.787 952.9835,-83.7867"/>
</g>
<!-- metis -->
<g id="node20" class="node">
<title>metis</title>
<ellipse fill="none" stroke="#000000" cx="306" cy="-155" rx="27" ry="18"/>
<text text-anchor="middle" x="306" y="-151.3" font-family="Times,serif" font-size="14.00" fill="#000000">metis</text>
</g>
<!-- poms&#45;&gt;metis -->
<g id="edge13" class="edge">
<title>poms&#45;&gt;metis</title>
<path fill="none" stroke="#cd950c" d="M418.3707,-280.982C412.2248,-259.8816 399.6703,-224.7942 379,-201 367.7177,-188.0127 351.8669,-177.4203 337.817,-169.6878"/>
<polygon fill="#cd950c" stroke="#cd950c" points="339.3929,-166.5622 328.9104,-165.023 336.1451,-172.7632 339.3929,-166.5622"/>
</g>
<!-- pd -->
<g id="node21" class="node">
<title>pd</title>
<ellipse fill="none" stroke="#000000" cx="271" cy="-227" rx="27" ry="18"/>
<text text-anchor="middle" x="271" y="-223.3" font-family="Times,serif" font-size="14.00" fill="#000000">pd</text>
</g>
<!-- poms&#45;&gt;pd -->
<g id="edge14" class="edge">
<title>poms&#45;&gt;pd</title>
<path fill="none" stroke="#cd950c" d="M396.8291,-290.7079C372.7586,-282.6015 336.445,-269.1435 307,-253 303.5248,-251.0947 299.9937,-248.9062 296.5692,-246.625"/>
<polygon fill="#cd950c" stroke="#cd950c" points="298.5656,-243.7502 288.3691,-240.8724 294.5454,-249.4807 298.5656,-243.7502"/>
</g>
<!-- prepr -->
<g id="node22" class="node">
<title>prepr</title>
<ellipse fill="none" stroke="#000000" cx="199" cy="-227" rx="27" ry="18"/>
<text text-anchor="middle" x="199" y="-223.3" font-family="Times,serif" font-size="14.00" fill="#000000">prepr</text>
</g>
<!-- poms&#45;&gt;prepr -->
<g id="edge15" class="edge">
<title>poms&#45;&gt;prepr</title>
<path fill="none" stroke="#cd950c" d="M394.1544,-295.4582C356.244,-290.0291 288.2304,-277.5884 235,-253 231.3255,-251.3027 227.6441,-249.208 224.1132,-246.9504"/>
<polygon fill="#cd950c" stroke="#cd950c" points="225.9465,-243.9625 215.7355,-241.1363 221.9554,-249.7133 225.9465,-243.9625"/>
</g>
<!-- miranda -->
<g id="node23" class="node">
<title>miranda</title>
<ellipse fill="none" stroke="#000000" cx="121" cy="-227" rx="33.2948" ry="18"/>
<text text-anchor="middle" x="121" y="-223.3" font-family="Times,serif" font-size="14.00" fill="#000000">miranda</text>
</g>
<!-- poms&#45;&gt;miranda -->
<g id="edge16" class="edge">
<title>poms&#45;&gt;miranda</title>
<path fill="none" stroke="#cd950c" d="M393.5758,-297.4121C344.3572,-293.9705 242.8684,-283.4929 163,-253 158.6461,-251.3377 154.2481,-249.2096 150.0209,-246.8882"/>
<polygon fill="#cd950c" stroke="#cd950c" points="151.5082,-243.7008 141.123,-241.6037 147.9337,-249.7194 151.5082,-243.7008"/>
</g>
<!-- pluto -->
<g id="node24" class="node">
<title>pluto</title>
<ellipse fill="none" stroke="#000000" cx="43" cy="-227" rx="27" ry="18"/>
<text text-anchor="middle" x="43" y="-223.3" font-family="Times,serif" font-size="14.00" fill="#000000">pluto</text>
</g>
<!-- poms&#45;&gt;pluto -->
<g id="edge17" class="edge">
<title>poms&#45;&gt;pluto</title>
<path fill="none" stroke="#cd950c" d="M393.7848,-296.9331C321.5427,-291.53 136.2326,-275.807 79,-253 75.24,-251.5017 71.5082,-249.5244 67.951,-247.3276"/>
<polygon fill="#cd950c" stroke="#cd950c" points="69.7776,-244.3363 59.5523,-241.5627 65.8162,-250.1075 69.7776,-244.3363"/>
</g>
<!-- nep -->
<g id="node25" class="node">
<title>nep</title>
<ellipse fill="none" stroke="#000000" cx="343" cy="-227" rx="27" ry="18"/>
<text text-anchor="middle" x="343" y="-223.3" font-family="Times,serif" font-size="14.00" fill="#000000">nep</text>
</g>
<!-- poms&#45;&gt;nep -->
<g id="edge18" class="edge">
<title>poms&#45;&gt;nep</title>
<path fill="none" stroke="#cd950c" d="M406.4239,-284.0816C394.978,-273.7802 379.5811,-259.923 366.8241,-248.4417"/>
<polygon fill="#cd950c" stroke="#cd950c" points="369.0555,-245.7411 359.2811,-241.653 364.3727,-250.9442 369.0555,-245.7411"/>
</g>
<!-- poms_backend -->
<g id="node2" class="node">
<title>poms_backend</title>
<g id="a_node2"><a xlink:href="https://api.poms.omroep.nl/" xlink:title="POMS backend API">
<ellipse fill="none" stroke="#000000" cx="537" cy="-299" rx="66.0889" ry="18"/>
<text text-anchor="middle" x="537" y="-295.3" font-family="Times,serif" font-size="14.00" fill="#0000ff">POMS backend API</text>
</a>
</g>
</g>
<!-- poms_backend&#45;&gt;jms -->
<g id="edge19" class="edge">
<title>poms_backend&#45;&gt;jms</title>
<path fill="none" stroke="#ff7f00" d="M586.1982,-286.8092C628.072,-276.0137 682.5996,-260.7946 690,-253 707.643,-234.417 712.9593,-205.0719 714.2756,-183.332"/>
<polygon fill="#ff7f00" stroke="#ff7f00" points="717.7834,-183.1709 714.6404,-173.053 710.7878,-182.9226 717.7834,-183.1709"/>
</g>
<!-- poms_backend&#45;&gt;ldap -->
<g id="edge20" class="edge">
<title>poms_backend&#45;&gt;ldap</title>
<path fill="none" stroke="#ff7f00" d="M585.2352,-286.5238C594.0981,-284.4883 603.2981,-282.544 612,-281 798.3805,-247.9301 920.9676,-338.4786 1026,-181 1044.4957,-153.2688 1041.1751,-135.6787 1026,-106 1024.4206,-102.9111 1022.2841,-100.1047 1019.8351,-97.577"/>
<polygon fill="#ff7f00" stroke="#ff7f00" points="1021.7044,-94.5764 1011.7956,-90.8261 1017.203,-99.9371 1021.7044,-94.5764"/>
</g>
<!-- poms_backend&#45;&gt;metis -->
<g id="edge21" class="edge">
<title>poms_backend&#45;&gt;metis</title>
<path fill="none" stroke="#ff7f00" d="M516.8246,-281.5688C492.0717,-260.7213 448.294,-225.566 407,-201 385.2275,-188.0474 359.1768,-176.2654 338.986,-167.8683"/>
<polygon fill="#ff7f00" stroke="#ff7f00" points="340.1702,-164.5713 329.5893,-164.0278 337.5218,-171.051 340.1702,-164.5713"/>
</g>
<!-- poms_backend&#45;&gt;nep -->
<g id="edge22" class="edge">
<title>poms_backend&#45;&gt;nep</title>
<path fill="none" stroke="#ff7f00" d="M489.0885,-286.4663C451.0014,-276.191 401.0628,-261.9336 382,-253 377.8253,-251.0435 373.5882,-248.6796 369.5208,-246.1844"/>
<polygon fill="#ff7f00" stroke="#ff7f00" points="371.2673,-243.145 360.9779,-240.6194 367.4466,-249.0103 371.2673,-243.145"/>
</g>
<!-- api -->
<g id="node3" class="node">
<title>api</title>
<g id="a_node3"><a xlink:href="https://rs.poms.omroep.nl/" xlink:title="NPO Frontend API">
<ellipse fill="none" stroke="#000000" cx="811" cy="-299" rx="63.8893" ry="18"/>
<text text-anchor="middle" x="811" y="-295.3" font-family="Times,serif" font-size="14.00" fill="#0000ff">NPO Frontend API</text>
</a>
</g>
</g>
<!-- elasticsearch -->
<g id="node9" class="node">
<title>elasticsearch</title>
<ellipse fill="none" stroke="#000000" cx="804" cy="-155" rx="45.4919" ry="18"/>
<text text-anchor="middle" x="804" y="-151.3" font-family="Times,serif" font-size="14.00" fill="#000000">elasticsearch</text>
</g>
<!-- api&#45;&gt;elasticsearch -->
<g id="edge23" class="edge">
<title>api&#45;&gt;elasticsearch</title>
<path fill="none" stroke="#6495ed" d="M810.1134,-280.7623C808.9195,-256.201 806.7829,-212.2474 805.3783,-183.3541"/>
<polygon fill="#6495ed" stroke="#6495ed" points="808.8609,-182.9079 804.8794,-173.0896 801.8691,-183.2478 808.8609,-182.9079"/>
</g>
<!-- pages_publish -->
<g id="node4" class="node">
<title>pages_publish</title>
<g id="a_node4"><a xlink:href="https://publish.pages.omroep.nl/" xlink:title="Pages Publisher">
<ellipse fill="none" stroke="#000000" cx="675" cy="-299" rx="53.8905" ry="18"/>
<text text-anchor="middle" x="675" y="-295.3" font-family="Times,serif" font-size="14.00" fill="#0000ff">Pages Publisher</text>
</a>
</g>
</g>
<!-- media_publish -->
<g id="node5" class="node">
<title>media_publish</title>
<ellipse fill="none" stroke="#000000" cx="592" cy="-227" rx="55.7903" ry="18"/>
<text text-anchor="middle" x="592" y="-223.3" font-family="Times,serif" font-size="14.00" fill="#000000">Media Publisher</text>
</g>
<!-- pages_publish&#45;&gt;media_publish -->
<g id="edge28" class="edge">
<title>pages_publish&#45;&gt;media_publish</title>
<path fill="none" stroke="#c0c0c0" d="M655.3302,-281.937C642.0993,-270.4596 624.7299,-255.3922 611.5287,-243.9405"/>
</g>
<!-- pages_publish&#45;&gt;elasticsearch -->
<g id="edge24" class="edge">
<title>pages_publish&#45;&gt;elasticsearch</title>
<path fill="none" stroke="#8fbc8f" d="M695.9847,-282.4136C706.0858,-274.0317 718.1184,-263.4425 728,-253 749.754,-230.0112 771.5842,-201.1104 786.2301,-180.6671"/>
<polygon fill="#8fbc8f" stroke="#8fbc8f" points="789.1166,-182.6472 792.0459,-172.4654 783.4065,-178.5982 789.1166,-182.6472"/>
</g>
<!-- pages_publish&#45;&gt;ldap -->
<g id="edge25" class="edge">
<title>pages_publish&#45;&gt;ldap</title>
<path fill="none" stroke="#8fbc8f" d="M714.3849,-286.5174C722.1502,-284.4061 730.2837,-282.4364 738,-281 806.2187,-268.301 998.7649,-300.8696 1049,-253 1096.4072,-207.8252 1096.2568,-159.8528 1059,-106 1054.7282,-99.8253 1039.8835,-93.8503 1025.0524,-89.1883"/>
<polygon fill="#8fbc8f" stroke="#8fbc8f" points="1026.0022,-85.8194 1015.4194,-86.3255 1024.008,-92.5293 1026.0022,-85.8194"/>
</g>
<!-- media_publish&#45;&gt;elasticsearch -->
<g id="edge26" class="edge">
<title>media_publish&#45;&gt;elasticsearch</title>
<path fill="none" stroke="#bf3eff" d="M636.5759,-216.1313C668.5875,-207.8189 712.5188,-195.366 750,-181 755.6018,-178.8529 761.4194,-176.3541 767.0715,-173.771"/>
<polygon fill="#bf3eff" stroke="#bf3eff" points="768.8077,-176.8219 776.3599,-169.3913 765.8223,-170.4905 768.8077,-176.8219"/>
</g>
<!-- media_publish&#45;&gt;jms -->
<g id="edge27" class="edge">
<title>media_publish&#45;&gt;jms</title>
<path fill="none" stroke="#bf3eff" d="M622.8115,-211.794C639.4587,-203.263 660.1924,-192.1229 678,-181 681.1959,-179.0038 684.4836,-176.8221 687.7117,-174.5986"/>
<polygon fill="#bf3eff" stroke="#bf3eff" points="689.8793,-177.3522 696.0131,-168.7135 685.8309,-171.6417 689.8793,-177.3522"/>
</g>
<!-- images_frontend -->
<g id="node6" class="node">
<title>images_frontend</title>
<g id="a_node6"><a xlink:href="https://images.poms.omroep.nl" xlink:title="Images">
<ellipse fill="none" stroke="#000000" cx="1053" cy="-299" rx="30.5947" ry="18"/>
<text text-anchor="middle" x="1053" y="-295.3" font-family="Times,serif" font-size="14.00" fill="#0000ff">Images</text>
</a>
</g>
</g>
<!-- images_frontend&#45;&gt;postgresql -->
<g id="edge29" class="edge">
<title>images_frontend&#45;&gt;postgresql</title>
<path fill="none" stroke="#caff70" d="M1036.9886,-283.3154C1011.1954,-258.0485 960.2901,-208.1821 930.0964,-178.6046"/>
<polygon fill="#caff70" stroke="#caff70" points="932.487,-176.0469 922.8941,-171.5494 927.5885,-181.0475 932.487,-176.0469"/>
</g>
<!-- images_backend -->
<g id="node7" class="node">
<title>images_backend</title>
<g id="a_node7"><a xlink:href="https://poms.omroep.nl/images/" xlink:title="Images Backend">
<ellipse fill="none" stroke="#000000" cx="949" cy="-299" rx="55.7903" ry="18"/>
<text text-anchor="middle" x="949" y="-295.3" font-family="Times,serif" font-size="14.00" fill="#0000ff">Images Backend</text>
</a>
</g>
</g>
<!-- images_backend&#45;&gt;postgresql -->
<g id="edge30" class="edge">
<title>images_backend&#45;&gt;postgresql</title>
<path fill="none" stroke="#caff70" d="M943.641,-281.0535C936.3023,-256.4774 923.0509,-212.1008 914.3902,-183.0974"/>
<polygon fill="#caff70" stroke="#caff70" points="917.6416,-181.7532 911.4266,-173.1727 910.9342,-183.7561 917.6416,-181.7532"/>
</g>
<!-- images_backend&#45;&gt;sso -->
<g id="edge31" class="edge">
<title>images_backend&#45;&gt;sso</title>
<path fill="none" stroke="#caff70" d="M954.1098,-281.0535C961.1454,-256.3431 973.8804,-211.6152 982.135,-182.6234"/>
<polygon fill="#caff70" stroke="#caff70" points="985.5824,-183.2966 984.9546,-172.7204 978.8499,-181.3797 985.5824,-183.2966"/>
</g>
<!-- images_backend&#45;&gt;jms -->
<g id="edge32" class="edge">
<title>images_backend&#45;&gt;jms</title>
<path fill="none" stroke="#caff70" d="M920.829,-283.3608C881.8241,-261.4683 809.453,-219.9821 750,-181 746.8489,-178.9339 743.5888,-176.709 740.3762,-174.4613"/>
<polygon fill="#caff70" stroke="#caff70" points="742.2644,-171.5089 732.0907,-168.5514 738.1995,-177.2078 742.2644,-171.5089"/>
</g>
<!-- images_backend&#45;&gt;ldap -->
<g id="edge33" class="edge">
<title>images_backend&#45;&gt;ldap</title>
<path fill="none" stroke="#caff70" d="M990.5166,-286.7404C997.9722,-284.7056 1005.694,-282.7057 1013,-281 1046.0211,-273.2908 1141.3339,-279.0846 1163,-253 1204.7444,-202.7422 1205.6267,-155.5117 1163,-106 1154.2538,-95.8412 1075.2934,-87.3286 1027.1223,-83.0232"/>
<polygon fill="#caff70" stroke="#caff70" points="1027.3224,-79.5274 1017.0559,-82.1444 1026.7136,-86.5009 1027.3224,-79.5274"/>
</g>
<!-- sso&#45;&gt;ldap -->
<g id="edge37" class="edge">
<title>sso&#45;&gt;ldap</title>
<path fill="none" stroke="#c0c0c0" d="M990,-136.8446C990,-128.3401 990,-118.0076 990,-108.4964"/>
<polygon fill="#c0c0c0" stroke="#c0c0c0" points="993.5001,-108.2481 990,-98.2482 986.5001,-108.2482 993.5001,-108.2481"/>
</g>
<!-- keycloak -->
<g id="node13" class="node">
<title>keycloak</title>
<ellipse fill="none" stroke="#000000" cx="583" cy="-155" rx="85.5853" ry="18"/>
<text text-anchor="middle" x="583" y="-151.3" font-family="Times,serif" font-size="14.00" fill="#000000">Keycloak (will replace sso)</text>
</g>
<!-- gosa -->
<g id="node14" class="node">
<title>gosa</title>
<g id="a_node14"><a xlink:href="https://admin.sso.omroep.nl/" xlink:title="GOSa">
<ellipse fill="none" stroke="#000000" cx="452" cy="-155" rx="27.0966" ry="18"/>
<text text-anchor="middle" x="452" y="-151.3" font-family="Times,serif" font-size="14.00" fill="#0000ff">GOSa</text>
</a>
</g>
</g>
<!-- gosa&#45;&gt;ldap -->
<g id="edge40" class="edge">
<title>gosa&#45;&gt;ldap</title>
<path fill="none" stroke="#c0c0c0" d="M459.9848,-137.2847C465.9929,-126.2161 475.3632,-112.8128 488,-106 508.3715,-95.0172 839.7526,-84.3812 952.6628,-81.0602"/>
<polygon fill="#c0c0c0" stroke="#c0c0c0" points="952.9961,-84.5521 962.8898,-80.7619 952.792,-77.5551 952.9961,-84.5521"/>
</g>
<!-- magnolia_frontend -->
<g id="node15" class="node">
<title>magnolia_frontend</title>
<ellipse fill="none" stroke="#000000" cx="680" cy="-382" rx="62.2891" ry="18"/>
<text text-anchor="middle" x="680" y="-378.3" font-family="Times,serif" font-size="14.00" fill="#000000">magnolia_frontend</text>
</g>
<!-- magnolia_frontend&#45;&gt;api -->
<g id="edge36" class="edge">
<title>magnolia_frontend&#45;&gt;api</title>
<path fill="none" stroke="#c0c0c0" d="M708.2328,-365.9124C717.7624,-360.3601 728.4116,-354.0206 738,-348 751.444,-339.5584 766.0126,-329.8887 778.5733,-321.3819"/>
<polygon fill="#c0c0c0" stroke="#c0c0c0" points="780.6123,-324.2279 786.9098,-315.7078 776.6736,-318.4411 780.6123,-324.2279"/>
</g>
<!-- magnolia_backend -->
<g id="node16" class="node">
<title>magnolia_backend</title>
<ellipse fill="none" stroke="#000000" cx="537" cy="-382" rx="62.2891" ry="18"/>
<text text-anchor="middle" x="537" y="-378.3" font-family="Times,serif" font-size="14.00" fill="#000000">magnolia_backend</text>
</g>
<!-- magnolia_backend&#45;&gt;poms_backend -->
<g id="edge34" class="edge">
<title>magnolia_backend&#45;&gt;poms_backend</title>
<path fill="none" stroke="#c0c0c0" d="M537,-363.9902C537,-353.2963 537,-339.4994 537,-327.3706"/>
<polygon fill="#c0c0c0" stroke="#c0c0c0" points="540.5001,-327.2612 537,-317.2612 533.5001,-327.2613 540.5001,-327.2612"/>
</g>
<!-- magnolia_backend&#45;&gt;pages_publish -->
<g id="edge35" class="edge">
<title>magnolia_backend&#45;&gt;pages_publish</title>
<path fill="none" stroke="#c0c0c0" d="M573.7373,-367.4102C586.2055,-361.9234 600.0072,-355.2433 612,-348 624.3816,-340.5219 637.1411,-330.9948 647.9115,-322.3332"/>
<polygon fill="#c0c0c0" stroke="#c0c0c0" points="650.2093,-324.9752 655.7207,-315.9267 645.7695,-319.5633 650.2093,-324.9752"/>
</g>
<!-- users -->
<g id="node17" class="node">
<title>users</title>
<ellipse fill="none" stroke="#000000" cx="715" cy="-454" rx="27" ry="18"/>
<text text-anchor="middle" x="715" y="-450.3" font-family="Times,serif" font-size="14.00" fill="#000000">users</text>
</g>
<!-- users&#45;&gt;api -->
<g id="edge4" class="edge">
<title>users&#45;&gt;api</title>
<path fill="none" stroke="#c0c0c0" d="M741.6897,-450.9646C771.449,-445.9952 818.2502,-433.0884 840,-400 854.9058,-377.3235 842.6983,-346.8995 829.8536,-325.3876"/>
<polygon fill="#c0c0c0" stroke="#c0c0c0" points="832.6965,-323.3351 824.3869,-316.7624 826.7841,-327.0825 832.6965,-323.3351"/>
</g>
<!-- users&#45;&gt;images_frontend -->
<g id="edge5" class="edge">
<title>users&#45;&gt;images_frontend</title>
<path fill="none" stroke="#c0c0c0" d="M741.2496,-449.7445C796.2249,-439.8135 925.6717,-411.0077 1014,-348 1022.8956,-341.6545 1030.8173,-332.7394 1037.1589,-324.2502"/>
<polygon fill="#c0c0c0" stroke="#c0c0c0" points="1040.0615,-326.2072 1042.9513,-316.014 1034.3357,-322.1803 1040.0615,-326.2072"/>
</g>
<!-- users&#45;&gt;magnolia_frontend -->
<g id="edge6" class="edge">
<title>users&#45;&gt;magnolia_frontend</title>
<path fill="none" stroke="#c0c0c0" d="M706.5275,-436.5708C702.5334,-428.3544 697.6754,-418.3608 693.2135,-409.1821"/>
<polygon fill="#c0c0c0" stroke="#c0c0c0" points="696.2798,-407.4841 688.76,-400.0206 689.9842,-410.5445 696.2798,-407.4841"/>
</g>
<!-- backendsystems -->
<g id="node18" class="node">
<title>backendsystems</title>
<ellipse fill="none" stroke="#000000" cx="615" cy="-454" rx="55.4913" ry="18"/>
<text text-anchor="middle" x="615" y="-450.3" font-family="Times,serif" font-size="14.00" fill="#000000">backendsystems</text>
</g>
<!-- backendsystems&#45;&gt;poms_backend -->
<g id="edge7" class="edge">
<title>backendsystems&#45;&gt;poms_backend</title>
<path fill="none" stroke="#c0c0c0" d="M656.8103,-441.9768C705.5828,-427.7552 780.1058,-405.3325 784,-400 795.5331,-384.2074 797.5028,-370.1454 784,-356 770.7898,-342.1611 630.2046,-353.8836 612,-348 595.1249,-342.5461 578.4034,-332.2297 565.0464,-322.4644"/>
<polygon fill="#c0c0c0" stroke="#c0c0c0" points="566.8655,-319.4507 556.7871,-316.1833 562.6283,-325.0225 566.8655,-319.4507"/>
</g>
<!-- backendsystems&#45;&gt;pages_publish -->
<g id="edge8" class="edge">
<title>backendsystems&#45;&gt;pages_publish</title>
<path fill="none" stroke="#c0c0c0" d="M656.6108,-442.1177C664.0564,-440.0427 671.7505,-437.9316 679,-436 742.3292,-419.1263 781.7092,-451.691 822,-400 834.022,-384.5763 835.156,-370.4685 822,-356 809.3851,-342.1266 755.4274,-354.9203 738,-348 723.8029,-342.3624 710.1502,-332.4935 699.2059,-323.083"/>
<polygon fill="#c0c0c0" stroke="#c0c0c0" points="701.5235,-320.4601 691.7463,-316.3788 696.8444,-325.6664 701.5235,-320.4601"/>
</g>
<!-- editors -->
<g id="node19" class="node">
<title>editors</title>
<ellipse fill="none" stroke="#000000" cx="513" cy="-454" rx="29.4969" ry="18"/>
<text text-anchor="middle" x="513" y="-450.3" font-family="Times,serif" font-size="14.00" fill="#000000">editors</text>
</g>
<!-- editors&#45;&gt;poms -->
<g id="edge1" class="edge">
<title>editors&#45;&gt;poms</title>
<path fill="none" stroke="#c0c0c0" d="M535.5102,-442.1431C540.5106,-439.8489 545.8559,-437.6491 551,-436 637.0059,-408.4278 693.0683,-469.2904 751,-400 763.5434,-384.9972 764.6352,-370.0179 751,-356 739.8009,-344.4866 476.3699,-355.1753 462,-348 451.8274,-342.9205 443.4577,-333.814 437.1155,-324.8182"/>
<polygon fill="#c0c0c0" stroke="#c0c0c0" points="440.024,-322.8702 431.6634,-316.3624 434.1408,-326.6635 440.024,-322.8702"/>
</g>
<!-- editors&#45;&gt;sso -->
<g id="edge2" class="edge">
<title>editors&#45;&gt;sso</title>
<path fill="none" stroke="#c0c0c0" d="M535.488,-442.0728C540.4898,-439.7829 545.8413,-437.6027 551,-436 668.1558,-399.6015 1016.4662,-441.4061 1096,-348 1138.3559,-298.2564 1131.8414,-255.6245 1096,-201 1080.6889,-177.6649 1050.7131,-166.1072 1026.5338,-160.4177"/>
<polygon fill="#c0c0c0" stroke="#c0c0c0" points="1027.0926,-156.9587 1016.5858,-158.3214 1025.6492,-163.8083 1027.0926,-156.9587"/>
</g>
<!-- editors&#45;&gt;magnolia_backend -->
<g id="edge3" class="edge">
<title>editors&#45;&gt;magnolia_backend</title>
<path fill="none" stroke="#c0c0c0" d="M518.9326,-436.2022C521.5951,-428.2146 524.7985,-418.6045 527.7638,-409.7087"/>
<polygon fill="#c0c0c0" stroke="#c0c0c0" points="531.127,-410.6868 530.969,-400.0931 524.4862,-408.4731 531.127,-410.6868"/>
</g>
<!-- pd&#45;&gt;metis -->
<g id="edge39" class="edge">
<title>pd&#45;&gt;metis</title>
<path fill="none" stroke="#c0c0c0" d="M279.4725,-209.5708C283.5997,-201.0807 288.6493,-190.6929 293.2311,-181.2674"/>
<polygon fill="#c0c0c0" stroke="#c0c0c0" points="296.3813,-182.7926 297.6055,-172.2687 290.0857,-179.7322 296.3813,-182.7926"/>
</g>
<!-- prepr&#45;&gt;metis -->
<g id="edge38" class="edge">
<title>prepr&#45;&gt;metis</title>
<path fill="none" stroke="#c0c0c0" d="M217.187,-213.5924C222.8512,-209.4906 229.1468,-205.006 235,-201 248.8855,-191.4966 264.562,-181.2868 277.6458,-172.9059"/>
<polygon fill="#c0c0c0" stroke="#c0c0c0" points="279.6867,-175.7556 286.2356,-167.4272 275.9224,-169.8538 279.6867,-175.7556"/>
</g>
</g>
</svg>
