<?xml version="1.0" encoding="UTF-8" standalone="no"?>
<!DOCTYPE svg PUBLIC "-//W3C//DTD SVG 1.1//EN"
 "http://www.w3.org/Graphics/SVG/1.1/DTD/svg11.dtd">
<!-- Generated by graphviz version 2.40.1 (20161225.0304)
 -->
<!-- Title: poms_universe Pages: 1 -->
<svg width="2077pt" height="497pt"
 viewBox="0.00 0.00 2077.00 496.95" xmlns="http://www.w3.org/2000/svg" xmlns:xlink="http://www.w3.org/1999/xlink">
<g id="graph0" class="graph" transform="scale(1 1) rotate(0) translate(4 492.9533)">
<title>poms_universe</title>
<polygon fill="#ffffff" stroke="transparent" points="-4,4 -4,-492.9533 2073,-492.9533 2073,4 -4,4"/>
<text text-anchor="middle" x="1034.5" y="-7.8" font-family="Times,serif" font-size="14.00" fill="#000000">Deployments relevant for POMS</text>
<g id="clust1" class="cluster">
<title>cluster_0</title>
<polygon fill="#f0ffff" stroke="#000000" points="642,-106 642,-219.9533 1481,-219.9533 1481,-106 642,-106"/>
<text text-anchor="middle" x="1061.5" y="-113.8" font-family="Times,serif" font-size="14.00" fill="#000000">Generic backend services</text>
</g>
<g id="clust2" class="cluster">
<title>cluster_3</title>
<polygon fill="none" stroke="#000000" points="578,-322.9533 578,-480.9533 1102,-480.9533 1102,-322.9533 578,-322.9533"/>
<text text-anchor="middle" x="840" y="-465.7533" font-family="Times,serif" font-size="14.00" fill="#000000">World</text>
</g>
<g id="clust3" class="cluster">
<title>cluster_2</title>
<polygon fill="none" stroke="#000000" points="586,-330.9533 586,-405.9533 1094,-405.9533 1094,-330.9533 586,-330.9533"/>
<text text-anchor="middle" x="840" y="-390.7533" font-family="Times,serif" font-size="14.00" fill="#000000">VPRO</text>
</g>
<g id="clust4" class="cluster">
<title>cluster_4</title>
<polygon fill="#f0ffff" stroke="#000000" points="561,-239.9533 561,-314.9533 1585,-314.9533 1585,-239.9533 561,-239.9533"/>
<text text-anchor="middle" x="1073" y="-299.7533" font-family="Times,serif" font-size="14.00" fill="#000000">POMS &#160;Services</text>
</g>
<g id="clust5" class="cluster">
<title>cluster_5</title>
<polygon fill="none" stroke="#000000" points="1559,-31 1559,-200.4767 2061,-200.4767 2061,-31 1559,-31"/>
<text text-anchor="middle" x="1810" y="-38.8" font-family="Times,serif" font-size="14.00" fill="#000000">NPO Services</text>
</g>
<g id="clust6" class="cluster">
<title>cluster_6</title>
<polygon fill="none" stroke="#000000" points="8,-125.4767 8,-200.4767 634,-200.4767 634,-125.4767 8,-125.4767"/>
<text text-anchor="middle" x="321" y="-133.2767" font-family="Times,serif" font-size="14.00" fill="#000000">Auxiliary API&#39;s</text>
</g>
<!-- poms -->
<g id="node1" class="node">
<title>poms</title>
<g id="a_node1"><a xlink:href="https://poms.omroep.nl/" xlink:title="POMS">
<ellipse fill="none" stroke="#000000" cx="1541" cy="-265.9533" rx="35.9954" ry="18"/>
<text text-anchor="middle" x="1541" y="-262.2533" font-family="Times,serif" font-size="14.00" fill="#0000ff">POMS</text>
</a>
</g>
</g>
<!-- gtaa -->
<g id="node8" class="node">
<title>gtaa</title>
<g id="a_node8"><a xlink:href="http://gtaa.beeldengeluid.nl/" xlink:title="B&amp;G Thesaurus">
<ellipse fill="none" stroke="#000000" cx="556" cy="-174.4767" rx="70.3881" ry="18"/>
<text text-anchor="middle" x="556" y="-170.7767" font-family="Times,serif" font-size="14.00" fill="#0000ff">B&amp;G Thesaurus</text>
</a>
</g>
</g>
<!-- poms&#45;&gt;gtaa -->
<g id="edge9" class="edge">
<title>poms&#45;&gt;gtaa</title>
<path fill="none" stroke="#0000ff" d="M1520.4635,-251.1971C1513.1033,-246.7128 1504.5134,-242.3426 1496,-239.9533 1312.3761,-188.419 822.0692,-269.8738 638,-219.9533 620.4352,-215.1897 602.5733,-205.9137 588.0236,-196.975"/>
<polygon fill="#0000ff" stroke="#0000ff" points="589.7391,-193.9179 579.4247,-191.4963 585.9777,-199.8215 589.7391,-193.9179"/>
</g>
<!-- postgresql_media -->
<g id="node11" class="node">
<title>postgresql_media</title>
<ellipse fill="none" stroke="#000000" cx="1398" cy="-174.4767" rx="74.9875" ry="18"/>
<text text-anchor="middle" x="1398" y="-170.7767" font-family="Times,serif" font-size="14.00" fill="#000000">postgresql_media</text>
</g>
<!-- poms&#45;&gt;postgresql_media -->
<g id="edge10" class="edge">
<title>poms&#45;&gt;postgresql_media</title>
<path fill="none" stroke="#0000ff" d="M1518.6563,-251.6601C1495.7902,-237.0327 1459.9238,-214.0891 1433.2308,-197.0137"/>
<polygon fill="#0000ff" stroke="#0000ff" points="1434.872,-193.9087 1424.5621,-191.4683 1431.0999,-199.8055 1434.872,-193.9087"/>
</g>
<!-- jms_ingest -->
<g id="node14" class="node">
<title>jms_ingest</title>
<ellipse fill="none" stroke="#000000" cx="1044" cy="-174.4767" rx="93.1765" ry="37.4533"/>
<text text-anchor="start" x="986" y="-185.7767" font-family="Times,serif" font-size="14.00" fill="#000000">JMS ActiveMQ</text>
<text text-anchor="start" x="986" y="-170.7767" font-family="Times,serif" font-size="14.00" fill="#000000">(broadcast ingests,</text>
<text text-anchor="middle" x="1044" y="-155.7767" font-family="Times,serif" font-size="14.00" fill="#000000">internal SOAP calls)</text>
</g>
<!-- poms&#45;&gt;jms_ingest -->
<g id="edge11" class="edge">
<title>poms&#45;&gt;jms_ingest</title>
<path fill="none" stroke="#0000ff" d="M1519.9636,-251.0873C1512.7018,-246.7109 1504.2989,-242.4343 1496,-239.9533 1346.719,-195.3246 1297.4085,-256.723 1146,-219.9533 1134.1066,-217.065 1121.8767,-212.836 1110.1995,-208.1031"/>
<polygon fill="#0000ff" stroke="#0000ff" points="1111.5445,-204.8719 1100.97,-204.2154 1108.8271,-211.3229 1111.5445,-204.8719"/>
</g>
<!-- jms_publish -->
<g id="node15" class="node">
<title>jms_publish</title>
<ellipse fill="none" stroke="#000000" cx="1230" cy="-174.4767" rx="74.9067" ry="26.7407"/>
<text text-anchor="start" x="1185" y="-178.2767" font-family="Times,serif" font-size="14.00" fill="#000000">JMS ActiveMQ</text>
<text text-anchor="middle" x="1230" y="-163.2767" font-family="Times,serif" font-size="14.00" fill="#000000">(publication)</text>
</g>
<!-- poms&#45;&gt;jms_publish -->
<g id="edge12" class="edge">
<title>poms&#45;&gt;jms_publish</title>
<path fill="none" stroke="#0000ff" d="M1519.8841,-251.341C1512.617,-246.9814 1504.2311,-242.6508 1496,-239.9533 1418.6708,-214.6114 1391.6729,-244.2214 1314,-219.9533 1300.8819,-215.8547 1287.4539,-209.6438 1275.2915,-203.1177"/>
<polygon fill="#0000ff" stroke="#0000ff" points="1276.704,-199.8983 1266.2636,-198.0955 1273.301,-206.0155 1276.704,-199.8983"/>
</g>
<!-- metis -->
<g id="node22" class="node">
<title>metis</title>
<ellipse fill="none" stroke="#000000" cx="1736" cy="-80" rx="30.5947" ry="18"/>
<text text-anchor="middle" x="1736" y="-76.3" font-family="Times,serif" font-size="14.00" fill="#000000">metis</text>
</g>
<!-- poms&#45;&gt;metis -->
<g id="edge13" class="edge">
<title>poms&#45;&gt;metis</title>
<path fill="none" stroke="#0000ff" d="M1536.6345,-247.9494C1529.8088,-214.9303 1520.9326,-144.548 1558,-106 1567.3974,-96.2273 1645.9456,-87.7496 1695.5089,-83.3067"/>
<polygon fill="#0000ff" stroke="#0000ff" points="1695.9539,-86.7812 1705.6099,-82.4208 1695.3423,-79.8079 1695.9539,-86.7812"/>
</g>
<!-- pd -->
<g id="node23" class="node">
<title>pd</title>
<ellipse fill="none" stroke="#000000" cx="1950" cy="-174.4767" rx="27" ry="18"/>
<text text-anchor="middle" x="1950" y="-170.7767" font-family="Times,serif" font-size="14.00" fill="#000000">pd</text>
</g>
<!-- poms&#45;&gt;pd -->
<g id="edge14" class="edge">
<title>poms&#45;&gt;pd</title>
<path fill="none" stroke="#0000ff" d="M1576.7257,-264.965C1658.5101,-262.1636 1856.6911,-252.1562 1914,-219.9533 1922.3287,-215.2733 1929.4287,-207.816 1935.0666,-200.2828"/>
<polygon fill="#0000ff" stroke="#0000ff" points="1938.266,-201.8025 1940.9996,-191.5664 1932.4793,-197.8637 1938.266,-201.8025"/>
</g>
<!-- prepr -->
<g id="node24" class="node">
<title>prepr</title>
<ellipse fill="none" stroke="#000000" cx="1875" cy="-174.4767" rx="29.795" ry="18"/>
<text text-anchor="middle" x="1875" y="-170.7767" font-family="Times,serif" font-size="14.00" fill="#000000">prepr</text>
</g>
<!-- poms&#45;&gt;prepr -->
<g id="edge15" class="edge">
<title>poms&#45;&gt;prepr</title>
<path fill="none" stroke="#0000ff" d="M1576.535,-263.4921C1644.9341,-258.2587 1792.0209,-244.4554 1836,-219.9533 1844.8077,-215.0463 1852.5371,-207.3348 1858.742,-199.6463"/>
<polygon fill="#0000ff" stroke="#0000ff" points="1861.6843,-201.5555 1864.8555,-191.4464 1856.0723,-197.3715 1861.6843,-201.5555"/>
</g>
<!-- miranda -->
<g id="node25" class="node">
<title>miranda</title>
<ellipse fill="none" stroke="#000000" cx="1787" cy="-174.4767" rx="40.0939" ry="18"/>
<text text-anchor="middle" x="1787" y="-170.7767" font-family="Times,serif" font-size="14.00" fill="#000000">miranda</text>
</g>
<!-- poms&#45;&gt;miranda -->
<g id="edge16" class="edge">
<title>poms&#45;&gt;miranda</title>
<path fill="none" stroke="#0000ff" d="M1576.3636,-263.2045C1617.3435,-258.8104 1685.9044,-247.6574 1738,-219.9533 1747.9911,-214.6401 1757.4794,-206.7775 1765.3987,-199.0781"/>
<polygon fill="#0000ff" stroke="#0000ff" points="1768.2799,-201.1368 1772.7555,-191.5336 1763.2682,-196.2497 1768.2799,-201.1368"/>
</g>
<!-- pluto -->
<g id="node26" class="node">
<title>pluto</title>
<ellipse fill="none" stroke="#000000" cx="2024" cy="-174.4767" rx="29.4969" ry="18"/>
<text text-anchor="middle" x="2024" y="-170.7767" font-family="Times,serif" font-size="14.00" fill="#000000">pluto</text>
</g>
<!-- poms&#45;&gt;pluto -->
<g id="edge17" class="edge">
<title>poms&#45;&gt;pluto</title>
<path fill="none" stroke="#0000ff" d="M1576.512,-263.8204C1675.5876,-257.6556 1950.1288,-239.0343 1986,-219.9533 1994.8054,-215.2694 2002.3909,-207.6121 2008.4178,-199.9048"/>
<polygon fill="#0000ff" stroke="#0000ff" points="2011.3466,-201.8264 2014.3298,-191.6602 2005.658,-197.7472 2011.3466,-201.8264"/>
</g>
<!-- nep -->
<g id="node27" class="node">
<title>nep</title>
<ellipse fill="none" stroke="#000000" cx="1702" cy="-174.4767" rx="27" ry="18"/>
<text text-anchor="middle" x="1702" y="-170.7767" font-family="Times,serif" font-size="14.00" fill="#000000">nep</text>
</g>
<!-- poms&#45;&gt;nep -->
<g id="edge18" class="edge">
<title>poms&#45;&gt;nep</title>
<path fill="none" stroke="#0000ff" d="M1574.1722,-259.0199C1600.836,-252.2679 1638.2839,-240.0304 1666,-219.9533 1673.5025,-214.5186 1680.262,-207.1168 1685.8435,-199.8636"/>
<polygon fill="#0000ff" stroke="#0000ff" points="1688.83,-201.7056 1691.8287,-191.544 1683.1476,-197.6177 1688.83,-201.7056"/>
</g>
<!-- keycloak -->
<g id="node28" class="node">
<title>keycloak</title>
<g id="a_node28"><a xlink:href="https://ident.poms.omroep.nl/auth/" xlink:title="Keycloak">
<ellipse fill="none" stroke="#000000" cx="1612" cy="-174.4767" rx="45.4919" ry="18"/>
<text text-anchor="middle" x="1612" y="-170.7767" font-family="Times,serif" font-size="14.00" fill="#0000ff">Keycloak</text>
</a>
</g>
</g>
<!-- poms&#45;&gt;keycloak -->
<g id="edge19" class="edge">
<title>poms&#45;&gt;keycloak</title>
<path fill="none" stroke="#0000ff" d="M1554.0225,-249.1751C1564.6964,-235.4228 1579.9759,-215.7367 1592.1696,-200.0262"/>
<polygon fill="#0000ff" stroke="#0000ff" points="1595.2111,-201.8158 1598.5776,-191.7701 1589.6813,-197.5238 1595.2111,-201.8158"/>
</g>
<!-- poms_backend -->
<g id="node2" class="node">
<title>poms_backend</title>
<g id="a_node2"><a xlink:href="https://api.poms.omroep.nl/" xlink:title="POMS backend API">
<ellipse fill="none" stroke="#000000" cx="1402" cy="-265.9533" rx="85.2851" ry="18"/>
<text text-anchor="middle" x="1402" y="-262.2533" font-family="Times,serif" font-size="14.00" fill="#0000ff">POMS backend API</text>
</a>
</g>
</g>
<!-- poms_backend&#45;&gt;jms_ingest -->
<g id="edge20" class="edge">
<title>poms_backend&#45;&gt;jms_ingest</title>
<path fill="none" stroke="#ff7f00" d="M1353.5385,-251.0843C1339.0014,-247.0223 1322.9462,-242.9262 1308,-239.9533 1236.8472,-225.8007 1215.8967,-239.3818 1146,-219.9533 1134.5436,-216.7689 1122.7225,-212.5003 1111.3688,-207.8497"/>
<polygon fill="#ff7f00" stroke="#ff7f00" points="1112.5334,-204.5421 1101.96,-203.8688 1109.8057,-210.9888 1112.5334,-204.5421"/>
</g>
<!-- poms_backend&#45;&gt;metis -->
<g id="edge21" class="edge">
<title>poms_backend&#45;&gt;metis</title>
<path fill="none" stroke="#ff7f00" d="M1443.7193,-250.149C1458.4189,-242.8472 1474.0029,-232.8766 1485,-219.9533 1519.882,-178.9618 1483.9555,-139.6053 1526,-106 1538.9335,-95.6625 1637.7943,-86.9907 1695.1456,-82.7652"/>
<polygon fill="#ff7f00" stroke="#ff7f00" points="1695.6195,-86.2402 1705.3413,-82.0286 1695.115,-79.2584 1695.6195,-86.2402"/>
</g>
<!-- poms_backend&#45;&gt;nep -->
<g id="edge22" class="edge">
<title>poms_backend&#45;&gt;nep</title>
<path fill="none" stroke="#ff7f00" d="M1450.4508,-251.0303C1464.9877,-246.9667 1481.0454,-242.8834 1496,-239.9533 1570.6571,-225.3258 1599.573,-257.0357 1666,-219.9533 1674.3418,-215.2966 1681.4451,-207.8453 1687.0822,-200.3105"/>
<polygon fill="#ff7f00" stroke="#ff7f00" points="1690.2837,-201.8266 1693.0124,-191.5892 1684.4951,-197.8905 1690.2837,-201.8266"/>
</g>
<!-- poms_backend&#45;&gt;keycloak -->
<g id="edge23" class="edge">
<title>poms_backend&#45;&gt;keycloak</title>
<path fill="none" stroke="#ff7f00" d="M1442.4823,-250.0638C1464.1139,-241.4251 1491.1323,-230.3979 1515,-219.9533 1534.4086,-211.46 1555.7495,-201.5215 1573.4606,-193.1053"/>
<polygon fill="#ff7f00" stroke="#ff7f00" points="1575.3735,-196.0706 1582.8913,-188.6051 1572.3588,-189.753 1575.3735,-196.0706"/>
</g>
<!-- api -->
<g id="node3" class="node">
<title>api</title>
<g id="a_node3"><a xlink:href="https://rs.poms.omroep.nl/" xlink:title="NPO Frontend API">
<ellipse fill="none" stroke="#000000" cx="810" cy="-265.9533" rx="81.4863" ry="18"/>
<text text-anchor="middle" x="810" y="-262.2533" font-family="Times,serif" font-size="14.00" fill="#0000ff">NPO Frontend API</text>
</a>
</g>
</g>
<!-- api&#45;&gt;gtaa -->
<g id="edge24" class="edge">
<title>api&#45;&gt;gtaa</title>
<path fill="none" stroke="#6495ed" d="M761.0587,-251.4103C747.7687,-247.5717 733.3589,-243.5104 720,-239.9533 683.7502,-230.3011 672.9361,-233.6163 638,-219.9533 621.9569,-213.6791 605.1659,-204.8215 590.9865,-196.5882"/>
<polygon fill="#6495ed" stroke="#6495ed" points="592.4656,-193.396 582.0798,-191.3014 588.8925,-199.4155 592.4656,-193.396"/>
</g>
<!-- elasticsearch -->
<g id="node13" class="node">
<title>elasticsearch</title>
<ellipse fill="none" stroke="#000000" cx="875" cy="-174.4767" rx="57.3905" ry="18"/>
<text text-anchor="middle" x="875" y="-170.7767" font-family="Times,serif" font-size="14.00" fill="#000000">elasticsearch</text>
</g>
<!-- api&#45;&gt;elasticsearch -->
<g id="edge25" class="edge">
<title>api&#45;&gt;elasticsearch</title>
<path fill="none" stroke="#6495ed" d="M822.8419,-247.8805C832.4296,-234.3874 845.6734,-215.749 856.4163,-200.6302"/>
<polygon fill="#6495ed" stroke="#6495ed" points="859.4667,-202.3797 862.4059,-192.2007 853.7605,-198.3251 859.4667,-202.3797"/>
</g>
<!-- pages_publish -->
<g id="node4" class="node">
<title>pages_publish</title>
<g id="a_node4"><a xlink:href="https://publish.pages.omroep.nl/" xlink:title="Pages Publisher">
<ellipse fill="none" stroke="#000000" cx="1070" cy="-265.9533" rx="68.7879" ry="18"/>
<text text-anchor="middle" x="1070" y="-262.2533" font-family="Times,serif" font-size="14.00" fill="#0000ff">Pages Publisher</text>
</a>
</g>
</g>
<!-- pages_publish&#45;&gt;gtaa -->
<g id="edge26" class="edge">
<title>pages_publish&#45;&gt;gtaa</title>
<path fill="none" stroke="#8fbc8f" d="M1031.6585,-250.9254C1019.1956,-246.6509 1005.1785,-242.4754 992,-239.9533 837.2247,-210.3324 789.3861,-263.7146 638,-219.9533 620.6461,-214.9368 602.9294,-205.7244 588.4252,-196.8962"/>
<polygon fill="#8fbc8f" stroke="#8fbc8f" points="590.1683,-193.8578 579.8414,-191.4901 586.4378,-199.7809 590.1683,-193.8578"/>
</g>
<!-- pages_publish&#45;&gt;elasticsearch -->
<g id="edge27" class="edge">
<title>pages_publish&#45;&gt;elasticsearch</title>
<path fill="none" stroke="#8fbc8f" d="M1026.9601,-251.779C996.0274,-241.3487 957.2058,-227.6901 942,-219.9533 929.3195,-213.5015 916.194,-205.0436 904.957,-197.1741"/>
<polygon fill="#8fbc8f" stroke="#8fbc8f" points="906.9394,-194.2888 896.7708,-191.3139 902.8647,-199.9807 906.9394,-194.2888"/>
</g>
<!-- pages_publish&#45;&gt;keycloak -->
<g id="edge28" class="edge">
<title>pages_publish&#45;&gt;keycloak</title>
<path fill="none" stroke="#8fbc8f" d="M1108.3458,-250.9479C1120.809,-246.6745 1134.825,-242.4941 1148,-239.9533 1295.3266,-211.5409 1337.9964,-249.9925 1485,-219.9533 1515.1822,-213.7858 1547.8777,-201.9498 1572.5351,-191.8988"/>
<polygon fill="#8fbc8f" stroke="#8fbc8f" points="1574.0117,-195.0755 1581.9048,-188.008 1571.3271,-188.6107 1574.0117,-195.0755"/>
</g>
<!-- media_publish -->
<g id="node5" class="node">
<title>media_publish</title>
<ellipse fill="none" stroke="#000000" cx="1228" cy="-265.9533" rx="70.6878" ry="18"/>
<text text-anchor="middle" x="1228" y="-262.2533" font-family="Times,serif" font-size="14.00" fill="#000000">Media Publisher</text>
</g>
<!-- media_publish&#45;&gt;elasticsearch -->
<g id="edge29" class="edge">
<title>media_publish&#45;&gt;elasticsearch</title>
<path fill="none" stroke="#bf3eff" d="M1187.7639,-250.9892C1175.1842,-246.8241 1161.1529,-242.6951 1148,-239.9533 1057.9496,-221.1822 1028.5173,-251.1972 942,-219.9533 927.9862,-214.8925 914.0922,-206.2275 902.6208,-197.81"/>
<polygon fill="#bf3eff" stroke="#bf3eff" points="904.4268,-194.7847 894.3589,-191.4851 900.1717,-200.343 904.4268,-194.7847"/>
</g>
<!-- media_publish&#45;&gt;jms_publish -->
<g id="edge30" class="edge">
<title>media_publish&#45;&gt;jms_publish</title>
<path fill="none" stroke="#bf3eff" d="M1228.3951,-247.8805C1228.621,-237.5481 1228.9129,-224.1986 1229.1857,-211.7228"/>
<polygon fill="#bf3eff" stroke="#bf3eff" points="1232.6889,-211.6082 1229.4084,-201.534 1225.6906,-211.4551 1232.6889,-211.6082"/>
</g>
<!-- images_frontend -->
<g id="node6" class="node">
<title>images_frontend</title>
<g id="a_node6"><a xlink:href="https://images.poms.omroep.nl" xlink:title="Images">
<ellipse fill="none" stroke="#000000" cx="946" cy="-265.9533" rx="37.0935" ry="18"/>
<text text-anchor="middle" x="946" y="-262.2533" font-family="Times,serif" font-size="14.00" fill="#0000ff">Images</text>
</a>
</g>
</g>
<!-- postgresql_image -->
<g id="node12" class="node">
<title>postgresql_image</title>
<ellipse fill="none" stroke="#000000" cx="725" cy="-174.4767" rx="74.9875" ry="18"/>
<text text-anchor="middle" x="725" y="-170.7767" font-family="Times,serif" font-size="14.00" fill="#000000">postgresql_image</text>
</g>
<!-- images_frontend&#45;&gt;postgresql_image -->
<g id="edge31" class="edge">
<title>images_frontend&#45;&gt;postgresql_image</title>
<path fill="none" stroke="#caff70" d="M923.2576,-251.3264C916.0403,-247.175 907.8825,-242.969 900,-239.9533 861.324,-225.1568 847.8093,-234.3964 809,-219.9533 792.3968,-213.7743 775.023,-204.8331 760.413,-196.511"/>
<polygon fill="#caff70" stroke="#caff70" points="762.1078,-193.4478 751.705,-191.4396 758.5849,-199.4967 762.1078,-193.4478"/>
</g>
<!-- images_backend -->
<g id="node7" class="node">
<title>images_backend</title>
<g id="a_node7"><a xlink:href="https://poms.omroep.nl/images/" xlink:title="Images Backend">
<ellipse fill="none" stroke="#000000" cx="640" cy="-265.9533" rx="70.6878" ry="18"/>
<text text-anchor="middle" x="640" y="-262.2533" font-family="Times,serif" font-size="14.00" fill="#0000ff">Images Backend</text>
</a>
</g>
</g>
<!-- thineye -->
<g id="node9" class="node">
<title>thineye</title>
<ellipse fill="none" stroke="#000000" cx="352" cy="-174.4767" rx="37.8943" ry="18"/>
<text text-anchor="middle" x="352" y="-170.7767" font-family="Times,serif" font-size="14.00" fill="#000000">thineye</text>
</g>
<!-- images_backend&#45;&gt;thineye -->
<g id="edge32" class="edge">
<title>images_backend&#45;&gt;thineye</title>
<path fill="none" stroke="#caff70" d="M576.2211,-257.9824C515.554,-249.652 429.1978,-235.6273 399,-219.9533 389.1744,-214.8534 380.0156,-207.0417 372.441,-199.3235"/>
<polygon fill="#caff70" stroke="#caff70" points="374.7875,-196.7059 365.4283,-191.7403 369.6482,-201.4585 374.7875,-196.7059"/>
</g>
<!-- images_backend&#45;&gt;postgresql_image -->
<g id="edge33" class="edge">
<title>images_backend&#45;&gt;postgresql_image</title>
<path fill="none" stroke="#caff70" d="M656.3889,-248.3157C669.2062,-234.5217 687.1967,-215.1604 701.54,-199.7242"/>
<polygon fill="#caff70" stroke="#caff70" points="704.4184,-201.7683 708.6615,-192.0601 699.2905,-197.0033 704.4184,-201.7683"/>
</g>
<!-- images_backend&#45;&gt;jms_ingest -->
<g id="edge34" class="edge">
<title>images_backend&#45;&gt;jms_ingest</title>
<path fill="none" stroke="#caff70" d="M680.2252,-250.9363C692.8044,-246.769 706.8382,-242.6521 720,-239.9533 816.6135,-220.1432 845.5164,-244.6413 941,-219.9533 952.8717,-216.8838 965.11,-212.5879 976.8223,-207.8511"/>
<polygon fill="#caff70" stroke="#caff70" points="978.2131,-211.0632 986.0855,-203.9726 975.5097,-204.6063 978.2131,-211.0632"/>
</g>
<!-- images_backend&#45;&gt;keycloak -->
<g id="edge35" class="edge">
<title>images_backend&#45;&gt;keycloak</title>
<path fill="none" stroke="#caff70" d="M678.9016,-250.8255C691.7846,-246.4893 706.3266,-242.303 720,-239.9533 887.6013,-211.1515 1317.8437,-251.2346 1485,-219.9533 1515.3818,-214.2677 1548.1924,-202.3573 1572.8523,-192.1516"/>
<polygon fill="#caff70" stroke="#caff70" points="1574.3669,-195.3113 1582.217,-188.196 1571.6431,-188.8629 1574.3669,-195.3113"/>
</g>
<!-- wikimedia -->
<g id="node29" class="node">
<title>wikimedia</title>
<ellipse fill="none" stroke="#000000" cx="247" cy="-174.4767" rx="49.2915" ry="18"/>
<text text-anchor="middle" x="247" y="-170.7767" font-family="Times,serif" font-size="14.00" fill="#000000">wikimedia</text>
</g>
<!-- images_backend&#45;&gt;wikimedia -->
<g id="edge36" class="edge">
<title>images_backend&#45;&gt;wikimedia</title>
<path fill="none" stroke="#caff70" d="M571.9362,-260.829C488.3073,-253.8048 351.7576,-239.7612 305,-219.9533 292.8498,-214.8061 281.0767,-206.4262 271.3485,-198.2532"/>
<polygon fill="#caff70" stroke="#caff70" points="273.5122,-195.495 263.6945,-191.5122 268.8857,-200.7481 273.5122,-195.495"/>
</g>
<!-- pixabay -->
<g id="node30" class="node">
<title>pixabay</title>
<ellipse fill="none" stroke="#000000" cx="140" cy="-174.4767" rx="39.7935" ry="18"/>
<text text-anchor="middle" x="140" y="-170.7767" font-family="Times,serif" font-size="14.00" fill="#000000">pixabay</text>
</g>
<!-- images_backend&#45;&gt;pixabay -->
<g id="edge37" class="edge">
<title>images_backend&#45;&gt;pixabay</title>
<path fill="none" stroke="#caff70" d="M571.3897,-261.3654C453.7731,-253.1441 222.9712,-235.3233 189,-219.9533 178.5315,-215.2169 168.8317,-207.3427 160.8717,-199.466"/>
<polygon fill="#caff70" stroke="#caff70" points="162.9429,-196.5626 153.5275,-191.7045 157.8583,-201.3738 162.9429,-196.5626"/>
</g>
<!-- flickr -->
<g id="node31" class="node">
<title>flickr</title>
<ellipse fill="none" stroke="#000000" cx="438" cy="-174.4767" rx="29.795" ry="18"/>
<text text-anchor="middle" x="438" y="-170.7767" font-family="Times,serif" font-size="14.00" fill="#000000">flickr</text>
</g>
<!-- images_backend&#45;&gt;flickr -->
<g id="edge38" class="edge">
<title>images_backend&#45;&gt;flickr</title>
<path fill="none" stroke="#caff70" d="M577.6221,-257.2113C545.6669,-250.6181 507.2306,-239.2657 477,-219.9533 468.6321,-214.6076 461.0816,-206.9245 454.9025,-199.3906"/>
<polygon fill="#caff70" stroke="#caff70" points="457.6278,-197.1928 448.7621,-191.392 452.0752,-201.4554 457.6278,-197.1928"/>
</g>
<!-- functional_tests -->
<g id="node10" class="node">
<title>functional_tests</title>
<g id="a_node10"><a xlink:href="https://jenkins.vpro.nl/job/POMS%20Functional%20Tests/" xlink:title="functional_tests">
<ellipse fill="#f0ffff" stroke="#000000" cx="779" cy="-431.9533" rx="68.4888" ry="18"/>
<text text-anchor="middle" x="779" y="-428.2533" font-family="Times,serif" font-size="14.00" fill="#0000ff">functional_tests</text>
</a>
</g>
</g>
<!-- functional_tests&#45;&gt;poms_backend -->
<g id="edge44" class="edge">
<title>functional_tests&#45;&gt;poms_backend</title>
<path fill="none" stroke="#c0c0c0" d="M827.1935,-419.0985C836.6795,-417.0198 846.6042,-415.1572 856,-413.9533 890.9477,-409.4754 1139.8129,-417.7859 1173,-405.9533 1229.6902,-385.741 1226.3137,-350.1582 1280,-322.9533 1291.5448,-317.1031 1295.978,-319.7469 1308,-314.9533 1327.0393,-307.3618 1347.3041,-297.1012 1364.1244,-287.9309"/>
<polygon fill="#c0c0c0" stroke="#c0c0c0" points="1366.03,-290.8766 1373.085,-282.9724 1362.6407,-284.7519 1366.03,-290.8766"/>
</g>
<!-- functional_tests&#45;&gt;api -->
<g id="edge45" class="edge">
<title>functional_tests&#45;&gt;api</title>
<path fill="none" stroke="#c0c0c0" d="M827.1976,-419.1299C836.6832,-417.0484 846.6067,-415.1768 856,-413.9533 870.991,-412.0007 1117.4685,-416.7991 1128,-405.9533 1153.6981,-379.4883 1153.623,-349.4911 1128,-322.9533 1119.1963,-313.8353 912.226,-318.2951 900,-314.9533 879.8732,-309.4519 859.2983,-298.7069 842.9102,-288.6775"/>
<polygon fill="#c0c0c0" stroke="#c0c0c0" points="844.5895,-285.5986 834.2658,-283.2171 840.8511,-291.5168 844.5895,-285.5986"/>
</g>
<!-- functional_tests&#45;&gt;pages_publish -->
<g id="edge46" class="edge">
<title>functional_tests&#45;&gt;pages_publish</title>
<path fill="none" stroke="#c0c0c0" d="M827.1954,-419.1126C836.6811,-417.0327 846.6053,-415.1661 856,-413.9533 872.26,-411.8544 1139.5653,-417.7024 1151,-405.9533 1176.7284,-379.5177 1167.9951,-355.6941 1151,-322.9533 1143.0618,-307.6605 1128.9281,-295.6066 1114.6651,-286.5991"/>
<polygon fill="#c0c0c0" stroke="#c0c0c0" points="1116.2132,-283.4488 1105.8218,-281.3825 1112.6567,-289.478 1116.2132,-283.4488"/>
</g>
<!-- users -->
<g id="node16" class="node">
<title>users</title>
<ellipse fill="none" stroke="#000000" cx="664" cy="-431.9533" rx="29.4969" ry="18"/>
<text text-anchor="middle" x="664" y="-428.2533" font-family="Times,serif" font-size="14.00" fill="#000000">users</text>
</g>
<!-- users&#45;&gt;api -->
<g id="edge4" class="edge">
<title>users&#45;&gt;api</title>
<path fill="none" stroke="#c0c0c0" d="M685.9318,-419.6569C691.0568,-417.3282 696.5998,-415.2251 702,-413.9533 712.7093,-411.4313 1090.2992,-413.8113 1098,-405.9533 1123.8196,-379.6068 1123.5524,-349.559 1098,-322.9533 1082.7485,-307.0731 921.2233,-320.8151 900,-314.9533 879.8879,-309.3985 859.3142,-298.6491 842.9231,-288.6305"/>
<polygon fill="#c0c0c0" stroke="#c0c0c0" points="844.6021,-285.5515 834.2767,-283.1775 840.868,-291.4724 844.6021,-285.5515"/>
</g>
<!-- users&#45;&gt;images_frontend -->
<g id="edge5" class="edge">
<title>users&#45;&gt;images_frontend</title>
<path fill="none" stroke="#c0c0c0" d="M685.9308,-419.6524C691.0558,-417.3239 696.5991,-415.2221 702,-413.9533 713.3325,-411.2911 1112.8475,-414.263 1121,-405.9533 1146.8342,-379.6211 1146.2642,-349.8329 1121,-322.9533 1111.1646,-312.4891 1004.9964,-321.0631 992,-314.9533 980.7294,-309.6549 970.8606,-300.2569 963.184,-291.0988"/>
<polygon fill="#c0c0c0" stroke="#c0c0c0" points="965.9402,-288.9415 957.022,-283.2216 960.4267,-293.2545 965.9402,-288.9415"/>
</g>
<!-- magnolia_frontend -->
<g id="node19" class="node">
<title>magnolia_frontend</title>
<ellipse fill="none" stroke="#000000" cx="830" cy="-356.9533" rx="79.8859" ry="18"/>
<text text-anchor="middle" x="830" y="-353.2533" font-family="Times,serif" font-size="14.00" fill="#000000">magnolia_frontend</text>
</g>
<!-- users&#45;&gt;magnolia_frontend -->
<g id="edge6" class="edge">
<title>users&#45;&gt;magnolia_frontend</title>
<path fill="none" stroke="#c0c0c0" d="M686.5411,-420.1907C691.5395,-417.8906 696.8763,-415.6646 702,-413.9533 718.7829,-408.3479 724.3955,-412.0671 741,-405.9533 759.5409,-399.1265 778.8961,-388.8925 794.8033,-379.54"/>
<polygon fill="#c0c0c0" stroke="#c0c0c0" points="796.9718,-382.3202 803.7385,-374.1677 793.3647,-376.321 796.9718,-382.3202"/>
</g>
<!-- backendsystems -->
<g id="node17" class="node">
<title>backendsystems</title>
<ellipse fill="none" stroke="#000000" cx="935" cy="-431.9533" rx="69.5877" ry="18"/>
<text text-anchor="middle" x="935" y="-428.2533" font-family="Times,serif" font-size="14.00" fill="#000000">backendsystems</text>
</g>
<!-- backendsystems&#45;&gt;poms_backend -->
<g id="edge7" class="edge">
<title>backendsystems&#45;&gt;poms_backend</title>
<path fill="none" stroke="#c0c0c0" d="M984.2511,-419.0597C993.7322,-417.0126 1003.6285,-415.1715 1013,-413.9533 1040.7804,-410.3421 1239.3523,-417.2222 1265,-405.9533 1319.3025,-382.0942 1363.2041,-325.7611 1385.6712,-292.2782"/>
<polygon fill="#c0c0c0" stroke="#c0c0c0" points="1388.6157,-294.1704 1391.1729,-283.8888 1382.7621,-290.3316 1388.6157,-294.1704"/>
</g>
<!-- backendsystems&#45;&gt;pages_publish -->
<g id="edge8" class="edge">
<title>backendsystems&#45;&gt;pages_publish</title>
<path fill="none" stroke="#c0c0c0" d="M984.2543,-419.0838C993.7351,-417.0345 1003.6305,-415.1865 1013,-413.9533 1025.6211,-412.2922 1233.1571,-415.1106 1242,-405.9533 1267.625,-379.4175 1266.9539,-350.1212 1242,-322.9533 1227.8184,-307.5135 1167.8809,-321.6057 1148,-314.9533 1130.6686,-309.154 1113.267,-298.7676 1099.3117,-289.0453"/>
<polygon fill="#c0c0c0" stroke="#c0c0c0" points="1101.2579,-286.1336 1091.0994,-283.1245 1097.1642,-291.8118 1101.2579,-286.1336"/>
</g>
<!-- editors -->
<g id="node18" class="node">
<title>editors</title>
<ellipse fill="none" stroke="#000000" cx="1058" cy="-431.9533" rx="35.9954" ry="18"/>
<text text-anchor="middle" x="1058" y="-428.2533" font-family="Times,serif" font-size="14.00" fill="#000000">editors</text>
</g>
<!-- editors&#45;&gt;poms -->
<g id="edge1" class="edge">
<title>editors&#45;&gt;poms</title>
<path fill="none" stroke="#c0c0c0" d="M1093.7797,-430.2269C1156.4591,-426.9129 1283.4978,-418.8264 1326,-405.9533 1408.0199,-381.1111 1428.2826,-367.4771 1496,-314.9533 1505.1294,-307.8723 1513.995,-298.8436 1521.409,-290.4704"/>
<polygon fill="#c0c0c0" stroke="#c0c0c0" points="1524.1915,-292.602 1528.0337,-282.7284 1518.8728,-288.0509 1524.1915,-292.602"/>
</g>
<!-- magnolia_backend -->
<g id="node20" class="node">
<title>magnolia_backend</title>
<ellipse fill="none" stroke="#000000" cx="1007" cy="-356.9533" rx="79.0865" ry="18"/>
<text text-anchor="middle" x="1007" y="-353.2533" font-family="Times,serif" font-size="14.00" fill="#000000">magnolia_backend</text>
</g>
<!-- editors&#45;&gt;magnolia_backend -->
<g id="edge2" class="edge">
<title>editors&#45;&gt;magnolia_backend</title>
<path fill="none" stroke="#c0c0c0" d="M1046.1714,-414.5583C1039.8265,-405.2276 1031.8783,-393.5391 1024.8026,-383.1337"/>
<polygon fill="#c0c0c0" stroke="#c0c0c0" points="1027.636,-381.076 1019.1186,-374.7748 1021.8475,-385.0122 1027.636,-381.076"/>
</g>
<!-- editors&#45;&gt;keycloak -->
<g id="edge3" class="edge">
<title>editors&#45;&gt;keycloak</title>
<path fill="none" stroke="#c0c0c0" d="M1093.8963,-431.2659C1172.7216,-429.4492 1358.7161,-423.3986 1419,-405.9533 1501.3218,-382.1306 1539.1498,-384.6623 1589,-314.9533 1612.5574,-282.0113 1615.3797,-233.6803 1614.3603,-203.1612"/>
<polygon fill="#c0c0c0" stroke="#c0c0c0" points="1617.8366,-202.5976 1613.8422,-192.7847 1610.8453,-202.9468 1617.8366,-202.5976"/>
</g>
<!-- magnolia_frontend&#45;&gt;api -->
<g id="edge41" class="edge">
<title>magnolia_frontend&#45;&gt;api</title>
<path fill="none" stroke="#c0c0c0" d="M826.0486,-338.9746C823.2455,-326.2204 819.4267,-308.8447 816.2174,-294.2427"/>
<polygon fill="#c0c0c0" stroke="#c0c0c0" points="819.5767,-293.2217 814.0116,-284.2061 812.7398,-294.7243 819.5767,-293.2217"/>
</g>
<!-- magnolia_backend&#45;&gt;poms_backend -->
<g id="edge39" class="edge">
<title>magnolia_backend&#45;&gt;poms_backend</title>
<path fill="none" stroke="#c0c0c0" d="M1074.9045,-347.5499C1163.2514,-335.3055 1306.6101,-315.3979 1308,-314.9533 1328.1142,-308.5195 1349.0829,-298.0083 1366.0987,-288.3678"/>
<polygon fill="#c0c0c0" stroke="#c0c0c0" points="1368.2241,-291.181 1375.1147,-283.133 1364.7093,-285.1274 1368.2241,-291.181"/>
</g>
<!-- magnolia_backend&#45;&gt;pages_publish -->
<g id="edge40" class="edge">
<title>magnolia_backend&#45;&gt;pages_publish</title>
<path fill="none" stroke="#c0c0c0" d="M1019.4468,-338.9746C1028.6795,-325.6385 1041.4103,-307.2496 1051.7862,-292.2621"/>
<polygon fill="#c0c0c0" stroke="#c0c0c0" points="1054.7646,-294.1088 1057.5791,-283.8946 1049.0093,-290.1243 1054.7646,-294.1088"/>
</g>
<!-- amara_importer -->
<g id="node21" class="node">
<title>amara_importer</title>
<ellipse fill="none" stroke="#000000" cx="663" cy="-356.9533" rx="68.7879" ry="18"/>
<text text-anchor="middle" x="663" y="-353.2533" font-family="Times,serif" font-size="14.00" fill="#000000">amara_importer</text>
</g>
<!-- amara_importer&#45;&gt;poms_backend -->
<g id="edge47" class="edge">
<title>amara_importer&#45;&gt;poms_backend</title>
<path fill="none" stroke="#c0c0c0" d="M692.8085,-340.6344C706.9676,-333.7628 724.3943,-326.5376 741,-322.9533 802.5879,-309.6597 1246.9108,-330.3774 1308,-314.9533 1329.121,-309.6206 1350.8065,-298.7437 1368.0191,-288.5896"/>
<polygon fill="#c0c0c0" stroke="#c0c0c0" points="1369.8611,-291.5659 1376.5858,-283.3787 1366.2233,-285.5853 1369.8611,-291.5659"/>
</g>
<!-- amara -->
<g id="node32" class="node">
<title>amara</title>
<ellipse fill="none" stroke="#000000" cx="49" cy="-174.4767" rx="33.2948" ry="18"/>
<text text-anchor="middle" x="49" y="-170.7767" font-family="Times,serif" font-size="14.00" fill="#000000">amara</text>
</g>
<!-- amara_importer&#45;&gt;amara -->
<g id="edge48" class="edge">
<title>amara_importer&#45;&gt;amara</title>
<path fill="none" stroke="#c0c0c0" d="M595.2941,-353.4007C483.1809,-344.8705 255.0855,-316.1162 91,-219.9533 82.1479,-214.7655 74.0571,-207.1225 67.3908,-199.5769"/>
<polygon fill="#c0c0c0" stroke="#c0c0c0" points="69.8193,-197.0216 60.7477,-191.5482 64.4261,-201.484 69.8193,-197.0216"/>
</g>
<!-- pd&#45;&gt;metis -->
<g id="edge43" class="edge">
<title>pd&#45;&gt;metis</title>
<path fill="none" stroke="#c0c0c0" d="M1945.5459,-156.5269C1940.6057,-140.5929 1930.9928,-118.0267 1914,-106 1892.5378,-90.8101 1822.3002,-84.354 1776.7365,-81.7141"/>
<polygon fill="#c0c0c0" stroke="#c0c0c0" points="1776.7473,-78.2096 1766.5728,-81.1643 1776.3692,-85.1994 1776.7473,-78.2096"/>
</g>
<!-- prepr&#45;&gt;metis -->
<g id="edge42" class="edge">
<title>prepr&#45;&gt;metis</title>
<path fill="none" stroke="#c0c0c0" d="M1869.3252,-156.6292C1863.4411,-140.9906 1852.7252,-118.8131 1836,-106 1826.4059,-98.65 1799.2056,-91.834 1775.5919,-87.0262"/>
<polygon fill="#c0c0c0" stroke="#c0c0c0" points="1776.2403,-83.5868 1765.7531,-85.093 1774.8907,-90.4554 1776.2403,-83.5868"/>
</g>
</g>
</svg>
