<?xml version="1.0" encoding="UTF-8" standalone="no"?>
<!DOCTYPE svg PUBLIC "-//W3C//DTD SVG 1.1//EN"
 "http://www.w3.org/Graphics/SVG/1.1/DTD/svg11.dtd">
<!-- Generated by graphviz version 2.40.1 (20161225.0304)
 -->
<!-- Title: %3 Pages: 1 -->
<svg width="1298pt" height="753pt"
 viewBox="0.00 0.00 1298.00 753.00" xmlns="http://www.w3.org/2000/svg" xmlns:xlink="http://www.w3.org/1999/xlink">
<g id="graph0" class="graph" transform="scale(1 1) rotate(0) translate(4 749)">
<title>%3</title>
<polygon fill="#ffffff" stroke="transparent" points="-4,4 -4,-749 1294,-749 1294,4 -4,4"/>
<text text-anchor="middle" x="645" y="-7.8" font-family="Times,serif" font-size="14.00" fill="#000000"> &#160;Dependencies of the different code projects relevant to POMS</text>
<g id="clust1" class="cluster">
<title>cluster_0</title>
<polygon fill="none" stroke="#000000" points="729,-47 729,-359 1243,-359 1243,-47 729,-47"/>
<text text-anchor="middle" x="986" y="-69.8" font-family="Times,serif" font-size="14.00" fill="#000000">Generic utilities</text>
<text text-anchor="middle" x="986" y="-54.8" font-family="Times,serif" font-size="14.00" fill="#000000">(incoming edges are just examples, there are more)</text>
</g>
<g id="clust2" class="cluster">
<title>cluster_1</title>
<polygon fill="none" stroke="#000000" points="63,-568 63,-643 263,-643 263,-568 63,-568"/>
<text text-anchor="middle" x="163" y="-627.8" font-family="Times,serif" font-size="14.00" fill="#000000">VPRO</text>
</g>
<g id="clust3" class="cluster">
<title>cluster_2</title>
<polygon fill="#f0ffff" stroke="#000000" points="292,-474 292,-737 1107,-737 1107,-474 292,-474"/>
<text text-anchor="middle" x="699.5" y="-721.8" font-family="Times,serif" font-size="14.00" fill="#000000">POMS Services</text>
</g>
<g id="clust4" class="cluster">
<title>cluster_3</title>
<polygon fill="#f0ffff" stroke="#000000" points="434,-380 434,-455 776,-455 776,-380 434,-380"/>
<text text-anchor="middle" x="605" y="-439.8" font-family="Times,serif" font-size="14.00" fill="#000000">Backend utilities</text>
</g>
<g id="clust5" class="cluster">
<title>cluster_4</title>
<polygon fill="#e0eeee" stroke="#000000" points="8,-307 8,-549 140,-549 140,-307 8,-307"/>
<text text-anchor="middle" x="74" y="-533.8" font-family="Times,serif" font-size="14.00" fill="#000000">Sharable utilities</text>
</g>
<!-- vpro_shared -->
<g id="node1" class="node">
<title>vpro_shared</title>
<g id="a_node1"><a xlink:href="https://github.com/vpro/vpro-shared" xlink:title="vpro_shared">
<ellipse fill="none" stroke="#000000" cx="793" cy="-333" rx="55.7903" ry="18"/>
<text text-anchor="middle" x="793" y="-329.3" font-family="Times,serif" font-size="14.00" fill="#0000ff">vpro_shared</text>
</a>
</g>
</g>
<!-- i18n_regions -->
<g id="node3" class="node">
<title>i18n_regions</title>
<g id="a_node3"><a xlink:href="https://github.com/mihxil/i18n-regions" xlink:title="i18n_regions">
<ellipse fill="none" stroke="#000000" cx="795" cy="-222" rx="58.4896" ry="18"/>
<text text-anchor="middle" x="795" y="-218.3" font-family="Times,serif" font-size="14.00" fill="#0000ff">i18n_regions</text>
</a>
</g>
</g>
<!-- vpro_shared&#45;&gt;i18n_regions -->
<g id="edge1" class="edge">
<title>vpro_shared&#45;&gt;i18n_regions</title>
<path fill="none" stroke="#c0c0c0" d="M793.3303,-314.6706C793.6444,-297.2373 794.1217,-270.7482 794.4856,-250.5489"/>
<polygon fill="#c0c0c0" stroke="#c0c0c0" points="797.9884,-250.4181 794.6693,-240.3566 790.9896,-250.2919 797.9884,-250.4181"/>
</g>
<!-- guava -->
<g id="node7" class="node">
<title>guava</title>
<g id="a_node7"><a xlink:href="https://github.com/google/guava" xlink:title="guava">
<ellipse fill="none" stroke="#000000" stroke-dasharray="5,2" cx="904" cy="-222" rx="32.4942" ry="18"/>
<text text-anchor="middle" x="904" y="-218.3" font-family="Times,serif" font-size="14.00" fill="#0000ff">guava</text>
</a>
</g>
</g>
<!-- vpro_shared&#45;&gt;guava -->
<g id="edge2" class="edge">
<title>vpro_shared&#45;&gt;guava</title>
<path fill="none" stroke="#c0c0c0" d="M810.3438,-315.6563C829.3505,-296.6495 859.9291,-266.0709 880.9439,-245.0561"/>
<polygon fill="#c0c0c0" stroke="#c0c0c0" points="883.6181,-247.3317 888.2143,-237.7857 878.6683,-242.3819 883.6181,-247.3317"/>
</g>
<!-- slf4j -->
<g id="node18" class="node">
<title>slf4j</title>
<ellipse fill="none" stroke="#000000" stroke-dasharray="5,2" cx="1094" cy="-222" rx="27" ry="18"/>
<text text-anchor="middle" x="1094" y="-218.3" font-family="Times,serif" font-size="14.00" fill="#000000">slf4j</text>
</g>
<!-- vpro_shared&#45;&gt;slf4j -->
<g id="edge3" class="edge">
<title>vpro_shared&#45;&gt;slf4j</title>
<path fill="none" stroke="#c0c0c0" d="M827.6579,-318.8778C837.4422,-314.9615 848.1154,-310.7557 858,-307 929.6809,-279.7646 1014.4041,-249.7826 1060.317,-233.7169"/>
<polygon fill="#c0c0c0" stroke="#c0c0c0" points="1061.4905,-237.0145 1069.7763,-230.4118 1059.1815,-230.4063 1061.4905,-237.0145"/>
</g>
<!-- poms_shared -->
<g id="node2" class="node">
<title>poms_shared</title>
<g id="a_node2"><a xlink:href="https://github.com/npo-poms/poms-shared" xlink:title="poms_shared">
<ellipse fill="none" stroke="#000000" cx="74" cy="-333" rx="58.4896" ry="18"/>
<text text-anchor="middle" x="74" y="-329.3" font-family="Times,serif" font-size="14.00" fill="#0000ff">poms_shared</text>
</a>
</g>
</g>
<!-- poms_shared&#45;&gt;vpro_shared -->
<g id="edge4" class="edge">
<title>poms_shared&#45;&gt;vpro_shared</title>
<path fill="none" stroke="#c0c0c0" d="M132.6294,-333C330.7071,-333 528.7848,-333 726.8626,-333"/>
<polygon fill="#c0c0c0" stroke="#c0c0c0" points="726.8943,-336.5001 736.8943,-333 726.8943,-329.5001 726.8943,-336.5001"/>
</g>
<!-- poms_shared&#45;&gt;i18n_regions -->
<g id="edge5" class="edge">
<title>poms_shared&#45;&gt;i18n_regions</title>
<path fill="none" stroke="#c0c0c0" d="M126.4333,-324.9277C256.2089,-304.9484 592.0044,-253.2517 732.1309,-231.6789"/>
<polygon fill="#c0c0c0" stroke="#c0c0c0" points="732.926,-235.0978 742.277,-230.1169 731.8608,-228.1793 732.926,-235.0978"/>
</g>
<!-- nv_i18n -->
<g id="node4" class="node">
<title>nv_i18n</title>
<g id="a_node4"><a xlink:href="https://github.com/TakahikoKawasaki/nv-i18n" xlink:title="nv_i18n">
<ellipse fill="none" stroke="#000000" cx="795" cy="-111" rx="40.0939" ry="18"/>
<text text-anchor="middle" x="795" y="-107.3" font-family="Times,serif" font-size="14.00" fill="#0000ff">nv_i18n</text>
</a>
</g>
</g>
<!-- i18n_regions&#45;&gt;nv_i18n -->
<g id="edge9" class="edge">
<title>i18n_regions&#45;&gt;nv_i18n</title>
<path fill="none" stroke="#c0c0c0" d="M795,-203.6706C795,-186.2373 795,-159.7482 795,-139.5489"/>
<polygon fill="#c0c0c0" stroke="#c0c0c0" points="798.5001,-139.3566 795,-129.3566 791.5001,-139.3567 798.5001,-139.3566"/>
</g>
<!-- resteasy -->
<g id="node5" class="node">
<title>resteasy</title>
<g id="a_node5"><a xlink:href="https://github.com/resteasy/Resteasy" xlink:title="resteasy">
<ellipse fill="none" stroke="#000000" cx="1001" cy="-333" rx="40.0939" ry="18"/>
<text text-anchor="middle" x="1001" y="-329.3" font-family="Times,serif" font-size="14.00" fill="#0000ff">resteasy</text>
</a>
</g>
</g>
<!-- spring -->
<g id="node6" class="node">
<title>spring</title>
<g id="a_node6"><a xlink:href="https://github.com/spring-projects/spring-framework" xlink:title="spring">
<ellipse fill="none" stroke="#000000" stroke-dasharray="5,2" cx="1093" cy="-333" rx="33.5952" ry="18"/>
<text text-anchor="middle" x="1093" y="-329.3" font-family="Times,serif" font-size="14.00" fill="#0000ff">spring</text>
</a>
</g>
</g>
<!-- hibernate -->
<g id="node8" class="node">
<title>hibernate</title>
<g id="a_node8"><a xlink:href="https://github.com/hibernate/" xlink:title="hibernate">
<ellipse fill="none" stroke="#000000" cx="1190" cy="-333" rx="44.6926" ry="18"/>
<text text-anchor="middle" x="1190" y="-329.3" font-family="Times,serif" font-size="14.00" fill="#0000ff">hibernate</text>
</a>
</g>
</g>
<!-- api_client -->
<g id="node9" class="node">
<title>api_client</title>
<g id="a_node9"><a xlink:href="https://github.com/npo-poms/api-clients" xlink:title="api_client">
<ellipse fill="none" stroke="#000000" cx="83" cy="-500" rx="46.5926" ry="18"/>
<text text-anchor="middle" x="83" y="-496.3" font-family="Times,serif" font-size="14.00" fill="#0000ff">api_client</text>
</a>
</g>
</g>
<!-- api_client&#45;&gt;vpro_shared -->
<g id="edge21" class="edge">
<title>api_client&#45;&gt;vpro_shared</title>
<path fill="none" stroke="#c0c0c0" d="M86.4633,-481.6163C92.6865,-454.2592 108.5715,-403.537 144,-380 191.6872,-348.3189 570.8053,-337.3408 726.5558,-334.1433"/>
<polygon fill="#c0c0c0" stroke="#c0c0c0" points="727.0036,-337.6351 736.9313,-333.9351 726.8631,-330.6365 727.0036,-337.6351"/>
</g>
<!-- api_client&#45;&gt;poms_shared -->
<g id="edge22" class="edge">
<title>api_client&#45;&gt;poms_shared</title>
<path fill="none" stroke="#c0c0c0" d="M82.0197,-481.8102C80.4575,-452.8234 77.3909,-395.9192 75.5355,-361.4916"/>
<polygon fill="#c0c0c0" stroke="#c0c0c0" points="79.0122,-360.9645 74.9791,-351.1674 72.0224,-361.3413 79.0122,-360.9645"/>
</g>
<!-- poms_backend -->
<g id="node10" class="node">
<title>poms_backend</title>
<g id="a_node10"><a xlink:href="https://subversion.vpro.nl/viewvc/nl/vpro/media" xlink:title="POMS &#160;&amp; POMS Backend API">
<ellipse fill="none" stroke="#cd950c" cx="585" cy="-688" rx="125.3778" ry="18"/>
<text text-anchor="middle" x="585" y="-684.3" font-family="Times,serif" font-size="14.00" fill="#0000ff">POMS &#160;&amp; POMS Backend API</text>
</a>
</g>
</g>
<!-- poms_backend&#45;&gt;vpro_shared -->
<g id="edge33" class="edge">
<title>poms_backend&#45;&gt;vpro_shared</title>
<path fill="none" stroke="#cd950c" d="M673.8561,-675.2745C689.2226,-673.3252 705.0581,-671.4747 720,-670 751.0246,-666.9381 978.6745,-674.7404 1000,-652 1089.6633,-556.3876 987.9704,-462.3606 886,-380 871.765,-368.5025 854.2603,-358.7533 838.292,-351.1657"/>
<polygon fill="#cd950c" stroke="#cd950c" points="839.6526,-347.9392 829.1039,-346.9512 836.7341,-354.3018 839.6526,-347.9392"/>
</g>
<!-- poms_backend&#45;&gt;poms_shared -->
<g id="edge34" class="edge">
<title>poms_backend&#45;&gt;poms_shared</title>
<path fill="none" stroke="#cd950c" d="M678.2291,-675.9343C733.3607,-667.7145 797.1298,-655.9942 822,-643 849.5771,-628.5916 872,-625.1143 872,-594 872,-594 872,-594 872,-463.5 872,-422.1565 865.2779,-403.1152 831,-380 823.8889,-375.2047 326.5294,-347.0609 141.9532,-336.7681"/>
<polygon fill="#cd950c" stroke="#cd950c" points="142.0048,-333.2656 131.8255,-336.2038 141.6153,-340.2548 142.0048,-333.2656"/>
</g>
<!-- poms_backend&#45;&gt;resteasy -->
<g id="edge35" class="edge">
<title>poms_backend&#45;&gt;resteasy</title>
<path fill="none" stroke="#cd950c" d="M676.0968,-675.544C690.7691,-673.627 705.7982,-671.7165 720,-670 756.837,-665.5477 858.5902,-677.0098 886,-652 977.1088,-568.8686 876.2286,-484.9586 941,-380 947.569,-369.3553 957.4679,-360.1633 967.3418,-352.8026"/>
<polygon fill="#cd950c" stroke="#cd950c" points="969.3668,-355.6575 975.5564,-347.0586 965.3554,-349.9208 969.3668,-355.6575"/>
</g>
<!-- poms_backend&#45;&gt;spring -->
<g id="edge36" class="edge">
<title>poms_backend&#45;&gt;spring</title>
<path fill="none" stroke="#cd950c" d="M675.7208,-675.4875C690.5098,-673.5676 705.6737,-671.6709 720,-670 765.4208,-664.7024 893.0181,-676.6338 924,-643 980.5878,-581.5686 930.0297,-531.3729 978,-463 1006.2313,-422.7615 1045.178,-381.0192 1069.7214,-356.0278"/>
<polygon fill="#cd950c" stroke="#cd950c" points="1072.2995,-358.3985 1076.8481,-348.8298 1067.3251,-353.4735 1072.2995,-358.3985"/>
</g>
<!-- poms_backend&#45;&gt;hibernate -->
<g id="edge37" class="edge">
<title>poms_backend&#45;&gt;hibernate</title>
<path fill="none" stroke="#cd950c" d="M674.976,-675.4249C689.9967,-673.4917 705.4285,-671.6072 720,-670 771.5906,-664.3096 910.646,-674.3659 952,-643 984.3173,-618.4882 979.8458,-600.5854 1004,-568 1061.9509,-489.8211 1134.5049,-400.4415 1169.3922,-357.9564"/>
<polygon fill="#cd950c" stroke="#cd950c" points="1172.2032,-360.0486 1175.8519,-350.1019 1166.7967,-355.6022 1172.2032,-360.0486"/>
</g>
<!-- poms_gui -->
<g id="node11" class="node">
<title>poms_gui</title>
<g id="a_node11"><a xlink:href="https://subversion.vpro.nl/viewvc/nl/vpro/media-gui" xlink:title="Angular GUI for POMS">
<ellipse fill="none" stroke="#000000" cx="399" cy="-500" rx="98.5829" ry="18"/>
<text text-anchor="middle" x="399" y="-496.3" font-family="Times,serif" font-size="14.00" fill="#0000ff">Angular GUI for POMS</text>
</a>
</g>
</g>
<!-- poms_backend&#45;&gt;poms_gui -->
<g id="edge38" class="edge">
<title>poms_backend&#45;&gt;poms_gui</title>
<path fill="none" stroke="#cd950c" d="M578.9959,-669.721C569.8823,-644.2916 550.4415,-597.9922 521,-568 501.2053,-547.835 474.1524,-531.9381 450.5508,-520.602"/>
<polygon fill="#cd950c" stroke="#cd950c" points="451.9029,-517.3709 441.3594,-516.3294 448.9522,-523.7186 451.9029,-517.3709"/>
</g>
<!-- user_backend -->
<g id="node16" class="node">
<title>user_backend</title>
<g id="a_node16"><a xlink:href="https://subversion.vpro.nl/repo/nl/vpro/user" xlink:title="user_backend">
<ellipse fill="none" stroke="#000000" cx="708" cy="-406" rx="60.3893" ry="18"/>
<text text-anchor="middle" x="708" y="-402.3" font-family="Times,serif" font-size="14.00" fill="#0000ff">user_backend</text>
</a>
</g>
</g>
<!-- poms_backend&#45;&gt;user_backend -->
<g id="edge39" class="edge">
<title>poms_backend&#45;&gt;user_backend</title>
<path fill="none" stroke="#cd950c" d="M652.7625,-672.7982C672.289,-667.0085 689.969,-659.8848 696,-652 745.3543,-587.4747 728.0628,-483.2346 715.8631,-433.7652"/>
<polygon fill="#cd950c" stroke="#cd950c" points="719.2502,-432.8829 713.363,-424.0743 712.4721,-434.6316 719.2502,-432.8829"/>
</g>
<!-- angular -->
<g id="node19" class="node">
<title>angular</title>
<ellipse fill="none" stroke="#000000" cx="905" cy="-333" rx="37.8943" ry="18"/>
<text text-anchor="middle" x="905" y="-329.3" font-family="Times,serif" font-size="14.00" fill="#000000">angular</text>
</g>
<!-- poms_gui&#45;&gt;angular -->
<g id="edge40" class="edge">
<title>poms_gui&#45;&gt;angular</title>
<path fill="none" stroke="#c0c0c0" d="M397.5926,-481.8295C396.6175,-454.7511 399.3593,-404.3878 430,-380 446.3931,-366.9522 786.1975,-372.4973 807,-370 830.0226,-367.2362 836.2892,-367.1438 858,-359 863.0012,-357.124 868.1175,-354.7858 873.0469,-352.2862"/>
<polygon fill="#c0c0c0" stroke="#c0c0c0" points="875.0641,-355.1756 882.2166,-347.3595 871.751,-349.0093 875.0641,-355.1756"/>
</g>
<!-- poms_shared_backend -->
<g id="node12" class="node">
<title>poms_shared_backend</title>
<g id="a_node12"><a xlink:href="https://subversion.vpro.nl/viewvc/nl/publiekeomroep/poms-shared-backend/" xlink:title="poms_shared_backend">
<ellipse fill="none" stroke="#00cdcd" cx="536" cy="-406" rx="93.6835" ry="18"/>
<text text-anchor="middle" x="536" y="-402.3" font-family="Times,serif" font-size="14.00" fill="#0000ff">poms_shared_backend</text>
</a>
</g>
</g>
<!-- poms_shared_backend&#45;&gt;vpro_shared -->
<g id="edge6" class="edge">
<title>poms_shared_backend&#45;&gt;vpro_shared</title>
<path fill="none" stroke="#00cdcd" d="M587.7462,-390.9305C604.019,-386.7349 622.142,-382.6151 639,-380 657.1499,-377.1845 791.4116,-383.3745 804,-370 806.5104,-367.3328 807.4475,-364.118 807.3686,-360.7109"/>
<polygon fill="#00cdcd" stroke="#00cdcd" points="810.7361,-359.7497 804.9186,-350.8949 803.9444,-361.4448 810.7361,-359.7497"/>
</g>
<!-- poms_shared_backend&#45;&gt;poms_shared -->
<g id="edge7" class="edge">
<title>poms_shared_backend&#45;&gt;poms_shared</title>
<path fill="none" stroke="#00cdcd" d="M463.5586,-394.5536C373.5119,-380.3255 221.3464,-356.282 136.2917,-342.8426"/>
<polygon fill="#00cdcd" stroke="#00cdcd" points="136.6843,-339.3613 126.2606,-341.2576 135.5917,-346.2755 136.6843,-339.3613"/>
</g>
<!-- poms_shared_backend&#45;&gt;slf4j -->
<g id="edge8" class="edge">
<title>poms_shared_backend&#45;&gt;slf4j</title>
<path fill="none" stroke="#00cdcd" d="M586.9165,-390.8686C603.3893,-386.5885 621.8357,-382.436 639,-380 672.2977,-375.2744 1220.6352,-383.1899 1244,-359 1290.788,-310.5598 1184.3193,-258.1593 1127.1934,-234.6578"/>
<polygon fill="#00cdcd" stroke="#00cdcd" points="1128.397,-231.3694 1117.8137,-230.8756 1125.7791,-237.8614 1128.397,-231.3694"/>
</g>
<!-- api -->
<g id="node13" class="node">
<title>api</title>
<g id="a_node13"><a xlink:href="https://subversion.vpro.nl/viewvc/nl/vpro/api/" xlink:title="Frontend API">
<ellipse fill="none" stroke="#6495ed" cx="789" cy="-688" rx="60.3893" ry="18"/>
<text text-anchor="middle" x="789" y="-684.3" font-family="Times,serif" font-size="14.00" fill="#0000ff">Frontend API</text>
</a>
</g>
</g>
<!-- api&#45;&gt;vpro_shared -->
<g id="edge10" class="edge">
<title>api&#45;&gt;vpro_shared</title>
<path fill="none" stroke="#6495ed" d="M832.9448,-675.4473C841.2184,-673.3946 849.8356,-671.464 858,-670 897.5684,-662.9049 1011.0259,-681.806 1038,-652 1078.7033,-607.0234 1060.1255,-420.5382 1015,-380 988.8148,-356.4767 892.0459,-367.9381 858,-359 850.3956,-357.0036 842.4839,-354.356 834.9059,-351.5138"/>
<polygon fill="#6495ed" stroke="#6495ed" points="836.1215,-348.2311 825.5337,-347.844 833.5692,-354.7492 836.1215,-348.2311"/>
</g>
<!-- api&#45;&gt;poms_shared -->
<g id="edge11" class="edge">
<title>api&#45;&gt;poms_shared</title>
<path fill="none" stroke="#6495ed" d="M832.5661,-675.4914C840.9534,-673.4088 849.7085,-671.4562 858,-670 903.9074,-661.9376 1041.7708,-682.8176 1066,-643 1105.0558,-578.8168 1112.0818,-536.2412 1070,-474 1013.8592,-390.9649 962.1398,-404.708 865,-380 729.2688,-345.476 309.0642,-336.138 142.7662,-333.7618"/>
<polygon fill="#6495ed" stroke="#6495ed" points="142.7072,-330.2608 132.6596,-333.6216 142.61,-337.2601 142.7072,-330.2608"/>
</g>
<!-- api&#45;&gt;resteasy -->
<g id="edge12" class="edge">
<title>api&#45;&gt;resteasy</title>
<path fill="none" stroke="#6495ed" d="M832.5406,-675.3415C840.9303,-673.2727 849.6927,-671.3636 858,-670 886.1381,-665.3814 1094.557,-672.858 1114,-652 1155.2949,-607.6996 1134.3591,-427.6666 1097,-380 1082.8865,-361.9926 1070.5614,-369.0343 1050,-359 1045.3062,-356.7093 1040.4019,-354.2223 1035.5871,-351.7249"/>
<polygon fill="#6495ed" stroke="#6495ed" points="1036.9974,-348.5122 1026.5171,-346.9585 1033.741,-354.7087 1036.9974,-348.5122"/>
</g>
<!-- api&#45;&gt;poms_shared_backend -->
<g id="edge13" class="edge">
<title>api&#45;&gt;poms_shared_backend</title>
<path fill="none" stroke="#6495ed" d="M785.0686,-670.0064C778.7908,-643.7447 764.8291,-594.0194 742,-557 715.2685,-513.6525 703.5165,-504.8544 663,-474 638.5637,-455.3911 608.3452,-438.9871 583.5161,-426.9552"/>
<polygon fill="#6495ed" stroke="#6495ed" points="584.8209,-423.7001 574.2873,-422.5625 581.8124,-430.0206 584.8209,-423.7001"/>
</g>
<!-- api&#45;&gt;user_backend -->
<g id="edge14" class="edge">
<title>api&#45;&gt;user_backend</title>
<path fill="none" stroke="#6495ed" d="M792.4125,-669.7482C798.9833,-629.2144 809.41,-529.9929 769,-463 761.3493,-450.3164 750.0859,-438.6758 739.3134,-429.2668"/>
<polygon fill="#6495ed" stroke="#6495ed" points="741.5308,-426.5585 731.6148,-422.827 737.0394,-431.9277 741.5308,-426.5585"/>
</g>
<!-- media_publish -->
<g id="node14" class="node">
<title>media_publish</title>
<g id="a_node14"><a xlink:href="https://subversion.vpro.nl/viewvc/nl/publiekeomroep/npo-publish/" xlink:title="Media Publisher">
<ellipse fill="none" stroke="#bf3eff" cx="371" cy="-688" rx="70.6878" ry="18"/>
<text text-anchor="middle" x="371" y="-684.3" font-family="Times,serif" font-size="14.00" fill="#0000ff">Media Publisher</text>
</a>
</g>
</g>
<!-- media_publish&#45;&gt;poms_shared -->
<g id="edge18" class="edge">
<title>media_publish&#45;&gt;poms_shared</title>
<path fill="none" stroke="#bf3eff" d="M422.0264,-675.5057C431.6117,-673.4473 441.5804,-671.4997 451,-670 536.6913,-656.3571 834,-680.7706 834,-594 834,-594 834,-594 834,-463.5 834,-423.757 833.8894,-403.7186 802,-380 795.3844,-375.0794 662.2258,-369.561 654,-369 468.7329,-356.3659 250.0452,-343.2892 141.7697,-336.9376"/>
<polygon fill="#bf3eff" stroke="#bf3eff" points="141.8285,-333.4351 131.6409,-336.3441 141.419,-340.4231 141.8285,-333.4351"/>
</g>
<!-- pages_publish -->
<g id="node15" class="node">
<title>pages_publish</title>
<g id="a_node15"><a xlink:href="https://subversion.vpro.nl/viewvc/nl/vpro/pages-publish/" xlink:title="Pages Publisher">
<ellipse fill="none" stroke="#8fbc8f" cx="585" cy="-500" rx="68.7879" ry="18"/>
<text text-anchor="middle" x="585" y="-496.3" font-family="Times,serif" font-size="14.00" fill="#0000ff">Pages Publisher</text>
</a>
</g>
</g>
<!-- media_publish&#45;&gt;pages_publish -->
<g id="edge20" class="edge">
<title>media_publish&#45;&gt;pages_publish</title>
<path fill="none" stroke="#c0c0c0" d="M390.749,-670.6504C431.5169,-634.8356 524.5717,-553.0866 565.2987,-517.3077"/>
<text text-anchor="middle" x="572" y="-590.3" font-family="Times,serif" font-size="14.00" fill="#000000">we plan to merge these</text>
</g>
<!-- media_publish&#45;&gt;user_backend -->
<g id="edge19" class="edge">
<title>media_publish&#45;&gt;user_backend</title>
<path fill="none" stroke="#bf3eff" d="M422.9467,-675.6774C432.2608,-673.6493 441.8981,-671.6679 451,-670 492.9479,-662.3131 608.8883,-671.0634 641,-643 702.1902,-589.5242 709.4527,-484.8246 709.134,-434.4321"/>
<polygon fill="#bf3eff" stroke="#bf3eff" points="712.6305,-434.1968 708.9597,-424.2583 705.6316,-434.3168 712.6305,-434.1968"/>
</g>
<!-- pages_publish&#45;&gt;poms_shared -->
<g id="edge15" class="edge">
<title>pages_publish&#45;&gt;poms_shared</title>
<path fill="none" stroke="#8fbc8f" d="M649.7709,-493.6682C700.0451,-487.2572 763.8317,-475.3244 780,-455 800.7517,-428.914 802.7739,-404.3405 780,-380 777.2871,-377.1005 317.8992,-348.1935 141.705,-337.207"/>
<polygon fill="#8fbc8f" stroke="#8fbc8f" points="141.7168,-333.701 131.5185,-336.5721 141.2813,-340.6874 141.7168,-333.701"/>
</g>
<!-- pages_publish&#45;&gt;poms_shared_backend -->
<g id="edge16" class="edge">
<title>pages_publish&#45;&gt;poms_shared_backend</title>
<path fill="none" stroke="#8fbc8f" d="M575.5523,-481.8759C568.3668,-468.0915 558.3611,-448.8968 550.2114,-433.2627"/>
<polygon fill="#8fbc8f" stroke="#8fbc8f" points="553.1448,-431.3182 545.4187,-424.0685 546.9375,-434.5539 553.1448,-431.3182"/>
</g>
<!-- pages_publish&#45;&gt;user_backend -->
<g id="edge17" class="edge">
<title>pages_publish&#45;&gt;user_backend</title>
<path fill="none" stroke="#8fbc8f" d="M607.5601,-482.759C627.2749,-467.6923 656.0592,-445.6946 677.7649,-429.1065"/>
<polygon fill="#8fbc8f" stroke="#8fbc8f" points="680.1766,-431.6685 685.9968,-422.8155 675.9261,-426.1067 680.1766,-431.6685"/>
</g>
<!-- images -->
<g id="node17" class="node">
<title>images</title>
<g id="a_node17"><a xlink:href="https://subversion.vpro.nl/viewvc/nl/vpro/images/" xlink:title="Images Frontend &amp; Backend">
<ellipse fill="none" stroke="#caff70" cx="983" cy="-688" rx="115.8798" ry="18"/>
<text text-anchor="middle" x="983" y="-684.3" font-family="Times,serif" font-size="14.00" fill="#0000ff">Images Frontend &amp; Backend</text>
</a>
</g>
</g>
<!-- images&#45;&gt;poms_shared -->
<g id="edge23" class="edge">
<title>images&#45;&gt;poms_shared</title>
<path fill="none" stroke="#caff70" d="M1083.0356,-678.9402C1126.3295,-672.4179 1169.359,-661.4006 1179,-643 1247.7822,-511.7245 1110.8082,-436.9891 974,-380 935.8027,-364.0885 346.0229,-342.3751 142.4618,-335.3177"/>
<polygon fill="#caff70" stroke="#caff70" points="142.314,-331.8106 132.1991,-334.963 142.0722,-338.8065 142.314,-331.8106"/>
</g>
<!-- images&#45;&gt;spring -->
<g id="edge24" class="edge">
<title>images&#45;&gt;spring</title>
<path fill="none" stroke="#caff70" d="M1084.6522,-679.2944C1147.6123,-672.8433 1218.2869,-663.2447 1228,-652 1311.5962,-555.2227 1275.6015,-449.2104 1176,-369 1161.7277,-357.5063 1152.918,-366.0415 1136,-359 1131.5048,-357.129 1126.9258,-354.8381 1122.5132,-352.3991"/>
<polygon fill="#caff70" stroke="#caff70" points="1124.1665,-349.3112 1113.7697,-347.2723 1120.6257,-355.3497 1124.1665,-349.3112"/>
</g>
<!-- images&#45;&gt;hibernate -->
<g id="edge25" class="edge">
<title>images&#45;&gt;hibernate</title>
<path fill="none" stroke="#caff70" d="M1094.0349,-682.7653C1162.4511,-677.2535 1241.7648,-665.984 1267,-643 1284.7861,-626.8006 1290,-618.0575 1290,-594 1290,-594 1290,-594 1290,-406 1290,-377.0928 1262.4029,-358.4113 1236.2038,-347.1894"/>
<polygon fill="#caff70" stroke="#caff70" points="1237.2536,-343.84 1226.6685,-343.3873 1234.661,-350.3422 1237.2536,-343.84"/>
</g>
<!-- images&#45;&gt;user_backend -->
<g id="edge26" class="edge">
<title>images&#45;&gt;user_backend</title>
<path fill="none" stroke="#caff70" d="M1079.6882,-677.9778C1111.8804,-672.4975 1142.0914,-664.2417 1152,-652 1178.5641,-619.1813 1176.5837,-591.3272 1152,-557 1106.5463,-493.5313 880.0542,-440.42 769.2515,-417.7624"/>
<polygon fill="#caff70" stroke="#caff70" points="769.7174,-414.2857 759.2215,-415.73 768.3272,-421.1463 769.7174,-414.2857"/>
</g>
<!-- magnolia -->
<g id="node20" class="node">
<title>magnolia</title>
<ellipse fill="none" stroke="#000000" cx="116" cy="-594" rx="44.6926" ry="18"/>
<text text-anchor="middle" x="116" y="-590.3" font-family="Times,serif" font-size="14.00" fill="#000000">magnolia</text>
</g>
<!-- magnolia&#45;&gt;vpro_shared -->
<g id="edge27" class="edge">
<title>magnolia&#45;&gt;vpro_shared</title>
<path fill="none" stroke="#8b8878" d="M128.0157,-576.5122C133.3131,-568.3666 139.3718,-558.4134 144,-549 159.6987,-517.07 153.0855,-504.1366 172,-474 202.7472,-425.0103 209.8613,-405.0387 262,-380 303.0607,-360.2814 595.0031,-343.0951 727.6738,-336.208"/>
<polygon fill="#8b8878" stroke="#8b8878" points="727.9047,-339.7008 737.7113,-335.6908 727.5444,-332.7101 727.9047,-339.7008"/>
</g>
<!-- magnolia&#45;&gt;api_client -->
<g id="edge28" class="edge">
<title>magnolia&#45;&gt;api_client</title>
<path fill="none" stroke="#8b8878" d="M109.6373,-575.8759C104.8437,-562.2215 98.1865,-543.2585 92.7266,-527.7061"/>
<polygon fill="#8b8878" stroke="#8b8878" points="95.9581,-526.3446 89.3432,-518.0685 89.3533,-528.6633 95.9581,-526.3446"/>
</g>
<!-- vpro_rs -->
<g id="node21" class="node">
<title>vpro_rs</title>
<ellipse fill="none" stroke="#000000" cx="217" cy="-594" rx="38.1938" ry="18"/>
<text text-anchor="middle" x="217" y="-590.3" font-family="Times,serif" font-size="14.00" fill="#000000">vpro_rs</text>
</g>
<!-- vpro_rs&#45;&gt;vpro_shared -->
<g id="edge29" class="edge">
<title>vpro_rs&#45;&gt;vpro_shared</title>
<path fill="none" stroke="#8b8878" d="M218.0336,-575.5857C220.2805,-550.4097 227.407,-504.857 250,-474 295.3712,-412.0329 321.6423,-402.7403 395,-380 415.3836,-373.6812 761.6011,-382.3571 779,-370 782.3685,-367.6077 784.9269,-364.2966 786.87,-360.6306"/>
<polygon fill="#8b8878" stroke="#8b8878" points="790.2097,-361.6976 790.5434,-351.108 783.6788,-359.1782 790.2097,-361.6976"/>
</g>
<!-- vpro_rs&#45;&gt;poms_shared -->
<g id="edge30" class="edge">
<title>vpro_rs&#45;&gt;poms_shared</title>
<path fill="none" stroke="#8b8878" d="M211.7678,-575.9179C204.4741,-551.8966 190.0868,-508.4819 172,-474 149.5368,-431.1746 116.1916,-386.007 94.7754,-358.6614"/>
<polygon fill="#8b8878" stroke="#8b8878" points="97.4841,-356.4441 88.5371,-350.7693 91.9925,-360.7849 97.4841,-356.4441"/>
</g>
<!-- vpro_rs&#45;&gt;api_client -->
<g id="edge31" class="edge">
<title>vpro_rs&#45;&gt;api_client</title>
<path fill="none" stroke="#8b8878" d="M195.4706,-578.8973C173.4991,-563.4845 139.1753,-539.4066 114.2215,-521.9017"/>
<polygon fill="#8b8878" stroke="#8b8878" points="116.018,-518.8866 105.8214,-516.0091 111.998,-524.6172 116.018,-518.8866"/>
</g>
<!-- vpro_rs&#45;&gt;poms_shared_backend -->
<g id="edge32" class="edge">
<title>vpro_rs&#45;&gt;poms_shared_backend</title>
<path fill="none" stroke="#8b8878" d="M232.8055,-577.5258C238.0088,-571.6341 243.5862,-564.7714 248,-558 270.58,-523.3594 256.2939,-500.5433 288,-474 313.7109,-452.4757 394.6359,-432.7986 457.1264,-420.2118"/>
<polygon fill="#8b8878" stroke="#8b8878" points="457.8597,-423.6346 466.9862,-418.2533 456.4959,-416.7687 457.8597,-423.6346"/>
</g>
</g>
</svg>
