<?xml version="1.0" encoding="UTF-8" standalone="no"?>
<!DOCTYPE svg PUBLIC "-//W3C//DTD SVG 1.1//EN"
 "http://www.w3.org/Graphics/SVG/1.1/DTD/svg11.dtd">
<!-- Generated by graphviz version 2.40.1 (20161225.0304)
 -->
<!-- Title: poms_universe Pages: 1 -->
<svg width="1159pt" height="507pt"
 viewBox="0.00 0.00 1159.04 507.00" xmlns="http://www.w3.org/2000/svg" xmlns:xlink="http://www.w3.org/1999/xlink">
<g id="graph0" class="graph" transform="scale(1 1) rotate(0) translate(4 503)">
<title>poms_universe</title>
<polygon fill="#ffffff" stroke="transparent" points="-4,4 -4,-503 1155.0361,-503 1155.0361,4 -4,4"/>
<text text-anchor="middle" x="575.518" y="-7.8" font-family="Times,serif" font-size="14.00" fill="#000000">Deployments relevant for POMS</text>
<g id="clust1" class="cluster">
<title>cluster_0</title>
<polygon fill="none" stroke="#000000" points="599,-31 599,-178 945,-178 945,-31 599,-31"/>
<text text-anchor="middle" x="772" y="-162.8" font-family="Times,serif" font-size="14.00" fill="#000000">Generic backend services</text>
</g>
<g id="clust2" class="cluster">
<title>cluster_1</title>
<polygon fill="none" stroke="#000000" points="495,-344 495,-491 778,-491 778,-344 495,-344"/>
<text text-anchor="middle" x="636.5" y="-475.8" font-family="Times,serif" font-size="14.00" fill="#000000">World</text>
</g>
<g id="clust3" class="cluster">
<title>cluster_3</title>
<polygon fill="none" stroke="#000000" points="412,-186 412,-336 1116,-336 1116,-186 412,-186"/>
<text text-anchor="middle" x="764" y="-320.8" font-family="Times,serif" font-size="14.00" fill="#000000">POMS &#160;Services</text>
</g>
<g id="clust4" class="cluster">
<title>cluster_4</title>
<polygon fill="none" stroke="#000000" points="8,-103 8,-261 378,-261 378,-103 8,-103"/>
<text text-anchor="middle" x="193" y="-245.8" font-family="Times,serif" font-size="14.00" fill="#000000">NPO Services</text>
</g>
<!-- poms -->
<g id="node1" class="node">
<title>poms</title>
<g id="a_node1"><a xlink:href="https://poms.omroep.nl/" xlink:title="POMS">
<ellipse fill="none" stroke="#000000" cx="449" cy="-287" rx="29.4969" ry="18"/>
<text text-anchor="middle" x="449" y="-283.3" font-family="Times,serif" font-size="14.00" fill="#0000ff">POMS</text>
</a>
</g>
</g>
<!-- postgresql -->
<g id="node8" class="node">
<title>postgresql</title>
<ellipse fill="none" stroke="#000000" cx="826" cy="-129" rx="38.9931" ry="18"/>
<text text-anchor="middle" x="826" y="-125.3" font-family="Times,serif" font-size="14.00" fill="#000000">postgresql</text>
</g>
<!-- poms&#45;&gt;postgresql -->
<g id="edge9" class="edge">
<title>poms&#45;&gt;postgresql</title>
<path fill="none" stroke="#cd950c" d="M470.9576,-274.8097C476.0812,-272.4755 481.6171,-270.3433 487,-269 505.4548,-264.3945 641.6243,-270.6761 658,-261 691.6656,-241.1075 670.956,-206.9089 704,-186 731.9543,-168.3116 748.2372,-192.4395 778,-178 789.27,-172.5324 799.3823,-163.2853 807.3857,-154.2877"/>
<polygon fill="#cd950c" stroke="#cd950c" points="810.1276,-156.4648 813.8522,-146.5462 804.7552,-151.9772 810.1276,-156.4648"/>
</g>
<!-- sso -->
<g id="node10" class="node">
<title>sso</title>
<ellipse fill="none" stroke="#000000" cx="910" cy="-129" rx="27" ry="18"/>
<text text-anchor="middle" x="910" y="-125.3" font-family="Times,serif" font-size="14.00" fill="#000000">sso</text>
</g>
<!-- poms&#45;&gt;sso -->
<g id="edge10" class="edge">
<title>poms&#45;&gt;sso</title>
<path fill="none" stroke="#cd950c" d="M470.9494,-274.7765C476.0735,-272.444 481.6116,-270.321 487,-269 576.8522,-246.9728 605.0583,-282.6588 695,-261 780.2548,-240.4698 806.1269,-233.5258 874,-178 881.9201,-171.5207 889.004,-162.9224 894.7493,-154.739"/>
<polygon fill="#cd950c" stroke="#cd950c" points="897.838,-156.4136 900.4345,-146.1419 891.9991,-152.5525 897.838,-156.4136"/>
</g>
<!-- jms -->
<g id="node11" class="node">
<title>jms</title>
<ellipse fill="none" stroke="#000000" cx="742" cy="-129" rx="27" ry="18"/>
<text text-anchor="middle" x="742" y="-125.3" font-family="Times,serif" font-size="14.00" fill="#000000">jms</text>
</g>
<!-- poms&#45;&gt;jms -->
<g id="edge11" class="edge">
<title>poms&#45;&gt;jms</title>
<path fill="none" stroke="#cd950c" d="M470.9697,-274.8576C476.0927,-272.5209 481.6253,-270.3756 487,-269 516.3291,-261.4934 597.2615,-276.9397 623,-261 655.6663,-240.7699 634.8133,-208.4441 666,-186 680.7153,-175.4098 690.7099,-187.7419 706,-178 714.8539,-172.3588 722.2618,-163.7055 728.0109,-155.2317"/>
<polygon fill="#cd950c" stroke="#cd950c" points="731.0719,-156.9375 733.3927,-146.6 725.1319,-153.2339 731.0719,-156.9375"/>
</g>
<!-- ldap -->
<g id="node12" class="node">
<title>ldap</title>
<ellipse fill="none" stroke="#000000" cx="910" cy="-57" rx="27" ry="18"/>
<text text-anchor="middle" x="910" y="-53.3" font-family="Times,serif" font-size="14.00" fill="#000000">ldap</text>
</g>
<!-- poms&#45;&gt;ldap -->
<g id="edge12" class="edge">
<title>poms&#45;&gt;ldap</title>
<path fill="none" stroke="#cd950c" d="M453.8427,-269.1844C460.2655,-247.8455 473.1579,-211.7587 493,-186 529.301,-138.8746 543.3886,-126.583 598,-103 646.7675,-81.9406 800.8543,-66.3783 872.5863,-60.0787"/>
<polygon fill="#cd950c" stroke="#cd950c" points="873.2954,-63.5305 882.9568,-59.1823 872.6925,-56.5565 873.2954,-63.5305"/>
</g>
<!-- metis -->
<g id="node18" class="node">
<title>metis</title>
<ellipse fill="none" stroke="#000000" cx="343" cy="-129" rx="27" ry="18"/>
<text text-anchor="middle" x="343" y="-125.3" font-family="Times,serif" font-size="14.00" fill="#000000">metis</text>
</g>
<!-- poms&#45;&gt;metis -->
<g id="edge13" class="edge">
<title>poms&#45;&gt;metis</title>
<path fill="none" stroke="#cd950c" d="M431.9547,-272.019C428.4672,-268.5715 424.9617,-264.7971 422,-261 398.3686,-230.7031 398.819,-218.9174 379,-186 372.7138,-175.5593 365.5856,-164.182 359.3403,-154.3573"/>
<polygon fill="#cd950c" stroke="#cd950c" points="362.2347,-152.3866 353.9025,-145.8425 356.3351,-156.1543 362.2347,-152.3866"/>
</g>
<!-- pd -->
<g id="node19" class="node">
<title>pd</title>
<ellipse fill="none" stroke="#000000" cx="43" cy="-212" rx="27" ry="18"/>
<text text-anchor="middle" x="43" y="-208.3" font-family="Times,serif" font-size="14.00" fill="#000000">pd</text>
</g>
<!-- poms&#45;&gt;pd -->
<g id="edge14" class="edge">
<title>poms&#45;&gt;pd</title>
<path fill="none" stroke="#cd950c" d="M419.7359,-286.3493C337.5243,-284.3259 108.5385,-277.2776 79,-261 69.5699,-255.8034 61.9393,-246.969 56.1713,-238.2206"/>
<polygon fill="#cd950c" stroke="#cd950c" points="59.1702,-236.416 51.0265,-229.6388 53.1665,-240.0153 59.1702,-236.416"/>
</g>
<!-- prepr -->
<g id="node20" class="node">
<title>prepr</title>
<ellipse fill="none" stroke="#000000" cx="343" cy="-212" rx="27" ry="18"/>
<text text-anchor="middle" x="343" y="-208.3" font-family="Times,serif" font-size="14.00" fill="#000000">prepr</text>
</g>
<!-- poms&#45;&gt;prepr -->
<g id="edge15" class="edge">
<title>poms&#45;&gt;prepr</title>
<path fill="none" stroke="#cd950c" d="M422.1845,-279.6018C409.8307,-275.3893 395.4147,-269.2751 384,-261 374.9746,-254.457 366.7168,-245.4995 360.0148,-237.0317"/>
<polygon fill="#cd950c" stroke="#cd950c" points="362.6636,-234.7302 353.8606,-228.8346 357.0657,-238.9331 362.6636,-234.7302"/>
</g>
<!-- miranda -->
<g id="node21" class="node">
<title>miranda</title>
<ellipse fill="none" stroke="#000000" cx="265" cy="-212" rx="33.2948" ry="18"/>
<text text-anchor="middle" x="265" y="-208.3" font-family="Times,serif" font-size="14.00" fill="#000000">miranda</text>
</g>
<!-- poms&#45;&gt;miranda -->
<g id="edge16" class="edge">
<title>poms&#45;&gt;miranda</title>
<path fill="none" stroke="#cd950c" d="M420.136,-284.0151C384.3736,-279.9252 325.8503,-271.8338 307,-261 296.9883,-255.246 288.2305,-246.1832 281.3397,-237.4083"/>
<polygon fill="#cd950c" stroke="#cd950c" points="284.0593,-235.1982 275.3252,-229.201 278.4131,-239.3359 284.0593,-235.1982"/>
</g>
<!-- pluto -->
<g id="node22" class="node">
<title>pluto</title>
<ellipse fill="none" stroke="#000000" cx="187" cy="-212" rx="27" ry="18"/>
<text text-anchor="middle" x="187" y="-208.3" font-family="Times,serif" font-size="14.00" fill="#000000">pluto</text>
</g>
<!-- poms&#45;&gt;pluto -->
<g id="edge17" class="edge">
<title>poms&#45;&gt;pluto</title>
<path fill="none" stroke="#cd950c" d="M419.4184,-286.4952C365.9451,-285.114 255.7073,-279.9819 223,-261 213.7845,-255.6517 206.2395,-246.9033 200.4803,-238.2674"/>
<polygon fill="#cd950c" stroke="#cd950c" points="203.3118,-236.187 195.1299,-229.456 197.3284,-239.8202 203.3118,-236.187"/>
</g>
<!-- nep -->
<g id="node23" class="node">
<title>nep</title>
<ellipse fill="none" stroke="#000000" cx="115" cy="-212" rx="27" ry="18"/>
<text text-anchor="middle" x="115" y="-208.3" font-family="Times,serif" font-size="14.00" fill="#000000">nep</text>
</g>
<!-- poms&#45;&gt;nep -->
<g id="edge18" class="edge">
<title>poms&#45;&gt;nep</title>
<path fill="none" stroke="#cd950c" d="M419.7075,-285.8128C349.1825,-282.761 174.0598,-273.9622 151,-261 141.7118,-255.779 134.1514,-247.0575 128.4002,-238.4075"/>
<polygon fill="#cd950c" stroke="#cd950c" points="131.2294,-236.3217 123.0653,-229.569 125.2365,-239.939 131.2294,-236.3217"/>
</g>
<!-- poms_backend -->
<g id="node2" class="node">
<title>poms_backend</title>
<g id="a_node2"><a xlink:href="https://api.poms.omroep.nl/" xlink:title="POMS backend API">
<ellipse fill="none" stroke="#000000" cx="708" cy="-287" rx="66.0889" ry="18"/>
<text text-anchor="middle" x="708" y="-283.3" font-family="Times,serif" font-size="14.00" fill="#0000ff">POMS backend API</text>
</a>
</g>
</g>
<!-- poms_backend&#45;&gt;jms -->
<g id="edge19" class="edge">
<title>poms_backend&#45;&gt;jms</title>
<path fill="none" stroke="#ff7f00" d="M755.4691,-274.3356C761.1986,-270.9018 766.3159,-266.5399 770,-261 791.5616,-228.5773 773.3218,-182.6129 757.8746,-154.3585"/>
<polygon fill="#ff7f00" stroke="#ff7f00" points="760.8098,-152.4408 752.8046,-145.5006 754.7346,-155.9182 760.8098,-152.4408"/>
</g>
<!-- poms_backend&#45;&gt;ldap -->
<g id="edge20" class="edge">
<title>poms_backend&#45;&gt;ldap</title>
<path fill="none" stroke="#ff7f00" d="M751.8366,-273.4793C814.5619,-253.1143 924.7289,-213.2016 946,-178 963.2393,-149.4707 956.8652,-134.5128 946,-103 943.1015,-94.5932 937.9648,-86.5486 932.4634,-79.6043"/>
<polygon fill="#ff7f00" stroke="#ff7f00" points="935.1142,-77.3188 925.9499,-72.0021 929.7984,-81.8732 935.1142,-77.3188"/>
</g>
<!-- poms_backend&#45;&gt;metis -->
<g id="edge21" class="edge">
<title>poms_backend&#45;&gt;metis</title>
<path fill="none" stroke="#ff7f00" d="M660.6387,-274.2832C651.5227,-272.2198 642.0083,-270.3275 633,-269 602.1711,-264.4569 521.6008,-273.3715 493,-261 448.565,-241.7793 450.4634,-217.8484 414,-186 399.4085,-173.2553 382.5147,-159.6488 368.8676,-148.927"/>
<polygon fill="#ff7f00" stroke="#ff7f00" points="370.8751,-146.054 360.8395,-142.6575 366.5666,-151.571 370.8751,-146.054"/>
</g>
<!-- api -->
<g id="node3" class="node">
<title>api</title>
<g id="a_node3"><a xlink:href="https://rs.poms.omroep.nl/" xlink:title="NPO Frontend API">
<ellipse fill="none" stroke="#000000" cx="560" cy="-287" rx="63.8893" ry="18"/>
<text text-anchor="middle" x="560" y="-283.3" font-family="Times,serif" font-size="14.00" fill="#0000ff">NPO Frontend API</text>
</a>
</g>
</g>
<!-- elasticsearch -->
<g id="node9" class="node">
<title>elasticsearch</title>
<ellipse fill="none" stroke="#000000" cx="652" cy="-129" rx="45.4919" ry="18"/>
<text text-anchor="middle" x="652" y="-125.3" font-family="Times,serif" font-size="14.00" fill="#000000">elasticsearch</text>
</g>
<!-- api&#45;&gt;elasticsearch -->
<g id="edge22" class="edge">
<title>api&#45;&gt;elasticsearch</title>
<path fill="none" stroke="#6495ed" d="M605.9009,-274.3518C612.3576,-270.9016 618.3622,-266.5305 623,-261 647.4643,-231.8264 652.5663,-186.6014 653.0227,-157.3954"/>
<polygon fill="#6495ed" stroke="#6495ed" points="656.522,-157.0457 653.0008,-147.0531 649.5221,-157.0605 656.522,-157.0457"/>
</g>
<!-- pages_publish -->
<g id="node4" class="node">
<title>pages_publish</title>
<g id="a_node4"><a xlink:href="https://publish.pages.omroep.nl/" xlink:title="Pages Publisher">
<ellipse fill="none" stroke="#000000" cx="846" cy="-287" rx="53.8905" ry="18"/>
<text text-anchor="middle" x="846" y="-283.3" font-family="Times,serif" font-size="14.00" fill="#0000ff">Pages Publisher</text>
</a>
</g>
</g>
<!-- media_publish -->
<g id="node5" class="node">
<title>media_publish</title>
<ellipse fill="none" stroke="#000000" cx="558" cy="-212" rx="55.7903" ry="18"/>
<text text-anchor="middle" x="558" y="-208.3" font-family="Times,serif" font-size="14.00" fill="#000000">Media Publisher</text>
</g>
<!-- pages_publish&#45;&gt;media_publish -->
<g id="edge27" class="edge">
<title>pages_publish&#45;&gt;media_publish</title>
<path fill="none" stroke="#c0c0c0" d="M805.0443,-275.1046C797.7146,-273.031 790.1392,-270.9237 783,-269 720.7461,-252.2252 648.4189,-234.1533 602.928,-222.9583"/>
</g>
<!-- pages_publish&#45;&gt;elasticsearch -->
<g id="edge23" class="edge">
<title>pages_publish&#45;&gt;elasticsearch</title>
<path fill="none" stroke="#8fbc8f" d="M823.7696,-270.509C795.8091,-249.5826 746.5498,-212.1003 706,-178 696.4081,-169.9337 686.1592,-160.7782 677.1958,-152.5822"/>
<polygon fill="#8fbc8f" stroke="#8fbc8f" points="679.4258,-149.8777 669.6988,-145.6781 674.6838,-155.0269 679.4258,-149.8777"/>
</g>
<!-- pages_publish&#45;&gt;ldap -->
<g id="edge24" class="edge">
<title>pages_publish&#45;&gt;ldap</title>
<path fill="none" stroke="#8fbc8f" d="M885.4926,-274.7045C892.9263,-272.6268 900.6675,-270.6212 908,-269 919.4158,-266.4759 951.4391,-268.9626 960,-261 1011.7894,-212.8302 1012.3736,-165.3592 979,-103 971.2725,-88.561 956.7892,-77.8716 943.0795,-70.4503"/>
<polygon fill="#8fbc8f" stroke="#8fbc8f" points="944.3157,-67.1559 933.8043,-65.8287 941.1938,-73.4212 944.3157,-67.1559"/>
</g>
<!-- media_publish&#45;&gt;elasticsearch -->
<g id="edge25" class="edge">
<title>media_publish&#45;&gt;elasticsearch</title>
<path fill="none" stroke="#bf3eff" d="M577.4769,-194.8023C591.3981,-182.5102 610.2933,-165.8261 625.5738,-152.3338"/>
<polygon fill="#bf3eff" stroke="#bf3eff" points="628.0101,-154.8518 633.1895,-145.6092 623.3768,-149.6045 628.0101,-154.8518"/>
</g>
<!-- media_publish&#45;&gt;jms -->
<g id="edge26" class="edge">
<title>media_publish&#45;&gt;jms</title>
<path fill="none" stroke="#bf3eff" d="M591.6476,-197.5362C603.0053,-193.1865 615.8792,-188.8242 628,-186 644.9697,-182.046 690.8762,-186.653 706,-178 715.2483,-172.7086 722.8003,-163.9723 728.5558,-155.3301"/>
<polygon fill="#bf3eff" stroke="#bf3eff" points="731.713,-156.8734 733.8993,-146.5066 725.7253,-153.2473 731.713,-156.8734"/>
</g>
<!-- images_frontend -->
<g id="node6" class="node">
<title>images_frontend</title>
<g id="a_node6"><a xlink:href="https://images.poms.omroep.nl" xlink:title="Images">
<ellipse fill="none" stroke="#000000" cx="948" cy="-287" rx="30.5947" ry="18"/>
<text text-anchor="middle" x="948" y="-283.3" font-family="Times,serif" font-size="14.00" fill="#0000ff">Images</text>
</a>
</g>
</g>
<!-- images_frontend&#45;&gt;postgresql -->
<g id="edge28" class="edge">
<title>images_frontend&#45;&gt;postgresql</title>
<path fill="none" stroke="#000000" d="M935.1744,-270.3899C913.8339,-242.7521 870.896,-187.144 845.6953,-154.507"/>
<polygon fill="#000000" stroke="#000000" points="848.2743,-152.1202 839.3923,-146.3442 842.7337,-156.3983 848.2743,-152.1202"/>
</g>
<!-- images_backend -->
<g id="node7" class="node">
<title>images_backend</title>
<g id="a_node7"><a xlink:href="https://images-backend.poms.omroep.nl" xlink:title="Images Backend">
<ellipse fill="none" stroke="#000000" cx="1052" cy="-287" rx="55.7903" ry="18"/>
<text text-anchor="middle" x="1052" y="-283.3" font-family="Times,serif" font-size="14.00" fill="#0000ff">Images Backend</text>
</a>
</g>
</g>
<!-- images_backend&#45;&gt;postgresql -->
<g id="edge29" class="edge">
<title>images_backend&#45;&gt;postgresql</title>
<path fill="none" stroke="#000000" d="M1017.9034,-272.7C1011.0753,-269.2591 1004.1244,-265.3147 998,-261 959.2052,-233.6685 964.2678,-207.575 922,-186 902.7368,-176.1673 893.1793,-187.9954 874,-178 862.8917,-172.2109 852.8082,-162.9065 844.7827,-153.953"/>
<polygon fill="#000000" stroke="#000000" points="847.4161,-151.6467 838.2857,-146.2722 842.0717,-156.1675 847.4161,-151.6467"/>
</g>
<!-- images_backend&#45;&gt;sso -->
<g id="edge30" class="edge">
<title>images_backend&#45;&gt;sso</title>
<path fill="none" stroke="#000000" d="M1045.5583,-268.8875C1037.1851,-247.2563 1020.8796,-210.8818 998,-186 982.0522,-168.6566 959.7344,-154.2795 941.5651,-144.3029"/>
<polygon fill="#000000" stroke="#000000" points="942.972,-141.0873 932.4976,-139.4945 939.6925,-147.2716 942.972,-141.0873"/>
</g>
<!-- images_backend&#45;&gt;jms -->
<g id="edge31" class="edge">
<title>images_backend&#45;&gt;jms</title>
<path fill="none" stroke="#000000" d="M1011.2564,-274.5334C1003.5807,-272.4723 995.5831,-270.5166 988,-269 959.0258,-263.2052 950.0317,-270.3439 922,-261 851.9207,-237.6402 833.0451,-227.2628 778,-178 770.3749,-171.1759 763.3626,-162.494 757.5924,-154.3397"/>
<polygon fill="#000000" stroke="#000000" points="760.3377,-152.1503 751.8483,-145.8114 754.5318,-156.0608 760.3377,-152.1503"/>
</g>
<!-- images_backend&#45;&gt;ldap -->
<g id="edge32" class="edge">
<title>images_backend&#45;&gt;ldap</title>
<path fill="none" stroke="#000000" d="M1052.4019,-268.8383C1052.216,-232.7045 1046.7344,-151.1465 1004,-103 988.4204,-85.4473 964.6298,-73.8963 944.8814,-66.7593"/>
<polygon fill="#000000" stroke="#000000" points="945.8714,-63.3995 935.2772,-63.5123 943.6294,-70.0307 945.8714,-63.3995"/>
</g>
<!-- sso&#45;&gt;ldap -->
<g id="edge36" class="edge">
<title>sso&#45;&gt;ldap</title>
<path fill="none" stroke="#c0c0c0" d="M910,-110.8314C910,-103.131 910,-93.9743 910,-85.4166"/>
<polygon fill="#c0c0c0" stroke="#c0c0c0" points="913.5001,-85.4132 910,-75.4133 906.5001,-85.4133 913.5001,-85.4132"/>
</g>
<!-- magnolia_frontend -->
<g id="node13" class="node">
<title>magnolia_frontend</title>
<ellipse fill="none" stroke="#000000" cx="565" cy="-370" rx="62.2891" ry="18"/>
<text text-anchor="middle" x="565" y="-366.3" font-family="Times,serif" font-size="14.00" fill="#000000">magnolia_frontend</text>
</g>
<!-- magnolia_frontend&#45;&gt;api -->
<g id="edge35" class="edge">
<title>magnolia_frontend&#45;&gt;api</title>
<path fill="none" stroke="#c0c0c0" d="M563.9151,-351.9902C563.2709,-341.2963 562.4397,-327.4994 561.7091,-315.3706"/>
<polygon fill="#c0c0c0" stroke="#c0c0c0" points="565.1952,-315.0326 561.1001,-305.2612 558.2078,-315.4536 565.1952,-315.0326"/>
</g>
<!-- magnolia_backend -->
<g id="node14" class="node">
<title>magnolia_backend</title>
<ellipse fill="none" stroke="#000000" cx="708" cy="-370" rx="62.2891" ry="18"/>
<text text-anchor="middle" x="708" y="-366.3" font-family="Times,serif" font-size="14.00" fill="#000000">magnolia_backend</text>
</g>
<!-- magnolia_backend&#45;&gt;poms_backend -->
<g id="edge33" class="edge">
<title>magnolia_backend&#45;&gt;poms_backend</title>
<path fill="none" stroke="#c0c0c0" d="M708,-351.9902C708,-341.2963 708,-327.4994 708,-315.3706"/>
<polygon fill="#c0c0c0" stroke="#c0c0c0" points="711.5001,-315.2612 708,-305.2612 704.5001,-315.2613 711.5001,-315.2612"/>
</g>
<!-- magnolia_backend&#45;&gt;pages_publish -->
<g id="edge34" class="edge">
<title>magnolia_backend&#45;&gt;pages_publish</title>
<path fill="none" stroke="#c0c0c0" d="M744.7373,-355.4102C757.2055,-349.9234 771.0072,-343.2433 783,-336 795.3816,-328.5219 808.1411,-318.9948 818.9115,-310.3332"/>
<polygon fill="#c0c0c0" stroke="#c0c0c0" points="821.2093,-312.9752 826.7207,-303.9267 816.7695,-307.5633 821.2093,-312.9752"/>
</g>
<!-- users -->
<g id="node15" class="node">
<title>users</title>
<ellipse fill="none" stroke="#000000" cx="539" cy="-442" rx="27" ry="18"/>
<text text-anchor="middle" x="539" y="-438.3" font-family="Times,serif" font-size="14.00" fill="#000000">users</text>
</g>
<!-- users&#45;&gt;api -->
<g id="edge4" class="edge">
<title>users&#45;&gt;api</title>
<path fill="none" stroke="#c0c0c0" d="M559.8866,-430.2887C564.7362,-427.9297 569.9575,-425.6663 575,-424 662.4181,-395.112 719.825,-458.532 779,-388 791.569,-373.0187 792.4443,-358.2011 779,-344 767.8306,-332.2019 648.4067,-341.1561 633,-336 616.614,-330.5162 600.4453,-320.3008 587.5059,-310.6107"/>
<polygon fill="#c0c0c0" stroke="#c0c0c0" points="589.5391,-307.7579 579.4993,-304.3738 585.2374,-313.2802 589.5391,-307.7579"/>
</g>
<!-- users&#45;&gt;images_frontend -->
<g id="edge5" class="edge">
<title>users&#45;&gt;images_frontend</title>
<path fill="none" stroke="#c0c0c0" d="M559.8696,-430.2367C564.7201,-427.8803 569.9461,-425.6312 575,-424 721.0895,-376.8481 788.3528,-430.9193 909,-336 917.3714,-329.4138 925.0471,-320.6924 931.3336,-312.4346"/>
<polygon fill="#c0c0c0" stroke="#c0c0c0" points="934.3321,-314.261 937.3528,-304.1059 928.6586,-310.1607 934.3321,-314.261"/>
</g>
<!-- users&#45;&gt;magnolia_frontend -->
<g id="edge6" class="edge">
<title>users&#45;&gt;magnolia_frontend</title>
<path fill="none" stroke="#c0c0c0" d="M545.427,-424.2022C548.3114,-416.2146 551.7817,-406.6045 554.9941,-397.7087"/>
<polygon fill="#c0c0c0" stroke="#c0c0c0" points="558.3618,-398.6874 558.4664,-388.0931 551.7779,-396.3099 558.3618,-398.6874"/>
</g>
<!-- backendsystems -->
<g id="node16" class="node">
<title>backendsystems</title>
<ellipse fill="none" stroke="#000000" cx="715" cy="-442" rx="55.4913" ry="18"/>
<text text-anchor="middle" x="715" y="-438.3" font-family="Times,serif" font-size="14.00" fill="#000000">backendsystems</text>
</g>
<!-- backendsystems&#45;&gt;poms_backend -->
<g id="edge7" class="edge">
<title>backendsystems&#45;&gt;poms_backend</title>
<path fill="none" stroke="#c0c0c0" d="M766.8672,-435.5347C796.5449,-428.8812 831.461,-415.3828 850,-388 860.9634,-371.8067 862.9823,-358.6246 850,-344 840.0455,-332.7862 797.0918,-341.1244 783,-336 766.573,-330.0264 750.115,-319.8545 736.8189,-310.3215"/>
<polygon fill="#c0c0c0" stroke="#c0c0c0" points="738.6863,-307.3488 728.5703,-304.1997 734.5146,-312.9699 738.6863,-307.3488"/>
</g>
<!-- backendsystems&#45;&gt;pages_publish -->
<g id="edge8" class="edge">
<title>backendsystems&#45;&gt;pages_publish</title>
<path fill="none" stroke="#c0c0c0" d="M760.9898,-431.9285C801.2712,-422.0648 855.31,-405.9361 868,-388 883.4395,-366.1779 873.4632,-335.5557 862.4209,-313.7625"/>
<polygon fill="#c0c0c0" stroke="#c0c0c0" points="865.3666,-311.852 857.5276,-304.7247 859.211,-315.1849 865.3666,-311.852"/>
</g>
<!-- editors -->
<g id="node17" class="node">
<title>editors</title>
<ellipse fill="none" stroke="#000000" cx="613" cy="-442" rx="29.4969" ry="18"/>
<text text-anchor="middle" x="613" y="-438.3" font-family="Times,serif" font-size="14.00" fill="#000000">editors</text>
</g>
<!-- editors&#45;&gt;poms -->
<g id="edge1" class="edge">
<title>editors&#45;&gt;poms</title>
<path fill="none" stroke="#c0c0c0" d="M635.6393,-430.5148C640.6316,-428.1974 645.9411,-425.8942 651,-424 706.3437,-403.2776 743.3152,-435.1056 779,-388 790.8085,-372.4122 792.6372,-358.0159 779,-344 767.6831,-332.3688 501.4739,-343.3391 487,-336 477.0624,-330.9611 468.949,-321.9872 462.8091,-313.0839"/>
<polygon fill="#c0c0c0" stroke="#c0c0c0" points="465.6111,-310.9642 457.3325,-304.3524 459.681,-314.6837 465.6111,-310.9642"/>
</g>
<!-- editors&#45;&gt;sso -->
<g id="edge2" class="edge">
<title>editors&#45;&gt;sso</title>
<path fill="none" stroke="#c0c0c0" d="M635.4942,-430.0926C640.4956,-427.8015 645.8454,-425.6158 651,-424 853.3725,-360.5638 985.9787,-500.3687 1120,-336 1162.1288,-284.3317 1160.4983,-238.956 1120,-186 1099.0335,-158.584 1001.0108,-141.2659 946.6134,-133.5981"/>
<polygon fill="#c0c0c0" stroke="#c0c0c0" points="947.0544,-130.1259 936.6718,-132.2356 946.1039,-137.061 947.0544,-130.1259"/>
</g>
<!-- editors&#45;&gt;magnolia_backend -->
<g id="edge3" class="edge">
<title>editors&#45;&gt;magnolia_backend</title>
<path fill="none" stroke="#c0c0c0" d="M631.7689,-427.7751C644.8177,-417.8855 662.5,-404.4842 677.5496,-393.0782"/>
<polygon fill="#c0c0c0" stroke="#c0c0c0" points="679.7378,-395.8114 685.5935,-386.9818 675.5097,-390.2326 679.7378,-395.8114"/>
</g>
<!-- pd&#45;&gt;metis -->
<g id="edge38" class="edge">
<title>pd&#45;&gt;metis</title>
<path fill="none" stroke="#c0c0c0" d="M59.6866,-197.7558C65.4865,-193.4207 72.2392,-189.0116 79,-186 155.3361,-151.996 253.3365,-137.7118 305.8394,-132.171"/>
<polygon fill="#c0c0c0" stroke="#c0c0c0" points="306.4215,-135.6302 316.0209,-131.1467 305.7208,-128.6653 306.4215,-135.6302"/>
</g>
<!-- prepr&#45;&gt;metis -->
<g id="edge37" class="edge">
<title>prepr&#45;&gt;metis</title>
<path fill="none" stroke="#c0c0c0" d="M343,-193.9902C343,-183.2963 343,-169.4994 343,-157.3706"/>
<polygon fill="#c0c0c0" stroke="#c0c0c0" points="346.5001,-157.2612 343,-147.2612 339.5001,-157.2613 346.5001,-157.2612"/>
</g>
</g>
</svg>
