<?xml version="1.0" encoding="UTF-8" standalone="no"?>
<!DOCTYPE svg PUBLIC "-//W3C//DTD SVG 1.1//EN"
 "http://www.w3.org/Graphics/SVG/1.1/DTD/svg11.dtd">
<!-- Generated by graphviz version 2.40.1 (20161225.0304)
 -->
<!-- Title: %3 Pages: 1 -->
<svg width="715pt" height="633pt"
 viewBox="0.00 0.00 715.00 633.00" xmlns="http://www.w3.org/2000/svg" xmlns:xlink="http://www.w3.org/1999/xlink">
<g id="graph0" class="graph" transform="scale(1 1) rotate(0) translate(4 629)">
<title>%3</title>
<polygon fill="#ffffff" stroke="transparent" points="-4,4 -4,-629 711,-629 711,4 -4,4"/>
<text text-anchor="middle" x="353.5" y="-7.8" font-family="Times,serif" font-size="14.00" fill="#000000"> &#160;&#160;&#160;Dependencies of the different code projects relevant to POMS</text>
<g id="clust1" class="cluster">
<title>cluster_0</title>
<polygon fill="none" stroke="#000000" points="56,-47 56,-137 525,-137 525,-47 56,-47"/>
<text text-anchor="middle" x="290.5" y="-121.8" font-family="Times,serif" font-size="14.00" fill="#000000">Generic utilities</text>
<text text-anchor="middle" x="290.5" y="-106.8" font-family="Times,serif" font-size="14.00" fill="#000000">(incoming edges are just examples, there are more)</text>
</g>
<g id="clust2" class="cluster">
<title>cluster_1</title>
<polygon fill="none" stroke="#000000" points="521,-542 521,-617 609,-617 609,-542 521,-542"/>
<text text-anchor="middle" x="565" y="-601.8" font-family="Times,serif" font-size="14.00" fill="#000000">VPRO</text>
</g>
<g id="clust3" class="cluster">
<title>cluster_2</title>
<polygon fill="none" stroke="#000000" points="8,-229 8,-617 300,-617 300,-229 8,-229"/>
<text text-anchor="middle" x="154" y="-601.8" font-family="Times,serif" font-size="14.00" fill="#000000">POMS Services</text>
</g>
<g id="clust4" class="cluster">
<title>cluster_4</title>
<polygon fill="none" stroke="#000000" points="481,-156 481,-523 611,-523 611,-156 481,-156"/>
<text text-anchor="middle" x="546" y="-507.8" font-family="Times,serif" font-size="14.00" fill="#000000">Sharable utilities</text>
</g>
<!-- vpro_shared -->
<g id="node1" class="node">
<title>vpro_shared</title>
<g id="a_node1"><a xlink:href="https://github.com/vpro/vpro-shared" xlink:title="vpro_shared">
<ellipse fill="none" stroke="#000000" cx="553" cy="-182" rx="44.393" ry="18"/>
<text text-anchor="middle" x="553" y="-178.3" font-family="Times,serif" font-size="14.00" fill="#0000ff">vpro_shared</text>
</a>
</g>
</g>
<!-- slf4j -->
<g id="node10" class="node">
<title>slf4j</title>
<ellipse fill="none" stroke="#000000" cx="335" cy="-73" rx="27" ry="18"/>
<text text-anchor="middle" x="335" y="-69.3" font-family="Times,serif" font-size="14.00" fill="#000000">slf4j</text>
</g>
<!-- vpro_shared&#45;&gt;slf4j -->
<g id="edge1" class="edge">
<title>vpro_shared&#45;&gt;slf4j</title>
<path fill="none" stroke="#000000" d="M511.3969,-175.6418C464.7667,-167.846 392.8238,-153.6043 371,-137 358.8728,-127.7732 350.2219,-113.2099 344.445,-100.3051"/>
<polygon fill="#000000" stroke="#000000" points="347.6106,-98.7996 340.5776,-90.8758 341.1342,-101.456 347.6106,-98.7996"/>
</g>
<!-- guava -->
<g id="node11" class="node">
<title>guava</title>
<ellipse fill="none" stroke="#000000" cx="490" cy="-73" rx="27.0966" ry="18"/>
<text text-anchor="middle" x="490" y="-69.3" font-family="Times,serif" font-size="14.00" fill="#000000">guava</text>
</g>
<!-- vpro_shared&#45;&gt;guava -->
<g id="edge2" class="edge">
<title>vpro_shared&#45;&gt;guava</title>
<path fill="none" stroke="#000000" d="M542.5968,-164.0009C532.3388,-146.2529 516.5566,-118.9471 504.9551,-98.8747"/>
<polygon fill="#000000" stroke="#000000" points="507.8306,-96.8554 499.7962,-89.949 501.7701,-100.3583 507.8306,-96.8554"/>
</g>
<!-- poms_shared -->
<g id="node2" class="node">
<title>poms_shared</title>
<g id="a_node2"><a xlink:href="https://github.com/npo-poms/poms-shared" xlink:title="poms_shared">
<ellipse fill="none" stroke="#000000" cx="536" cy="-328" rx="46.5926" ry="18"/>
<text text-anchor="middle" x="536" y="-324.3" font-family="Times,serif" font-size="14.00" fill="#0000ff">poms_shared</text>
</a>
</g>
</g>
<!-- poms_shared&#45;&gt;vpro_shared -->
<g id="edge3" class="edge">
<title>poms_shared&#45;&gt;vpro_shared</title>
<path fill="none" stroke="#000000" d="M538.1187,-309.8042C541.02,-284.8868 546.2589,-239.8938 549.6829,-210.4877"/>
<polygon fill="#000000" stroke="#000000" points="553.1745,-210.7628 550.8546,-200.4251 546.2214,-209.9532 553.1745,-210.7628"/>
</g>
<!-- api_client -->
<g id="node3" class="node">
<title>api_client</title>
<g id="a_node3"><a xlink:href="https://github.com/npo-poms/api-client" xlink:title="api_client">
<ellipse fill="none" stroke="#000000" cx="565" cy="-474" rx="37.8943" ry="18"/>
<text text-anchor="middle" x="565" y="-470.3" font-family="Times,serif" font-size="14.00" fill="#0000ff">api_client</text>
</a>
</g>
</g>
<!-- api_client&#45;&gt;vpro_shared -->
<g id="edge18" class="edge">
<title>api_client&#45;&gt;vpro_shared</title>
<path fill="none" stroke="#000000" d="M579.1993,-457.213C589.6335,-443.1416 602,-422.0287 602,-401 602,-401 602,-401 602,-255 602,-236.5449 591.0702,-219.2389 579.5346,-206.1131"/>
<polygon fill="#000000" stroke="#000000" points="581.7721,-203.3841 572.3661,-198.5078 576.6782,-208.1854 581.7721,-203.3841"/>
</g>
<!-- api_client&#45;&gt;poms_shared -->
<g id="edge17" class="edge">
<title>api_client&#45;&gt;poms_shared</title>
<path fill="none" stroke="#000000" d="M561.3858,-455.8042C556.4094,-430.7506 547.4017,-385.4015 541.563,-356.007"/>
<polygon fill="#000000" stroke="#000000" points="544.9499,-355.0929 539.5687,-345.9665 538.0841,-356.4568 544.9499,-355.0929"/>
</g>
<!-- poms_backend -->
<g id="node4" class="node">
<title>poms_backend</title>
<g id="a_node4"><a xlink:href="https://subversion.vpro.nl/viewvc/nl/vpro/media" xlink:title="POMS &amp; Backend API">
<ellipse fill="none" stroke="#000000" cx="91" cy="-401" rx="74.9875" ry="18"/>
<text text-anchor="middle" x="91" y="-397.3" font-family="Times,serif" font-size="14.00" fill="#0000ff">POMS &amp; Backend API</text>
</a>
</g>
</g>
<!-- poms_backend&#45;&gt;vpro_shared -->
<g id="edge22" class="edge">
<title>poms_backend&#45;&gt;vpro_shared</title>
<path fill="none" stroke="#000000" d="M147.2221,-388.9637C194.5634,-378.7936 254.7975,-365.7556 256,-365 282.2721,-348.4911 275.4655,-330.221 299,-310 354.6955,-262.146 377.1406,-261.4736 443,-229 465.19,-218.0587 490.549,-207.1223 511.3221,-198.5557"/>
<polygon fill="#000000" stroke="#000000" points="512.8847,-201.6982 520.8158,-194.6734 510.235,-195.219 512.8847,-201.6982"/>
</g>
<!-- poms_backend&#45;&gt;poms_shared -->
<g id="edge23" class="edge">
<title>poms_backend&#45;&gt;poms_shared</title>
<path fill="none" stroke="#000000" d="M145.5465,-388.6219C155.326,-386.5997 165.4445,-384.6347 175,-383 302.2041,-361.2388 336.1445,-369.7086 463,-346 471.0274,-344.4997 479.4911,-342.6577 487.6984,-340.7306"/>
<polygon fill="#000000" stroke="#000000" points="488.6369,-344.1046 497.5359,-338.355 486.9937,-337.3002 488.6369,-344.1046"/>
</g>
<!-- poms_gui -->
<g id="node5" class="node">
<title>poms_gui</title>
<g id="a_node5"><a xlink:href="https://subversion.vpro.nl/viewvc/nl/vpro/media-gui" xlink:title="Angular GUI for POMS">
<ellipse fill="none" stroke="#000000" cx="93" cy="-255" rx="76.8869" ry="18"/>
<text text-anchor="middle" x="93" y="-251.3" font-family="Times,serif" font-size="14.00" fill="#0000ff">Angular GUI for POMS</text>
</a>
</g>
</g>
<!-- poms_backend&#45;&gt;poms_gui -->
<g id="edge24" class="edge">
<title>poms_backend&#45;&gt;poms_gui</title>
<path fill="none" stroke="#000000" d="M91.2493,-382.8042C91.5906,-357.8868 92.2069,-312.8938 92.6098,-283.4877"/>
<polygon fill="#000000" stroke="#000000" points="96.1102,-283.4721 92.7476,-273.4251 89.1109,-283.3762 96.1102,-283.4721"/>
</g>
<!-- resteasy -->
<g id="node12" class="node">
<title>resteasy</title>
<ellipse fill="none" stroke="#000000" cx="412" cy="-73" rx="32.4942" ry="18"/>
<text text-anchor="middle" x="412" y="-69.3" font-family="Times,serif" font-size="14.00" fill="#000000">resteasy</text>
</g>
<!-- poms_backend&#45;&gt;resteasy -->
<g id="edge25" class="edge">
<title>poms_backend&#45;&gt;resteasy</title>
<path fill="none" stroke="#000000" d="M128.0304,-385.2479C147.9717,-375.6775 172.2529,-362.1852 191,-346 283.7925,-265.8882 297.7532,-235.3019 371,-137 380.0472,-124.8581 389.2215,-110.7422 396.5912,-98.8617"/>
<polygon fill="#000000" stroke="#000000" points="399.6073,-100.6382 401.843,-90.2819 393.6371,-96.9836 399.6073,-100.6382"/>
</g>
<!-- spring -->
<g id="node13" class="node">
<title>spring</title>
<ellipse fill="none" stroke="#000000" cx="172" cy="-73" rx="27.8951" ry="18"/>
<text text-anchor="middle" x="172" y="-69.3" font-family="Times,serif" font-size="14.00" fill="#000000">spring</text>
</g>
<!-- poms_backend&#45;&gt;spring -->
<g id="edge26" class="edge">
<title>poms_backend&#45;&gt;spring</title>
<path fill="none" stroke="#000000" d="M108.3889,-383.4098C129.839,-360.3456 165.162,-317.554 179,-273 197.3605,-213.8849 186.7743,-140.1817 178.6397,-100.8285"/>
<polygon fill="#000000" stroke="#000000" points="182.0282,-99.9393 176.4882,-90.9083 175.1873,-101.4229 182.0282,-99.9393"/>
</g>
<!-- hibernate -->
<g id="node14" class="node">
<title>hibernate</title>
<ellipse fill="none" stroke="#000000" cx="254" cy="-73" rx="36.2938" ry="18"/>
<text text-anchor="middle" x="254" y="-69.3" font-family="Times,serif" font-size="14.00" fill="#000000">hibernate</text>
</g>
<!-- poms_backend&#45;&gt;hibernate -->
<g id="edge27" class="edge">
<title>poms_backend&#45;&gt;hibernate</title>
<path fill="none" stroke="#000000" d="M120.2369,-384.3621C135.1749,-374.7017 152.7369,-361.4033 165,-346 224.6945,-271.0199 244.9239,-154.6888 251.297,-101.4039"/>
<polygon fill="#000000" stroke="#000000" points="254.7913,-101.65 252.4253,-91.3227 247.8347,-100.8714 254.7913,-101.65"/>
</g>
<!-- angular -->
<g id="node15" class="node">
<title>angular</title>
<ellipse fill="none" stroke="#000000" cx="95" cy="-73" rx="31.3957" ry="18"/>
<text text-anchor="middle" x="95" y="-69.3" font-family="Times,serif" font-size="14.00" fill="#000000">angular</text>
</g>
<!-- poms_gui&#45;&gt;angular -->
<g id="edge28" class="edge">
<title>poms_gui&#45;&gt;angular</title>
<path fill="none" stroke="#000000" d="M93.1991,-236.8838C93.548,-205.1323 94.2723,-139.2171 94.6882,-101.3704"/>
<polygon fill="#000000" stroke="#000000" points="98.1915,-101.0809 94.8017,-91.043 91.192,-101.0039 98.1915,-101.0809"/>
</g>
<!-- poms_shared_backend -->
<g id="node6" class="node">
<title>poms_shared_backend</title>
<g id="a_node6"><a xlink:href="https://subversion.vpro.nl/viewvc/nl/publiekeomroep/poms-shared-backend/" xlink:title="poms_shared_backend">
<ellipse fill="none" stroke="#000000" cx="381" cy="-328" rx="72.5877" ry="18"/>
<text text-anchor="middle" x="381" y="-324.3" font-family="Times,serif" font-size="14.00" fill="#0000ff">poms_shared_backend</text>
</a>
</g>
</g>
<!-- poms_shared_backend&#45;&gt;vpro_shared -->
<g id="edge4" class="edge">
<title>poms_shared_backend&#45;&gt;vpro_shared</title>
<path fill="none" stroke="#000000" d="M401.4061,-310.6786C432.3817,-284.3853 491.3088,-234.3658 525.863,-205.0349"/>
<polygon fill="#000000" stroke="#000000" points="528.3178,-207.5421 533.6766,-198.4024 523.7878,-202.2055 528.3178,-207.5421"/>
</g>
<!-- poms_shared_backend&#45;&gt;poms_shared -->
<g id="edge5" class="edge">
<title>poms_shared_backend&#45;&gt;poms_shared</title>
<path fill="none" stroke="#000000" d="M453.959,-328C462.237,-328 470.5151,-328 478.7931,-328"/>
<polygon fill="#000000" stroke="#000000" points="478.8905,-331.5001 488.8905,-328 478.8905,-324.5001 478.8905,-331.5001"/>
</g>
<!-- poms_shared_backend&#45;&gt;slf4j -->
<g id="edge6" class="edge">
<title>poms_shared_backend&#45;&gt;slf4j</title>
<path fill="none" stroke="#000000" d="M377.6918,-309.661C369.7515,-265.6441 349.5712,-153.7753 340.0802,-101.1617"/>
<polygon fill="#000000" stroke="#000000" points="343.498,-100.3926 338.2782,-91.1728 336.6092,-101.6353 343.498,-100.3926"/>
</g>
<!-- api -->
<g id="node7" class="node">
<title>api</title>
<g id="a_node7"><a xlink:href="https://subversion.vpro.nl/viewvc/nl/vpro/api/" xlink:title="Frontend API">
<ellipse fill="none" stroke="#000000" cx="244" cy="-568" rx="48.1917" ry="18"/>
<text text-anchor="middle" x="244" y="-564.3" font-family="Times,serif" font-size="14.00" fill="#0000ff">Frontend API</text>
</a>
</g>
</g>
<!-- api&#45;&gt;vpro_shared -->
<g id="edge9" class="edge">
<title>api&#45;&gt;vpro_shared</title>
<path fill="none" stroke="#000000" d="M291.0241,-563.6972C387.5927,-554.6637 600.2326,-533.6781 612,-523 640.8275,-496.8412 631,-476.427 631,-437.5 631,-437.5 631,-437.5 631,-291.5 631,-261.7446 624.0609,-253.3784 607,-229 600.5736,-219.8172 591.9739,-211.2718 583.5295,-204.0541"/>
<polygon fill="#000000" stroke="#000000" points="585.5217,-201.1627 575.5569,-197.5634 581.1022,-206.5912 585.5217,-201.1627"/>
</g>
<!-- api&#45;&gt;poms_shared -->
<g id="edge7" class="edge">
<title>api&#45;&gt;poms_shared</title>
<path fill="none" stroke="#000000" d="M289.9277,-562.4435C337.8433,-555.6837 408.5248,-542.678 427,-523 475.7536,-471.0725 470.1797,-445.1364 505,-383 510.17,-373.7743 515.8464,-363.6901 520.9131,-354.7051"/>
<polygon fill="#000000" stroke="#000000" points="524.0595,-356.251 525.9256,-345.8218 517.9631,-352.8109 524.0595,-356.251"/>
</g>
<!-- api&#45;&gt;poms_shared_backend -->
<g id="edge8" class="edge">
<title>api&#45;&gt;poms_shared_backend</title>
<path fill="none" stroke="#000000" d="M290.7316,-563.4877C331.3213,-558.4879 385.64,-548.8186 399,-532 439.7254,-480.7318 412.5441,-397.6592 394.08,-355.0695"/>
<polygon fill="#000000" stroke="#000000" points="397.2474,-353.5788 389.9602,-345.888 390.8609,-356.4445 397.2474,-353.5788"/>
</g>
<!-- api&#45;&gt;resteasy -->
<g id="edge10" class="edge">
<title>api&#45;&gt;resteasy</title>
<path fill="none" stroke="#000000" d="M290.9143,-563.6851C371.8143,-556.1517 534.3359,-540.5863 591,-532 611.1659,-528.9443 619.0265,-534.3094 636,-523 657.8501,-508.4413 669,-500.2561 669,-474 669,-474 669,-474 669,-182 669,-155.363 640.5767,-163.4405 615,-156 545.8159,-135.8737 515.2844,-174.8911 454,-137 440.1739,-128.4515 429.9719,-113.462 423.0872,-100.1377"/>
<polygon fill="#000000" stroke="#000000" points="426.1196,-98.3652 418.6559,-90.8457 419.8013,-101.3784 426.1196,-98.3652"/>
</g>
<!-- media_publish -->
<g id="node8" class="node">
<title>media_publish</title>
<g id="a_node8"><a xlink:href="https://subversion.vpro.nl/viewvc/nl/publiekeomroep/npo-publish/" xlink:title="Media Publisher">
<ellipse fill="none" stroke="#000000" cx="122" cy="-568" rx="55.7903" ry="18"/>
<text text-anchor="middle" x="122" y="-564.3" font-family="Times,serif" font-size="14.00" fill="#0000ff">Media Publisher</text>
</a>
</g>
</g>
<!-- media_publish&#45;&gt;poms_shared -->
<g id="edge13" class="edge">
<title>media_publish&#45;&gt;poms_shared</title>
<path fill="none" stroke="#000000" d="M153.7935,-553.1246C164.1709,-548.8582 175.8866,-544.6491 187,-542 250.6527,-526.8273 276.2925,-555.6518 333,-523 370.0435,-501.6706 371.2116,-485.6519 402,-456 439.7524,-419.6411 483.7241,-377.7193 510.7093,-352.0405"/>
<polygon fill="#000000" stroke="#000000" points="513.3489,-354.3602 518.1818,-344.9319 508.5241,-349.2886 513.3489,-354.3602"/>
</g>
<!-- media_publish&#45;&gt;poms_backend -->
<g id="edge15" class="edge">
<title>media_publish&#45;&gt;poms_backend</title>
<path fill="none" stroke="#c0c0c0" d="M118.6234,-549.8102C113.2194,-520.6979 102.5881,-463.426 96.2061,-429.0457"/>
<polygon fill="#c0c0c0" stroke="#c0c0c0" points="99.6388,-428.3606 94.3724,-419.1674 92.7564,-429.6383 99.6388,-428.3606"/>
<text text-anchor="middle" x="115.5" y="-470.3" font-family="Times,serif" font-size="14.00" fill="#000000">?</text>
</g>
<!-- media_publish&#45;&gt;poms_shared_backend -->
<g id="edge14" class="edge">
<title>media_publish&#45;&gt;poms_shared_backend</title>
<path fill="none" stroke="#000000" d="M154.928,-553.2439C165.0596,-549.1368 176.3511,-544.9879 187,-542 236.0337,-528.2422 260.1404,-554.6985 300,-523 327.2652,-501.3173 358.6909,-404.353 373.0721,-355.8361"/>
<polygon fill="#000000" stroke="#000000" points="376.5046,-356.5681 375.9541,-345.9876 369.7863,-354.6021 376.5046,-356.5681"/>
</g>
<!-- pages_publish -->
<g id="node9" class="node">
<title>pages_publish</title>
<g id="a_node9"><a xlink:href="https://subversion.vpro.nl/viewvc/nl/publiekeomroep/npo-publish/" xlink:title="Pages Publisher">
<ellipse fill="none" stroke="#000000" cx="238" cy="-401" rx="53.8905" ry="18"/>
<text text-anchor="middle" x="238" y="-397.3" font-family="Times,serif" font-size="14.00" fill="#0000ff">Pages Publisher</text>
</a>
</g>
</g>
<!-- media_publish&#45;&gt;pages_publish -->
<g id="edge16" class="edge">
<title>media_publish&#45;&gt;pages_publish</title>
<path fill="none" stroke="#c0c0c0" d="M134.414,-550.1281C156.7408,-517.9853 203.4136,-450.7925 225.6752,-418.7434"/>
<text text-anchor="middle" x="247.5" y="-470.3" font-family="Times,serif" font-size="14.00" fill="#000000">we plan to merge these</text>
</g>
<!-- pages_publish&#45;&gt;poms_shared -->
<g id="edge12" class="edge">
<title>pages_publish&#45;&gt;poms_shared</title>
<path fill="none" stroke="#000000" d="M281.5605,-390.3793C326.89,-379.3209 399.9296,-361.4844 463,-346 470.6655,-344.1181 478.7826,-342.1209 486.7103,-340.1679"/>
<polygon fill="#000000" stroke="#000000" points="487.7307,-343.5212 496.6026,-337.7298 486.0555,-336.7246 487.7307,-343.5212"/>
</g>
<!-- pages_publish&#45;&gt;poms_shared_backend -->
<g id="edge11" class="edge">
<title>pages_publish&#45;&gt;poms_shared_backend</title>
<path fill="none" stroke="#000000" d="M267.6297,-385.8744C288.646,-375.1458 317.1141,-360.6131 340.265,-348.7948"/>
<polygon fill="#000000" stroke="#000000" points="341.8583,-351.9112 349.1735,-344.2471 338.6755,-345.6766 341.8583,-351.9112"/>
</g>
<!-- magnolia -->
<g id="node16" class="node">
<title>magnolia</title>
<ellipse fill="none" stroke="#000000" cx="565" cy="-568" rx="36.2938" ry="18"/>
<text text-anchor="middle" x="565" y="-564.3" font-family="Times,serif" font-size="14.00" fill="#000000">magnolia</text>
</g>
<!-- magnolia&#45;&gt;vpro_shared -->
<g id="edge20" class="edge">
<title>magnolia&#45;&gt;vpro_shared</title>
<path fill="none" stroke="#000000" d="M598.708,-561.0838C628.9917,-554.2825 670.5531,-543.3033 683,-532 703.6524,-513.245 707,-501.8975 707,-474 707,-474 707,-474 707,-291.5 707,-238.6258 645.9578,-208.9259 600.736,-194.178"/>
<polygon fill="#000000" stroke="#000000" points="601.6558,-190.7987 591.0674,-191.1699 599.5762,-197.4827 601.6558,-190.7987"/>
</g>
<!-- magnolia&#45;&gt;poms_shared -->
<g id="edge21" class="edge">
<title>magnolia&#45;&gt;poms_shared</title>
<path fill="none" stroke="#000000" d="M542.8221,-553.158C533.2786,-545.4208 523.146,-535.0515 518,-523 494.1623,-467.1746 512.331,-394.3663 525.5074,-355.4191"/>
<polygon fill="#000000" stroke="#000000" points="528.8655,-356.4203 528.8866,-345.8255 522.2631,-354.0946 528.8655,-356.4203"/>
</g>
<!-- magnolia&#45;&gt;api_client -->
<g id="edge19" class="edge">
<title>magnolia&#45;&gt;api_client</title>
<path fill="none" stroke="#000000" d="M565,-549.8759C565,-536.3516 565,-517.6192 565,-502.1514"/>
<polygon fill="#000000" stroke="#000000" points="568.5001,-502.0685 565,-492.0685 561.5001,-502.0685 568.5001,-502.0685"/>
</g>
</g>
</svg>
