<?xml version="1.0" encoding="UTF-8" standalone="no"?>
<!DOCTYPE svg PUBLIC "-//W3C//DTD SVG 1.1//EN"
 "http://www.w3.org/Graphics/SVG/1.1/DTD/svg11.dtd">
<!-- Generated by graphviz version 2.40.1 (20161225.0304)
 -->
<!-- Title: poms_universe Pages: 1 -->
<svg width="1635pt" height="530pt"
 viewBox="0.00 0.00 1634.96 530.00" xmlns="http://www.w3.org/2000/svg" xmlns:xlink="http://www.w3.org/1999/xlink">
<g id="graph0" class="graph" transform="scale(1 1) rotate(0) translate(4 526)">
<title>poms_universe</title>
<polygon fill="#ffffff" stroke="transparent" points="-4,4 -4,-526 1630.9578,-526 1630.9578,4 -4,4"/>
<text text-anchor="middle" x="813.4789" y="-7.8" font-family="Times,serif" font-size="14.00" fill="#000000">Deployments relevant for POMS</text>
<g id="clust1" class="cluster">
<title>cluster_0</title>
<polygon fill="#f0ffff" stroke="#000000" points="424.3564,-31 424.3564,-181 1032.3564,-181 1032.3564,-31 424.3564,-31"/>
<text text-anchor="middle" x="728.3564" y="-38.8" font-family="Times,serif" font-size="14.00" fill="#000000">Generic backend services</text>
</g>
<g id="clust2" class="cluster">
<title>cluster_1</title>
<polygon fill="none" stroke="#000000" points="596.3564,-367 596.3564,-514 879.3564,-514 879.3564,-367 596.3564,-367"/>
<text text-anchor="middle" x="737.8564" y="-498.8" font-family="Times,serif" font-size="14.00" fill="#000000">World</text>
</g>
<g id="clust3" class="cluster">
<title>cluster_3</title>
<polygon fill="#f0ffff" stroke="#000000" points="434.3564,-212 434.3564,-359 1140.3564,-359 1140.3564,-212 434.3564,-212"/>
<text text-anchor="middle" x="787.3564" y="-343.8" font-family="Times,serif" font-size="14.00" fill="#000000">POMS &#160;Services</text>
</g>
<g id="clust4" class="cluster">
<title>cluster_4</title>
<polygon fill="none" stroke="#000000" points="16.3564,-106 16.3564,-264 386.3564,-264 386.3564,-106 16.3564,-106"/>
<text text-anchor="middle" x="201.3564" y="-113.8" font-family="Times,serif" font-size="14.00" fill="#000000">NPO Services</text>
</g>
<g id="clust5" class="cluster">
<title>cluster_5</title>
<polygon fill="none" stroke="#000000" points="1148.3564,-189 1148.3564,-264 1606.3564,-264 1606.3564,-189 1148.3564,-189"/>
<text text-anchor="middle" x="1377.3564" y="-196.8" font-family="Times,serif" font-size="14.00" fill="#000000">Auxiliary API&#39;s</text>
</g>
<!-- poms -->
<g id="node1" class="node">
<title>poms</title>
<g id="a_node1"><a xlink:href="https://poms.omroep.nl/" xlink:title="POMS">
<ellipse fill="none" stroke="#000000" cx="471.3564" cy="-310" rx="29.4969" ry="18"/>
<text text-anchor="middle" x="471.3564" y="-306.3" font-family="Times,serif" font-size="14.00" fill="#0000ff">POMS</text>
</a>
</g>
</g>
<!-- gtaa -->
<g id="node8" class="node">
<title>gtaa</title>
<g id="a_node8"><a xlink:href="http://gtaa.beeldengeluid.nl/" xlink:title="B&amp;G Thesaurus">
<ellipse fill="none" stroke="#000000" cx="1211.3564" cy="-238" rx="55.4913" ry="18"/>
<text text-anchor="middle" x="1211.3564" y="-234.3" font-family="Times,serif" font-size="14.00" fill="#0000ff">B&amp;G Thesaurus</text>
</a>
</g>
</g>
<!-- poms&#45;&gt;gtaa -->
<g id="edge9" class="edge">
<title>poms&#45;&gt;gtaa</title>
<path fill="none" stroke="#cd950c" d="M493.3113,-297.799C498.4351,-295.4653 503.9717,-293.3361 509.3564,-292 783.5382,-223.9666 867.8975,-322.0928 1144.3564,-264 1152.8693,-262.2112 1161.7147,-259.4683 1170.0801,-256.4237"/>
<polygon fill="#cd950c" stroke="#cd950c" points="1171.5543,-259.6067 1179.6312,-252.7501 1169.0413,-253.0733 1171.5543,-259.6067"/>
</g>
<!-- postgresql -->
<g id="node10" class="node">
<title>postgresql</title>
<ellipse fill="none" stroke="#000000" cx="733.3564" cy="-155" rx="38.9931" ry="18"/>
<text text-anchor="middle" x="733.3564" y="-151.3" font-family="Times,serif" font-size="14.00" fill="#000000">postgresql</text>
</g>
<!-- poms&#45;&gt;postgresql -->
<g id="edge10" class="edge">
<title>poms&#45;&gt;postgresql</title>
<path fill="none" stroke="#cd950c" d="M471.8881,-291.572C473.7803,-264.1292 481.764,-213.1676 514.3564,-189 529.635,-177.6707 667.0328,-186.1025 685.3564,-181 690.8343,-179.4746 696.3812,-177.236 701.6638,-174.7023"/>
<polygon fill="#cd950c" stroke="#cd950c" points="703.5778,-177.651 710.8151,-169.9133 700.3321,-171.4489 703.5778,-177.651"/>
</g>
<!-- sso -->
<g id="node12" class="node">
<title>sso</title>
<g id="a_node12"><a xlink:href="https://sso.omroep.nl" xlink:title="SSO">
<ellipse fill="none" stroke="#000000" cx="997.3564" cy="-155" rx="27" ry="18"/>
<text text-anchor="middle" x="997.3564" y="-151.3" font-family="Times,serif" font-size="14.00" fill="#0000ff">SSO</text>
</a>
</g>
</g>
<!-- poms&#45;&gt;sso -->
<g id="edge11" class="edge">
<title>poms&#45;&gt;sso</title>
<path fill="none" stroke="#cd950c" d="M493.9517,-298.3945C498.9468,-296.0846 504.2684,-293.8149 509.3564,-292 558.0898,-274.6166 572.3724,-277.3694 622.3564,-264 738.9519,-232.8137 764.8572,-211.9141 883.3564,-189 917.5711,-182.3839 928.7892,-193.4016 961.3564,-181 965.1389,-179.5596 968.8841,-177.6165 972.4481,-175.4375"/>
<polygon fill="#cd950c" stroke="#cd950c" points="974.576,-178.2225 980.8525,-169.6869 970.623,-172.4454 974.576,-178.2225"/>
</g>
<!-- jms -->
<g id="node13" class="node">
<title>jms</title>
<ellipse fill="none" stroke="#000000" cx="817.3564" cy="-155" rx="27" ry="18"/>
<text text-anchor="middle" x="817.3564" y="-151.3" font-family="Times,serif" font-size="14.00" fill="#000000">jms</text>
</g>
<!-- poms&#45;&gt;jms -->
<g id="edge12" class="edge">
<title>poms&#45;&gt;jms</title>
<path fill="none" stroke="#cd950c" d="M489.3309,-295.7887C523.9524,-269.3233 603.2976,-212.9992 680.3564,-189 723.349,-175.6103 739.092,-196.5362 781.3564,-181 785.3453,-179.5337 789.2856,-177.4933 793.0132,-175.194"/>
<polygon fill="#cd950c" stroke="#cd950c" points="795.008,-178.07 801.2479,-169.5077 791.0304,-172.3099 795.008,-178.07"/>
</g>
<!-- ldap -->
<g id="node14" class="node">
<title>ldap</title>
<ellipse fill="none" stroke="#000000" cx="997.3564" cy="-80" rx="27" ry="18"/>
<text text-anchor="middle" x="997.3564" y="-76.3" font-family="Times,serif" font-size="14.00" fill="#000000">ldap</text>
</g>
<!-- poms&#45;&gt;ldap -->
<g id="edge13" class="edge">
<title>poms&#45;&gt;ldap</title>
<path fill="none" stroke="#cd950c" d="M458.8689,-293.4057C431.5268,-254.953 372.7024,-159.0004 423.3564,-106 441.9199,-86.5766 835.87,-81.4307 960.1454,-80.2882"/>
<polygon fill="#cd950c" stroke="#cd950c" points="960.3399,-83.7867 970.3085,-80.1982 960.2779,-76.787 960.3399,-83.7867"/>
</g>
<!-- metis -->
<g id="node22" class="node">
<title>metis</title>
<ellipse fill="none" stroke="#000000" cx="87.3564" cy="-155" rx="27" ry="18"/>
<text text-anchor="middle" x="87.3564" y="-151.3" font-family="Times,serif" font-size="14.00" fill="#000000">metis</text>
</g>
<!-- poms&#45;&gt;metis -->
<g id="edge14" class="edge">
<title>poms&#45;&gt;metis</title>
<path fill="none" stroke="#cd950c" d="M441.885,-309.27C345.4758,-306.5814 44.0068,-295.686 15.3564,-264 -6.9997,-239.2752 -2.4854,-217.1564 15.3564,-189 23.4538,-176.2213 37.7859,-168.1547 51.5424,-163.1068"/>
<polygon fill="#cd950c" stroke="#cd950c" points="52.9173,-166.341 61.3602,-159.9403 50.7686,-159.6789 52.9173,-166.341"/>
</g>
<!-- pd -->
<g id="node23" class="node">
<title>pd</title>
<ellipse fill="none" stroke="#000000" cx="123.3564" cy="-238" rx="27" ry="18"/>
<text text-anchor="middle" x="123.3564" y="-234.3" font-family="Times,serif" font-size="14.00" fill="#000000">pd</text>
</g>
<!-- poms&#45;&gt;pd -->
<g id="edge15" class="edge">
<title>poms&#45;&gt;pd</title>
<path fill="none" stroke="#cd950c" d="M442.1548,-307.4792C374.82,-301.3812 210.5253,-284.7904 159.3564,-264 155.6065,-262.4764 151.8807,-260.4843 148.3266,-258.2798"/>
<polygon fill="#cd950c" stroke="#cd950c" points="150.154,-255.2888 139.9304,-252.5086 146.1888,-261.0575 150.154,-255.2888"/>
</g>
<!-- prepr -->
<g id="node24" class="node">
<title>prepr</title>
<ellipse fill="none" stroke="#000000" cx="51.3564" cy="-238" rx="27" ry="18"/>
<text text-anchor="middle" x="51.3564" y="-234.3" font-family="Times,serif" font-size="14.00" fill="#000000">prepr</text>
</g>
<!-- poms&#45;&gt;prepr -->
<g id="edge16" class="edge">
<title>poms&#45;&gt;prepr</title>
<path fill="none" stroke="#cd950c" d="M442.2175,-308.4013C364.2254,-303.8241 152.2439,-289.3434 87.3564,-264 83.5862,-262.5275 79.8483,-260.5654 76.2881,-258.3766"/>
<polygon fill="#cd950c" stroke="#cd950c" points="78.114,-255.3849 67.8868,-252.618 74.1564,-261.1587 78.114,-255.3849"/>
</g>
<!-- miranda -->
<g id="node25" class="node">
<title>miranda</title>
<ellipse fill="none" stroke="#000000" cx="273.3564" cy="-238" rx="33.2948" ry="18"/>
<text text-anchor="middle" x="273.3564" y="-234.3" font-family="Times,serif" font-size="14.00" fill="#000000">miranda</text>
</g>
<!-- poms&#45;&gt;miranda -->
<g id="edge17" class="edge">
<title>poms&#45;&gt;miranda</title>
<path fill="none" stroke="#cd950c" d="M443.51,-304.1665C411.673,-296.9605 358.4025,-283.2504 315.3564,-264 311.1925,-262.1379 306.9459,-259.9273 302.8307,-257.5933"/>
<polygon fill="#cd950c" stroke="#cd950c" points="304.4923,-254.5088 294.1147,-252.3742 300.8961,-260.5144 304.4923,-254.5088"/>
</g>
<!-- pluto -->
<g id="node26" class="node">
<title>pluto</title>
<ellipse fill="none" stroke="#000000" cx="195.3564" cy="-238" rx="27" ry="18"/>
<text text-anchor="middle" x="195.3564" y="-234.3" font-family="Times,serif" font-size="14.00" fill="#000000">pluto</text>
</g>
<!-- poms&#45;&gt;pluto -->
<g id="edge18" class="edge">
<title>poms&#45;&gt;pluto</title>
<path fill="none" stroke="#cd950c" d="M442.0901,-308.4711C395.6564,-305.1629 303.0286,-294.932 231.3564,-264 227.6401,-262.3962 223.9341,-260.3567 220.3904,-258.1277"/>
<polygon fill="#cd950c" stroke="#cd950c" points="222.2202,-255.1379 212.0024,-252.3367 218.2432,-260.8984 222.2202,-255.1379"/>
</g>
<!-- nep -->
<g id="node27" class="node">
<title>nep</title>
<ellipse fill="none" stroke="#000000" cx="351.3564" cy="-238" rx="27" ry="18"/>
<text text-anchor="middle" x="351.3564" y="-234.3" font-family="Times,serif" font-size="14.00" fill="#000000">nep</text>
</g>
<!-- poms&#45;&gt;nep -->
<g id="edge19" class="edge">
<title>poms&#45;&gt;nep</title>
<path fill="none" stroke="#cd950c" d="M449.7675,-297.723C433.8142,-288.5797 411.6139,-275.7069 392.3564,-264 388.1656,-261.4524 383.7617,-258.7196 379.4581,-256.0175"/>
<polygon fill="#cd950c" stroke="#cd950c" points="381.188,-252.9704 370.8656,-250.5833 377.4464,-258.8865 381.188,-252.9704"/>
</g>
<!-- poms_backend -->
<g id="node2" class="node">
<title>poms_backend</title>
<g id="a_node2"><a xlink:href="https://api.poms.omroep.nl/" xlink:title="POMS backend API">
<ellipse fill="none" stroke="#000000" cx="664.3564" cy="-310" rx="66.0889" ry="18"/>
<text text-anchor="middle" x="664.3564" y="-306.3" font-family="Times,serif" font-size="14.00" fill="#0000ff">POMS backend API</text>
</a>
</g>
</g>
<!-- poms_backend&#45;&gt;jms -->
<g id="edge20" class="edge">
<title>poms_backend&#45;&gt;jms</title>
<path fill="none" stroke="#ff7f00" d="M681.61,-292.5208C709.4196,-264.3477 764.1437,-208.9082 794.9378,-177.7117"/>
<polygon fill="#ff7f00" stroke="#ff7f00" points="797.6861,-179.9096 802.2202,-170.334 792.7043,-174.9921 797.6861,-179.9096"/>
</g>
<!-- poms_backend&#45;&gt;ldap -->
<g id="edge21" class="edge">
<title>poms_backend&#45;&gt;ldap</title>
<path fill="none" stroke="#ff7f00" d="M712.1632,-297.4667C721.1523,-295.4121 730.5069,-293.4758 739.3564,-292 771.7238,-286.6021 1011.2803,-288.2784 1033.3564,-264 1080.5985,-212.0448 1065.3252,-168.5232 1033.3564,-106 1031.7769,-102.9111 1029.6404,-100.1047 1027.1915,-97.577"/>
<polygon fill="#ff7f00" stroke="#ff7f00" points="1029.0608,-94.5764 1019.1519,-90.8261 1024.5594,-99.9371 1029.0608,-94.5764"/>
</g>
<!-- poms_backend&#45;&gt;metis -->
<g id="edge22" class="edge">
<title>poms_backend&#45;&gt;metis</title>
<path fill="none" stroke="#ff7f00" d="M635.0939,-293.7003C585.6931,-267.001 481.8795,-214.3829 387.3564,-189 338.603,-175.908 193.3849,-163.2694 124.4595,-157.8133"/>
<polygon fill="#ff7f00" stroke="#ff7f00" points="124.7141,-154.3226 114.4713,-157.0307 124.1673,-161.3012 124.7141,-154.3226"/>
</g>
<!-- poms_backend&#45;&gt;nep -->
<g id="edge23" class="edge">
<title>poms_backend&#45;&gt;nep</title>
<path fill="none" stroke="#ff7f00" d="M615.2343,-297.7555C606.6298,-295.741 597.747,-293.744 589.3564,-292 519.1037,-277.3982 499.9479,-281.4831 430.3564,-264 415.2563,-260.2065 398.8611,-254.9959 384.9406,-250.2351"/>
<polygon fill="#ff7f00" stroke="#ff7f00" points="385.8905,-246.8597 375.2957,-246.8746 383.5874,-253.47 385.8905,-246.8597"/>
</g>
<!-- api -->
<g id="node3" class="node">
<title>api</title>
<g id="a_node3"><a xlink:href="https://rs.poms.omroep.nl/" xlink:title="NPO Frontend API">
<ellipse fill="none" stroke="#000000" cx="812.3564" cy="-310" rx="63.8893" ry="18"/>
<text text-anchor="middle" x="812.3564" y="-306.3" font-family="Times,serif" font-size="14.00" fill="#0000ff">NPO Frontend API</text>
</a>
</g>
</g>
<!-- api&#45;&gt;gtaa -->
<g id="edge24" class="edge">
<title>api&#45;&gt;gtaa</title>
<path fill="none" stroke="#6495ed" d="M858.89,-297.5394C867.6392,-295.4777 876.7439,-293.5203 885.3564,-292 999.3754,-271.8732 1031.8637,-291.4013 1144.3564,-264 1152.6338,-261.9837 1161.2622,-259.1934 1169.4654,-256.1853"/>
<polygon fill="#6495ed" stroke="#6495ed" points="1170.7682,-259.4343 1178.8534,-252.5874 1168.2631,-252.8979 1170.7682,-259.4343"/>
</g>
<!-- elasticsearch -->
<g id="node11" class="node">
<title>elasticsearch</title>
<ellipse fill="none" stroke="#000000" cx="907.3564" cy="-155" rx="45.4919" ry="18"/>
<text text-anchor="middle" x="907.3564" y="-151.3" font-family="Times,serif" font-size="14.00" fill="#000000">elasticsearch</text>
</g>
<!-- api&#45;&gt;elasticsearch -->
<g id="edge25" class="edge">
<title>api&#45;&gt;elasticsearch</title>
<path fill="none" stroke="#6495ed" d="M814.8559,-291.8053C819.1251,-266.4451 829.8625,-220.0917 854.3564,-189 858.6289,-183.5766 864.0191,-178.7598 869.7154,-174.5803"/>
<polygon fill="#6495ed" stroke="#6495ed" points="871.8183,-177.3847 878.1857,-168.9167 867.9273,-171.5656 871.8183,-177.3847"/>
</g>
<!-- pages_publish -->
<g id="node4" class="node">
<title>pages_publish</title>
<g id="a_node4"><a xlink:href="https://publish.pages.omroep.nl/" xlink:title="Pages Publisher">
<ellipse fill="none" stroke="#000000" cx="948.3564" cy="-310" rx="53.8905" ry="18"/>
<text text-anchor="middle" x="948.3564" y="-306.3" font-family="Times,serif" font-size="14.00" fill="#0000ff">Pages Publisher</text>
</a>
</g>
</g>
<!-- media_publish -->
<g id="node5" class="node">
<title>media_publish</title>
<ellipse fill="none" stroke="#000000" cx="968.3564" cy="-238" rx="55.7903" ry="18"/>
<text text-anchor="middle" x="968.3564" y="-234.3" font-family="Times,serif" font-size="14.00" fill="#000000">Media Publisher</text>
</g>
<!-- pages_publish&#45;&gt;media_publish -->
<g id="edge31" class="edge">
<title>pages_publish&#45;&gt;media_publish</title>
<path fill="none" stroke="#c0c0c0" d="M953.4032,-291.8314C956.4119,-281 960.2209,-267.2876 963.2416,-256.4133"/>
</g>
<!-- pages_publish&#45;&gt;gtaa -->
<g id="edge26" class="edge">
<title>pages_publish&#45;&gt;gtaa</title>
<path fill="none" stroke="#8fbc8f" d="M988.9109,-297.9563C996.3519,-295.8768 1004.0691,-293.8057 1011.3564,-292 1069.99,-277.4712 1086.4518,-281.2059 1144.3564,-264 1152.1791,-261.6755 1160.3781,-258.8416 1168.2504,-255.9104"/>
<polygon fill="#8fbc8f" stroke="#8fbc8f" points="1169.556,-259.1583 1177.6436,-252.3142 1167.0532,-252.621 1169.556,-259.1583"/>
</g>
<!-- pages_publish&#45;&gt;elasticsearch -->
<g id="edge27" class="edge">
<title>pages_publish&#45;&gt;elasticsearch</title>
<path fill="none" stroke="#8fbc8f" d="M909.9628,-297.0286C894.8255,-289.8134 879.0117,-279.1527 870.3564,-264 853.8233,-235.0558 856.9529,-219.5198 870.3564,-189 872.0928,-185.0462 874.541,-181.3502 877.3609,-177.9602"/>
<polygon fill="#8fbc8f" stroke="#8fbc8f" points="880.017,-180.2484 884.4551,-170.6279 874.9862,-175.381 880.017,-180.2484"/>
</g>
<!-- pages_publish&#45;&gt;ldap -->
<g id="edge28" class="edge">
<title>pages_publish&#45;&gt;ldap</title>
<path fill="none" stroke="#8fbc8f" d="M987.0359,-297.3472C1019.5771,-286.3146 1061.5642,-271.0116 1066.3564,-264 1105.9804,-206.025 1106.3088,-163.7492 1066.3564,-106 1062.0846,-99.8253 1047.2399,-93.8503 1032.4088,-89.1883"/>
<polygon fill="#8fbc8f" stroke="#8fbc8f" points="1033.3585,-85.8194 1022.7758,-86.3255 1031.3643,-92.5293 1033.3585,-85.8194"/>
</g>
<!-- media_publish&#45;&gt;elasticsearch -->
<g id="edge29" class="edge">
<title>media_publish&#45;&gt;elasticsearch</title>
<path fill="none" stroke="#bf3eff" d="M955.4198,-220.3978C946.8707,-208.7654 935.5287,-193.3328 926.0096,-180.3806"/>
<polygon fill="#bf3eff" stroke="#bf3eff" points="928.8074,-178.2773 920.0651,-172.2922 923.1669,-182.4228 928.8074,-178.2773"/>
</g>
<!-- media_publish&#45;&gt;jms -->
<g id="edge30" class="edge">
<title>media_publish&#45;&gt;jms</title>
<path fill="none" stroke="#bf3eff" d="M935.3723,-223.4222C911.9575,-212.6511 880.0684,-197.1147 853.3564,-181 850.1299,-179.0536 846.8233,-176.9027 843.5847,-174.6963"/>
<polygon fill="#bf3eff" stroke="#bf3eff" points="845.4606,-171.7364 835.2725,-168.8288 841.4237,-177.4551 845.4606,-171.7364"/>
</g>
<!-- images_frontend -->
<g id="node6" class="node">
<title>images_frontend</title>
<g id="a_node6"><a xlink:href="https://images.poms.omroep.nl" xlink:title="Images">
<ellipse fill="none" stroke="#000000" cx="549.3564" cy="-310" rx="30.5947" ry="18"/>
<text text-anchor="middle" x="549.3564" y="-306.3" font-family="Times,serif" font-size="14.00" fill="#0000ff">Images</text>
</a>
</g>
</g>
<!-- images_frontend&#45;&gt;postgresql -->
<g id="edge32" class="edge">
<title>images_frontend&#45;&gt;postgresql</title>
<path fill="none" stroke="#caff70" d="M557.645,-292.2737C571.2552,-265.278 601.0141,-214.3313 642.3564,-189 658.9315,-178.8441 667.0313,-187.486 685.3564,-181 690.6052,-179.1422 695.9729,-176.7678 701.1285,-174.2117"/>
<polygon fill="#caff70" stroke="#caff70" points="702.888,-177.2409 710.1079,-169.4869 699.6284,-171.0461 702.888,-177.2409"/>
</g>
<!-- images_backend -->
<g id="node7" class="node">
<title>images_backend</title>
<g id="a_node7"><a xlink:href="https://poms.omroep.nl/images/" xlink:title="Images Backend">
<ellipse fill="none" stroke="#000000" cx="1076.3564" cy="-310" rx="55.7903" ry="18"/>
<text text-anchor="middle" x="1076.3564" y="-306.3" font-family="Times,serif" font-size="14.00" fill="#0000ff">Images Backend</text>
</a>
</g>
</g>
<!-- thineye -->
<g id="node9" class="node">
<title>thineye</title>
<ellipse fill="none" stroke="#000000" cx="1315.3564" cy="-238" rx="30.5947" ry="18"/>
<text text-anchor="middle" x="1315.3564" y="-234.3" font-family="Times,serif" font-size="14.00" fill="#000000">thineye</text>
</g>
<!-- images_backend&#45;&gt;thineye -->
<g id="edge33" class="edge">
<title>images_backend&#45;&gt;thineye</title>
<path fill="none" stroke="#caff70" d="M1128.1929,-303.1015C1169.2848,-296.4427 1227.5447,-284.3143 1275.3564,-264 1279.387,-262.2874 1283.4591,-260.1732 1287.3835,-257.8962"/>
<polygon fill="#caff70" stroke="#caff70" points="1289.5557,-260.6661 1296.1835,-252.4003 1285.8477,-254.7288 1289.5557,-260.6661"/>
</g>
<!-- images_backend&#45;&gt;postgresql -->
<g id="edge34" class="edge">
<title>images_backend&#45;&gt;postgresql</title>
<path fill="none" stroke="#caff70" d="M1034.93,-297.725C1027.1388,-295.6453 1019.0297,-293.6338 1011.3564,-292 929.5911,-274.5908 898.3327,-304.7811 825.3564,-264 790.8944,-244.7417 763.676,-207.1983 748.044,-181.6121"/>
<polygon fill="#caff70" stroke="#caff70" points="750.9231,-179.6049 742.8171,-172.7826 744.8994,-183.1708 750.9231,-179.6049"/>
</g>
<!-- images_backend&#45;&gt;sso -->
<g id="edge35" class="edge">
<title>images_backend&#45;&gt;sso</title>
<path fill="none" stroke="#caff70" d="M1034.0766,-298.1831C1026.5167,-296.1012 1018.7079,-293.9707 1011.3564,-292 963.4605,-279.1605 933.7025,-303.217 903.3564,-264 882.957,-237.6375 881.4555,-214.129 903.3564,-189 911.9049,-179.1915 949.2797,-185.8414 961.3564,-181 965.1132,-179.4939 968.8433,-177.512 972.3995,-175.3129"/>
<polygon fill="#caff70" stroke="#caff70" points="974.5352,-178.0921 980.7974,-169.5461 970.5726,-172.3216 974.5352,-178.0921"/>
</g>
<!-- images_backend&#45;&gt;jms -->
<g id="edge36" class="edge">
<title>images_backend&#45;&gt;jms</title>
<path fill="none" stroke="#caff70" d="M1034.4864,-298.0422C1026.812,-295.9539 1018.858,-293.8577 1011.3564,-292 954.8297,-278.0018 930.7231,-297.8763 883.3564,-264 855.0805,-243.7774 836.6498,-207.3114 826.6318,-182.163"/>
<polygon fill="#caff70" stroke="#caff70" points="829.9033,-180.9191 823.0836,-172.811 823.3585,-183.4022 829.9033,-180.9191"/>
</g>
<!-- images_backend&#45;&gt;ldap -->
<g id="edge37" class="edge">
<title>images_backend&#45;&gt;ldap</title>
<path fill="none" stroke="#caff70" d="M1085.1748,-292.2226C1102.8331,-253.8041 1137.3174,-161.9929 1094.3564,-106 1086.8808,-96.2568 1058.259,-89.3635 1034.0279,-85.1339"/>
<polygon fill="#caff70" stroke="#caff70" points="1034.4217,-81.6518 1023.9865,-83.4838 1033.2866,-88.5591 1034.4217,-81.6518"/>
</g>
<!-- wikimedia -->
<g id="node28" class="node">
<title>wikimedia</title>
<ellipse fill="none" stroke="#000000" cx="1558.3564" cy="-238" rx="39.7935" ry="18"/>
<text text-anchor="middle" x="1558.3564" y="-234.3" font-family="Times,serif" font-size="14.00" fill="#000000">wikimedia</text>
</g>
<!-- images_backend&#45;&gt;wikimedia -->
<g id="edge38" class="edge">
<title>images_backend&#45;&gt;wikimedia</title>
<path fill="none" stroke="#caff70" d="M1131.3919,-306.768C1231.6381,-300.4489 1440.0478,-285.1997 1509.3564,-264 1514.7667,-262.3451 1520.2745,-260.0804 1525.55,-257.5731"/>
<polygon fill="#caff70" stroke="#caff70" points="1527.4173,-260.5492 1534.7239,-252.8769 1524.2275,-254.3181 1527.4173,-260.5492"/>
</g>
<!-- pixabay -->
<g id="node29" class="node">
<title>pixabay</title>
<ellipse fill="none" stroke="#000000" cx="1468.3564" cy="-238" rx="32.4942" ry="18"/>
<text text-anchor="middle" x="1468.3564" y="-234.3" font-family="Times,serif" font-size="14.00" fill="#000000">pixabay</text>
</g>
<!-- images_backend&#45;&gt;pixabay -->
<g id="edge39" class="edge">
<title>images_backend&#45;&gt;pixabay</title>
<path fill="none" stroke="#caff70" d="M1130.7292,-305.7607C1215.2681,-298.6849 1374.0541,-283.3199 1427.3564,-264 1431.6627,-262.4391 1435.9882,-260.3693 1440.1309,-258.077"/>
<polygon fill="#caff70" stroke="#caff70" points="1442.0849,-260.9855 1448.829,-252.8144 1438.4613,-254.9964 1442.0849,-260.9855"/>
</g>
<!-- flickr -->
<g id="node30" class="node">
<title>flickr</title>
<ellipse fill="none" stroke="#000000" cx="1391.3564" cy="-238" rx="27" ry="18"/>
<text text-anchor="middle" x="1391.3564" y="-234.3" font-family="Times,serif" font-size="14.00" fill="#000000">flickr</text>
</g>
<!-- images_backend&#45;&gt;flickr -->
<g id="edge40" class="edge">
<title>images_backend&#45;&gt;flickr</title>
<path fill="none" stroke="#caff70" d="M1129.3813,-304.1948C1198.5583,-296.1183 1315.4733,-280.6018 1355.3564,-264 1359.0931,-262.4446 1362.8112,-260.4336 1366.3612,-258.2194"/>
<polygon fill="#caff70" stroke="#caff70" points="1368.5028,-260.9943 1374.7542,-252.4403 1364.5329,-255.2288 1368.5028,-260.9943"/>
</g>
<!-- sso&#45;&gt;ldap -->
<g id="edge44" class="edge">
<title>sso&#45;&gt;ldap</title>
<path fill="none" stroke="#c0c0c0" d="M997.3564,-136.8446C997.3564,-128.3401 997.3564,-118.0076 997.3564,-108.4964"/>
<polygon fill="#c0c0c0" stroke="#c0c0c0" points="1000.8565,-108.2481 997.3564,-98.2482 993.8565,-108.2482 1000.8565,-108.2481"/>
</g>
<!-- keycloak -->
<g id="node15" class="node">
<title>keycloak</title>
<ellipse fill="none" stroke="#000000" cx="590.3564" cy="-155" rx="85.5853" ry="18"/>
<text text-anchor="middle" x="590.3564" y="-151.3" font-family="Times,serif" font-size="14.00" fill="#000000">Keycloak (will replace sso)</text>
</g>
<!-- gosa -->
<g id="node16" class="node">
<title>gosa</title>
<g id="a_node16"><a xlink:href="https://admin.sso.omroep.nl/" xlink:title="GOSa">
<ellipse fill="none" stroke="#000000" cx="459.3564" cy="-155" rx="27.0966" ry="18"/>
<text text-anchor="middle" x="459.3564" y="-151.3" font-family="Times,serif" font-size="14.00" fill="#0000ff">GOSa</text>
</a>
</g>
</g>
<!-- gosa&#45;&gt;ldap -->
<g id="edge47" class="edge">
<title>gosa&#45;&gt;ldap</title>
<path fill="none" stroke="#c0c0c0" d="M467.3412,-137.2847C473.3492,-126.2161 482.7196,-112.8128 495.3564,-106 515.7279,-95.0172 847.109,-84.3812 960.0191,-81.0602"/>
<polygon fill="#c0c0c0" stroke="#c0c0c0" points="960.3525,-84.5521 970.2462,-80.7619 960.1483,-77.5551 960.3525,-84.5521"/>
</g>
<!-- magnolia_frontend -->
<g id="node17" class="node">
<title>magnolia_frontend</title>
<ellipse fill="none" stroke="#000000" cx="809.3564" cy="-393" rx="62.2891" ry="18"/>
<text text-anchor="middle" x="809.3564" y="-389.3" font-family="Times,serif" font-size="14.00" fill="#000000">magnolia_frontend</text>
</g>
<!-- magnolia_frontend&#45;&gt;api -->
<g id="edge43" class="edge">
<title>magnolia_frontend&#45;&gt;api</title>
<path fill="none" stroke="#c0c0c0" d="M810.0073,-374.9902C810.3938,-364.2963 810.8925,-350.4994 811.3309,-338.3706"/>
<polygon fill="#c0c0c0" stroke="#c0c0c0" points="814.8327,-338.3812 811.6963,-328.2612 807.8373,-338.1283 814.8327,-338.3812"/>
</g>
<!-- magnolia_backend -->
<g id="node18" class="node">
<title>magnolia_backend</title>
<ellipse fill="none" stroke="#000000" cx="666.3564" cy="-393" rx="62.2891" ry="18"/>
<text text-anchor="middle" x="666.3564" y="-389.3" font-family="Times,serif" font-size="14.00" fill="#000000">magnolia_backend</text>
</g>
<!-- magnolia_backend&#45;&gt;poms_backend -->
<g id="edge41" class="edge">
<title>magnolia_backend&#45;&gt;poms_backend</title>
<path fill="none" stroke="#c0c0c0" d="M665.9224,-374.9902C665.6647,-364.2963 665.3323,-350.4994 665.04,-338.3706"/>
<polygon fill="#c0c0c0" stroke="#c0c0c0" points="668.5364,-338.174 664.7964,-328.2612 661.5384,-338.3427 668.5364,-338.174"/>
</g>
<!-- magnolia_backend&#45;&gt;pages_publish -->
<g id="edge42" class="edge">
<title>magnolia_backend&#45;&gt;pages_publish</title>
<path fill="none" stroke="#c0c0c0" d="M701.2887,-378.067C712.8786,-373.7425 725.9836,-369.5139 738.3564,-367 770.4163,-360.486 854.7121,-370.4544 885.3564,-359 899.7694,-353.6126 913.5326,-343.6791 924.4977,-334.1572"/>
<polygon fill="#c0c0c0" stroke="#c0c0c0" points="926.9177,-336.6872 931.9568,-327.3674 922.2057,-331.5107 926.9177,-336.6872"/>
</g>
<!-- users -->
<g id="node19" class="node">
<title>users</title>
<ellipse fill="none" stroke="#000000" cx="716.3564" cy="-465" rx="27" ry="18"/>
<text text-anchor="middle" x="716.3564" y="-461.3" font-family="Times,serif" font-size="14.00" fill="#000000">users</text>
</g>
<!-- users&#45;&gt;api -->
<g id="edge4" class="edge">
<title>users&#45;&gt;api</title>
<path fill="none" stroke="#c0c0c0" d="M737.2483,-453.3048C742.0976,-450.9449 747.3175,-448.6772 752.3564,-447 837.6366,-418.6152 893.7354,-479.9801 951.3564,-411 963.8932,-395.9917 964.3256,-381.6362 951.3564,-367 941.5582,-355.9425 899.2046,-364.1476 885.3564,-359 869.2772,-353.0231 853.2471,-342.8507 840.3216,-333.3183"/>
<polygon fill="#c0c0c0" stroke="#c0c0c0" points="842.3785,-330.4852 832.3068,-327.1971 838.1297,-336.0483 842.3785,-330.4852"/>
</g>
<!-- users&#45;&gt;images_frontend -->
<g id="edge5" class="edge">
<title>users&#45;&gt;images_frontend</title>
<path fill="none" stroke="#c0c0c0" d="M737.3008,-453.4575C742.1474,-451.0897 747.3529,-448.7801 752.3564,-447 821.437,-422.4224 867.514,-468.2248 913.3564,-411 925.5828,-395.7378 927.0125,-380.9975 913.3564,-367 900.7827,-354.112 605.5266,-366.9197 589.3564,-359 579.0427,-353.9486 570.4803,-344.8473 563.9595,-335.8477"/>
<polygon fill="#c0c0c0" stroke="#c0c0c0" points="566.7892,-333.7819 558.3426,-327.3861 560.9571,-337.6533 566.7892,-333.7819"/>
</g>
<!-- users&#45;&gt;magnolia_frontend -->
<g id="edge6" class="edge">
<title>users&#45;&gt;magnolia_frontend</title>
<path fill="none" stroke="#c0c0c0" d="M734.2877,-451.1177C747.1139,-441.1877 764.6747,-427.5922 779.5869,-416.0474"/>
<polygon fill="#c0c0c0" stroke="#c0c0c0" points="781.7874,-418.7701 787.552,-409.8808 777.5021,-413.235 781.7874,-418.7701"/>
</g>
<!-- backendsystems -->
<g id="node20" class="node">
<title>backendsystems</title>
<ellipse fill="none" stroke="#000000" cx="816.3564" cy="-465" rx="55.4913" ry="18"/>
<text text-anchor="middle" x="816.3564" y="-461.3" font-family="Times,serif" font-size="14.00" fill="#000000">backendsystems</text>
</g>
<!-- backendsystems&#45;&gt;poms_backend -->
<g id="edge7" class="edge">
<title>backendsystems&#45;&gt;poms_backend</title>
<path fill="none" stroke="#c0c0c0" d="M868.2236,-458.5347C897.9013,-451.8812 932.8173,-438.3828 951.3564,-411 962.3198,-394.8067 964.921,-381.0862 951.3564,-367 943.1809,-358.5102 750.5871,-362.5754 739.3564,-359 722.4575,-353.62 705.7334,-343.3117 692.3809,-333.5326"/>
<polygon fill="#c0c0c0" stroke="#c0c0c0" points="694.2001,-330.5184 684.1253,-327.2398 689.9566,-336.0856 694.2001,-330.5184"/>
</g>
<!-- backendsystems&#45;&gt;pages_publish -->
<g id="edge8" class="edge">
<title>backendsystems&#45;&gt;pages_publish</title>
<path fill="none" stroke="#c0c0c0" d="M862.3461,-454.9285C902.6276,-445.0648 956.6663,-428.9361 969.3564,-411 984.7647,-389.2219 975.1321,-358.5925 964.3826,-336.7856"/>
<polygon fill="#c0c0c0" stroke="#c0c0c0" points="967.3743,-334.9551 959.6146,-327.7413 961.1821,-338.2196 967.3743,-334.9551"/>
</g>
<!-- editors -->
<g id="node21" class="node">
<title>editors</title>
<ellipse fill="none" stroke="#000000" cx="642.3564" cy="-465" rx="29.4969" ry="18"/>
<text text-anchor="middle" x="642.3564" y="-461.3" font-family="Times,serif" font-size="14.00" fill="#000000">editors</text>
</g>
<!-- editors&#45;&gt;poms -->
<g id="edge1" class="edge">
<title>editors&#45;&gt;poms</title>
<path fill="none" stroke="#c0c0c0" d="M664.8666,-453.1431C669.867,-450.8489 675.2123,-448.6491 680.3564,-447 766.3622,-419.4278 822.4247,-480.2904 880.3564,-411 892.8997,-395.9972 894.0344,-380.9761 880.3564,-367 865.9367,-352.2661 527.7707,-368.2698 509.3564,-359 499.4042,-353.9901 491.2879,-345.0218 485.1498,-336.1148"/>
<polygon fill="#c0c0c0" stroke="#c0c0c0" points="487.9512,-333.9936 479.6764,-327.377 482.0189,-337.7097 487.9512,-333.9936"/>
</g>
<!-- editors&#45;&gt;sso -->
<g id="edge2" class="edge">
<title>editors&#45;&gt;sso</title>
<path fill="none" stroke="#c0c0c0" d="M664.8487,-453.0868C669.8502,-450.796 675.2005,-448.6119 680.3564,-447 774.0835,-417.6966 801.8063,-428.9315 898.3564,-411 1216.0423,-351.9986 1406.279,-514.5154 1610.3564,-264 1631.4093,-238.1565 1633.2646,-213.2141 1610.3564,-189 1590.518,-168.0308 1165.1881,-158.2021 1034.9313,-155.6764"/>
<polygon fill="#c0c0c0" stroke="#c0c0c0" points="1034.7259,-152.172 1024.661,-155.4806 1034.5924,-159.1707 1034.7259,-152.172"/>
</g>
<!-- editors&#45;&gt;magnolia_backend -->
<g id="edge3" class="edge">
<title>editors&#45;&gt;magnolia_backend</title>
<path fill="none" stroke="#c0c0c0" d="M648.2889,-447.2022C650.9515,-439.2146 654.1549,-429.6045 657.1201,-420.7087"/>
<polygon fill="#c0c0c0" stroke="#c0c0c0" points="660.4834,-421.6868 660.3253,-411.0931 653.8426,-419.4731 660.4834,-421.6868"/>
</g>
<!-- pd&#45;&gt;metis -->
<g id="edge46" class="edge">
<title>pd&#45;&gt;metis</title>
<path fill="none" stroke="#c0c0c0" d="M115.7217,-220.3978C110.8204,-209.0977 104.3638,-194.2116 98.8489,-181.4967"/>
<polygon fill="#c0c0c0" stroke="#c0c0c0" points="102.0468,-180.0737 94.8566,-172.2922 95.6248,-182.8591 102.0468,-180.0737"/>
</g>
<!-- prepr&#45;&gt;metis -->
<g id="edge45" class="edge">
<title>prepr&#45;&gt;metis</title>
<path fill="none" stroke="#c0c0c0" d="M58.991,-220.3978C63.8923,-209.0977 70.3489,-194.2116 75.8638,-181.4967"/>
<polygon fill="#c0c0c0" stroke="#c0c0c0" points="79.0879,-182.8591 79.8561,-172.2922 72.6659,-180.0737 79.0879,-182.8591"/>
</g>
</g>
</svg>
