<?xml version="1.0" encoding="UTF-8" standalone="no"?>
<!DOCTYPE svg PUBLIC "-//W3C//DTD SVG 1.1//EN"
 "http://www.w3.org/Graphics/SVG/1.1/DTD/svg11.dtd">
<!-- Generated by graphviz version 2.40.1 (20161225.0304)
 -->
<!-- Title: poms_universe Pages: 1 -->
<svg width="2078pt" height="497pt"
 viewBox="0.00 0.00 2078.00 496.95" xmlns="http://www.w3.org/2000/svg" xmlns:xlink="http://www.w3.org/1999/xlink">
<g id="graph0" class="graph" transform="scale(1 1) rotate(0) translate(4 492.9533)">
<title>poms_universe</title>
<polygon fill="#ffffff" stroke="transparent" points="-4,4 -4,-492.9533 2074,-492.9533 2074,4 -4,4"/>
<text text-anchor="middle" x="1035" y="-7.8" font-family="Times,serif" font-size="14.00" fill="#000000">Deployments relevant for POMS</text>
<g id="clust1" class="cluster">
<title>cluster_0</title>
<polygon fill="#f0ffff" stroke="#000000" points="642,-106 642,-219.9533 1481,-219.9533 1481,-106 642,-106"/>
<text text-anchor="middle" x="1061.5" y="-113.8" font-family="Times,serif" font-size="14.00" fill="#000000">Generic backend services</text>
</g>
<g id="clust2" class="cluster">
<title>cluster_3</title>
<polygon fill="none" stroke="#000000" points="606,-322.9533 606,-480.9533 1164,-480.9533 1164,-322.9533 606,-322.9533"/>
<text text-anchor="middle" x="885" y="-465.7533" font-family="Times,serif" font-size="14.00" fill="#000000">World</text>
</g>
<g id="clust3" class="cluster">
<title>cluster_2</title>
<polygon fill="none" stroke="#000000" points="614,-330.9533 614,-405.9533 1122,-405.9533 1122,-330.9533 614,-330.9533"/>
<text text-anchor="middle" x="868" y="-390.7533" font-family="Times,serif" font-size="14.00" fill="#000000">VPRO</text>
</g>
<g id="clust4" class="cluster">
<title>cluster_4</title>
<polygon fill="#f0ffff" stroke="#000000" points="542,-239.9533 542,-314.9533 1566,-314.9533 1566,-239.9533 542,-239.9533"/>
<text text-anchor="middle" x="1054" y="-299.7533" font-family="Times,serif" font-size="14.00" fill="#000000">POMS &#160;Services</text>
</g>
<g id="clust5" class="cluster">
<title>cluster_5</title>
<polygon fill="none" stroke="#000000" points="1559,-31 1559,-200.4767 2062,-200.4767 2062,-31 1559,-31"/>
<text text-anchor="middle" x="1810.5" y="-38.8" font-family="Times,serif" font-size="14.00" fill="#000000">NPO Services</text>
</g>
<g id="clust6" class="cluster">
<title>cluster_6</title>
<polygon fill="none" stroke="#000000" points="8,-125.4767 8,-200.4767 634,-200.4767 634,-125.4767 8,-125.4767"/>
<text text-anchor="middle" x="321" y="-133.2767" font-family="Times,serif" font-size="14.00" fill="#000000">Auxiliary API&#39;s</text>
</g>
<!-- poms -->
<g id="node1" class="node">
<title>poms</title>
<g id="a_node1"><a xlink:href="https://poms.omroep.nl/" xlink:title="POMS">
<ellipse fill="none" stroke="#000000" cx="1522" cy="-265.9533" rx="35.9954" ry="18"/>
<text text-anchor="middle" x="1522" y="-262.2533" font-family="Times,serif" font-size="14.00" fill="#0000ff">POMS</text>
</a>
</g>
</g>
<!-- gtaa -->
<g id="node8" class="node">
<title>gtaa</title>
<g id="a_node8"><a xlink:href="http://gtaa.beeldengeluid.nl/" xlink:title="B&amp;G Thesaurus">
<ellipse fill="none" stroke="#000000" cx="556" cy="-174.4767" rx="70.3881" ry="18"/>
<text text-anchor="middle" x="556" y="-170.7767" font-family="Times,serif" font-size="14.00" fill="#0000ff">B&amp;G Thesaurus</text>
</a>
</g>
</g>
<!-- poms&#45;&gt;gtaa -->
<g id="edge9" class="edge">
<title>poms&#45;&gt;gtaa</title>
<path fill="none" stroke="#0000ff" d="M1501.4627,-251.1996C1494.1025,-246.7156 1485.5128,-242.3449 1477,-239.9533 1297.4534,-189.5122 817.9825,-268.8164 638,-219.9533 620.4365,-215.185 602.5747,-205.9085 588.0248,-196.9706"/>
<polygon fill="#0000ff" stroke="#0000ff" points="589.7402,-193.9135 579.4257,-191.4926 585.9792,-199.8173 589.7402,-193.9135"/>
</g>
<!-- postgresql_media -->
<g id="node12" class="node">
<title>postgresql_media</title>
<ellipse fill="none" stroke="#000000" cx="1398" cy="-174.4767" rx="74.9875" ry="18"/>
<text text-anchor="middle" x="1398" y="-170.7767" font-family="Times,serif" font-size="14.00" fill="#000000">postgresql_media</text>
</g>
<!-- poms&#45;&gt;postgresql_media -->
<g id="edge10" class="edge">
<title>poms&#45;&gt;postgresql_media</title>
<path fill="none" stroke="#0000ff" d="M1501.8013,-251.0524C1482.3285,-236.687 1452.5581,-214.725 1429.8848,-197.9985"/>
<polygon fill="#0000ff" stroke="#0000ff" points="1431.7038,-194.9911 1421.5788,-191.8711 1427.5482,-200.6242 1431.7038,-194.9911"/>
</g>
<!-- jms_ingest -->
<g id="node15" class="node">
<title>jms_ingest</title>
<ellipse fill="none" stroke="#000000" cx="1044" cy="-174.4767" rx="93.1765" ry="37.4533"/>
<text text-anchor="start" x="986" y="-185.7767" font-family="Times,serif" font-size="14.00" fill="#000000">JMS ActiveMQ</text>
<text text-anchor="start" x="986" y="-170.7767" font-family="Times,serif" font-size="14.00" fill="#000000">(broadcast ingests,</text>
<text text-anchor="middle" x="1044" y="-155.7767" font-family="Times,serif" font-size="14.00" fill="#000000">internal SOAP calls)</text>
</g>
<!-- poms&#45;&gt;jms_ingest -->
<g id="edge11" class="edge">
<title>poms&#45;&gt;jms_ingest</title>
<path fill="none" stroke="#0000ff" d="M1500.9588,-251.1032C1493.6967,-246.7278 1485.2949,-242.4479 1477,-239.9533 1335.8649,-197.5085 1289.1597,-254.9677 1146,-219.9533 1134.1113,-217.0456 1121.8839,-212.8067 1110.2075,-208.07"/>
<polygon fill="#0000ff" stroke="#0000ff" points="1111.5529,-204.8389 1100.9785,-204.1804 1108.8342,-211.2894 1111.5529,-204.8389"/>
</g>
<!-- jms_publish -->
<g id="node16" class="node">
<title>jms_publish</title>
<ellipse fill="none" stroke="#000000" cx="1230" cy="-174.4767" rx="74.9067" ry="26.7407"/>
<text text-anchor="start" x="1185" y="-178.2767" font-family="Times,serif" font-size="14.00" fill="#000000">JMS ActiveMQ</text>
<text text-anchor="middle" x="1230" y="-163.2767" font-family="Times,serif" font-size="14.00" fill="#000000">(publication)</text>
</g>
<!-- poms&#45;&gt;jms_publish -->
<g id="edge12" class="edge">
<title>poms&#45;&gt;jms_publish</title>
<path fill="none" stroke="#0000ff" d="M1500.864,-251.4019C1493.5955,-247.0463 1485.2139,-242.7027 1477,-239.9533 1407.7867,-216.7858 1383.5276,-242.1597 1314,-219.9533 1301.0339,-215.8121 1287.7473,-209.6516 1275.6786,-203.1923"/>
<polygon fill="#0000ff" stroke="#0000ff" points="1277.1556,-200.0093 1266.7124,-198.2231 1273.7623,-206.1319 1277.1556,-200.0093"/>
</g>
<!-- metis -->
<g id="node23" class="node">
<title>metis</title>
<ellipse fill="none" stroke="#000000" cx="1775" cy="-80" rx="30.5947" ry="18"/>
<text text-anchor="middle" x="1775" y="-76.3" font-family="Times,serif" font-size="14.00" fill="#000000">metis</text>
</g>
<!-- poms&#45;&gt;metis -->
<g id="edge13" class="edge">
<title>poms&#45;&gt;metis</title>
<path fill="none" stroke="#0000ff" d="M1520.0188,-247.8272C1517.4667,-214.2845 1517.4334,-142.6215 1558,-106 1570.8196,-94.4271 1675.1656,-86.1645 1734.3658,-82.3573"/>
<polygon fill="#0000ff" stroke="#0000ff" points="1734.7505,-85.8401 1744.5114,-81.72 1734.3116,-78.8539 1734.7505,-85.8401"/>
</g>
<!-- pd -->
<g id="node24" class="node">
<title>pd</title>
<ellipse fill="none" stroke="#000000" cx="2027" cy="-174.4767" rx="27" ry="18"/>
<text text-anchor="middle" x="2027" y="-170.7767" font-family="Times,serif" font-size="14.00" fill="#000000">pd</text>
</g>
<!-- poms&#45;&gt;pd -->
<g id="edge14" class="edge">
<title>poms&#45;&gt;pd</title>
<path fill="none" stroke="#0000ff" d="M1557.5982,-264.0648C1660.4645,-258.3853 1953.2051,-240.5752 1991,-219.9533 1999.3864,-215.3775 2006.5013,-207.9471 2012.1352,-200.4066"/>
<polygon fill="#0000ff" stroke="#0000ff" points="2015.3441,-201.9103 2018.0561,-191.6684 2009.5491,-197.9836 2015.3441,-201.9103"/>
</g>
<!-- prepr -->
<g id="node25" class="node">
<title>prepr</title>
<ellipse fill="none" stroke="#000000" cx="1952" cy="-174.4767" rx="29.795" ry="18"/>
<text text-anchor="middle" x="1952" y="-170.7767" font-family="Times,serif" font-size="14.00" fill="#000000">prepr</text>
</g>
<!-- poms&#45;&gt;prepr -->
<g id="edge15" class="edge">
<title>poms&#45;&gt;prepr</title>
<path fill="none" stroke="#0000ff" d="M1557.7768,-265.0394C1642.3042,-262.3606 1851.8473,-252.5331 1913,-219.9533 1921.8983,-215.2126 1929.6498,-207.5415 1935.847,-199.839"/>
<polygon fill="#0000ff" stroke="#0000ff" points="1938.8051,-201.7255 1941.9423,-191.6058 1933.1791,-197.5603 1938.8051,-201.7255"/>
</g>
<!-- miranda -->
<g id="node26" class="node">
<title>miranda</title>
<ellipse fill="none" stroke="#000000" cx="1864" cy="-174.4767" rx="40.0939" ry="18"/>
<text text-anchor="middle" x="1864" y="-170.7767" font-family="Times,serif" font-size="14.00" fill="#000000">miranda</text>
</g>
<!-- poms&#45;&gt;miranda -->
<g id="edge16" class="edge">
<title>poms&#45;&gt;miranda</title>
<path fill="none" stroke="#0000ff" d="M1557.4482,-262.9296C1624.9411,-256.7568 1769.1721,-241.4505 1814,-219.9533 1824.6928,-214.8256 1834.7354,-206.6591 1842.9748,-198.6521"/>
<polygon fill="#0000ff" stroke="#0000ff" points="1845.5331,-201.0419 1850.0016,-191.4355 1840.5177,-196.1585 1845.5331,-201.0419"/>
</g>
<!-- pluto -->
<g id="node27" class="node">
<title>pluto</title>
<ellipse fill="none" stroke="#000000" cx="1776" cy="-174.4767" rx="29.4969" ry="18"/>
<text text-anchor="middle" x="1776" y="-170.7767" font-family="Times,serif" font-size="14.00" fill="#000000">pluto</text>
</g>
<!-- poms&#45;&gt;pluto -->
<g id="edge17" class="edge">
<title>poms&#45;&gt;pluto</title>
<path fill="none" stroke="#0000ff" d="M1556.9098,-261.3431C1609.9533,-253.871 1707.8689,-238.1082 1738,-219.9533 1746.4134,-214.884 1753.8364,-207.2711 1759.8377,-199.7167"/>
<polygon fill="#0000ff" stroke="#0000ff" points="1762.656,-201.792 1765.7712,-191.6655 1757.021,-197.6391 1762.656,-201.792"/>
</g>
<!-- nep -->
<g id="node28" class="node">
<title>nep</title>
<ellipse fill="none" stroke="#000000" cx="1702" cy="-174.4767" rx="27" ry="18"/>
<text text-anchor="middle" x="1702" y="-170.7767" font-family="Times,serif" font-size="14.00" fill="#000000">nep</text>
</g>
<!-- poms&#45;&gt;nep -->
<g id="edge18" class="edge">
<title>poms&#45;&gt;nep</title>
<path fill="none" stroke="#0000ff" d="M1556.5342,-260.8158C1587.4029,-254.923 1632.7617,-242.9472 1666,-219.9533 1673.7377,-214.6004 1680.6229,-207.0968 1686.2471,-199.7254"/>
<polygon fill="#0000ff" stroke="#0000ff" points="1689.3142,-201.4509 1692.2456,-191.2697 1683.605,-197.4007 1689.3142,-201.4509"/>
</g>
<!-- keycloak -->
<g id="node29" class="node">
<title>keycloak</title>
<g id="a_node29"><a xlink:href="https://ident.poms.omroep.nl/auth/" xlink:title="Keycloak">
<ellipse fill="none" stroke="#000000" cx="1612" cy="-174.4767" rx="45.4919" ry="18"/>
<text text-anchor="middle" x="1612" y="-170.7767" font-family="Times,serif" font-size="14.00" fill="#0000ff">Keycloak</text>
</a>
</g>
</g>
<!-- poms&#45;&gt;keycloak -->
<g id="edge19" class="edge">
<title>poms&#45;&gt;keycloak</title>
<path fill="none" stroke="#0000ff" d="M1538.0902,-249.5991C1551.9944,-235.4667 1572.2845,-214.8438 1588.0894,-198.7796"/>
<polygon fill="#0000ff" stroke="#0000ff" points="1590.9218,-200.8912 1595.4402,-191.3082 1585.9319,-195.9819 1590.9218,-200.8912"/>
</g>
<!-- poms_backend -->
<g id="node2" class="node">
<title>poms_backend</title>
<g id="a_node2"><a xlink:href="https://api.poms.omroep.nl/" xlink:title="POMS backend API">
<ellipse fill="none" stroke="#000000" cx="1383" cy="-265.9533" rx="85.2851" ry="18"/>
<text text-anchor="middle" x="1383" y="-262.2533" font-family="Times,serif" font-size="14.00" fill="#0000ff">POMS backend API</text>
</a>
</g>
</g>
<!-- poms_backend&#45;&gt;jms_ingest -->
<g id="edge20" class="edge">
<title>poms_backend&#45;&gt;jms_ingest</title>
<path fill="none" stroke="#ff7f00" d="M1334.0225,-251.1009C1319.6132,-247.0867 1303.7559,-243.0122 1289,-239.9533 1226.1618,-226.927 1207.6895,-237.6375 1146,-219.9533 1134.6425,-216.6975 1122.9125,-212.4149 1111.6309,-207.7789"/>
<polygon fill="#ff7f00" stroke="#ff7f00" points="1112.8509,-204.4947 1102.2778,-203.8162 1110.1202,-210.9401 1112.8509,-204.4947"/>
</g>
<!-- poms_backend&#45;&gt;metis -->
<g id="edge21" class="edge">
<title>poms_backend&#45;&gt;metis</title>
<path fill="none" stroke="#ff7f00" d="M1436.7534,-251.9415C1454.3258,-244.9427 1472.5145,-234.7083 1485,-219.9533 1518.8298,-179.9742 1475.1648,-139.9992 1515,-106 1531.287,-92.0991 1664.9768,-84.5601 1734.0339,-81.5603"/>
<polygon fill="#ff7f00" stroke="#ff7f00" points="1734.2899,-85.0527 1744.1334,-81.1339 1733.9946,-78.0589 1734.2899,-85.0527"/>
</g>
<!-- poms_backend&#45;&gt;nep -->
<g id="edge22" class="edge">
<title>poms_backend&#45;&gt;nep</title>
<path fill="none" stroke="#ff7f00" d="M1430.9456,-251.0557C1445.6087,-246.9437 1461.8622,-242.8276 1477,-239.9533 1518.4932,-232.0749 1629.0029,-240.3241 1666,-219.9533 1674.3688,-215.3454 1681.4792,-207.9068 1687.1143,-200.3685"/>
<polygon fill="#ff7f00" stroke="#ff7f00" points="1690.3203,-201.8771 1693.0389,-191.637 1684.5278,-197.9467 1690.3203,-201.8771"/>
</g>
<!-- poms_backend&#45;&gt;keycloak -->
<g id="edge23" class="edge">
<title>poms_backend&#45;&gt;keycloak</title>
<path fill="none" stroke="#ff7f00" d="M1430.1723,-250.8286C1455.5473,-242.3643 1487.2436,-231.2611 1515,-219.9533 1534.7653,-211.9011 1556.3006,-201.9303 1574.048,-193.3788"/>
<polygon fill="#ff7f00" stroke="#ff7f00" points="1576.0174,-196.3133 1583.4826,-188.7952 1572.9584,-190.017 1576.0174,-196.3133"/>
</g>
<!-- api -->
<g id="node3" class="node">
<title>api</title>
<g id="a_node3"><a xlink:href="https://rs.poms.omroep.nl/" xlink:title="NPO Frontend API">
<ellipse fill="none" stroke="#000000" cx="883" cy="-265.9533" rx="81.4863" ry="18"/>
<text text-anchor="middle" x="883" y="-262.2533" font-family="Times,serif" font-size="14.00" fill="#0000ff">NPO Frontend API</text>
</a>
</g>
</g>
<!-- api&#45;&gt;gtaa -->
<g id="edge24" class="edge">
<title>api&#45;&gt;gtaa</title>
<path fill="none" stroke="#6495ed" d="M836.6279,-251.089C822.7101,-247.027 807.3317,-242.9299 793,-239.9533 724.9913,-225.8287 703.9917,-241.6279 638,-219.9533 621.0937,-214.4006 603.6743,-205.2981 589.2626,-196.6898"/>
<polygon fill="#6495ed" stroke="#6495ed" points="591.061,-193.687 580.7094,-191.43 587.3942,-199.6497 591.061,-193.687"/>
</g>
<!-- elasticsearch -->
<g id="node14" class="node">
<title>elasticsearch</title>
<ellipse fill="none" stroke="#000000" cx="875" cy="-174.4767" rx="57.3905" ry="18"/>
<text text-anchor="middle" x="875" y="-170.7767" font-family="Times,serif" font-size="14.00" fill="#000000">elasticsearch</text>
</g>
<!-- api&#45;&gt;elasticsearch -->
<g id="edge25" class="edge">
<title>api&#45;&gt;elasticsearch</title>
<path fill="none" stroke="#6495ed" d="M881.4195,-247.8805C880.2909,-234.9756 878.7507,-217.3642 877.4618,-202.6268"/>
<polygon fill="#6495ed" stroke="#6495ed" points="880.9353,-202.169 876.5773,-192.512 873.9619,-202.7789 880.9353,-202.169"/>
</g>
<!-- pages_publish -->
<g id="node4" class="node">
<title>pages_publish</title>
<g id="a_node4"><a xlink:href="https://publish.pages.omroep.nl/" xlink:title="Pages Publisher">
<ellipse fill="none" stroke="#000000" cx="1051" cy="-265.9533" rx="68.7879" ry="18"/>
<text text-anchor="middle" x="1051" y="-262.2533" font-family="Times,serif" font-size="14.00" fill="#0000ff">Pages Publisher</text>
</a>
</g>
</g>
<!-- pages_publish&#45;&gt;gtaa -->
<g id="edge26" class="edge">
<title>pages_publish&#45;&gt;gtaa</title>
<path fill="none" stroke="#8fbc8f" d="M1012.6537,-250.9507C1000.1905,-246.6775 986.1745,-242.4965 973,-239.9533 826.5496,-211.6831 781.2211,-261.6023 638,-219.9533 620.6541,-214.9091 602.9385,-205.693 588.433,-196.8695"/>
<polygon fill="#8fbc8f" stroke="#8fbc8f" points="590.1758,-193.831 579.848,-191.4673 586.4476,-199.7556 590.1758,-193.831"/>
</g>
<!-- pages_publish&#45;&gt;elasticsearch -->
<g id="edge27" class="edge">
<title>pages_publish&#45;&gt;elasticsearch</title>
<path fill="none" stroke="#8fbc8f" d="M1011.0253,-251.2741C990.0155,-243.0176 964.1071,-231.9684 942,-219.9533 929.5979,-213.2129 916.6177,-204.7641 905.4206,-196.9839"/>
<polygon fill="#8fbc8f" stroke="#8fbc8f" points="907.4309,-194.1188 897.2449,-191.2041 903.3901,-199.8348 907.4309,-194.1188"/>
</g>
<!-- pages_publish&#45;&gt;keycloak -->
<g id="edge28" class="edge">
<title>pages_publish&#45;&gt;keycloak</title>
<path fill="none" stroke="#8fbc8f" d="M1089.341,-250.9229C1101.8039,-246.6482 1115.8211,-242.4733 1129,-239.9533 1284.6517,-210.1902 1329.6868,-251.4352 1485,-219.9533 1515.1919,-213.8335 1547.8871,-201.9961 1572.542,-191.9326"/>
<polygon fill="#8fbc8f" stroke="#8fbc8f" points="1574.0213,-195.1081 1581.9106,-188.0363 1571.3332,-188.6447 1574.0213,-195.1081"/>
</g>
<!-- media_publish -->
<g id="node5" class="node">
<title>media_publish</title>
<ellipse fill="none" stroke="#000000" cx="1209" cy="-265.9533" rx="70.6878" ry="18"/>
<text text-anchor="middle" x="1209" y="-262.2533" font-family="Times,serif" font-size="14.00" fill="#000000">Media Publisher</text>
</g>
<!-- media_publish&#45;&gt;elasticsearch -->
<g id="edge29" class="edge">
<title>media_publish&#45;&gt;elasticsearch</title>
<path fill="none" stroke="#bf3eff" d="M1168.7472,-251.0682C1156.1669,-246.9063 1142.1394,-242.7592 1129,-239.9533 1047.258,-222.4973 1020.4763,-248.7272 942,-219.9533 928.011,-214.8242 914.1213,-206.1474 902.6464,-197.7396"/>
<polygon fill="#bf3eff" stroke="#bf3eff" points="904.452,-194.7145 894.3805,-191.4257 900.2028,-200.2773 904.452,-194.7145"/>
</g>
<!-- media_publish&#45;&gt;jms_publish -->
<g id="edge30" class="edge">
<title>media_publish&#45;&gt;jms_publish</title>
<path fill="none" stroke="#bf3eff" d="M1213.1489,-247.8805C1215.5446,-237.4448 1218.6468,-223.9314 1221.5354,-211.3488"/>
<polygon fill="#bf3eff" stroke="#bf3eff" points="1224.9623,-212.0636 1223.7885,-201.534 1218.1397,-210.4973 1224.9623,-212.0636"/>
</g>
<!-- images_frontend -->
<g id="node6" class="node">
<title>images_frontend</title>
<g id="a_node6"><a xlink:href="https://images.poms.omroep.nl" xlink:title="Images">
<ellipse fill="none" stroke="#000000" cx="747" cy="-265.9533" rx="37.0935" ry="18"/>
<text text-anchor="middle" x="747" y="-262.2533" font-family="Times,serif" font-size="14.00" fill="#0000ff">Images</text>
</a>
</g>
</g>
<!-- postgresql_image -->
<g id="node13" class="node">
<title>postgresql_image</title>
<ellipse fill="none" stroke="#000000" cx="725" cy="-174.4767" rx="74.9875" ry="18"/>
<text text-anchor="middle" x="725" y="-170.7767" font-family="Times,serif" font-size="14.00" fill="#000000">postgresql_image</text>
</g>
<!-- images_frontend&#45;&gt;postgresql_image -->
<g id="edge31" class="edge">
<title>images_frontend&#45;&gt;postgresql_image</title>
<path fill="none" stroke="#caff70" d="M742.6535,-247.8805C739.5499,-234.9756 735.3144,-217.3642 731.7701,-202.6268"/>
<polygon fill="#caff70" stroke="#caff70" points="735.0788,-201.4163 729.3375,-192.512 728.2729,-203.0532 735.0788,-201.4163"/>
</g>
<!-- images_backend -->
<g id="node7" class="node">
<title>images_backend</title>
<g id="a_node7"><a xlink:href="https://poms.omroep.nl/images/" xlink:title="Images Backend">
<ellipse fill="none" stroke="#000000" cx="621" cy="-265.9533" rx="70.6878" ry="18"/>
<text text-anchor="middle" x="621" y="-262.2533" font-family="Times,serif" font-size="14.00" fill="#0000ff">Images Backend</text>
</a>
</g>
</g>
<!-- thineye -->
<g id="node9" class="node">
<title>thineye</title>
<ellipse fill="none" stroke="#000000" cx="430" cy="-174.4767" rx="37.8943" ry="18"/>
<text text-anchor="middle" x="430" y="-170.7767" font-family="Times,serif" font-size="14.00" fill="#000000">thineye</text>
</g>
<!-- images_backend&#45;&gt;thineye -->
<g id="edge32" class="edge">
<title>images_backend&#45;&gt;thineye</title>
<path fill="none" stroke="#caff70" d="M565.4894,-254.5782C537.6351,-247.3303 504.14,-236.1873 477,-219.9533 467.6458,-214.358 458.6978,-206.564 451.1669,-199.0072"/>
<polygon fill="#caff70" stroke="#caff70" points="453.5718,-196.4571 444.1458,-191.6197 448.4978,-201.2794 453.5718,-196.4571"/>
</g>
<!-- images_backend&#45;&gt;postgresql_image -->
<g id="edge33" class="edge">
<title>images_backend&#45;&gt;postgresql_image</title>
<path fill="none" stroke="#caff70" d="M641.0522,-248.3157C657.0224,-234.2686 679.5565,-214.448 697.2575,-198.8785"/>
<polygon fill="#caff70" stroke="#caff70" points="699.8122,-201.2927 705.0093,-192.0601 695.189,-196.0366 699.8122,-201.2927"/>
</g>
<!-- images_backend&#45;&gt;jms_ingest -->
<g id="edge34" class="edge">
<title>images_backend&#45;&gt;jms_ingest</title>
<path fill="none" stroke="#caff70" d="M660.8038,-251.0146C673.4869,-246.7984 687.6855,-242.6341 701,-239.9533 805.9306,-218.8263 837.2768,-246.3786 941,-219.9533 952.8826,-216.926 965.1264,-212.6517 976.8408,-207.9233"/>
<polygon fill="#caff70" stroke="#caff70" points="978.2298,-211.1362 986.1051,-204.049 975.529,-204.6782 978.2298,-211.1362"/>
</g>
<!-- images_backend&#45;&gt;keycloak -->
<g id="edge35" class="edge">
<title>images_backend&#45;&gt;keycloak</title>
<path fill="none" stroke="#caff70" d="M659.9008,-250.8203C672.7837,-246.4839 687.3259,-242.2987 701,-239.9533 872.7705,-210.491 1313.6847,-251.9568 1485,-219.9533 1515.3836,-214.2773 1548.1942,-202.3666 1572.8536,-192.1583"/>
<polygon fill="#caff70" stroke="#caff70" points="1574.3687,-195.3178 1582.218,-188.2017 1571.6443,-188.8697 1574.3687,-195.3178"/>
</g>
<!-- wikimedia -->
<g id="node30" class="node">
<title>wikimedia</title>
<ellipse fill="none" stroke="#000000" cx="325" cy="-174.4767" rx="49.2915" ry="18"/>
<text text-anchor="middle" x="325" y="-170.7767" font-family="Times,serif" font-size="14.00" fill="#000000">wikimedia</text>
</g>
<!-- images_backend&#45;&gt;wikimedia -->
<g id="edge36" class="edge">
<title>images_backend&#45;&gt;wikimedia</title>
<path fill="none" stroke="#caff70" d="M552.4892,-261.3249C503.4676,-255.9916 436.8919,-244.5351 383,-219.9533 371.1763,-214.5602 359.6054,-206.2885 349.9477,-198.2712"/>
<polygon fill="#caff70" stroke="#caff70" points="352.1717,-195.5672 342.3216,-191.6652 347.5885,-200.8582 352.1717,-195.5672"/>
</g>
<!-- pixabay -->
<g id="node31" class="node">
<title>pixabay</title>
<ellipse fill="none" stroke="#000000" cx="218" cy="-174.4767" rx="39.7935" ry="18"/>
<text text-anchor="middle" x="218" y="-170.7767" font-family="Times,serif" font-size="14.00" fill="#000000">pixabay</text>
</g>
<!-- images_backend&#45;&gt;pixabay -->
<g id="edge37" class="edge">
<title>images_backend&#45;&gt;pixabay</title>
<path fill="none" stroke="#caff70" d="M551.8517,-261.9696C463.4914,-256.0245 316.0937,-242.986 267,-219.9533 256.5978,-215.0731 246.913,-207.1663 238.9465,-199.3036"/>
<polygon fill="#caff70" stroke="#caff70" points="241.0178,-196.4029 231.5897,-191.5695 235.9458,-201.2274 241.0178,-196.4029"/>
</g>
<!-- flickr -->
<g id="node32" class="node">
<title>flickr</title>
<ellipse fill="none" stroke="#000000" cx="130" cy="-174.4767" rx="29.795" ry="18"/>
<text text-anchor="middle" x="130" y="-170.7767" font-family="Times,serif" font-size="14.00" fill="#000000">flickr</text>
</g>
<!-- images_backend&#45;&gt;flickr -->
<g id="edge38" class="edge">
<title>images_backend&#45;&gt;flickr</title>
<path fill="none" stroke="#caff70" d="M553.5206,-260.4102C431.6384,-250.2132 185.7767,-228.7231 169,-219.9533 160.0647,-215.2826 152.3044,-207.6284 146.1103,-199.92"/>
<polygon fill="#caff70" stroke="#caff70" points="148.7772,-197.6395 140.0223,-191.6728 143.1455,-201.7969 148.7772,-197.6395"/>
</g>
<!-- api_tests -->
<g id="node10" class="node">
<title>api_tests</title>
<g id="a_node10"><a xlink:href="https://git.vpro.nl/npo/test/api-tests/pipelines" xlink:title="api_tests">
<ellipse fill="#f0ffff" stroke="#000000" cx="732" cy="-431.9533" rx="42.4939" ry="18"/>
<text text-anchor="middle" x="732" y="-428.2533" font-family="Times,serif" font-size="14.00" fill="#0000ff">api_tests</text>
</a>
</g>
</g>
<!-- api_tests&#45;&gt;poms_backend -->
<g id="edge44" class="edge">
<title>api_tests&#45;&gt;poms_backend</title>
<path fill="none" stroke="#c0c0c0" d="M762.5831,-419.3742C769.209,-417.1559 776.2545,-415.1696 783,-413.9533 807.9898,-409.4473 1217.1457,-417.0202 1240,-405.9533 1282.9209,-385.1695 1273.6693,-356.0528 1308,-322.9533 1320.4588,-310.9413 1335.4327,-299.1205 1348.7136,-289.3852"/>
<polygon fill="#c0c0c0" stroke="#c0c0c0" points="1351.0834,-291.9918 1357.1531,-283.3079 1346.9929,-286.3113 1351.0834,-291.9918"/>
</g>
<!-- api_tests&#45;&gt;api -->
<g id="edge45" class="edge">
<title>api_tests&#45;&gt;api</title>
<path fill="none" stroke="#c0c0c0" d="M762.585,-419.3843C769.2107,-417.1654 776.2557,-415.1762 783,-413.9533 794.2356,-411.916 1186.0046,-414.1058 1194,-405.9533 1219.8293,-379.6163 1219.6082,-349.5053 1194,-322.9533 1185.4712,-314.1102 984.8493,-318.1992 973,-314.9533 952.8762,-309.4407 932.3016,-298.6948 915.9128,-288.6677"/>
<polygon fill="#c0c0c0" stroke="#c0c0c0" points="917.5922,-285.5887 907.2681,-283.2088 913.8547,-291.5075 917.5922,-285.5887"/>
</g>
<!-- api_tests&#45;&gt;pages_publish -->
<g id="edge46" class="edge">
<title>api_tests&#45;&gt;pages_publish</title>
<path fill="none" stroke="#c0c0c0" d="M762.584,-419.379C769.2098,-417.1604 776.255,-415.1728 783,-413.9533 794.8652,-411.8082 1208.5529,-414.5575 1217,-405.9533 1242.8429,-379.6297 1241.8756,-350.1929 1217,-322.9533 1203.7586,-308.4535 1147.6034,-321.2378 1129,-314.9533 1111.8109,-309.1465 1094.5378,-298.8628 1080.6311,-289.2107"/>
<polygon fill="#c0c0c0" stroke="#c0c0c0" points="1082.6026,-286.3174 1072.4382,-283.3282 1078.52,-292.0036 1082.6026,-286.3174"/>
</g>
<!-- fitnesse_tests -->
<g id="node11" class="node">
<title>fitnesse_tests</title>
<g id="a_node11"><a xlink:href="https://jenkins.vpro.nl/view/POMS/job/POMS-Fitnesse-Tests/" xlink:title="fitnesse_tests">
<ellipse fill="#f0ffff" stroke="#000000" cx="1008" cy="-431.9533" rx="58.4896" ry="18"/>
<text text-anchor="middle" x="1008" y="-428.2533" font-family="Times,serif" font-size="14.00" fill="#0000ff">fitnesse_tests</text>
</a>
</g>
</g>
<!-- fitnesse_tests&#45;&gt;poms -->
<g id="edge47" class="edge">
<title>fitnesse_tests&#45;&gt;poms</title>
<path fill="none" stroke="#c0c0c0" d="M1049.5051,-419.2241C1057.8731,-417.1061 1066.6611,-415.1968 1075,-413.9533 1127.34,-406.1483 1261.9997,-420.073 1313,-405.9533 1393.3359,-383.7119 1411.5203,-366.5378 1477,-314.9533 1485.9382,-307.9119 1494.6612,-299.0334 1502.0109,-290.7746"/>
<polygon fill="#c0c0c0" stroke="#c0c0c0" points="1504.7244,-292.9873 1508.599,-283.1264 1499.4207,-288.4188 1504.7244,-292.9873"/>
</g>
<!-- fitnesse_tests&#45;&gt;poms_backend -->
<g id="edge48" class="edge">
<title>fitnesse_tests&#45;&gt;poms_backend</title>
<path fill="none" stroke="#c0c0c0" d="M1049.8747,-419.2046C1058.134,-417.1166 1066.787,-415.2235 1075,-413.9533 1094.7845,-410.8936 1236.864,-414.4312 1255,-405.9533 1306.5411,-381.8598 1346.8102,-326.5283 1367.5489,-293.0919"/>
<polygon fill="#c0c0c0" stroke="#c0c0c0" points="1370.6943,-294.6543 1372.8735,-284.286 1364.7041,-291.0323 1370.6943,-294.6543"/>
</g>
<!-- fitnesse_tests&#45;&gt;api -->
<g id="edge49" class="edge">
<title>fitnesse_tests&#45;&gt;api</title>
<path fill="none" stroke="#c0c0c0" d="M1049.8814,-419.2473C1058.14,-417.1556 1066.7912,-415.2502 1075,-413.9533 1092.2531,-411.2277 1219.9673,-418.6148 1232,-405.9533 1257.412,-379.2135 1257.6786,-349.4373 1232,-322.9533 1221.979,-312.618 986.8943,-318.7199 973,-314.9533 952.8617,-309.4941 932.2858,-298.7527 915.9,-288.7147"/>
<polygon fill="#c0c0c0" stroke="#c0c0c0" points="917.5796,-285.6358 907.2573,-283.2485 913.8379,-291.5518 917.5796,-285.6358"/>
</g>
<!-- users -->
<g id="node17" class="node">
<title>users</title>
<ellipse fill="none" stroke="#000000" cx="643" cy="-431.9533" rx="29.4969" ry="18"/>
<text text-anchor="middle" x="643" y="-428.2533" font-family="Times,serif" font-size="14.00" fill="#000000">users</text>
</g>
<!-- users&#45;&gt;api -->
<g id="edge4" class="edge">
<title>users&#45;&gt;api</title>
<path fill="none" stroke="#c0c0c0" d="M664.9289,-419.6444C670.0541,-417.3164 675.5978,-415.2167 681,-413.9533 693.6603,-410.9926 1139.8852,-415.2253 1149,-405.9533 1174.8605,-379.647 1174.4853,-349.6233 1149,-322.9533 1135.4758,-308.8004 991.8561,-320.2124 973,-314.9533 952.9019,-309.3478 932.3294,-298.5941 915.9355,-288.5859"/>
<polygon fill="#c0c0c0" stroke="#c0c0c0" points="917.6142,-285.5069 907.2871,-283.1398 913.8841,-291.4303 917.6142,-285.5069"/>
</g>
<!-- users&#45;&gt;images_frontend -->
<g id="edge5" class="edge">
<title>users&#45;&gt;images_frontend</title>
<path fill="none" stroke="#c0c0c0" d="M664.9297,-419.648C670.0548,-417.3197 675.5984,-415.2191 681,-413.9533 693.0371,-411.1327 1117.3369,-414.7736 1126,-405.9533 1151.8489,-379.6356 1151.7692,-349.3491 1126,-322.9533 1113.0728,-309.7119 809.8933,-322.5074 793,-314.9533 781.6309,-309.8695 771.7459,-300.5071 764.0836,-291.3177"/>
<polygon fill="#c0c0c0" stroke="#c0c0c0" points="766.8356,-289.1549 757.9409,-283.3985 761.3044,-293.4453 766.8356,-289.1549"/>
</g>
<!-- magnolia_frontend -->
<g id="node20" class="node">
<title>magnolia_frontend</title>
<ellipse fill="none" stroke="#000000" cx="858" cy="-356.9533" rx="79.8859" ry="18"/>
<text text-anchor="middle" x="858" y="-353.2533" font-family="Times,serif" font-size="14.00" fill="#000000">magnolia_frontend</text>
</g>
<!-- users&#45;&gt;magnolia_frontend -->
<g id="edge6" class="edge">
<title>users&#45;&gt;magnolia_frontend</title>
<path fill="none" stroke="#c0c0c0" d="M665.0032,-419.9378C670.1245,-417.5945 675.6479,-415.4145 681,-413.9533 718.8858,-403.61 731.4466,-417.4453 769,-405.9533 788.4964,-399.9871 808.532,-389.4184 824.6448,-379.62"/>
<polygon fill="#c0c0c0" stroke="#c0c0c0" points="826.5432,-382.5609 833.1644,-374.2898 822.8305,-376.6266 826.5432,-382.5609"/>
</g>
<!-- backendsystems -->
<g id="node18" class="node">
<title>backendsystems</title>
<ellipse fill="none" stroke="#000000" cx="862" cy="-431.9533" rx="69.5877" ry="18"/>
<text text-anchor="middle" x="862" y="-428.2533" font-family="Times,serif" font-size="14.00" fill="#000000">backendsystems</text>
</g>
<!-- backendsystems&#45;&gt;poms_backend -->
<g id="edge7" class="edge">
<title>backendsystems&#45;&gt;poms_backend</title>
<path fill="none" stroke="#c0c0c0" d="M911.0346,-419.1738C920.8935,-417.06 931.2281,-415.1651 941,-413.9533 960.4119,-411.5462 1275.939,-415.521 1293,-405.9533 1336.1667,-381.7458 1361.8591,-327.26 1374.1366,-293.8489"/>
<polygon fill="#c0c0c0" stroke="#c0c0c0" points="1377.5092,-294.8082 1377.5207,-284.2134 1370.9047,-292.4886 1377.5092,-294.8082"/>
</g>
<!-- backendsystems&#45;&gt;pages_publish -->
<g id="edge8" class="edge">
<title>backendsystems&#45;&gt;pages_publish</title>
<path fill="none" stroke="#c0c0c0" d="M911.0361,-419.1861C920.8949,-417.0712 931.2291,-415.1728 941,-413.9533 950.0712,-412.8211 1263.615,-412.4955 1270,-405.9533 1295.7654,-379.5538 1295.3348,-349.7663 1270,-322.9533 1259.223,-311.5476 1143.9497,-319.7222 1129,-314.9533 1111.5885,-309.3992 1094.1783,-299.039 1080.2381,-289.2707"/>
<polygon fill="#c0c0c0" stroke="#c0c0c0" points="1082.1853,-286.3592 1072.0377,-283.3132 1078.071,-292.0224 1082.1853,-286.3592"/>
</g>
<!-- editors -->
<g id="node19" class="node">
<title>editors</title>
<ellipse fill="none" stroke="#000000" cx="1120" cy="-431.9533" rx="35.9954" ry="18"/>
<text text-anchor="middle" x="1120" y="-428.2533" font-family="Times,serif" font-size="14.00" fill="#000000">editors</text>
</g>
<!-- editors&#45;&gt;poms -->
<g id="edge1" class="edge">
<title>editors&#45;&gt;poms</title>
<path fill="none" stroke="#c0c0c0" d="M1155.853,-430.6775C1247.7518,-427.2492 1485.4176,-417.3238 1498,-405.9533 1528.739,-378.175 1529.4681,-326.5588 1526.3377,-294.3577"/>
<polygon fill="#c0c0c0" stroke="#c0c0c0" points="1529.7937,-293.7748 1525.1659,-284.2441 1522.8402,-294.5805 1529.7937,-293.7748"/>
</g>
<!-- magnolia_backend -->
<g id="node21" class="node">
<title>magnolia_backend</title>
<ellipse fill="none" stroke="#000000" cx="1035" cy="-356.9533" rx="79.0865" ry="18"/>
<text text-anchor="middle" x="1035" y="-353.2533" font-family="Times,serif" font-size="14.00" fill="#000000">magnolia_backend</text>
</g>
<!-- editors&#45;&gt;magnolia_backend -->
<g id="edge2" class="edge">
<title>editors&#45;&gt;magnolia_backend</title>
<path fill="none" stroke="#c0c0c0" d="M1101.9737,-416.0477C1090.5124,-405.9349 1075.449,-392.6436 1062.5111,-381.2278"/>
<polygon fill="#c0c0c0" stroke="#c0c0c0" points="1064.5954,-378.3992 1054.7813,-374.4074 1059.964,-383.6481 1064.5954,-378.3992"/>
</g>
<!-- editors&#45;&gt;keycloak -->
<g id="edge3" class="edge">
<title>editors&#45;&gt;keycloak</title>
<path fill="none" stroke="#c0c0c0" d="M1155.9346,-431.6993C1249.5335,-430.7522 1495.7092,-426.3308 1526,-405.9533 1593.9355,-360.2512 1608.3713,-253.9059 1611.322,-202.8387"/>
<polygon fill="#c0c0c0" stroke="#c0c0c0" points="1614.8327,-202.6884 1611.8026,-192.5361 1607.8403,-202.3621 1614.8327,-202.6884"/>
</g>
<!-- magnolia_frontend&#45;&gt;api -->
<g id="edge41" class="edge">
<title>magnolia_frontend&#45;&gt;api</title>
<path fill="none" stroke="#c0c0c0" d="M862.9392,-338.9746C866.4431,-326.2204 871.2166,-308.8447 875.2282,-294.2427"/>
<polygon fill="#c0c0c0" stroke="#c0c0c0" points="878.7113,-294.7761 877.9855,-284.2061 871.9614,-292.9216 878.7113,-294.7761"/>
</g>
<!-- magnolia_backend&#45;&gt;poms_backend -->
<g id="edge39" class="edge">
<title>magnolia_backend&#45;&gt;poms_backend</title>
<path fill="none" stroke="#c0c0c0" d="M1109.856,-350.8583C1161.2548,-345.1634 1230.4935,-334.4846 1289,-314.9533 1308.8841,-308.3154 1329.6834,-297.8836 1346.6468,-288.3483"/>
<polygon fill="#c0c0c0" stroke="#c0c0c0" points="1348.7222,-291.1923 1355.6461,-283.1729 1345.2325,-285.1242 1348.7222,-291.1923"/>
</g>
<!-- magnolia_backend&#45;&gt;pages_publish -->
<g id="edge40" class="edge">
<title>magnolia_backend&#45;&gt;pages_publish</title>
<path fill="none" stroke="#c0c0c0" d="M1038.2378,-338.5381C1040.4863,-325.75 1043.5238,-308.4741 1046.0714,-293.9846"/>
<polygon fill="#c0c0c0" stroke="#c0c0c0" points="1049.5369,-294.4856 1047.8216,-284.0306 1042.6427,-293.2734 1049.5369,-294.4856"/>
</g>
<!-- amara_importer -->
<g id="node22" class="node">
<title>amara_importer</title>
<ellipse fill="none" stroke="#000000" cx="691" cy="-356.9533" rx="68.7879" ry="18"/>
<text text-anchor="middle" x="691" y="-353.2533" font-family="Times,serif" font-size="14.00" fill="#000000">amara_importer</text>
</g>
<!-- amara_importer&#45;&gt;poms_backend -->
<g id="edge50" class="edge">
<title>amara_importer&#45;&gt;poms_backend</title>
<path fill="none" stroke="#c0c0c0" d="M720.8106,-340.644C734.9701,-333.7744 752.3966,-326.5482 769,-322.9533 825.476,-310.7254 1232.9826,-329.1349 1289,-314.9533 1310.1176,-309.6071 1331.8029,-298.7292 1349.0162,-288.5779"/>
<polygon fill="#c0c0c0" stroke="#c0c0c0" points="1350.8572,-291.5548 1357.5833,-283.3688 1347.2204,-285.5736 1350.8572,-291.5548"/>
</g>
<!-- amara -->
<g id="node33" class="node">
<title>amara</title>
<ellipse fill="none" stroke="#000000" cx="49" cy="-174.4767" rx="33.2948" ry="18"/>
<text text-anchor="middle" x="49" y="-170.7767" font-family="Times,serif" font-size="14.00" fill="#000000">amara</text>
</g>
<!-- amara_importer&#45;&gt;amara -->
<g id="edge51" class="edge">
<title>amara_importer&#45;&gt;amara</title>
<path fill="none" stroke="#c0c0c0" d="M631.2005,-347.9177C498.4517,-327.1269 183.5839,-273.5554 91,-219.9533 82.1205,-214.8125 74.0227,-207.1814 67.3585,-199.6323"/>
<polygon fill="#c0c0c0" stroke="#c0c0c0" points="69.7871,-197.0765 60.7206,-191.5947 64.3897,-201.5339 69.7871,-197.0765"/>
</g>
<!-- pd&#45;&gt;metis -->
<g id="edge43" class="edge">
<title>pd&#45;&gt;metis</title>
<path fill="none" stroke="#c0c0c0" d="M2022.6161,-156.4263C2017.7244,-140.4228 2008.1433,-117.8113 1991,-106 1976.8794,-96.2713 1874.102,-87.2619 1815.5528,-82.8467"/>
<polygon fill="#c0c0c0" stroke="#c0c0c0" points="1815.7453,-79.3515 1805.5137,-82.102 1815.2274,-86.3323 1815.7453,-79.3515"/>
</g>
<!-- prepr&#45;&gt;metis -->
<g id="edge42" class="edge">
<title>prepr&#45;&gt;metis</title>
<path fill="none" stroke="#c0c0c0" d="M1946.6398,-156.6617C1940.919,-140.8206 1930.2633,-118.3153 1913,-106 1897.6004,-95.0142 1850.1622,-87.7934 1815.1863,-83.8098"/>
<polygon fill="#c0c0c0" stroke="#c0c0c0" points="1815.5563,-80.3294 1805.2357,-82.7242 1814.7971,-87.2882 1815.5563,-80.3294"/>
</g>
</g>
</svg>
