<?xml version="1.0" encoding="UTF-8" standalone="no"?>
<!DOCTYPE svg PUBLIC "-//W3C//DTD SVG 1.1//EN"
 "http://www.w3.org/Graphics/SVG/1.1/DTD/svg11.dtd">
<!-- Generated by graphviz version 12.1.1 (20240910.0053)
 -->
<!-- Pages: 1 -->
<svg width="1717pt" height="608pt"
 viewBox="0.00 0.00 1716.73 607.50" xmlns="http://www.w3.org/2000/svg" xmlns:xlink="http://www.w3.org/1999/xlink">
<g id="graph0" class="graph" transform="scale(1 1) rotate(0) translate(4 603.5)">
<polygon fill="white" stroke="none" points="-4,4 -4,-603.5 1712.73,-603.5 1712.73,4 -4,4"/>
<text text-anchor="middle" x="854.36" y="-7.2" font-family="Times,serif" font-size="14.00"> &#160;Dependencies of the different code projects relevant to POMS</text>
<g id="clust1" class="cluster">
<title>cluster_0</title>
<polygon fill="none" stroke="black" points="993,-48.5 993,-287.5 1637,-287.5 1637,-48.5 993,-48.5"/>
<text text-anchor="middle" x="1315" y="-72.2" font-family="Times,serif" font-size="14.00">Generic utilities</text>
<text text-anchor="middle" x="1315" y="-55.7" font-family="Times,serif" font-size="14.00">(incoming edges are just examples, there are more)</text>
</g>
<g id="clust2" class="cluster">
<title>cluster_1</title>
<polygon fill="none" stroke="black" points="1024,-404 1024,-480.5 1388,-480.5 1388,-404 1024,-404"/>
<text text-anchor="middle" x="1206" y="-463.2" font-family="Times,serif" font-size="14.00">VPRO</text>
</g>
<g id="clust3" class="cluster">
<title>cluster_2</title>
<polygon fill="azure" stroke="black" points="8,-404 8,-591.5 840,-591.5 840,-404 8,-404"/>
<text text-anchor="middle" x="424" y="-574.2" font-family="Times,serif" font-size="14.00">POMS Services</text>
</g>
<g id="clust4" class="cluster">
<title>cluster_3</title>
<polygon fill="azure" stroke="black" points="573,-308.5 573,-385 921,-385 921,-308.5 573,-308.5"/>
<text text-anchor="middle" x="747" y="-367.7" font-family="Times,serif" font-size="14.00">Backend utilities</text>
</g>
<g id="clust5" class="cluster">
<title>cluster_4</title>
<polygon fill="azure" stroke="black" points="397,-235.5 397,-385 533,-385 533,-235.5 397,-235.5"/>
<text text-anchor="middle" x="465" y="-367.7" font-family="Times,serif" font-size="14.00">Sharable utilities</text>
</g>
<!-- vpro_shared -->
<g id="node1" class="node">
<title>vpro_shared</title>
<g id="a_node1"><a xlink:href="https://github.com/vpro/vpro-shared" xlink:title="vpro_shared">
<ellipse fill="none" stroke="black" cx="1153" cy="-261.5" rx="56.47" ry="18"/>
<text text-anchor="middle" x="1153" y="-256.45" font-family="Times,serif" font-size="14.00" fill="blue">vpro_shared</text>
</a>
</g>
</g>
<!-- i18n_regions -->
<g id="node3" class="node">
<title>i18n_regions</title>
<g id="a_node3"><a xlink:href="https://github.com/mihxil/i18n-regions" xlink:title="i18n_regions">
<ellipse fill="none" stroke="black" cx="1060" cy="-188.5" rx="59.03" ry="18"/>
<text text-anchor="middle" x="1060" y="-183.45" font-family="Times,serif" font-size="14.00" fill="blue">i18n_regions</text>
</a>
</g>
</g>
<!-- vpro_shared&#45;&gt;i18n_regions -->
<g id="edge1" class="edge">
<title>vpro_shared&#45;&gt;i18n_regions</title>
<path fill="none" stroke="gray" d="M1131.9,-244.39C1119.53,-234.95 1103.71,-222.87 1090.06,-212.45"/>
<polygon fill="gray" stroke="gray" points="1092.29,-209.75 1082.22,-206.47 1088.05,-215.32 1092.29,-209.75"/>
</g>
<!-- guava -->
<g id="node9" class="node">
<title>guava</title>
<g id="a_node9"><a xlink:href="https://github.com/google/guava" xlink:title="guava">
<ellipse fill="none" stroke="black" stroke-dasharray="5,2" cx="1170" cy="-188.5" rx="32.93" ry="18"/>
<text text-anchor="middle" x="1170" y="-183.45" font-family="Times,serif" font-size="14.00" fill="blue">guava</text>
</a>
</g>
</g>
<!-- vpro_shared&#45;&gt;guava -->
<g id="edge2" class="edge">
<title>vpro_shared&#45;&gt;guava</title>
<path fill="none" stroke="gray" d="M1157.12,-243.31C1158.97,-235.55 1161.22,-226.18 1163.31,-217.45"/>
<polygon fill="gray" stroke="gray" points="1166.65,-218.54 1165.57,-208 1159.84,-216.91 1166.65,-218.54"/>
</g>
<!-- slf4j -->
<g id="node22" class="node">
<title>slf4j</title>
<ellipse fill="none" stroke="black" stroke-dasharray="5,2" cx="1425" cy="-188.5" rx="27.3" ry="18"/>
<text text-anchor="middle" x="1425" y="-183.45" font-family="Times,serif" font-size="14.00">slf4j</text>
</g>
<!-- vpro_shared&#45;&gt;slf4j -->
<g id="edge3" class="edge">
<title>vpro_shared&#45;&gt;slf4j</title>
<path fill="none" stroke="gray" d="M1186.41,-246.56C1196.46,-242.66 1207.58,-238.64 1218,-235.5 1276.19,-217.95 1345.41,-203.91 1387.24,-196.14"/>
<polygon fill="gray" stroke="gray" points="1387.84,-199.59 1397.05,-194.35 1386.58,-192.71 1387.84,-199.59"/>
</g>
<!-- poms_shared -->
<g id="node2" class="node">
<title>poms_shared</title>
<g id="a_node2"><a xlink:href="https://github.com/npo-poms/poms-shared" xlink:title="poms_shared">
<ellipse fill="none" stroke="black" cx="465" cy="-261.5" rx="60.05" ry="18"/>
<text text-anchor="middle" x="465" y="-256.45" font-family="Times,serif" font-size="14.00" fill="blue">poms_shared</text>
</a>
</g>
</g>
<!-- poms_shared&#45;&gt;vpro_shared -->
<g id="edge4" class="edge">
<title>poms_shared&#45;&gt;vpro_shared</title>
<path fill="none" stroke="gray" d="M522.9,-266.77C620.7,-275.37 824.89,-292.08 998,-298 1033.98,-299.23 1043.94,-306.18 1079,-298 1092.06,-294.96 1105.46,-289.26 1117.2,-283.26"/>
<polygon fill="gray" stroke="gray" points="1118.57,-286.5 1125.72,-278.68 1115.25,-280.33 1118.57,-286.5"/>
</g>
<!-- poms_shared&#45;&gt;i18n_regions -->
<g id="edge5" class="edge">
<title>poms_shared&#45;&gt;i18n_regions</title>
<path fill="none" stroke="gray" d="M520.18,-253.92C630.17,-240.79 876.28,-211.42 994.35,-197.33"/>
<polygon fill="gray" stroke="gray" points="994.7,-200.82 1004.21,-196.16 993.87,-193.87 994.7,-200.82"/>
</g>
<!-- nv_i18n -->
<g id="node4" class="node">
<title>nv_i18n</title>
<g id="a_node4"><a xlink:href="https://github.com/TakahikoKawasaki/nv-i18n" xlink:title="nv_i18n">
<ellipse fill="none" stroke="black" cx="1060" cy="-115.5" rx="41.12" ry="18"/>
<text text-anchor="middle" x="1060" y="-110.45" font-family="Times,serif" font-size="14.00" fill="blue">nv_i18n</text>
</a>
</g>
</g>
<!-- i18n_regions&#45;&gt;nv_i18n -->
<g id="edge9" class="edge">
<title>i18n_regions&#45;&gt;nv_i18n</title>
<path fill="none" stroke="gray" d="M1060,-170.31C1060,-162.73 1060,-153.6 1060,-145.04"/>
<polygon fill="gray" stroke="gray" points="1063.5,-145.04 1060,-135.04 1056.5,-145.04 1063.5,-145.04"/>
</g>
<!-- amara_importer -->
<g id="node5" class="node">
<title>amara_importer</title>
<g id="a_node5"><a xlink:href="https://github.com/vpro/amara-poms" xlink:title="amara_importer">
<ellipse fill="none" stroke="black" cx="1309" cy="-430" rx="70.8" ry="18"/>
<text text-anchor="middle" x="1309" y="-424.95" font-family="Times,serif" font-size="14.00" fill="blue">amara_importer</text>
</a>
</g>
</g>
<!-- amara_importer&#45;&gt;vpro_shared -->
<g id="edge42" class="edge">
<title>amara_importer&#45;&gt;vpro_shared</title>
<path fill="none" stroke="gray" d="M1293.18,-412.12C1265.48,-382.55 1208.07,-321.27 1175.98,-287.02"/>
<polygon fill="gray" stroke="gray" points="1178.82,-284.94 1169.43,-280.04 1173.71,-289.73 1178.82,-284.94"/>
</g>
<!-- amara_java -->
<g id="node6" class="node">
<title>amara_java</title>
<g id="a_node6"><a xlink:href="https://github.com/vpro/amara-java" xlink:title="amara_java">
<ellipse fill="none" stroke="black" cx="1281" cy="-261.5" rx="53.91" ry="18"/>
<text text-anchor="middle" x="1281" y="-256.45" font-family="Times,serif" font-size="14.00" fill="blue">amara_java</text>
</a>
</g>
</g>
<!-- amara_importer&#45;&gt;amara_java -->
<g id="edge43" class="edge">
<title>amara_importer&#45;&gt;amara_java</title>
<path fill="none" stroke="gray" d="M1306.11,-411.81C1301.31,-383.27 1291.65,-325.82 1285.81,-291.1"/>
<polygon fill="gray" stroke="gray" points="1289.28,-290.62 1284.17,-281.34 1282.38,-291.78 1289.28,-290.62"/>
</g>
<!-- api_client -->
<g id="node11" class="node">
<title>api_client</title>
<g id="a_node11"><a xlink:href="https://github.com/npo-poms/api-clients" xlink:title="api_client">
<ellipse fill="none" stroke="black" cx="478" cy="-334.5" rx="47.26" ry="18"/>
<text text-anchor="middle" x="478" y="-329.45" font-family="Times,serif" font-size="14.00" fill="blue">api_client</text>
</a>
</g>
</g>
<!-- amara_importer&#45;&gt;api_client -->
<g id="edge44" class="edge">
<title>amara_importer&#45;&gt;api_client</title>
<path fill="none" stroke="gray" d="M1270.46,-414.61C1257.47,-410.4 1242.78,-406.31 1229,-404 1210.91,-400.97 586.71,-389.78 569,-385 547.52,-379.2 525.55,-367.45 508.57,-356.85"/>
<polygon fill="gray" stroke="gray" points="510.77,-354.1 500.47,-351.62 506.97,-359.98 510.77,-354.1"/>
</g>
<!-- resteasy -->
<g id="node7" class="node">
<title>resteasy</title>
<g id="a_node7"><a xlink:href="https://github.com/resteasy/Resteasy" xlink:title="resteasy">
<ellipse fill="none" stroke="black" cx="1394" cy="-261.5" rx="40.6" ry="18"/>
<text text-anchor="middle" x="1394" y="-256.45" font-family="Times,serif" font-size="14.00" fill="blue">resteasy</text>
</a>
</g>
</g>
<!-- spring -->
<g id="node8" class="node">
<title>spring</title>
<g id="a_node8"><a xlink:href="https://github.com/spring-projects/spring-framework" xlink:title="spring">
<ellipse fill="none" stroke="black" stroke-dasharray="5,2" cx="1595" cy="-261.5" rx="33.95" ry="18"/>
<text text-anchor="middle" x="1595" y="-256.45" font-family="Times,serif" font-size="14.00" fill="blue">spring</text>
</a>
</g>
</g>
<!-- hibernate -->
<g id="node10" class="node">
<title>hibernate</title>
<g id="a_node10"><a xlink:href="https://github.com/hibernate/" xlink:title="hibernate">
<ellipse fill="none" stroke="black" cx="1498" cy="-261.5" rx="45.21" ry="18"/>
<text text-anchor="middle" x="1498" y="-256.45" font-family="Times,serif" font-size="14.00" fill="blue">hibernate</text>
</a>
</g>
</g>
<!-- api_client&#45;&gt;vpro_shared -->
<g id="edge21" class="edge">
<title>api_client&#45;&gt;vpro_shared</title>
<path fill="none" stroke="gray" d="M512.6,-322C529.42,-316.92 550.06,-311.45 569,-308.5 797.11,-273.03 861.92,-334.22 1088,-287.5 1095.64,-285.92 1103.55,-283.55 1111.12,-280.89"/>
<polygon fill="gray" stroke="gray" points="1112.34,-284.17 1120.47,-277.37 1109.88,-277.62 1112.34,-284.17"/>
</g>
<!-- api_client&#45;&gt;poms_shared -->
<g id="edge22" class="edge">
<title>api_client&#45;&gt;poms_shared</title>
<path fill="none" stroke="gray" d="M474.85,-316.31C473.45,-308.64 471.75,-299.39 470.17,-290.74"/>
<polygon fill="gray" stroke="gray" points="473.63,-290.22 468.39,-281.02 466.75,-291.48 473.63,-290.22"/>
</g>
<!-- poms_backend -->
<g id="node12" class="node">
<title>poms_backend</title>
<g id="a_node12"><a xlink:href="https://gitlab.com/npo-identity/poms/media" xlink:title="POMS &#160;&amp; POMS Backend API">
<ellipse fill="none" stroke="#cd950c" cx="703" cy="-541" rx="129.15" ry="18"/>
<text text-anchor="middle" x="703" y="-535.95" font-family="Times,serif" font-size="14.00" fill="darkgreen">POMS &#160;&amp; POMS Backend API</text>
</a>
</g>
</g>
<!-- poms_backend&#45;&gt;vpro_shared -->
<g id="edge33" class="edge">
<title>poms_backend&#45;&gt;vpro_shared</title>
<path fill="none" stroke="#cd950c" d="M792.7,-527.69C808.76,-525.85 825.35,-524.18 841,-523 859.21,-521.63 1485.27,-518.09 1498,-505 1567.98,-433.08 1498.76,-342.36 1409,-297.5 1370.98,-278.5 1259.57,-296.35 1218,-287.5 1210.45,-285.89 1202.63,-283.53 1195.13,-280.9"/>
<polygon fill="#cd950c" stroke="#cd950c" points="1196.47,-277.66 1185.88,-277.42 1194.01,-284.21 1196.47,-277.66"/>
</g>
<!-- poms_backend&#45;&gt;poms_shared -->
<g id="edge34" class="edge">
<title>poms_backend&#45;&gt;poms_shared</title>
<path fill="none" stroke="#cd950c" d="M611.72,-527.91C547.49,-519.18 471.79,-508.37 465,-505 451.06,-498.08 450.38,-492.09 440,-480.5 384.35,-418.39 322.55,-380.29 365,-308.5 373.94,-293.39 389.34,-283.2 405.41,-276.34"/>
<polygon fill="#cd950c" stroke="#cd950c" points="406.5,-279.67 414.6,-272.84 404.01,-273.13 406.5,-279.67"/>
</g>
<!-- poms_backend&#45;&gt;resteasy -->
<g id="edge35" class="edge">
<title>poms_backend&#45;&gt;resteasy</title>
<path fill="none" stroke="#cd950c" d="M792.7,-527.66C808.75,-525.82 825.35,-524.15 841,-523 861.31,-521.5 1559.78,-519.58 1574,-505 1605.35,-472.87 1590.68,-445.68 1574,-404 1552.22,-349.57 1529.91,-343.67 1483,-308.5 1480.55,-306.66 1453.75,-292.87 1430.2,-280.87"/>
<polygon fill="#cd950c" stroke="#cd950c" points="1431.9,-277.8 1421.4,-276.38 1428.72,-284.04 1431.9,-277.8"/>
</g>
<!-- poms_backend&#45;&gt;spring -->
<g id="edge36" class="edge">
<title>poms_backend&#45;&gt;spring</title>
<path fill="none" stroke="#cd950c" d="M792.32,-527.68C808.5,-525.83 825.23,-524.15 841,-523 883.84,-519.87 1577.82,-528.16 1614,-505 1676.99,-464.69 1763.65,-471.04 1660,-297.5 1654.24,-287.86 1644.82,-280.72 1634.91,-275.5"/>
<polygon fill="#cd950c" stroke="#cd950c" points="1636.46,-272.36 1625.91,-271.36 1633.54,-278.72 1636.46,-272.36"/>
</g>
<!-- poms_backend&#45;&gt;hibernate -->
<g id="edge37" class="edge">
<title>poms_backend&#45;&gt;hibernate</title>
<path fill="none" stroke="#cd950c" d="M792.7,-527.65C808.75,-525.81 825.35,-524.15 841,-523 861.87,-521.47 1578.5,-519.05 1594,-505 1659.67,-445.47 1568.78,-335.2 1522.36,-286.58"/>
<polygon fill="#cd950c" stroke="#cd950c" points="1525.06,-284.34 1515.58,-279.6 1520.04,-289.22 1525.06,-284.34"/>
</g>
<!-- poms_gui -->
<g id="node13" class="node">
<title>poms_gui</title>
<g id="a_node13"><a xlink:href="https://gitlab.com/npo-identity/poms/media-gui" xlink:title="Angular GUI for POMS">
<ellipse fill="none" stroke="black" cx="571" cy="-430" rx="101.51" ry="18"/>
<text text-anchor="middle" x="571" y="-424.95" font-family="Times,serif" font-size="14.00" fill="darkgreen">Angular GUI for POMS</text>
</a>
</g>
</g>
<!-- poms_backend&#45;&gt;poms_gui -->
<g id="edge38" class="edge">
<title>poms_backend&#45;&gt;poms_gui</title>
<path fill="none" stroke="#cd950c" d="M687.61,-523.02C677.83,-512.6 664.66,-499.25 652,-488.5 637.66,-476.32 620.83,-464.08 606.23,-454.04"/>
<polygon fill="#cd950c" stroke="#cd950c" points="608.51,-451.36 598.27,-448.64 604.58,-457.15 608.51,-451.36"/>
</g>
<!-- user_backend -->
<g id="node18" class="node">
<title>user_backend</title>
<g id="a_node18"><a xlink:href="https://gitlab.com/npo-identity/poms/user" xlink:title="user_backend">
<ellipse fill="none" stroke="black" cx="643" cy="-334.5" rx="61.59" ry="18"/>
<text text-anchor="middle" x="643" y="-329.45" font-family="Times,serif" font-size="14.00" fill="darkgreen">user_backend</text>
</a>
</g>
</g>
<!-- poms_backend&#45;&gt;user_backend -->
<g id="edge39" class="edge">
<title>poms_backend&#45;&gt;user_backend</title>
<path fill="none" stroke="#cd950c" d="M606.85,-528.66C547.17,-519.41 478.43,-503.99 460,-480.5 439.01,-453.75 437.14,-429.17 460,-404 475.61,-386.81 542.33,-402.32 564,-394 583.92,-386.35 603.23,-372.22 617.77,-359.76"/>
<polygon fill="#cd950c" stroke="#cd950c" points="619.89,-362.55 625.04,-353.29 615.24,-357.32 619.89,-362.55"/>
</g>
<!-- angular -->
<g id="node23" class="node">
<title>angular</title>
<ellipse fill="none" stroke="black" cx="1040" cy="-261.5" rx="38.56" ry="18"/>
<text text-anchor="middle" x="1040" y="-256.45" font-family="Times,serif" font-size="14.00">angular</text>
</g>
<!-- poms_gui&#45;&gt;angular -->
<g id="edge40" class="edge">
<title>poms_gui&#45;&gt;angular</title>
<path fill="none" stroke="gray" d="M564.18,-411.69C555.22,-385.71 543.42,-336.7 569,-308.5 596.92,-277.72 874.84,-266.86 990.21,-263.66"/>
<polygon fill="gray" stroke="gray" points="990.09,-267.16 999.99,-263.4 989.9,-260.17 990.09,-267.16"/>
</g>
<!-- poms_shared_backend -->
<g id="node14" class="node">
<title>poms_shared_backend</title>
<g id="a_node14"><a xlink:href="https://github.com/npo-poms/poms-shared-backend" xlink:title="poms_shared_backend">
<ellipse fill="none" stroke="#00cdcd" cx="818" cy="-334.5" rx="95.37" ry="18"/>
<text text-anchor="middle" x="818" y="-329.45" font-family="Times,serif" font-size="14.00" fill="darkgreen">poms_shared_backend</text>
</a>
</g>
</g>
<!-- poms_shared_backend&#45;&gt;vpro_shared -->
<g id="edge6" class="edge">
<title>poms_shared_backend&#45;&gt;vpro_shared</title>
<path fill="none" stroke="#00cdcd" d="M897.47,-324.18C951.74,-316.8 1024.95,-304.81 1088,-287.5 1095.12,-285.54 1102.55,-283.1 1109.73,-280.51"/>
<polygon fill="#00cdcd" stroke="#00cdcd" points="1110.81,-283.84 1118.94,-277.04 1108.35,-277.29 1110.81,-283.84"/>
</g>
<!-- poms_shared_backend&#45;&gt;poms_shared -->
<g id="edge7" class="edge">
<title>poms_shared_backend&#45;&gt;poms_shared</title>
<path fill="none" stroke="#00cdcd" d="M762.26,-319.52C746.68,-315.77 729.71,-311.84 714,-308.5 650.64,-295.04 577.72,-281.84 527.24,-273.05"/>
<polygon fill="#00cdcd" stroke="#00cdcd" points="528.13,-269.65 517.68,-271.39 526.93,-276.55 528.13,-269.65"/>
</g>
<!-- poms_shared_backend&#45;&gt;slf4j -->
<g id="edge8" class="edge">
<title>poms_shared_backend&#45;&gt;slf4j</title>
<path fill="none" stroke="#00cdcd" d="M912.66,-331.63C1123.14,-327.01 1613.42,-313.5 1638,-287.5 1653.88,-270.71 1652.52,-253.48 1638,-235.5 1616.53,-208.9 1519.21,-196.93 1463.84,-192.19"/>
<polygon fill="#00cdcd" stroke="#00cdcd" points="1464.13,-188.7 1453.88,-191.38 1463.57,-195.68 1464.13,-188.7"/>
</g>
<!-- api -->
<g id="node15" class="node">
<title>api</title>
<g id="a_node15"><a xlink:href="https://gitlab.com/npo-identity/poms/api" xlink:title="Frontend API">
<ellipse fill="none" stroke="cornflowerblue" cx="239" cy="-541" rx="61.08" ry="18"/>
<text text-anchor="middle" x="239" y="-535.95" font-family="Times,serif" font-size="14.00" fill="darkgreen">Frontend API</text>
</a>
</g>
</g>
<!-- api&#45;&gt;vpro_shared -->
<g id="edge10" class="edge">
<title>api&#45;&gt;vpro_shared</title>
<path fill="none" stroke="cornflowerblue" d="M282.43,-528.02C291.17,-526.02 300.33,-524.2 309,-523 368.64,-514.72 1350.29,-523.93 1392,-480.5 1468.09,-401.27 1288.39,-315.85 1199.35,-279.95"/>
<polygon fill="cornflowerblue" stroke="cornflowerblue" points="1200.7,-276.72 1190.12,-276.28 1198.12,-283.23 1200.7,-276.72"/>
</g>
<!-- api&#45;&gt;poms_shared -->
<g id="edge11" class="edge">
<title>api&#45;&gt;poms_shared</title>
<path fill="none" stroke="cornflowerblue" d="M236.02,-522.71C229.82,-480.55 220.2,-371.33 274,-308.5 290.12,-289.67 349.51,-277.4 397.83,-270.3"/>
<polygon fill="cornflowerblue" stroke="cornflowerblue" points="398.3,-273.77 407.71,-268.9 397.32,-266.84 398.3,-273.77"/>
</g>
<!-- api&#45;&gt;resteasy -->
<g id="edge12" class="edge">
<title>api&#45;&gt;resteasy</title>
<path fill="none" stroke="cornflowerblue" d="M282.41,-527.89C291.15,-525.9 300.32,-524.12 309,-523 527.67,-494.81 1081.97,-530.28 1301,-505 1352.48,-499.06 1382.43,-520.81 1415,-480.5 1459.59,-425.31 1428.01,-334.74 1407.62,-289.7"/>
<polygon fill="cornflowerblue" stroke="cornflowerblue" points="1410.91,-288.47 1403.49,-280.9 1404.57,-291.44 1410.91,-288.47"/>
</g>
<!-- api&#45;&gt;poms_shared_backend -->
<g id="edge13" class="edge">
<title>api&#45;&gt;poms_shared_backend</title>
<path fill="none" stroke="cornflowerblue" d="M277.24,-526.6C304.93,-516.05 342.67,-499.92 373,-480.5 416.36,-452.73 412.53,-423.95 460,-404 486.09,-393.03 686.65,-392.26 714,-385 737.1,-378.87 761.3,-367.67 780.54,-357.48"/>
<polygon fill="cornflowerblue" stroke="cornflowerblue" points="781.95,-360.69 789.06,-352.84 778.61,-354.54 781.95,-360.69"/>
</g>
<!-- api&#45;&gt;user_backend -->
<g id="edge14" class="edge">
<title>api&#45;&gt;user_backend</title>
<path fill="none" stroke="cornflowerblue" d="M254.24,-523.45C282.85,-493.61 347.95,-431.39 417,-404 457.29,-388.02 471.88,-404.21 514,-394 524.67,-391.41 526.91,-389.32 537,-385 558.58,-375.75 582.28,-364.76 601.79,-355.49"/>
<polygon fill="cornflowerblue" stroke="cornflowerblue" points="603.28,-358.66 610.79,-351.19 600.26,-352.34 603.28,-358.66"/>
</g>
<!-- media_publish -->
<g id="node16" class="node">
<title>media_publish</title>
<g id="a_node16"><a xlink:href="https://gitlab.com/npo-identity/poms/npo-publish" xlink:title="Media Publisher">
<ellipse fill="none" stroke="#bf3eff" cx="88" cy="-541" rx="72.34" ry="18"/>
<text text-anchor="middle" x="88" y="-535.95" font-family="Times,serif" font-size="14.00" fill="darkgreen">Media Publisher</text>
</a>
</g>
</g>
<!-- media_publish&#45;&gt;poms_shared -->
<g id="edge18" class="edge">
<title>media_publish&#45;&gt;poms_shared</title>
<path fill="none" stroke="#bf3eff" d="M93.69,-522.8C108.98,-479.39 155.29,-364.82 235,-308.5 260.76,-290.3 339.57,-277.28 397.79,-269.84"/>
<polygon fill="#bf3eff" stroke="#bf3eff" points="398.15,-273.32 407.64,-268.61 397.28,-266.37 398.15,-273.32"/>
</g>
<!-- pages_publish -->
<g id="node17" class="node">
<title>pages_publish</title>
<g id="a_node17"><a xlink:href="https://gitlab.com/npo-identity/poms/pages-publish" xlink:title="Pages Publisher">
<ellipse fill="none" stroke="darkseagreen" cx="760" cy="-430" rx="69.78" ry="18"/>
<text text-anchor="middle" x="760" y="-424.95" font-family="Times,serif" font-size="14.00" fill="darkgreen">Pages Publisher</text>
</a>
</g>
</g>
<!-- media_publish&#45;&gt;pages_publish -->
<g id="edge20" class="edge">
<title>media_publish&#45;&gt;pages_publish</title>
<path fill="none" stroke="gray" d="M139.68,-528.15C149.39,-526.22 159.47,-524.39 169,-523 395.39,-490 465.13,-553.35 682,-480.5 703.44,-473.3 724.92,-459.01 739.9,-447.63"/>
<text text-anchor="middle" x="720.04" y="-491.7" font-family="Times,serif" font-size="14.00">we plan to merge these</text>
</g>
<!-- media_publish&#45;&gt;user_backend -->
<g id="edge19" class="edge">
<title>media_publish&#45;&gt;user_backend</title>
<path fill="none" stroke="#bf3eff" d="M106.34,-523.3C140.61,-493.22 218.01,-430.62 296,-404 397.69,-369.3 433.11,-412.39 537,-385 561.25,-378.61 586.77,-366.86 606.69,-356.42"/>
<polygon fill="#bf3eff" stroke="#bf3eff" points="608.08,-359.65 615.22,-351.83 604.76,-353.48 608.08,-359.65"/>
</g>
<!-- pages_publish&#45;&gt;poms_shared -->
<g id="edge15" class="edge">
<title>pages_publish&#45;&gt;poms_shared</title>
<path fill="none" stroke="darkseagreen" d="M722.04,-414.52C709.48,-410.35 695.31,-406.31 682,-404 665.95,-401.21 400.32,-405.71 389,-394 359.19,-363.16 365.87,-333.62 389,-297.5 394.01,-289.67 401.27,-283.57 409.33,-278.82"/>
<polygon fill="darkseagreen" stroke="darkseagreen" points="410.79,-282.01 418.12,-274.36 407.62,-275.77 410.79,-282.01"/>
</g>
<!-- pages_publish&#45;&gt;poms_shared_backend -->
<g id="edge16" class="edge">
<title>pages_publish&#45;&gt;poms_shared_backend</title>
<path fill="none" stroke="darkseagreen" d="M770.64,-411.85C779.25,-397.97 791.53,-378.17 801.43,-362.21"/>
<polygon fill="darkseagreen" stroke="darkseagreen" points="804.14,-364.49 806.44,-354.14 798.19,-360.8 804.14,-364.49"/>
</g>
<!-- pages_publish&#45;&gt;user_backend -->
<g id="edge17" class="edge">
<title>pages_publish&#45;&gt;user_backend</title>
<path fill="none" stroke="darkseagreen" d="M739.35,-412.5C720.72,-397.61 693.12,-375.55 672.23,-358.86"/>
<polygon fill="darkseagreen" stroke="darkseagreen" points="674.62,-356.29 664.62,-352.78 670.25,-361.76 674.62,-356.29"/>
</g>
<!-- images -->
<g id="node19" class="node">
<title>images</title>
<g id="a_node19"><a xlink:href="https://gitlab.com/npo-identity/poms/images" xlink:title="Images Frontend &amp; Backend">
<ellipse fill="none" stroke="#caff70" cx="437" cy="-541" rx="118.91" ry="18"/>
<text text-anchor="middle" x="437" y="-535.95" font-family="Times,serif" font-size="14.00" fill="darkgreen">Images Frontend &amp; Backend</text>
</a>
</g>
</g>
<!-- images&#45;&gt;poms_shared -->
<g id="edge23" class="edge">
<title>images&#45;&gt;poms_shared</title>
<path fill="none" stroke="#caff70" d="M374.68,-525.34C351.18,-516.46 326.8,-502.43 313,-480.5 269.68,-411.66 262.35,-361.14 313,-297.5 323.84,-283.88 362.14,-275.11 397.58,-269.76"/>
<polygon fill="#caff70" stroke="#caff70" points="398.04,-273.23 407.45,-268.35 397.05,-266.3 398.04,-273.23"/>
</g>
<!-- images&#45;&gt;spring -->
<g id="edge24" class="edge">
<title>images&#45;&gt;spring</title>
<path fill="none" stroke="#caff70" d="M519.48,-527.66C534.59,-525.79 550.25,-524.12 565,-523 615.81,-519.14 1434.65,-523.82 1482,-505 1566.45,-471.44 1587.82,-347.54 1593.2,-290.99"/>
<polygon fill="#caff70" stroke="#caff70" points="1596.67,-291.45 1594.02,-281.19 1589.7,-290.87 1596.67,-291.45"/>
</g>
<!-- images&#45;&gt;hibernate -->
<g id="edge25" class="edge">
<title>images&#45;&gt;hibernate</title>
<path fill="none" stroke="#caff70" d="M519.48,-527.67C534.59,-525.8 550.25,-524.12 565,-523 589.79,-521.11 1441.27,-521.35 1460,-505 1521.37,-451.42 1512.27,-342.63 1503.73,-290.97"/>
<polygon fill="#caff70" stroke="#caff70" points="1507.19,-290.42 1501.99,-281.19 1500.3,-291.65 1507.19,-290.42"/>
</g>
<!-- images&#45;&gt;user_backend -->
<g id="edge26" class="edge">
<title>images&#45;&gt;user_backend</title>
<path fill="none" stroke="#caff70" d="M431,-522.75C422.24,-494.05 410.02,-436.43 440,-404 455.01,-387.76 517.92,-400.67 539,-394 564.85,-385.82 591.45,-370.71 611.28,-357.9"/>
<polygon fill="#caff70" stroke="#caff70" points="613.05,-360.92 619.45,-352.48 609.19,-355.09 613.05,-360.92"/>
</g>
<!-- functional_tests -->
<g id="node20" class="node">
<title>functional_tests</title>
<g id="a_node20"><a xlink:href="https://github.com/npo-poms/functional-tests" xlink:title="Functional fitnesse tests">
<ellipse fill="#e0eeee" stroke="yellowgreen" cx="950" cy="-541" rx="99.97" ry="18"/>
<text text-anchor="middle" x="950" y="-535.95" font-family="Times,serif" font-size="14.00" fill="blue">Functional fitnesse tests</text>
</a>
</g>
</g>
<!-- api_tests -->
<g id="node21" class="node">
<title>api_tests</title>
<g id="a_node21"><a xlink:href="https://gitlab.com/npo-identity/poms/api-tests" xlink:title="Functional api tests">
<ellipse fill="#e0eeee" stroke="yellowgreen" cx="931" cy="-430" rx="83.08" ry="18"/>
<text text-anchor="middle" x="931" y="-424.95" font-family="Times,serif" font-size="14.00" fill="darkgreen">Functional api tests</text>
</a>
</g>
</g>
<!-- api_tests&#45;&gt;api_client -->
<g id="edge41" class="edge">
<title>api_tests&#45;&gt;api_client</title>
<path fill="none" stroke="gray" d="M887.67,-414.2C873.88,-410.12 858.45,-406.22 844,-404 821.92,-400.61 457.6,-409.99 442,-394 432.08,-383.83 439.18,-370.47 449.62,-359.07"/>
<polygon fill="gray" stroke="gray" points="451.86,-361.78 456.53,-352.27 446.95,-356.79 451.86,-361.78"/>
</g>
<!-- magnolia -->
<g id="node24" class="node">
<title>magnolia</title>
<ellipse fill="none" stroke="black" cx="1174" cy="-430" rx="45.72" ry="18"/>
<text text-anchor="middle" x="1174" y="-424.95" font-family="Times,serif" font-size="14.00">magnolia</text>
</g>
<!-- magnolia&#45;&gt;vpro_shared -->
<g id="edge27" class="edge">
<title>magnolia&#45;&gt;vpro_shared</title>
<path fill="none" stroke="#8b8878" d="M1171.83,-411.81C1168.23,-383.27 1160.99,-325.82 1156.61,-291.1"/>
<polygon fill="#8b8878" stroke="#8b8878" points="1160.1,-290.83 1155.38,-281.35 1153.16,-291.71 1160.1,-290.83"/>
</g>
<!-- magnolia&#45;&gt;api_client -->
<g id="edge28" class="edge">
<title>magnolia&#45;&gt;api_client</title>
<path fill="none" stroke="#8b8878" d="M1148.17,-414.74C1139.2,-410.48 1128.9,-406.33 1119,-404 1089.24,-397.01 598.5,-393.05 569,-385 547.68,-379.18 525.86,-367.54 508.93,-357.01"/>
<polygon fill="#8b8878" stroke="#8b8878" points="511.15,-354.28 500.85,-351.81 507.36,-360.17 511.15,-354.28"/>
</g>
<!-- vpro_rs -->
<g id="node25" class="node">
<title>vpro_rs</title>
<ellipse fill="none" stroke="black" cx="1071" cy="-430" rx="39.07" ry="18"/>
<text text-anchor="middle" x="1071" y="-424.95" font-family="Times,serif" font-size="14.00">vpro_rs</text>
</g>
<!-- vpro_rs&#45;&gt;vpro_shared -->
<g id="edge29" class="edge">
<title>vpro_rs&#45;&gt;vpro_shared</title>
<path fill="none" stroke="#8b8878" d="M1079.31,-412.12C1093.56,-383.2 1122.73,-323.95 1139.79,-289.32"/>
<polygon fill="#8b8878" stroke="#8b8878" points="1142.72,-291.3 1144,-280.78 1136.44,-288.21 1142.72,-291.3"/>
</g>
<!-- vpro_rs&#45;&gt;poms_shared -->
<g id="edge30" class="edge">
<title>vpro_rs&#45;&gt;poms_shared</title>
<path fill="none" stroke="#8b8878" d="M1048.91,-414.81C1041.04,-410.5 1031.92,-406.29 1023,-404 977.36,-392.26 646.09,-395.75 599,-394 559.64,-392.54 449.13,-413.55 422,-385 398.58,-360.36 409.52,-340.13 422,-308.5 425.14,-300.53 430.39,-293.13 436.17,-286.69"/>
<polygon fill="#8b8878" stroke="#8b8878" points="438.6,-289.21 443.15,-279.63 433.63,-284.29 438.6,-289.21"/>
</g>
<!-- vpro_rs&#45;&gt;api_client -->
<g id="edge31" class="edge">
<title>vpro_rs&#45;&gt;api_client</title>
<path fill="none" stroke="#8b8878" d="M1048.88,-414.9C1041.02,-410.6 1031.9,-406.38 1023,-404 827.89,-351.89 763.64,-438.87 569,-385 547.7,-379.11 525.88,-367.46 508.95,-356.95"/>
<polygon fill="#8b8878" stroke="#8b8878" points="511.17,-354.22 500.86,-351.76 507.39,-360.11 511.17,-354.22"/>
</g>
<!-- vpro_rs&#45;&gt;poms_shared_backend -->
<g id="edge32" class="edge">
<title>vpro_rs&#45;&gt;poms_shared_backend</title>
<path fill="none" stroke="#8b8878" d="M1046.94,-415.52C1039.39,-411.56 1030.96,-407.38 1023,-404 976.01,-384.06 921.08,-365.97 879.91,-353.39"/>
<polygon fill="#8b8878" stroke="#8b8878" points="880.98,-350.06 870.4,-350.52 878.96,-356.76 880.98,-350.06"/>
</g>
</g>
</svg>
