<?xml version="1.0" encoding="UTF-8" standalone="no"?>
<!DOCTYPE svg PUBLIC "-//W3C//DTD SVG 1.1//EN"
 "http://www.w3.org/Graphics/SVG/1.1/DTD/svg11.dtd">
<!-- Generated by graphviz version 2.40.1 (20161225.0304)
 -->
<!-- Title: %3 Pages: 1 -->
<svg width="1484pt" height="600pt"
 viewBox="0.00 0.00 1484.00 600.00" xmlns="http://www.w3.org/2000/svg" xmlns:xlink="http://www.w3.org/1999/xlink">
<g id="graph0" class="graph" transform="scale(1 1) rotate(0) translate(4 596)">
<title>%3</title>
<polygon fill="#ffffff" stroke="transparent" points="-4,4 -4,-596 1480,-596 1480,4 -4,4"/>
<text text-anchor="middle" x="738" y="-7.8" font-family="Times,serif" font-size="14.00" fill="#000000"> &#160;Dependencies of the different code projects relevant to POMS</text>
<g id="clust1" class="cluster">
<title>cluster_0</title>
<polygon fill="none" stroke="#000000" points="44,-47 44,-137 582,-137 582,-47 44,-47"/>
<text text-anchor="middle" x="313" y="-69.8" font-family="Times,serif" font-size="14.00" fill="#000000">Generic utilities</text>
<text text-anchor="middle" x="313" y="-54.8" font-family="Times,serif" font-size="14.00" fill="#000000">(incoming edges are just examples, there are more)</text>
</g>
<g id="clust2" class="cluster">
<title>cluster_1</title>
<polygon fill="none" stroke="#000000" points="1224,-509 1224,-584 1424,-584 1424,-509 1224,-509"/>
<text text-anchor="middle" x="1324" y="-568.8" font-family="Times,serif" font-size="14.00" fill="#000000">VPRO</text>
</g>
<g id="clust3" class="cluster">
<title>cluster_2</title>
<polygon fill="#f0ffff" stroke="#000000" points="8,-342 8,-584 823,-584 823,-342 8,-342"/>
<text text-anchor="middle" x="415.5" y="-568.8" font-family="Times,serif" font-size="14.00" fill="#000000">POMS Services</text>
</g>
<g id="clust4" class="cluster">
<title>cluster_4</title>
<polygon fill="#f0ffff" stroke="#000000" points="1127,-158 1127,-490 1418,-490 1418,-158 1127,-158"/>
<text text-anchor="middle" x="1272.5" y="-474.8" font-family="Times,serif" font-size="14.00" fill="#000000">Sharable utilities</text>
</g>
<!-- vpro_shared -->
<g id="node1" class="node">
<title>vpro_shared</title>
<g id="a_node1"><a xlink:href="https://github.com/vpro/vpro-shared" xlink:title="vpro_shared">
<ellipse fill="none" stroke="#000000" cx="1191" cy="-184" rx="55.7903" ry="18"/>
<text text-anchor="middle" x="1191" y="-180.3" font-family="Times,serif" font-size="14.00" fill="#0000ff">vpro_shared</text>
</a>
</g>
</g>
<!-- slf4j -->
<g id="node12" class="node">
<title>slf4j</title>
<ellipse fill="none" stroke="#000000" stroke-dasharray="5,2" cx="465" cy="-111" rx="27" ry="18"/>
<text text-anchor="middle" x="465" y="-107.3" font-family="Times,serif" font-size="14.00" fill="#000000">slf4j</text>
</g>
<!-- vpro_shared&#45;&gt;slf4j -->
<g id="edge1" class="edge">
<title>vpro_shared&#45;&gt;slf4j</title>
<path fill="none" stroke="#c0c0c0" d="M1135.4583,-181.9745C982.0578,-176.1336 559.967,-158.3076 501,-137 497.003,-135.5557 493.0582,-133.5279 489.3283,-131.2347"/>
<polygon fill="#c0c0c0" stroke="#c0c0c0" points="491.3108,-128.3504 481.0921,-125.5524 487.3357,-134.1122 491.3108,-128.3504"/>
</g>
<!-- guava -->
<g id="node13" class="node">
<title>guava</title>
<ellipse fill="none" stroke="#000000" stroke-dasharray="5,2" cx="542" cy="-111" rx="32.4942" ry="18"/>
<text text-anchor="middle" x="542" y="-107.3" font-family="Times,serif" font-size="14.00" fill="#000000">guava</text>
</g>
<!-- vpro_shared&#45;&gt;guava -->
<g id="edge2" class="edge">
<title>vpro_shared&#45;&gt;guava</title>
<path fill="none" stroke="#c0c0c0" d="M1138.1648,-178.0571C1012.5708,-163.9302 698.1664,-128.5657 584.1438,-115.7404"/>
<polygon fill="#c0c0c0" stroke="#c0c0c0" points="584.3912,-112.2462 574.0627,-114.6064 583.6087,-119.2023 584.3912,-112.2462"/>
</g>
<!-- poms_shared -->
<g id="node2" class="node">
<title>poms_shared</title>
<g id="a_node2"><a xlink:href="https://github.com/npo-poms/poms-shared" xlink:title="poms_shared">
<ellipse fill="none" stroke="#000000" cx="1332" cy="-295" rx="58.4896" ry="18"/>
<text text-anchor="middle" x="1332" y="-291.3" font-family="Times,serif" font-size="14.00" fill="#0000ff">poms_shared</text>
</a>
</g>
</g>
<!-- poms_shared&#45;&gt;vpro_shared -->
<g id="edge3" class="edge">
<title>poms_shared&#45;&gt;vpro_shared</title>
<path fill="none" stroke="#c0c0c0" d="M1310.5851,-278.1415C1286.568,-259.2344 1247.463,-228.4496 1220.5478,-207.261"/>
<polygon fill="#c0c0c0" stroke="#c0c0c0" points="1222.6388,-204.4527 1212.6164,-201.0172 1218.3088,-209.9529 1222.6388,-204.4527"/>
</g>
<!-- api_client -->
<g id="node3" class="node">
<title>api_client</title>
<g id="a_node3"><a xlink:href="https://github.com/npo-poms/api-clients" xlink:title="api_client">
<ellipse fill="none" stroke="#000000" cx="1363" cy="-441" rx="46.5926" ry="18"/>
<text text-anchor="middle" x="1363" y="-437.3" font-family="Times,serif" font-size="14.00" fill="#0000ff">api_client</text>
</a>
</g>
</g>
<!-- api_client&#45;&gt;vpro_shared -->
<g id="edge18" class="edge">
<title>api_client&#45;&gt;vpro_shared</title>
<path fill="none" stroke="#c0c0c0" d="M1381.1804,-424.2625C1394.0382,-410.5388 1409,-389.8707 1409,-368 1409,-368 1409,-368 1409,-239.5 1409,-207.6651 1320.5897,-193.8689 1256.3737,-188.0469"/>
<polygon fill="#c0c0c0" stroke="#c0c0c0" points="1256.5557,-184.5497 1246.2924,-187.1794 1255.9555,-191.5239 1256.5557,-184.5497"/>
</g>
<!-- api_client&#45;&gt;poms_shared -->
<g id="edge19" class="edge">
<title>api_client&#45;&gt;poms_shared</title>
<path fill="none" stroke="#c0c0c0" d="M1359.1365,-422.8042C1353.8169,-397.7506 1344.188,-352.4015 1337.9467,-323.007"/>
<polygon fill="#c0c0c0" stroke="#c0c0c0" points="1341.3155,-322.0214 1335.8148,-312.9665 1334.4682,-323.4754 1341.3155,-322.0214"/>
</g>
<!-- user_backend -->
<g id="node10" class="node">
<title>user_backend</title>
<g id="a_node10"><a xlink:href="https://subversion.vpro.nl/repo/nl/vpro/user" xlink:title="user_backend">
<ellipse fill="none" stroke="#000000" cx="1195" cy="-295" rx="60.3893" ry="18"/>
<text text-anchor="middle" x="1195" y="-291.3" font-family="Times,serif" font-size="14.00" fill="#0000ff">user_backend</text>
</a>
</g>
</g>
<!-- api_client&#45;&gt;user_backend -->
<g id="edge20" class="edge">
<title>api_client&#45;&gt;user_backend</title>
<path fill="none" stroke="#c0c0c0" d="M1344.0548,-424.5357C1314.3427,-398.7145 1256.6508,-348.5775 1222.4099,-318.8205"/>
<polygon fill="#c0c0c0" stroke="#c0c0c0" points="1224.4973,-315.9975 1214.6534,-312.0797 1219.9055,-321.2811 1224.4973,-315.9975"/>
</g>
<!-- poms_backend -->
<g id="node4" class="node">
<title>poms_backend</title>
<g id="a_node4"><a xlink:href="https://subversion.vpro.nl/viewvc/nl/vpro/media" xlink:title="POMS &#160;&amp; POMS Backend API">
<ellipse fill="none" stroke="#cd950c" cx="391" cy="-535" rx="125.3778" ry="18"/>
<text text-anchor="middle" x="391" y="-531.3" font-family="Times,serif" font-size="14.00" fill="#0000ff">POMS &#160;&amp; POMS Backend API</text>
</a>
</g>
</g>
<!-- poms_backend&#45;&gt;vpro_shared -->
<g id="edge32" class="edge">
<title>poms_backend&#45;&gt;vpro_shared</title>
<path fill="none" stroke="#cd950c" d="M365.8856,-517.1422C357.6188,-509.7813 349.4186,-500.5039 345,-490 307.9059,-401.8204 306.5156,-342.7535 376,-277 444.6879,-212.0001 487.718,-235.5398 581,-220 684.0078,-202.84 989.3401,-190.7825 1124.8914,-186.1281"/>
<polygon fill="#cd950c" stroke="#cd950c" points="1125.2582,-189.6177 1135.1333,-185.7794 1125.02,-182.6218 1125.2582,-189.6177"/>
</g>
<!-- poms_backend&#45;&gt;poms_shared -->
<g id="edge33" class="edge">
<title>poms_backend&#45;&gt;poms_shared</title>
<path fill="none" stroke="#cd950c" d="M458.3085,-519.7635C479.823,-515.5057 503.8118,-511.3925 526,-509 548.4876,-506.5752 913.5458,-510.5371 933,-499 975.7502,-473.6476 953.8227,-435.8248 992,-404 1037.2037,-366.3179 1053.4434,-361.4105 1109,-342 1175.1623,-318.884 1195.6336,-328.422 1264,-313 1268.6683,-311.9469 1273.5008,-310.7945 1278.3379,-309.5977"/>
<polygon fill="#cd950c" stroke="#cd950c" points="1279.3859,-312.9429 1288.2217,-307.0967 1277.6687,-306.1568 1279.3859,-312.9429"/>
</g>
<!-- poms_gui -->
<g id="node5" class="node">
<title>poms_gui</title>
<g id="a_node5"><a xlink:href="https://subversion.vpro.nl/viewvc/nl/vpro/media-gui" xlink:title="Angular GUI for POMS">
<ellipse fill="none" stroke="#000000" cx="560" cy="-368" rx="98.5829" ry="18"/>
<text text-anchor="middle" x="560" y="-364.3" font-family="Times,serif" font-size="14.00" fill="#0000ff">Angular GUI for POMS</text>
</a>
</g>
</g>
<!-- poms_backend&#45;&gt;poms_gui -->
<g id="edge34" class="edge">
<title>poms_backend&#45;&gt;poms_gui</title>
<path fill="none" stroke="#cd950c" d="M409.086,-517.1281C439.3266,-487.2453 500.2244,-427.0682 534.7,-393.0006"/>
<polygon fill="#cd950c" stroke="#cd950c" points="537.3911,-395.2619 542.0441,-385.7434 532.4709,-390.2827 537.3911,-395.2619"/>
</g>
<!-- poms_backend&#45;&gt;user_backend -->
<g id="edge35" class="edge">
<title>poms_backend&#45;&gt;user_backend</title>
<path fill="none" stroke="#cd950c" d="M458.6622,-519.7708C480.0881,-515.541 503.9373,-511.4419 526,-509 544.2856,-506.9761 842.3781,-510.1652 857,-499 914.9922,-454.7174 856.9493,-396.9106 905,-342 912.727,-333.1698 917.7303,-334.2668 929,-331 993.9657,-312.1681 1070.772,-303.1181 1125.1084,-298.8114"/>
<polygon fill="#cd950c" stroke="#cd950c" points="1125.6184,-302.2829 1135.325,-298.0365 1125.0889,-295.303 1125.6184,-302.2829"/>
</g>
<!-- spring -->
<g id="node14" class="node">
<title>spring</title>
<ellipse fill="none" stroke="#000000" stroke-dasharray="5,2" cx="86" cy="-111" rx="33.5952" ry="18"/>
<text text-anchor="middle" x="86" y="-107.3" font-family="Times,serif" font-size="14.00" fill="#000000">spring</text>
</g>
<!-- poms_backend&#45;&gt;spring -->
<g id="edge36" class="edge">
<title>poms_backend&#45;&gt;spring</title>
<path fill="none" stroke="#cd950c" d="M317.6452,-520.3409C268.4368,-510.0445 210.8708,-496.9207 201,-490 179.2962,-474.7829 167,-467.5069 167,-441 167,-441 167,-441 167,-258.5 167,-209.8402 132.7122,-162.0609 108.7533,-134.6142"/>
<polygon fill="#cd950c" stroke="#cd950c" points="111.2893,-132.1999 102.003,-127.0993 106.0817,-136.8776 111.2893,-132.1999"/>
</g>
<!-- resteasy -->
<g id="node15" class="node">
<title>resteasy</title>
<ellipse fill="none" stroke="#000000" cx="286" cy="-111" rx="40.0939" ry="18"/>
<text text-anchor="middle" x="286" y="-107.3" font-family="Times,serif" font-size="14.00" fill="#000000">resteasy</text>
</g>
<!-- poms_backend&#45;&gt;resteasy -->
<g id="edge37" class="edge">
<title>poms_backend&#45;&gt;resteasy</title>
<path fill="none" stroke="#cd950c" d="M323.9285,-519.6885C284.7695,-506.3389 243,-482.397 243,-441 243,-441 243,-441 243,-184 243,-166.2632 252.5407,-149.0388 262.6341,-135.7794"/>
<polygon fill="#cd950c" stroke="#cd950c" points="265.6391,-137.633 269.252,-127.6732 260.2166,-133.2061 265.6391,-137.633"/>
</g>
<!-- hibernate -->
<g id="node16" class="node">
<title>hibernate</title>
<ellipse fill="none" stroke="#000000" cx="183" cy="-111" rx="44.6926" ry="18"/>
<text text-anchor="middle" x="183" y="-107.3" font-family="Times,serif" font-size="14.00" fill="#000000">hibernate</text>
</g>
<!-- poms_backend&#45;&gt;hibernate -->
<g id="edge38" class="edge">
<title>poms_backend&#45;&gt;hibernate</title>
<path fill="none" stroke="#cd950c" d="M298.2725,-522.8036C251.6818,-510.9036 205,-487.4023 205,-441 205,-441 205,-441 205,-184 205,-168.4945 200.3936,-151.8943 195.3965,-138.4478"/>
<polygon fill="#cd950c" stroke="#cd950c" points="198.5243,-136.8422 191.5688,-128.8502 192.0223,-139.4353 198.5243,-136.8422"/>
</g>
<!-- angular -->
<g id="node17" class="node">
<title>angular</title>
<ellipse fill="none" stroke="#000000" cx="382" cy="-111" rx="37.8943" ry="18"/>
<text text-anchor="middle" x="382" y="-107.3" font-family="Times,serif" font-size="14.00" fill="#000000">angular</text>
</g>
<!-- poms_gui&#45;&gt;angular -->
<g id="edge39" class="edge">
<title>poms_gui&#45;&gt;angular</title>
<path fill="none" stroke="#c0c0c0" d="M475.7099,-358.5002C406.2125,-348.2419 319,-328.6626 319,-295 319,-295 319,-295 319,-184 319,-162.6164 334.6847,-144.3977 350.4019,-131.5093"/>
<polygon fill="#c0c0c0" stroke="#c0c0c0" points="352.7362,-134.1299 358.5411,-125.2668 348.4761,-128.5755 352.7362,-134.1299"/>
</g>
<!-- poms_shared_backend -->
<g id="node6" class="node">
<title>poms_shared_backend</title>
<g id="a_node6"><a xlink:href="https://subversion.vpro.nl/viewvc/nl/publiekeomroep/poms-shared-backend/" xlink:title="poms_shared_backend">
<ellipse fill="none" stroke="#00cdcd" cx="479" cy="-295" rx="93.6835" ry="18"/>
<text text-anchor="middle" x="479" y="-291.3" font-family="Times,serif" font-size="14.00" fill="#0000ff">poms_shared_backend</text>
</a>
</g>
</g>
<!-- poms_shared_backend&#45;&gt;vpro_shared -->
<g id="edge4" class="edge">
<title>poms_shared_backend&#45;&gt;vpro_shared</title>
<path fill="none" stroke="#00cdcd" d="M497.4822,-277.3167C517.6683,-259.2496 551.838,-232.1721 587,-220 636.7429,-202.7804 978.8659,-190.4562 1125.0271,-185.9178"/>
<polygon fill="#00cdcd" stroke="#00cdcd" points="1125.3178,-189.4106 1135.2053,-185.6045 1125.1023,-182.4139 1125.3178,-189.4106"/>
</g>
<!-- poms_shared_backend&#45;&gt;poms_shared -->
<g id="edge5" class="edge">
<title>poms_shared_backend&#45;&gt;poms_shared</title>
<path fill="none" stroke="#00cdcd" d="M567.6691,-300.8138C693.2179,-308.7265 930.0175,-322.4767 1132,-327.5 1186.6498,-328.8591 1201.4197,-338.3443 1255,-327.5 1267.9051,-324.8881 1281.3359,-320.0444 1293.2984,-314.8793"/>
<polygon fill="#00cdcd" stroke="#00cdcd" points="1294.8671,-318.0113 1302.5392,-310.7046 1291.9851,-311.6321 1294.8671,-318.0113"/>
</g>
<!-- poms_shared_backend&#45;&gt;slf4j -->
<g id="edge6" class="edge">
<title>poms_shared_backend&#45;&gt;slf4j</title>
<path fill="none" stroke="#00cdcd" d="M477.6064,-276.6847C475.164,-244.5843 470.0936,-177.9447 467.1823,-139.6822"/>
<polygon fill="#00cdcd" stroke="#00cdcd" points="470.6366,-138.9469 466.3879,-129.2412 463.6568,-139.478 470.6366,-138.9469"/>
</g>
<!-- api -->
<g id="node7" class="node">
<title>api</title>
<g id="a_node7"><a xlink:href="https://subversion.vpro.nl/viewvc/nl/vpro/api/" xlink:title="Frontend API">
<ellipse fill="none" stroke="#6495ed" cx="595" cy="-535" rx="60.3893" ry="18"/>
<text text-anchor="middle" x="595" y="-531.3" font-family="Times,serif" font-size="14.00" fill="#0000ff">Frontend API</text>
</a>
</g>
</g>
<!-- api&#45;&gt;vpro_shared -->
<g id="edge7" class="edge">
<title>api&#45;&gt;vpro_shared</title>
<path fill="none" stroke="#6495ed" d="M557.7494,-520.6821C529.4121,-509.5423 494.3874,-495.1416 489,-490 438.7732,-442.0645 395.0543,-395.7524 439,-342 480.0463,-291.7941 518.5008,-326.1638 582,-313 785.4983,-270.8136 1026.8999,-219.2176 1134.4398,-196.1515"/>
<polygon fill="#6495ed" stroke="#6495ed" points="1135.38,-199.5295 1144.4233,-194.0096 1133.9115,-192.6852 1135.38,-199.5295"/>
</g>
<!-- api&#45;&gt;poms_shared -->
<g id="edge8" class="edge">
<title>api&#45;&gt;poms_shared</title>
<path fill="none" stroke="#6495ed" d="M628.3915,-519.8908C639.4934,-515.5557 652.0709,-511.3654 664,-509 734.005,-495.1188 915.805,-516.4765 985,-499 1030.4097,-487.5309 1021.0069,-451.7244 1058,-423 1127.1921,-369.2736 1222.5812,-331.208 1280.6284,-311.2112"/>
<polygon fill="#6495ed" stroke="#6495ed" points="1281.9715,-314.4515 1290.3155,-307.9225 1279.7211,-307.823 1281.9715,-314.4515"/>
</g>
<!-- api&#45;&gt;poms_shared_backend -->
<g id="edge9" class="edge">
<title>api&#45;&gt;poms_shared_backend</title>
<path fill="none" stroke="#6495ed" d="M560.6933,-520.0295C549.5141,-515.7581 536.9121,-511.5699 525,-509 509.3222,-505.6176 391.9411,-510.7272 381,-499 333.3994,-447.9792 343.8284,-401.0526 381,-342 388.718,-329.7387 400.6221,-320.6045 413.5068,-313.8245"/>
<polygon fill="#6495ed" stroke="#6495ed" points="415.0364,-316.9727 422.5444,-309.4973 412.0134,-310.6591 415.0364,-316.9727"/>
</g>
<!-- api&#45;&gt;user_backend -->
<g id="edge10" class="edge">
<title>api&#45;&gt;user_backend</title>
<path fill="none" stroke="#6495ed" d="M628.3935,-519.9008C639.4956,-515.5664 652.0726,-511.3739 664,-509 680.7363,-505.669 957.4496,-509.3724 971,-499 1028.94,-454.649 966.4912,-392.6643 1019,-342 1035.2055,-326.3638 1087.8438,-313.5798 1131.3667,-305.3133"/>
<polygon fill="#6495ed" stroke="#6495ed" points="1132.1544,-308.7271 1141.3499,-303.4646 1130.8797,-301.8441 1132.1544,-308.7271"/>
</g>
<!-- api&#45;&gt;resteasy -->
<g id="edge11" class="edge">
<title>api&#45;&gt;resteasy</title>
<path fill="none" stroke="#6495ed" d="M560.6962,-520.0162C549.5171,-515.744 536.9145,-511.5588 525,-509 485.6745,-500.5543 374.9565,-516.8409 345,-490 288.4191,-439.3037 281,-407.4704 281,-331.5 281,-331.5 281,-331.5 281,-184 281,-169.2652 282.0265,-152.8964 283.1492,-139.3993"/>
<polygon fill="#6495ed" stroke="#6495ed" points="286.6498,-139.5481 284.0526,-129.2766 279.6775,-138.9259 286.6498,-139.5481"/>
</g>
<!-- media_publish -->
<g id="node8" class="node">
<title>media_publish</title>
<g id="a_node8"><a xlink:href="https://subversion.vpro.nl/viewvc/nl/publiekeomroep/npo-publish/" xlink:title="Media Publisher">
<ellipse fill="none" stroke="#bf3eff" cx="744" cy="-535" rx="70.6878" ry="18"/>
<text text-anchor="middle" x="744" y="-531.3" font-family="Times,serif" font-size="14.00" fill="#0000ff">Media Publisher</text>
</a>
</g>
</g>
<!-- media_publish&#45;&gt;poms_shared -->
<g id="edge15" class="edge">
<title>media_publish&#45;&gt;poms_shared</title>
<path fill="none" stroke="#bf3eff" d="M703.1516,-520.2408C629.7365,-492.7943 480.4593,-432.4723 452,-386 441.7872,-369.3231 438.4211,-356.0725 452,-342 459.836,-333.8792 1252.8371,-314.6555 1264,-313 1269.3605,-312.205 1274.9058,-311.1448 1280.4108,-309.9351"/>
<polygon fill="#bf3eff" stroke="#bf3eff" points="1281.2971,-313.3222 1290.2275,-307.6215 1279.6913,-306.5089 1281.2971,-313.3222"/>
</g>
<!-- pages_publish -->
<g id="node9" class="node">
<title>pages_publish</title>
<g id="a_node9"><a xlink:href="https://subversion.vpro.nl/viewvc/nl/vpro/pages-publish/" xlink:title="Pages Publisher">
<ellipse fill="none" stroke="#8fbc8f" cx="746" cy="-368" rx="68.7879" ry="18"/>
<text text-anchor="middle" x="746" y="-364.3" font-family="Times,serif" font-size="14.00" fill="#0000ff">Pages Publisher</text>
</a>
</g>
</g>
<!-- media_publish&#45;&gt;pages_publish -->
<g id="edge17" class="edge">
<title>media_publish&#45;&gt;pages_publish</title>
<path fill="none" stroke="#c0c0c0" d="M744.2178,-516.8102C744.6026,-484.6863 745.3979,-418.2753 745.7824,-386.1674"/>
<text text-anchor="middle" x="810" y="-437.3" font-family="Times,serif" font-size="14.00" fill="#000000">we plan to merge these</text>
</g>
<!-- media_publish&#45;&gt;user_backend -->
<g id="edge16" class="edge">
<title>media_publish&#45;&gt;user_backend</title>
<path fill="none" stroke="#bf3eff" d="M814.5698,-533.09C891.5322,-529.887 1008.851,-521.3886 1047,-499 1117.6658,-457.528 1164.14,-367.5743 1184.003,-322.2563"/>
<polygon fill="#bf3eff" stroke="#bf3eff" points="1187.231,-323.6092 1187.9446,-313.0384 1180.7948,-320.857 1187.231,-323.6092"/>
</g>
<!-- pages_publish&#45;&gt;poms_shared -->
<g id="edge12" class="edge">
<title>pages_publish&#45;&gt;poms_shared</title>
<path fill="none" stroke="#8fbc8f" d="M796.9966,-355.8199C834.1933,-347.4352 885.9404,-336.7999 932,-331 1078.6145,-312.538 1118.0329,-336.0273 1264,-313 1269.1456,-312.1882 1274.4644,-311.1473 1279.7558,-309.976"/>
<polygon fill="#8fbc8f" stroke="#8fbc8f" points="1280.9195,-313.2973 1289.845,-307.5889 1279.3078,-306.4854 1280.9195,-313.2973"/>
</g>
<!-- pages_publish&#45;&gt;poms_shared_backend -->
<g id="edge13" class="edge">
<title>pages_publish&#45;&gt;poms_shared_backend</title>
<path fill="none" stroke="#8fbc8f" d="M704.4941,-353.4973C692.7538,-349.5772 679.9254,-345.4646 668,-342 629.1205,-330.7045 585.2622,-319.693 549.5888,-311.171"/>
<polygon fill="#8fbc8f" stroke="#8fbc8f" points="550.2933,-307.741 539.7551,-308.8352 548.6755,-314.5516 550.2933,-307.741"/>
</g>
<!-- pages_publish&#45;&gt;user_backend -->
<g id="edge14" class="edge">
<title>pages_publish&#45;&gt;user_backend</title>
<path fill="none" stroke="#8fbc8f" d="M776.2761,-351.6785C791.6397,-344.1354 810.8505,-335.8028 829,-331 883.1585,-316.6684 1035.051,-305.0688 1125.2359,-299.19"/>
<polygon fill="#8fbc8f" stroke="#8fbc8f" points="1125.6248,-302.6723 1135.3788,-298.536 1125.1743,-295.6868 1125.6248,-302.6723"/>
</g>
<!-- images -->
<g id="node11" class="node">
<title>images</title>
<g id="a_node11"><a xlink:href="https://subversion.vpro.nl/viewvc/nl/vpro/images/" xlink:title="Images Frontend &amp; Backend">
<ellipse fill="none" stroke="#caff70" cx="132" cy="-535" rx="115.8798" ry="18"/>
<text text-anchor="middle" x="132" y="-531.3" font-family="Times,serif" font-size="14.00" fill="#0000ff">Images Frontend &amp; Backend</text>
</a>
</g>
</g>
<!-- images&#45;&gt;poms_shared -->
<g id="edge21" class="edge">
<title>images&#45;&gt;poms_shared</title>
<path fill="none" stroke="#caff70" d="M193.9424,-519.7417C213.9417,-515.4549 236.2948,-511.3304 257,-509 323.2816,-501.54 796.7014,-518.5129 857,-490 942.8175,-449.4202 925.1067,-382.419 1011,-342 1113.4087,-293.8093 1152.7808,-333.9803 1264,-313 1268.9727,-312.0619 1274.1172,-310.956 1279.2476,-309.761"/>
<polygon fill="#caff70" stroke="#caff70" points="1280.1598,-313.1412 1289.0475,-307.3741 1278.5032,-306.3401 1280.1598,-313.1412"/>
</g>
<!-- images&#45;&gt;user_backend -->
<g id="edge22" class="edge">
<title>images&#45;&gt;user_backend</title>
<path fill="none" stroke="#caff70" d="M194.6019,-519.7808C214.4385,-515.5515 236.5319,-511.4502 257,-509 288.5699,-505.2209 803.366,-508.8106 829,-490 885.2094,-448.7527 830.0174,-389.5564 881,-342 894.4826,-329.4235 902.928,-334.654 921,-331 990.6164,-316.9241 1071.3425,-307.0893 1127.0505,-301.2976"/>
<polygon fill="#caff70" stroke="#caff70" points="1127.5615,-304.7636 1137.1529,-300.263 1126.8483,-297.8 1127.5615,-304.7636"/>
</g>
<!-- images&#45;&gt;spring -->
<g id="edge23" class="edge">
<title>images&#45;&gt;spring</title>
<path fill="none" stroke="#caff70" d="M118.1578,-517.0302C105.5876,-498.8846 89,-469.534 89,-441 89,-441 89,-441 89,-184 89,-169.1871 88.3757,-152.6977 87.6967,-139.1439"/>
<polygon fill="#caff70" stroke="#caff70" points="91.1828,-138.7893 87.1513,-128.9915 84.1929,-139.1649 91.1828,-138.7893"/>
</g>
<!-- images&#45;&gt;hibernate -->
<g id="edge24" class="edge">
<title>images&#45;&gt;hibernate</title>
<path fill="none" stroke="#caff70" d="M131.0836,-516.985C130.2014,-498.0674 129,-467.451 129,-441 129,-441 129,-441 129,-258.5 129,-214.1546 150.7895,-166.6301 166.6861,-137.8592"/>
<polygon fill="#caff70" stroke="#caff70" points="169.9073,-139.2751 171.8112,-128.8527 163.8234,-135.813 169.9073,-139.2751"/>
</g>
<!-- magnolia -->
<g id="node18" class="node">
<title>magnolia</title>
<ellipse fill="none" stroke="#000000" cx="1371" cy="-535" rx="44.6926" ry="18"/>
<text text-anchor="middle" x="1371" y="-531.3" font-family="Times,serif" font-size="14.00" fill="#000000">magnolia</text>
</g>
<!-- magnolia&#45;&gt;vpro_shared -->
<g id="edge25" class="edge">
<title>magnolia&#45;&gt;vpro_shared</title>
<path fill="none" stroke="#8b8878" d="M1399.2504,-520.9971C1413.3883,-513.1262 1430.1748,-502.3952 1443,-490 1461.8797,-471.7533 1476,-467.2561 1476,-441 1476,-441 1476,-441 1476,-239.5 1476,-217.127 1338.9358,-199.0934 1254.9124,-190.1403"/>
<polygon fill="#8b8878" stroke="#8b8878" points="1255.2521,-186.6569 1244.9414,-189.0938 1254.5214,-193.6186 1255.2521,-186.6569"/>
</g>
<!-- magnolia&#45;&gt;poms_shared -->
<g id="edge26" class="edge">
<title>magnolia&#45;&gt;poms_shared</title>
<path fill="none" stroke="#8b8878" d="M1340.6935,-521.6999C1327.8453,-514.3511 1314.1991,-503.8623 1307,-490 1278.722,-435.5487 1302.4856,-361.4157 1319.1465,-322.0922"/>
<polygon fill="#8b8878" stroke="#8b8878" points="1322.3766,-323.4412 1323.1932,-312.8778 1315.9675,-320.6263 1322.3766,-323.4412"/>
</g>
<!-- magnolia&#45;&gt;api_client -->
<g id="edge27" class="edge">
<title>magnolia&#45;&gt;api_client</title>
<path fill="none" stroke="#8b8878" d="M1369.4575,-516.8759C1368.3065,-503.3516 1366.7123,-484.6192 1365.3959,-469.1514"/>
<polygon fill="#8b8878" stroke="#8b8878" points="1368.8732,-468.7357 1364.5377,-459.0685 1361.8984,-469.3293 1368.8732,-468.7357"/>
</g>
<!-- vpro_rs -->
<g id="node19" class="node">
<title>vpro_rs</title>
<ellipse fill="none" stroke="#000000" cx="1270" cy="-535" rx="38.1938" ry="18"/>
<text text-anchor="middle" x="1270" y="-531.3" font-family="Times,serif" font-size="14.00" fill="#000000">vpro_rs</text>
</g>
<!-- vpro_rs&#45;&gt;vpro_shared -->
<g id="edge28" class="edge">
<title>vpro_rs&#45;&gt;vpro_shared</title>
<path fill="none" stroke="#8b8878" d="M1292.7321,-520.5008C1300.2219,-516.2546 1308.7502,-511.9622 1317,-509 1360.4002,-493.4165 1385.8354,-522.0395 1419,-490 1446.9963,-462.9534 1438,-443.427 1438,-404.5 1438,-404.5 1438,-404.5 1438,-239.5 1438,-220.6105 1326.6116,-202.0625 1253.4382,-191.9159"/>
<polygon fill="#8b8878" stroke="#8b8878" points="1253.7644,-188.428 1243.3823,-190.5407 1252.8159,-195.3634 1253.7644,-188.428"/>
</g>
<!-- vpro_rs&#45;&gt;poms_shared -->
<g id="edge29" class="edge">
<title>vpro_rs&#45;&gt;poms_shared</title>
<path fill="none" stroke="#8b8878" d="M1269.024,-516.8583C1267.8118,-481.6265 1268.4482,-402.1316 1294,-342 1297.2894,-334.259 1302.2443,-326.7578 1307.4993,-320.1052"/>
<polygon fill="#8b8878" stroke="#8b8878" points="1310.4211,-322.071 1314.2134,-312.1781 1305.0795,-317.5468 1310.4211,-322.071"/>
</g>
<!-- vpro_rs&#45;&gt;api_client -->
<g id="edge30" class="edge">
<title>vpro_rs&#45;&gt;api_client</title>
<path fill="none" stroke="#8b8878" d="M1286.1994,-518.6264C1300.7311,-503.9385 1322.2557,-482.1824 1338.8233,-465.4366"/>
<polygon fill="#8b8878" stroke="#8b8878" points="1341.4987,-467.709 1346.0438,-458.1386 1336.5225,-462.7858 1341.4987,-467.709"/>
</g>
<!-- vpro_rs&#45;&gt;poms_shared_backend -->
<g id="edge31" class="edge">
<title>vpro_rs&#45;&gt;poms_shared_backend</title>
<path fill="none" stroke="#8b8878" d="M1234.2197,-528.3771C1203.3996,-521.6842 1158.4196,-509.5052 1123,-490 1082.9686,-467.9551 1082.627,-448.9365 1045,-423 959.8981,-364.3389 927.6283,-365.6095 827,-342 743.1331,-322.3231 645.8277,-310.0489 575.4693,-303.0002"/>
<polygon fill="#8b8878" stroke="#8b8878" points="575.5838,-299.4947 565.2889,-301.9979 574.8978,-306.461 575.5838,-299.4947"/>
</g>
</g>
</svg>
