<?xml version="1.0" encoding="UTF-8" standalone="no"?>
<!DOCTYPE svg PUBLIC "-//W3C//DTD SVG 1.1//EN"
 "http://www.w3.org/Graphics/SVG/1.1/DTD/svg11.dtd">
<!-- Generated by graphviz version 2.40.1 (20161225.0304)
 -->
<!-- Title: %3 Pages: 1 -->
<svg width="1590pt" height="753pt"
 viewBox="0.00 0.00 1590.00 753.00" xmlns="http://www.w3.org/2000/svg" xmlns:xlink="http://www.w3.org/1999/xlink">
<g id="graph0" class="graph" transform="scale(1 1) rotate(0) translate(4 749)">
<title>%3</title>
<polygon fill="#ffffff" stroke="transparent" points="-4,4 -4,-749 1586,-749 1586,4 -4,4"/>
<text text-anchor="middle" x="791" y="-7.8" font-family="Times,serif" font-size="14.00" fill="#000000"> &#160;Dependencies of the different code projects relevant to POMS</text>
<g id="clust1" class="cluster">
<title>cluster_0</title>
<polygon fill="none" stroke="#000000" points="116,-47 116,-359 630,-359 630,-47 116,-47"/>
<text text-anchor="middle" x="373" y="-69.8" font-family="Times,serif" font-size="14.00" fill="#000000">Generic utilities</text>
<text text-anchor="middle" x="373" y="-54.8" font-family="Times,serif" font-size="14.00" fill="#000000">(incoming edges are just examples, there are more)</text>
</g>
<g id="clust2" class="cluster">
<title>cluster_1</title>
<polygon fill="none" stroke="#000000" points="854,-568 854,-643 1210,-643 1210,-568 854,-568"/>
<text text-anchor="middle" x="1032" y="-627.8" font-family="Times,serif" font-size="14.00" fill="#000000">VPRO</text>
</g>
<g id="clust3" class="cluster">
<title>cluster_2</title>
<polygon fill="#f0ffff" stroke="#000000" points="32,-474 32,-737 846,-737 846,-474 32,-474"/>
<text text-anchor="middle" x="439" y="-721.8" font-family="Times,serif" font-size="14.00" fill="#000000">POMS Services</text>
</g>
<g id="clust4" class="cluster">
<title>cluster_3</title>
<polygon fill="#f0ffff" stroke="#000000" points="362,-380 362,-455 704,-455 704,-380 362,-380"/>
<text text-anchor="middle" x="533" y="-439.8" font-family="Times,serif" font-size="14.00" fill="#000000">Backend utilities</text>
</g>
<g id="clust5" class="cluster">
<title>cluster_4</title>
<polygon fill="#f0ffff" stroke="#000000" points="1057,-307 1057,-549 1189,-549 1189,-307 1057,-307"/>
<text text-anchor="middle" x="1123" y="-533.8" font-family="Times,serif" font-size="14.00" fill="#000000">Sharable utilities</text>
</g>
<!-- vpro_shared -->
<g id="node1" class="node">
<title>vpro_shared</title>
<g id="a_node1"><a xlink:href="https://github.com/vpro/vpro-shared" xlink:title="vpro_shared">
<ellipse fill="none" stroke="#000000" cx="472" cy="-333" rx="55.7903" ry="18"/>
<text text-anchor="middle" x="472" y="-329.3" font-family="Times,serif" font-size="14.00" fill="#0000ff">vpro_shared</text>
</a>
</g>
</g>
<!-- i18n_regions -->
<g id="node3" class="node">
<title>i18n_regions</title>
<g id="a_node3"><a xlink:href="https://github.com/mihxil/i18n-regions" xlink:title="i18n_regions">
<ellipse fill="none" stroke="#000000" cx="564" cy="-222" rx="58.4896" ry="18"/>
<text text-anchor="middle" x="564" y="-218.3" font-family="Times,serif" font-size="14.00" fill="#0000ff">i18n_regions</text>
</a>
</g>
</g>
<!-- vpro_shared&#45;&gt;i18n_regions -->
<g id="edge1" class="edge">
<title>vpro_shared&#45;&gt;i18n_regions</title>
<path fill="none" stroke="#c0c0c0" d="M486.7814,-315.1659C501.9377,-296.8795 525.6552,-268.2638 542.8073,-247.5695"/>
<polygon fill="#c0c0c0" stroke="#c0c0c0" points="545.5686,-249.7226 549.2553,-239.7898 540.1792,-245.2556 545.5686,-249.7226"/>
</g>
<!-- guava -->
<g id="node8" class="node">
<title>guava</title>
<g id="a_node8"><a xlink:href="https://github.com/google/guava" xlink:title="guava">
<ellipse fill="none" stroke="#000000" stroke-dasharray="5,2" cx="384" cy="-222" rx="32.4942" ry="18"/>
<text text-anchor="middle" x="384" y="-218.3" font-family="Times,serif" font-size="14.00" fill="#0000ff">guava</text>
</a>
</g>
</g>
<!-- vpro_shared&#45;&gt;guava -->
<g id="edge2" class="edge">
<title>vpro_shared&#45;&gt;guava</title>
<path fill="none" stroke="#c0c0c0" d="M457.8613,-315.1659C443.1719,-296.6373 420.0751,-267.5038 403.6226,-246.7512"/>
<polygon fill="#c0c0c0" stroke="#c0c0c0" points="406.1951,-244.3622 397.24,-238.7004 400.7098,-248.711 406.1951,-244.3622"/>
</g>
<!-- slf4j -->
<g id="node20" class="node">
<title>slf4j</title>
<ellipse fill="none" stroke="#000000" stroke-dasharray="5,2" cx="461" cy="-222" rx="27" ry="18"/>
<text text-anchor="middle" x="461" y="-218.3" font-family="Times,serif" font-size="14.00" fill="#000000">slf4j</text>
</g>
<!-- vpro_shared&#45;&gt;slf4j -->
<g id="edge3" class="edge">
<title>vpro_shared&#45;&gt;slf4j</title>
<path fill="none" stroke="#c0c0c0" d="M470.1836,-314.6706C468.4456,-297.1329 465.7994,-270.4306 463.7933,-250.1867"/>
<polygon fill="#c0c0c0" stroke="#c0c0c0" points="467.2518,-249.5944 462.7826,-239.9883 460.2859,-250.2848 467.2518,-249.5944"/>
</g>
<!-- poms_shared -->
<g id="node2" class="node">
<title>poms_shared</title>
<g id="a_node2"><a xlink:href="https://github.com/npo-poms/poms-shared" xlink:title="poms_shared">
<ellipse fill="none" stroke="#000000" cx="1123" cy="-333" rx="58.4896" ry="18"/>
<text text-anchor="middle" x="1123" y="-329.3" font-family="Times,serif" font-size="14.00" fill="#0000ff">poms_shared</text>
</a>
</g>
</g>
<!-- poms_shared&#45;&gt;vpro_shared -->
<g id="edge4" class="edge">
<title>poms_shared&#45;&gt;vpro_shared</title>
<path fill="none" stroke="#c0c0c0" d="M1073.0279,-342.4046C1022.3482,-351.4302 941.5476,-364.4174 871,-369.5 798.9645,-374.6898 616.3349,-385.9027 546,-369.5 532.3262,-366.3111 518.2752,-360.2135 506.1404,-353.902"/>
<polygon fill="#c0c0c0" stroke="#c0c0c0" points="507.7293,-350.782 497.2723,-349.0785 504.3846,-356.9313 507.7293,-350.782"/>
</g>
<!-- poms_shared&#45;&gt;i18n_regions -->
<g id="edge5" class="edge">
<title>poms_shared&#45;&gt;i18n_regions</title>
<path fill="none" stroke="#c0c0c0" d="M1085.6887,-319.1012C1038.472,-302.0694 954.3282,-273.563 880,-258 795.3557,-240.277 696.0033,-230.7651 631.6222,-226.0509"/>
<polygon fill="#c0c0c0" stroke="#c0c0c0" points="631.8212,-222.5563 621.5973,-225.3349 631.3225,-229.5385 631.8212,-222.5563"/>
</g>
<!-- nv_i18n -->
<g id="node4" class="node">
<title>nv_i18n</title>
<g id="a_node4"><a xlink:href="https://github.com/TakahikoKawasaki/nv-i18n" xlink:title="nv_i18n">
<ellipse fill="none" stroke="#000000" cx="564" cy="-111" rx="40.0939" ry="18"/>
<text text-anchor="middle" x="564" y="-107.3" font-family="Times,serif" font-size="14.00" fill="#0000ff">nv_i18n</text>
</a>
</g>
</g>
<!-- i18n_regions&#45;&gt;nv_i18n -->
<g id="edge9" class="edge">
<title>i18n_regions&#45;&gt;nv_i18n</title>
<path fill="none" stroke="#c0c0c0" d="M564,-203.6706C564,-186.2373 564,-159.7482 564,-139.5489"/>
<polygon fill="#c0c0c0" stroke="#c0c0c0" points="567.5001,-139.3566 564,-129.3566 560.5001,-139.3567 567.5001,-139.3566"/>
</g>
<!-- amara_importer -->
<g id="node5" class="node">
<title>amara_importer</title>
<g id="a_node5"><a xlink:href="https://github.com/vpro/amara-poms" xlink:title="amara_importer">
<ellipse fill="none" stroke="#000000" cx="1133" cy="-594" rx="68.7879" ry="18"/>
<text text-anchor="middle" x="1133" y="-590.3" font-family="Times,serif" font-size="14.00" fill="#0000ff">amara_importer</text>
</a>
</g>
</g>
<!-- api_client -->
<g id="node10" class="node">
<title>api_client</title>
<g id="a_node10"><a xlink:href="https://github.com/npo-poms/api-clients" xlink:title="api_client">
<ellipse fill="none" stroke="#000000" cx="1113" cy="-500" rx="46.5926" ry="18"/>
<text text-anchor="middle" x="1113" y="-496.3" font-family="Times,serif" font-size="14.00" fill="#0000ff">api_client</text>
</a>
</g>
</g>
<!-- amara_importer&#45;&gt;api_client -->
<g id="edge42" class="edge">
<title>amara_importer&#45;&gt;api_client</title>
<path fill="none" stroke="#c0c0c0" d="M1129.1438,-575.8759C1126.2663,-562.3516 1122.2807,-543.6192 1118.9897,-528.1514"/>
<polygon fill="#c0c0c0" stroke="#c0c0c0" points="1122.3489,-527.1212 1116.8444,-518.0685 1115.5021,-528.578 1122.3489,-527.1212"/>
</g>
<!-- amara -->
<g id="node24" class="node">
<title>amara</title>
<ellipse fill="none" stroke="#000000" cx="1015" cy="-500" rx="33.2948" ry="18"/>
<text text-anchor="middle" x="1015" y="-496.3" font-family="Times,serif" font-size="14.00" fill="#000000">amara</text>
</g>
<!-- amara_importer&#45;&gt;amara -->
<g id="edge43" class="edge">
<title>amara_importer&#45;&gt;amara</title>
<path fill="none" stroke="#c0c0c0" d="M1098.367,-578.369C1083.516,-570.7282 1066.5142,-560.6577 1053,-549 1045.1351,-542.2155 1037.8008,-533.5847 1031.7144,-525.4631"/>
<polygon fill="#c0c0c0" stroke="#c0c0c0" points="1034.5226,-523.3731 1025.8534,-517.2825 1028.8323,-527.45 1034.5226,-523.3731"/>
</g>
<!-- resteasy -->
<g id="node6" class="node">
<title>resteasy</title>
<g id="a_node6"><a xlink:href="https://github.com/resteasy/Resteasy" xlink:title="resteasy">
<ellipse fill="none" stroke="#000000" cx="358" cy="-333" rx="40.0939" ry="18"/>
<text text-anchor="middle" x="358" y="-329.3" font-family="Times,serif" font-size="14.00" fill="#0000ff">resteasy</text>
</a>
</g>
</g>
<!-- spring -->
<g id="node7" class="node">
<title>spring</title>
<g id="a_node7"><a xlink:href="https://github.com/spring-projects/spring-framework" xlink:title="spring">
<ellipse fill="none" stroke="#000000" stroke-dasharray="5,2" cx="158" cy="-333" rx="33.5952" ry="18"/>
<text text-anchor="middle" x="158" y="-329.3" font-family="Times,serif" font-size="14.00" fill="#0000ff">spring</text>
</a>
</g>
</g>
<!-- hibernate -->
<g id="node9" class="node">
<title>hibernate</title>
<g id="a_node9"><a xlink:href="https://github.com/hibernate/" xlink:title="hibernate">
<ellipse fill="none" stroke="#000000" cx="255" cy="-333" rx="44.6926" ry="18"/>
<text text-anchor="middle" x="255" y="-329.3" font-family="Times,serif" font-size="14.00" fill="#0000ff">hibernate</text>
</a>
</g>
</g>
<!-- api_client&#45;&gt;vpro_shared -->
<g id="edge21" class="edge">
<title>api_client&#45;&gt;vpro_shared</title>
<path fill="none" stroke="#c0c0c0" d="M1100.2855,-482.176C1077.6788,-452.1844 1027.2553,-392.5957 968,-369 923.4968,-351.2786 583.9292,-368.6035 537,-359 528.8733,-357.337 520.4598,-354.7127 512.4901,-351.7579"/>
<polygon fill="#c0c0c0" stroke="#c0c0c0" points="513.6248,-348.4431 503.0379,-348.0322 511.0578,-354.9555 513.6248,-348.4431"/>
</g>
<!-- api_client&#45;&gt;poms_shared -->
<g id="edge22" class="edge">
<title>api_client&#45;&gt;poms_shared</title>
<path fill="none" stroke="#c0c0c0" d="M1114.0892,-481.8102C1115.8249,-452.8234 1119.2324,-395.9192 1121.2939,-361.4916"/>
<polygon fill="#c0c0c0" stroke="#c0c0c0" points="1124.8081,-361.3588 1121.9121,-351.1674 1117.8206,-360.9403 1124.8081,-361.3588"/>
</g>
<!-- poms_backend -->
<g id="node11" class="node">
<title>poms_backend</title>
<g id="a_node11"><a xlink:href="https://subversion.vpro.nl/viewvc/nl/vpro/media" xlink:title="POMS &#160;&amp; POMS Backend API">
<ellipse fill="none" stroke="#cd950c" cx="165" cy="-688" rx="125.3778" ry="18"/>
<text text-anchor="middle" x="165" y="-684.3" font-family="Times,serif" font-size="14.00" fill="#006400">POMS &#160;&amp; POMS Backend API</text>
</a>
</g>
</g>
<!-- poms_backend&#45;&gt;vpro_shared -->
<g id="edge33" class="edge">
<title>poms_backend&#45;&gt;vpro_shared</title>
<path fill="none" stroke="#cd950c" d="M160.958,-669.7311C157.1418,-650.8652 152,-620.5244 152,-594 152,-594 152,-594 152,-463.5 152,-341.0193 290.7431,-397.547 407,-359 414.0588,-356.6595 421.4567,-353.9525 428.6281,-351.188"/>
<polygon fill="#cd950c" stroke="#cd950c" points="430.193,-354.3333 438.2141,-347.4114 427.6271,-347.8205 430.193,-354.3333"/>
</g>
<!-- poms_backend&#45;&gt;poms_shared -->
<g id="edge34" class="edge">
<title>poms_backend&#45;&gt;poms_shared</title>
<path fill="none" stroke="#cd950c" d="M251.71,-674.935C267.4164,-672.9728 283.6726,-671.2057 299,-670 362.7097,-664.9884 1396.6992,-679.7242 1449,-643 1468.1158,-629.5774 1468,-617.3577 1468,-594 1468,-594 1468,-594 1468,-406 1468,-377.7371 1288.4951,-352.2653 1188.4466,-340.2633"/>
<polygon fill="#cd950c" stroke="#cd950c" points="1188.773,-336.7775 1178.4302,-339.0748 1187.9481,-343.7288 1188.773,-336.7775"/>
</g>
<!-- poms_backend&#45;&gt;resteasy -->
<g id="edge35" class="edge">
<title>poms_backend&#45;&gt;resteasy</title>
<path fill="none" stroke="#cd950c" d="M124.1432,-670.8772C115.3515,-665.7812 106.7,-659.5068 100,-652 81.4236,-631.1868 76,-621.8975 76,-594 76,-594 76,-594 76,-463.5 76,-417.2772 98.0522,-403.2533 138,-380 204.1761,-341.4793 235.9634,-381.9949 309,-359 314.3967,-357.3009 319.897,-355.0123 325.1692,-352.4943"/>
<polygon fill="#cd950c" stroke="#cd950c" points="327.0394,-355.4688 334.3412,-347.7919 323.8457,-349.2397 327.0394,-355.4688"/>
</g>
<!-- poms_backend&#45;&gt;spring -->
<g id="edge36" class="edge">
<title>poms_backend&#45;&gt;spring</title>
<path fill="none" stroke="#cd950c" d="M85.0231,-674.0123C58.8173,-668.0877 33.8791,-660.564 24,-652 2.9205,-633.7264 0,-621.8975 0,-594 0,-594 0,-594 0,-406 0,-380.1713 70.4606,-356.2847 117.275,-343.2647"/>
<polygon fill="#cd950c" stroke="#cd950c" points="118.429,-346.5781 127.1609,-340.5777 116.593,-339.8232 118.429,-346.5781"/>
</g>
<!-- poms_backend&#45;&gt;hibernate -->
<g id="edge37" class="edge">
<title>poms_backend&#45;&gt;hibernate</title>
<path fill="none" stroke="#cd950c" d="M95.8845,-672.92C83.5303,-667.8314 71.5666,-661.0445 62,-652 41.728,-632.8345 38,-621.8975 38,-594 38,-594 38,-594 38,-463.5 38,-424.8864 32.981,-405.4737 62,-380 108.9542,-338.7822 141.2994,-377.424 201,-359 207.1332,-357.1072 213.4461,-354.617 219.496,-351.9271"/>
<polygon fill="#cd950c" stroke="#cd950c" points="221.1598,-355.0125 228.7229,-347.5929 218.1836,-348.6767 221.1598,-355.0125"/>
</g>
<!-- poms_gui -->
<g id="node12" class="node">
<title>poms_gui</title>
<g id="a_node12"><a xlink:href="https://subversion.vpro.nl/viewvc/nl/vpro/media-gui" xlink:title="Angular GUI for POMS">
<ellipse fill="none" stroke="#000000" cx="739" cy="-500" rx="98.5829" ry="18"/>
<text text-anchor="middle" x="739" y="-496.3" font-family="Times,serif" font-size="14.00" fill="#006400">Angular GUI for POMS</text>
</a>
</g>
</g>
<!-- poms_backend&#45;&gt;poms_gui -->
<g id="edge38" class="edge">
<title>poms_backend&#45;&gt;poms_gui</title>
<path fill="none" stroke="#cd950c" d="M227.3207,-672.3052C317.5424,-648.9355 489.2574,-602.0136 631,-549 652.5448,-540.942 675.8534,-530.5851 695.2833,-521.4705"/>
<polygon fill="#cd950c" stroke="#cd950c" points="696.9464,-524.5556 704.4853,-517.1114 693.9496,-518.2295 696.9464,-524.5556"/>
</g>
<!-- user_backend -->
<g id="node17" class="node">
<title>user_backend</title>
<g id="a_node17"><a xlink:href="https://subversion.vpro.nl/repo/nl/vpro/user" xlink:title="user_backend">
<ellipse fill="none" stroke="#000000" cx="430" cy="-406" rx="60.3893" ry="18"/>
<text text-anchor="middle" x="430" y="-402.3" font-family="Times,serif" font-size="14.00" fill="#006400">user_backend</text>
</a>
</g>
</g>
<!-- poms_backend&#45;&gt;user_backend -->
<g id="edge39" class="edge">
<title>poms_backend&#45;&gt;user_backend</title>
<path fill="none" stroke="#cd950c" d="M171.2734,-669.8393C185.963,-629.6681 226.1749,-532.2347 289,-474 314.3388,-450.5127 349.2831,-433.5834 378.044,-422.491"/>
<polygon fill="#cd950c" stroke="#cd950c" points="379.3902,-425.7245 387.5378,-418.9519 376.9451,-419.1654 379.3902,-425.7245"/>
</g>
<!-- angular -->
<g id="node21" class="node">
<title>angular</title>
<ellipse fill="none" stroke="#000000" cx="584" cy="-333" rx="37.8943" ry="18"/>
<text text-anchor="middle" x="584" y="-329.3" font-family="Times,serif" font-size="14.00" fill="#000000">angular</text>
</g>
<!-- poms_gui&#45;&gt;angular -->
<g id="edge40" class="edge">
<title>poms_gui&#45;&gt;angular</title>
<path fill="none" stroke="#c0c0c0" d="M765.575,-482.5249C801.9907,-456.4865 859.3947,-406.5475 827,-369 814.4222,-354.4216 698.667,-342.4966 631.5613,-336.7361"/>
<polygon fill="#c0c0c0" stroke="#c0c0c0" points="631.491,-333.2178 621.2322,-335.865 630.9027,-340.1931 631.491,-333.2178"/>
</g>
<!-- poms_shared_backend -->
<g id="node13" class="node">
<title>poms_shared_backend</title>
<g id="a_node13"><a xlink:href="https://subversion.vpro.nl/viewvc/nl/publiekeomroep/poms-shared-backend/" xlink:title="poms_shared_backend">
<ellipse fill="none" stroke="#00cdcd" cx="602" cy="-406" rx="93.6835" ry="18"/>
<text text-anchor="middle" x="602" y="-402.3" font-family="Times,serif" font-size="14.00" fill="#006400">poms_shared_backend</text>
</a>
</g>
</g>
<!-- poms_shared_backend&#45;&gt;vpro_shared -->
<g id="edge6" class="edge">
<title>poms_shared_backend&#45;&gt;vpro_shared</title>
<path fill="none" stroke="#00cdcd" d="M571.5208,-388.8847C552.7778,-378.3598 528.64,-364.8055 508.8303,-353.6816"/>
<polygon fill="#00cdcd" stroke="#00cdcd" points="510.5011,-350.6058 500.068,-348.7613 507.0736,-356.7093 510.5011,-350.6058"/>
</g>
<!-- poms_shared_backend&#45;&gt;poms_shared -->
<g id="edge7" class="edge">
<title>poms_shared_backend&#45;&gt;poms_shared</title>
<path fill="none" stroke="#00cdcd" d="M680.5851,-396.1178C735.6159,-389.0985 810.8424,-379.3047 877,-370 939.6176,-361.1932 1011.0764,-350.3574 1060.7812,-342.6941"/>
<polygon fill="#00cdcd" stroke="#00cdcd" points="1061.3857,-346.1424 1070.7344,-341.1572 1060.3174,-339.2244 1061.3857,-346.1424"/>
</g>
<!-- poms_shared_backend&#45;&gt;slf4j -->
<g id="edge8" class="edge">
<title>poms_shared_backend&#45;&gt;slf4j</title>
<path fill="none" stroke="#00cdcd" d="M615.5319,-388.0209C629.3859,-367.2321 646.8184,-332.5947 631,-307 631,-307 541.1677,-262.0838 492.1064,-237.5532"/>
<polygon fill="#00cdcd" stroke="#00cdcd" points="493.3861,-234.2799 482.8765,-232.9383 490.2555,-240.5409 493.3861,-234.2799"/>
</g>
<!-- api -->
<g id="node14" class="node">
<title>api</title>
<g id="a_node14"><a xlink:href="https://subversion.vpro.nl/viewvc/nl/vpro/api/" xlink:title="Frontend API">
<ellipse fill="none" stroke="#6495ed" cx="618" cy="-688" rx="60.3893" ry="18"/>
<text text-anchor="middle" x="618" y="-684.3" font-family="Times,serif" font-size="14.00" fill="#006400">Frontend API</text>
</a>
</g>
</g>
<!-- api&#45;&gt;vpro_shared -->
<g id="edge10" class="edge">
<title>api&#45;&gt;vpro_shared</title>
<path fill="none" stroke="#6495ed" d="M573.2258,-675.7088C565.1893,-673.6774 556.8683,-671.6868 549,-670 453.1724,-649.457 342,-692.0048 342,-594 342,-594 342,-594 342,-406 342,-392.4317 347.6671,-388.7937 358,-380 359.4821,-378.7387 396.082,-363.7379 427.415,-351.0178"/>
<polygon fill="#6495ed" stroke="#6495ed" points="428.9736,-354.1626 436.9252,-347.1611 426.3429,-347.6757 428.9736,-354.1626"/>
</g>
<!-- api&#45;&gt;poms_shared -->
<g id="edge11" class="edge">
<title>api&#45;&gt;poms_shared</title>
<path fill="none" stroke="#6495ed" d="M660.7513,-675.1948C669.3686,-673.083 678.4168,-671.1955 687,-670 732.846,-663.6144 1481.7972,-678.1377 1520,-652 1543.0243,-636.2472 1544,-621.8975 1544,-594 1544,-594 1544,-594 1544,-406 1544,-386.399 1536.7826,-379.1263 1520,-369 1492.6174,-352.4778 1297.7997,-341.0465 1191.616,-335.9683"/>
<polygon fill="#6495ed" stroke="#6495ed" points="1191.4665,-332.4574 1181.3126,-335.4821 1191.1365,-339.4496 1191.4665,-332.4574"/>
</g>
<!-- api&#45;&gt;resteasy -->
<g id="edge12" class="edge">
<title>api&#45;&gt;resteasy</title>
<path fill="none" stroke="#6495ed" d="M574.0559,-675.4437C565.7822,-673.3913 557.1648,-671.4617 549,-670 502.4686,-661.6695 368.3887,-679.209 338,-643 308.3627,-607.6863 313.3157,-430.2978 328,-380 330.1635,-372.5893 333.8905,-365.2347 337.9968,-358.6203"/>
<polygon fill="#6495ed" stroke="#6495ed" points="341.0362,-360.373 343.7203,-350.1238 335.2305,-356.4621 341.0362,-360.373"/>
</g>
<!-- api&#45;&gt;poms_shared_backend -->
<g id="edge13" class="edge">
<title>api&#45;&gt;poms_shared_backend</title>
<path fill="none" stroke="#6495ed" d="M572.4312,-676.1125C532.2348,-665.6265 480,-652 480,-652 430.1092,-590.5637 434.337,-541.8972 475,-474 479.8216,-465.9491 522.6427,-443.965 557.2492,-427.1526"/>
<polygon fill="#6495ed" stroke="#6495ed" points="558.8142,-430.2837 566.2969,-422.783 555.77,-423.9803 558.8142,-430.2837"/>
</g>
<!-- api&#45;&gt;user_backend -->
<g id="edge14" class="edge">
<title>api&#45;&gt;user_backend</title>
<path fill="none" stroke="#6495ed" d="M572.3719,-675.9975C564.5793,-673.9761 556.5609,-671.914 549,-670 500.1993,-657.6462 476.595,-676.4774 439,-643 378.1354,-588.8016 386.6942,-542.6397 404,-463 406.2284,-452.745 410.4703,-442.1233 414.8915,-432.8681"/>
<polygon fill="#6495ed" stroke="#6495ed" points="418.0929,-434.2932 419.4867,-423.7905 411.8475,-431.1317 418.0929,-434.2932"/>
</g>
<!-- media_publish -->
<g id="node15" class="node">
<title>media_publish</title>
<g id="a_node15"><a xlink:href="https://subversion.vpro.nl/viewvc/nl/publiekeomroep/npo-publish/" xlink:title="Media Publisher">
<ellipse fill="none" stroke="#bf3eff" cx="767" cy="-688" rx="70.6878" ry="18"/>
<text text-anchor="middle" x="767" y="-684.3" font-family="Times,serif" font-size="14.00" fill="#006400">Media Publisher</text>
</a>
</g>
</g>
<!-- media_publish&#45;&gt;poms_shared -->
<g id="edge18" class="edge">
<title>media_publish&#45;&gt;poms_shared</title>
<path fill="none" stroke="#bf3eff" d="M837.9316,-686.825C1026.6611,-683.426 1528.7974,-672.4959 1558,-652 1580.8346,-635.9734 1582,-621.8975 1582,-594 1582,-594 1582,-594 1582,-406 1582,-386.399 1574.8223,-379.0603 1558,-369 1527.342,-350.6655 1305.8511,-339.8092 1191.2791,-335.3616"/>
<polygon fill="#bf3eff" stroke="#bf3eff" points="1191.3323,-331.8612 1181.2058,-334.9764 1191.0647,-338.8561 1191.3323,-331.8612"/>
</g>
<!-- pages_publish -->
<g id="node16" class="node">
<title>pages_publish</title>
<g id="a_node16"><a xlink:href="https://subversion.vpro.nl/viewvc/nl/vpro/pages-publish/" xlink:title="Pages Publisher">
<ellipse fill="none" stroke="#8fbc8f" cx="553" cy="-500" rx="68.7879" ry="18"/>
<text text-anchor="middle" x="553" y="-496.3" font-family="Times,serif" font-size="14.00" fill="#006400">Pages Publisher</text>
</a>
</g>
</g>
<!-- media_publish&#45;&gt;pages_publish -->
<g id="edge20" class="edge">
<title>media_publish&#45;&gt;pages_publish</title>
<path fill="none" stroke="#c0c0c0" d="M747.251,-670.6504C706.4831,-634.8356 613.4283,-553.0866 572.7013,-517.3077"/>
<text text-anchor="middle" x="779" y="-590.3" font-family="Times,serif" font-size="14.00" fill="#000000">we plan to merge these</text>
</g>
<!-- media_publish&#45;&gt;user_backend -->
<g id="edge19" class="edge">
<title>media_publish&#45;&gt;user_backend</title>
<path fill="none" stroke="#bf3eff" d="M716.9741,-675.1215C689.7607,-667.3278 655.8594,-656.3204 627,-643 554.8813,-609.7128 523.7569,-611.7049 475,-549 448.5616,-514.9982 437.5,-465.1993 432.9832,-434.2358"/>
<polygon fill="#bf3eff" stroke="#bf3eff" points="436.4269,-433.5797 431.6439,-424.1259 429.4875,-434.499 436.4269,-433.5797"/>
</g>
<!-- pages_publish&#45;&gt;poms_shared -->
<g id="edge15" class="edge">
<title>pages_publish&#45;&gt;poms_shared</title>
<path fill="none" stroke="#8fbc8f" d="M594.5018,-485.4831C606.242,-481.563 619.0714,-477.4538 631,-474 664.858,-464.1967 673.9718,-464.1952 708,-455 839.921,-419.3517 993.9795,-372.7412 1072.0512,-348.7638"/>
<polygon fill="#8fbc8f" stroke="#8fbc8f" points="1073.1143,-352.0988 1081.6439,-345.8142 1071.0569,-345.4079 1073.1143,-352.0988"/>
</g>
<!-- pages_publish&#45;&gt;poms_shared_backend -->
<g id="edge16" class="edge">
<title>pages_publish&#45;&gt;poms_shared_backend</title>
<path fill="none" stroke="#8fbc8f" d="M562.4477,-481.8759C569.6332,-468.0915 579.6389,-448.8968 587.7886,-433.2627"/>
<polygon fill="#8fbc8f" stroke="#8fbc8f" points="591.0625,-434.5539 592.5813,-424.0685 584.8552,-431.3182 591.0625,-434.5539"/>
</g>
<!-- pages_publish&#45;&gt;user_backend -->
<g id="edge17" class="edge">
<title>pages_publish&#45;&gt;user_backend</title>
<path fill="none" stroke="#8fbc8f" d="M530.4399,-482.759C510.7251,-467.6923 481.9408,-445.6946 460.2351,-429.1065"/>
<polygon fill="#8fbc8f" stroke="#8fbc8f" points="462.0739,-426.1067 452.0032,-422.8155 457.8234,-431.6685 462.0739,-426.1067"/>
</g>
<!-- images -->
<g id="node18" class="node">
<title>images</title>
<g id="a_node18"><a xlink:href="https://subversion.vpro.nl/viewvc/nl/vpro/images/" xlink:title="Images Frontend &amp; Backend">
<ellipse fill="none" stroke="#caff70" cx="424" cy="-688" rx="115.8798" ry="18"/>
<text text-anchor="middle" x="424" y="-684.3" font-family="Times,serif" font-size="14.00" fill="#006400">Images Frontend &amp; Backend</text>
</a>
</g>
</g>
<!-- images&#45;&gt;poms_shared -->
<g id="edge23" class="edge">
<title>images&#45;&gt;poms_shared</title>
<path fill="none" stroke="#caff70" d="M504.189,-674.9557C519.0506,-672.9644 534.4677,-671.1819 549,-670 574.8362,-667.8987 1460.5896,-666.6123 1482,-652 1505.0426,-636.2738 1506,-621.8975 1506,-594 1506,-594 1506,-594 1506,-406 1506,-386.399 1498.7342,-379.206 1482,-369 1457.7891,-354.2341 1288.1884,-342.3443 1191.007,-336.6504"/>
<polygon fill="#caff70" stroke="#caff70" points="1191.1568,-333.1533 1180.9712,-336.0693 1190.7521,-340.1416 1191.1568,-333.1533"/>
</g>
<!-- images&#45;&gt;spring -->
<g id="edge24" class="edge">
<title>images&#45;&gt;spring</title>
<path fill="none" stroke="#caff70" d="M339.3489,-675.7286C282.5665,-666.7878 213.3466,-654.3118 186,-643 150.2317,-628.2047 114,-632.7075 114,-594 114,-594 114,-594 114,-406 114,-387.6184 124.3597,-369.8877 135.0254,-356.5042"/>
<polygon fill="#caff70" stroke="#caff70" points="137.7967,-358.6483 141.616,-348.7658 132.4675,-354.1096 137.7967,-358.6483"/>
</g>
<!-- images&#45;&gt;hibernate -->
<g id="edge25" class="edge">
<title>images&#45;&gt;hibernate</title>
<path fill="none" stroke="#caff70" d="M352.8392,-673.7036C283.9951,-657.772 190,-629.5168 190,-594 190,-594 190,-594 190,-406 190,-384.7576 205.5418,-366.8349 221.426,-354.0645"/>
<polygon fill="#caff70" stroke="#caff70" points="223.7872,-356.6685 229.6832,-347.8658 219.5846,-351.0704 223.7872,-356.6685"/>
</g>
<!-- images&#45;&gt;user_backend -->
<g id="edge26" class="edge">
<title>images&#45;&gt;user_backend</title>
<path fill="none" stroke="#caff70" d="M343.8933,-674.9208C319.5999,-669.2176 297.3657,-661.6057 290,-652 264.3078,-618.4944 275.9212,-596.8058 290,-557 309.6155,-501.5398 361.859,-454.9879 396.6797,-428.8071"/>
<polygon fill="#caff70" stroke="#caff70" points="399.143,-431.3403 405.1266,-422.5969 394.9965,-425.7005 399.143,-431.3403"/>
</g>
<!-- functional_tests -->
<g id="node19" class="node">
<title>functional_tests</title>
<g id="a_node19"><a xlink:href="https://github.com/npo-poms/functional-tests" xlink:title="Functional integration tests">
<ellipse fill="#e0eeee" stroke="#9acd32" cx="1330" cy="-594" rx="109.6807" ry="18"/>
<text text-anchor="middle" x="1330" y="-590.3" font-family="Times,serif" font-size="14.00" fill="#0000ff">Functional integration tests</text>
</a>
</g>
</g>
<!-- functional_tests&#45;&gt;api_client -->
<g id="edge41" class="edge">
<title>functional_tests&#45;&gt;api_client</title>
<path fill="none" stroke="#c0c0c0" d="M1290.9541,-577.0861C1252.2577,-560.3236 1193.2273,-534.7528 1153.8975,-517.716"/>
<polygon fill="#c0c0c0" stroke="#c0c0c0" points="1154.9145,-514.3423 1144.3472,-513.579 1152.1321,-520.7656 1154.9145,-514.3423"/>
</g>
<!-- magnolia -->
<g id="node22" class="node">
<title>magnolia</title>
<ellipse fill="none" stroke="#000000" cx="1001" cy="-594" rx="44.6926" ry="18"/>
<text text-anchor="middle" x="1001" y="-590.3" font-family="Times,serif" font-size="14.00" fill="#000000">magnolia</text>
</g>
<!-- magnolia&#45;&gt;vpro_shared -->
<g id="edge27" class="edge">
<title>magnolia&#45;&gt;vpro_shared</title>
<path fill="none" stroke="#8b8878" d="M988.4168,-576.6372C970.7687,-552.6813 937.2052,-508.5376 905,-474 862.9572,-428.9123 859.4971,-404.6693 803,-380 694.3188,-332.5447 652.4768,-385.9949 537,-359 529.1778,-357.1714 521.0621,-354.554 513.3257,-351.6769"/>
<polygon fill="#8b8878" stroke="#8b8878" points="514.3674,-348.326 503.7798,-347.9336 511.8118,-354.8428 514.3674,-348.326"/>
</g>
<!-- magnolia&#45;&gt;api_client -->
<g id="edge28" class="edge">
<title>magnolia&#45;&gt;api_client</title>
<path fill="none" stroke="#8b8878" d="M1021.3843,-577.956C1032.0765,-569.4561 1045.3412,-558.7777 1057,-549 1066.7228,-540.8459 1077.2289,-531.7352 1086.4858,-523.6026"/>
<polygon fill="#8b8878" stroke="#8b8878" points="1089.0636,-525.9958 1094.248,-516.7561 1084.4332,-520.7461 1089.0636,-525.9958"/>
</g>
<!-- vpro_rs -->
<g id="node23" class="node">
<title>vpro_rs</title>
<ellipse fill="none" stroke="#000000" cx="900" cy="-594" rx="38.1938" ry="18"/>
<text text-anchor="middle" x="900" y="-590.3" font-family="Times,serif" font-size="14.00" fill="#000000">vpro_rs</text>
</g>
<!-- vpro_rs&#45;&gt;vpro_shared -->
<g id="edge29" class="edge">
<title>vpro_rs&#45;&gt;vpro_shared</title>
<path fill="none" stroke="#8b8878" d="M901.8167,-575.9084C903.387,-550.7016 902.6636,-504.6649 881,-474 787.9842,-342.3359 693.1404,-399.0939 537,-359 529.3021,-357.0233 521.2959,-354.3601 513.641,-351.49"/>
<polygon fill="#8b8878" stroke="#8b8878" points="514.77,-348.1733 504.1825,-347.78 512.2139,-354.6899 514.77,-348.1733"/>
</g>
<!-- vpro_rs&#45;&gt;poms_shared -->
<g id="edge30" class="edge">
<title>vpro_rs&#45;&gt;poms_shared</title>
<path fill="none" stroke="#8b8878" d="M922.0924,-579.28C929.6851,-574.9132 938.4355,-570.6056 947,-568 994.37,-553.5886 1135.5146,-585.4737 1169,-549 1217.759,-495.8897 1170.0662,-404.2579 1141.3103,-359.353"/>
<polygon fill="#8b8878" stroke="#8b8878" points="1144.0873,-357.2053 1135.6744,-350.7652 1138.235,-361.046 1144.0873,-357.2053"/>
</g>
<!-- vpro_rs&#45;&gt;api_client -->
<g id="edge31" class="edge">
<title>vpro_rs&#45;&gt;api_client</title>
<path fill="none" stroke="#8b8878" d="M922.7089,-579.4357C930.1976,-575.186 938.7309,-570.908 947,-568 993.803,-551.5406 1012.2175,-570.3533 1057,-549 1069.5135,-543.0333 1081.3763,-533.4587 1090.935,-524.3494"/>
<polygon fill="#8b8878" stroke="#8b8878" points="1093.4708,-526.7635 1098.0753,-517.2215 1088.5253,-521.8094 1093.4708,-526.7635"/>
</g>
<!-- vpro_rs&#45;&gt;poms_shared_backend -->
<g id="edge32" class="edge">
<title>vpro_rs&#45;&gt;poms_shared_backend</title>
<path fill="none" stroke="#8b8878" d="M894.6614,-576.0648C885.4252,-546.1638 865.9244,-488.0179 850,-474 848.2197,-472.4328 739.4361,-442.9592 666.5513,-423.3343"/>
<polygon fill="#8b8878" stroke="#8b8878" points="667.0861,-419.8537 656.5201,-420.6344 665.2668,-426.6132 667.0861,-419.8537"/>
</g>
</g>
</svg>
