<?xml version="1.0" encoding="UTF-8" standalone="no"?>
<!DOCTYPE svg PUBLIC "-//W3C//DTD SVG 1.1//EN"
 "http://www.w3.org/Graphics/SVG/1.1/DTD/svg11.dtd">
<!-- Generated by graphviz version 2.40.1 (20161225.0304)
 -->
<!-- Title: poms_universe Pages: 1 -->
<svg width="1222pt" height="507pt"
 viewBox="0.00 0.00 1221.82 507.00" xmlns="http://www.w3.org/2000/svg" xmlns:xlink="http://www.w3.org/1999/xlink">
<g id="graph0" class="graph" transform="scale(1 1) rotate(0) translate(4 503)">
<title>poms_universe</title>
<polygon fill="#ffffff" stroke="transparent" points="-4,4 -4,-503 1217.8177,-503 1217.8177,4 -4,4"/>
<text text-anchor="middle" x="606.9088" y="-7.8" font-family="Times,serif" font-size="14.00" fill="#000000">Deployments relevant for POMS</text>
<g id="clust1" class="cluster">
<title>cluster_0</title>
<polygon fill="none" stroke="#000000" points="682.3117,-31 682.3117,-178 1028.3117,-178 1028.3117,-31 682.3117,-31"/>
<text text-anchor="middle" x="855.3117" y="-162.8" font-family="Times,serif" font-size="14.00" fill="#000000">Generic backend services</text>
</g>
<g id="clust2" class="cluster">
<title>cluster_1</title>
<polygon fill="none" stroke="#000000" points="721.3117,-344 721.3117,-491 1004.3117,-491 1004.3117,-344 721.3117,-344"/>
<text text-anchor="middle" x="862.8117" y="-475.8" font-family="Times,serif" font-size="14.00" fill="#000000">World</text>
</g>
<g id="clust3" class="cluster">
<title>cluster_3</title>
<polygon fill="none" stroke="#000000" points="475.3117,-186 475.3117,-336 1181.3117,-336 1181.3117,-186 475.3117,-186"/>
<text text-anchor="middle" x="828.3117" y="-320.8" font-family="Times,serif" font-size="14.00" fill="#000000">POMS &#160;Services</text>
</g>
<g id="clust4" class="cluster">
<title>cluster_4</title>
<polygon fill="none" stroke="#000000" points="97.3117,-103 97.3117,-261 467.3117,-261 467.3117,-103 97.3117,-103"/>
<text text-anchor="middle" x="282.3117" y="-245.8" font-family="Times,serif" font-size="14.00" fill="#000000">NPO Services</text>
</g>
<!-- poms -->
<g id="node1" class="node">
<title>poms</title>
<g id="a_node1"><a xlink:href="https://poms.omroep.nl/" xlink:title="POMS">
<ellipse fill="none" stroke="#000000" cx="663.3117" cy="-287" rx="29.4969" ry="18"/>
<text text-anchor="middle" x="663.3117" y="-283.3" font-family="Times,serif" font-size="14.00" fill="#0000ff">POMS</text>
</a>
</g>
</g>
<!-- postgresql -->
<g id="node8" class="node">
<title>postgresql</title>
<ellipse fill="none" stroke="#000000" cx="909.3117" cy="-129" rx="38.9931" ry="18"/>
<text text-anchor="middle" x="909.3117" y="-125.3" font-family="Times,serif" font-size="14.00" fill="#000000">postgresql</text>
</g>
<!-- poms&#45;&gt;postgresql -->
<g id="edge9" class="edge">
<title>poms&#45;&gt;postgresql</title>
<path fill="none" stroke="#cd950c" d="M685.2632,-274.7851C690.3872,-272.4522 695.9248,-270.3267 701.3117,-269 722.583,-263.7612 882.4951,-276.1575 898.3117,-261 925.7877,-234.6691 922.3373,-187.2203 916.4628,-156.9596"/>
<polygon fill="#cd950c" stroke="#cd950c" points="919.8532,-156.0773 914.3306,-147.0357 913.0094,-157.5478 919.8532,-156.0773"/>
</g>
<!-- sso -->
<g id="node10" class="node">
<title>sso</title>
<ellipse fill="none" stroke="#000000" cx="993.3117" cy="-129" rx="27" ry="18"/>
<text text-anchor="middle" x="993.3117" y="-125.3" font-family="Times,serif" font-size="14.00" fill="#000000">sso</text>
</g>
<!-- poms&#45;&gt;sso -->
<g id="edge10" class="edge">
<title>poms&#45;&gt;sso</title>
<path fill="none" stroke="#cd950c" d="M685.2587,-274.7668C690.3829,-272.4349 695.9217,-270.3144 701.3117,-269 725.2917,-263.1521 902.3941,-274.103 923.3117,-261 960.2446,-237.865 978.8501,-188.2431 987.2769,-156.8644"/>
<polygon fill="#cd950c" stroke="#cd950c" points="990.7163,-157.5381 989.7562,-146.9869 983.9269,-155.8339 990.7163,-157.5381"/>
</g>
<!-- jms -->
<g id="node11" class="node">
<title>jms</title>
<ellipse fill="none" stroke="#000000" cx="717.3117" cy="-129" rx="27" ry="18"/>
<text text-anchor="middle" x="717.3117" y="-125.3" font-family="Times,serif" font-size="14.00" fill="#000000">jms</text>
</g>
<!-- poms&#45;&gt;jms -->
<g id="edge11" class="edge">
<title>poms&#45;&gt;jms</title>
<path fill="none" stroke="#cd950c" d="M669.4012,-269.1825C678.7596,-241.8008 696.7534,-189.1521 707.8286,-156.7469"/>
<polygon fill="#cd950c" stroke="#cd950c" points="711.2394,-157.5893 711.1616,-146.9948 704.6156,-155.3254 711.2394,-157.5893"/>
</g>
<!-- ldap -->
<g id="node12" class="node">
<title>ldap</title>
<ellipse fill="none" stroke="#000000" cx="717.3117" cy="-57" rx="27" ry="18"/>
<text text-anchor="middle" x="717.3117" y="-53.3" font-family="Times,serif" font-size="14.00" fill="#000000">ldap</text>
</g>
<!-- poms&#45;&gt;ldap -->
<g id="edge12" class="edge">
<title>poms&#45;&gt;ldap</title>
<path fill="none" stroke="#cd950c" d="M641.1939,-274.8633C635.8201,-272.4625 629.9839,-270.2883 624.3117,-269 609.1139,-265.5482 74.2531,-272.0985 63.3117,-261 14.0124,-210.9926 15.4308,-154.367 63.3117,-103 84.4694,-80.3019 544.2392,-62.8921 679.9327,-58.234"/>
<polygon fill="#cd950c" stroke="#cd950c" points="680.3536,-61.7218 690.2288,-57.8838 680.1156,-54.7259 680.3536,-61.7218"/>
</g>
<!-- metis -->
<g id="node18" class="node">
<title>metis</title>
<ellipse fill="none" stroke="#000000" cx="324.3117" cy="-129" rx="27" ry="18"/>
<text text-anchor="middle" x="324.3117" y="-125.3" font-family="Times,serif" font-size="14.00" fill="#000000">metis</text>
</g>
<!-- poms&#45;&gt;metis -->
<g id="edge13" class="edge">
<title>poms&#45;&gt;metis</title>
<path fill="none" stroke="#cd950c" d="M641.4456,-274.7493C605.7511,-254.9626 532.4995,-215.2366 468.3117,-186 430.9397,-168.9776 386.904,-151.9776 357.4587,-141.0324"/>
<polygon fill="#cd950c" stroke="#cd950c" points="358.6563,-137.7437 348.063,-137.5615 356.2305,-144.31 358.6563,-137.7437"/>
</g>
<!-- pd -->
<g id="node19" class="node">
<title>pd</title>
<ellipse fill="none" stroke="#000000" cx="288.3117" cy="-212" rx="27" ry="18"/>
<text text-anchor="middle" x="288.3117" y="-208.3" font-family="Times,serif" font-size="14.00" fill="#000000">pd</text>
</g>
<!-- poms&#45;&gt;pd -->
<g id="edge14" class="edge">
<title>poms&#45;&gt;pd</title>
<path fill="none" stroke="#cd950c" d="M641.1821,-274.9142C635.8089,-272.5114 629.9758,-270.3234 624.3117,-269 591.8411,-261.4132 353.8592,-276.4546 324.3117,-261 314.6305,-255.9363 306.893,-246.9577 301.1101,-238.0575"/>
<polygon fill="#cd950c" stroke="#cd950c" points="304.0649,-236.1775 295.979,-229.3313 298.0307,-239.7256 304.0649,-236.1775"/>
</g>
<!-- prepr -->
<g id="node20" class="node">
<title>prepr</title>
<ellipse fill="none" stroke="#000000" cx="360.3117" cy="-212" rx="27" ry="18"/>
<text text-anchor="middle" x="360.3117" y="-208.3" font-family="Times,serif" font-size="14.00" fill="#000000">prepr</text>
</g>
<!-- poms&#45;&gt;prepr -->
<g id="edge15" class="edge">
<title>poms&#45;&gt;prepr</title>
<path fill="none" stroke="#cd950c" d="M641.174,-274.9488C635.801,-272.5445 629.9702,-270.3472 624.3117,-269 599.6521,-263.1287 418.7241,-272.843 396.3117,-261 386.6519,-255.8956 378.9185,-246.9093 373.1328,-238.0142"/>
<polygon fill="#cd950c" stroke="#cd950c" points="376.0887,-236.1362 367.9972,-229.2968 370.0575,-239.6894 376.0887,-236.1362"/>
</g>
<!-- miranda -->
<g id="node21" class="node">
<title>miranda</title>
<ellipse fill="none" stroke="#000000" cx="210.3117" cy="-212" rx="33.2948" ry="18"/>
<text text-anchor="middle" x="210.3117" y="-208.3" font-family="Times,serif" font-size="14.00" fill="#000000">miranda</text>
</g>
<!-- poms&#45;&gt;miranda -->
<g id="edge16" class="edge">
<title>poms&#45;&gt;miranda</title>
<path fill="none" stroke="#cd950c" d="M641.187,-274.893C635.8136,-272.4911 629.9792,-270.3088 624.3117,-269 584.029,-259.6974 289.6844,-278.6782 252.3117,-261 241.7197,-255.9897 232.7726,-246.8958 225.8941,-237.8908"/>
<polygon fill="#cd950c" stroke="#cd950c" points="228.5577,-235.5935 219.9469,-229.4206 222.8288,-239.616 228.5577,-235.5935"/>
</g>
<!-- pluto -->
<g id="node22" class="node">
<title>pluto</title>
<ellipse fill="none" stroke="#000000" cx="132.3117" cy="-212" rx="27" ry="18"/>
<text text-anchor="middle" x="132.3117" y="-208.3" font-family="Times,serif" font-size="14.00" fill="#000000">pluto</text>
</g>
<!-- poms&#45;&gt;pluto -->
<g id="edge17" class="edge">
<title>poms&#45;&gt;pluto</title>
<path fill="none" stroke="#cd950c" d="M641.1908,-274.8768C635.8172,-272.4755 629.9818,-270.2976 624.3117,-269 599.613,-263.3477 190.8166,-272.6407 168.3117,-261 158.6075,-255.9805 150.8657,-247.0104 145.0856,-238.1046"/>
<polygon fill="#cd950c" stroke="#cd950c" points="148.0392,-236.2223 139.9595,-229.3689 142.0019,-239.765 148.0392,-236.2223"/>
</g>
<!-- nep -->
<g id="node23" class="node">
<title>nep</title>
<ellipse fill="none" stroke="#000000" cx="432.3117" cy="-212" rx="27" ry="18"/>
<text text-anchor="middle" x="432.3117" y="-208.3" font-family="Times,serif" font-size="14.00" fill="#000000">nep</text>
</g>
<!-- poms&#45;&gt;nep -->
<g id="edge18" class="edge">
<title>poms&#45;&gt;nep</title>
<path fill="none" stroke="#cd950c" d="M641.1569,-275.0191C635.7847,-272.612 629.9584,-270.3958 624.3117,-269 591.26,-260.8302 501.5828,-276.5827 471.3117,-261 461.2023,-255.7959 452.8441,-246.6666 446.4935,-237.6875"/>
<polygon fill="#cd950c" stroke="#cd950c" points="449.4051,-235.7445 441.0282,-229.2576 443.5315,-239.5525 449.4051,-235.7445"/>
</g>
<!-- poms_backend -->
<g id="node2" class="node">
<title>poms_backend</title>
<g id="a_node2"><a xlink:href="https://api.poms.omroep.nl/" xlink:title="POMS backend API">
<ellipse fill="none" stroke="#000000" cx="549.3117" cy="-287" rx="66.0889" ry="18"/>
<text text-anchor="middle" x="549.3117" y="-283.3" font-family="Times,serif" font-size="14.00" fill="#0000ff">POMS backend API</text>
</a>
</g>
</g>
<!-- poms_backend&#45;&gt;jms -->
<g id="edge19" class="edge">
<title>poms_backend&#45;&gt;jms</title>
<path fill="none" stroke="#ff7f00" d="M567.9326,-269.4875C598.778,-240.4782 660.4041,-182.5203 694.0597,-150.8679"/>
<polygon fill="#ff7f00" stroke="#ff7f00" points="696.6978,-153.1916 701.5846,-143.791 691.9021,-148.0924 696.6978,-153.1916"/>
</g>
<!-- poms_backend&#45;&gt;ldap -->
<g id="edge20" class="edge">
<title>poms_backend&#45;&gt;ldap</title>
<path fill="none" stroke="#ff7f00" d="M483.0366,-284.9498C356.9649,-280.8292 93.5545,-271.073 76.3117,-261 12.3574,-223.6387 -27.3005,-157.078 23.3117,-103 45.9289,-78.8341 539.0191,-62.3164 679.9818,-58.0758"/>
<polygon fill="#ff7f00" stroke="#ff7f00" points="680.3761,-61.5657 690.2674,-57.7694 680.1676,-54.5688 680.3761,-61.5657"/>
</g>
<!-- poms_backend&#45;&gt;metis -->
<g id="edge21" class="edge">
<title>poms_backend&#45;&gt;metis</title>
<path fill="none" stroke="#ff7f00" d="M482.8813,-285.5617C360.2073,-282.5787 109.3593,-274.8179 96.3117,-261 73.4268,-236.7639 75.798,-212.2735 96.3117,-186 119.5957,-156.1785 228.8018,-139.6504 287.2192,-132.8059"/>
<polygon fill="#ff7f00" stroke="#ff7f00" points="287.9619,-136.2442 297.5038,-131.6395 287.1731,-129.2888 287.9619,-136.2442"/>
</g>
<!-- api -->
<g id="node3" class="node">
<title>api</title>
<g id="a_node3"><a xlink:href="https://rs.poms.omroep.nl/" xlink:title="NPO Frontend API">
<ellipse fill="none" stroke="#000000" cx="774.3117" cy="-287" rx="63.8893" ry="18"/>
<text text-anchor="middle" x="774.3117" y="-283.3" font-family="Times,serif" font-size="14.00" fill="#0000ff">NPO Frontend API</text>
</a>
</g>
</g>
<!-- elasticsearch -->
<g id="node9" class="node">
<title>elasticsearch</title>
<ellipse fill="none" stroke="#000000" cx="807.3117" cy="-129" rx="45.4919" ry="18"/>
<text text-anchor="middle" x="807.3117" y="-125.3" font-family="Times,serif" font-size="14.00" fill="#000000">elasticsearch</text>
</g>
<!-- api&#45;&gt;elasticsearch -->
<g id="edge22" class="edge">
<title>api&#45;&gt;elasticsearch</title>
<path fill="none" stroke="#6495ed" d="M743.6585,-271.2192C740.3192,-268.271 737.3852,-264.8743 735.3117,-261 719.5831,-231.6108 717.1479,-213.9497 735.3117,-186 740.0822,-178.6594 745.9772,-182.7798 753.3117,-178 764.2491,-170.8723 775.1374,-161.5357 784.2414,-152.9265"/>
<polygon fill="#6495ed" stroke="#6495ed" points="786.705,-155.4128 791.4309,-145.9303 781.8231,-150.396 786.705,-155.4128"/>
</g>
<!-- pages_publish -->
<g id="node4" class="node">
<title>pages_publish</title>
<g id="a_node4"><a xlink:href="https://publish.pages.omroep.nl/" xlink:title="Pages Publisher">
<ellipse fill="none" stroke="#000000" cx="910.3117" cy="-287" rx="53.8905" ry="18"/>
<text text-anchor="middle" x="910.3117" y="-283.3" font-family="Times,serif" font-size="14.00" fill="#0000ff">Pages Publisher</text>
</a>
</g>
</g>
<!-- media_publish -->
<g id="node5" class="node">
<title>media_publish</title>
<ellipse fill="none" stroke="#000000" cx="833.3117" cy="-212" rx="55.7903" ry="18"/>
<text text-anchor="middle" x="833.3117" y="-208.3" font-family="Times,serif" font-size="14.00" fill="#000000">Media Publisher</text>
</g>
<!-- pages_publish&#45;&gt;media_publish -->
<g id="edge27" class="edge">
<title>pages_publish&#45;&gt;media_publish</title>
<path fill="none" stroke="#c0c0c0" d="M892.4528,-269.605C880.0133,-257.4885 863.492,-241.3964 851.0738,-229.3007"/>
</g>
<!-- pages_publish&#45;&gt;elasticsearch -->
<g id="edge23" class="edge">
<title>pages_publish&#45;&gt;elasticsearch</title>
<path fill="none" stroke="#8fbc8f" d="M870.9138,-274.5861C863.1497,-272.4689 855.0199,-270.4793 847.3117,-269 829.9826,-265.6743 780.1436,-274.0906 768.3117,-261 741.4478,-231.2783 766.4979,-183.8712 786.9863,-154.6911"/>
<polygon fill="#8fbc8f" stroke="#8fbc8f" points="790.0705,-156.4019 793.1358,-146.2601 784.4151,-152.2768 790.0705,-156.4019"/>
</g>
<!-- pages_publish&#45;&gt;ldap -->
<g id="edge24" class="edge">
<title>pages_publish&#45;&gt;ldap</title>
<path fill="none" stroke="#8fbc8f" d="M872.0197,-274.2978C863.9458,-272.1186 855.4165,-270.179 847.3117,-269 836.948,-267.4924 100.6777,-268.4446 93.3117,-261 68.6165,-236.0413 69.4145,-128.7238 93.3117,-103 113.3797,-81.3982 548.362,-63.3465 679.939,-58.3644"/>
<polygon fill="#8fbc8f" stroke="#8fbc8f" points="680.4389,-61.8482 690.3005,-57.9755 680.1762,-54.8532 680.4389,-61.8482"/>
</g>
<!-- media_publish&#45;&gt;elasticsearch -->
<g id="edge25" class="edge">
<title>media_publish&#45;&gt;elasticsearch</title>
<path fill="none" stroke="#bf3eff" d="M827.6701,-193.9902C824.263,-183.1138 819.8505,-169.0276 816.0048,-156.7511"/>
<polygon fill="#bf3eff" stroke="#bf3eff" points="819.2717,-155.4711 812.9423,-146.9746 812.5917,-157.5636 819.2717,-155.4711"/>
</g>
<!-- media_publish&#45;&gt;jms -->
<g id="edge26" class="edge">
<title>media_publish&#45;&gt;jms</title>
<path fill="none" stroke="#bf3eff" d="M792.3481,-199.4585C779.0556,-194.1663 764.7901,-187.0847 753.3117,-178 745.288,-171.6495 738.1789,-163.0825 732.4424,-154.8882"/>
<polygon fill="#bf3eff" stroke="#bf3eff" points="735.1937,-152.7016 726.7779,-146.2653 729.3431,-156.5449 735.1937,-152.7016"/>
</g>
<!-- images_frontend -->
<g id="node6" class="node">
<title>images_frontend</title>
<g id="a_node6"><a xlink:href="https://images.poms.omroep.nl" xlink:title="Images">
<ellipse fill="none" stroke="#000000" cx="1142.3117" cy="-287" rx="30.5947" ry="18"/>
<text text-anchor="middle" x="1142.3117" y="-283.3" font-family="Times,serif" font-size="14.00" fill="#0000ff">Images</text>
</a>
</g>
</g>
<!-- images_frontend&#45;&gt;postgresql -->
<g id="edge28" class="edge">
<title>images_frontend&#45;&gt;postgresql</title>
<path fill="none" stroke="#000000" d="M1126.9591,-270.947C1103.9577,-247.984 1058.1218,-206.2967 1010.3117,-186 988.3835,-176.6909 978.5212,-188.8474 957.3117,-178 946.1594,-172.2962 936.068,-163.007 928.0485,-154.0418"/>
<polygon fill="#000000" stroke="#000000" points="930.6813,-151.7347 921.5598,-146.3449 925.3294,-156.2465 930.6813,-151.7347"/>
</g>
<!-- images_backend -->
<g id="node7" class="node">
<title>images_backend</title>
<g id="a_node7"><a xlink:href="https://images-backend.poms.omroep.nl" xlink:title="Images Backend">
<ellipse fill="none" stroke="#000000" cx="1038.3117" cy="-287" rx="55.7903" ry="18"/>
<text text-anchor="middle" x="1038.3117" y="-283.3" font-family="Times,serif" font-size="14.00" fill="#0000ff">Images Backend</text>
</a>
</g>
</g>
<!-- images_backend&#45;&gt;postgresql -->
<g id="edge29" class="edge">
<title>images_backend&#45;&gt;postgresql</title>
<path fill="none" stroke="#000000" d="M1028.8742,-269.0569C1016.9874,-247.5926 994.9834,-211.3823 969.3117,-186 964.7536,-181.4933 962.2477,-182.0893 957.3117,-178 948.1844,-170.4384 938.8987,-161.3497 930.9574,-153.0644"/>
<polygon fill="#000000" stroke="#000000" points="933.4829,-150.6409 924.0854,-145.7482 928.3806,-155.4334 933.4829,-150.6409"/>
</g>
<!-- images_backend&#45;&gt;jms -->
<g id="edge30" class="edge">
<title>images_backend&#45;&gt;jms</title>
<path fill="none" stroke="#000000" d="M994.9078,-275.5453C984.7218,-271.7961 974.2435,-267.0051 965.3117,-261 928.2188,-236.0612 938.5902,-205.3771 898.3117,-186 869.2307,-172.0097 781.6919,-193.3622 753.3117,-178 743.8428,-172.8744 736.2043,-164.0544 730.4409,-155.2977"/>
<polygon fill="#000000" stroke="#000000" points="733.4381,-153.4901 725.3041,-146.7012 727.4291,-157.0808 733.4381,-153.4901"/>
</g>
<!-- sso&#45;&gt;ldap -->
<g id="edge34" class="edge">
<title>sso&#45;&gt;ldap</title>
<path fill="none" stroke="#c0c0c0" d="M976.6657,-114.6633C970.8684,-110.3221 964.1071,-105.9327 957.3117,-103 889.4503,-73.7126 802.8024,-62.9835 754.3662,-59.1174"/>
<polygon fill="#c0c0c0" stroke="#c0c0c0" points="754.5758,-55.6234 744.3439,-58.3726 754.057,-62.6042 754.5758,-55.6234"/>
</g>
<!-- magnolia_frontend -->
<g id="node13" class="node">
<title>magnolia_frontend</title>
<ellipse fill="none" stroke="#000000" cx="791.3117" cy="-370" rx="62.2891" ry="18"/>
<text text-anchor="middle" x="791.3117" y="-366.3" font-family="Times,serif" font-size="14.00" fill="#000000">magnolia_frontend</text>
</g>
<!-- magnolia_frontend&#45;&gt;api -->
<g id="edge33" class="edge">
<title>magnolia_frontend&#45;&gt;api</title>
<path fill="none" stroke="#c0c0c0" d="M787.623,-351.9902C785.4175,-341.2225 782.5678,-327.309 780.0712,-315.1199"/>
<polygon fill="#c0c0c0" stroke="#c0c0c0" points="783.4287,-314.0689 777.9933,-304.9746 776.5711,-315.4736 783.4287,-314.0689"/>
</g>
<!-- magnolia_backend -->
<g id="node14" class="node">
<title>magnolia_backend</title>
<ellipse fill="none" stroke="#000000" cx="934.3117" cy="-370" rx="62.2891" ry="18"/>
<text text-anchor="middle" x="934.3117" y="-366.3" font-family="Times,serif" font-size="14.00" fill="#000000">magnolia_backend</text>
</g>
<!-- magnolia_backend&#45;&gt;poms_backend -->
<g id="edge31" class="edge">
<title>magnolia_backend&#45;&gt;poms_backend</title>
<path fill="none" stroke="#c0c0c0" d="M899.4094,-354.9154C887.8212,-350.5819 874.7097,-346.3862 862.3117,-344 810.5648,-334.0405 675.6046,-351.7342 625.3117,-336 608.0649,-330.6043 590.9622,-320.154 577.3611,-310.2856"/>
<polygon fill="#c0c0c0" stroke="#c0c0c0" points="579.4674,-307.4904 569.3749,-304.2667 575.2543,-313.0806 579.4674,-307.4904"/>
</g>
<!-- magnolia_backend&#45;&gt;pages_publish -->
<g id="edge32" class="edge">
<title>magnolia_backend&#45;&gt;pages_publish</title>
<path fill="none" stroke="#c0c0c0" d="M929.1041,-351.9902C925.9591,-341.1138 921.886,-327.0276 918.3361,-314.7511"/>
<polygon fill="#c0c0c0" stroke="#c0c0c0" points="921.6493,-313.6088 915.5092,-304.9746 914.9248,-315.5533 921.6493,-313.6088"/>
</g>
<!-- users -->
<g id="node15" class="node">
<title>users</title>
<ellipse fill="none" stroke="#000000" cx="884.3117" cy="-442" rx="27" ry="18"/>
<text text-anchor="middle" x="884.3117" y="-438.3" font-family="Times,serif" font-size="14.00" fill="#000000">users</text>
</g>
<!-- users&#45;&gt;api -->
<g id="edge4" class="edge">
<title>users&#45;&gt;api</title>
<path fill="none" stroke="#c0c0c0" d="M863.3673,-430.4575C858.5207,-428.0897 853.3152,-425.7801 848.3117,-424 779.2311,-399.4224 733.154,-445.2248 687.3117,-388 675.0853,-372.7378 677.4963,-360.9138 687.3117,-344 690.9088,-337.8017 695.2215,-339.7772 701.3117,-336 714.8022,-327.633 729.3795,-317.9773 741.9342,-309.4608"/>
<polygon fill="#c0c0c0" stroke="#c0c0c0" points="743.977,-312.3041 750.2645,-303.7766 740.0315,-306.5219 743.977,-312.3041"/>
</g>
<!-- users&#45;&gt;images_frontend -->
<g id="edge5" class="edge">
<title>users&#45;&gt;images_frontend</title>
<path fill="none" stroke="#c0c0c0" d="M863.293,-430.6576C858.4503,-428.2794 853.2651,-425.915 848.3117,-424 793.1915,-402.6902 755.9965,-435.1056 720.3117,-388 708.5032,-372.4122 706.629,-357.9715 720.3117,-344 735.2027,-328.7947 1084.2389,-345.4429 1103.3117,-336 1113.5015,-330.9551 1121.8744,-321.8548 1128.2143,-312.8545"/>
<polygon fill="#c0c0c0" stroke="#c0c0c0" points="1131.1924,-314.6943 1133.6628,-304.3915 1125.3067,-310.905 1131.1924,-314.6943"/>
</g>
<!-- users&#45;&gt;magnolia_frontend -->
<g id="edge6" class="edge">
<title>users&#45;&gt;magnolia_frontend</title>
<path fill="none" stroke="#c0c0c0" d="M866.3804,-428.1177C853.5542,-418.1877 835.9934,-404.5922 821.0812,-393.0474"/>
<polygon fill="#c0c0c0" stroke="#c0c0c0" points="823.166,-390.235 813.1161,-386.8808 818.8807,-395.7701 823.166,-390.235"/>
</g>
<!-- backendsystems -->
<g id="node16" class="node">
<title>backendsystems</title>
<ellipse fill="none" stroke="#000000" cx="784.3117" cy="-442" rx="55.4913" ry="18"/>
<text text-anchor="middle" x="784.3117" y="-438.3" font-family="Times,serif" font-size="14.00" fill="#000000">backendsystems</text>
</g>
<!-- backendsystems&#45;&gt;poms_backend -->
<g id="edge7" class="edge">
<title>backendsystems&#45;&gt;poms_backend</title>
<path fill="none" stroke="#c0c0c0" d="M750.0454,-427.567C727.7887,-417.6214 698.5227,-403.4494 674.3117,-388 638.1779,-364.9425 600.3947,-333.1844 575.9555,-311.4729"/>
<polygon fill="#c0c0c0" stroke="#c0c0c0" points="577.9834,-308.5903 568.2007,-304.522 573.3112,-313.8029 577.9834,-308.5903"/>
</g>
<!-- backendsystems&#45;&gt;pages_publish -->
<g id="edge8" class="edge">
<title>backendsystems&#45;&gt;pages_publish</title>
<path fill="none" stroke="#c0c0c0" d="M742.6992,-429.9679C722.187,-421.7019 699.3253,-408.4376 687.3117,-388 677.4019,-371.1413 673.8336,-358.1689 687.3117,-344 699.5799,-331.1031 830.6247,-342.1955 847.3117,-336 861.7366,-330.6444 875.5014,-320.7151 886.4645,-311.1878"/>
<polygon fill="#c0c0c0" stroke="#c0c0c0" points="888.8874,-313.7151 893.9215,-304.3926 884.1726,-308.541 888.8874,-313.7151"/>
</g>
<!-- editors -->
<g id="node17" class="node">
<title>editors</title>
<ellipse fill="none" stroke="#000000" cx="958.3117" cy="-442" rx="29.4969" ry="18"/>
<text text-anchor="middle" x="958.3117" y="-438.3" font-family="Times,serif" font-size="14.00" fill="#000000">editors</text>
</g>
<!-- editors&#45;&gt;poms -->
<g id="edge1" class="edge">
<title>editors&#45;&gt;poms</title>
<path fill="none" stroke="#c0c0c0" d="M935.8015,-430.1431C930.8011,-427.8489 925.4558,-425.6491 920.3117,-424 834.3059,-396.4278 793.9477,-440.297 720.3117,-388 695.2875,-370.2276 679.8543,-337.8076 671.4629,-314.4865"/>
<polygon fill="#c0c0c0" stroke="#c0c0c0" points="674.7095,-313.161 668.192,-304.8079 668.078,-315.4022 674.7095,-313.161"/>
</g>
<!-- editors&#45;&gt;sso -->
<g id="edge2" class="edge">
<title>editors&#45;&gt;sso</title>
<path fill="none" stroke="#c0c0c0" d="M987.3453,-438.3325C1037.9297,-430.2034 1141.0448,-405.5263 1185.3117,-336 1221.1166,-279.7643 1225.1838,-239.429 1185.3117,-186 1166.7218,-161.0893 1080.4544,-143.1723 1030.1043,-134.63"/>
<polygon fill="#c0c0c0" stroke="#c0c0c0" points="1030.3795,-131.1281 1019.9426,-132.9504 1029.2379,-138.0344 1030.3795,-131.1281"/>
</g>
<!-- editors&#45;&gt;magnolia_backend -->
<g id="edge3" class="edge">
<title>editors&#45;&gt;magnolia_backend</title>
<path fill="none" stroke="#c0c0c0" d="M952.3791,-424.2022C949.7166,-416.2146 946.5132,-406.6045 943.548,-397.7087"/>
<polygon fill="#c0c0c0" stroke="#c0c0c0" points="946.8255,-396.4731 940.3428,-388.0931 940.1847,-398.6868 946.8255,-396.4731"/>
</g>
<!-- pd&#45;&gt;metis -->
<g id="edge36" class="edge">
<title>pd&#45;&gt;metis</title>
<path fill="none" stroke="#c0c0c0" d="M295.9464,-194.3978C300.8477,-183.0977 307.3043,-168.2116 312.8192,-155.4967"/>
<polygon fill="#c0c0c0" stroke="#c0c0c0" points="316.0432,-156.8591 316.8115,-146.2922 309.6213,-154.0737 316.0432,-156.8591"/>
</g>
<!-- prepr&#45;&gt;metis -->
<g id="edge35" class="edge">
<title>prepr&#45;&gt;metis</title>
<path fill="none" stroke="#c0c0c0" d="M352.6771,-194.3978C347.7758,-183.0977 341.3192,-168.2116 335.8043,-155.4967"/>
<polygon fill="#c0c0c0" stroke="#c0c0c0" points="339.0022,-154.0737 331.812,-146.2922 332.5802,-156.8591 339.0022,-154.0737"/>
</g>
</g>
</svg>
