<?xml version="1.0" encoding="UTF-8" standalone="no"?>
<!DOCTYPE svg PUBLIC "-//W3C//DTD SVG 1.1//EN"
 "http://www.w3.org/Graphics/SVG/1.1/DTD/svg11.dtd">
<!-- Generated by graphviz version 2.40.1 (20161225.0304)
 -->
<!-- Title: %3 Pages: 1 -->
<svg width="659pt" height="432pt"
 viewBox="0.00 0.00 659.00 432.00" xmlns="http://www.w3.org/2000/svg" xmlns:xlink="http://www.w3.org/1999/xlink">
<g id="graph0" class="graph" transform="scale(1 1) rotate(0) translate(4 428)">
<title>%3</title>
<polygon fill="#ffffff" stroke="transparent" points="-4,4 -4,-428 655,-428 655,4 -4,4"/>
<text text-anchor="middle" x="325.5" y="-7.8" font-family="Times,serif" font-size="14.00" fill="#000000">Deployments relevant for POMS</text>
<g id="clust1" class="cluster">
<title>cluster_0</title>
<polygon fill="none" stroke="#000000" points="297,-31 297,-178 643,-178 643,-31 297,-31"/>
<text text-anchor="middle" x="470" y="-162.8" font-family="Times,serif" font-size="14.00" fill="#000000">Generic backend services</text>
</g>
<g id="clust2" class="cluster">
<title>cluster_1</title>
<polygon fill="none" stroke="#000000" points="8,-269 8,-416 291,-416 291,-269 8,-269"/>
<text text-anchor="middle" x="149.5" y="-400.8" font-family="Times,serif" font-size="14.00" fill="#000000">World</text>
</g>
<g id="clust3" class="cluster">
<title>cluster_3</title>
<polygon fill="none" stroke="#000000" points="85,-186 85,-261 487,-261 487,-186 85,-186"/>
<text text-anchor="middle" x="286" y="-245.8" font-family="Times,serif" font-size="14.00" fill="#000000">POMS Public Services</text>
</g>
<!-- postgresql -->
<g id="node1" class="node">
<title>postgresql</title>
<ellipse fill="none" stroke="#000000" cx="452" cy="-129" rx="38.9931" ry="18"/>
<text text-anchor="middle" x="452" y="-125.3" font-family="Times,serif" font-size="14.00" fill="#000000">postgresql</text>
</g>
<!-- elasticsearch -->
<g id="node2" class="node">
<title>elasticsearch</title>
<ellipse fill="none" stroke="#000000" cx="350" cy="-129" rx="45.4919" ry="18"/>
<text text-anchor="middle" x="350" y="-125.3" font-family="Times,serif" font-size="14.00" fill="#000000">elasticsearch</text>
</g>
<!-- sso -->
<g id="node3" class="node">
<title>sso</title>
<ellipse fill="none" stroke="#000000" cx="608" cy="-129" rx="27" ry="18"/>
<text text-anchor="middle" x="608" y="-125.3" font-family="Times,serif" font-size="14.00" fill="#000000">sso</text>
</g>
<!-- ldap -->
<g id="node5" class="node">
<title>ldap</title>
<ellipse fill="none" stroke="#000000" cx="332" cy="-57" rx="27" ry="18"/>
<text text-anchor="middle" x="332" y="-53.3" font-family="Times,serif" font-size="14.00" fill="#000000">ldap</text>
</g>
<!-- sso&#45;&gt;ldap -->
<g id="edge22" class="edge">
<title>sso&#45;&gt;ldap</title>
<path fill="none" stroke="#000000" d="M587.0538,-117.4625C582.2073,-115.0944 577.0022,-112.7835 572,-111 502.063,-86.0653 416.4305,-70.0932 368.6745,-62.4101"/>
<polygon fill="#000000" stroke="#000000" points="368.9352,-58.9081 358.5123,-60.8088 367.8456,-65.8227 368.9352,-58.9081"/>
</g>
<!-- jms -->
<g id="node4" class="node">
<title>jms</title>
<ellipse fill="none" stroke="#000000" cx="536" cy="-129" rx="27" ry="18"/>
<text text-anchor="middle" x="536" y="-125.3" font-family="Times,serif" font-size="14.00" fill="#000000">jms</text>
</g>
<!-- magnolia_frontend -->
<g id="node6" class="node">
<title>magnolia_frontend</title>
<ellipse fill="none" stroke="#000000" cx="78" cy="-295" rx="62.2891" ry="18"/>
<text text-anchor="middle" x="78" y="-291.3" font-family="Times,serif" font-size="14.00" fill="#000000">magnolia_frontend</text>
</g>
<!-- api -->
<g id="node14" class="node">
<title>api</title>
<ellipse fill="none" stroke="#000000" cx="120" cy="-212" rx="27" ry="18"/>
<text text-anchor="middle" x="120" y="-208.3" font-family="Times,serif" font-size="14.00" fill="#000000">api</text>
</g>
<!-- magnolia_frontend&#45;&gt;api -->
<g id="edge21" class="edge">
<title>magnolia_frontend&#45;&gt;api</title>
<path fill="none" stroke="#000000" d="M87.1134,-276.9902C92.8426,-265.6683 100.3317,-250.8683 106.7159,-238.252"/>
<polygon fill="#000000" stroke="#000000" points="109.9428,-239.6267 111.335,-229.1237 103.6969,-236.4661 109.9428,-239.6267"/>
</g>
<!-- magnolia_backend -->
<g id="node7" class="node">
<title>magnolia_backend</title>
<ellipse fill="none" stroke="#000000" cx="221" cy="-295" rx="62.2891" ry="18"/>
<text text-anchor="middle" x="221" y="-291.3" font-family="Times,serif" font-size="14.00" fill="#000000">magnolia_backend</text>
</g>
<!-- poms_backend -->
<g id="node12" class="node">
<title>poms_backend</title>
<ellipse fill="none" stroke="#000000" cx="334" cy="-212" rx="51.1914" ry="18"/>
<text text-anchor="middle" x="334" y="-208.3" font-family="Times,serif" font-size="14.00" fill="#000000">poms_backend</text>
</g>
<!-- magnolia_backend&#45;&gt;poms_backend -->
<g id="edge19" class="edge">
<title>magnolia_backend&#45;&gt;poms_backend</title>
<path fill="none" stroke="#000000" d="M247.8176,-278.635C256.3269,-273.2211 265.6822,-267.0342 274,-261 285.0809,-252.9614 296.8357,-243.5686 306.9767,-235.1693"/>
<polygon fill="#000000" stroke="#000000" points="309.296,-237.7924 314.7199,-228.6912 304.8043,-232.4235 309.296,-237.7924"/>
</g>
<!-- pages_publish -->
<g id="node13" class="node">
<title>pages_publish</title>
<ellipse fill="none" stroke="#000000" cx="215" cy="-212" rx="50.0912" ry="18"/>
<text text-anchor="middle" x="215" y="-208.3" font-family="Times,serif" font-size="14.00" fill="#000000">pages_publish</text>
</g>
<!-- magnolia_backend&#45;&gt;pages_publish -->
<g id="edge20" class="edge">
<title>magnolia_backend&#45;&gt;pages_publish</title>
<path fill="none" stroke="#000000" d="M219.6981,-276.9902C218.925,-266.2963 217.9277,-252.4994 217.0509,-240.3706"/>
<polygon fill="#000000" stroke="#000000" points="220.5321,-239.9828 216.3201,-230.2612 213.5503,-240.4876 220.5321,-239.9828"/>
</g>
<!-- users -->
<g id="node8" class="node">
<title>users</title>
<ellipse fill="none" stroke="#000000" cx="52" cy="-367" rx="27" ry="18"/>
<text text-anchor="middle" x="52" y="-363.3" font-family="Times,serif" font-size="14.00" fill="#000000">users</text>
</g>
<!-- users&#45;&gt;magnolia_frontend -->
<g id="edge4" class="edge">
<title>users&#45;&gt;magnolia_frontend</title>
<path fill="none" stroke="#000000" d="M58.427,-349.2022C61.3114,-341.2146 64.7817,-331.6045 67.9941,-322.7087"/>
<polygon fill="#000000" stroke="#000000" points="71.3618,-323.6874 71.4664,-313.0931 64.7779,-321.3099 71.3618,-323.6874"/>
</g>
<!-- users&#45;&gt;api -->
<g id="edge5" class="edge">
<title>users&#45;&gt;api</title>
<path fill="none" stroke="#000000" d="M72.8866,-355.2887C77.7362,-352.9297 82.9575,-350.6663 88,-349 175.4181,-320.112 232.825,-383.532 292,-313 304.569,-298.0187 305.4157,-283.2281 292,-269 281.6154,-257.9866 169.299,-268.2301 156,-261 146.5404,-255.8572 138.9038,-247.0337 133.1393,-238.279"/>
<polygon fill="#000000" stroke="#000000" points="136.1369,-236.4722 128.0006,-229.6861 130.1292,-240.0649 136.1369,-236.4722"/>
</g>
<!-- backendsystems -->
<g id="node9" class="node">
<title>backendsystems</title>
<ellipse fill="none" stroke="#000000" cx="152" cy="-367" rx="55.4913" ry="18"/>
<text text-anchor="middle" x="152" y="-363.3" font-family="Times,serif" font-size="14.00" fill="#000000">backendsystems</text>
</g>
<!-- backendsystems&#45;&gt;poms_backend -->
<g id="edge6" class="edge">
<title>backendsystems&#45;&gt;poms_backend</title>
<path fill="none" stroke="#000000" d="M193.8759,-355.2022C250.052,-339.3697 342.855,-313.1916 343,-313 358.7492,-292.1808 353.233,-261.5917 345.8031,-239.5369"/>
<polygon fill="#000000" stroke="#000000" points="349.0588,-238.2489 342.3243,-230.0698 342.4883,-240.6634 349.0588,-238.2489"/>
</g>
<!-- backendsystems&#45;&gt;pages_publish -->
<g id="edge7" class="edge">
<title>backendsystems&#45;&gt;pages_publish</title>
<path fill="none" stroke="#000000" d="M193.926,-355.2572C243.8282,-341.0838 320.9805,-318.4655 325,-313 336.5861,-297.2462 337.7114,-283.8607 325,-269 310.0862,-251.5644 294.909,-270.4463 274,-261 260.9786,-255.1172 248.5066,-245.5561 238.4115,-236.4343"/>
<polygon fill="#000000" stroke="#000000" points="240.5301,-233.6206 230.8599,-229.2917 235.7199,-238.7061 240.5301,-233.6206"/>
</g>
<!-- editors -->
<g id="node10" class="node">
<title>editors</title>
<ellipse fill="none" stroke="#000000" cx="254" cy="-367" rx="29.4969" ry="18"/>
<text text-anchor="middle" x="254" y="-363.3" font-family="Times,serif" font-size="14.00" fill="#000000">editors</text>
</g>
<!-- editors&#45;&gt;sso -->
<g id="edge1" class="edge">
<title>editors&#45;&gt;sso</title>
<path fill="none" stroke="#000000" d="M282.6433,-362.7905C359.4951,-350.8552 567.1286,-314.181 607,-261 629.4058,-231.1148 623.6873,-185.7789 616.5738,-156.7794"/>
<polygon fill="#000000" stroke="#000000" points="619.8963,-155.655 613.9394,-146.8934 613.1324,-157.4574 619.8963,-155.655"/>
</g>
<!-- editors&#45;&gt;magnolia_backend -->
<g id="edge2" class="edge">
<title>editors&#45;&gt;magnolia_backend</title>
<path fill="none" stroke="#000000" d="M246.0116,-349.5708C242.2458,-341.3544 237.6654,-331.3608 233.4585,-322.1821"/>
<polygon fill="#000000" stroke="#000000" points="236.6078,-320.6529 229.2594,-313.0206 230.2443,-323.5696 236.6078,-320.6529"/>
</g>
<!-- poms_gui -->
<g id="node11" class="node">
<title>poms_gui</title>
<ellipse fill="none" stroke="#000000" cx="441" cy="-212" rx="37.8943" ry="18"/>
<text text-anchor="middle" x="441" y="-208.3" font-family="Times,serif" font-size="14.00" fill="#000000">poms_gui</text>
</g>
<!-- editors&#45;&gt;poms_gui -->
<g id="edge3" class="edge">
<title>editors&#45;&gt;poms_gui</title>
<path fill="none" stroke="#000000" d="M279.4204,-358.0197C302.5582,-349.0236 336.8437,-333.5657 362,-313 388.0546,-291.6999 410.8858,-260.3363 425.2152,-238.2221"/>
<polygon fill="#000000" stroke="#000000" points="428.2451,-239.9794 430.64,-229.6588 422.3318,-236.2333 428.2451,-239.9794"/>
</g>
<!-- poms_gui&#45;&gt;postgresql -->
<g id="edge8" class="edge">
<title>poms_gui&#45;&gt;postgresql</title>
<path fill="none" stroke="#000000" d="M443.3868,-193.9902C444.8139,-183.2225 446.6578,-169.309 448.2733,-157.1199"/>
<polygon fill="#000000" stroke="#000000" points="451.7736,-157.3478 449.6178,-146.9746 444.8343,-156.4281 451.7736,-157.3478"/>
</g>
<!-- poms_gui&#45;&gt;sso -->
<g id="edge9" class="edge">
<title>poms_gui&#45;&gt;sso</title>
<path fill="none" stroke="#000000" d="M463.0646,-197.0446C470.3853,-192.7739 478.7727,-188.5824 487,-186 523.2032,-174.6364 538.9864,-196.7057 572,-178 581.2704,-172.7474 588.827,-164.0192 594.5801,-155.3727"/>
<polygon fill="#000000" stroke="#000000" points="597.7409,-156.9095 599.9188,-146.5409 591.7503,-153.2883 597.7409,-156.9095"/>
</g>
<!-- poms_gui&#45;&gt;jms -->
<g id="edge10" class="edge">
<title>poms_gui&#45;&gt;jms</title>
<path fill="none" stroke="#000000" d="M465.4141,-198.2334C480.9576,-189.4187 498.4583,-179.3796 500,-178 507.6254,-171.1762 514.6377,-162.4944 520.408,-154.3401"/>
<polygon fill="#000000" stroke="#000000" points="523.4686,-156.0612 526.152,-145.8117 517.6627,-152.1507 523.4686,-156.0612"/>
</g>
<!-- poms_gui&#45;&gt;ldap -->
<g id="edge11" class="edge">
<title>poms_gui&#45;&gt;ldap</title>
<path fill="none" stroke="#000000" d="M418.9135,-197.2603C411.3213,-192.8922 402.5696,-188.5888 394,-186 373.0833,-179.6813 310.8086,-194.0667 296,-178 271.204,-151.0973 294.0539,-107.8294 312.955,-80.9786"/>
<polygon fill="#000000" stroke="#000000" points="315.8019,-83.0149 318.8875,-72.8793 310.1548,-78.8785 315.8019,-83.0149"/>
</g>
<!-- poms_backend&#45;&gt;jms -->
<g id="edge12" class="edge">
<title>poms_backend&#45;&gt;jms</title>
<path fill="none" stroke="#000000" d="M363.2257,-197.0159C372.7983,-192.7437 383.6398,-188.5586 394,-186 416.9335,-180.3363 479.3404,-189.4545 500,-178 509.4167,-172.779 517.0445,-163.9396 522.8141,-155.1941"/>
<polygon fill="#000000" stroke="#000000" points="525.8165,-156.9928 527.9617,-146.6174 519.8146,-153.3905 525.8165,-156.9928"/>
</g>
<!-- poms_backend&#45;&gt;ldap -->
<g id="edge13" class="edge">
<title>poms_backend&#45;&gt;ldap</title>
<path fill="none" stroke="#000000" d="M301.0524,-198.1297C283.6393,-190.4673 265.3673,-181.7583 263,-178 247.1296,-152.8038 249.9573,-137.7694 263,-111 271.0004,-94.5796 286.6765,-81.6826 301.0673,-72.6165"/>
<polygon fill="#000000" stroke="#000000" points="302.9513,-75.5686 309.7815,-67.4693 299.3913,-69.5415 302.9513,-75.5686"/>
</g>
<!-- pages_publish&#45;&gt;elasticsearch -->
<g id="edge15" class="edge">
<title>pages_publish&#45;&gt;elasticsearch</title>
<path fill="none" stroke="#000000" d="M240.3925,-196.3883C261.9296,-183.147 292.9893,-164.051 316.5502,-149.5654"/>
<polygon fill="#000000" stroke="#000000" points="318.4919,-152.4803 325.1775,-144.2612 314.8256,-146.5172 318.4919,-152.4803"/>
</g>
<!-- pages_publish&#45;&gt;ldap -->
<g id="edge16" class="edge">
<title>pages_publish&#45;&gt;ldap</title>
<path fill="none" stroke="#000000" d="M217.1807,-193.8664C220.5689,-172.2145 228.8316,-135.8195 248,-111 261.4118,-93.6342 282.0934,-80.2407 299.5786,-71.1363"/>
<polygon fill="#000000" stroke="#000000" points="301.4891,-74.0959 308.8972,-66.5216 298.3826,-67.8229 301.4891,-74.0959"/>
</g>
<!-- api&#45;&gt;elasticsearch -->
<g id="edge14" class="edge">
<title>api&#45;&gt;elasticsearch</title>
<path fill="none" stroke="#000000" d="M137.1851,-197.7731C142.9099,-193.5414 149.4923,-189.1889 156,-186 202.0606,-163.4296 258.7422,-148.0548 298.915,-139.0145"/>
<polygon fill="#000000" stroke="#000000" points="299.7404,-142.4168 308.7562,-136.8521 298.238,-135.5799 299.7404,-142.4168"/>
</g>
<!-- media_publish -->
<g id="node15" class="node">
<title>media_publish</title>
<ellipse fill="none" stroke="#000000" cx="547" cy="-212" rx="50.8918" ry="18"/>
<text text-anchor="middle" x="547" y="-208.3" font-family="Times,serif" font-size="14.00" fill="#000000">media_publish</text>
</g>
<!-- media_publish&#45;&gt;elasticsearch -->
<g id="edge17" class="edge">
<title>media_publish&#45;&gt;elasticsearch</title>
<path fill="none" stroke="#000000" d="M519.2223,-196.8189C510.4324,-192.645 500.5219,-188.5655 491,-186 453.5072,-175.8982 439.5448,-193.6307 404,-178 391.6874,-172.5856 380.2933,-163.2249 371.1762,-154.1264"/>
<polygon fill="#000000" stroke="#000000" points="373.501,-151.4912 364.0833,-146.6377 368.4188,-156.3048 373.501,-151.4912"/>
</g>
<!-- media_publish&#45;&gt;jms -->
<g id="edge18" class="edge">
<title>media_publish&#45;&gt;jms</title>
<path fill="none" stroke="#000000" d="M544.6132,-193.9902C543.1861,-183.2225 541.3422,-169.309 539.7267,-157.1199"/>
<polygon fill="#000000" stroke="#000000" points="543.1657,-156.4281 538.3822,-146.9746 536.2264,-157.3478 543.1657,-156.4281"/>
</g>
</g>
</svg>
