<?xml version="1.0" encoding="UTF-8" standalone="no"?>
<!DOCTYPE svg PUBLIC "-//W3C//DTD SVG 1.1//EN"
 "http://www.w3.org/Graphics/SVG/1.1/DTD/svg11.dtd">
<!-- Generated by graphviz version 2.40.1 (20161225.0304)
 -->
<!-- Title: %3 Pages: 1 -->
<svg width="2061pt" height="753pt"
 viewBox="0.00 0.00 2061.00 753.00" xmlns="http://www.w3.org/2000/svg" xmlns:xlink="http://www.w3.org/1999/xlink">
<g id="graph0" class="graph" transform="scale(1 1) rotate(0) translate(4 749)">
<title>%3</title>
<polygon fill="#ffffff" stroke="transparent" points="-4,4 -4,-749 2057,-749 2057,4 -4,4"/>
<text text-anchor="middle" x="1026.5" y="-7.8" font-family="Times,serif" font-size="14.00" fill="#000000"> &#160;Dependencies of the different code projects relevant to POMS</text>
<g id="clust1" class="cluster">
<title>cluster_0</title>
<polygon fill="none" stroke="#000000" points="1267,-47 1267,-359 1905,-359 1905,-47 1267,-47"/>
<text text-anchor="middle" x="1586" y="-69.8" font-family="Times,serif" font-size="14.00" fill="#000000">Generic utilities</text>
<text text-anchor="middle" x="1586" y="-54.8" font-family="Times,serif" font-size="14.00" fill="#000000">(incoming edges are just examples, there are more)</text>
</g>
<g id="clust2" class="cluster">
<title>cluster_1</title>
<polygon fill="none" stroke="#000000" points="8,-568 8,-643 364,-643 364,-568 8,-568"/>
<text text-anchor="middle" x="186" y="-627.8" font-family="Times,serif" font-size="14.00" fill="#000000">VPRO</text>
</g>
<g id="clust3" class="cluster">
<title>cluster_2</title>
<polygon fill="#f0ffff" stroke="#000000" points="374,-474 374,-737 1189,-737 1189,-474 374,-474"/>
<text text-anchor="middle" x="781.5" y="-721.8" font-family="Times,serif" font-size="14.00" fill="#000000">POMS Services</text>
</g>
<g id="clust4" class="cluster">
<title>cluster_3</title>
<polygon fill="#f0ffff" stroke="#000000" points="1197,-380 1197,-455 1539,-455 1539,-380 1197,-380"/>
<text text-anchor="middle" x="1368" y="-439.8" font-family="Times,serif" font-size="14.00" fill="#000000">Backend utilities</text>
</g>
<g id="clust5" class="cluster">
<title>cluster_4</title>
<polygon fill="#f0ffff" stroke="#000000" points="16,-307 16,-549 148,-549 148,-307 16,-307"/>
<text text-anchor="middle" x="82" y="-533.8" font-family="Times,serif" font-size="14.00" fill="#000000">Sharable utilities</text>
</g>
<!-- vpro_shared -->
<g id="node1" class="node">
<title>vpro_shared</title>
<g id="a_node1"><a xlink:href="https://github.com/vpro/vpro-shared" xlink:title="vpro_shared">
<ellipse fill="none" stroke="#000000" cx="1455" cy="-333" rx="55.7903" ry="18"/>
<text text-anchor="middle" x="1455" y="-329.3" font-family="Times,serif" font-size="14.00" fill="#0000ff">vpro_shared</text>
</a>
</g>
</g>
<!-- i18n_regions -->
<g id="node3" class="node">
<title>i18n_regions</title>
<g id="a_node3"><a xlink:href="https://github.com/mihxil/i18n-regions" xlink:title="i18n_regions">
<ellipse fill="none" stroke="#000000" cx="1339" cy="-222" rx="58.4896" ry="18"/>
<text text-anchor="middle" x="1339" y="-218.3" font-family="Times,serif" font-size="14.00" fill="#0000ff">i18n_regions</text>
</a>
</g>
</g>
<!-- vpro_shared&#45;&gt;i18n_regions -->
<g id="edge1" class="edge">
<title>vpro_shared&#45;&gt;i18n_regions</title>
<path fill="none" stroke="#c0c0c0" d="M1437.1292,-315.8995C1417.6866,-297.2949 1386.4437,-267.3987 1364.4438,-246.3471"/>
<polygon fill="#c0c0c0" stroke="#c0c0c0" points="1366.7271,-243.6877 1357.0822,-239.3028 1361.8875,-248.7453 1366.7271,-243.6877"/>
</g>
<!-- guava -->
<g id="node9" class="node">
<title>guava</title>
<g id="a_node9"><a xlink:href="https://github.com/google/guava" xlink:title="guava">
<ellipse fill="none" stroke="#000000" stroke-dasharray="5,2" cx="1455" cy="-222" rx="32.4942" ry="18"/>
<text text-anchor="middle" x="1455" y="-218.3" font-family="Times,serif" font-size="14.00" fill="#0000ff">guava</text>
</a>
</g>
</g>
<!-- vpro_shared&#45;&gt;guava -->
<g id="edge2" class="edge">
<title>vpro_shared&#45;&gt;guava</title>
<path fill="none" stroke="#c0c0c0" d="M1455,-314.6706C1455,-297.2373 1455,-270.7482 1455,-250.5489"/>
<polygon fill="#c0c0c0" stroke="#c0c0c0" points="1458.5001,-250.3566 1455,-240.3566 1451.5001,-250.3567 1458.5001,-250.3566"/>
</g>
<!-- slf4j -->
<g id="node21" class="node">
<title>slf4j</title>
<ellipse fill="none" stroke="#000000" stroke-dasharray="5,2" cx="1701" cy="-222" rx="27" ry="18"/>
<text text-anchor="middle" x="1701" y="-218.3" font-family="Times,serif" font-size="14.00" fill="#000000">slf4j</text>
</g>
<!-- vpro_shared&#45;&gt;slf4j -->
<g id="edge3" class="edge">
<title>vpro_shared&#45;&gt;slf4j</title>
<path fill="none" stroke="#c0c0c0" d="M1487.6669,-318.2601C1535.0098,-296.898 1622.1454,-257.5807 1669.0709,-236.407"/>
<polygon fill="#c0c0c0" stroke="#c0c0c0" points="1670.7697,-239.4804 1678.4452,-232.1772 1667.8906,-233.0998 1670.7697,-239.4804"/>
</g>
<!-- poms_shared -->
<g id="node2" class="node">
<title>poms_shared</title>
<g id="a_node2"><a xlink:href="https://github.com/npo-poms/poms-shared" xlink:title="poms_shared">
<ellipse fill="none" stroke="#000000" cx="82" cy="-333" rx="58.4896" ry="18"/>
<text text-anchor="middle" x="82" y="-329.3" font-family="Times,serif" font-size="14.00" fill="#0000ff">poms_shared</text>
</a>
</g>
</g>
<!-- poms_shared&#45;&gt;vpro_shared -->
<g id="edge4" class="edge">
<title>poms_shared&#45;&gt;vpro_shared</title>
<path fill="none" stroke="#c0c0c0" d="M140.1838,-335.4171C312.773,-342.4505 836.9595,-362.8297 1272,-369.5 1320.4388,-370.2427 1333.8215,-380.5024 1381,-369.5 1394.6738,-366.3111 1408.7248,-360.2135 1420.8596,-353.902"/>
<polygon fill="#c0c0c0" stroke="#c0c0c0" points="1422.6154,-356.9313 1429.7277,-349.0785 1419.2707,-350.782 1422.6154,-356.9313"/>
</g>
<!-- poms_shared&#45;&gt;i18n_regions -->
<g id="edge5" class="edge">
<title>poms_shared&#45;&gt;i18n_regions</title>
<path fill="none" stroke="#c0c0c0" d="M138.4526,-328.0149C343.9526,-309.8681 1051.607,-247.3784 1272.5535,-227.8676"/>
<polygon fill="#c0c0c0" stroke="#c0c0c0" points="1273.0496,-231.3375 1282.7029,-226.9713 1272.4338,-224.3646 1273.0496,-231.3375"/>
</g>
<!-- nv_i18n -->
<g id="node4" class="node">
<title>nv_i18n</title>
<g id="a_node4"><a xlink:href="https://github.com/TakahikoKawasaki/nv-i18n" xlink:title="nv_i18n">
<ellipse fill="none" stroke="#000000" cx="1339" cy="-111" rx="40.0939" ry="18"/>
<text text-anchor="middle" x="1339" y="-107.3" font-family="Times,serif" font-size="14.00" fill="#0000ff">nv_i18n</text>
</a>
</g>
</g>
<!-- i18n_regions&#45;&gt;nv_i18n -->
<g id="edge9" class="edge">
<title>i18n_regions&#45;&gt;nv_i18n</title>
<path fill="none" stroke="#c0c0c0" d="M1339,-203.6706C1339,-186.2373 1339,-159.7482 1339,-139.5489"/>
<polygon fill="#c0c0c0" stroke="#c0c0c0" points="1342.5001,-139.3566 1339,-129.3566 1335.5001,-139.3567 1342.5001,-139.3566"/>
</g>
<!-- amara_importer -->
<g id="node5" class="node">
<title>amara_importer</title>
<g id="a_node5"><a xlink:href="https://github.com/vpro/amara-poms" xlink:title="amara_importer">
<ellipse fill="none" stroke="#000000" cx="193" cy="-594" rx="68.7879" ry="18"/>
<text text-anchor="middle" x="193" y="-590.3" font-family="Times,serif" font-size="14.00" fill="#0000ff">amara_importer</text>
</a>
</g>
</g>
<!-- amara_importer&#45;&gt;vpro_shared -->
<g id="edge42" class="edge">
<title>amara_importer&#45;&gt;vpro_shared</title>
<path fill="none" stroke="#c0c0c0" d="M206.3824,-576.1037C210.3464,-570.4514 214.5465,-564.0893 218,-558 238.2144,-522.3575 232.7809,-507.7622 256,-474 289.3019,-425.5768 295.6003,-404.5418 349,-380 356.844,-376.395 495.3745,-369.3544 504,-369 553.1839,-366.979 1341.7161,-368.5815 1390,-359 1398.1365,-357.3854 1406.5545,-354.7837 1414.5257,-351.836"/>
<polygon fill="#c0c0c0" stroke="#c0c0c0" points="1415.9571,-355.034 1423.9782,-348.112 1413.3912,-348.5212 1415.9571,-355.034"/>
</g>
<!-- amara_java -->
<g id="node6" class="node">
<title>amara_java</title>
<g id="a_node6"><a xlink:href="https://github.com/vpro/amara-java" xlink:title="amara_java">
<ellipse fill="none" stroke="#000000" cx="1328" cy="-333" rx="52.7911" ry="18"/>
<text text-anchor="middle" x="1328" y="-329.3" font-family="Times,serif" font-size="14.00" fill="#0000ff">amara_java</text>
</a>
</g>
</g>
<!-- amara_importer&#45;&gt;amara_java -->
<g id="edge43" class="edge">
<title>amara_importer&#45;&gt;amara_java</title>
<path fill="none" stroke="#c0c0c0" d="M189.4092,-575.9237C182.284,-534.1611 171.5578,-430.6817 228,-380 266.7602,-345.1956 1037.3506,-335.584 1265.1216,-333.4983"/>
<polygon fill="#c0c0c0" stroke="#c0c0c0" points="1265.2663,-336.9972 1275.2344,-333.4074 1265.2033,-329.9975 1265.2663,-336.9972"/>
</g>
<!-- api_client -->
<g id="node11" class="node">
<title>api_client</title>
<g id="a_node11"><a xlink:href="https://github.com/npo-poms/api-clients" xlink:title="api_client">
<ellipse fill="none" stroke="#000000" cx="91" cy="-500" rx="46.5926" ry="18"/>
<text text-anchor="middle" x="91" y="-496.3" font-family="Times,serif" font-size="14.00" fill="#0000ff">api_client</text>
</a>
</g>
</g>
<!-- amara_importer&#45;&gt;api_client -->
<g id="edge44" class="edge">
<title>amara_importer&#45;&gt;api_client</title>
<path fill="none" stroke="#c0c0c0" d="M152.7352,-579.3617C141.5119,-573.9045 129.9546,-566.8328 121,-558 112.3489,-549.4666 105.683,-537.9111 100.8564,-527.3602"/>
<polygon fill="#c0c0c0" stroke="#c0c0c0" points="104.0484,-525.9219 96.9368,-518.0685 97.5988,-528.6426 104.0484,-525.9219"/>
</g>
<!-- resteasy -->
<g id="node7" class="node">
<title>resteasy</title>
<g id="a_node7"><a xlink:href="https://github.com/resteasy/Resteasy" xlink:title="resteasy">
<ellipse fill="none" stroke="#000000" cx="1663" cy="-333" rx="40.0939" ry="18"/>
<text text-anchor="middle" x="1663" y="-329.3" font-family="Times,serif" font-size="14.00" fill="#0000ff">resteasy</text>
</a>
</g>
</g>
<!-- spring -->
<g id="node8" class="node">
<title>spring</title>
<g id="a_node8"><a xlink:href="https://github.com/spring-projects/spring-framework" xlink:title="spring">
<ellipse fill="none" stroke="#000000" stroke-dasharray="5,2" cx="1755" cy="-333" rx="33.5952" ry="18"/>
<text text-anchor="middle" x="1755" y="-329.3" font-family="Times,serif" font-size="14.00" fill="#0000ff">spring</text>
</a>
</g>
</g>
<!-- hibernate -->
<g id="node10" class="node">
<title>hibernate</title>
<g id="a_node10"><a xlink:href="https://github.com/hibernate/" xlink:title="hibernate">
<ellipse fill="none" stroke="#000000" cx="1852" cy="-333" rx="44.6926" ry="18"/>
<text text-anchor="middle" x="1852" y="-329.3" font-family="Times,serif" font-size="14.00" fill="#0000ff">hibernate</text>
</a>
</g>
</g>
<!-- api_client&#45;&gt;vpro_shared -->
<g id="edge21" class="edge">
<title>api_client&#45;&gt;vpro_shared</title>
<path fill="none" stroke="#c0c0c0" d="M104.2535,-482.4856C126.3708,-454.8229 173.7652,-401.9134 228,-380 233.8275,-377.6454 447.7176,-369.1864 454,-369 505.9801,-367.4579 1338.9886,-369.1068 1390,-359 1398.1369,-357.3878 1406.5552,-354.7873 1414.5265,-351.84"/>
<polygon fill="#c0c0c0" stroke="#c0c0c0" points="1415.9579,-355.0379 1423.979,-348.116 1413.392,-348.5251 1415.9579,-355.0379"/>
</g>
<!-- api_client&#45;&gt;poms_shared -->
<g id="edge22" class="edge">
<title>api_client&#45;&gt;poms_shared</title>
<path fill="none" stroke="#c0c0c0" d="M90.0197,-481.8102C88.4575,-452.8234 85.3909,-395.9192 83.5355,-361.4916"/>
<polygon fill="#c0c0c0" stroke="#c0c0c0" points="87.0122,-360.9645 82.9791,-351.1674 80.0224,-361.3413 87.0122,-360.9645"/>
</g>
<!-- poms_backend -->
<g id="node12" class="node">
<title>poms_backend</title>
<g id="a_node12"><a xlink:href="https://subversion.vpro.nl/viewvc/nl/vpro/media" xlink:title="POMS &#160;&amp; POMS Backend API">
<ellipse fill="none" stroke="#cd950c" cx="667" cy="-688" rx="125.3778" ry="18"/>
<text text-anchor="middle" x="667" y="-684.3" font-family="Times,serif" font-size="14.00" fill="#006400">POMS &#160;&amp; POMS Backend API</text>
</a>
</g>
</g>
<!-- poms_backend&#45;&gt;vpro_shared -->
<g id="edge33" class="edge">
<title>poms_backend&#45;&gt;vpro_shared</title>
<path fill="none" stroke="#cd950c" d="M753.6304,-674.966C769.6783,-672.9737 786.3211,-671.1882 802,-670 828.6228,-667.9824 1744.2985,-671.0551 1763,-652 1857.258,-555.96 1749.0873,-442.6616 1630,-380 1585.9536,-356.8236 1567.7701,-372.9733 1520,-359 1512.702,-356.8652 1505.0889,-354.2211 1497.7507,-351.4439"/>
<polygon fill="#cd950c" stroke="#cd950c" points="1498.5574,-348.0009 1487.9698,-347.6099 1496.0027,-354.5181 1498.5574,-348.0009"/>
</g>
<!-- poms_backend&#45;&gt;poms_shared -->
<g id="edge34" class="edge">
<title>poms_backend&#45;&gt;poms_shared</title>
<path fill="none" stroke="#cd950c" d="M753.9999,-675.0161C769.9352,-673.0323 786.4434,-671.2368 802,-670 1107.3632,-645.723 1185.1178,-668.4962 1491,-652 1559.8962,-648.2844 1635,-662.9963 1635,-594 1635,-594 1635,-594 1635,-463.5 1635,-422.5405 1630.4611,-402.1385 1596,-380 1581.7784,-370.8638 395.8665,-371.1161 379,-370 297.5171,-364.6079 204.1477,-351.8919 144.1947,-342.8765"/>
<polygon fill="#cd950c" stroke="#cd950c" points="144.5456,-339.3897 134.1339,-341.3511 143.4962,-346.3106 144.5456,-339.3897"/>
</g>
<!-- poms_backend&#45;&gt;resteasy -->
<g id="edge35" class="edge">
<title>poms_backend&#45;&gt;resteasy</title>
<path fill="none" stroke="#cd950c" d="M753.9984,-674.9973C769.9338,-673.0153 786.4425,-671.2254 802,-670 1125.541,-644.5165 1207.964,-670.1341 1532,-652 1599.6555,-648.2138 1673,-661.7614 1673,-594 1673,-594 1673,-594 1673,-406 1673,-391.1623 1670.9471,-374.7839 1668.7015,-361.307"/>
<polygon fill="#cd950c" stroke="#cd950c" points="1672.1009,-360.4333 1666.8949,-351.2057 1665.2102,-361.6657 1672.1009,-360.4333"/>
</g>
<!-- poms_backend&#45;&gt;spring -->
<g id="edge36" class="edge">
<title>poms_backend&#45;&gt;spring</title>
<path fill="none" stroke="#cd950c" d="M753.9972,-674.9828C769.9328,-673.0023 786.4419,-671.2166 802,-670 1141.059,-643.4866 1227.4111,-670.5311 1567,-652 1635.8938,-648.2405 1711,-662.9963 1711,-594 1711,-594 1711,-594 1711,-463.5 1711,-425.9744 1727.5383,-385.4103 1740.3362,-359.6382"/>
<polygon fill="#cd950c" stroke="#cd950c" points="1743.5626,-361.0169 1745.0157,-350.5222 1737.3352,-357.8201 1743.5626,-361.0169"/>
</g>
<!-- poms_backend&#45;&gt;hibernate -->
<g id="edge37" class="edge">
<title>poms_backend&#45;&gt;hibernate</title>
<path fill="none" stroke="#cd950c" d="M753.996,-674.9674C769.9317,-672.9885 786.4411,-671.2073 802,-670 852.3709,-666.0915 1669.7505,-672.1716 1711,-643 1760.4746,-608.0116 1821.1178,-430.309 1843.3256,-360.8643"/>
<polygon fill="#cd950c" stroke="#cd950c" points="1846.7483,-361.6496 1846.4351,-351.0594 1840.0758,-359.5334 1846.7483,-361.6496"/>
</g>
<!-- poms_gui -->
<g id="node13" class="node">
<title>poms_gui</title>
<g id="a_node13"><a xlink:href="https://git.vpro.nl/npo/media-gui.git" xlink:title="Angular GUI for POMS">
<ellipse fill="none" stroke="#000000" cx="845" cy="-500" rx="98.5829" ry="18"/>
<text text-anchor="middle" x="845" y="-496.3" font-family="Times,serif" font-size="14.00" fill="#006400">Angular GUI for POMS</text>
</a>
</g>
</g>
<!-- poms_backend&#45;&gt;poms_gui -->
<g id="edge38" class="edge">
<title>poms_backend&#45;&gt;poms_gui</title>
<path fill="none" stroke="#cd950c" d="M684.0674,-669.9738C715.8311,-636.4256 784.1062,-564.3148 820.6845,-525.6815"/>
<polygon fill="#cd950c" stroke="#cd950c" points="823.6505,-527.6396 827.9843,-517.9717 818.5674,-522.8269 823.6505,-527.6396"/>
</g>
<!-- user_backend -->
<g id="node18" class="node">
<title>user_backend</title>
<g id="a_node18"><a xlink:href="https://git.vpro.nl/npo/user.git" xlink:title="user_backend">
<ellipse fill="none" stroke="#000000" cx="1471" cy="-406" rx="60.3893" ry="18"/>
<text text-anchor="middle" x="1471" y="-402.3" font-family="Times,serif" font-size="14.00" fill="#006400">user_backend</text>
</a>
</g>
</g>
<!-- poms_backend&#45;&gt;user_backend -->
<g id="edge39" class="edge">
<title>poms_backend&#45;&gt;user_backend</title>
<path fill="none" stroke="#cd950c" d="M754.0012,-675.0325C769.9363,-673.0469 786.4442,-671.2467 802,-670 838.397,-667.0831 1432.9068,-677.542 1459,-652 1517.6031,-594.635 1495.134,-485.1538 1480.1751,-433.8403"/>
<polygon fill="#cd950c" stroke="#cd950c" points="1483.4721,-432.652 1477.2192,-424.0991 1476.7737,-434.6846 1483.4721,-432.652"/>
</g>
<!-- angular -->
<g id="node22" class="node">
<title>angular</title>
<ellipse fill="none" stroke="#000000" cx="1567" cy="-333" rx="37.8943" ry="18"/>
<text text-anchor="middle" x="1567" y="-329.3" font-family="Times,serif" font-size="14.00" fill="#000000">angular</text>
</g>
<!-- poms_gui&#45;&gt;angular -->
<g id="edge40" class="edge">
<title>poms_gui&#45;&gt;angular</title>
<path fill="none" stroke="#c0c0c0" d="M882.6873,-483.2374C945.5584,-456.1406 1076.4563,-403.3936 1193,-380 1335.7846,-351.3391 1380.23,-399.9054 1520,-359 1525.3698,-357.4285 1530.8043,-355.1654 1535.9781,-352.6212"/>
<polygon fill="#c0c0c0" stroke="#c0c0c0" points="1537.7731,-355.6304 1544.9394,-347.8268 1534.4709,-349.4582 1537.7731,-355.6304"/>
</g>
<!-- poms_shared_backend -->
<g id="node14" class="node">
<title>poms_shared_backend</title>
<g id="a_node14"><a xlink:href="https://subversion.vpro.nl/viewvc/nl/publiekeomroep/poms-shared-backend/" xlink:title="poms_shared_backend">
<ellipse fill="none" stroke="#00cdcd" cx="1299" cy="-406" rx="93.6835" ry="18"/>
<text text-anchor="middle" x="1299" y="-402.3" font-family="Times,serif" font-size="14.00" fill="#006400">poms_shared_backend</text>
</a>
</g>
</g>
<!-- poms_shared_backend&#45;&gt;vpro_shared -->
<g id="edge6" class="edge">
<title>poms_shared_backend&#45;&gt;vpro_shared</title>
<path fill="none" stroke="#00cdcd" d="M1334.7896,-389.2523C1358.3997,-378.204 1389.3937,-363.7004 1413.9965,-352.1875"/>
<polygon fill="#00cdcd" stroke="#00cdcd" points="1415.5102,-355.3435 1423.0841,-347.935 1412.5433,-349.0034 1415.5102,-355.3435"/>
</g>
<!-- poms_shared_backend&#45;&gt;poms_shared -->
<g id="edge7" class="edge">
<title>poms_shared_backend&#45;&gt;poms_shared</title>
<path fill="none" stroke="#00cdcd" d="M1205.6813,-404.1628C992.9368,-399.7243 477.056,-387.4784 304,-370 248.2778,-364.3722 185.3587,-353.4472 140.7702,-344.9212"/>
<polygon fill="#00cdcd" stroke="#00cdcd" points="141.1785,-341.4355 130.6963,-342.9761 139.8513,-348.3086 141.1785,-341.4355"/>
</g>
<!-- poms_shared_backend&#45;&gt;slf4j -->
<g id="edge8" class="edge">
<title>poms_shared_backend&#45;&gt;slf4j</title>
<path fill="none" stroke="#00cdcd" d="M1350.1899,-390.872C1366.5963,-386.6196 1384.9355,-382.4823 1402,-380 1429.7324,-375.9659 1886.6007,-379.2244 1906,-359 1964.7241,-297.7781 1809.6738,-249.2421 1736.6373,-230.4403"/>
<polygon fill="#00cdcd" stroke="#00cdcd" points="1737.4589,-227.0379 1726.9066,-227.9863 1735.7471,-233.8254 1737.4589,-227.0379"/>
</g>
<!-- api -->
<g id="node15" class="node">
<title>api</title>
<g id="a_node15"><a xlink:href="https://git.vpro.nl/npo/user.git" xlink:title="Frontend API">
<ellipse fill="none" stroke="#6495ed" cx="871" cy="-688" rx="60.3893" ry="18"/>
<text text-anchor="middle" x="871" y="-684.3" font-family="Times,serif" font-size="14.00" fill="#006400">Frontend API</text>
</a>
</g>
</g>
<!-- api&#45;&gt;vpro_shared -->
<g id="edge10" class="edge">
<title>api&#45;&gt;vpro_shared</title>
<path fill="none" stroke="#6495ed" d="M913.7507,-675.19C922.3679,-673.0787 931.4164,-671.1925 940,-670 963.6943,-666.7082 1784.2624,-669.0912 1801,-652 1843.7024,-608.3956 1812.0834,-416.272 1763,-380 1752.1024,-371.9468 1533.183,-362.1334 1520,-359 1512.1847,-357.1424 1504.0722,-354.5109 1496.337,-351.629"/>
<polygon fill="#6495ed" stroke="#6495ed" points="1497.379,-348.2781 1486.7915,-347.884 1494.8223,-354.7946 1497.379,-348.2781"/>
</g>
<!-- api&#45;&gt;poms_shared -->
<g id="edge11" class="edge">
<title>api&#45;&gt;poms_shared</title>
<path fill="none" stroke="#6495ed" d="M913.7503,-675.1876C922.3676,-673.0764 931.4162,-671.191 940,-670 1036.4302,-656.6209 1723.3775,-681.9808 1816,-652 1891.4668,-627.5723 1873.843,-539.4298 1829,-474 1773.7022,-393.3157 1725.1079,-402.8539 1630,-380 1557.2891,-362.528 441.599,-339.9231 150.8502,-334.3063"/>
<polygon fill="#6495ed" stroke="#6495ed" points="150.5182,-330.7993 140.4526,-334.1058 150.3832,-337.798 150.5182,-330.7993"/>
</g>
<!-- api&#45;&gt;resteasy -->
<g id="edge12" class="edge">
<title>api&#45;&gt;resteasy</title>
<path fill="none" stroke="#6495ed" d="M913.75,-675.1851C922.3673,-673.0741 931.416,-671.1894 940,-670 990.9793,-662.9365 1831.387,-681.0883 1866,-643 1916.5372,-587.3888 1901.7773,-537.1176 1861,-474 1839.9369,-441.3973 1746.9074,-382.8443 1696.2139,-352.4698"/>
<polygon fill="#6495ed" stroke="#6495ed" points="1697.9473,-349.4284 1687.5654,-347.3151 1694.3634,-355.4414 1697.9473,-349.4284"/>
</g>
<!-- api&#45;&gt;poms_shared_backend -->
<g id="edge13" class="edge">
<title>api&#45;&gt;poms_shared_backend</title>
<path fill="none" stroke="#6495ed" d="M913.7616,-675.2675C922.378,-673.1497 931.4233,-671.2414 940,-670 970.6413,-665.5649 1475.464,-674.2432 1497,-652 1571.3901,-575.167 1417.4452,-472.5905 1339.9513,-428.1151"/>
<polygon fill="#6495ed" stroke="#6495ed" points="1341.3259,-424.8712 1330.9003,-422.985 1337.8742,-430.961 1341.3259,-424.8712"/>
</g>
<!-- api&#45;&gt;user_backend -->
<g id="edge14" class="edge">
<title>api&#45;&gt;user_backend</title>
<path fill="none" stroke="#6495ed" d="M913.7608,-675.2617C922.3773,-673.1445 931.4228,-671.2378 940,-670 1002.9351,-660.9179 1451.611,-671.9119 1512,-652 1594.1618,-624.909 1523.0903,-490.2454 1487.9332,-432.4359"/>
<polygon fill="#6495ed" stroke="#6495ed" points="1490.8606,-430.515 1482.628,-423.846 1484.9049,-434.1933 1490.8606,-430.515"/>
</g>
<!-- media_publish -->
<g id="node16" class="node">
<title>media_publish</title>
<g id="a_node16"><a xlink:href="https://subversion.vpro.nl/viewvc/nl/publiekeomroep/npo-publish/" xlink:title="Media Publisher">
<ellipse fill="none" stroke="#bf3eff" cx="453" cy="-688" rx="70.6878" ry="18"/>
<text text-anchor="middle" x="453" y="-684.3" font-family="Times,serif" font-size="14.00" fill="#006400">Media Publisher</text>
</a>
</g>
</g>
<!-- media_publish&#45;&gt;poms_shared -->
<g id="edge18" class="edge">
<title>media_publish&#45;&gt;poms_shared</title>
<path fill="none" stroke="#bf3eff" d="M503.0884,-675.1155C512.9424,-673.0393 523.2489,-671.1853 533,-670 918.2466,-623.17 1019.9004,-691.1808 1406,-652 1494.2632,-643.0432 1597,-682.7165 1597,-594 1597,-594 1597,-594 1597,-463.5 1597,-423.9139 1598.4063,-402.7353 1566,-380 1552.2193,-370.3318 370.7906,-371.2064 354,-370 281.0585,-364.7593 197.8331,-352.5074 142.8597,-343.5324"/>
<polygon fill="#bf3eff" stroke="#bf3eff" points="143.3685,-340.0692 132.9326,-341.8972 142.2307,-346.9761 143.3685,-340.0692"/>
</g>
<!-- pages_publish -->
<g id="node17" class="node">
<title>pages_publish</title>
<g id="a_node17"><a xlink:href="https://subversion.vpro.nl/viewvc/nl/vpro/pages-publish/" xlink:title="Pages Publisher">
<ellipse fill="none" stroke="#8fbc8f" cx="1112" cy="-500" rx="68.7879" ry="18"/>
<text text-anchor="middle" x="1112" y="-496.3" font-family="Times,serif" font-size="14.00" fill="#006400">Pages Publisher</text>
</a>
</g>
</g>
<!-- media_publish&#45;&gt;pages_publish -->
<g id="edge20" class="edge">
<title>media_publish&#45;&gt;pages_publish</title>
<path fill="none" stroke="#c0c0c0" d="M501.746,-674.9316C591.3265,-650.8086 788.0739,-597.3277 953,-549 991.9462,-537.5877 1036.0356,-523.9428 1067.8917,-513.9534"/>
<text text-anchor="middle" x="951" y="-590.3" font-family="Times,serif" font-size="14.00" fill="#000000">we plan to merge these</text>
</g>
<!-- media_publish&#45;&gt;user_backend -->
<g id="edge19" class="edge">
<title>media_publish&#45;&gt;user_backend</title>
<path fill="none" stroke="#bf3eff" d="M503.0977,-675.1904C512.9509,-673.1078 523.2547,-671.2322 533,-670 582.2417,-663.774 1388.2528,-675.2283 1426,-643 1457.2691,-616.3027 1467.0443,-491.1422 1469.902,-434.2609"/>
<polygon fill="#bf3eff" stroke="#bf3eff" points="1473.4034,-434.3105 1470.3723,-424.1585 1466.411,-433.985 1473.4034,-434.3105"/>
</g>
<!-- pages_publish&#45;&gt;poms_shared -->
<g id="edge15" class="edge">
<title>pages_publish&#45;&gt;poms_shared</title>
<path fill="none" stroke="#8fbc8f" d="M1180.6821,-497.7755C1296.2154,-493.3194 1519.2364,-481.3739 1543,-455 1565.3129,-430.2362 1566.473,-403.6671 1543,-380 1531.1262,-368.028 345.8098,-371.3217 329,-370 264.699,-364.9443 191.7283,-353.2715 141.8734,-344.3785"/>
<polygon fill="#8fbc8f" stroke="#8fbc8f" points="142.3711,-340.9119 131.9089,-342.5831 141.1298,-347.8009 142.3711,-340.9119"/>
</g>
<!-- pages_publish&#45;&gt;poms_shared_backend -->
<g id="edge16" class="edge">
<title>pages_publish&#45;&gt;poms_shared_backend</title>
<path fill="none" stroke="#8fbc8f" d="M1147.6257,-484.3598C1161.2844,-478.2086 1176.9557,-470.9619 1191,-464 1213.985,-452.6061 1239.2689,-439.0831 1259.5909,-427.9621"/>
<polygon fill="#8fbc8f" stroke="#8fbc8f" points="1261.4742,-430.9208 1268.5528,-423.0377 1258.1032,-424.786 1261.4742,-430.9208"/>
</g>
<!-- pages_publish&#45;&gt;user_backend -->
<g id="edge17" class="edge">
<title>pages_publish&#45;&gt;user_backend</title>
<path fill="none" stroke="#8fbc8f" d="M1176.5393,-493.4824C1249.1755,-485.5353 1362.2287,-471.1497 1402,-455 1417.0423,-448.8918 1431.9545,-438.9274 1444.0464,-429.5737"/>
<polygon fill="#8fbc8f" stroke="#8fbc8f" points="1446.3208,-432.2363 1451.934,-423.2506 1441.9424,-426.7746 1446.3208,-432.2363"/>
</g>
<!-- images -->
<g id="node19" class="node">
<title>images</title>
<g id="a_node19"><a xlink:href="https://git.vpro.nl/npo/images.git" xlink:title="Images Frontend &amp; Backend">
<ellipse fill="none" stroke="#caff70" cx="1065" cy="-688" rx="115.8798" ry="18"/>
<text text-anchor="middle" x="1065" y="-684.3" font-family="Times,serif" font-size="14.00" fill="#006400">Images Frontend &amp; Backend</text>
</a>
</g>
</g>
<!-- images&#45;&gt;poms_shared -->
<g id="edge23" class="edge">
<title>images&#45;&gt;poms_shared</title>
<path fill="none" stroke="#caff70" d="M1180.1185,-686.0348C1398.7778,-681.8865 1858.7147,-671.0192 1929,-652 1937.2523,-649.7669 1941.5903,-650.324 1946,-643 1963.1935,-614.4432 1956.3081,-599.6994 1946,-568 1907.3632,-449.1847 1854.2215,-423.2319 1737,-380 1699.2097,-366.0628 458.1999,-340.4881 150.5033,-334.3501"/>
<polygon fill="#caff70" stroke="#caff70" points="150.451,-330.8484 140.3832,-334.1485 150.3115,-337.847 150.451,-330.8484"/>
</g>
<!-- images&#45;&gt;spring -->
<g id="edge24" class="edge">
<title>images&#45;&gt;spring</title>
<path fill="none" stroke="#caff70" d="M1179.754,-685.5956C1424.5814,-680.1928 1977.1196,-666.4306 1991,-652 2081.2832,-558.1387 2028.7892,-432.3484 1915,-369 1892.2003,-356.307 1822.8145,-367.0734 1798,-359 1793.2714,-357.4615 1788.5167,-355.3192 1783.982,-352.9182"/>
<polygon fill="#caff70" stroke="#caff70" points="1785.4668,-349.7331 1775.0617,-347.737 1781.951,-355.7861 1785.4668,-349.7331"/>
</g>
<!-- images&#45;&gt;hibernate -->
<g id="edge25" class="edge">
<title>images&#45;&gt;hibernate</title>
<path fill="none" stroke="#caff70" d="M1179.6198,-685.5019C1412.5681,-680.149 1926.0017,-666.846 2005,-652 2017.0179,-649.7415 2021.9782,-651.2546 2031,-643 2048.6124,-626.8854 2053,-617.8721 2053,-594 2053,-594 2053,-594 2053,-406 2053,-374.3262 1963.7062,-352.4447 1904.1506,-341.373"/>
<polygon fill="#caff70" stroke="#caff70" points="1904.5997,-337.8975 1894.1362,-339.5602 1903.3528,-344.7855 1904.5997,-337.8975"/>
</g>
<!-- images&#45;&gt;user_backend -->
<g id="edge26" class="edge">
<title>images&#45;&gt;user_backend</title>
<path fill="none" stroke="#caff70" d="M1180.7965,-687.2844C1407.479,-685.3111 1890.0231,-678.0571 1915,-652 2039.2885,-522.3361 1684.2316,-443.2065 1534.3175,-416.3345"/>
<polygon fill="#caff70" stroke="#caff70" points="1534.7739,-412.8609 1524.317,-414.565 1533.5541,-419.7539 1534.7739,-412.8609"/>
</g>
<!-- functional_tests -->
<g id="node20" class="node">
<title>functional_tests</title>
<g id="a_node20"><a xlink:href="https://github.com/npo-poms/functional-tests" xlink:title="Functional integration tests">
<ellipse fill="#e0eeee" stroke="#9acd32" cx="1307" cy="-594" rx="109.6807" ry="18"/>
<text text-anchor="middle" x="1307" y="-590.3" font-family="Times,serif" font-size="14.00" fill="#0000ff">Functional integration tests</text>
</a>
</g>
</g>
<!-- functional_tests&#45;&gt;api_client -->
<g id="edge41" class="edge">
<title>functional_tests&#45;&gt;api_client</title>
<path fill="none" stroke="#c0c0c0" d="M1249.6976,-578.5646C1231.6856,-574.3529 1211.634,-570.3161 1193,-568 829.9186,-522.8716 734.1029,-584.9689 370,-549 289.6026,-541.0577 197.5008,-523.1314 141.822,-511.305"/>
<polygon fill="#c0c0c0" stroke="#c0c0c0" points="142.3717,-507.8434 131.8605,-509.1715 140.9057,-514.6882 142.3717,-507.8434"/>
</g>
<!-- magnolia -->
<g id="node23" class="node">
<title>magnolia</title>
<ellipse fill="none" stroke="#000000" cx="61" cy="-594" rx="44.6926" ry="18"/>
<text text-anchor="middle" x="61" y="-590.3" font-family="Times,serif" font-size="14.00" fill="#000000">magnolia</text>
</g>
<!-- magnolia&#45;&gt;vpro_shared -->
<g id="edge27" class="edge">
<title>magnolia&#45;&gt;vpro_shared</title>
<path fill="none" stroke="#8b8878" d="M90.1333,-580.0369C115.7594,-567.6857 149.3957,-551.2763 152,-549 220.217,-489.3743 187.1153,-424.5645 266,-380 271.2066,-377.0586 475.0229,-369.1857 481,-369 531.4787,-367.4317 1340.4615,-368.8231 1390,-359 1398.1367,-357.3866 1406.5548,-354.7854 1414.526,-351.8379"/>
<polygon fill="#8b8878" stroke="#8b8878" points="1415.9575,-355.0359 1423.9785,-348.1139 1413.3916,-348.5231 1415.9575,-355.0359"/>
</g>
<!-- magnolia&#45;&gt;api_client -->
<g id="edge28" class="edge">
<title>magnolia&#45;&gt;api_client</title>
<path fill="none" stroke="#8b8878" d="M66.7843,-575.8759C71.1421,-562.2215 77.1941,-543.2585 82.1576,-527.7061"/>
<polygon fill="#8b8878" stroke="#8b8878" points="85.5273,-528.6593 85.2335,-518.0685 78.8587,-526.5309 85.5273,-528.6593"/>
</g>
<!-- vpro_rs -->
<g id="node24" class="node">
<title>vpro_rs</title>
<ellipse fill="none" stroke="#000000" cx="318" cy="-594" rx="38.1938" ry="18"/>
<text text-anchor="middle" x="318" y="-590.3" font-family="Times,serif" font-size="14.00" fill="#000000">vpro_rs</text>
</g>
<!-- vpro_rs&#45;&gt;vpro_shared -->
<g id="edge29" class="edge">
<title>vpro_rs&#45;&gt;vpro_shared</title>
<path fill="none" stroke="#8b8878" d="M314.21,-575.71C309.9299,-549.4024 306.6348,-501.0758 333,-474 526.8232,-274.953 674.5449,-407.563 951,-380 1145.3705,-360.621 1199.1278,-400.5124 1390,-359 1398.0212,-357.2555 1406.3342,-354.6218 1414.2268,-351.6895"/>
<polygon fill="#8b8878" stroke="#8b8878" points="1415.5723,-354.9213 1423.5976,-348.0043 1413.0105,-348.407 1415.5723,-354.9213"/>
</g>
<!-- vpro_rs&#45;&gt;poms_shared -->
<g id="edge30" class="edge">
<title>vpro_rs&#45;&gt;poms_shared</title>
<path fill="none" stroke="#8b8878" d="M309.9327,-576.252C296.5447,-547.1956 269.8434,-491.0026 256,-474 215.4321,-424.1741 154.7345,-379.9216 116.7995,-354.8091"/>
<polygon fill="#8b8878" stroke="#8b8878" points="118.4221,-351.6883 108.1369,-349.1454 114.5915,-357.5472 118.4221,-351.6883"/>
</g>
<!-- vpro_rs&#45;&gt;api_client -->
<g id="edge31" class="edge">
<title>vpro_rs&#45;&gt;api_client</title>
<path fill="none" stroke="#8b8878" d="M293.9509,-579.8254C286.6875,-575.7828 278.6171,-571.5234 271,-568 226.1904,-547.273 173.1265,-527.8141 136.2737,-515.0673"/>
<polygon fill="#8b8878" stroke="#8b8878" points="137.3945,-511.7516 126.7999,-511.8147 135.1215,-518.3723 137.3945,-511.7516"/>
</g>
<!-- vpro_rs&#45;&gt;poms_shared_backend -->
<g id="edge32" class="edge">
<title>vpro_rs&#45;&gt;poms_shared_backend</title>
<path fill="none" stroke="#8b8878" d="M325.1888,-576.0969C338.3876,-543.4213 365.5454,-477.1632 370,-474 403.3129,-450.3442 963.125,-421.6539 1197.2942,-410.625"/>
<polygon fill="#8b8878" stroke="#8b8878" points="1197.6944,-414.1101 1207.5192,-410.1449 1197.366,-407.1178 1197.6944,-414.1101"/>
</g>
</g>
</svg>
