<?xml version="1.0" encoding="UTF-8" standalone="no"?>
<!DOCTYPE svg PUBLIC "-//W3C//DTD SVG 1.1//EN"
 "http://www.w3.org/Graphics/SVG/1.1/DTD/svg11.dtd">
<!-- Generated by graphviz version 2.40.1 (20161225.0304)
 -->
<!-- Title: %3 Pages: 1 -->
<svg width="1378pt" height="621pt"
 viewBox="0.00 0.00 1378.00 621.00" xmlns="http://www.w3.org/2000/svg" xmlns:xlink="http://www.w3.org/1999/xlink">
<g id="graph0" class="graph" transform="scale(1 1) rotate(0) translate(4 617)">
<title>%3</title>
<polygon fill="#ffffff" stroke="transparent" points="-4,4 -4,-617 1374,-617 1374,4 -4,4"/>
<text text-anchor="middle" x="685" y="-7.8" font-family="Times,serif" font-size="14.00" fill="#000000"> &#160;Dependencies of the different code projects relevant to POMS</text>
<g id="clust1" class="cluster">
<title>cluster_0</title>
<polygon fill="none" stroke="#000000" points="770,-47 770,-137 1308,-137 1308,-47 770,-47"/>
<text text-anchor="middle" x="1039" y="-69.8" font-family="Times,serif" font-size="14.00" fill="#000000">Generic utilities</text>
<text text-anchor="middle" x="1039" y="-54.8" font-family="Times,serif" font-size="14.00" fill="#000000">(incoming edges are just examples, there are more)</text>
</g>
<g id="clust2" class="cluster">
<title>cluster_1</title>
<polygon fill="none" stroke="#000000" points="17,-530 17,-605 217,-605 217,-530 17,-530"/>
<text text-anchor="middle" x="117" y="-589.8" font-family="Times,serif" font-size="14.00" fill="#000000">VPRO</text>
</g>
<g id="clust3" class="cluster">
<title>cluster_2</title>
<polygon fill="#f0ffff" stroke="#000000" points="548,-363 548,-605 1362,-605 1362,-363 548,-363"/>
<text text-anchor="middle" x="955" y="-589.8" font-family="Times,serif" font-size="14.00" fill="#000000">POMS Services</text>
</g>
<g id="clust4" class="cluster">
<title>cluster_3</title>
<polygon fill="#f0ffff" stroke="#000000" points="550,-269 550,-344 892,-344 892,-269 550,-269"/>
<text text-anchor="middle" x="721" y="-328.8" font-family="Times,serif" font-size="14.00" fill="#000000">Backend utilities</text>
</g>
<g id="clust5" class="cluster">
<title>cluster_4</title>
<polygon fill="#e0eeee" stroke="#000000" points="134,-158 134,-511 286,-511 286,-158 134,-158"/>
<text text-anchor="middle" x="210" y="-495.8" font-family="Times,serif" font-size="14.00" fill="#000000">Sharable utilities</text>
</g>
<!-- vpro_shared -->
<g id="node1" class="node">
<title>vpro_shared</title>
<g id="a_node1"><a xlink:href="https://github.com/vpro/vpro-shared" xlink:title="vpro_shared">
<ellipse fill="none" stroke="#000000" cx="220" cy="-184" rx="55.7903" ry="18"/>
<text text-anchor="middle" x="220" y="-180.3" font-family="Times,serif" font-size="14.00" fill="#0000ff">vpro_shared</text>
</a>
</g>
</g>
<!-- slf4j -->
<g id="node12" class="node">
<title>slf4j</title>
<ellipse fill="none" stroke="#000000" stroke-dasharray="5,2" cx="981" cy="-111" rx="27" ry="18"/>
<text text-anchor="middle" x="981" y="-107.3" font-family="Times,serif" font-size="14.00" fill="#000000">slf4j</text>
</g>
<!-- vpro_shared&#45;&gt;slf4j -->
<g id="edge1" class="edge">
<title>vpro_shared&#45;&gt;slf4j</title>
<path fill="none" stroke="#c0c0c0" d="M273.7322,-178.7528C357.7633,-170.7297 525.4326,-155.4561 668,-147 698.7438,-145.1765 915.8718,-147.0027 945,-137 949.0195,-135.6197 952.9772,-133.6283 956.7133,-131.3529"/>
<polygon fill="#c0c0c0" stroke="#c0c0c0" points="958.6998,-134.2346 964.9537,-125.6824 954.7316,-128.468 958.6998,-134.2346"/>
</g>
<!-- guava -->
<g id="node13" class="node">
<title>guava</title>
<ellipse fill="none" stroke="#000000" stroke-dasharray="5,2" cx="810" cy="-111" rx="32.4942" ry="18"/>
<text text-anchor="middle" x="810" y="-107.3" font-family="Times,serif" font-size="14.00" fill="#000000">guava</text>
</g>
<!-- vpro_shared&#45;&gt;guava -->
<g id="edge2" class="edge">
<title>vpro_shared&#45;&gt;guava</title>
<path fill="none" stroke="#c0c0c0" d="M272.1277,-177.4438C331.2521,-170.0171 430.5526,-157.5719 516,-147 605.8414,-135.8844 711.1495,-123.0326 768.1676,-116.0888"/>
<polygon fill="#c0c0c0" stroke="#c0c0c0" points="768.7339,-119.5458 778.2375,-114.8628 767.8878,-112.5971 768.7339,-119.5458"/>
</g>
<!-- poms_shared -->
<g id="node2" class="node">
<title>poms_shared</title>
<g id="a_node2"><a xlink:href="https://github.com/npo-poms/poms-shared" xlink:title="poms_shared">
<ellipse fill="none" stroke="#000000" cx="220" cy="-295" rx="58.4896" ry="18"/>
<text text-anchor="middle" x="220" y="-291.3" font-family="Times,serif" font-size="14.00" fill="#0000ff">poms_shared</text>
</a>
</g>
</g>
<!-- poms_shared&#45;&gt;vpro_shared -->
<g id="edge3" class="edge">
<title>poms_shared&#45;&gt;vpro_shared</title>
<path fill="none" stroke="#c0c0c0" d="M220,-276.6706C220,-259.2373 220,-232.7482 220,-212.5489"/>
<polygon fill="#c0c0c0" stroke="#c0c0c0" points="223.5001,-212.3566 220,-202.3566 216.5001,-212.3567 223.5001,-212.3566"/>
</g>
<!-- api_client -->
<g id="node3" class="node">
<title>api_client</title>
<g id="a_node3"><a xlink:href="https://github.com/npo-poms/api-clients" xlink:title="api_client">
<ellipse fill="none" stroke="#000000" cx="189" cy="-462" rx="46.5926" ry="18"/>
<text text-anchor="middle" x="189" y="-458.3" font-family="Times,serif" font-size="14.00" fill="#0000ff">api_client</text>
</a>
</g>
</g>
<!-- api_client&#45;&gt;vpro_shared -->
<g id="edge18" class="edge">
<title>api_client&#45;&gt;vpro_shared</title>
<path fill="none" stroke="#c0c0c0" d="M170.8196,-445.2625C157.9618,-431.5388 143,-410.8707 143,-389 143,-389 143,-389 143,-239.5 143,-222.4188 155.6241,-210.071 170.6492,-201.4239"/>
<polygon fill="#c0c0c0" stroke="#c0c0c0" points="172.4164,-204.4505 179.6959,-196.7524 169.2047,-198.2308 172.4164,-204.4505"/>
</g>
<!-- api_client&#45;&gt;poms_shared -->
<g id="edge19" class="edge">
<title>api_client&#45;&gt;poms_shared</title>
<path fill="none" stroke="#c0c0c0" d="M192.3766,-443.8102C197.7806,-414.6979 208.4119,-357.426 214.7939,-323.0457"/>
<polygon fill="#c0c0c0" stroke="#c0c0c0" points="218.2436,-323.6383 216.6276,-313.1674 211.3612,-322.3606 218.2436,-323.6383"/>
</g>
<!-- poms_backend -->
<g id="node4" class="node">
<title>poms_backend</title>
<g id="a_node4"><a xlink:href="https://subversion.vpro.nl/viewvc/nl/vpro/media" xlink:title="POMS &#160;&amp; POMS Backend API">
<ellipse fill="none" stroke="#cd950c" cx="1229" cy="-556" rx="125.3778" ry="18"/>
<text text-anchor="middle" x="1229" y="-552.3" font-family="Times,serif" font-size="14.00" fill="#0000ff">POMS &#160;&amp; POMS Backend API</text>
</a>
</g>
</g>
<!-- poms_backend&#45;&gt;vpro_shared -->
<g id="edge31" class="edge">
<title>poms_backend&#45;&gt;vpro_shared</title>
<path fill="none" stroke="#cd950c" d="M1162.198,-540.7347C1140.8434,-536.4755 1117.0304,-532.3687 1095,-530 899.1896,-508.9464 848.6827,-530.0442 652,-520 576.4593,-516.1423 492,-537.6392 492,-462 492,-462 492,-462 492,-239.5 492,-218.3262 363.826,-200.0692 283.4507,-190.7021"/>
<polygon fill="#cd950c" stroke="#cd950c" points="283.748,-187.2134 273.4139,-189.5495 282.9493,-194.1676 283.748,-187.2134"/>
</g>
<!-- poms_backend&#45;&gt;poms_shared -->
<g id="edge32" class="edge">
<title>poms_backend&#45;&gt;poms_shared</title>
<path fill="none" stroke="#cd950c" d="M1162.5494,-540.7184C1141.1076,-536.4302 1117.1557,-532.3109 1095,-530 1060.9027,-526.4435 509.0402,-534.5526 478,-520 394.676,-480.9352 414.3946,-421.0668 343,-363 318.7452,-343.273 287.9571,-326.2584 263.2517,-314.1828"/>
<polygon fill="#cd950c" stroke="#cd950c" points="264.6379,-310.966 254.1073,-309.8012 261.6131,-317.2788 264.6379,-310.966"/>
</g>
<!-- poms_gui -->
<g id="node5" class="node">
<title>poms_gui</title>
<g id="a_node5"><a xlink:href="https://subversion.vpro.nl/viewvc/nl/vpro/media-gui" xlink:title="Angular GUI for POMS">
<ellipse fill="none" stroke="#000000" cx="813" cy="-389" rx="98.5829" ry="18"/>
<text text-anchor="middle" x="813" y="-385.3" font-family="Times,serif" font-size="14.00" fill="#0000ff">Angular GUI for POMS</text>
</a>
</g>
</g>
<!-- poms_backend&#45;&gt;poms_gui -->
<g id="edge33" class="edge">
<title>poms_backend&#45;&gt;poms_gui</title>
<path fill="none" stroke="#cd950c" d="M1186.4357,-538.9129C1109.1491,-507.8868 946.1066,-442.4346 863.3995,-409.2325"/>
<polygon fill="#cd950c" stroke="#cd950c" points="864.5477,-405.922 853.9636,-405.4445 861.9398,-412.4181 864.5477,-405.922"/>
</g>
<!-- user_backend -->
<g id="node10" class="node">
<title>user_backend</title>
<g id="a_node10"><a xlink:href="https://subversion.vpro.nl/repo/nl/vpro/user" xlink:title="user_backend">
<ellipse fill="none" stroke="#000000" cx="824" cy="-295" rx="60.3893" ry="18"/>
<text text-anchor="middle" x="824" y="-291.3" font-family="Times,serif" font-size="14.00" fill="#0000ff">user_backend</text>
</a>
</g>
</g>
<!-- poms_backend&#45;&gt;user_backend -->
<g id="edge34" class="edge">
<title>poms_backend&#45;&gt;user_backend</title>
<path fill="none" stroke="#cd950c" d="M1161.142,-540.7654C1140.0523,-536.5893 1116.6556,-532.5221 1095,-530 1042.8655,-523.9283 669.1544,-535.993 623,-511 558.331,-475.9812 499.4436,-417.3375 549,-363 579.9784,-329.0328 711.8902,-359.9681 755,-344 770.3363,-338.3193 785.3811,-328.3146 797.4883,-318.8202"/>
<polygon fill="#cd950c" stroke="#cd950c" points="799.8347,-321.4229 805.3685,-312.3881 795.4083,-316.0001 799.8347,-321.4229"/>
</g>
<!-- spring -->
<g id="node14" class="node">
<title>spring</title>
<ellipse fill="none" stroke="#000000" stroke-dasharray="5,2" cx="1266" cy="-111" rx="33.5952" ry="18"/>
<text text-anchor="middle" x="1266" y="-107.3" font-family="Times,serif" font-size="14.00" fill="#000000">spring</text>
</g>
<!-- poms_backend&#45;&gt;spring -->
<g id="edge35" class="edge">
<title>poms_backend&#45;&gt;spring</title>
<path fill="none" stroke="#cd950c" d="M1262.885,-538.522C1288.7576,-522.4872 1320,-496.0708 1320,-462 1320,-462 1320,-462 1320,-184 1320,-163.9154 1306.625,-145.7411 1293.1879,-132.5504"/>
<polygon fill="#cd950c" stroke="#cd950c" points="1295.53,-129.9493 1285.801,-125.7545 1290.7906,-135.1009 1295.53,-129.9493"/>
</g>
<!-- resteasy -->
<g id="node15" class="node">
<title>resteasy</title>
<ellipse fill="none" stroke="#000000" cx="1066" cy="-111" rx="40.0939" ry="18"/>
<text text-anchor="middle" x="1066" y="-107.3" font-family="Times,serif" font-size="14.00" fill="#000000">resteasy</text>
</g>
<!-- poms_backend&#45;&gt;resteasy -->
<g id="edge36" class="edge">
<title>poms_backend&#45;&gt;resteasy</title>
<path fill="none" stroke="#cd950c" d="M1221.8487,-537.948C1215.097,-519.2549 1206,-489.0494 1206,-462 1206,-462 1206,-462 1206,-220.5 1206,-193.8365 1142.1982,-153.2707 1100.7367,-129.724"/>
<polygon fill="#cd950c" stroke="#cd950c" points="1102.439,-126.6659 1092.0048,-124.8279 1099.0154,-132.7716 1102.439,-126.6659"/>
</g>
<!-- hibernate -->
<g id="node16" class="node">
<title>hibernate</title>
<ellipse fill="none" stroke="#000000" cx="1169" cy="-111" rx="44.6926" ry="18"/>
<text text-anchor="middle" x="1169" y="-107.3" font-family="Times,serif" font-size="14.00" fill="#000000">hibernate</text>
</g>
<!-- poms_backend&#45;&gt;hibernate -->
<g id="edge37" class="edge">
<title>poms_backend&#45;&gt;hibernate</title>
<path fill="none" stroke="#cd950c" d="M1233.6639,-537.7652C1238.0672,-518.9263 1244,-488.6067 1244,-462 1244,-462 1244,-462 1244,-184 1244,-160.837 1225.403,-142.6413 1206.73,-130.2093"/>
<polygon fill="#cd950c" stroke="#cd950c" points="1208.5507,-127.22 1198.2117,-124.9057 1204.8509,-133.1624 1208.5507,-127.22"/>
</g>
<!-- angular -->
<g id="node17" class="node">
<title>angular</title>
<ellipse fill="none" stroke="#000000" cx="898" cy="-111" rx="37.8943" ry="18"/>
<text text-anchor="middle" x="898" y="-107.3" font-family="Times,serif" font-size="14.00" fill="#000000">angular</text>
</g>
<!-- poms_gui&#45;&gt;angular -->
<g id="edge38" class="edge">
<title>poms_gui&#45;&gt;angular</title>
<path fill="none" stroke="#c0c0c0" d="M756.6523,-374.1135C740.0952,-370.0985 721.8943,-366.0322 705,-363 669.9749,-356.7137 573.5111,-366.5701 546,-344 528.2884,-329.4694 530,-317.9094 530,-295 530,-295 530,-295 530,-184 530,-111.9061 782.6879,-160.0433 851,-137 856.0613,-135.2927 861.2107,-133.0477 866.1555,-130.5911"/>
<polygon fill="#c0c0c0" stroke="#c0c0c0" points="868.1608,-133.4882 875.335,-125.692 864.8649,-127.3127 868.1608,-133.4882"/>
</g>
<!-- poms_shared_backend -->
<g id="node6" class="node">
<title>poms_shared_backend</title>
<g id="a_node6"><a xlink:href="https://subversion.vpro.nl/viewvc/nl/publiekeomroep/poms-shared-backend/" xlink:title="poms_shared_backend">
<ellipse fill="none" stroke="#00cdcd" cx="652" cy="-295" rx="93.6835" ry="18"/>
<text text-anchor="middle" x="652" y="-291.3" font-family="Times,serif" font-size="14.00" fill="#0000ff">poms_shared_backend</text>
</a>
</g>
</g>
<!-- poms_shared_backend&#45;&gt;vpro_shared -->
<g id="edge4" class="edge">
<title>poms_shared_backend&#45;&gt;vpro_shared</title>
<path fill="none" stroke="#00cdcd" d="M625.2408,-277.6059C596.8544,-260.0486 550.1034,-233.637 506,-220 465.9553,-207.618 355.8615,-196.0262 284.5366,-189.492"/>
<polygon fill="#00cdcd" stroke="#00cdcd" points="284.5826,-185.9819 274.3075,-188.5652 283.9508,-192.9534 284.5826,-185.9819"/>
</g>
<!-- poms_shared_backend&#45;&gt;poms_shared -->
<g id="edge5" class="edge">
<title>poms_shared_backend&#45;&gt;poms_shared</title>
<path fill="none" stroke="#00cdcd" d="M558.2955,-295C468.4455,-295 378.5954,-295 288.7453,-295"/>
<polygon fill="#00cdcd" stroke="#00cdcd" points="288.6407,-291.5001 278.6406,-295 288.6406,-298.5001 288.6407,-291.5001"/>
</g>
<!-- poms_shared_backend&#45;&gt;slf4j -->
<g id="edge6" class="edge">
<title>poms_shared_backend&#45;&gt;slf4j</title>
<path fill="none" stroke="#00cdcd" d="M686.6594,-278.1646C742.3488,-250.7064 854.6603,-193.6407 945,-137 948.1925,-134.9984 951.4781,-132.8134 954.705,-130.588"/>
<polygon fill="#00cdcd" stroke="#00cdcd" points="956.8734,-133.3411 963.0052,-124.7009 952.8237,-127.6314 956.8734,-133.3411"/>
</g>
<!-- api -->
<g id="node7" class="node">
<title>api</title>
<g id="a_node7"><a xlink:href="https://subversion.vpro.nl/viewvc/nl/vpro/api/" xlink:title="Frontend API">
<ellipse fill="none" stroke="#6495ed" cx="776" cy="-556" rx="60.3893" ry="18"/>
<text text-anchor="middle" x="776" y="-552.3" font-family="Times,serif" font-size="14.00" fill="#0000ff">Frontend API</text>
</a>
</g>
</g>
<!-- api&#45;&gt;vpro_shared -->
<g id="edge7" class="edge">
<title>api&#45;&gt;vpro_shared</title>
<path fill="none" stroke="#6495ed" d="M742.612,-540.8731C731.5103,-536.537 718.932,-532.3505 707,-530 675.6953,-523.8332 157.4843,-531.4582 133,-511 103.1283,-486.0403 114,-464.427 114,-425.5 114,-425.5 114,-425.5 114,-239.5 114,-215.583 135.4414,-201.9531 159.0376,-194.1948"/>
<polygon fill="#6495ed" stroke="#6495ed" points="160.2535,-197.4857 168.8629,-191.3109 158.282,-190.769 160.2535,-197.4857"/>
</g>
<!-- api&#45;&gt;poms_shared -->
<g id="edge8" class="edge">
<title>api&#45;&gt;poms_shared</title>
<path fill="none" stroke="#6495ed" d="M742.6113,-540.8766C731.5095,-536.5407 718.9314,-532.3535 707,-530 688.2967,-526.3107 380.0027,-530.3604 364,-520 298.9243,-477.8689 332.9247,-426.1795 288,-363 276.5154,-346.8487 261.0611,-331.0554 247.7876,-318.7607"/>
<polygon fill="#6495ed" stroke="#6495ed" points="250.0315,-316.0708 240.2709,-311.9498 245.3312,-321.2581 250.0315,-316.0708"/>
</g>
<!-- api&#45;&gt;poms_shared_backend -->
<g id="edge9" class="edge">
<title>api&#45;&gt;poms_shared_backend</title>
<path fill="none" stroke="#6495ed" d="M810.1861,-541.0444C821.1185,-536.8274 833.3972,-532.6669 845,-530 868.7058,-524.5513 937.6049,-537.9681 954,-520 976.7673,-495.0483 960.4932,-477.1478 954,-444 946.5273,-405.852 951.9711,-386.4926 921,-363 891.4178,-340.5609 790.694,-354.2254 755,-344 732.751,-337.6262 709.3488,-326.8591 690.4838,-317.0387"/>
<polygon fill="#6495ed" stroke="#6495ed" points="692.0842,-313.9256 681.6122,-312.3171 688.7955,-320.105 692.0842,-313.9256"/>
</g>
<!-- api&#45;&gt;user_backend -->
<g id="edge10" class="edge">
<title>api&#45;&gt;user_backend</title>
<path fill="none" stroke="#6495ed" d="M809.7967,-541.0142C820.8152,-536.7419 833.2415,-532.5572 845,-530 860.9972,-526.521 980.8236,-531.9625 992,-520 1039.6365,-469.0128 1031.0009,-420.8607 992,-363 969.4138,-329.4918 927.2091,-312.49 890.7538,-303.8661"/>
<polygon fill="#6495ed" stroke="#6495ed" points="891.1627,-300.3727 880.645,-301.6492 889.6631,-307.2102 891.1627,-300.3727"/>
</g>
<!-- api&#45;&gt;resteasy -->
<g id="edge11" class="edge">
<title>api&#45;&gt;resteasy</title>
<path fill="none" stroke="#6495ed" d="M809.7877,-540.9726C820.8057,-536.6981 833.2341,-532.5225 845,-530 884.5446,-521.5219 1001.0274,-542.8123 1026,-511 1086.2853,-434.2033 1066,-392.6322 1066,-295 1066,-295 1066,-295 1066,-184 1066,-169.2996 1066,-152.934 1066,-139.4302"/>
<polygon fill="#6495ed" stroke="#6495ed" points="1069.5001,-139.3003 1066,-129.3003 1062.5001,-139.3004 1069.5001,-139.3003"/>
</g>
<!-- media_publish -->
<g id="node8" class="node">
<title>media_publish</title>
<g id="a_node8"><a xlink:href="https://subversion.vpro.nl/viewvc/nl/publiekeomroep/npo-publish/" xlink:title="Media Publisher">
<ellipse fill="none" stroke="#bf3eff" cx="627" cy="-556" rx="70.6878" ry="18"/>
<text text-anchor="middle" x="627" y="-552.3" font-family="Times,serif" font-size="14.00" fill="#0000ff">Media Publisher</text>
</a>
</g>
</g>
<!-- media_publish&#45;&gt;poms_shared -->
<g id="edge15" class="edge">
<title>media_publish&#45;&gt;poms_shared</title>
<path fill="none" stroke="#bf3eff" d="M558.2433,-551.5315C475.0739,-545.5503 343.9094,-534.0489 326,-520 267.3498,-473.9924 301.5624,-429.0453 267,-363 259.3229,-348.3298 249.0193,-333.071 240.0159,-320.7339"/>
<polygon fill="#bf3eff" stroke="#bf3eff" points="242.8169,-318.6352 234.0388,-312.7027 237.2014,-322.8145 242.8169,-318.6352"/>
</g>
<!-- pages_publish -->
<g id="node9" class="node">
<title>pages_publish</title>
<g id="a_node9"><a xlink:href="https://subversion.vpro.nl/viewvc/nl/vpro/pages-publish/" xlink:title="Pages Publisher">
<ellipse fill="none" stroke="#8fbc8f" cx="627" cy="-389" rx="68.7879" ry="18"/>
<text text-anchor="middle" x="627" y="-385.3" font-family="Times,serif" font-size="14.00" fill="#0000ff">Pages Publisher</text>
</a>
</g>
</g>
<!-- media_publish&#45;&gt;pages_publish -->
<g id="edge17" class="edge">
<title>media_publish&#45;&gt;pages_publish</title>
<path fill="none" stroke="#c0c0c0" d="M627,-537.8102C627,-505.6863 627,-439.2753 627,-407.1674"/>
<text text-anchor="middle" x="692" y="-458.3" font-family="Times,serif" font-size="14.00" fill="#000000">we plan to merge these</text>
</g>
<!-- media_publish&#45;&gt;user_backend -->
<g id="edge16" class="edge">
<title>media_publish&#45;&gt;user_backend</title>
<path fill="none" stroke="#bf3eff" d="M670.8199,-541.7753C706.5581,-530.0923 752.4785,-514.8629 761,-511 838.247,-475.983 894.5209,-487.5738 921,-407 927.1053,-388.4219 930.025,-380.3485 921,-363 909.8884,-341.6405 888.6542,-325.5959 868.8793,-314.472"/>
<polygon fill="#bf3eff" stroke="#bf3eff" points="870.4088,-311.3212 859.9378,-309.7059 867.1161,-317.4984 870.4088,-311.3212"/>
</g>
<!-- pages_publish&#45;&gt;poms_shared -->
<g id="edge12" class="edge">
<title>pages_publish&#45;&gt;poms_shared</title>
<path fill="none" stroke="#8fbc8f" d="M575.0398,-376.9994C498.4868,-359.3188 355.9282,-326.3937 276.7327,-308.1029"/>
<polygon fill="#8fbc8f" stroke="#8fbc8f" points="277.4602,-304.6788 266.929,-305.8386 275.8849,-311.4993 277.4602,-304.6788"/>
</g>
<!-- pages_publish&#45;&gt;poms_shared_backend -->
<g id="edge13" class="edge">
<title>pages_publish&#45;&gt;poms_shared_backend</title>
<path fill="none" stroke="#8fbc8f" d="M631.8203,-370.8759C635.4171,-357.3516 640.3991,-338.6192 644.5129,-323.1514"/>
<polygon fill="#8fbc8f" stroke="#8fbc8f" points="648.0067,-323.6322 647.1945,-313.0685 641.2418,-321.833 648.0067,-323.6322"/>
</g>
<!-- pages_publish&#45;&gt;user_backend -->
<g id="edge14" class="edge">
<title>pages_publish&#45;&gt;user_backend</title>
<path fill="none" stroke="#8fbc8f" d="M669.6126,-374.6774C703.7034,-363.1092 747.0774,-348.1023 755,-344 768.8585,-336.8241 783.0955,-327.1673 795.0111,-318.3238"/>
<polygon fill="#8fbc8f" stroke="#8fbc8f" points="797.3919,-320.9107 803.2387,-312.0752 793.1581,-315.3362 797.3919,-320.9107"/>
</g>
<!-- images -->
<g id="node11" class="node">
<title>images</title>
<g id="a_node11"><a xlink:href="https://subversion.vpro.nl/viewvc/nl/vpro/images/" xlink:title="Images Frontend &amp; Backend">
<ellipse fill="none" stroke="#caff70" cx="970" cy="-556" rx="115.8798" ry="18"/>
<text text-anchor="middle" x="970" y="-552.3" font-family="Times,serif" font-size="14.00" fill="#0000ff">Images Frontend &amp; Backend</text>
</a>
</g>
</g>
<!-- images&#45;&gt;poms_shared -->
<g id="edge20" class="edge">
<title>images&#45;&gt;poms_shared</title>
<path fill="none" stroke="#caff70" d="M907.7303,-540.7431C887.8122,-536.4843 865.5885,-532.3757 845,-530 822.6415,-527.4201 460.2097,-529.906 440,-520 359.1596,-480.3753 377.1537,-425.1311 312,-363 294.2125,-346.0377 272.1239,-329.5847 254.049,-317.1122"/>
<polygon fill="#caff70" stroke="#caff70" points="255.7724,-314.0517 245.5346,-311.3243 251.8371,-319.8408 255.7724,-314.0517"/>
</g>
<!-- images&#45;&gt;user_backend -->
<g id="edge21" class="edge">
<title>images&#45;&gt;user_backend</title>
<path fill="none" stroke="#caff70" d="M1029.0431,-540.4668C1046.7246,-534.5503 1062.8129,-527.4315 1068,-520 1087.3329,-492.302 1077.3659,-476.4533 1068,-444 1056.2041,-403.1266 1047.9567,-392.1798 1017,-363 982.2511,-330.2457 930.7841,-313.1405 889.7353,-304.281"/>
<polygon fill="#caff70" stroke="#caff70" points="890.3074,-300.8257 879.8093,-302.2536 888.9065,-307.6841 890.3074,-300.8257"/>
</g>
<!-- images&#45;&gt;spring -->
<g id="edge22" class="edge">
<title>images&#45;&gt;spring</title>
<path fill="none" stroke="#caff70" d="M1037.9709,-541.4098C1053.3021,-536.2025 1068.8995,-529.243 1082,-520 1096.9445,-509.456 1282,-276.7897 1282,-258.5 1282,-258.5 1282,-258.5 1282,-184 1282,-168.6983 1278.6042,-152.0019 1274.9414,-138.4436"/>
<polygon fill="#caff70" stroke="#caff70" points="1278.2818,-137.3954 1272.1403,-128.7622 1271.5576,-139.341 1278.2818,-137.3954"/>
</g>
<!-- images&#45;&gt;hibernate -->
<g id="edge23" class="edge">
<title>images&#45;&gt;hibernate</title>
<path fill="none" stroke="#caff70" d="M1039.4141,-541.5135C1057.5063,-537.751 1076.9808,-533.7127 1095,-530 1116.7694,-525.5146 1126.8562,-534.1462 1144,-520 1165.5179,-502.2446 1168,-489.8975 1168,-462 1168,-462 1168,-462 1168,-220.5 1168,-192.8892 1168.3219,-161.3638 1168.6004,-139.2521"/>
<polygon fill="#caff70" stroke="#caff70" points="1172.1005,-139.257 1168.732,-129.2119 1165.1011,-139.1651 1172.1005,-139.257"/>
</g>
<!-- magnolia -->
<g id="node18" class="node">
<title>magnolia</title>
<ellipse fill="none" stroke="#000000" cx="164" cy="-556" rx="44.6926" ry="18"/>
<text text-anchor="middle" x="164" y="-552.3" font-family="Times,serif" font-size="14.00" fill="#000000">magnolia</text>
</g>
<!-- magnolia&#45;&gt;vpro_shared -->
<g id="edge24" class="edge">
<title>magnolia&#45;&gt;vpro_shared</title>
<path fill="none" stroke="#8b8878" d="M135.6788,-541.8849C123.0949,-534.3069 109.1011,-523.8617 100,-511 77.2018,-478.7817 76,-464.9687 76,-425.5 76,-425.5 76,-425.5 76,-239.5 76,-220.1727 121.7357,-205.0026 161.6567,-195.4425"/>
<polygon fill="#8b8878" stroke="#8b8878" points="162.6941,-198.7951 171.6495,-193.1337 161.1182,-191.9748 162.6941,-198.7951"/>
</g>
<!-- magnolia&#45;&gt;poms_shared -->
<g id="edge25" class="edge">
<title>magnolia&#45;&gt;poms_shared</title>
<path fill="none" stroke="#8b8878" d="M200.4234,-545.3066C217.1068,-538.3829 235.2918,-527.4992 245,-511 280.2551,-451.0834 251.8514,-365.5952 233.132,-322.3309"/>
<polygon fill="#8b8878" stroke="#8b8878" points="236.2462,-320.7211 228.9686,-313.0214 229.8562,-323.579 236.2462,-320.7211"/>
</g>
<!-- magnolia&#45;&gt;api_client -->
<g id="edge26" class="edge">
<title>magnolia&#45;&gt;api_client</title>
<path fill="none" stroke="#8b8878" d="M168.8203,-537.8759C172.4171,-524.3516 177.3991,-505.6192 181.5129,-490.1514"/>
<polygon fill="#8b8878" stroke="#8b8878" points="185.0067,-490.6322 184.1945,-480.0685 178.2418,-488.833 185.0067,-490.6322"/>
</g>
<!-- vpro_rs -->
<g id="node19" class="node">
<title>vpro_rs</title>
<ellipse fill="none" stroke="#000000" cx="63" cy="-556" rx="38.1938" ry="18"/>
<text text-anchor="middle" x="63" y="-552.3" font-family="Times,serif" font-size="14.00" fill="#000000">vpro_rs</text>
</g>
<!-- vpro_rs&#45;&gt;vpro_shared -->
<g id="edge27" class="edge">
<title>vpro_rs&#45;&gt;vpro_shared</title>
<path fill="none" stroke="#8b8878" d="M43.7556,-540.1591C25.2285,-523.0147 0,-493.826 0,-462 0,-462 0,-462 0,-239.5 0,-207.2972 89.7416,-193.5898 154.5919,-187.8885"/>
<polygon fill="#8b8878" stroke="#8b8878" points="155.0938,-191.3589 164.7687,-187.0406 154.5126,-184.3831 155.0938,-191.3589"/>
</g>
<!-- vpro_rs&#45;&gt;poms_shared -->
<g id="edge28" class="edge">
<title>vpro_rs&#45;&gt;poms_shared</title>
<path fill="none" stroke="#8b8878" d="M58.1661,-538.0063C52.1155,-511.7445 44.5197,-462.0191 62,-425 86.0816,-374.0009 141.0669,-336.2568 179.36,-314.9429"/>
<polygon fill="#8b8878" stroke="#8b8878" points="181.102,-317.9798 188.2233,-310.1352 177.7644,-311.8267 181.102,-317.9798"/>
</g>
<!-- vpro_rs&#45;&gt;api_client -->
<g id="edge29" class="edge">
<title>vpro_rs&#45;&gt;api_client</title>
<path fill="none" stroke="#8b8878" d="M83.5245,-540.6881C104.0196,-525.398 135.7409,-501.733 159.0463,-484.3464"/>
<polygon fill="#8b8878" stroke="#8b8878" points="161.293,-487.037 167.2154,-478.252 157.1073,-481.4263 161.293,-487.037"/>
</g>
<!-- vpro_rs&#45;&gt;poms_shared_backend -->
<g id="edge30" class="edge">
<title>vpro_rs&#45;&gt;poms_shared_backend</title>
<path fill="none" stroke="#8b8878" d="M85.5993,-541.1067C93.082,-536.8393 101.6396,-532.6341 110,-530 186.7262,-505.8256 213.9653,-537.2686 290,-511 407.021,-470.5714 419.0218,-425.3222 526,-363 553.7109,-346.8565 585.4934,-329.7135 610.2053,-316.6787"/>
<polygon fill="#8b8878" stroke="#8b8878" points="612.0836,-319.6455 619.3069,-311.8948 608.8267,-313.4493 612.0836,-319.6455"/>
</g>
</g>
</svg>
