<?xml version="1.0" encoding="UTF-8" standalone="no"?>
<!DOCTYPE svg PUBLIC "-//W3C//DTD SVG 1.1//EN"
 "http://www.w3.org/Graphics/SVG/1.1/DTD/svg11.dtd">
<!-- Generated by graphviz version 2.40.1 (20161225.0304)
 -->
<!-- Title: poms_universe Pages: 1 -->
<svg width="1183pt" height="507pt"
 viewBox="0.00 0.00 1183.25 507.00" xmlns="http://www.w3.org/2000/svg" xmlns:xlink="http://www.w3.org/1999/xlink">
<g id="graph0" class="graph" transform="scale(1 1) rotate(0) translate(4 503)">
<title>poms_universe</title>
<polygon fill="#ffffff" stroke="transparent" points="-4,4 -4,-503 1179.2476,-503 1179.2476,4 -4,4"/>
<text text-anchor="middle" x="587.6238" y="-7.8" font-family="Times,serif" font-size="14.00" fill="#000000">Deployments relevant for POMS</text>
<g id="clust1" class="cluster">
<title>cluster_0</title>
<polygon fill="#f0ffff" stroke="#000000" points="416,-31 416,-178 1024,-178 1024,-31 416,-31"/>
<text text-anchor="middle" x="720" y="-162.8" font-family="Times,serif" font-size="14.00" fill="#000000">Generic backend services</text>
</g>
<g id="clust2" class="cluster">
<title>cluster_1</title>
<polygon fill="none" stroke="#000000" points="520,-344 520,-491 803,-491 803,-344 520,-344"/>
<text text-anchor="middle" x="661.5" y="-475.8" font-family="Times,serif" font-size="14.00" fill="#000000">World</text>
</g>
<g id="clust3" class="cluster">
<title>cluster_3</title>
<polygon fill="#f0ffff" stroke="#000000" points="437,-186 437,-336 1141,-336 1141,-186 437,-186"/>
<text text-anchor="middle" x="789" y="-320.8" font-family="Times,serif" font-size="14.00" fill="#000000">POMS &#160;Services</text>
</g>
<g id="clust4" class="cluster">
<title>cluster_4</title>
<polygon fill="none" stroke="#000000" points="8,-103 8,-261 378,-261 378,-103 8,-103"/>
<text text-anchor="middle" x="193" y="-245.8" font-family="Times,serif" font-size="14.00" fill="#000000">NPO Services</text>
</g>
<!-- poms -->
<g id="node1" class="node">
<title>poms</title>
<g id="a_node1"><a xlink:href="https://poms.omroep.nl/" xlink:title="POMS">
<ellipse fill="none" stroke="#000000" cx="474" cy="-287" rx="29.4969" ry="18"/>
<text text-anchor="middle" x="474" y="-283.3" font-family="Times,serif" font-size="14.00" fill="#0000ff">POMS</text>
</a>
</g>
</g>
<!-- postgresql -->
<g id="node8" class="node">
<title>postgresql</title>
<ellipse fill="none" stroke="#000000" cx="905" cy="-129" rx="38.9931" ry="18"/>
<text text-anchor="middle" x="905" y="-125.3" font-family="Times,serif" font-size="14.00" fill="#000000">postgresql</text>
</g>
<!-- poms&#45;&gt;postgresql -->
<g id="edge9" class="edge">
<title>poms&#45;&gt;postgresql</title>
<path fill="none" stroke="#cd950c" d="M495.957,-274.8076C501.0807,-272.4734 506.6168,-270.3419 512,-269 530.6714,-264.3458 668.4306,-270.7846 685,-261 718.671,-241.1166 697.5012,-206.1722 731,-186 755.035,-171.5267 831.4925,-189.6846 857,-178 868.5557,-172.7065 878.8195,-163.3093 886.8598,-154.1505"/>
<polygon fill="#cd950c" stroke="#cd950c" points="889.688,-156.2216 893.3299,-146.2724 884.2784,-151.779 889.688,-156.2216"/>
</g>
<!-- sso -->
<g id="node10" class="node">
<title>sso</title>
<ellipse fill="none" stroke="#000000" cx="989" cy="-129" rx="27" ry="18"/>
<text text-anchor="middle" x="989" y="-125.3" font-family="Times,serif" font-size="14.00" fill="#000000">sso</text>
</g>
<!-- poms&#45;&gt;sso -->
<g id="edge10" class="edge">
<title>poms&#45;&gt;sso</title>
<path fill="none" stroke="#cd950c" d="M495.949,-274.7751C501.0731,-272.4426 506.6114,-270.32 512,-269 557.3595,-257.8889 676.1533,-269.889 722,-261 829.0983,-240.2352 865.5658,-243.2418 953,-178 961.4141,-171.7216 968.7238,-162.9261 974.5175,-154.5168"/>
<polygon fill="#cd950c" stroke="#cd950c" points="977.5203,-156.3182 979.9889,-146.015 971.6339,-152.5299 977.5203,-156.3182"/>
</g>
<!-- jms -->
<g id="node11" class="node">
<title>jms</title>
<ellipse fill="none" stroke="#000000" cx="821" cy="-129" rx="27" ry="18"/>
<text text-anchor="middle" x="821" y="-125.3" font-family="Times,serif" font-size="14.00" fill="#000000">jms</text>
</g>
<!-- poms&#45;&gt;jms -->
<g id="edge11" class="edge">
<title>poms&#45;&gt;jms</title>
<path fill="none" stroke="#cd950c" d="M495.9688,-274.8542C501.0919,-272.5177 506.6247,-270.3733 512,-269 541.7621,-261.396 623.8774,-277.1622 650,-261 682.6749,-240.7838 660.6199,-206.6851 693,-186 727.588,-163.9044 749.2189,-198.1062 785,-178 794.289,-172.7803 801.8495,-164.0591 807.6006,-155.409"/>
<polygon fill="#cd950c" stroke="#cd950c" points="810.7644,-156.9403 812.9354,-146.5702 804.7714,-153.3231 810.7644,-156.9403"/>
</g>
<!-- ldap -->
<g id="node12" class="node">
<title>ldap</title>
<ellipse fill="none" stroke="#000000" cx="989" cy="-57" rx="27" ry="18"/>
<text text-anchor="middle" x="989" y="-53.3" font-family="Times,serif" font-size="14.00" fill="#000000">ldap</text>
</g>
<!-- poms&#45;&gt;ldap -->
<g id="edge12" class="edge">
<title>poms&#45;&gt;ldap</title>
<path fill="none" stroke="#cd950c" d="M461.5392,-270.3672C447.0522,-249.8919 423.9815,-213.4608 415,-178 406.8158,-145.687 392.3908,-127.4936 415,-103 433.2634,-83.2144 827.4186,-64.1475 951.7665,-58.6061"/>
<polygon fill="#cd950c" stroke="#cd950c" points="952.1,-62.0949 961.9355,-58.1564 951.7906,-55.1017 952.1,-62.0949"/>
</g>
<!-- metis -->
<g id="node20" class="node">
<title>metis</title>
<ellipse fill="none" stroke="#000000" cx="341" cy="-129" rx="27" ry="18"/>
<text text-anchor="middle" x="341" y="-125.3" font-family="Times,serif" font-size="14.00" fill="#000000">metis</text>
</g>
<!-- poms&#45;&gt;metis -->
<g id="edge13" class="edge">
<title>poms&#45;&gt;metis</title>
<path fill="none" stroke="#cd950c" d="M448.5781,-277.8898C439.4513,-273.7422 429.5575,-268.139 422,-261 394.0684,-234.615 399.2237,-218.6703 379,-186 372.4818,-175.4703 364.9795,-164.0764 358.3719,-154.2633"/>
<polygon fill="#cd950c" stroke="#cd950c" points="361.1186,-152.0777 352.6091,-145.7658 355.3252,-156.0066 361.1186,-152.0777"/>
</g>
<!-- pd -->
<g id="node21" class="node">
<title>pd</title>
<ellipse fill="none" stroke="#000000" cx="43" cy="-212" rx="27" ry="18"/>
<text text-anchor="middle" x="43" y="-208.3" font-family="Times,serif" font-size="14.00" fill="#000000">pd</text>
</g>
<!-- poms&#45;&gt;pd -->
<g id="edge14" class="edge">
<title>poms&#45;&gt;pd</title>
<path fill="none" stroke="#cd950c" d="M444.6223,-286.4877C358.5138,-284.7892 110.7892,-278.4263 79,-261 69.5584,-255.8243 61.9255,-246.9941 56.1588,-238.2432"/>
<polygon fill="#cd950c" stroke="#cd950c" points="59.1573,-236.4378 51.0164,-229.6571 53.152,-240.0345 59.1573,-236.4378"/>
</g>
<!-- prepr -->
<g id="node22" class="node">
<title>prepr</title>
<ellipse fill="none" stroke="#000000" cx="343" cy="-212" rx="27" ry="18"/>
<text text-anchor="middle" x="343" y="-208.3" font-family="Times,serif" font-size="14.00" fill="#000000">prepr</text>
</g>
<!-- poms&#45;&gt;prepr -->
<g id="edge15" class="edge">
<title>poms&#45;&gt;prepr</title>
<path fill="none" stroke="#cd950c" d="M445.0156,-283.1007C426.4163,-279.564 402.394,-272.9893 384,-261 374.423,-254.7577 365.912,-245.5997 359.1609,-236.8855"/>
<polygon fill="#cd950c" stroke="#cd950c" points="361.9688,-234.7958 353.2501,-228.7762 356.312,-238.919 361.9688,-234.7958"/>
</g>
<!-- miranda -->
<g id="node23" class="node">
<title>miranda</title>
<ellipse fill="none" stroke="#000000" cx="265" cy="-212" rx="33.2948" ry="18"/>
<text text-anchor="middle" x="265" y="-208.3" font-family="Times,serif" font-size="14.00" fill="#000000">miranda</text>
</g>
<!-- poms&#45;&gt;miranda -->
<g id="edge16" class="edge">
<title>poms&#45;&gt;miranda</title>
<path fill="none" stroke="#cd950c" d="M444.6832,-284.8844C403.2596,-281.4854 330.0693,-273.8528 307,-261 296.9125,-255.3798 288.14,-246.3431 281.2586,-237.5517"/>
<polygon fill="#cd950c" stroke="#cd950c" points="283.9768,-235.3387 275.2593,-229.3175 278.3191,-239.4608 283.9768,-235.3387"/>
</g>
<!-- pluto -->
<g id="node24" class="node">
<title>pluto</title>
<ellipse fill="none" stroke="#000000" cx="187" cy="-212" rx="27" ry="18"/>
<text text-anchor="middle" x="187" y="-208.3" font-family="Times,serif" font-size="14.00" fill="#000000">pluto</text>
</g>
<!-- poms&#45;&gt;pluto -->
<g id="edge17" class="edge">
<title>poms&#45;&gt;pluto</title>
<path fill="none" stroke="#cd950c" d="M444.5551,-285.2897C382.3833,-281.4863 241.8648,-271.806 223,-261 213.7544,-255.704 206.203,-246.9666 200.4471,-238.325"/>
<polygon fill="#cd950c" stroke="#cd950c" points="203.2777,-236.2424 195.1031,-229.5024 197.2904,-239.869 203.2777,-236.2424"/>
</g>
<!-- nep -->
<g id="node25" class="node">
<title>nep</title>
<ellipse fill="none" stroke="#000000" cx="115" cy="-212" rx="27" ry="18"/>
<text text-anchor="middle" x="115" y="-208.3" font-family="Times,serif" font-size="14.00" fill="#000000">nep</text>
</g>
<!-- poms&#45;&gt;nep -->
<g id="edge18" class="edge">
<title>poms&#45;&gt;nep</title>
<path fill="none" stroke="#cd950c" d="M444.7444,-286.027C370.0338,-283.3481 176.3036,-275.112 151,-261 141.5964,-255.7555 133.9712,-246.9114 128.2001,-238.1686"/>
<polygon fill="#cd950c" stroke="#cd950c" points="131.2002,-236.3659 123.0498,-229.5967 125.1999,-239.9711 131.2002,-236.3659"/>
</g>
<!-- poms_backend -->
<g id="node2" class="node">
<title>poms_backend</title>
<g id="a_node2"><a xlink:href="https://api.poms.omroep.nl/" xlink:title="POMS backend API">
<ellipse fill="none" stroke="#000000" cx="733" cy="-287" rx="66.0889" ry="18"/>
<text text-anchor="middle" x="733" y="-283.3" font-family="Times,serif" font-size="14.00" fill="#0000ff">POMS backend API</text>
</a>
</g>
</g>
<!-- poms_backend&#45;&gt;jms -->
<g id="edge19" class="edge">
<title>poms_backend&#45;&gt;jms</title>
<path fill="none" stroke="#ff7f00" d="M780.4411,-274.2621C786.7327,-270.8326 792.5376,-266.4914 797,-261 820.8361,-231.6673 824.0973,-186.4849 823.29,-157.3314"/>
<polygon fill="#ff7f00" stroke="#ff7f00" points="826.7712,-156.8381 822.8158,-147.0093 819.7785,-157.1594 826.7712,-156.8381"/>
</g>
<!-- poms_backend&#45;&gt;ldap -->
<g id="edge20" class="edge">
<title>poms_backend&#45;&gt;ldap</title>
<path fill="none" stroke="#ff7f00" d="M781.0265,-274.4168C794.7087,-270.4846 809.5474,-265.8856 823,-261 900.6214,-232.81 914.8804,-212.7784 993,-186 1006.8678,-181.2463 1015.9781,-189.555 1025,-178 1045.5137,-151.7265 1035.8652,-134.5128 1025,-103 1022.1015,-94.5932 1016.9648,-86.5486 1011.4634,-79.6043"/>
<polygon fill="#ff7f00" stroke="#ff7f00" points="1014.1142,-77.3188 1004.9499,-72.0021 1008.7984,-81.8732 1014.1142,-77.3188"/>
</g>
<!-- poms_backend&#45;&gt;metis -->
<g id="edge21" class="edge">
<title>poms_backend&#45;&gt;metis</title>
<path fill="none" stroke="#ff7f00" d="M685.6378,-274.2892C676.5219,-272.2253 667.0078,-270.3312 658,-269 627.6119,-264.509 548.8908,-271.4367 520,-261 502.6858,-254.7453 411.8303,-184.5547 366.6124,-149.1584"/>
<polygon fill="#ff7f00" stroke="#ff7f00" points="368.4993,-146.1903 358.4702,-142.7746 364.1803,-151.699 368.4993,-146.1903"/>
</g>
<!-- api -->
<g id="node3" class="node">
<title>api</title>
<g id="a_node3"><a xlink:href="https://rs.poms.omroep.nl/" xlink:title="NPO Frontend API">
<ellipse fill="none" stroke="#000000" cx="585" cy="-287" rx="63.8893" ry="18"/>
<text text-anchor="middle" x="585" y="-283.3" font-family="Times,serif" font-size="14.00" fill="#0000ff">NPO Frontend API</text>
</a>
</g>
</g>
<!-- elasticsearch -->
<g id="node9" class="node">
<title>elasticsearch</title>
<ellipse fill="none" stroke="#000000" cx="731" cy="-129" rx="45.4919" ry="18"/>
<text text-anchor="middle" x="731" y="-125.3" font-family="Times,serif" font-size="14.00" fill="#000000">elasticsearch</text>
</g>
<!-- api&#45;&gt;elasticsearch -->
<g id="edge22" class="edge">
<title>api&#45;&gt;elasticsearch</title>
<path fill="none" stroke="#6495ed" d="M629.1317,-273.8378C636.5761,-270.4031 643.8671,-266.1705 650,-261 683.9826,-232.3502 707.8532,-185.6583 720.5009,-156.1726"/>
<polygon fill="#6495ed" stroke="#6495ed" points="723.7555,-157.4613 724.3582,-146.8836 717.2907,-154.7767 723.7555,-157.4613"/>
</g>
<!-- pages_publish -->
<g id="node4" class="node">
<title>pages_publish</title>
<g id="a_node4"><a xlink:href="https://publish.pages.omroep.nl/" xlink:title="Pages Publisher">
<ellipse fill="none" stroke="#000000" cx="871" cy="-287" rx="53.8905" ry="18"/>
<text text-anchor="middle" x="871" y="-283.3" font-family="Times,serif" font-size="14.00" fill="#0000ff">Pages Publisher</text>
</a>
</g>
</g>
<!-- media_publish -->
<g id="node5" class="node">
<title>media_publish</title>
<ellipse fill="none" stroke="#000000" cx="585" cy="-212" rx="55.7903" ry="18"/>
<text text-anchor="middle" x="585" y="-208.3" font-family="Times,serif" font-size="14.00" fill="#000000">Media Publisher</text>
</g>
<!-- pages_publish&#45;&gt;media_publish -->
<g id="edge27" class="edge">
<title>pages_publish&#45;&gt;media_publish</title>
<path fill="none" stroke="#c0c0c0" d="M830.0409,-275.1173C822.7115,-273.0423 815.1372,-270.9313 808,-269 746.2837,-252.2994 674.6034,-234.2089 629.522,-222.9896"/>
</g>
<!-- pages_publish&#45;&gt;elasticsearch -->
<g id="edge23" class="edge">
<title>pages_publish&#45;&gt;elasticsearch</title>
<path fill="none" stroke="#8fbc8f" d="M860.5979,-269.112C847.5734,-247.7018 823.7028,-211.5448 797,-186 792.3682,-181.5691 790.0541,-181.9424 785,-178 775.1181,-170.2918 764.8034,-161.2173 755.8686,-152.9862"/>
<polygon fill="#8fbc8f" stroke="#8fbc8f" points="758.1142,-150.2944 748.4175,-146.0253 753.3356,-155.4096 758.1142,-150.2944"/>
</g>
<!-- pages_publish&#45;&gt;ldap -->
<g id="edge24" class="edge">
<title>pages_publish&#45;&gt;ldap</title>
<path fill="none" stroke="#8fbc8f" d="M910.4666,-274.5838C917.9028,-272.5179 925.6516,-270.5475 933,-269 959.3253,-263.4563 969.6465,-274.3555 993,-261 1033.6733,-237.7397 1042.7202,-222.2932 1058,-178 1068.8703,-146.4889 1073.7286,-132.3892 1058,-103 1050.2725,-88.561 1035.7892,-77.8716 1022.0795,-70.4503"/>
<polygon fill="#8fbc8f" stroke="#8fbc8f" points="1023.3157,-67.1559 1012.8043,-65.8287 1020.1938,-73.4212 1023.3157,-67.1559"/>
</g>
<!-- media_publish&#45;&gt;elasticsearch -->
<g id="edge25" class="edge">
<title>media_publish&#45;&gt;elasticsearch</title>
<path fill="none" stroke="#bf3eff" d="M621.6753,-198.3238C632.4101,-194.3354 644.1703,-189.9802 655,-186 664.7655,-182.4109 668.0914,-183.3744 677,-178 688.1783,-171.2563 699.1134,-161.9944 708.1873,-153.3373"/>
<polygon fill="#bf3eff" stroke="#bf3eff" points="710.6811,-155.7937 715.3361,-146.2763 705.762,-150.8135 710.6811,-155.7937"/>
</g>
<!-- media_publish&#45;&gt;jms -->
<g id="edge26" class="edge">
<title>media_publish&#45;&gt;jms</title>
<path fill="none" stroke="#bf3eff" d="M618.2288,-197.3827C629.668,-192.9669 642.6974,-188.6035 655,-186 683.3164,-180.0075 759.5901,-191.8588 785,-178 794.4526,-172.8444 802.0878,-164.0183 807.8532,-155.2651"/>
<polygon fill="#bf3eff" stroke="#bf3eff" points="810.862,-157.0531 812.9933,-146.6749 804.8552,-153.4588 810.862,-157.0531"/>
</g>
<!-- images_frontend -->
<g id="node6" class="node">
<title>images_frontend</title>
<g id="a_node6"><a xlink:href="https://images.poms.omroep.nl" xlink:title="Images">
<ellipse fill="none" stroke="#000000" cx="973" cy="-287" rx="30.5947" ry="18"/>
<text text-anchor="middle" x="973" y="-283.3" font-family="Times,serif" font-size="14.00" fill="#0000ff">Images</text>
</a>
</g>
</g>
<!-- images_frontend&#45;&gt;postgresql -->
<g id="edge28" class="edge">
<title>images_frontend&#45;&gt;postgresql</title>
<path fill="none" stroke="#caff70" d="M965.463,-269.4875C953.6801,-242.1096 930.8002,-188.9475 916.813,-156.4478"/>
<polygon fill="#caff70" stroke="#caff70" points="919.9479,-154.8783 912.7798,-147.0765 913.5181,-157.6456 919.9479,-154.8783"/>
</g>
<!-- images_backend -->
<g id="node7" class="node">
<title>images_backend</title>
<g id="a_node7"><a xlink:href="https://images-backend.poms.omroep.nl" xlink:title="Images Backend">
<ellipse fill="none" stroke="#000000" cx="1077" cy="-287" rx="55.7903" ry="18"/>
<text text-anchor="middle" x="1077" y="-283.3" font-family="Times,serif" font-size="14.00" fill="#0000ff">Images Backend</text>
</a>
</g>
</g>
<!-- images_backend&#45;&gt;postgresql -->
<g id="edge29" class="edge">
<title>images_backend&#45;&gt;postgresql</title>
<path fill="none" stroke="#caff70" d="M1046.976,-271.7291C1041.4748,-268.4631 1035.922,-264.8322 1031,-261 1008.7833,-243.7023 956.6734,-186.7879 926.8929,-153.6107"/>
<polygon fill="#caff70" stroke="#caff70" points="929.4659,-151.2374 920.1879,-146.1217 924.2507,-155.9066 929.4659,-151.2374"/>
</g>
<!-- images_backend&#45;&gt;sso -->
<g id="edge30" class="edge">
<title>images_backend&#45;&gt;sso</title>
<path fill="none" stroke="#caff70" d="M1070.0967,-268.9254C1061.9089,-248.2709 1047.2999,-213.7431 1031,-186 1024.3539,-174.688 1015.9488,-162.9003 1008.4067,-152.9999"/>
<polygon fill="#caff70" stroke="#caff70" points="1010.9678,-150.5916 1002.067,-144.8447 1005.4413,-154.8879 1010.9678,-150.5916"/>
</g>
<!-- images_backend&#45;&gt;jms -->
<g id="edge31" class="edge">
<title>images_backend&#45;&gt;jms</title>
<path fill="none" stroke="#caff70" d="M1036.2356,-274.6353C1028.5619,-272.5643 1020.5704,-270.5789 1013,-269 987.5263,-263.6871 978.7614,-271.6081 955,-261 903.2131,-237.8802 860.0198,-185.3787 837.5944,-154.0014"/>
<polygon fill="#caff70" stroke="#caff70" points="840.4274,-151.9452 831.8301,-145.7536 834.6898,-155.9552 840.4274,-151.9452"/>
</g>
<!-- images_backend&#45;&gt;ldap -->
<g id="edge32" class="edge">
<title>images_backend&#45;&gt;ldap</title>
<path fill="none" stroke="#caff70" d="M1085.8333,-269.0058C1101.6869,-233.8702 1130.2672,-155.0314 1096,-103 1080.5271,-79.506 1050.27,-67.962 1025.8676,-62.3183"/>
<polygon fill="#caff70" stroke="#caff70" points="1026.3296,-58.8399 1015.8281,-60.2432 1024.9126,-65.695 1026.3296,-58.8399"/>
</g>
<!-- sso&#45;&gt;ldap -->
<g id="edge36" class="edge">
<title>sso&#45;&gt;ldap</title>
<path fill="none" stroke="#c0c0c0" d="M989,-110.8314C989,-103.131 989,-93.9743 989,-85.4166"/>
<polygon fill="#c0c0c0" stroke="#c0c0c0" points="992.5001,-85.4132 989,-75.4133 985.5001,-85.4133 992.5001,-85.4132"/>
</g>
<!-- keycloak -->
<g id="node13" class="node">
<title>keycloak</title>
<ellipse fill="none" stroke="#000000" cx="582" cy="-129" rx="85.5853" ry="18"/>
<text text-anchor="middle" x="582" y="-125.3" font-family="Times,serif" font-size="14.00" fill="#000000">Keycloak (will replace sso)</text>
</g>
<!-- gosa -->
<g id="node14" class="node">
<title>gosa</title>
<g id="a_node14"><a xlink:href="https://admin.sso.omroep.nl/" xlink:title="GOSa">
<ellipse fill="none" stroke="#000000" cx="451" cy="-129" rx="27.0966" ry="18"/>
<text text-anchor="middle" x="451" y="-125.3" font-family="Times,serif" font-size="14.00" fill="#000000">GOSa</text>
</a>
</g>
</g>
<!-- gosa&#45;&gt;ldap -->
<g id="edge39" class="edge">
<title>gosa&#45;&gt;ldap</title>
<path fill="none" stroke="#000000" d="M467.4873,-114.2692C473.2739,-109.9017 480.0692,-105.5964 487,-103 572.2892,-71.0495 850.7205,-60.6457 951.8584,-57.8721"/>
<polygon fill="#000000" stroke="#000000" points="952.0097,-61.3695 961.9134,-57.6057 951.8242,-54.3719 952.0097,-61.3695"/>
</g>
<!-- magnolia_frontend -->
<g id="node15" class="node">
<title>magnolia_frontend</title>
<ellipse fill="none" stroke="#000000" cx="590" cy="-370" rx="62.2891" ry="18"/>
<text text-anchor="middle" x="590" y="-366.3" font-family="Times,serif" font-size="14.00" fill="#000000">magnolia_frontend</text>
</g>
<!-- magnolia_frontend&#45;&gt;api -->
<g id="edge35" class="edge">
<title>magnolia_frontend&#45;&gt;api</title>
<path fill="none" stroke="#c0c0c0" d="M588.9151,-351.9902C588.2709,-341.2963 587.4397,-327.4994 586.7091,-315.3706"/>
<polygon fill="#c0c0c0" stroke="#c0c0c0" points="590.1952,-315.0326 586.1001,-305.2612 583.2078,-315.4536 590.1952,-315.0326"/>
</g>
<!-- magnolia_backend -->
<g id="node16" class="node">
<title>magnolia_backend</title>
<ellipse fill="none" stroke="#000000" cx="733" cy="-370" rx="62.2891" ry="18"/>
<text text-anchor="middle" x="733" y="-366.3" font-family="Times,serif" font-size="14.00" fill="#000000">magnolia_backend</text>
</g>
<!-- magnolia_backend&#45;&gt;poms_backend -->
<g id="edge33" class="edge">
<title>magnolia_backend&#45;&gt;poms_backend</title>
<path fill="none" stroke="#c0c0c0" d="M733,-351.9902C733,-341.2963 733,-327.4994 733,-315.3706"/>
<polygon fill="#c0c0c0" stroke="#c0c0c0" points="736.5001,-315.2612 733,-305.2612 729.5001,-315.2613 736.5001,-315.2612"/>
</g>
<!-- magnolia_backend&#45;&gt;pages_publish -->
<g id="edge34" class="edge">
<title>magnolia_backend&#45;&gt;pages_publish</title>
<path fill="none" stroke="#c0c0c0" d="M769.7373,-355.4102C782.2055,-349.9234 796.0072,-343.2433 808,-336 820.3816,-328.5219 833.1411,-318.9948 843.9115,-310.3332"/>
<polygon fill="#c0c0c0" stroke="#c0c0c0" points="846.2093,-312.9752 851.7207,-303.9267 841.7695,-307.5633 846.2093,-312.9752"/>
</g>
<!-- users -->
<g id="node17" class="node">
<title>users</title>
<ellipse fill="none" stroke="#000000" cx="564" cy="-442" rx="27" ry="18"/>
<text text-anchor="middle" x="564" y="-438.3" font-family="Times,serif" font-size="14.00" fill="#000000">users</text>
</g>
<!-- users&#45;&gt;api -->
<g id="edge4" class="edge">
<title>users&#45;&gt;api</title>
<path fill="none" stroke="#c0c0c0" d="M584.8866,-430.2887C589.7362,-427.9297 594.9575,-425.6663 600,-424 687.4181,-395.112 744.825,-458.532 804,-388 816.569,-373.0187 817.4443,-358.2011 804,-344 792.8306,-332.2019 673.4067,-341.1561 658,-336 641.614,-330.5162 625.4453,-320.3008 612.5059,-310.6107"/>
<polygon fill="#c0c0c0" stroke="#c0c0c0" points="614.5391,-307.7579 604.4993,-304.3738 610.2374,-313.2802 614.5391,-307.7579"/>
</g>
<!-- users&#45;&gt;images_frontend -->
<g id="edge5" class="edge">
<title>users&#45;&gt;images_frontend</title>
<path fill="none" stroke="#c0c0c0" d="M584.8696,-430.2367C589.7201,-427.8803 594.9461,-425.6312 600,-424 746.0895,-376.8481 813.3528,-430.9193 934,-336 942.3714,-329.4138 950.0471,-320.6924 956.3336,-312.4346"/>
<polygon fill="#c0c0c0" stroke="#c0c0c0" points="959.3321,-314.261 962.3528,-304.1059 953.6586,-310.1607 959.3321,-314.261"/>
</g>
<!-- users&#45;&gt;magnolia_frontend -->
<g id="edge6" class="edge">
<title>users&#45;&gt;magnolia_frontend</title>
<path fill="none" stroke="#c0c0c0" d="M570.427,-424.2022C573.3114,-416.2146 576.7817,-406.6045 579.9941,-397.7087"/>
<polygon fill="#c0c0c0" stroke="#c0c0c0" points="583.3618,-398.6874 583.4664,-388.0931 576.7779,-396.3099 583.3618,-398.6874"/>
</g>
<!-- backendsystems -->
<g id="node18" class="node">
<title>backendsystems</title>
<ellipse fill="none" stroke="#000000" cx="740" cy="-442" rx="55.4913" ry="18"/>
<text text-anchor="middle" x="740" y="-438.3" font-family="Times,serif" font-size="14.00" fill="#000000">backendsystems</text>
</g>
<!-- backendsystems&#45;&gt;poms_backend -->
<g id="edge7" class="edge">
<title>backendsystems&#45;&gt;poms_backend</title>
<path fill="none" stroke="#c0c0c0" d="M791.8672,-435.5347C821.5449,-428.8812 856.461,-415.3828 875,-388 885.9634,-371.8067 887.9823,-358.6246 875,-344 865.0455,-332.7862 822.0918,-341.1244 808,-336 791.573,-330.0264 775.115,-319.8545 761.8189,-310.3215"/>
<polygon fill="#c0c0c0" stroke="#c0c0c0" points="763.6863,-307.3488 753.5703,-304.1997 759.5146,-312.9699 763.6863,-307.3488"/>
</g>
<!-- backendsystems&#45;&gt;pages_publish -->
<g id="edge8" class="edge">
<title>backendsystems&#45;&gt;pages_publish</title>
<path fill="none" stroke="#c0c0c0" d="M785.9898,-431.9285C826.2712,-422.0648 880.31,-405.9361 893,-388 908.4395,-366.1779 898.4632,-335.5557 887.4209,-313.7625"/>
<polygon fill="#c0c0c0" stroke="#c0c0c0" points="890.3666,-311.852 882.5276,-304.7247 884.211,-315.1849 890.3666,-311.852"/>
</g>
<!-- editors -->
<g id="node19" class="node">
<title>editors</title>
<ellipse fill="none" stroke="#000000" cx="638" cy="-442" rx="29.4969" ry="18"/>
<text text-anchor="middle" x="638" y="-438.3" font-family="Times,serif" font-size="14.00" fill="#000000">editors</text>
</g>
<!-- editors&#45;&gt;poms -->
<g id="edge1" class="edge">
<title>editors&#45;&gt;poms</title>
<path fill="none" stroke="#c0c0c0" d="M660.6393,-430.5148C665.6316,-428.1974 670.9411,-425.8942 676,-424 731.3437,-403.2776 768.3152,-435.1056 804,-388 815.8085,-372.4122 817.6372,-358.0159 804,-344 792.6831,-332.3688 526.4739,-343.3391 512,-336 502.0624,-330.9611 493.949,-321.9872 487.8091,-313.0839"/>
<polygon fill="#c0c0c0" stroke="#c0c0c0" points="490.6111,-310.9642 482.3325,-304.3524 484.681,-314.6837 490.6111,-310.9642"/>
</g>
<!-- editors&#45;&gt;sso -->
<g id="edge2" class="edge">
<title>editors&#45;&gt;sso</title>
<path fill="none" stroke="#c0c0c0" d="M660.4942,-430.0926C665.4956,-427.8015 670.8454,-425.6158 676,-424 878.3725,-360.5638 1010.9787,-500.3687 1145,-336 1187.1288,-284.3317 1183.2043,-240.634 1145,-186 1130.8795,-165.807 1066.0832,-147.171 1024.5681,-137.0132"/>
<polygon fill="#c0c0c0" stroke="#c0c0c0" points="1025.3555,-133.6028 1014.8153,-134.6773 1023.725,-140.4103 1025.3555,-133.6028"/>
</g>
<!-- editors&#45;&gt;magnolia_backend -->
<g id="edge3" class="edge">
<title>editors&#45;&gt;magnolia_backend</title>
<path fill="none" stroke="#c0c0c0" d="M656.7689,-427.7751C669.8177,-417.8855 687.5,-404.4842 702.5496,-393.0782"/>
<polygon fill="#c0c0c0" stroke="#c0c0c0" points="704.7378,-395.8114 710.5935,-386.9818 700.5097,-390.2326 704.7378,-395.8114"/>
</g>
<!-- pd&#45;&gt;metis -->
<g id="edge38" class="edge">
<title>pd&#45;&gt;metis</title>
<path fill="none" stroke="#c0c0c0" d="M59.6894,-197.762C65.4895,-193.4274 72.2416,-189.0169 79,-186 154.5582,-152.2712 251.5049,-137.9006 303.7095,-132.2669"/>
<polygon fill="#c0c0c0" stroke="#c0c0c0" points="304.2517,-135.7297 313.8405,-131.2235 303.5345,-128.7665 304.2517,-135.7297"/>
</g>
<!-- prepr&#45;&gt;metis -->
<g id="edge37" class="edge">
<title>prepr&#45;&gt;metis</title>
<path fill="none" stroke="#c0c0c0" d="M342.566,-193.9902C342.3083,-183.2963 341.9759,-169.4994 341.6836,-157.3706"/>
<polygon fill="#c0c0c0" stroke="#c0c0c0" points="345.18,-157.174 341.44,-147.2612 338.182,-157.3427 345.18,-157.174"/>
</g>
</g>
</svg>
