<?xml version="1.0" encoding="UTF-8" standalone="no"?>
<!DOCTYPE svg PUBLIC "-//W3C//DTD SVG 1.1//EN"
 "http://www.w3.org/Graphics/SVG/1.1/DTD/svg11.dtd">
<!-- Generated by graphviz version 2.40.1 (20161225.0304)
 -->
<!-- Title: %3 Pages: 1 -->
<svg width="759pt" height="633pt"
 viewBox="0.00 0.00 759.00 633.00" xmlns="http://www.w3.org/2000/svg" xmlns:xlink="http://www.w3.org/1999/xlink">
<g id="graph0" class="graph" transform="scale(1 1) rotate(0) translate(4 629)">
<title>%3</title>
<polygon fill="#ffffff" stroke="transparent" points="-4,4 -4,-629 755,-629 755,4 -4,4"/>
<text text-anchor="middle" x="375.5" y="-7.8" font-family="Times,serif" font-size="14.00" fill="#000000"> &#160;Dependencies of the different code projects relevant to POMS</text>
<g id="clust1" class="cluster">
<title>cluster_0</title>
<polygon fill="none" stroke="#000000" points="65,-47 65,-137 534,-137 534,-47 65,-47"/>
<text text-anchor="middle" x="299.5" y="-121.8" font-family="Times,serif" font-size="14.00" fill="#000000">Generic utilities</text>
<text text-anchor="middle" x="299.5" y="-106.8" font-family="Times,serif" font-size="14.00" fill="#000000">(incoming edges are just examples, there are more)</text>
</g>
<g id="clust2" class="cluster">
<title>cluster_1</title>
<polygon fill="none" stroke="#000000" points="565,-542 565,-617 653,-617 653,-542 565,-542"/>
<text text-anchor="middle" x="609" y="-601.8" font-family="Times,serif" font-size="14.00" fill="#000000">VPRO</text>
</g>
<g id="clust3" class="cluster">
<title>cluster_2</title>
<polygon fill="none" stroke="#000000" points="8,-229 8,-617 344,-617 344,-229 8,-229"/>
<text text-anchor="middle" x="176" y="-601.8" font-family="Times,serif" font-size="14.00" fill="#000000">POMS Services</text>
</g>
<g id="clust4" class="cluster">
<title>cluster_4</title>
<polygon fill="none" stroke="#000000" points="525,-156 525,-523 655,-523 655,-156 525,-156"/>
<text text-anchor="middle" x="590" y="-507.8" font-family="Times,serif" font-size="14.00" fill="#000000">Sharable utilities</text>
</g>
<!-- vpro_shared -->
<g id="node1" class="node">
<title>vpro_shared</title>
<g id="a_node1"><a xlink:href="https://github.com/vpro/vpro-shared" xlink:title="vpro_shared">
<ellipse fill="none" stroke="#000000" cx="597" cy="-182" rx="44.393" ry="18"/>
<text text-anchor="middle" x="597" y="-178.3" font-family="Times,serif" font-size="14.00" fill="#0000ff">vpro_shared</text>
</a>
</g>
</g>
<!-- slf4j -->
<g id="node10" class="node">
<title>slf4j</title>
<ellipse fill="none" stroke="#000000" cx="344" cy="-73" rx="27" ry="18"/>
<text text-anchor="middle" x="344" y="-69.3" font-family="Times,serif" font-size="14.00" fill="#000000">slf4j</text>
</g>
<!-- vpro_shared&#45;&gt;slf4j -->
<g id="edge1" class="edge">
<title>vpro_shared&#45;&gt;slf4j</title>
<path fill="none" stroke="#c0c0c0" d="M554.2072,-177.3616C499.1233,-170.6829 407.2519,-156.93 380,-137 367.6181,-127.9448 358.9225,-113.2625 353.1833,-100.2436"/>
<polygon fill="#c0c0c0" stroke="#c0c0c0" points="356.3371,-98.705 349.3588,-90.7329 349.8425,-101.3167 356.3371,-98.705"/>
</g>
<!-- guava -->
<g id="node11" class="node">
<title>guava</title>
<ellipse fill="none" stroke="#000000" cx="499" cy="-73" rx="27.0966" ry="18"/>
<text text-anchor="middle" x="499" y="-69.3" font-family="Times,serif" font-size="14.00" fill="#000000">guava</text>
</g>
<!-- vpro_shared&#45;&gt;guava -->
<g id="edge2" class="edge">
<title>vpro_shared&#45;&gt;guava</title>
<path fill="none" stroke="#c0c0c0" d="M581.6875,-164.9688C565.0539,-146.4682 538.3823,-116.8027 519.8461,-96.1859"/>
<polygon fill="#c0c0c0" stroke="#c0c0c0" points="522.2256,-93.5976 512.9369,-88.5013 517.0201,-98.2777 522.2256,-93.5976"/>
</g>
<!-- poms_shared -->
<g id="node2" class="node">
<title>poms_shared</title>
<g id="a_node2"><a xlink:href="https://github.com/npo-poms/poms-shared" xlink:title="poms_shared">
<ellipse fill="none" stroke="#000000" cx="580" cy="-328" rx="46.5926" ry="18"/>
<text text-anchor="middle" x="580" y="-324.3" font-family="Times,serif" font-size="14.00" fill="#0000ff">poms_shared</text>
</a>
</g>
</g>
<!-- poms_shared&#45;&gt;vpro_shared -->
<g id="edge3" class="edge">
<title>poms_shared&#45;&gt;vpro_shared</title>
<path fill="none" stroke="#c0c0c0" d="M582.1187,-309.8042C585.02,-284.8868 590.2589,-239.8938 593.6829,-210.4877"/>
<polygon fill="#c0c0c0" stroke="#c0c0c0" points="597.1745,-210.7628 594.8546,-200.4251 590.2214,-209.9532 597.1745,-210.7628"/>
</g>
<!-- api_client -->
<g id="node3" class="node">
<title>api_client</title>
<g id="a_node3"><a xlink:href="https://github.com/npo-poms/api-client" xlink:title="api_client">
<ellipse fill="none" stroke="#000000" cx="609" cy="-474" rx="37.8943" ry="18"/>
<text text-anchor="middle" x="609" y="-470.3" font-family="Times,serif" font-size="14.00" fill="#0000ff">api_client</text>
</a>
</g>
</g>
<!-- api_client&#45;&gt;vpro_shared -->
<g id="edge17" class="edge">
<title>api_client&#45;&gt;vpro_shared</title>
<path fill="none" stroke="#c0c0c0" d="M623.1993,-457.213C633.6335,-443.1416 646,-422.0287 646,-401 646,-401 646,-401 646,-255 646,-236.5449 635.0702,-219.2389 623.5346,-206.1131"/>
<polygon fill="#c0c0c0" stroke="#c0c0c0" points="625.7721,-203.3841 616.3661,-198.5078 620.6782,-208.1854 625.7721,-203.3841"/>
</g>
<!-- api_client&#45;&gt;poms_shared -->
<g id="edge18" class="edge">
<title>api_client&#45;&gt;poms_shared</title>
<path fill="none" stroke="#c0c0c0" d="M605.3858,-455.8042C600.4094,-430.7506 591.4017,-385.4015 585.563,-356.007"/>
<polygon fill="#c0c0c0" stroke="#c0c0c0" points="588.9499,-355.0929 583.5687,-345.9665 582.0841,-356.4568 588.9499,-355.0929"/>
</g>
<!-- poms_backend -->
<g id="node4" class="node">
<title>poms_backend</title>
<g id="a_node4"><a xlink:href="https://subversion.vpro.nl/viewvc/nl/vpro/media" xlink:title="POMS &#160;&amp; POMS Backend API">
<ellipse fill="none" stroke="#000000" cx="113" cy="-401" rx="96.6831" ry="18"/>
<text text-anchor="middle" x="113" y="-397.3" font-family="Times,serif" font-size="14.00" fill="#0000ff">POMS &#160;&amp; POMS Backend API</text>
</a>
</g>
</g>
<!-- poms_backend&#45;&gt;vpro_shared -->
<g id="edge22" class="edge">
<title>poms_backend&#45;&gt;vpro_shared</title>
<path fill="none" stroke="#cd950c" d="M183.5354,-388.6084C234.3408,-379.4911 294.8344,-368.1579 300,-365 326.4734,-348.8159 319.4655,-330.221 343,-310 398.6955,-262.146 421.1406,-261.4736 487,-229 509.19,-218.0587 534.549,-207.1223 555.3221,-198.5557"/>
<polygon fill="#cd950c" stroke="#cd950c" points="556.8847,-201.6982 564.8158,-194.6734 554.235,-195.219 556.8847,-201.6982"/>
</g>
<!-- poms_backend&#45;&gt;poms_shared -->
<g id="edge23" class="edge">
<title>poms_backend&#45;&gt;poms_shared</title>
<path fill="none" stroke="#cd950c" d="M183.6388,-388.5959C195.4339,-386.6421 207.5534,-384.7064 219,-383 346.6414,-363.9713 380.1445,-369.7086 507,-346 515.0274,-344.4997 523.4911,-342.6577 531.6984,-340.7306"/>
<polygon fill="#cd950c" stroke="#cd950c" points="532.6369,-344.1046 541.5359,-338.355 530.9937,-337.3002 532.6369,-344.1046"/>
</g>
<!-- poms_gui -->
<g id="node5" class="node">
<title>poms_gui</title>
<g id="a_node5"><a xlink:href="https://subversion.vpro.nl/viewvc/nl/vpro/media-gui" xlink:title="Angular GUI for POMS">
<ellipse fill="none" stroke="#000000" cx="99" cy="-255" rx="76.8869" ry="18"/>
<text text-anchor="middle" x="99" y="-251.3" font-family="Times,serif" font-size="14.00" fill="#0000ff">Angular GUI for POMS</text>
</a>
</g>
</g>
<!-- poms_backend&#45;&gt;poms_gui -->
<g id="edge24" class="edge">
<title>poms_backend&#45;&gt;poms_gui</title>
<path fill="none" stroke="#cd950c" d="M111.2552,-382.8042C108.8659,-357.8868 104.5515,-312.8938 101.7317,-283.4877"/>
<polygon fill="#cd950c" stroke="#cd950c" points="105.2054,-283.0453 100.7668,-273.4251 98.2374,-283.7136 105.2054,-283.0453"/>
</g>
<!-- resteasy -->
<g id="node12" class="node">
<title>resteasy</title>
<ellipse fill="none" stroke="#000000" cx="421" cy="-73" rx="32.4942" ry="18"/>
<text text-anchor="middle" x="421" y="-69.3" font-family="Times,serif" font-size="14.00" fill="#000000">resteasy</text>
</g>
<!-- poms_backend&#45;&gt;resteasy -->
<g id="edge25" class="edge">
<title>poms_backend&#45;&gt;resteasy</title>
<path fill="none" stroke="#cd950c" d="M174.9683,-387.0405C224.6088,-374.004 286,-352.8569 286,-328 286,-328 286,-328 286,-218.5 286,-163.2059 343.8264,-178.8199 380,-137 389.9747,-125.4684 399.2977,-111.3083 406.5253,-99.2417"/>
<polygon fill="#cd950c" stroke="#cd950c" points="409.6082,-100.9028 411.6199,-90.5006 403.5604,-97.3779 409.6082,-100.9028"/>
</g>
<!-- spring -->
<g id="node13" class="node">
<title>spring</title>
<ellipse fill="none" stroke="#000000" cx="181" cy="-73" rx="27.8951" ry="18"/>
<text text-anchor="middle" x="181" y="-69.3" font-family="Times,serif" font-size="14.00" fill="#000000">spring</text>
</g>
<!-- poms_backend&#45;&gt;spring -->
<g id="edge26" class="edge">
<title>poms_backend&#45;&gt;spring</title>
<path fill="none" stroke="#cd950c" d="M156.6343,-384.8945C179.9888,-373.1672 204,-354.6338 204,-328 204,-328 204,-328 204,-182 204,-153.7835 196.5299,-122.3265 190.1041,-100.4868"/>
<polygon fill="#cd950c" stroke="#cd950c" points="193.4386,-99.4219 187.1636,-90.8852 186.7454,-101.4718 193.4386,-99.4219"/>
</g>
<!-- hibernate -->
<g id="node14" class="node">
<title>hibernate</title>
<ellipse fill="none" stroke="#000000" cx="263" cy="-73" rx="36.2938" ry="18"/>
<text text-anchor="middle" x="263" y="-69.3" font-family="Times,serif" font-size="14.00" fill="#000000">hibernate</text>
</g>
<!-- poms_backend&#45;&gt;hibernate -->
<g id="edge27" class="edge">
<title>poms_backend&#45;&gt;hibernate</title>
<path fill="none" stroke="#cd950c" d="M182.8652,-388.4448C214.5278,-378.3211 245,-360.2108 245,-328 245,-328 245,-328 245,-182 245,-154.1442 250.7934,-122.8127 255.8067,-100.9147"/>
<polygon fill="#cd950c" stroke="#cd950c" points="259.2608,-101.5183 258.1763,-90.9791 252.4518,-99.8943 259.2608,-101.5183"/>
</g>
<!-- angular -->
<g id="node15" class="node">
<title>angular</title>
<ellipse fill="none" stroke="#000000" cx="104" cy="-73" rx="31.3957" ry="18"/>
<text text-anchor="middle" x="104" y="-69.3" font-family="Times,serif" font-size="14.00" fill="#000000">angular</text>
</g>
<!-- poms_gui&#45;&gt;angular -->
<g id="edge28" class="edge">
<title>poms_gui&#45;&gt;angular</title>
<path fill="none" stroke="#c0c0c0" d="M99.4977,-236.8838C100.37,-205.1323 102.1808,-139.2171 103.2206,-101.3704"/>
<polygon fill="#c0c0c0" stroke="#c0c0c0" points="106.7283,-101.1353 103.5043,-91.043 99.7309,-100.943 106.7283,-101.1353"/>
</g>
<!-- poms_shared_backend -->
<g id="node6" class="node">
<title>poms_shared_backend</title>
<g id="a_node6"><a xlink:href="https://subversion.vpro.nl/viewvc/nl/publiekeomroep/poms-shared-backend/" xlink:title="poms_shared_backend">
<ellipse fill="none" stroke="#000000" cx="425" cy="-328" rx="72.5877" ry="18"/>
<text text-anchor="middle" x="425" y="-324.3" font-family="Times,serif" font-size="14.00" fill="#0000ff">poms_shared_backend</text>
</a>
</g>
</g>
<!-- poms_shared_backend&#45;&gt;vpro_shared -->
<g id="edge4" class="edge">
<title>poms_shared_backend&#45;&gt;vpro_shared</title>
<path fill="none" stroke="#00cdcd" d="M445.4061,-310.6786C476.3817,-284.3853 535.3088,-234.3658 569.863,-205.0349"/>
<polygon fill="#00cdcd" stroke="#00cdcd" points="572.3178,-207.5421 577.6766,-198.4024 567.7878,-202.2055 572.3178,-207.5421"/>
</g>
<!-- poms_shared_backend&#45;&gt;poms_shared -->
<g id="edge5" class="edge">
<title>poms_shared_backend&#45;&gt;poms_shared</title>
<path fill="none" stroke="#00cdcd" d="M497.959,-328C506.237,-328 514.5151,-328 522.7931,-328"/>
<polygon fill="#00cdcd" stroke="#00cdcd" points="522.8905,-331.5001 532.8905,-328 522.8905,-324.5001 522.8905,-331.5001"/>
</g>
<!-- poms_shared_backend&#45;&gt;slf4j -->
<g id="edge6" class="edge">
<title>poms_shared_backend&#45;&gt;slf4j</title>
<path fill="none" stroke="#00cdcd" d="M419.1747,-309.661C405.1296,-265.4451 369.3364,-152.7626 352.72,-100.4519"/>
<polygon fill="#00cdcd" stroke="#00cdcd" points="356.0278,-99.304 349.6646,-90.8329 349.3563,-101.4233 356.0278,-99.304"/>
</g>
<!-- api -->
<g id="node7" class="node">
<title>api</title>
<g id="a_node7"><a xlink:href="https://subversion.vpro.nl/viewvc/nl/vpro/api/" xlink:title="Frontend API">
<ellipse fill="none" stroke="#000000" cx="288" cy="-568" rx="48.1917" ry="18"/>
<text text-anchor="middle" x="288" y="-564.3" font-family="Times,serif" font-size="14.00" fill="#0000ff">Frontend API</text>
</a>
</g>
</g>
<!-- api&#45;&gt;vpro_shared -->
<g id="edge7" class="edge">
<title>api&#45;&gt;vpro_shared</title>
<path fill="none" stroke="#6495ed" d="M335.0241,-563.6972C431.5927,-554.6637 644.2326,-533.6781 656,-523 684.8275,-496.8412 675,-476.427 675,-437.5 675,-437.5 675,-437.5 675,-291.5 675,-261.7446 668.0609,-253.3784 651,-229 644.5736,-219.8172 635.9739,-211.2718 627.5295,-204.0541"/>
<polygon fill="#6495ed" stroke="#6495ed" points="629.5217,-201.1627 619.5569,-197.5634 625.1022,-206.5912 629.5217,-201.1627"/>
</g>
<!-- api&#45;&gt;poms_shared -->
<g id="edge8" class="edge">
<title>api&#45;&gt;poms_shared</title>
<path fill="none" stroke="#6495ed" d="M333.9277,-562.4435C381.8433,-555.6837 452.5248,-542.678 471,-523 519.7536,-471.0725 514.1797,-445.1364 549,-383 554.17,-373.7743 559.8464,-363.6901 564.9131,-354.7051"/>
<polygon fill="#6495ed" stroke="#6495ed" points="568.0595,-356.251 569.9256,-345.8218 561.9631,-352.8109 568.0595,-356.251"/>
</g>
<!-- api&#45;&gt;poms_shared_backend -->
<g id="edge9" class="edge">
<title>api&#45;&gt;poms_shared_backend</title>
<path fill="none" stroke="#6495ed" d="M334.7316,-563.4877C375.3213,-558.4879 429.64,-548.8186 443,-532 483.7254,-480.7318 456.5441,-397.6592 438.08,-355.0695"/>
<polygon fill="#6495ed" stroke="#6495ed" points="441.2474,-353.5788 433.9602,-345.888 434.8609,-356.4445 441.2474,-353.5788"/>
</g>
<!-- api&#45;&gt;resteasy -->
<g id="edge10" class="edge">
<title>api&#45;&gt;resteasy</title>
<path fill="none" stroke="#6495ed" d="M334.9143,-563.6851C415.8143,-556.1517 578.3359,-540.5863 635,-532 655.1659,-528.9443 663.0265,-534.3094 680,-523 701.8501,-508.4413 713,-500.2561 713,-474 713,-474 713,-474 713,-182 713,-155.363 684.6529,-163.1737 659,-156 616.8571,-144.2149 500.4578,-159.6236 463,-137 449.0856,-128.596 438.8797,-113.6129 432.0149,-100.2559"/>
<polygon fill="#6495ed" stroke="#6495ed" points="435.0443,-98.4749 427.6016,-90.9346 428.7176,-101.4705 435.0443,-98.4749"/>
</g>
<!-- media_publish -->
<g id="node8" class="node">
<title>media_publish</title>
<g id="a_node8"><a xlink:href="https://subversion.vpro.nl/viewvc/nl/publiekeomroep/npo-publish/" xlink:title="Media Publisher">
<ellipse fill="none" stroke="#000000" cx="166" cy="-568" rx="55.7903" ry="18"/>
<text text-anchor="middle" x="166" y="-564.3" font-family="Times,serif" font-size="14.00" fill="#0000ff">Media Publisher</text>
</a>
</g>
</g>
<!-- media_publish&#45;&gt;poms_shared -->
<g id="edge13" class="edge">
<title>media_publish&#45;&gt;poms_shared</title>
<path fill="none" stroke="#bf3eff" d="M197.7935,-553.1246C208.1709,-548.8582 219.8866,-544.6491 231,-542 294.6527,-526.8273 320.2925,-555.6518 377,-523 414.0435,-501.6706 415.2116,-485.6519 446,-456 483.7524,-419.6411 527.7241,-377.7193 554.7093,-352.0405"/>
<polygon fill="#bf3eff" stroke="#bf3eff" points="557.3489,-354.3602 562.1818,-344.9319 552.5241,-349.2886 557.3489,-354.3602"/>
</g>
<!-- media_publish&#45;&gt;poms_backend -->
<g id="edge15" class="edge">
<title>media_publish&#45;&gt;poms_backend</title>
<path fill="none" stroke="#c0c0c0" d="M160.2272,-549.8102C150.9879,-520.6979 132.8119,-463.426 121.9007,-429.0457"/>
<polygon fill="#c0c0c0" stroke="#c0c0c0" points="125.1268,-427.6402 118.7657,-419.1674 118.4547,-429.7577 125.1268,-427.6402"/>
<text text-anchor="middle" x="153.5" y="-470.3" font-family="Times,serif" font-size="14.00" fill="#000000">?</text>
</g>
<!-- media_publish&#45;&gt;poms_shared_backend -->
<g id="edge14" class="edge">
<title>media_publish&#45;&gt;poms_shared_backend</title>
<path fill="none" stroke="#bf3eff" d="M198.928,-553.2439C209.0596,-549.1368 220.3511,-544.9879 231,-542 280.0337,-528.2422 304.1404,-554.6985 344,-523 371.2652,-501.3173 402.6909,-404.353 417.0721,-355.8361"/>
<polygon fill="#bf3eff" stroke="#bf3eff" points="420.5046,-356.5681 419.9541,-345.9876 413.7863,-354.6021 420.5046,-356.5681"/>
</g>
<!-- pages_publish -->
<g id="node9" class="node">
<title>pages_publish</title>
<g id="a_node9"><a xlink:href="https://subversion.vpro.nl/viewvc/nl/publiekeomroep/npo-publish/" xlink:title="Pages Publisher">
<ellipse fill="none" stroke="#000000" cx="282" cy="-401" rx="53.8905" ry="18"/>
<text text-anchor="middle" x="282" y="-397.3" font-family="Times,serif" font-size="14.00" fill="#0000ff">Pages Publisher</text>
</a>
</g>
</g>
<!-- media_publish&#45;&gt;pages_publish -->
<g id="edge16" class="edge">
<title>media_publish&#45;&gt;pages_publish</title>
<path fill="none" stroke="#c0c0c0" d="M178.414,-550.1281C200.7408,-517.9853 247.4136,-450.7925 269.6752,-418.7434"/>
<text text-anchor="middle" x="291.5" y="-470.3" font-family="Times,serif" font-size="14.00" fill="#000000">we plan to merge these</text>
</g>
<!-- pages_publish&#45;&gt;poms_shared -->
<g id="edge11" class="edge">
<title>pages_publish&#45;&gt;poms_shared</title>
<path fill="none" stroke="#8fbc8f" d="M325.5605,-390.3793C370.89,-379.3209 443.9296,-361.4844 507,-346 514.6655,-344.1181 522.7826,-342.1209 530.7103,-340.1679"/>
<polygon fill="#8fbc8f" stroke="#8fbc8f" points="531.7307,-343.5212 540.6026,-337.7298 530.0555,-336.7246 531.7307,-343.5212"/>
</g>
<!-- pages_publish&#45;&gt;poms_shared_backend -->
<g id="edge12" class="edge">
<title>pages_publish&#45;&gt;poms_shared_backend</title>
<path fill="none" stroke="#8fbc8f" d="M311.6297,-385.8744C332.646,-375.1458 361.1141,-360.6131 384.265,-348.7948"/>
<polygon fill="#8fbc8f" stroke="#8fbc8f" points="385.8583,-351.9112 393.1735,-344.2471 382.6755,-345.6766 385.8583,-351.9112"/>
</g>
<!-- magnolia -->
<g id="node16" class="node">
<title>magnolia</title>
<ellipse fill="none" stroke="#000000" cx="609" cy="-568" rx="36.2938" ry="18"/>
<text text-anchor="middle" x="609" y="-564.3" font-family="Times,serif" font-size="14.00" fill="#000000">magnolia</text>
</g>
<!-- magnolia&#45;&gt;vpro_shared -->
<g id="edge19" class="edge">
<title>magnolia&#45;&gt;vpro_shared</title>
<path fill="none" stroke="#8b8878" d="M642.708,-561.0838C672.9917,-554.2825 714.5531,-543.3033 727,-532 747.6524,-513.245 751,-501.8975 751,-474 751,-474 751,-474 751,-291.5 751,-238.6258 689.9578,-208.9259 644.736,-194.178"/>
<polygon fill="#8b8878" stroke="#8b8878" points="645.6558,-190.7987 635.0674,-191.1699 643.5762,-197.4827 645.6558,-190.7987"/>
</g>
<!-- magnolia&#45;&gt;poms_shared -->
<g id="edge20" class="edge">
<title>magnolia&#45;&gt;poms_shared</title>
<path fill="none" stroke="#8b8878" d="M586.8221,-553.158C577.2786,-545.4208 567.146,-535.0515 562,-523 538.1623,-467.1746 556.331,-394.3663 569.5074,-355.4191"/>
<polygon fill="#8b8878" stroke="#8b8878" points="572.8655,-356.4203 572.8866,-345.8255 566.2631,-354.0946 572.8655,-356.4203"/>
</g>
<!-- magnolia&#45;&gt;api_client -->
<g id="edge21" class="edge">
<title>magnolia&#45;&gt;api_client</title>
<path fill="none" stroke="#8b8878" d="M609,-549.8759C609,-536.3516 609,-517.6192 609,-502.1514"/>
<polygon fill="#8b8878" stroke="#8b8878" points="612.5001,-502.0685 609,-492.0685 605.5001,-502.0685 612.5001,-502.0685"/>
</g>
</g>
</svg>
