<?xml version="1.0" encoding="UTF-8" standalone="no"?>
<!DOCTYPE svg PUBLIC "-//W3C//DTD SVG 1.1//EN"
 "http://www.w3.org/Graphics/SVG/1.1/DTD/svg11.dtd">
<!-- Generated by graphviz version 2.40.1 (20161225.0304)
 -->
<!-- Title: poms_universe Pages: 1 -->
<svg width="1912pt" height="530pt"
 viewBox="0.00 0.00 1912.23 530.00" xmlns="http://www.w3.org/2000/svg" xmlns:xlink="http://www.w3.org/1999/xlink">
<g id="graph0" class="graph" transform="scale(1 1) rotate(0) translate(4 526)">
<title>poms_universe</title>
<polygon fill="#ffffff" stroke="transparent" points="-4,4 -4,-526 1908.2331,-526 1908.2331,4 -4,4"/>
<text text-anchor="middle" x="952.1165" y="-7.8" font-family="Times,serif" font-size="14.00" fill="#000000">Deployments relevant for POMS</text>
<g id="clust1" class="cluster">
<title>cluster_0</title>
<polygon fill="#f0ffff" stroke="#000000" points="449.513,-31 449.513,-181 1451.513,-181 1451.513,-31 449.513,-31"/>
<text text-anchor="middle" x="950.513" y="-38.8" font-family="Times,serif" font-size="14.00" fill="#000000">Generic backend services</text>
</g>
<g id="clust2" class="cluster">
<title>cluster_1</title>
<polygon fill="none" stroke="#000000" points="565.513,-367 565.513,-514 917.513,-514 917.513,-367 565.513,-367"/>
<text text-anchor="middle" x="741.513" y="-498.8" font-family="Times,serif" font-size="14.00" fill="#000000">World</text>
</g>
<g id="clust3" class="cluster">
<title>cluster_3</title>
<polygon fill="#f0ffff" stroke="#000000" points="469.513,-212 469.513,-359 1333.513,-359 1333.513,-212 469.513,-212"/>
<text text-anchor="middle" x="901.513" y="-343.8" font-family="Times,serif" font-size="14.00" fill="#000000">POMS &#160;Services</text>
</g>
<g id="clust4" class="cluster">
<title>cluster_4</title>
<polygon fill="none" stroke="#000000" points="16.513,-106 16.513,-264 411.513,-264 411.513,-106 16.513,-106"/>
<text text-anchor="middle" x="214.013" y="-113.8" font-family="Times,serif" font-size="14.00" fill="#000000">NPO Services</text>
</g>
<g id="clust5" class="cluster">
<title>cluster_5</title>
<polygon fill="none" stroke="#000000" points="1341.513,-189 1341.513,-264 1883.513,-264 1883.513,-189 1341.513,-189"/>
<text text-anchor="middle" x="1612.513" y="-196.8" font-family="Times,serif" font-size="14.00" fill="#000000">Auxiliary API&#39;s</text>
</g>
<!-- poms -->
<g id="node1" class="node">
<title>poms</title>
<g id="a_node1"><a xlink:href="https://poms.omroep.nl/" xlink:title="POMS">
<ellipse fill="none" stroke="#000000" cx="513.513" cy="-310" rx="35.9954" ry="18"/>
<text text-anchor="middle" x="513.513" y="-306.3" font-family="Times,serif" font-size="14.00" fill="#0000ff">POMS</text>
</a>
</g>
</g>
<!-- gtaa -->
<g id="node8" class="node">
<title>gtaa</title>
<g id="a_node8"><a xlink:href="http://gtaa.beeldengeluid.nl/" xlink:title="B&amp;G Thesaurus">
<ellipse fill="none" stroke="#000000" cx="1419.513" cy="-238" rx="70.3881" ry="18"/>
<text text-anchor="middle" x="1419.513" y="-234.3" font-family="Times,serif" font-size="14.00" fill="#0000ff">B&amp;G Thesaurus</text>
</a>
</g>
</g>
<!-- poms&#45;&gt;gtaa -->
<g id="edge9" class="edge">
<title>poms&#45;&gt;gtaa</title>
<path fill="none" stroke="#cd950c" d="M540.1692,-297.5942C546.0907,-295.3342 552.4209,-293.2871 558.513,-292 897.4759,-220.3841 996.1488,-323.1202 1337.513,-264 1348.3289,-262.1268 1359.6936,-259.186 1370.4002,-255.9451"/>
<polygon fill="#cd950c" stroke="#cd950c" points="1371.5333,-259.2577 1380.0133,-252.9063 1369.4234,-252.5832 1371.5333,-259.2577"/>
</g>
<!-- postgresql_media -->
<g id="node10" class="node">
<title>postgresql_media</title>
<ellipse fill="none" stroke="#000000" cx="532.513" cy="-155" rx="74.9875" ry="18"/>
<text text-anchor="middle" x="532.513" y="-151.3" font-family="Times,serif" font-size="14.00" fill="#000000">postgresql_media</text>
</g>
<!-- poms&#45;&gt;postgresql_media -->
<g id="edge10" class="edge">
<title>poms&#45;&gt;postgresql_media</title>
<path fill="none" stroke="#cd950c" d="M515.7297,-291.9162C519.0014,-265.2261 525.1533,-215.0397 529.0311,-183.4053"/>
<polygon fill="#cd950c" stroke="#cd950c" points="532.5087,-183.8007 530.2515,-173.4491 525.5607,-182.9489 532.5087,-183.8007"/>
</g>
<!-- jms -->
<g id="node14" class="node">
<title>jms</title>
<ellipse fill="none" stroke="#000000" cx="652.513" cy="-155" rx="27" ry="18"/>
<text text-anchor="middle" x="652.513" y="-151.3" font-family="Times,serif" font-size="14.00" fill="#000000">jms</text>
</g>
<!-- poms&#45;&gt;jms -->
<g id="edge11" class="edge">
<title>poms&#45;&gt;jms</title>
<path fill="none" stroke="#cd950c" d="M528.3884,-293.4123C553.3102,-265.6219 603.5469,-209.6025 631.8723,-178.0166"/>
<polygon fill="#cd950c" stroke="#cd950c" points="634.5021,-180.3265 638.5728,-170.5448 629.2907,-175.653 634.5021,-180.3265"/>
</g>
<!-- ldap -->
<g id="node15" class="node">
<title>ldap</title>
<ellipse fill="none" stroke="#000000" cx="1298.513" cy="-80" rx="27" ry="18"/>
<text text-anchor="middle" x="1298.513" y="-76.3" font-family="Times,serif" font-size="14.00" fill="#000000">ldap</text>
</g>
<!-- poms&#45;&gt;ldap -->
<g id="edge12" class="edge">
<title>poms&#45;&gt;ldap</title>
<path fill="none" stroke="#cd950c" d="M498.8393,-293.5097C466.5804,-255.2788 396.3669,-159.7656 448.513,-106 462.847,-91.2209 1097.8917,-82.4533 1260.7661,-80.4451"/>
<polygon fill="#cd950c" stroke="#cd950c" points="1261.2756,-83.9392 1271.2321,-80.3173 1261.1901,-76.9397 1261.2756,-83.9392"/>
</g>
<!-- keycloak -->
<g id="node16" class="node">
<title>keycloak</title>
<g id="a_node16"><a xlink:href="https://ident-test.poms.omroep.nl/auth/" xlink:title="Keycloak (will replace sso and gosa)">
<ellipse fill="none" stroke="#000000" cx="1298.513" cy="-155" rx="144.8743" ry="18"/>
<text text-anchor="middle" x="1298.513" y="-151.3" font-family="Times,serif" font-size="14.00" fill="#0000ff">Keycloak (will replace sso and gosa)</text>
</a>
</g>
</g>
<!-- poms&#45;&gt;keycloak -->
<g id="edge13" class="edge">
<title>poms&#45;&gt;keycloak</title>
<path fill="none" stroke="#cd950c" d="M540.8672,-298.2467C546.634,-295.9988 552.7256,-293.7913 558.513,-292 759.0669,-229.9259 811.6815,-218.6834 1019.513,-189 1074.623,-181.129 1089.2152,-187.4201 1144.513,-181 1165.4391,-178.5705 1187.8482,-175.2208 1208.9127,-171.7332"/>
<polygon fill="#cd950c" stroke="#cd950c" points="1209.5272,-175.1791 1218.8082,-170.069 1208.3662,-168.276 1209.5272,-175.1791"/>
</g>
<!-- metis -->
<g id="node23" class="node">
<title>metis</title>
<ellipse fill="none" stroke="#000000" cx="92.513" cy="-155" rx="30.5947" ry="18"/>
<text text-anchor="middle" x="92.513" y="-151.3" font-family="Times,serif" font-size="14.00" fill="#000000">metis</text>
</g>
<!-- poms&#45;&gt;metis -->
<g id="edge14" class="edge">
<title>poms&#45;&gt;metis</title>
<path fill="none" stroke="#cd950c" d="M477.5702,-309.4116C368.4535,-307.2567 46.5567,-298.0433 15.513,-264 -6.9471,-239.3696 -2.6845,-216.9278 15.513,-189 24.0043,-175.9683 38.7454,-167.8956 53.0715,-162.911"/>
<polygon fill="#cd950c" stroke="#cd950c" points="54.2978,-166.1962 62.8413,-159.9305 52.2552,-159.5008 54.2978,-166.1962"/>
</g>
<!-- pd -->
<g id="node24" class="node">
<title>pd</title>
<ellipse fill="none" stroke="#000000" cx="129.513" cy="-238" rx="27" ry="18"/>
<text text-anchor="middle" x="129.513" y="-234.3" font-family="Times,serif" font-size="14.00" fill="#000000">pd</text>
</g>
<!-- poms&#45;&gt;pd -->
<g id="edge15" class="edge">
<title>poms&#45;&gt;pd</title>
<path fill="none" stroke="#cd950c" d="M477.8189,-307.5062C400.8885,-301.7731 221.8596,-286.4046 165.513,-264 161.7519,-262.5045 158.0194,-260.5289 154.4619,-258.333"/>
<polygon fill="#cd950c" stroke="#cd950c" points="156.2884,-255.3416 146.0629,-252.5688 152.3274,-261.1132 156.2884,-255.3416"/>
</g>
<!-- prepr -->
<g id="node25" class="node">
<title>prepr</title>
<ellipse fill="none" stroke="#000000" cx="54.513" cy="-238" rx="29.795" ry="18"/>
<text text-anchor="middle" x="54.513" y="-234.3" font-family="Times,serif" font-size="14.00" fill="#000000">prepr</text>
</g>
<!-- poms&#45;&gt;prepr -->
<g id="edge16" class="edge">
<title>poms&#45;&gt;prepr</title>
<path fill="none" stroke="#cd950c" d="M477.9181,-308.2742C389.8886,-303.6602 164.0062,-289.6159 93.513,-264 89.383,-262.4992 85.26,-260.4747 81.3249,-258.2142"/>
<polygon fill="#cd950c" stroke="#cd950c" points="82.8855,-255.059 72.5689,-252.6468 79.1296,-260.966 82.8855,-255.059"/>
</g>
<!-- miranda -->
<g id="node26" class="node">
<title>miranda</title>
<ellipse fill="none" stroke="#000000" cx="291.513" cy="-238" rx="40.0939" ry="18"/>
<text text-anchor="middle" x="291.513" y="-234.3" font-family="Times,serif" font-size="14.00" fill="#000000">miranda</text>
</g>
<!-- poms&#45;&gt;miranda -->
<g id="edge17" class="edge">
<title>poms&#45;&gt;miranda</title>
<path fill="none" stroke="#cd950c" d="M479.9522,-303.4547C444.5616,-296.0074 387.5268,-282.444 340.513,-264 335.3581,-261.9777 330.0468,-259.5521 324.9095,-257.0065"/>
<polygon fill="#cd950c" stroke="#cd950c" points="326.4116,-253.843 315.9216,-252.3559 323.1947,-260.06 326.4116,-253.843"/>
</g>
<!-- pluto -->
<g id="node27" class="node">
<title>pluto</title>
<ellipse fill="none" stroke="#000000" cx="203.513" cy="-238" rx="29.4969" ry="18"/>
<text text-anchor="middle" x="203.513" y="-234.3" font-family="Times,serif" font-size="14.00" fill="#000000">pluto</text>
</g>
<!-- poms&#45;&gt;pluto -->
<g id="edge18" class="edge">
<title>poms&#45;&gt;pluto</title>
<path fill="none" stroke="#cd950c" d="M477.5916,-308.6536C424.4562,-305.6228 322.5673,-295.7958 242.513,-264 238.3156,-262.3329 234.1052,-260.1666 230.0846,-257.796"/>
<polygon fill="#cd950c" stroke="#cd950c" points="231.9717,-254.8483 221.665,-252.3942 228.1917,-260.74 231.9717,-254.8483"/>
</g>
<!-- nep -->
<g id="node28" class="node">
<title>nep</title>
<ellipse fill="none" stroke="#000000" cx="376.513" cy="-238" rx="27" ry="18"/>
<text text-anchor="middle" x="376.513" y="-234.3" font-family="Times,serif" font-size="14.00" fill="#000000">nep</text>
</g>
<!-- poms&#45;&gt;nep -->
<g id="edge19" class="edge">
<title>poms&#45;&gt;nep</title>
<path fill="none" stroke="#cd950c" d="M486.5992,-298.138C467.1138,-289.3018 440.3062,-276.63 417.513,-264 413.2232,-261.6229 408.7653,-258.9832 404.4373,-256.3231"/>
<polygon fill="#cd950c" stroke="#cd950c" points="406.1602,-253.272 395.8316,-250.9116 402.4339,-259.1978 406.1602,-253.272"/>
</g>
<!-- poms_backend -->
<g id="node2" class="node">
<title>poms_backend</title>
<g id="a_node2"><a xlink:href="https://api.poms.omroep.nl/" xlink:title="POMS backend API">
<ellipse fill="none" stroke="#000000" cx="652.513" cy="-310" rx="85.2851" ry="18"/>
<text text-anchor="middle" x="652.513" y="-306.3" font-family="Times,serif" font-size="14.00" fill="#0000ff">POMS backend API</text>
</a>
</g>
</g>
<!-- poms_backend&#45;&gt;jms -->
<g id="edge20" class="edge">
<title>poms_backend&#45;&gt;jms</title>
<path fill="none" stroke="#ff7f00" d="M652.513,-291.9162C652.513,-265.3422 652.513,-215.4757 652.513,-183.819"/>
<polygon fill="#ff7f00" stroke="#ff7f00" points="656.0131,-183.4491 652.513,-173.4491 649.0131,-183.4491 656.0131,-183.4491"/>
</g>
<!-- poms_backend&#45;&gt;ldap -->
<g id="edge21" class="edge">
<title>poms_backend&#45;&gt;ldap</title>
<path fill="none" stroke="#ff7f00" d="M713.014,-297.2657C724.1175,-295.2564 735.6346,-293.3878 746.513,-292 842.161,-279.7979 1091.0377,-302.3346 1179.513,-264 1224.2329,-244.6237 1214.5719,-207.8574 1259.513,-189 1279.3042,-180.6956 1437.6541,-196.4876 1452.513,-181 1475.59,-156.9466 1474.0321,-131.4567 1452.513,-106 1445.0137,-97.1285 1378.5449,-88.4834 1335.4172,-83.7371"/>
<polygon fill="#ff7f00" stroke="#ff7f00" points="1335.5887,-80.2354 1325.2714,-82.6446 1334.8392,-87.1951 1335.5887,-80.2354"/>
</g>
<!-- poms_backend&#45;&gt;metis -->
<g id="edge22" class="edge">
<title>poms_backend&#45;&gt;metis</title>
<path fill="none" stroke="#ff7f00" d="M626.1326,-292.6479C583.3038,-265.4353 495.0985,-213.3224 412.513,-189 361.1774,-173.8811 207.4662,-162.3497 133.3548,-157.5034"/>
<polygon fill="#ff7f00" stroke="#ff7f00" points="133.2241,-153.9878 123.0196,-156.8372 132.7737,-160.9733 133.2241,-153.9878"/>
</g>
<!-- poms_backend&#45;&gt;nep -->
<g id="edge23" class="edge">
<title>poms_backend&#45;&gt;nep</title>
<path fill="none" stroke="#ff7f00" d="M589.1257,-297.8862C520.9129,-284.8068 421.556,-265.6112 417.513,-264 412.6463,-262.0605 407.7259,-259.5302 403.0647,-256.8101"/>
<polygon fill="#ff7f00" stroke="#ff7f00" points="404.8364,-253.79 394.5029,-251.4512 401.1225,-259.7236 404.8364,-253.79"/>
</g>
<!-- api -->
<g id="node3" class="node">
<title>api</title>
<g id="a_node3"><a xlink:href="https://rs.poms.omroep.nl/" xlink:title="NPO Frontend API">
<ellipse fill="none" stroke="#000000" cx="928.513" cy="-310" rx="81.4863" ry="18"/>
<text text-anchor="middle" x="928.513" y="-306.3" font-family="Times,serif" font-size="14.00" fill="#0000ff">NPO Frontend API</text>
</a>
</g>
</g>
<!-- api&#45;&gt;gtaa -->
<g id="edge24" class="edge">
<title>api&#45;&gt;gtaa</title>
<path fill="none" stroke="#6495ed" d="M986.9317,-297.348C997.4123,-295.3549 1008.2606,-293.4707 1018.513,-292 1159.3939,-271.7914 1197.9512,-291.8982 1337.513,-264 1347.9452,-261.9146 1358.9208,-258.9767 1369.3296,-255.8221"/>
<polygon fill="#6495ed" stroke="#6495ed" points="1370.6086,-259.089 1379.0993,-252.7519 1368.51,-252.4109 1370.6086,-259.089"/>
</g>
<!-- elasticsearch -->
<g id="node12" class="node">
<title>elasticsearch</title>
<ellipse fill="none" stroke="#000000" cx="922.513" cy="-155" rx="57.3905" ry="18"/>
<text text-anchor="middle" x="922.513" y="-151.3" font-family="Times,serif" font-size="14.00" fill="#000000">elasticsearch</text>
</g>
<!-- api&#45;&gt;elasticsearch -->
<g id="edge25" class="edge">
<title>api&#45;&gt;elasticsearch</title>
<path fill="none" stroke="#6495ed" d="M927.813,-291.9162C926.7843,-265.3422 924.854,-215.4757 923.6286,-183.819"/>
<polygon fill="#6495ed" stroke="#6495ed" points="927.1115,-183.3062 923.2272,-173.4491 920.1167,-183.577 927.1115,-183.3062"/>
</g>
<!-- pages_publish -->
<g id="node4" class="node">
<title>pages_publish</title>
<g id="a_node4"><a xlink:href="https://publish.pages.omroep.nl/" xlink:title="Pages Publisher">
<ellipse fill="none" stroke="#000000" cx="1096.513" cy="-310" rx="68.7879" ry="18"/>
<text text-anchor="middle" x="1096.513" y="-306.3" font-family="Times,serif" font-size="14.00" fill="#0000ff">Pages Publisher</text>
</a>
</g>
</g>
<!-- media_publish -->
<g id="node5" class="node">
<title>media_publish</title>
<ellipse fill="none" stroke="#000000" cx="1099.513" cy="-238" rx="70.6878" ry="18"/>
<text text-anchor="middle" x="1099.513" y="-234.3" font-family="Times,serif" font-size="14.00" fill="#000000">Media Publisher</text>
</g>
<!-- pages_publish&#45;&gt;media_publish -->
<g id="edge31" class="edge">
<title>pages_publish&#45;&gt;media_publish</title>
<path fill="none" stroke="#c0c0c0" d="M1097.27,-291.8314C1097.7213,-281 1098.2927,-267.2876 1098.7458,-256.4133"/>
</g>
<!-- pages_publish&#45;&gt;gtaa -->
<g id="edge26" class="edge">
<title>pages_publish&#45;&gt;gtaa</title>
<path fill="none" stroke="#8fbc8f" d="M1147.6108,-297.7717C1156.5582,-295.7554 1165.7932,-293.7536 1174.513,-292 1246.5757,-277.5078 1266.0896,-281.3712 1337.513,-264 1347.4172,-261.5912 1357.8686,-258.6187 1367.8717,-255.5545"/>
<polygon fill="#8fbc8f" stroke="#8fbc8f" points="1369.1932,-258.8082 1377.6883,-252.477 1367.0992,-252.1287 1369.1932,-258.8082"/>
</g>
<!-- pages_publish&#45;&gt;elasticsearch -->
<g id="edge27" class="edge">
<title>pages_publish&#45;&gt;elasticsearch</title>
<path fill="none" stroke="#8fbc8f" d="M1047.8281,-297.1872C1027.2108,-289.9629 1003.9736,-279.2518 986.513,-264 972.8522,-252.0674 950.1467,-210.0933 935.7742,-181.8522"/>
<polygon fill="#8fbc8f" stroke="#8fbc8f" points="938.8707,-180.2194 931.2446,-172.8645 932.6197,-183.3698 938.8707,-180.2194"/>
</g>
<!-- pages_publish&#45;&gt;ldap -->
<g id="edge28" class="edge">
<title>pages_publish&#45;&gt;ldap</title>
<path fill="none" stroke="#8fbc8f" d="M1147.6436,-297.7616C1192.0665,-286.7735 1250.6574,-271.2857 1259.513,-264 1288.3697,-240.259 1266.0971,-209.2333 1297.513,-189 1315.0907,-177.6792 1471.0467,-196.095 1485.513,-181 1508.5768,-156.9339 1507.4002,-131.1409 1485.513,-106 1475.823,-94.8695 1387.2213,-86.5321 1335.5302,-82.5664"/>
<polygon fill="#8fbc8f" stroke="#8fbc8f" points="1335.6433,-79.0651 1325.4101,-81.8095 1335.1212,-86.0456 1335.6433,-79.0651"/>
</g>
<!-- media_publish&#45;&gt;elasticsearch -->
<g id="edge29" class="edge">
<title>media_publish&#45;&gt;elasticsearch</title>
<path fill="none" stroke="#bf3eff" d="M1065.3856,-221.9968C1036.3441,-208.3784 994.5485,-188.7794 963.6606,-174.2952"/>
<polygon fill="#bf3eff" stroke="#bf3eff" points="964.9911,-171.0534 954.4511,-169.9766 962.0191,-177.3912 964.9911,-171.0534"/>
</g>
<!-- media_publish&#45;&gt;jms -->
<g id="edge30" class="edge">
<title>media_publish&#45;&gt;jms</title>
<path fill="none" stroke="#bf3eff" d="M1045.2685,-226.3882C990.0029,-215.0179 901.69,-198.1137 824.513,-189 794.4475,-185.4496 717.0329,-191.1566 688.513,-181 684.5094,-179.5742 680.5608,-177.5569 676.8291,-175.2689"/>
<polygon fill="#bf3eff" stroke="#bf3eff" points="678.8113,-172.3844 668.5916,-169.59 674.8382,-178.1476 678.8113,-172.3844"/>
</g>
<!-- images_frontend -->
<g id="node6" class="node">
<title>images_frontend</title>
<g id="a_node6"><a xlink:href="https://images.poms.omroep.nl" xlink:title="Images">
<ellipse fill="none" stroke="#000000" cx="792.513" cy="-310" rx="37.0935" ry="18"/>
<text text-anchor="middle" x="792.513" y="-306.3" font-family="Times,serif" font-size="14.00" fill="#0000ff">Images</text>
</a>
</g>
</g>
<!-- postgresql_image -->
<g id="node11" class="node">
<title>postgresql_image</title>
<ellipse fill="none" stroke="#000000" cx="772.513" cy="-155" rx="74.9875" ry="18"/>
<text text-anchor="middle" x="772.513" y="-151.3" font-family="Times,serif" font-size="14.00" fill="#000000">postgresql_image</text>
</g>
<!-- images_frontend&#45;&gt;postgresql_image -->
<g id="edge32" class="edge">
<title>images_frontend&#45;&gt;postgresql_image</title>
<path fill="none" stroke="#caff70" d="M790.1796,-291.9162C786.7357,-265.2261 780.2601,-215.0397 776.1782,-183.4053"/>
<polygon fill="#caff70" stroke="#caff70" points="779.6446,-182.9189 774.8935,-173.4491 772.7021,-183.8148 779.6446,-182.9189"/>
</g>
<!-- images_backend -->
<g id="node7" class="node">
<title>images_backend</title>
<g id="a_node7"><a xlink:href="https://poms.omroep.nl/images/" xlink:title="Images Backend">
<ellipse fill="none" stroke="#000000" cx="1254.513" cy="-310" rx="70.6878" ry="18"/>
<text text-anchor="middle" x="1254.513" y="-306.3" font-family="Times,serif" font-size="14.00" fill="#0000ff">Images Backend</text>
</a>
</g>
</g>
<!-- thineye -->
<g id="node9" class="node">
<title>thineye</title>
<ellipse fill="none" stroke="#000000" cx="1545.513" cy="-238" rx="37.8943" ry="18"/>
<text text-anchor="middle" x="1545.513" y="-234.3" font-family="Times,serif" font-size="14.00" fill="#000000">thineye</text>
</g>
<!-- images_backend&#45;&gt;thineye -->
<g id="edge33" class="edge">
<title>images_backend&#45;&gt;thineye</title>
<path fill="none" stroke="#caff70" d="M1320.4835,-303.3387C1370.4528,-296.9241 1440.2147,-285.0044 1498.513,-264 1503.5383,-262.1894 1508.6678,-259.8874 1513.6034,-257.4045"/>
<polygon fill="#caff70" stroke="#caff70" points="1515.6161,-260.2968 1522.7771,-252.4884 1512.3097,-254.1269 1515.6161,-260.2968"/>
</g>
<!-- images_backend&#45;&gt;postgresql_image -->
<g id="edge34" class="edge">
<title>images_backend&#45;&gt;postgresql_image</title>
<path fill="none" stroke="#caff70" d="M1202.1074,-297.7365C1192.9303,-295.7241 1183.4578,-293.7327 1174.513,-292 1098.4758,-277.2705 1076.4593,-287.0338 1002.513,-264 931.4199,-241.8549 854.2624,-201.6342 809.8292,-176.7302"/>
<polygon fill="#caff70" stroke="#caff70" points="811.2862,-173.5335 800.8582,-171.6605 807.8422,-179.6276 811.2862,-173.5335"/>
</g>
<!-- sso -->
<g id="node13" class="node">
<title>sso</title>
<g id="a_node13"><a xlink:href="https://sso.omroep.nl" xlink:title="SSO">
<ellipse fill="none" stroke="#000000" cx="1024.513" cy="-155" rx="27.0966" ry="18"/>
<text text-anchor="middle" x="1024.513" y="-151.3" font-family="Times,serif" font-size="14.00" fill="#0000ff">SSO</text>
</a>
</g>
</g>
<!-- images_backend&#45;&gt;sso -->
<g id="edge35" class="edge">
<title>images_backend&#45;&gt;sso</title>
<path fill="none" stroke="#caff70" d="M1202.0815,-297.8673C1192.9072,-295.8404 1183.4425,-293.8102 1174.513,-292 1140.2089,-285.0456 1041.9557,-290.8601 1019.513,-264 1000.7015,-241.4858 1006.4812,-206.3187 1013.9827,-182.0485"/>
<polygon fill="#caff70" stroke="#caff70" points="1017.3631,-182.9769 1017.2364,-172.3828 1010.7289,-180.7436 1017.3631,-182.9769"/>
</g>
<!-- images_backend&#45;&gt;jms -->
<g id="edge36" class="edge">
<title>images_backend&#45;&gt;jms</title>
<path fill="none" stroke="#caff70" d="M1203.5019,-297.4073C1193.9152,-295.3585 1183.942,-293.4395 1174.513,-292 1023.7513,-268.983 978.1067,-309.4019 832.513,-264 772.0034,-245.1307 710.8363,-201.7735 677.6951,-175.787"/>
<polygon fill="#caff70" stroke="#caff70" points="679.5062,-172.7553 669.5023,-169.2664 675.1471,-178.2323 679.5062,-172.7553"/>
</g>
<!-- images_backend&#45;&gt;ldap -->
<g id="edge37" class="edge">
<title>images_backend&#45;&gt;ldap</title>
<path fill="none" stroke="#caff70" d="M1272.8347,-292.5983C1280.9435,-284.3676 1290.2635,-274.1369 1297.513,-264 1319.4887,-233.2717 1305.544,-209.1282 1337.513,-189 1355.0181,-177.9785 1509.2037,-195.938 1523.513,-181 1546.5713,-156.9287 1545.6892,-130.8863 1523.513,-106 1511.2661,-92.2564 1396.5492,-84.7076 1335.8229,-81.6445"/>
<polygon fill="#caff70" stroke="#caff70" points="1335.6611,-78.1325 1325.5024,-81.1409 1335.3199,-85.1242 1335.6611,-78.1325"/>
</g>
<!-- wikimedia -->
<g id="node29" class="node">
<title>wikimedia</title>
<ellipse fill="none" stroke="#000000" cx="1826.513" cy="-238" rx="49.2915" ry="18"/>
<text text-anchor="middle" x="1826.513" y="-234.3" font-family="Times,serif" font-size="14.00" fill="#000000">wikimedia</text>
</g>
<!-- images_backend&#45;&gt;wikimedia -->
<g id="edge38" class="edge">
<title>images_backend&#45;&gt;wikimedia</title>
<path fill="none" stroke="#caff70" d="M1324.3944,-306.616C1444.8343,-300.3053 1686.4845,-285.4124 1768.513,-264 1775.2563,-262.2398 1782.2024,-259.7656 1788.8409,-257.0369"/>
<polygon fill="#caff70" stroke="#caff70" points="1790.5247,-260.1208 1798.2875,-252.9105 1787.7226,-253.7061 1790.5247,-260.1208"/>
</g>
<!-- pixabay -->
<g id="node30" class="node">
<title>pixabay</title>
<ellipse fill="none" stroke="#000000" cx="1719.513" cy="-238" rx="39.7935" ry="18"/>
<text text-anchor="middle" x="1719.513" y="-234.3" font-family="Times,serif" font-size="14.00" fill="#000000">pixabay</text>
</g>
<!-- images_backend&#45;&gt;pixabay -->
<g id="edge39" class="edge">
<title>images_backend&#45;&gt;pixabay</title>
<path fill="none" stroke="#caff70" d="M1323.2732,-305.5442C1424.2261,-298.4683 1607.4104,-283.4496 1670.513,-264 1675.9198,-262.3335 1681.4257,-260.0626 1686.7003,-257.5524"/>
<polygon fill="#caff70" stroke="#caff70" points="1688.5683,-260.5281 1695.8737,-252.8546 1685.3776,-254.2976 1688.5683,-260.5281"/>
</g>
<!-- flickr -->
<g id="node31" class="node">
<title>flickr</title>
<ellipse fill="none" stroke="#000000" cx="1631.513" cy="-238" rx="29.795" ry="18"/>
<text text-anchor="middle" x="1631.513" y="-234.3" font-family="Times,serif" font-size="14.00" fill="#000000">flickr</text>
</g>
<!-- images_backend&#45;&gt;flickr -->
<g id="edge40" class="edge">
<title>images_backend&#45;&gt;flickr</title>
<path fill="none" stroke="#caff70" d="M1322.2259,-304.4103C1406.2907,-296.8442 1544.4613,-282.1765 1592.513,-264 1596.7372,-262.4021 1600.9629,-260.275 1604.9908,-257.9233"/>
<polygon fill="#caff70" stroke="#caff70" points="1606.8774,-260.8714 1613.4155,-252.5345 1603.1054,-254.9746 1606.8774,-260.8714"/>
</g>
<!-- sso&#45;&gt;ldap -->
<g id="edge44" class="edge">
<title>sso&#45;&gt;ldap</title>
<path fill="none" stroke="#c0c0c0" d="M1032.6293,-137.5206C1038.6929,-126.5515 1048.0757,-113.1705 1060.513,-106 1077.4905,-96.2119 1198.6157,-86.7351 1261.2282,-82.4229"/>
<polygon fill="#c0c0c0" stroke="#c0c0c0" points="1261.7358,-85.8966 1271.4758,-81.7273 1261.2617,-78.9126 1261.7358,-85.8966"/>
</g>
<!-- keycloak&#45;&gt;ldap -->
<g id="edge48" class="edge">
<title>keycloak&#45;&gt;ldap</title>
<path fill="none" stroke="#c0c0c0" d="M1298.513,-136.8446C1298.513,-128.3401 1298.513,-118.0076 1298.513,-108.4964"/>
<polygon fill="#c0c0c0" stroke="#c0c0c0" points="1302.0131,-108.2481 1298.513,-98.2482 1295.0131,-108.2482 1302.0131,-108.2481"/>
</g>
<!-- gosa -->
<g id="node17" class="node">
<title>gosa</title>
<g id="a_node17"><a xlink:href="https://admin.sso.omroep.nl/" xlink:title="GOSa">
<ellipse fill="none" stroke="#000000" cx="1102.513" cy="-155" rx="33.2948" ry="18"/>
<text text-anchor="middle" x="1102.513" y="-151.3" font-family="Times,serif" font-size="14.00" fill="#0000ff">GOSa</text>
</a>
</g>
</g>
<!-- gosa&#45;&gt;ldap -->
<g id="edge47" class="edge">
<title>gosa&#45;&gt;ldap</title>
<path fill="none" stroke="#c0c0c0" d="M1112.8038,-137.7386C1120.2249,-126.8616 1131.2495,-113.5014 1144.513,-106 1164.0118,-94.9722 1222.4964,-87.3485 1261.517,-83.3287"/>
<polygon fill="#c0c0c0" stroke="#c0c0c0" points="1261.8659,-86.8114 1271.4699,-82.3376 1261.1722,-79.8459 1261.8659,-86.8114"/>
</g>
<!-- magnolia_frontend -->
<g id="node18" class="node">
<title>magnolia_frontend</title>
<ellipse fill="none" stroke="#000000" cx="829.513" cy="-393" rx="79.8859" ry="18"/>
<text text-anchor="middle" x="829.513" y="-389.3" font-family="Times,serif" font-size="14.00" fill="#000000">magnolia_frontend</text>
</g>
<!-- magnolia_frontend&#45;&gt;api -->
<g id="edge43" class="edge">
<title>magnolia_frontend&#45;&gt;api</title>
<path fill="none" stroke="#c0c0c0" d="M850.5084,-375.3978C864.8152,-363.4033 883.9411,-347.3684 899.6736,-334.1785"/>
<polygon fill="#c0c0c0" stroke="#c0c0c0" points="902.1334,-336.6836 907.5479,-327.5768 897.6361,-331.3194 902.1334,-336.6836"/>
</g>
<!-- magnolia_backend -->
<g id="node19" class="node">
<title>magnolia_backend</title>
<ellipse fill="none" stroke="#000000" cx="652.513" cy="-393" rx="79.0865" ry="18"/>
<text text-anchor="middle" x="652.513" y="-389.3" font-family="Times,serif" font-size="14.00" fill="#000000">magnolia_backend</text>
</g>
<!-- magnolia_backend&#45;&gt;poms_backend -->
<g id="edge41" class="edge">
<title>magnolia_backend&#45;&gt;poms_backend</title>
<path fill="none" stroke="#c0c0c0" d="M652.513,-374.9902C652.513,-364.2963 652.513,-350.4994 652.513,-338.3706"/>
<polygon fill="#c0c0c0" stroke="#c0c0c0" points="656.0131,-338.2612 652.513,-328.2612 649.0131,-338.2613 656.0131,-338.2612"/>
</g>
<!-- magnolia_backend&#45;&gt;pages_publish -->
<g id="edge42" class="edge">
<title>magnolia_backend&#45;&gt;pages_publish</title>
<path fill="none" stroke="#c0c0c0" d="M695.866,-377.7732C709.9319,-373.488 725.7248,-369.3566 740.513,-367 801.5463,-357.2741 959.3765,-376.9589 1018.513,-359 1036.127,-353.6509 1053.671,-343.2053 1067.6468,-333.3279"/>
<polygon fill="#c0c0c0" stroke="#c0c0c0" points="1069.8659,-336.0407 1075.8563,-327.302 1065.7238,-330.3978 1069.8659,-336.0407"/>
</g>
<!-- users -->
<g id="node20" class="node">
<title>users</title>
<ellipse fill="none" stroke="#000000" cx="722.513" cy="-465" rx="29.4969" ry="18"/>
<text text-anchor="middle" x="722.513" y="-461.3" font-family="Times,serif" font-size="14.00" fill="#000000">users</text>
</g>
<!-- users&#45;&gt;api -->
<g id="edge4" class="edge">
<title>users&#45;&gt;api</title>
<path fill="none" stroke="#c0c0c0" d="M745.0139,-453.1138C750.0149,-450.8213 755.3628,-448.6298 760.513,-447 850.3777,-418.5628 908.7831,-483.0849 969.513,-411 988.0012,-389.055 970.2046,-357.6733 952.6203,-335.7323"/>
<polygon fill="#c0c0c0" stroke="#c0c0c0" points="955.0836,-333.2235 945.9674,-327.8248 949.7271,-337.7301 955.0836,-333.2235"/>
</g>
<!-- users&#45;&gt;images_frontend -->
<g id="edge5" class="edge">
<title>users&#45;&gt;images_frontend</title>
<path fill="none" stroke="#c0c0c0" d="M745.0335,-453.1751C750.0333,-450.8788 755.3758,-448.6702 760.513,-447 842.664,-420.2916 896.3769,-477.4991 951.513,-411 963.9948,-395.9459 964.8437,-381.3078 951.513,-367 934.3524,-348.5815 861.248,-369.8096 838.513,-359 827.3793,-353.7064 817.6002,-344.4358 809.9541,-335.3726"/>
<polygon fill="#c0c0c0" stroke="#c0c0c0" points="812.4848,-332.9283 803.5542,-327.2277 806.9806,-337.2532 812.4848,-332.9283"/>
</g>
<!-- users&#45;&gt;magnolia_frontend -->
<g id="edge6" class="edge">
<title>users&#45;&gt;magnolia_frontend</title>
<path fill="none" stroke="#c0c0c0" d="M742.3881,-451.6261C757.3462,-441.5608 778.2017,-427.5272 795.7577,-415.7139"/>
<polygon fill="#c0c0c0" stroke="#c0c0c0" points="797.7281,-418.6066 804.0707,-410.1201 793.8202,-412.799 797.7281,-418.6066"/>
</g>
<!-- backendsystems -->
<g id="node21" class="node">
<title>backendsystems</title>
<ellipse fill="none" stroke="#000000" cx="839.513" cy="-465" rx="69.5877" ry="18"/>
<text text-anchor="middle" x="839.513" y="-461.3" font-family="Times,serif" font-size="14.00" fill="#000000">backendsystems</text>
</g>
<!-- backendsystems&#45;&gt;poms_backend -->
<g id="edge7" class="edge">
<title>backendsystems&#45;&gt;poms_backend</title>
<path fill="none" stroke="#c0c0c0" d="M885.1541,-451.291C904.5657,-442.9461 925.2809,-430.1083 936.513,-411 946.4228,-394.1413 950.0469,-381.1157 936.513,-367 921.8896,-351.7479 766.9256,-364.4586 746.513,-359 725.4687,-353.3724 703.7889,-342.4733 686.5603,-332.3806"/>
<polygon fill="#c0c0c0" stroke="#c0c0c0" points="688.3545,-329.3754 677.9836,-327.2084 684.7396,-335.3698 688.3545,-329.3754"/>
</g>
<!-- backendsystems&#45;&gt;pages_publish -->
<g id="edge8" class="edge">
<title>backendsystems&#45;&gt;pages_publish</title>
<path fill="none" stroke="#c0c0c0" d="M876.3624,-449.7144C899.3572,-439.6874 929.277,-425.7397 954.513,-411 994.9959,-387.3551 1038.5015,-355.326 1066.5356,-333.728"/>
<polygon fill="#c0c0c0" stroke="#c0c0c0" points="1068.962,-336.2754 1074.7186,-327.3808 1064.6718,-330.7442 1068.962,-336.2754"/>
</g>
<!-- editors -->
<g id="node22" class="node">
<title>editors</title>
<ellipse fill="none" stroke="#000000" cx="639.513" cy="-465" rx="35.9954" ry="18"/>
<text text-anchor="middle" x="639.513" y="-461.3" font-family="Times,serif" font-size="14.00" fill="#000000">editors</text>
</g>
<!-- editors&#45;&gt;poms -->
<g id="edge1" class="edge">
<title>editors&#45;&gt;poms</title>
<path fill="none" stroke="#c0c0c0" d="M666.779,-452.944C672.5522,-450.718 678.6687,-448.596 684.513,-447 735.2664,-433.1404 884.2559,-450.9305 918.513,-411 931.2462,-396.158 932.1864,-380.9806 918.513,-367 904.5254,-352.6981 576.7377,-367.2498 558.513,-359 547.3957,-353.9675 537.7898,-344.7425 530.3415,-335.6429"/>
<polygon fill="#c0c0c0" stroke="#c0c0c0" points="532.957,-333.2993 524.1264,-327.4452 527.3789,-337.5284 532.957,-333.2993"/>
</g>
<!-- editors&#45;&gt;keycloak -->
<g id="edge2" class="edge">
<title>editors&#45;&gt;keycloak</title>
<path fill="none" stroke="#c0c0c0" d="M666.2759,-453.0445C672.1908,-450.7564 678.4913,-448.5841 684.513,-447 946.0248,-378.207 1713.3361,-470.8412 1887.513,-264 1908.9838,-238.5026 1910.394,-213.2399 1887.513,-189 1872.6595,-173.2643 1620.7031,-163.4868 1451.183,-158.6588"/>
<polygon fill="#c0c0c0" stroke="#c0c0c0" points="1451.2476,-155.1593 1441.153,-158.3762 1451.0504,-162.1566 1451.2476,-155.1593"/>
</g>
<!-- editors&#45;&gt;magnolia_backend -->
<g id="edge3" class="edge">
<title>editors&#45;&gt;magnolia_backend</title>
<path fill="none" stroke="#c0c0c0" d="M642.7935,-446.8314C644.1838,-439.131 645.8371,-429.9743 647.3822,-421.4166"/>
<polygon fill="#c0c0c0" stroke="#c0c0c0" points="650.8558,-421.8761 649.1884,-411.4133 643.9672,-420.6322 650.8558,-421.8761"/>
</g>
<!-- pd&#45;&gt;metis -->
<g id="edge46" class="edge">
<title>pd&#45;&gt;metis</title>
<path fill="none" stroke="#c0c0c0" d="M121.6663,-220.3978C116.6627,-209.1735 110.0819,-194.4112 104.4391,-181.753"/>
<polygon fill="#c0c0c0" stroke="#c0c0c0" points="107.6169,-180.2853 100.3485,-172.5768 101.2233,-183.1355 107.6169,-180.2853"/>
</g>
<!-- prepr&#45;&gt;metis -->
<g id="edge45" class="edge">
<title>prepr&#45;&gt;metis</title>
<path fill="none" stroke="#c0c0c0" d="M62.5718,-220.3978C67.7107,-209.1735 74.4693,-194.4112 80.2646,-181.753"/>
<polygon fill="#c0c0c0" stroke="#c0c0c0" points="83.4853,-183.1262 84.4658,-172.5768 77.1206,-180.2122 83.4853,-183.1262"/>
</g>
</g>
</svg>
