<?xml version="1.0" encoding="UTF-8" standalone="no"?>
<!DOCTYPE svg PUBLIC "-//W3C//DTD SVG 1.1//EN"
 "http://www.w3.org/Graphics/SVG/1.1/DTD/svg11.dtd">
<!-- Generated by graphviz version 2.40.1 (20161225.0304)
 -->
<!-- Title: %3 Pages: 1 -->
<svg width="1448pt" height="753pt"
 viewBox="0.00 0.00 1447.84 753.00" xmlns="http://www.w3.org/2000/svg" xmlns:xlink="http://www.w3.org/1999/xlink">
<g id="graph0" class="graph" transform="scale(1 1) rotate(0) translate(4 749)">
<title>%3</title>
<polygon fill="#ffffff" stroke="transparent" points="-4,4 -4,-749 1443.8403,-749 1443.8403,4 -4,4"/>
<text text-anchor="middle" x="719.9201" y="-7.8" font-family="Times,serif" font-size="14.00" fill="#000000"> &#160;Dependencies of the different code projects relevant to POMS</text>
<g id="clust1" class="cluster">
<title>cluster_0</title>
<polygon fill="none" stroke="#000000" points="877.8403,-47 877.8403,-359 1391.8403,-359 1391.8403,-47 877.8403,-47"/>
<text text-anchor="middle" x="1134.8403" y="-69.8" font-family="Times,serif" font-size="14.00" fill="#000000">Generic utilities</text>
<text text-anchor="middle" x="1134.8403" y="-54.8" font-family="Times,serif" font-size="14.00" fill="#000000">(incoming edges are just examples, there are more)</text>
</g>
<g id="clust2" class="cluster">
<title>cluster_1</title>
<polygon fill="none" stroke="#000000" points="229.8403,-568 229.8403,-643 429.8403,-643 429.8403,-568 229.8403,-568"/>
<text text-anchor="middle" x="329.8403" y="-627.8" font-family="Times,serif" font-size="14.00" fill="#000000">VPRO</text>
</g>
<g id="clust3" class="cluster">
<title>cluster_2</title>
<polygon fill="#f0ffff" stroke="#000000" points="441.8403,-474 441.8403,-737 1256.8403,-737 1256.8403,-474 441.8403,-474"/>
<text text-anchor="middle" x="849.3403" y="-721.8" font-family="Times,serif" font-size="14.00" fill="#000000">POMS Services</text>
</g>
<g id="clust4" class="cluster">
<title>cluster_3</title>
<polygon fill="#f0ffff" stroke="#000000" points="583.8403,-380 583.8403,-455 925.8403,-455 925.8403,-380 583.8403,-380"/>
<text text-anchor="middle" x="754.8403" y="-439.8" font-family="Times,serif" font-size="14.00" fill="#000000">Backend utilities</text>
</g>
<g id="clust5" class="cluster">
<title>cluster_4</title>
<polygon fill="#f0ffff" stroke="#000000" points="157.8403,-307 157.8403,-549 289.8403,-549 289.8403,-307 157.8403,-307"/>
<text text-anchor="middle" x="223.8403" y="-533.8" font-family="Times,serif" font-size="14.00" fill="#000000">Sharable utilities</text>
</g>
<!-- vpro_shared -->
<g id="node1" class="node">
<title>vpro_shared</title>
<g id="a_node1"><a xlink:href="https://github.com/vpro/vpro-shared" xlink:title="vpro_shared">
<ellipse fill="none" stroke="#000000" cx="941.8403" cy="-333" rx="55.7903" ry="18"/>
<text text-anchor="middle" x="941.8403" y="-329.3" font-family="Times,serif" font-size="14.00" fill="#0000ff">vpro_shared</text>
</a>
</g>
</g>
<!-- i18n_regions -->
<g id="node3" class="node">
<title>i18n_regions</title>
<g id="a_node3"><a xlink:href="https://github.com/mihxil/i18n-regions" xlink:title="i18n_regions">
<ellipse fill="none" stroke="#000000" cx="943.8403" cy="-222" rx="58.4896" ry="18"/>
<text text-anchor="middle" x="943.8403" y="-218.3" font-family="Times,serif" font-size="14.00" fill="#0000ff">i18n_regions</text>
</a>
</g>
</g>
<!-- vpro_shared&#45;&gt;i18n_regions -->
<g id="edge1" class="edge">
<title>vpro_shared&#45;&gt;i18n_regions</title>
<path fill="none" stroke="#c0c0c0" d="M942.1705,-314.6706C942.4846,-297.2373 942.9619,-270.7482 943.3259,-250.5489"/>
<polygon fill="#c0c0c0" stroke="#c0c0c0" points="946.8287,-250.4181 943.5095,-240.3566 939.8298,-250.2919 946.8287,-250.4181"/>
</g>
<!-- guava -->
<g id="node7" class="node">
<title>guava</title>
<g id="a_node7"><a xlink:href="https://github.com/google/guava" xlink:title="guava">
<ellipse fill="none" stroke="#000000" stroke-dasharray="5,2" cx="1052.8403" cy="-222" rx="32.4942" ry="18"/>
<text text-anchor="middle" x="1052.8403" y="-218.3" font-family="Times,serif" font-size="14.00" fill="#0000ff">guava</text>
</a>
</g>
</g>
<!-- vpro_shared&#45;&gt;guava -->
<g id="edge2" class="edge">
<title>vpro_shared&#45;&gt;guava</title>
<path fill="none" stroke="#c0c0c0" d="M959.184,-315.6563C978.1908,-296.6495 1008.7694,-266.0709 1029.7841,-245.0561"/>
<polygon fill="#c0c0c0" stroke="#c0c0c0" points="1032.4583,-247.3317 1037.0545,-237.7857 1027.5086,-242.3819 1032.4583,-247.3317"/>
</g>
<!-- slf4j -->
<g id="node19" class="node">
<title>slf4j</title>
<ellipse fill="none" stroke="#000000" stroke-dasharray="5,2" cx="1243.8403" cy="-222" rx="27" ry="18"/>
<text text-anchor="middle" x="1243.8403" y="-218.3" font-family="Times,serif" font-size="14.00" fill="#000000">slf4j</text>
</g>
<!-- vpro_shared&#45;&gt;slf4j -->
<g id="edge3" class="edge">
<title>vpro_shared&#45;&gt;slf4j</title>
<path fill="none" stroke="#c0c0c0" d="M976.4949,-318.8691C986.2791,-314.9527 996.9532,-310.749 1006.8403,-307 1078.9988,-279.6387 1164.3471,-249.5905 1210.3749,-233.5742"/>
<polygon fill="#c0c0c0" stroke="#c0c0c0" points="1211.5536,-236.8699 1219.851,-230.2818 1209.2562,-230.2577 1211.5536,-236.8699"/>
</g>
<!-- poms_shared -->
<g id="node2" class="node">
<title>poms_shared</title>
<g id="a_node2"><a xlink:href="https://github.com/npo-poms/poms-shared" xlink:title="poms_shared">
<ellipse fill="none" stroke="#000000" cx="223.8403" cy="-333" rx="58.4896" ry="18"/>
<text text-anchor="middle" x="223.8403" y="-329.3" font-family="Times,serif" font-size="14.00" fill="#0000ff">poms_shared</text>
</a>
</g>
</g>
<!-- poms_shared&#45;&gt;vpro_shared -->
<g id="edge4" class="edge">
<title>poms_shared&#45;&gt;vpro_shared</title>
<path fill="none" stroke="#c0c0c0" d="M282.3881,-333C480.1903,-333 677.9926,-333 875.7948,-333"/>
<polygon fill="#c0c0c0" stroke="#c0c0c0" points="875.8126,-336.5001 885.8126,-333 875.8125,-329.5001 875.8126,-336.5001"/>
</g>
<!-- poms_shared&#45;&gt;i18n_regions -->
<g id="edge5" class="edge">
<title>poms_shared&#45;&gt;i18n_regions</title>
<path fill="none" stroke="#c0c0c0" d="M276.2008,-324.9277C405.7965,-304.9484 741.1262,-253.2517 881.0583,-231.6789"/>
<polygon fill="#c0c0c0" stroke="#c0c0c0" points="881.8404,-235.0997 891.1904,-230.1169 880.7738,-228.1815 881.8404,-235.0997"/>
</g>
<!-- nv_i18n -->
<g id="node4" class="node">
<title>nv_i18n</title>
<g id="a_node4"><a xlink:href="https://github.com/TakahikoKawasaki/nv-i18n" xlink:title="nv_i18n">
<ellipse fill="none" stroke="#000000" cx="943.8403" cy="-111" rx="40.0939" ry="18"/>
<text text-anchor="middle" x="943.8403" y="-107.3" font-family="Times,serif" font-size="14.00" fill="#0000ff">nv_i18n</text>
</a>
</g>
</g>
<!-- i18n_regions&#45;&gt;nv_i18n -->
<g id="edge9" class="edge">
<title>i18n_regions&#45;&gt;nv_i18n</title>
<path fill="none" stroke="#c0c0c0" d="M943.8403,-203.6706C943.8403,-186.2373 943.8403,-159.7482 943.8403,-139.5489"/>
<polygon fill="#c0c0c0" stroke="#c0c0c0" points="947.3404,-139.3566 943.8403,-129.3566 940.3404,-139.3567 947.3404,-139.3566"/>
</g>
<!-- resteasy -->
<g id="node5" class="node">
<title>resteasy</title>
<g id="a_node5"><a xlink:href="https://github.com/resteasy/Resteasy" xlink:title="resteasy">
<ellipse fill="none" stroke="#000000" cx="1149.8403" cy="-333" rx="40.0939" ry="18"/>
<text text-anchor="middle" x="1149.8403" y="-329.3" font-family="Times,serif" font-size="14.00" fill="#0000ff">resteasy</text>
</a>
</g>
</g>
<!-- spring -->
<g id="node6" class="node">
<title>spring</title>
<g id="a_node6"><a xlink:href="https://github.com/spring-projects/spring-framework" xlink:title="spring">
<ellipse fill="none" stroke="#000000" stroke-dasharray="5,2" cx="1241.8403" cy="-333" rx="33.5952" ry="18"/>
<text text-anchor="middle" x="1241.8403" y="-329.3" font-family="Times,serif" font-size="14.00" fill="#0000ff">spring</text>
</a>
</g>
</g>
<!-- hibernate -->
<g id="node8" class="node">
<title>hibernate</title>
<g id="a_node8"><a xlink:href="https://github.com/hibernate/" xlink:title="hibernate">
<ellipse fill="none" stroke="#000000" cx="1338.8403" cy="-333" rx="44.6926" ry="18"/>
<text text-anchor="middle" x="1338.8403" y="-329.3" font-family="Times,serif" font-size="14.00" fill="#0000ff">hibernate</text>
</a>
</g>
</g>
<!-- api_client -->
<g id="node9" class="node">
<title>api_client</title>
<g id="a_node9"><a xlink:href="https://github.com/npo-poms/api-clients" xlink:title="api_client">
<ellipse fill="none" stroke="#000000" cx="232.8403" cy="-500" rx="46.5926" ry="18"/>
<text text-anchor="middle" x="232.8403" y="-496.3" font-family="Times,serif" font-size="14.00" fill="#0000ff">api_client</text>
</a>
</g>
</g>
<!-- api_client&#45;&gt;vpro_shared -->
<g id="edge21" class="edge">
<title>api_client&#45;&gt;vpro_shared</title>
<path fill="none" stroke="#c0c0c0" d="M236.3039,-481.6168C242.5275,-454.2603 258.413,-403.539 293.8403,-380 341.4526,-348.3648 719.9874,-337.3599 875.4982,-334.1493"/>
<polygon fill="#c0c0c0" stroke="#c0c0c0" points="875.9305,-337.6414 885.8578,-333.9402 875.7892,-330.6428 875.9305,-337.6414"/>
</g>
<!-- api_client&#45;&gt;poms_shared -->
<g id="edge22" class="edge">
<title>api_client&#45;&gt;poms_shared</title>
<path fill="none" stroke="#c0c0c0" d="M231.86,-481.8102C230.2978,-452.8234 227.2311,-395.9192 225.3757,-361.4916"/>
<polygon fill="#c0c0c0" stroke="#c0c0c0" points="228.8525,-360.9645 224.8193,-351.1674 221.8626,-361.3413 228.8525,-360.9645"/>
</g>
<!-- poms_backend -->
<g id="node10" class="node">
<title>poms_backend</title>
<g id="a_node10"><a xlink:href="https://subversion.vpro.nl/viewvc/nl/vpro/media" xlink:title="POMS &#160;&amp; POMS Backend API">
<ellipse fill="none" stroke="#cd950c" cx="734.8403" cy="-688" rx="125.3778" ry="18"/>
<text text-anchor="middle" x="734.8403" y="-684.3" font-family="Times,serif" font-size="14.00" fill="#006400">POMS &#160;&amp; POMS Backend API</text>
</a>
</g>
</g>
<!-- poms_backend&#45;&gt;vpro_shared -->
<g id="edge33" class="edge">
<title>poms_backend&#45;&gt;vpro_shared</title>
<path fill="none" stroke="#cd950c" d="M823.6964,-675.2745C839.0628,-673.3252 854.8983,-671.4747 869.8403,-670 900.8649,-666.9381 1128.5148,-674.7404 1149.8403,-652 1239.5035,-556.3876 1137.9871,-462.1416 1035.8403,-380 1021.4583,-368.4347 1003.7667,-358.6713 987.626,-351.0913"/>
<polygon fill="#cd950c" stroke="#cd950c" points="988.8917,-347.8224 978.3386,-346.8836 986.0029,-354.1985 988.8917,-347.8224"/>
</g>
<!-- poms_backend&#45;&gt;poms_shared -->
<g id="edge34" class="edge">
<title>poms_backend&#45;&gt;poms_shared</title>
<path fill="none" stroke="#cd950c" d="M828.0694,-675.9343C883.2009,-667.7145 946.97,-655.9942 971.8403,-643 999.4173,-628.5916 1021.8403,-625.1143 1021.8403,-594 1021.8403,-594 1021.8403,-594 1021.8403,-463.5 1021.8403,-422.1565 1015.1289,-403.0992 980.8403,-380 973.7265,-375.2077 835.3992,-369.5612 826.8403,-369 632.7576,-356.2754 403.4082,-343.0936 291.7514,-336.7953"/>
<polygon fill="#cd950c" stroke="#cd950c" points="291.824,-333.2939 281.6429,-336.2258 291.4302,-340.2828 291.824,-333.2939"/>
</g>
<!-- poms_backend&#45;&gt;resteasy -->
<g id="edge35" class="edge">
<title>poms_backend&#45;&gt;resteasy</title>
<path fill="none" stroke="#cd950c" d="M825.9371,-675.544C840.6093,-673.627 855.6384,-671.7165 869.8403,-670 906.6773,-665.5477 1008.5636,-677.155 1035.8403,-652 1126.3173,-568.5605 1022.93,-484.5701 1087.8403,-380 1094.5742,-369.1516 1104.789,-359.9064 1114.9957,-352.5595"/>
<polygon fill="#cd950c" stroke="#cd950c" points="1117.1496,-355.3288 1123.4908,-346.8411 1113.2407,-349.5218 1117.1496,-355.3288"/>
</g>
<!-- poms_backend&#45;&gt;spring -->
<g id="edge36" class="edge">
<title>poms_backend&#45;&gt;spring</title>
<path fill="none" stroke="#cd950c" d="M825.5611,-675.4875C840.35,-673.5676 855.514,-671.6709 869.8403,-670 915.261,-664.7024 1042.8691,-676.6437 1073.8403,-643 1130.1556,-581.8252 1084.6517,-535.7919 1124.8403,-463 1148.6473,-419.8792 1189.2624,-379.2075 1215.8247,-355.1955"/>
<polygon fill="#cd950c" stroke="#cd950c" points="1218.4375,-357.5556 1223.5829,-348.2941 1213.785,-352.3255 1218.4375,-357.5556"/>
</g>
<!-- poms_backend&#45;&gt;hibernate -->
<g id="edge37" class="edge">
<title>poms_backend&#45;&gt;hibernate</title>
<path fill="none" stroke="#cd950c" d="M824.8162,-675.4249C839.837,-673.4917 855.2688,-671.6072 869.8403,-670 921.6503,-664.2854 1061.2721,-674.4488 1102.8403,-643 1134.9867,-618.6793 1130.0254,-600.5229 1153.8403,-568 1211.0708,-489.8426 1283.1385,-400.7948 1318.0233,-358.2382"/>
<polygon fill="#cd950c" stroke="#cd950c" points="1320.8481,-360.3134 1324.4891,-350.3638 1315.4381,-355.8712 1320.8481,-360.3134"/>
</g>
<!-- poms_gui -->
<g id="node11" class="node">
<title>poms_gui</title>
<g id="a_node11"><a xlink:href="https://subversion.vpro.nl/viewvc/nl/vpro/media-gui" xlink:title="Angular GUI for POMS">
<ellipse fill="none" stroke="#000000" cx="548.8403" cy="-500" rx="98.5829" ry="18"/>
<text text-anchor="middle" x="548.8403" y="-496.3" font-family="Times,serif" font-size="14.00" fill="#006400">Angular GUI for POMS</text>
</a>
</g>
</g>
<!-- poms_backend&#45;&gt;poms_gui -->
<g id="edge38" class="edge">
<title>poms_backend&#45;&gt;poms_gui</title>
<path fill="none" stroke="#cd950c" d="M728.8361,-669.721C719.7226,-644.2916 700.2817,-597.9922 670.8403,-568 651.0455,-547.835 623.9926,-531.9381 600.391,-520.602"/>
<polygon fill="#cd950c" stroke="#cd950c" points="601.7432,-517.3709 591.1997,-516.3294 598.7924,-523.7186 601.7432,-517.3709"/>
</g>
<!-- user_backend -->
<g id="node16" class="node">
<title>user_backend</title>
<g id="a_node16"><a xlink:href="https://subversion.vpro.nl/repo/nl/vpro/user" xlink:title="user_backend">
<ellipse fill="none" stroke="#000000" cx="857.8403" cy="-406" rx="60.3893" ry="18"/>
<text text-anchor="middle" x="857.8403" y="-402.3" font-family="Times,serif" font-size="14.00" fill="#006400">user_backend</text>
</a>
</g>
</g>
<!-- poms_backend&#45;&gt;user_backend -->
<g id="edge39" class="edge">
<title>poms_backend&#45;&gt;user_backend</title>
<path fill="none" stroke="#cd950c" d="M802.6027,-672.7982C822.1292,-667.0085 839.8093,-659.8848 845.8403,-652 895.1946,-587.4747 877.903,-483.2346 865.7034,-433.7652"/>
<polygon fill="#cd950c" stroke="#cd950c" points="869.0904,-432.8829 863.2032,-424.0743 862.3124,-434.6316 869.0904,-432.8829"/>
</g>
<!-- angular -->
<g id="node20" class="node">
<title>angular</title>
<ellipse fill="none" stroke="#000000" cx="1053.8403" cy="-333" rx="37.8943" ry="18"/>
<text text-anchor="middle" x="1053.8403" y="-329.3" font-family="Times,serif" font-size="14.00" fill="#000000">angular</text>
</g>
<!-- poms_gui&#45;&gt;angular -->
<g id="edge40" class="edge">
<title>poms_gui&#45;&gt;angular</title>
<path fill="none" stroke="#c0c0c0" d="M547.433,-481.8298C546.4582,-454.7517 549.2004,-404.3889 579.8403,-380 596.1895,-366.9862 935.093,-372.4914 955.8403,-370 978.8628,-367.2354 985.1295,-367.1438 1006.8403,-359 1011.8415,-357.124 1016.9577,-354.7858 1021.8871,-352.2862"/>
<polygon fill="#c0c0c0" stroke="#c0c0c0" points="1023.9044,-355.1756 1031.0569,-347.3595 1020.5913,-349.0093 1023.9044,-355.1756"/>
</g>
<!-- poms_shared_backend -->
<g id="node12" class="node">
<title>poms_shared_backend</title>
<g id="a_node12"><a xlink:href="https://subversion.vpro.nl/viewvc/nl/publiekeomroep/poms-shared-backend/" xlink:title="poms_shared_backend">
<ellipse fill="none" stroke="#00cdcd" cx="685.8403" cy="-406" rx="93.6835" ry="18"/>
<text text-anchor="middle" x="685.8403" y="-402.3" font-family="Times,serif" font-size="14.00" fill="#006400">poms_shared_backend</text>
</a>
</g>
</g>
<!-- poms_shared_backend&#45;&gt;vpro_shared -->
<g id="edge6" class="edge">
<title>poms_shared_backend&#45;&gt;vpro_shared</title>
<path fill="none" stroke="#00cdcd" d="M737.5871,-390.9343C753.8599,-386.7388 771.9827,-382.6182 788.8403,-380 806.88,-377.1982 940.3303,-383.296 952.8403,-370 955.3502,-367.3324 956.2869,-364.1173 956.2079,-360.7101"/>
<polygon fill="#00cdcd" stroke="#00cdcd" points="959.5754,-359.7487 953.7579,-350.8939 952.7838,-361.4439 959.5754,-359.7487"/>
</g>
<!-- poms_shared_backend&#45;&gt;poms_shared -->
<g id="edge7" class="edge">
<title>poms_shared_backend&#45;&gt;poms_shared</title>
<path fill="none" stroke="#00cdcd" d="M613.3988,-394.5536C523.3521,-380.3255 371.1866,-356.282 286.132,-342.8426"/>
<polygon fill="#00cdcd" stroke="#00cdcd" points="286.5246,-339.3613 276.1008,-341.2576 285.432,-346.2755 286.5246,-339.3613"/>
</g>
<!-- poms_shared_backend&#45;&gt;slf4j -->
<g id="edge8" class="edge">
<title>poms_shared_backend&#45;&gt;slf4j</title>
<path fill="none" stroke="#00cdcd" d="M736.7569,-390.8692C753.2296,-386.5891 771.676,-382.4365 788.8403,-380 822.0828,-375.2812 1369.5147,-383.1507 1392.8403,-359 1439.4571,-310.7342 1333.6289,-258.2479 1276.8396,-234.6916"/>
<polygon fill="#00cdcd" stroke="#00cdcd" points="1278.0969,-231.4246 1267.515,-230.9002 1275.4602,-237.9091 1278.0969,-231.4246"/>
</g>
<!-- api -->
<g id="node13" class="node">
<title>api</title>
<g id="a_node13"><a xlink:href="https://subversion.vpro.nl/viewvc/nl/vpro/api/" xlink:title="Frontend API">
<ellipse fill="none" stroke="#6495ed" cx="938.8403" cy="-688" rx="60.3893" ry="18"/>
<text text-anchor="middle" x="938.8403" y="-684.3" font-family="Times,serif" font-size="14.00" fill="#006400">Frontend API</text>
</a>
</g>
</g>
<!-- api&#45;&gt;vpro_shared -->
<g id="edge10" class="edge">
<title>api&#45;&gt;vpro_shared</title>
<path fill="none" stroke="#6495ed" d="M982.7851,-675.4473C991.0587,-673.3946 999.6758,-671.464 1007.8403,-670 1047.4087,-662.9049 1160.8662,-681.806 1187.8403,-652 1228.6962,-606.8547 1201.9133,-418.6192 1154.8403,-380 1103.4773,-337.8613 1071.0315,-376.1263 1006.8403,-359 999.2438,-356.9733 991.3362,-354.3107 983.7596,-351.463"/>
<polygon fill="#6495ed" stroke="#6495ed" points="984.9757,-348.1805 974.388,-347.7909 982.4219,-354.698 984.9757,-348.1805"/>
</g>
<!-- api&#45;&gt;poms_shared -->
<g id="edge11" class="edge">
<title>api&#45;&gt;poms_shared</title>
<path fill="none" stroke="#6495ed" d="M982.4063,-675.4914C990.7936,-673.4088 999.5487,-671.4562 1007.8403,-670 1053.5306,-661.9757 1191.8763,-683.307 1214.8403,-643 1252.0226,-577.7363 1258.0509,-536.13 1215.8403,-474 1160.4194,-392.4258 1110.3449,-404.5905 1014.8403,-380 945.9032,-362.2501 471.3562,-342.4783 292.1541,-335.5573"/>
<polygon fill="#6495ed" stroke="#6495ed" points="292.184,-332.056 282.0568,-335.1689 291.9148,-339.0508 292.184,-332.056"/>
</g>
<!-- api&#45;&gt;resteasy -->
<g id="edge12" class="edge">
<title>api&#45;&gt;resteasy</title>
<path fill="none" stroke="#6495ed" d="M982.3809,-675.3415C990.7705,-673.2727 999.533,-671.3636 1007.8403,-670 1035.9784,-665.3814 1244.3973,-672.858 1263.8403,-652 1305.1174,-607.7186 1286.2283,-427.6107 1248.8403,-380 1233.9541,-361.0437 1220.619,-369.3258 1198.8403,-359 1194.1209,-356.7624 1189.2019,-354.306 1184.3798,-351.8239"/>
<polygon fill="#6495ed" stroke="#6495ed" points="1185.7862,-348.6095 1175.3038,-347.0698 1182.5381,-354.8103 1185.7862,-348.6095"/>
</g>
<!-- api&#45;&gt;poms_shared_backend -->
<g id="edge13" class="edge">
<title>api&#45;&gt;poms_shared_backend</title>
<path fill="none" stroke="#6495ed" d="M934.9089,-670.0064C928.6311,-643.7447 914.6693,-594.0194 891.8403,-557 865.1088,-513.6525 853.3567,-504.8544 812.8403,-474 788.4039,-455.3911 758.1855,-438.9871 733.3564,-426.9552"/>
<polygon fill="#6495ed" stroke="#6495ed" points="734.6612,-423.7001 724.1276,-422.5625 731.6527,-430.0206 734.6612,-423.7001"/>
</g>
<!-- api&#45;&gt;user_backend -->
<g id="edge14" class="edge">
<title>api&#45;&gt;user_backend</title>
<path fill="none" stroke="#6495ed" d="M942.2528,-669.7482C948.8236,-629.2144 959.2503,-529.9929 918.8403,-463 911.1895,-450.3164 899.9261,-438.6758 889.1537,-429.2668"/>
<polygon fill="#6495ed" stroke="#6495ed" points="891.371,-426.5585 881.4551,-422.827 886.8797,-431.9277 891.371,-426.5585"/>
</g>
<!-- media_publish -->
<g id="node14" class="node">
<title>media_publish</title>
<g id="a_node14"><a xlink:href="https://subversion.vpro.nl/viewvc/nl/publiekeomroep/npo-publish/" xlink:title="Media Publisher">
<ellipse fill="none" stroke="#bf3eff" cx="520.8403" cy="-688" rx="70.6878" ry="18"/>
<text text-anchor="middle" x="520.8403" y="-684.3" font-family="Times,serif" font-size="14.00" fill="#006400">Media Publisher</text>
</a>
</g>
</g>
<!-- media_publish&#45;&gt;poms_shared -->
<g id="edge18" class="edge">
<title>media_publish&#45;&gt;poms_shared</title>
<path fill="none" stroke="#bf3eff" d="M571.8679,-675.5134C581.4531,-673.4543 591.4214,-671.5044 600.8403,-670 686.5248,-656.3143 983.8403,-680.7706 983.8403,-594 983.8403,-594 983.8403,-594 983.8403,-463.5 983.8403,-423.757 983.7355,-403.7107 951.8403,-380 945.1789,-375.048 811.1214,-369.5631 802.8403,-369 617.8889,-356.4236 399.5799,-343.3216 291.4922,-336.9512"/>
<polygon fill="#bf3eff" stroke="#bf3eff" points="291.5695,-333.4498 281.381,-336.356 291.158,-340.4377 291.5695,-333.4498"/>
</g>
<!-- pages_publish -->
<g id="node15" class="node">
<title>pages_publish</title>
<g id="a_node15"><a xlink:href="https://subversion.vpro.nl/viewvc/nl/vpro/pages-publish/" xlink:title="Pages Publisher">
<ellipse fill="none" stroke="#8fbc8f" cx="734.8403" cy="-500" rx="68.7879" ry="18"/>
<text text-anchor="middle" x="734.8403" y="-496.3" font-family="Times,serif" font-size="14.00" fill="#006400">Pages Publisher</text>
</a>
</g>
</g>
<!-- media_publish&#45;&gt;pages_publish -->
<g id="edge20" class="edge">
<title>media_publish&#45;&gt;pages_publish</title>
<path fill="none" stroke="#c0c0c0" d="M540.5893,-670.6504C581.3571,-634.8356 674.4119,-553.0866 715.139,-517.3077"/>
<text text-anchor="middle" x="720.8403" y="-590.3" font-family="Times,serif" font-size="14.00" fill="#000000">we plan to merge these</text>
</g>
<!-- media_publish&#45;&gt;user_backend -->
<g id="edge19" class="edge">
<title>media_publish&#45;&gt;user_backend</title>
<path fill="none" stroke="#bf3eff" d="M572.788,-675.683C582.1019,-673.6543 591.739,-671.6713 600.8403,-670 642.569,-662.3374 757.85,-670.868 789.8403,-643 851.1831,-589.5618 858.9228,-484.844 858.8397,-434.4396"/>
<polygon fill="#bf3eff" stroke="#bf3eff" points="862.3374,-434.2189 858.7132,-424.2633 855.3379,-434.306 862.3374,-434.2189"/>
</g>
<!-- pages_publish&#45;&gt;poms_shared -->
<g id="edge15" class="edge">
<title>pages_publish&#45;&gt;poms_shared</title>
<path fill="none" stroke="#8fbc8f" d="M799.6111,-493.6682C849.8853,-487.2572 913.6719,-475.3244 929.8403,-455 950.592,-428.914 952.6142,-404.3405 929.8403,-380 927.1273,-377.1005 467.7394,-348.1935 291.5453,-337.207"/>
<polygon fill="#8fbc8f" stroke="#8fbc8f" points="291.5571,-333.701 281.3587,-336.5721 291.1216,-340.6874 291.5571,-333.701"/>
</g>
<!-- pages_publish&#45;&gt;poms_shared_backend -->
<g id="edge16" class="edge">
<title>pages_publish&#45;&gt;poms_shared_backend</title>
<path fill="none" stroke="#8fbc8f" d="M725.3926,-481.8759C718.2071,-468.0915 708.2014,-448.8968 700.0516,-433.2627"/>
<polygon fill="#8fbc8f" stroke="#8fbc8f" points="702.9851,-431.3182 695.2589,-424.0685 696.7778,-434.5539 702.9851,-431.3182"/>
</g>
<!-- pages_publish&#45;&gt;user_backend -->
<g id="edge17" class="edge">
<title>pages_publish&#45;&gt;user_backend</title>
<path fill="none" stroke="#8fbc8f" d="M757.4003,-482.759C777.1152,-467.6923 805.8994,-445.6946 827.6051,-429.1065"/>
<polygon fill="#8fbc8f" stroke="#8fbc8f" points="830.0168,-431.6685 835.837,-422.8155 825.7663,-426.1067 830.0168,-431.6685"/>
</g>
<!-- images -->
<g id="node17" class="node">
<title>images</title>
<g id="a_node17"><a xlink:href="https://subversion.vpro.nl/viewvc/nl/vpro/images/" xlink:title="Images Frontend &amp; Backend">
<ellipse fill="none" stroke="#caff70" cx="1132.8403" cy="-688" rx="115.8798" ry="18"/>
<text text-anchor="middle" x="1132.8403" y="-684.3" font-family="Times,serif" font-size="14.00" fill="#006400">Images Frontend &amp; Backend</text>
</a>
</g>
</g>
<!-- images&#45;&gt;poms_shared -->
<g id="edge23" class="edge">
<title>images&#45;&gt;poms_shared</title>
<path fill="none" stroke="#caff70" d="M1232.8758,-678.9402C1276.1697,-672.4179 1319.1992,-661.4006 1328.8403,-643 1397.8768,-511.239 1259.7156,-435.8337 1121.8403,-380 1083.5941,-364.5119 495.8877,-342.5445 292.49,-335.3677"/>
<polygon fill="#caff70" stroke="#caff70" points="292.3509,-331.8607 282.234,-335.0069 292.1047,-338.8564 292.3509,-331.8607"/>
</g>
<!-- images&#45;&gt;spring -->
<g id="edge24" class="edge">
<title>images&#45;&gt;spring</title>
<path fill="none" stroke="#caff70" d="M1234.4925,-679.2944C1297.4526,-672.8433 1368.1271,-663.2447 1377.8403,-652 1461.4894,-555.1613 1424.81,-448.881 1324.8403,-369 1310.5243,-357.5608 1301.7583,-366.0415 1284.8403,-359 1280.3451,-357.129 1275.7661,-354.8381 1271.3535,-352.3991"/>
<polygon fill="#caff70" stroke="#caff70" points="1273.0067,-349.3112 1262.6099,-347.2723 1269.466,-355.3497 1273.0067,-349.3112"/>
</g>
<!-- images&#45;&gt;hibernate -->
<g id="edge25" class="edge">
<title>images&#45;&gt;hibernate</title>
<path fill="none" stroke="#caff70" d="M1243.8752,-682.7653C1312.2913,-677.2535 1391.6051,-665.984 1416.8403,-643 1434.6263,-626.8006 1439.8403,-618.0575 1439.8403,-594 1439.8403,-594 1439.8403,-594 1439.8403,-406 1439.8403,-376.9039 1411.9672,-358.232 1385.5061,-347.0617"/>
<polygon fill="#caff70" stroke="#caff70" points="1386.4628,-343.6772 1375.8754,-343.2803 1383.9044,-350.193 1386.4628,-343.6772"/>
</g>
<!-- images&#45;&gt;user_backend -->
<g id="edge26" class="edge">
<title>images&#45;&gt;user_backend</title>
<path fill="none" stroke="#caff70" d="M1229.5284,-677.9778C1261.7206,-672.4975 1291.9316,-664.2417 1301.8403,-652 1328.4043,-619.1813 1326.424,-591.3272 1301.8403,-557 1256.3866,-493.5313 1029.8945,-440.42 919.0917,-417.7624"/>
<polygon fill="#caff70" stroke="#caff70" points="919.5576,-414.2857 909.0617,-415.73 918.1674,-421.1463 919.5576,-414.2857"/>
</g>
<!-- functional_tests -->
<g id="node18" class="node">
<title>functional_tests</title>
<g id="a_node18"><a xlink:href="https://github.com/npo-poms/functional-tests" xlink:title="Functional integration tests">
<ellipse fill="#e0eeee" stroke="#9acd32" cx="109.8403" cy="-594" rx="109.6807" ry="18"/>
<text text-anchor="middle" x="109.8403" y="-590.3" font-family="Times,serif" font-size="14.00" fill="#0000ff">Functional integration tests</text>
</a>
</g>
</g>
<!-- functional_tests&#45;&gt;api_client -->
<g id="edge41" class="edge">
<title>functional_tests&#45;&gt;api_client</title>
<path fill="none" stroke="#c0c0c0" d="M132.9756,-576.3193C152.8805,-561.1074 181.7128,-539.073 203.2855,-522.5865"/>
<polygon fill="#c0c0c0" stroke="#c0c0c0" points="205.6346,-525.1964 211.4548,-516.3433 201.3841,-519.6346 205.6346,-525.1964"/>
</g>
<!-- magnolia -->
<g id="node21" class="node">
<title>magnolia</title>
<ellipse fill="none" stroke="#000000" cx="282.8403" cy="-594" rx="44.6926" ry="18"/>
<text text-anchor="middle" x="282.8403" y="-590.3" font-family="Times,serif" font-size="14.00" fill="#000000">magnolia</text>
</g>
<!-- magnolia&#45;&gt;vpro_shared -->
<g id="edge27" class="edge">
<title>magnolia&#45;&gt;vpro_shared</title>
<path fill="none" stroke="#8b8878" d="M287.7159,-575.9518C295.6996,-547.006 311.6865,-491.6619 321.8403,-474 349.7648,-425.4266 355.7482,-405.0988 405.8403,-380 446.9956,-359.3789 742.5509,-342.6486 876.3409,-336.0431"/>
<polygon fill="#8b8878" stroke="#8b8878" points="876.6439,-339.5325 886.4607,-335.5475 876.3015,-332.5409 876.6439,-339.5325"/>
</g>
<!-- magnolia&#45;&gt;api_client -->
<g id="edge28" class="edge">
<title>magnolia&#45;&gt;api_client</title>
<path fill="none" stroke="#8b8878" d="M272.7652,-576.1123C269.5566,-570.3499 266.0164,-563.9229 262.8403,-558 257.3998,-547.8546 251.5551,-536.6319 246.4829,-526.7829"/>
<polygon fill="#8b8878" stroke="#8b8878" points="249.574,-525.1404 241.895,-517.8409 243.346,-528.3359 249.574,-525.1404"/>
</g>
<!-- vpro_rs -->
<g id="node22" class="node">
<title>vpro_rs</title>
<ellipse fill="none" stroke="#000000" cx="383.8403" cy="-594" rx="38.1938" ry="18"/>
<text text-anchor="middle" x="383.8403" y="-590.3" font-family="Times,serif" font-size="14.00" fill="#000000">vpro_rs</text>
</g>
<!-- vpro_rs&#45;&gt;vpro_shared -->
<g id="edge29" class="edge">
<title>vpro_rs&#45;&gt;vpro_shared</title>
<path fill="none" stroke="#8b8878" d="M381.4061,-575.7707C379.026,-550.8093 378.2,-505.5045 397.8403,-474 438.6679,-408.5091 470.0903,-402.7354 543.8403,-380 564.2338,-373.7132 910.4413,-382.3571 927.8403,-370 931.2087,-367.6077 933.7672,-364.2966 935.7103,-360.6306"/>
<polygon fill="#8b8878" stroke="#8b8878" points="939.05,-361.6976 939.3837,-351.108 932.5191,-359.1782 939.05,-361.6976"/>
</g>
<!-- vpro_rs&#45;&gt;poms_shared -->
<g id="edge30" class="edge">
<title>vpro_rs&#45;&gt;poms_shared</title>
<path fill="none" stroke="#8b8878" d="M375.5064,-576.1194C364.212,-552.321 343.0141,-509.1526 321.8403,-474 296.8571,-432.5233 264.1267,-386.9191 243.5364,-359.1209"/>
<polygon fill="#8b8878" stroke="#8b8878" points="246.0824,-356.6797 237.303,-350.749 240.4677,-360.8601 246.0824,-356.6797"/>
</g>
<!-- vpro_rs&#45;&gt;api_client -->
<g id="edge31" class="edge">
<title>vpro_rs&#45;&gt;api_client</title>
<path fill="none" stroke="#8b8878" d="M360.5774,-579.5185C335.4207,-563.858 295.0874,-538.7499 266.4791,-520.9407"/>
<polygon fill="#8b8878" stroke="#8b8878" points="267.9759,-517.7498 257.6368,-515.4362 264.2765,-523.6924 267.9759,-517.7498"/>
</g>
<!-- vpro_rs&#45;&gt;poms_shared_backend -->
<g id="edge32" class="edge">
<title>vpro_rs&#45;&gt;poms_shared_backend</title>
<path fill="none" stroke="#8b8878" d="M390.9132,-576.0916C403.5718,-544.4003 429.5517,-481.0923 437.8403,-474 463.2773,-452.2341 544.0274,-432.6325 606.5503,-420.1297"/>
<polygon fill="#8b8878" stroke="#8b8878" points="607.2828,-423.5527 616.4171,-418.1848 605.929,-416.6849 607.2828,-423.5527"/>
</g>
</g>
</svg>
