<?xml version="1.0" encoding="UTF-8" standalone="no"?>
<!DOCTYPE svg PUBLIC "-//W3C//DTD SVG 1.1//EN"
 "http://www.w3.org/Graphics/SVG/1.1/DTD/svg11.dtd">
<!-- Generated by graphviz version 2.40.1 (20161225.0304)
 -->
<!-- Title: poms_universe Pages: 1 -->
<svg width="2326pt" height="505pt"
 viewBox="0.00 0.00 2326.00 504.95" xmlns="http://www.w3.org/2000/svg" xmlns:xlink="http://www.w3.org/1999/xlink">
<g id="graph0" class="graph" transform="scale(1 1) rotate(0) translate(4 500.9533)">
<title>poms_universe</title>
<polygon fill="#ffffff" stroke="transparent" points="-4,4 -4,-500.9533 2322,-500.9533 2322,4 -4,4"/>
<text text-anchor="middle" x="1159" y="-7.8" font-family="Times,serif" font-size="14.00" fill="#000000">Deployments relevant for POMS</text>
<g id="clust1" class="cluster">
<title>cluster_0</title>
<polygon fill="#f0ffff" stroke="#000000" points="417,-31 417,-144.9533 1327,-144.9533 1327,-31 417,-31"/>
<text text-anchor="middle" x="872" y="-38.8" font-family="Times,serif" font-size="14.00" fill="#000000">Generic backend services</text>
</g>
<g id="clust2" class="cluster">
<title>cluster_3</title>
<polygon fill="none" stroke="#000000" points="399,-330.9533 399,-488.9533 923,-488.9533 923,-330.9533 399,-330.9533"/>
<text text-anchor="middle" x="661" y="-473.7533" font-family="Times,serif" font-size="14.00" fill="#000000">World</text>
</g>
<g id="clust3" class="cluster">
<title>cluster_2</title>
<polygon fill="none" stroke="#000000" points="407,-338.9533 407,-413.9533 915,-413.9533 915,-338.9533 407,-338.9533"/>
<text text-anchor="middle" x="661" y="-398.7533" font-family="Times,serif" font-size="14.00" fill="#000000">VPRO</text>
</g>
<g id="clust4" class="cluster">
<title>cluster_4</title>
<polygon fill="#f0ffff" stroke="#000000" points="8,-175.9533 8,-322.9533 872,-322.9533 872,-175.9533 8,-175.9533"/>
<text text-anchor="middle" x="440" y="-307.7533" font-family="Times,serif" font-size="14.00" fill="#000000">POMS &#160;Services</text>
</g>
<g id="clust5" class="cluster">
<title>cluster_5</title>
<polygon fill="none" stroke="#000000" points="1807,-50.4767 1807,-227.9533 2310,-227.9533 2310,-50.4767 1807,-50.4767"/>
<text text-anchor="middle" x="2058.5" y="-58.2767" font-family="Times,serif" font-size="14.00" fill="#000000">NPO Services</text>
</g>
<g id="clust6" class="cluster">
<title>cluster_6</title>
<polygon fill="none" stroke="#000000" points="1172,-152.9533 1172,-227.9533 1799,-227.9533 1799,-152.9533 1172,-152.9533"/>
<text text-anchor="middle" x="1485.5" y="-160.7533" font-family="Times,serif" font-size="14.00" fill="#000000">Auxiliary API&#39;s</text>
</g>
<!-- poms -->
<g id="node1" class="node">
<title>poms</title>
<g id="a_node1"><a xlink:href="https://poms.omroep.nl/" xlink:title="POMS">
<ellipse fill="none" stroke="#000000" cx="828" cy="-273.9533" rx="35.9954" ry="18"/>
<text text-anchor="middle" x="828" y="-270.2533" font-family="Times,serif" font-size="14.00" fill="#0000ff">POMS</text>
</a>
</g>
</g>
<!-- gtaa -->
<g id="node8" class="node">
<title>gtaa</title>
<g id="a_node8"><a xlink:href="http://gtaa.beeldengeluid.nl/" xlink:title="B&amp;G Thesaurus">
<ellipse fill="none" stroke="#000000" cx="1250" cy="-201.9533" rx="70.3881" ry="18"/>
<text text-anchor="middle" x="1250" y="-198.2533" font-family="Times,serif" font-size="14.00" fill="#0000ff">B&amp;G Thesaurus</text>
</a>
</g>
</g>
<!-- poms&#45;&gt;gtaa -->
<g id="edge9" class="edge">
<title>poms&#45;&gt;gtaa</title>
<path fill="none" stroke="#0000ff" d="M857.82,-263.9475C867.6528,-260.9736 878.7068,-257.9739 889,-255.9533 1010.4211,-232.1178 1044.7393,-252.5917 1166,-227.9533 1176.7667,-225.7657 1188.1185,-222.7532 1198.8756,-219.5526"/>
<polygon fill="#0000ff" stroke="#0000ff" points="1200.0227,-222.8616 1208.5534,-216.5785 1197.9664,-216.1705 1200.0227,-222.8616"/>
</g>
<!-- postgresql_media -->
<g id="node11" class="node">
<title>postgresql_media</title>
<ellipse fill="none" stroke="#000000" cx="1244" cy="-99.4767" rx="74.9875" ry="18"/>
<text text-anchor="middle" x="1244" y="-95.7767" font-family="Times,serif" font-size="14.00" fill="#000000">postgresql_media</text>
</g>
<!-- poms&#45;&gt;postgresql_media -->
<g id="edge10" class="edge">
<title>poms&#45;&gt;postgresql_media</title>
<path fill="none" stroke="#0000ff" d="M858.202,-264.1909C867.9603,-261.2659 878.8743,-258.2334 889,-255.9533 967.1277,-238.3608 996.1296,-265.2471 1067,-227.9533 1107.6198,-206.5782 1099.6255,-178.1379 1138,-152.9533 1146.6983,-147.2448 1150.5107,-149.2194 1160,-144.9533 1175.5093,-137.9809 1192.0708,-129.298 1206.3534,-121.3934"/>
<polygon fill="#0000ff" stroke="#0000ff" points="1208.3635,-124.2791 1215.3761,-116.3372 1204.9414,-118.1726 1208.3635,-124.2791"/>
</g>
<!-- jms_ingest -->
<g id="node14" class="node">
<title>jms_ingest</title>
<ellipse fill="none" stroke="#000000" cx="890" cy="-99.4767" rx="93.1765" ry="37.4533"/>
<text text-anchor="start" x="832" y="-110.7767" font-family="Times,serif" font-size="14.00" fill="#000000">JMS ActiveMQ</text>
<text text-anchor="start" x="832" y="-95.7767" font-family="Times,serif" font-size="14.00" fill="#000000">(broadcast ingests,</text>
<text text-anchor="middle" x="890" y="-80.7767" font-family="Times,serif" font-size="14.00" fill="#000000">internal SOAP calls)</text>
</g>
<!-- poms&#45;&gt;jms_ingest -->
<g id="edge11" class="edge">
<title>poms&#45;&gt;jms_ingest</title>
<path fill="none" stroke="#0000ff" d="M858.6084,-264.488C868.2914,-261.6103 879.0598,-258.5302 889,-255.9533 944.1106,-241.6668 978.4135,-272.393 1014,-227.9533 1034.8356,-201.9343 1033.1232,-180.2556 1014,-152.9533 1008.0312,-144.4316 1001.6462,-148.8519 992,-144.9533 981.8843,-140.865 971.2871,-136.3766 960.909,-131.8616"/>
<polygon fill="#0000ff" stroke="#0000ff" points="962.0236,-128.5287 951.4598,-127.7184 959.2126,-134.9395 962.0236,-128.5287"/>
</g>
<!-- jms_publish -->
<g id="node15" class="node">
<title>jms_publish</title>
<ellipse fill="none" stroke="#000000" cx="1076" cy="-99.4767" rx="74.9067" ry="26.7407"/>
<text text-anchor="start" x="1031" y="-103.2767" font-family="Times,serif" font-size="14.00" fill="#000000">JMS ActiveMQ</text>
<text text-anchor="middle" x="1076" y="-88.2767" font-family="Times,serif" font-size="14.00" fill="#000000">(publication)</text>
</g>
<!-- poms&#45;&gt;jms_publish -->
<g id="edge12" class="edge">
<title>poms&#45;&gt;jms_publish</title>
<path fill="none" stroke="#0000ff" d="M858.5614,-264.3009C868.2422,-261.4144 879.0212,-258.3764 889,-255.9533 953.2057,-240.3629 985.5756,-271.8014 1035,-227.9533 1060.8936,-204.9812 1070.5538,-165.6926 1074.0945,-136.5953"/>
<polygon fill="#0000ff" stroke="#0000ff" points="1077.603,-136.6902 1075.1408,-126.3854 1070.6395,-135.9764 1077.603,-136.6902"/>
</g>
<!-- ldap -->
<g id="node16" class="node">
<title>ldap</title>
<ellipse fill="none" stroke="#000000" cx="584" cy="-99.4767" rx="27" ry="18"/>
<text text-anchor="middle" x="584" y="-95.7767" font-family="Times,serif" font-size="14.00" fill="#000000">ldap</text>
</g>
<!-- poms&#45;&gt;ldap -->
<g id="edge13" class="edge">
<title>poms&#45;&gt;ldap</title>
<path fill="none" stroke="#0000ff" d="M800.748,-261.8454C794.9738,-259.6231 788.8534,-257.5157 783,-255.9533 740.278,-244.5496 615.2424,-261.1209 586,-227.9533 561.9554,-200.6813 567.7165,-156.0593 575.0773,-127.2336"/>
<polygon fill="#0000ff" stroke="#0000ff" points="578.5075,-127.9615 577.8093,-117.3897 571.7625,-126.0895 578.5075,-127.9615"/>
</g>
<!-- metis -->
<g id="node23" class="node">
<title>metis</title>
<ellipse fill="none" stroke="#000000" cx="1969" cy="-99.4767" rx="30.5947" ry="18"/>
<text text-anchor="middle" x="1969" y="-95.7767" font-family="Times,serif" font-size="14.00" fill="#000000">metis</text>
</g>
<!-- poms&#45;&gt;metis -->
<g id="edge14" class="edge">
<title>poms&#45;&gt;metis</title>
<path fill="none" stroke="#0000ff" d="M854.596,-261.7139C860.2456,-259.5012 866.2442,-257.4309 872,-255.9533 977.7279,-228.8116 1022.3425,-284.0188 1116,-227.9533 1150.8023,-207.1198 1132.537,-172.6411 1168,-152.9533 1183.8536,-144.1519 1312.8998,-146.0425 1331,-144.9533 1556.8877,-131.3611 1827.4358,-110.5908 1928.3977,-102.6839"/>
<polygon fill="#0000ff" stroke="#0000ff" points="1928.7744,-106.1652 1938.47,-101.8937 1928.2268,-99.1866 1928.7744,-106.1652"/>
</g>
<!-- pd -->
<g id="node24" class="node">
<title>pd</title>
<ellipse fill="none" stroke="#000000" cx="2167" cy="-201.9533" rx="27" ry="18"/>
<text text-anchor="middle" x="2167" y="-198.2533" font-family="Times,serif" font-size="14.00" fill="#000000">pd</text>
</g>
<!-- poms&#45;&gt;pd -->
<g id="edge15" class="edge">
<title>poms&#45;&gt;pd</title>
<path fill="none" stroke="#0000ff" d="M861.4058,-266.9406C881.9547,-262.9482 908.8843,-258.2895 933,-255.9533 1065.5271,-243.1148 2004.7983,-270.3961 2131,-227.9533 2135.0282,-226.5986 2138.9909,-224.6217 2142.7294,-222.3535"/>
<polygon fill="#0000ff" stroke="#0000ff" points="2144.7134,-225.2369 2150.9714,-216.6877 2140.7479,-219.4684 2144.7134,-225.2369"/>
</g>
<!-- prepr -->
<g id="node25" class="node">
<title>prepr</title>
<ellipse fill="none" stroke="#000000" cx="2092" cy="-201.9533" rx="29.795" ry="18"/>
<text text-anchor="middle" x="2092" y="-198.2533" font-family="Times,serif" font-size="14.00" fill="#000000">prepr</text>
</g>
<!-- poms&#45;&gt;prepr -->
<g id="edge16" class="edge">
<title>poms&#45;&gt;prepr</title>
<path fill="none" stroke="#0000ff" d="M861.4071,-266.9547C881.9565,-262.9673 908.8862,-258.3091 933,-255.9533 1056.8935,-243.8495 1934.3181,-265.5127 2053,-227.9533 2057.3956,-226.5623 2061.7557,-224.5134 2065.8809,-222.1661"/>
<polygon fill="#0000ff" stroke="#0000ff" points="2067.913,-225.0213 2074.4586,-216.6903 2064.1464,-219.1211 2067.913,-225.0213"/>
</g>
<!-- miranda -->
<g id="node26" class="node">
<title>miranda</title>
<ellipse fill="none" stroke="#000000" cx="1927" cy="-201.9533" rx="40.0939" ry="18"/>
<text text-anchor="middle" x="1927" y="-198.2533" font-family="Times,serif" font-size="14.00" fill="#000000">miranda</text>
</g>
<!-- poms&#45;&gt;miranda -->
<g id="edge17" class="edge">
<title>poms&#45;&gt;miranda</title>
<path fill="none" stroke="#0000ff" d="M861.4111,-266.9946C881.9619,-263.0218 908.8918,-258.3649 933,-255.9533 1142.0489,-235.0419 1674.9005,-281.7058 1878,-227.9533 1883.7255,-226.438 1889.528,-224.1502 1895.0401,-221.5486"/>
<polygon fill="#0000ff" stroke="#0000ff" points="1896.6835,-224.6392 1903.9774,-216.9548 1893.4835,-218.4134 1896.6835,-224.6392"/>
</g>
<!-- pluto -->
<g id="node27" class="node">
<title>pluto</title>
<ellipse fill="none" stroke="#000000" cx="2015" cy="-201.9533" rx="29.4969" ry="18"/>
<text text-anchor="middle" x="2015" y="-198.2533" font-family="Times,serif" font-size="14.00" fill="#000000">pluto</text>
</g>
<!-- poms&#45;&gt;pluto -->
<g id="edge18" class="edge">
<title>poms&#45;&gt;pluto</title>
<path fill="none" stroke="#0000ff" d="M861.4087,-266.9706C881.9587,-262.989 908.8884,-258.3314 933,-255.9533 1048.3709,-244.5747 1865.5045,-263.0341 1976,-227.9533 1980.3943,-226.5582 1984.7537,-224.5071 1988.8785,-222.1588"/>
<polygon fill="#0000ff" stroke="#0000ff" points="1990.911,-225.0137 1997.4561,-216.6823 1987.144,-219.1137 1990.911,-225.0137"/>
</g>
<!-- nep -->
<g id="node28" class="node">
<title>nep</title>
<ellipse fill="none" stroke="#000000" cx="1842" cy="-201.9533" rx="27" ry="18"/>
<text text-anchor="middle" x="1842" y="-198.2533" font-family="Times,serif" font-size="14.00" fill="#000000">nep</text>
</g>
<!-- poms&#45;&gt;nep -->
<g id="edge19" class="edge">
<title>poms&#45;&gt;nep</title>
<path fill="none" stroke="#0000ff" d="M861.4133,-267.0166C881.9649,-263.0518 908.8949,-258.3957 933,-255.9533 1029.2241,-246.2039 1710.896,-257.4657 1803,-227.9533 1807.6932,-226.4495 1812.3486,-224.2021 1816.7213,-221.647"/>
<polygon fill="#0000ff" stroke="#0000ff" points="1818.7527,-224.5009 1825.2216,-216.1101 1814.9321,-218.6355 1818.7527,-224.5009"/>
</g>
<!-- keycloak -->
<g id="node29" class="node">
<title>keycloak</title>
<g id="a_node29"><a xlink:href="https://ident.poms.omroep.nl/auth/" xlink:title="Keycloak">
<ellipse fill="none" stroke="#000000" cx="2257" cy="-201.9533" rx="45.4919" ry="18"/>
<text text-anchor="middle" x="2257" y="-198.2533" font-family="Times,serif" font-size="14.00" fill="#0000ff">Keycloak</text>
</a>
</g>
</g>
<!-- poms&#45;&gt;keycloak -->
<g id="edge20" class="edge">
<title>poms&#45;&gt;keycloak</title>
<path fill="none" stroke="#0000ff" d="M861.4047,-266.9292C881.9532,-262.9326 908.8828,-258.2735 933,-255.9533 1073.4967,-242.4367 2065.7467,-260.8707 2203,-227.9533 2209.3744,-226.4245 2215.8818,-224.0736 2222.0707,-221.3977"/>
<polygon fill="#0000ff" stroke="#0000ff" points="2223.8969,-224.4073 2231.4689,-216.9968 2220.9283,-218.068 2223.8969,-224.4073"/>
</g>
<!-- poms_backend -->
<g id="node2" class="node">
<title>poms_backend</title>
<g id="a_node2"><a xlink:href="https://api.poms.omroep.nl/" xlink:title="POMS backend API">
<ellipse fill="none" stroke="#000000" cx="529" cy="-273.9533" rx="85.2851" ry="18"/>
<text text-anchor="middle" x="529" y="-270.2533" font-family="Times,serif" font-size="14.00" fill="#0000ff">POMS backend API</text>
</a>
</g>
</g>
<!-- poms_backend&#45;&gt;jms_ingest -->
<g id="edge21" class="edge">
<title>poms_backend&#45;&gt;jms_ingest</title>
<path fill="none" stroke="#ff7f00" d="M531.6193,-255.7724C536.6687,-228.1686 550.5734,-176.4213 586,-152.9533 604.726,-140.5485 766.1269,-150.063 788,-144.9533 799.9927,-142.1518 812.3137,-137.9407 824.0618,-133.192"/>
<polygon fill="#ff7f00" stroke="#ff7f00" points="825.4845,-136.3907 833.3434,-129.2851 822.7688,-129.9389 825.4845,-136.3907"/>
</g>
<!-- poms_backend&#45;&gt;ldap -->
<g id="edge22" class="edge">
<title>poms_backend&#45;&gt;ldap</title>
<path fill="none" stroke="#ff7f00" d="M519.6108,-255.7733C507.7671,-230.0092 491.5982,-182.7061 515,-152.9533 524.3299,-141.0914 535.2905,-153.091 548,-144.9533 555.9238,-139.8799 562.8592,-132.4517 568.4721,-125.0635"/>
<polygon fill="#ff7f00" stroke="#ff7f00" points="571.5634,-126.7508 574.4338,-116.5522 565.8299,-122.7349 571.5634,-126.7508"/>
</g>
<!-- poms_backend&#45;&gt;metis -->
<g id="edge23" class="edge">
<title>poms_backend&#45;&gt;metis</title>
<path fill="none" stroke="#ff7f00" d="M592.1158,-261.8698C661.6351,-248.5361 763.9694,-228.8262 766,-227.9533 818.6873,-205.3052 816.5412,-170.9291 871,-152.9533 895.2714,-144.9418 1305.4656,-146.0846 1331,-144.9533 1557.0746,-134.9374 1827.512,-112.0496 1928.421,-103.1302"/>
<polygon fill="#ff7f00" stroke="#ff7f00" points="1928.8364,-106.6072 1938.4879,-102.2369 1928.2176,-99.6346 1928.8364,-106.6072"/>
</g>
<!-- poms_backend&#45;&gt;nep -->
<g id="edge24" class="edge">
<title>poms_backend&#45;&gt;nep</title>
<path fill="none" stroke="#ff7f00" d="M588.4493,-261.0312C599.8664,-258.9868 611.7651,-257.1539 623,-255.9533 753.4055,-242.0174 1677.9389,-267.4442 1803,-227.9533 1807.6996,-226.4693 1812.3582,-224.2324 1816.7324,-221.6817"/>
<polygon fill="#ff7f00" stroke="#ff7f00" points="1818.763,-224.5361 1825.2331,-216.1464 1814.9432,-218.6701 1818.763,-224.5361"/>
</g>
<!-- api -->
<g id="node3" class="node">
<title>api</title>
<g id="a_node3"><a xlink:href="https://rs.poms.omroep.nl/" xlink:title="NPO Frontend API">
<ellipse fill="none" stroke="#000000" cx="253" cy="-273.9533" rx="81.4863" ry="18"/>
<text text-anchor="middle" x="253" y="-270.2533" font-family="Times,serif" font-size="14.00" fill="#0000ff">NPO Frontend API</text>
</a>
</g>
</g>
<!-- api&#45;&gt;gtaa -->
<g id="edge25" class="edge">
<title>api&#45;&gt;gtaa</title>
<path fill="none" stroke="#6495ed" d="M310.4052,-261.1315C321.1886,-259.1049 332.4033,-257.2527 343,-255.9533 607.9722,-223.4615 676.6166,-245.4427 943,-227.9533 1021.8733,-222.7749 1111.9832,-214.9115 1174.0762,-209.1884"/>
<polygon fill="#6495ed" stroke="#6495ed" points="1174.5443,-212.6601 1184.1791,-208.2533 1173.8991,-205.6899 1174.5443,-212.6601"/>
</g>
<!-- elasticsearch -->
<g id="node13" class="node">
<title>elasticsearch</title>
<ellipse fill="none" stroke="#000000" cx="482" cy="-99.4767" rx="57.3905" ry="18"/>
<text text-anchor="middle" x="482" y="-95.7767" font-family="Times,serif" font-size="14.00" fill="#000000">elasticsearch</text>
</g>
<!-- api&#45;&gt;elasticsearch -->
<g id="edge26" class="edge">
<title>api&#45;&gt;elasticsearch</title>
<path fill="none" stroke="#6495ed" d="M275.7946,-256.586C317.3303,-224.9396 405.3302,-157.8919 451.7983,-122.4875"/>
<polygon fill="#6495ed" stroke="#6495ed" points="454.1379,-125.1051 459.9711,-116.2606 449.8956,-119.5371 454.1379,-125.1051"/>
</g>
<!-- pages_publish -->
<g id="node4" class="node">
<title>pages_publish</title>
<g id="a_node4"><a xlink:href="https://publish.pages.omroep.nl/" xlink:title="Pages Publisher">
<ellipse fill="none" stroke="#000000" cx="85" cy="-273.9533" rx="68.7879" ry="18"/>
<text text-anchor="middle" x="85" y="-270.2533" font-family="Times,serif" font-size="14.00" fill="#0000ff">Pages Publisher</text>
</a>
</g>
</g>
<!-- media_publish -->
<g id="node5" class="node">
<title>media_publish</title>
<ellipse fill="none" stroke="#000000" cx="666" cy="-201.9533" rx="70.6878" ry="18"/>
<text text-anchor="middle" x="666" y="-198.2533" font-family="Times,serif" font-size="14.00" fill="#000000">Media Publisher</text>
</g>
<!-- pages_publish&#45;&gt;media_publish -->
<g id="edge32" class="edge">
<title>pages_publish&#45;&gt;media_publish</title>
<path fill="none" stroke="#c0c0c0" d="M135.1728,-261.4433C144.3894,-259.4112 153.955,-257.4768 163,-255.9533 317.1625,-229.9863 500.1229,-214.0229 597.3028,-206.7058"/>
</g>
<!-- pages_publish&#45;&gt;gtaa -->
<g id="edge27" class="edge">
<title>pages_publish&#45;&gt;gtaa</title>
<path fill="none" stroke="#8fbc8f" d="M133.8372,-261.1817C143.4448,-259.0957 153.4933,-257.2092 163,-255.9533 506.9023,-210.5235 596.7381,-248.8185 943,-227.9533 1022.0265,-223.1913 1112.2946,-215.2446 1174.3888,-209.3876"/>
<polygon fill="#8fbc8f" stroke="#8fbc8f" points="1174.8655,-212.8582 1184.4904,-208.4298 1174.2047,-205.8894 1174.8655,-212.8582"/>
</g>
<!-- pages_publish&#45;&gt;elasticsearch -->
<g id="edge28" class="edge">
<title>pages_publish&#45;&gt;elasticsearch</title>
<path fill="none" stroke="#8fbc8f" d="M109.4099,-256.8918C147.0622,-231.2341 222.2689,-182.5723 292,-152.9533 334.8506,-134.7521 385.7317,-120.8084 424.0512,-111.7294"/>
<polygon fill="#8fbc8f" stroke="#8fbc8f" points="425.0619,-115.0878 434.0084,-109.4125 423.4754,-108.27 425.0619,-115.0878"/>
</g>
<!-- pages_publish&#45;&gt;ldap -->
<g id="edge29" class="edge">
<title>pages_publish&#45;&gt;ldap</title>
<path fill="none" stroke="#8fbc8f" d="M130.5229,-260.3055C230.34,-230.43 462.4869,-161.2371 499,-152.9533 520.5193,-148.0712 528.9781,-156.1373 548,-144.9533 556.1108,-140.1846 563.0967,-132.8386 568.6984,-125.432"/>
<polygon fill="#8fbc8f" stroke="#8fbc8f" points="571.8163,-127.0767 574.6229,-116.8603 566.0579,-123.0966 571.8163,-127.0767"/>
</g>
<!-- media_publish&#45;&gt;elasticsearch -->
<g id="edge30" class="edge">
<title>media_publish&#45;&gt;elasticsearch</title>
<path fill="none" stroke="#bf3eff" d="M630.1561,-186.3738C606.3794,-175.6209 574.7485,-160.5061 548,-144.9533 536.1351,-138.0545 523.6156,-129.721 512.7072,-122.0823"/>
<polygon fill="#bf3eff" stroke="#bf3eff" points="514.5274,-119.0822 504.3476,-116.146 510.4745,-124.7896 514.5274,-119.0822"/>
</g>
<!-- media_publish&#45;&gt;jms_publish -->
<g id="edge31" class="edge">
<title>media_publish&#45;&gt;jms_publish</title>
<path fill="none" stroke="#bf3eff" d="M697.6903,-185.8514C721.9932,-174.3718 756.7342,-159.8051 789,-152.9533 833.1614,-143.5754 948.4631,-156.8994 992,-144.9533 1005.6409,-141.2104 1019.5171,-134.913 1031.9575,-128.179"/>
<polygon fill="#bf3eff" stroke="#bf3eff" points="1033.7461,-131.1886 1040.7383,-123.2287 1030.3084,-125.0908 1033.7461,-131.1886"/>
</g>
<!-- images_frontend -->
<g id="node6" class="node">
<title>images_frontend</title>
<g id="a_node6"><a xlink:href="https://images.poms.omroep.nl" xlink:title="Images">
<ellipse fill="none" stroke="#000000" cx="389" cy="-273.9533" rx="37.0935" ry="18"/>
<text text-anchor="middle" x="389" y="-270.2533" font-family="Times,serif" font-size="14.00" fill="#0000ff">Images</text>
</a>
</g>
</g>
<!-- postgresql_image -->
<g id="node12" class="node">
<title>postgresql_image</title>
<ellipse fill="none" stroke="#000000" cx="704" cy="-99.4767" rx="74.9875" ry="18"/>
<text text-anchor="middle" x="704" y="-95.7767" font-family="Times,serif" font-size="14.00" fill="#000000">postgresql_image</text>
</g>
<!-- images_frontend&#45;&gt;postgresql_image -->
<g id="edge33" class="edge">
<title>images_frontend&#45;&gt;postgresql_image</title>
<path fill="none" stroke="#caff70" d="M416.8164,-261.6184C422.722,-259.4127 428.99,-257.3693 435,-255.9533 502.5413,-240.04 699.185,-279.1726 746,-227.9533 768.4886,-203.349 756.8923,-184.4568 746,-152.9533 742.5282,-142.9119 736.3064,-133.3213 729.6974,-125.1057"/>
<polygon fill="#caff70" stroke="#caff70" points="732.2243,-122.6763 723.0468,-117.3826 726.92,-127.2441 732.2243,-122.6763"/>
</g>
<!-- images_backend -->
<g id="node7" class="node">
<title>images_backend</title>
<g id="a_node7"><a xlink:href="https://poms.omroep.nl/images/" xlink:title="Images Backend">
<ellipse fill="none" stroke="#000000" cx="703" cy="-273.9533" rx="70.6878" ry="18"/>
<text text-anchor="middle" x="703" y="-270.2533" font-family="Times,serif" font-size="14.00" fill="#0000ff">Images Backend</text>
</a>
</g>
</g>
<!-- thineye -->
<g id="node9" class="node">
<title>thineye</title>
<ellipse fill="none" stroke="#000000" cx="1493" cy="-201.9533" rx="37.8943" ry="18"/>
<text text-anchor="middle" x="1493" y="-198.2533" font-family="Times,serif" font-size="14.00" fill="#000000">thineye</text>
</g>
<!-- images_backend&#45;&gt;thineye -->
<g id="edge34" class="edge">
<title>images_backend&#45;&gt;thineye</title>
<path fill="none" stroke="#caff70" d="M753.5385,-261.1464C763.2604,-259.0913 773.4034,-257.2251 783,-255.9533 929.1865,-236.5794 1304.0263,-267.8193 1446,-227.9533 1451.3867,-226.4407 1456.8301,-224.209 1462.0079,-221.6782"/>
<polygon fill="#caff70" stroke="#caff70" points="1463.7995,-224.6893 1470.9711,-216.8907 1460.5015,-218.5149 1463.7995,-224.6893"/>
</g>
<!-- images_backend&#45;&gt;postgresql_image -->
<g id="edge35" class="edge">
<title>images_backend&#45;&gt;postgresql_image</title>
<path fill="none" stroke="#caff70" d="M755.4232,-261.7794C764.5984,-259.757 774.0656,-257.7391 783,-255.9533 818.3958,-248.8784 919.7802,-255.5894 943,-227.9533 964.4427,-202.4323 965.9547,-177.1234 943,-152.9533 931.1243,-140.4488 804.6024,-149.6177 788,-144.9533 770.2835,-139.9759 752.1428,-130.7687 737.2746,-121.9339"/>
<polygon fill="#caff70" stroke="#caff70" points="738.8248,-118.7784 728.4729,-116.5222 735.1584,-124.7414 738.8248,-118.7784"/>
</g>
<!-- images_backend&#45;&gt;jms_ingest -->
<g id="edge36" class="edge">
<title>images_backend&#45;&gt;jms_ingest</title>
<path fill="none" stroke="#caff70" d="M754.963,-261.718C764.2753,-259.6806 773.9078,-257.6735 783,-255.9533 823.207,-248.3465 938.3555,-259.0104 965,-227.9533 986.7044,-202.6545 980.2651,-182.5859 965,-152.9533 961.9001,-146.9358 957.7749,-141.4463 953.0482,-136.4745"/>
<polygon fill="#caff70" stroke="#caff70" points="955.4108,-133.8916 945.742,-129.5598 950.5991,-138.9757 955.4108,-133.8916"/>
</g>
<!-- images_backend&#45;&gt;ldap -->
<g id="edge37" class="edge">
<title>images_backend&#45;&gt;ldap</title>
<path fill="none" stroke="#caff70" d="M725.1526,-256.6185C733.336,-248.8387 741.6662,-238.9357 746,-227.9533 758.2355,-196.9468 768.8112,-177.2588 746,-152.9533 736.4,-142.7244 632.428,-151.4598 620,-144.9533 611.5362,-140.5222 604.4013,-133.1294 598.7728,-125.5786"/>
<polygon fill="#caff70" stroke="#caff70" points="601.3569,-123.1498 592.8681,-116.8102 595.5507,-127.0598 601.3569,-123.1498"/>
</g>
<!-- wikimedia -->
<g id="node30" class="node">
<title>wikimedia</title>
<ellipse fill="none" stroke="#000000" cx="1388" cy="-201.9533" rx="49.2915" ry="18"/>
<text text-anchor="middle" x="1388" y="-198.2533" font-family="Times,serif" font-size="14.00" fill="#000000">wikimedia</text>
</g>
<!-- images_backend&#45;&gt;wikimedia -->
<g id="edge38" class="edge">
<title>images_backend&#45;&gt;wikimedia</title>
<path fill="none" stroke="#caff70" d="M753.5479,-261.2165C763.269,-259.155 773.4092,-257.2685 783,-255.9533 1023.7328,-222.9427 1092.5891,-284.0949 1329,-227.9533 1336.1878,-226.2464 1343.591,-223.6914 1350.6207,-220.8392"/>
<polygon fill="#caff70" stroke="#caff70" points="1352.1311,-223.9994 1359.92,-216.8172 1349.3522,-217.5746 1352.1311,-223.9994"/>
</g>
<!-- pixabay -->
<g id="node31" class="node">
<title>pixabay</title>
<ellipse fill="none" stroke="#000000" cx="1667" cy="-201.9533" rx="39.7935" ry="18"/>
<text text-anchor="middle" x="1667" y="-198.2533" font-family="Times,serif" font-size="14.00" fill="#000000">pixabay</text>
</g>
<!-- images_backend&#45;&gt;pixabay -->
<g id="edge39" class="edge">
<title>images_backend&#45;&gt;pixabay</title>
<path fill="none" stroke="#caff70" d="M753.101,-261.1695C762.9539,-259.0845 773.2567,-257.2015 783,-255.9533 967.1548,-232.361 1438.6126,-275.8046 1618,-227.9533 1623.7226,-226.4268 1629.5235,-224.1333 1635.035,-221.5292"/>
<polygon fill="#caff70" stroke="#caff70" points="1636.6789,-224.6196 1643.972,-216.9344 1633.4782,-218.3942 1636.6789,-224.6196"/>
</g>
<!-- flickr -->
<g id="node32" class="node">
<title>flickr</title>
<ellipse fill="none" stroke="#000000" cx="1579" cy="-201.9533" rx="29.795" ry="18"/>
<text text-anchor="middle" x="1579" y="-198.2533" font-family="Times,serif" font-size="14.00" fill="#000000">flickr</text>
</g>
<!-- images_backend&#45;&gt;flickr -->
<g id="edge40" class="edge">
<title>images_backend&#45;&gt;flickr</title>
<path fill="none" stroke="#caff70" d="M753.1045,-261.1964C762.9571,-259.1091 773.2589,-257.2184 783,-255.9533 949.9355,-234.2741 1379.815,-279.7046 1540,-227.9533 1544.3871,-226.536 1548.7426,-224.4725 1552.8656,-222.1183"/>
<polygon fill="#caff70" stroke="#caff70" points="1554.8998,-224.972 1561.442,-216.6383 1551.1308,-219.0733 1554.8998,-224.972"/>
</g>
<!-- sso -->
<g id="node34" class="node">
<title>sso</title>
<ellipse fill="none" stroke="#000000" cx="907" cy="-201.9533" rx="27" ry="18"/>
<text text-anchor="middle" x="907" y="-198.2533" font-family="Times,serif" font-size="14.00" fill="#000000">sso</text>
</g>
<!-- images_backend&#45;&gt;sso -->
<g id="edge41" class="edge">
<title>images_backend&#45;&gt;sso</title>
<path fill="none" stroke="#caff70" d="M754.4121,-261.4878C801.3579,-249.9092 865.0706,-233.6279 876,-227.9533 878.63,-226.5878 881.2351,-224.9663 883.752,-223.2102"/>
<polygon fill="#caff70" stroke="#caff70" points="886.1279,-225.7965 891.8778,-216.8977 881.8335,-220.2685 886.1279,-225.7965"/>
</g>
<!-- functional_tests -->
<g id="node10" class="node">
<title>functional_tests</title>
<g id="a_node10"><a xlink:href="https://jenkins.vpro.nl/job/POMS%20Functional%20Tests/" xlink:title="functional_tests">
<ellipse fill="#f0ffff" stroke="#000000" cx="633" cy="-439.9533" rx="68.4888" ry="18"/>
<text text-anchor="middle" x="633" y="-436.2533" font-family="Times,serif" font-size="14.00" fill="#0000ff">functional_tests</text>
</a>
</g>
</g>
<!-- functional_tests&#45;&gt;poms_backend -->
<g id="edge49" class="edge">
<title>functional_tests&#45;&gt;poms_backend</title>
<path fill="none" stroke="#c0c0c0" d="M584.3739,-427.1575C575.0149,-425.1014 565.2474,-423.232 556,-421.9533 546.2494,-420.605 385.8014,-421.069 379,-413.9533 353.5113,-387.2866 354.8303,-358.8212 379,-330.9533 387.2364,-321.4567 423.0331,-326.8026 435,-322.9533 455.1037,-316.4867 476.0713,-305.9722 493.0891,-296.3379"/>
<polygon fill="#c0c0c0" stroke="#c0c0c0" points="495.2125,-299.1525 502.1065,-291.1074 491.7002,-293.0974 495.2125,-299.1525"/>
</g>
<!-- functional_tests&#45;&gt;api -->
<g id="edge50" class="edge">
<title>functional_tests&#45;&gt;api</title>
<path fill="none" stroke="#c0c0c0" d="M584.7918,-427.2094C575.3072,-425.121 565.3867,-423.2265 556,-421.9533 533.9618,-418.9642 375.6415,-424.3855 356,-413.9533 310.1581,-389.6053 279.4168,-334.7661 264.1809,-301.4064"/>
<polygon fill="#c0c0c0" stroke="#c0c0c0" points="267.3605,-299.9424 260.1226,-292.2053 260.9558,-302.7673 267.3605,-299.9424"/>
</g>
<!-- functional_tests&#45;&gt;pages_publish -->
<g id="edge51" class="edge">
<title>functional_tests&#45;&gt;pages_publish</title>
<path fill="none" stroke="#c0c0c0" d="M584.8031,-427.1243C575.3175,-425.0434 565.3937,-423.1734 556,-421.9533 525.2456,-417.959 305.8462,-425.3412 277,-413.9533 225.1604,-393.4881 230.4578,-360.1754 183,-330.9533 174.8479,-325.9337 171.5325,-327.2951 163,-322.9533 147.8006,-315.2191 131.7293,-305.4257 118.1499,-296.6308"/>
<polygon fill="#c0c0c0" stroke="#c0c0c0" points="119.8998,-293.5927 109.6203,-291.0271 116.0563,-299.4431 119.8998,-293.5927"/>
</g>
<!-- users -->
<g id="node17" class="node">
<title>users</title>
<ellipse fill="none" stroke="#000000" cx="748" cy="-439.9533" rx="29.4969" ry="18"/>
<text text-anchor="middle" x="748" y="-436.2533" font-family="Times,serif" font-size="14.00" fill="#000000">users</text>
</g>
<!-- users&#45;&gt;api -->
<g id="edge4" class="edge">
<title>users&#45;&gt;api</title>
<path fill="none" stroke="#c0c0c0" d="M726.0659,-427.6667C720.941,-425.3375 715.3986,-423.2317 710,-421.9533 690.9117,-417.4332 374.3652,-423.0771 357,-413.9533 316.7051,-392.7821 324.2437,-367.4181 297,-330.9533 289.3611,-320.7289 280.8171,-309.594 273.3048,-299.901"/>
<polygon fill="#c0c0c0" stroke="#c0c0c0" points="275.9182,-297.56 267.0174,-291.8132 270.3917,-301.8563 275.9182,-297.56"/>
</g>
<!-- users&#45;&gt;images_frontend -->
<g id="edge5" class="edge">
<title>users&#45;&gt;images_frontend</title>
<path fill="none" stroke="#c0c0c0" d="M726.0644,-427.6727C720.9396,-425.3432 715.3977,-423.2358 710,-421.9533 692.1039,-417.7013 391.8486,-427.1162 379,-413.9533 350.2791,-384.5299 363.7646,-333.0704 376.2952,-301.4074"/>
<polygon fill="#c0c0c0" stroke="#c0c0c0" points="379.6517,-302.4524 380.2753,-291.8759 373.1922,-299.7551 379.6517,-302.4524"/>
</g>
<!-- magnolia_frontend -->
<g id="node20" class="node">
<title>magnolia_frontend</title>
<ellipse fill="none" stroke="#000000" cx="495" cy="-364.9533" rx="79.8859" ry="18"/>
<text text-anchor="middle" x="495" y="-361.2533" font-family="Times,serif" font-size="14.00" fill="#000000">magnolia_frontend</text>
</g>
<!-- users&#45;&gt;magnolia_frontend -->
<g id="edge6" class="edge">
<title>users&#45;&gt;magnolia_frontend</title>
<path fill="none" stroke="#c0c0c0" d="M726.0256,-427.8294C720.9028,-425.4918 715.3715,-423.3414 710,-421.9533 655.672,-407.9137 637.8754,-429.6405 584,-413.9533 564.2812,-408.2117 544.0882,-397.5562 527.9316,-387.6447"/>
<polygon fill="#c0c0c0" stroke="#c0c0c0" points="529.7225,-384.6361 519.3997,-382.2507 525.9819,-390.5529 529.7225,-384.6361"/>
</g>
<!-- backendsystems -->
<g id="node18" class="node">
<title>backendsystems</title>
<ellipse fill="none" stroke="#000000" cx="477" cy="-439.9533" rx="69.5877" ry="18"/>
<text text-anchor="middle" x="477" y="-436.2533" font-family="Times,serif" font-size="14.00" fill="#000000">backendsystems</text>
</g>
<!-- backendsystems&#45;&gt;poms_backend -->
<g id="edge7" class="edge">
<title>backendsystems&#45;&gt;poms_backend</title>
<path fill="none" stroke="#c0c0c0" d="M408.8654,-436.315C348.6749,-432.385 268.9324,-425.1407 259,-413.9533 234.5088,-386.3676 233.5147,-357.6233 259,-330.9533 272.5242,-316.8004 416.0972,-328.0421 435,-322.9533 456.0349,-317.2906 477.714,-306.3888 494.9445,-296.3034"/>
<polygon fill="#c0c0c0" stroke="#c0c0c0" points="496.7628,-299.2941 503.5225,-291.1359 493.1506,-293.2981 496.7628,-299.2941"/>
</g>
<!-- backendsystems&#45;&gt;pages_publish -->
<g id="edge8" class="edge">
<title>backendsystems&#45;&gt;pages_publish</title>
<path fill="none" stroke="#c0c0c0" d="M407.9204,-437.3204C347.7671,-434.1553 265.6787,-427.4764 236,-413.9533 179.5595,-388.2363 130.2658,-333.0746 104.3552,-300.1907"/>
<polygon fill="#c0c0c0" stroke="#c0c0c0" points="106.8662,-297.7161 97.9807,-291.9456 101.3282,-301.9977 106.8662,-297.7161"/>
</g>
<!-- editors -->
<g id="node19" class="node">
<title>editors</title>
<ellipse fill="none" stroke="#000000" cx="831" cy="-439.9533" rx="35.9954" ry="18"/>
<text text-anchor="middle" x="831" y="-436.2533" font-family="Times,serif" font-size="14.00" fill="#000000">editors</text>
</g>
<!-- editors&#45;&gt;poms -->
<g id="edge1" class="edge">
<title>editors&#45;&gt;poms</title>
<path fill="none" stroke="#c0c0c0" d="M804.8376,-427.6614C798.7784,-425.3325 792.2665,-423.2281 786,-421.9533 775.5724,-419.832 410.4455,-421.556 403,-413.9533 377.1894,-387.598 377.1916,-357.3108 403,-330.9533 417.7731,-315.8659 763.7582,-331.6499 783,-322.9533 794.1203,-317.9273 803.7266,-308.7034 811.1745,-299.6029"/>
<polygon fill="#c0c0c0" stroke="#c0c0c0" points="814.1378,-301.4875 817.3891,-291.4039 808.5592,-297.2591 814.1378,-301.4875"/>
</g>
<!-- magnolia_backend -->
<g id="node21" class="node">
<title>magnolia_backend</title>
<ellipse fill="none" stroke="#000000" cx="672" cy="-364.9533" rx="79.0865" ry="18"/>
<text text-anchor="middle" x="672" y="-361.2533" font-family="Times,serif" font-size="14.00" fill="#000000">magnolia_backend</text>
</g>
<!-- editors&#45;&gt;magnolia_backend -->
<g id="edge2" class="edge">
<title>editors&#45;&gt;magnolia_backend</title>
<path fill="none" stroke="#c0c0c0" d="M803.0492,-428.3612C797.435,-426.1494 791.5538,-423.9148 786,-421.9533 774.5999,-417.9271 771.1203,-418.698 760,-413.9533 742.2526,-406.3811 723.4553,-396.233 707.8104,-387.1365"/>
<polygon fill="#c0c0c0" stroke="#c0c0c0" points="709.3851,-384.0017 698.9949,-381.9295 705.8251,-390.0288 709.3851,-384.0017"/>
</g>
<!-- editors&#45;&gt;keycloak -->
<g id="edge3" class="edge">
<title>editors&#45;&gt;keycloak</title>
<path fill="none" stroke="#c0c0c0" d="M866.8486,-438.2928C1026.6218,-430.0943 1688.5388,-387.6671 2203,-227.9533 2209.0648,-226.0705 2215.307,-223.6077 2221.2974,-220.9484"/>
<polygon fill="#c0c0c0" stroke="#c0c0c0" points="2222.872,-224.0758 2230.4417,-216.663 2219.9015,-217.7374 2222.872,-224.0758"/>
</g>
<!-- magnolia_frontend&#45;&gt;api -->
<g id="edge44" class="edge">
<title>magnolia_frontend&#45;&gt;api</title>
<path fill="none" stroke="#c0c0c0" d="M437.3122,-352.3205C408.4678,-345.1782 373.3328,-335.2123 343,-322.9533 324.7993,-315.5975 305.5679,-305.4793 289.5757,-296.3466"/>
<polygon fill="#c0c0c0" stroke="#c0c0c0" points="290.9712,-293.1095 280.5664,-291.1117 287.4543,-299.162 290.9712,-293.1095"/>
</g>
<!-- magnolia_backend&#45;&gt;poms_backend -->
<g id="edge42" class="edge">
<title>magnolia_backend&#45;&gt;poms_backend</title>
<path fill="none" stroke="#c0c0c0" d="M645.1028,-347.8369C622.3778,-333.3756 589.6442,-312.5451 564.7228,-296.686"/>
<polygon fill="#c0c0c0" stroke="#c0c0c0" points="566.5785,-293.7183 556.2628,-291.3024 562.8203,-299.624 566.5785,-293.7183"/>
</g>
<!-- magnolia_backend&#45;&gt;pages_publish -->
<g id="edge43" class="edge">
<title>magnolia_backend&#45;&gt;pages_publish</title>
<path fill="none" stroke="#c0c0c0" d="M638.1404,-348.6745C622.1177,-341.8113 602.4824,-334.5817 584,-330.9533 538.0901,-321.9406 207.8333,-336.3297 163,-322.9533 145.3601,-317.6903 127.8134,-307.2534 113.8427,-297.3595"/>
<polygon fill="#c0c0c0" stroke="#c0c0c0" points="115.7656,-294.429 105.6371,-291.3204 111.6164,-300.0668 115.7656,-294.429"/>
</g>
<!-- amara_importer -->
<g id="node22" class="node">
<title>amara_importer</title>
<ellipse fill="none" stroke="#000000" cx="838" cy="-364.9533" rx="68.7879" ry="18"/>
<text text-anchor="middle" x="838" y="-361.2533" font-family="Times,serif" font-size="14.00" fill="#000000">amara_importer</text>
</g>
<!-- amara_importer&#45;&gt;poms_backend -->
<g id="edge52" class="edge">
<title>amara_importer&#45;&gt;poms_backend</title>
<path fill="none" stroke="#c0c0c0" d="M807.3732,-348.6124C793.335,-341.9146 776.235,-334.8352 760,-330.9533 700.6795,-316.7696 681.7922,-339.1882 623,-322.9533 602.3444,-317.2495 581.0324,-306.5974 563.9342,-296.6783"/>
<polygon fill="#c0c0c0" stroke="#c0c0c0" points="565.2791,-293.4047 554.8996,-291.2792 561.6881,-299.4135 565.2791,-293.4047"/>
</g>
<!-- amara -->
<g id="node33" class="node">
<title>amara</title>
<ellipse fill="none" stroke="#000000" cx="1758" cy="-201.9533" rx="33.2948" ry="18"/>
<text text-anchor="middle" x="1758" y="-198.2533" font-family="Times,serif" font-size="14.00" fill="#000000">amara</text>
</g>
<!-- amara_importer&#45;&gt;amara -->
<g id="edge53" class="edge">
<title>amara_importer&#45;&gt;amara</title>
<path fill="none" stroke="#c0c0c0" d="M854.394,-347.0757C861.1384,-339.6585 868.996,-330.9361 876,-322.9533 901.7847,-293.5655 897.8099,-272.9871 933,-255.9533 1011.3584,-218.0239 1632.7057,-253.266 1716,-227.9533 1720.677,-226.532 1725.3534,-224.4547 1729.7977,-222.0839"/>
<polygon fill="#c0c0c0" stroke="#c0c0c0" points="1731.6969,-225.0269 1738.52,-216.9215 1728.1316,-219.0029 1731.6969,-225.0269"/>
</g>
<!-- pd&#45;&gt;metis -->
<g id="edge47" class="edge">
<title>pd&#45;&gt;metis</title>
<path fill="none" stroke="#c0c0c0" d="M2158.0635,-184.8371C2151.7733,-174.2998 2142.4463,-161.264 2131,-152.9533 2094.3533,-126.3457 2043.6896,-112.4449 2008.8273,-105.564"/>
<polygon fill="#c0c0c0" stroke="#c0c0c0" points="2009.4667,-102.123 1998.9939,-103.7261 2008.1806,-109.0039 2009.4667,-102.123"/>
</g>
<!-- prepr&#45;&gt;metis -->
<g id="edge46" class="edge">
<title>prepr&#45;&gt;metis</title>
<path fill="none" stroke="#c0c0c0" d="M2080.5927,-184.8985C2073.3996,-174.8959 2063.5067,-162.4078 2053,-152.9533 2037.2777,-138.8056 2017.3979,-125.9667 2000.9253,-116.4169"/>
<polygon fill="#c0c0c0" stroke="#c0c0c0" points="2002.599,-113.3426 1992.1724,-111.4624 1999.1508,-119.4344 2002.599,-113.3426"/>
</g>
<!-- keycloak&#45;&gt;ldap -->
<g id="edge48" class="edge">
<title>keycloak&#45;&gt;ldap</title>
<path fill="none" stroke="#c0c0c0" d="M2243.5353,-184.3553C2233.7013,-173.0306 2219.2815,-159.2865 2203,-152.9533 2162.0185,-137.0122 659.5353,-164.2035 620,-144.9533 611.0908,-140.6154 603.7116,-132.8926 598.0024,-125.0284"/>
<polygon fill="#c0c0c0" stroke="#c0c0c0" points="600.8807,-123.035 592.4696,-116.5927 595.0274,-126.8742 600.8807,-123.035"/>
</g>
<!-- sso&#45;&gt;ldap -->
<g id="edge45" class="edge">
<title>sso&#45;&gt;ldap</title>
<path fill="none" stroke="#c0c0c0" d="M900.7874,-184.2232C895.8938,-173.1483 887.8877,-159.7436 876,-152.9533 851.2889,-138.8382 645.4212,-157.7456 620,-144.9533 611.466,-140.6589 604.313,-133.3014 598.6894,-125.7411"/>
<polygon fill="#c0c0c0" stroke="#c0c0c0" points="601.2713,-123.3062 592.7994,-116.9441 595.4547,-127.2008 601.2713,-123.3062"/>
</g>
</g>
</svg>
