<?xml version="1.0" encoding="UTF-8" standalone="no"?>
<!DOCTYPE svg PUBLIC "-//W3C//DTD SVG 1.1//EN"
 "http://www.w3.org/Graphics/SVG/1.1/DTD/svg11.dtd">
<!-- Generated by graphviz version 2.40.1 (20161225.0304)
 -->
<!-- Title: %3 Pages: 1 -->
<svg width="1180pt" height="600pt"
 viewBox="0.00 0.00 1180.00 600.00" xmlns="http://www.w3.org/2000/svg" xmlns:xlink="http://www.w3.org/1999/xlink">
<g id="graph0" class="graph" transform="scale(1 1) rotate(0) translate(4 596)">
<title>%3</title>
<polygon fill="#ffffff" stroke="transparent" points="-4,4 -4,-596 1176,-596 1176,4 -4,4"/>
<text text-anchor="middle" x="586" y="-7.8" font-family="Times,serif" font-size="14.00" fill="#000000"> &#160;Dependencies of the different code projects relevant to POMS</text>
<g id="clust1" class="cluster">
<title>cluster_0</title>
<polygon fill="none" stroke="#000000" points="634,-47 634,-137 1104,-137 1104,-47 634,-47"/>
<text text-anchor="middle" x="869" y="-69.8" font-family="Times,serif" font-size="14.00" fill="#000000">Generic utilities</text>
<text text-anchor="middle" x="869" y="-54.8" font-family="Times,serif" font-size="14.00" fill="#000000">(incoming edges are just examples, there are more)</text>
</g>
<g id="clust2" class="cluster">
<title>cluster_1</title>
<polygon fill="none" stroke="#000000" points="8,-509 8,-584 178,-584 178,-509 8,-509"/>
<text text-anchor="middle" x="93" y="-568.8" font-family="Times,serif" font-size="14.00" fill="#000000">VPRO</text>
</g>
<g id="clust3" class="cluster">
<title>cluster_2</title>
<polygon fill="#f0ffff" stroke="#000000" points="512,-342 512,-584 1164,-584 1164,-342 512,-342"/>
<text text-anchor="middle" x="838" y="-568.8" font-family="Times,serif" font-size="14.00" fill="#000000">POMS Services</text>
</g>
<g id="clust4" class="cluster">
<title>cluster_4</title>
<polygon fill="#f0ffff" stroke="#000000" points="148,-158 148,-490 278,-490 278,-158 148,-158"/>
<text text-anchor="middle" x="213" y="-474.8" font-family="Times,serif" font-size="14.00" fill="#000000">Sharable utilities</text>
</g>
<!-- vpro_shared -->
<g id="node1" class="node">
<title>vpro_shared</title>
<g id="a_node1"><a xlink:href="https://github.com/vpro/vpro-shared" xlink:title="vpro_shared">
<ellipse fill="none" stroke="#000000" cx="226" cy="-184" rx="44.393" ry="18"/>
<text text-anchor="middle" x="226" y="-180.3" font-family="Times,serif" font-size="14.00" fill="#0000ff">vpro_shared</text>
</a>
</g>
</g>
<!-- slf4j -->
<g id="node11" class="node">
<title>slf4j</title>
<ellipse fill="none" stroke="#000000" stroke-dasharray="5,2" cx="741" cy="-111" rx="27" ry="18"/>
<text text-anchor="middle" x="741" y="-107.3" font-family="Times,serif" font-size="14.00" fill="#000000">slf4j</text>
</g>
<!-- vpro_shared&#45;&gt;slf4j -->
<g id="edge1" class="edge">
<title>vpro_shared&#45;&gt;slf4j</title>
<path fill="none" stroke="#c0c0c0" d="M267.8202,-177.703C324.2536,-169.4303 427.9823,-155.0158 517,-147 558.6682,-143.2479 665.5486,-150.925 705,-137 709.0076,-135.5855 712.9585,-133.5746 716.6913,-131.2897"/>
<polygon fill="#c0c0c0" stroke="#c0c0c0" points="718.6811,-134.1691 724.9295,-125.6129 714.7092,-128.4051 718.6811,-134.1691"/>
</g>
<!-- guava -->
<g id="node12" class="node">
<title>guava</title>
<ellipse fill="none" stroke="#000000" stroke-dasharray="5,2" cx="669" cy="-111" rx="27.0966" ry="18"/>
<text text-anchor="middle" x="669" y="-107.3" font-family="Times,serif" font-size="14.00" fill="#000000">guava</text>
</g>
<!-- vpro_shared&#45;&gt;guava -->
<g id="edge2" class="edge">
<title>vpro_shared&#45;&gt;guava</title>
<path fill="none" stroke="#c0c0c0" d="M261.3887,-173.0861C289.2901,-164.8457 329.3125,-153.8269 365,-147 460.0887,-128.8098 573.7779,-118.2789 631.45,-113.7172"/>
<polygon fill="#c0c0c0" stroke="#c0c0c0" points="631.85,-117.1968 641.5496,-112.9345 631.309,-110.2178 631.85,-117.1968"/>
</g>
<!-- poms_shared -->
<g id="node2" class="node">
<title>poms_shared</title>
<g id="a_node2"><a xlink:href="https://github.com/npo-poms/poms-shared" xlink:title="poms_shared">
<ellipse fill="none" stroke="#000000" cx="223" cy="-295" rx="46.5926" ry="18"/>
<text text-anchor="middle" x="223" y="-291.3" font-family="Times,serif" font-size="14.00" fill="#0000ff">poms_shared</text>
</a>
</g>
</g>
<!-- poms_shared&#45;&gt;vpro_shared -->
<g id="edge3" class="edge">
<title>poms_shared&#45;&gt;vpro_shared</title>
<path fill="none" stroke="#c0c0c0" d="M223.4954,-276.6706C223.9666,-259.2373 224.6825,-232.7482 225.2284,-212.5489"/>
<polygon fill="#c0c0c0" stroke="#c0c0c0" points="228.7323,-212.4476 225.5039,-202.3566 221.7349,-212.2584 228.7323,-212.4476"/>
</g>
<!-- api_client -->
<g id="node3" class="node">
<title>api_client</title>
<g id="a_node3"><a xlink:href="https://github.com/npo-poms/api-clients" xlink:title="api_client">
<ellipse fill="none" stroke="#000000" cx="194" cy="-441" rx="37.8943" ry="18"/>
<text text-anchor="middle" x="194" y="-437.3" font-family="Times,serif" font-size="14.00" fill="#0000ff">api_client</text>
</a>
</g>
</g>
<!-- api_client&#45;&gt;vpro_shared -->
<g id="edge16" class="edge">
<title>api_client&#45;&gt;vpro_shared</title>
<path fill="none" stroke="#c0c0c0" d="M179.8007,-424.213C169.3665,-410.1416 157,-389.0287 157,-368 157,-368 157,-368 157,-239.5 157,-222.6949 169.5808,-210.1221 183.9984,-201.2313"/>
<polygon fill="#c0c0c0" stroke="#c0c0c0" points="186.0743,-204.0819 193.1167,-196.1663 182.6752,-197.9626 186.0743,-204.0819"/>
</g>
<!-- api_client&#45;&gt;poms_shared -->
<g id="edge17" class="edge">
<title>api_client&#45;&gt;poms_shared</title>
<path fill="none" stroke="#c0c0c0" d="M194.1513,-422.7403C194.7516,-400.6257 197.1344,-362.4315 206,-331 206.8361,-328.0356 207.8963,-325.0124 209.0772,-322.0407"/>
<polygon fill="#c0c0c0" stroke="#c0c0c0" points="212.2941,-323.42 213.134,-312.8585 205.8912,-320.5911 212.2941,-323.42"/>
</g>
<!-- poms_backend -->
<g id="node4" class="node">
<title>poms_backend</title>
<g id="a_node4"><a xlink:href="https://subversion.vpro.nl/viewvc/nl/vpro/media" xlink:title="POMS &#160;&amp; POMS Backend API">
<ellipse fill="none" stroke="#cd950c" cx="861" cy="-535" rx="96.6831" ry="18"/>
<text text-anchor="middle" x="861" y="-531.3" font-family="Times,serif" font-size="14.00" fill="#0000ff">POMS &#160;&amp; POMS Backend API</text>
</a>
</g>
</g>
<!-- poms_backend&#45;&gt;vpro_shared -->
<g id="edge28" class="edge">
<title>poms_backend&#45;&gt;vpro_shared</title>
<path fill="none" stroke="#cd950c" d="M877.0444,-517.0045C891.3349,-499.0691 910,-470.0777 910,-441 910,-441 910,-441 910,-331.5 910,-277.3375 851.2887,-297.1155 801,-277 745.1098,-254.6439 729.6089,-252.7298 671,-239 532.3957,-206.5303 364.7351,-192.3838 280.2592,-186.9513"/>
<polygon fill="#cd950c" stroke="#cd950c" points="280.3306,-183.449 270.1312,-186.3163 279.8926,-190.4353 280.3306,-183.449"/>
</g>
<!-- poms_backend&#45;&gt;poms_shared -->
<g id="edge29" class="edge">
<title>poms_backend&#45;&gt;poms_shared</title>
<path fill="none" stroke="#cd950c" d="M808.301,-519.8324C791.4158,-515.5781 772.5465,-511.4496 755,-509 740.0789,-506.9169 495.8073,-508.3577 484,-499 427.3003,-454.0632 493.5444,-391.7319 441,-342 418.0359,-320.2651 335.633,-307.1325 278.986,-300.4729"/>
<polygon fill="#cd950c" stroke="#cd950c" points="279.0607,-296.9589 268.7287,-299.3042 278.2681,-303.9139 279.0607,-296.9589"/>
</g>
<!-- poms_gui -->
<g id="node5" class="node">
<title>poms_gui</title>
<g id="a_node5"><a xlink:href="https://subversion.vpro.nl/viewvc/nl/vpro/media-gui" xlink:title="Angular GUI for POMS">
<ellipse fill="none" stroke="#000000" cx="729" cy="-368" rx="76.8869" ry="18"/>
<text text-anchor="middle" x="729" y="-364.3" font-family="Times,serif" font-size="14.00" fill="#0000ff">Angular GUI for POMS</text>
</a>
</g>
</g>
<!-- poms_backend&#45;&gt;poms_gui -->
<g id="edge30" class="edge">
<title>poms_backend&#45;&gt;poms_gui</title>
<path fill="none" stroke="#cd950c" d="M846.8737,-517.1281C823.4523,-487.4964 776.4864,-428.0775 749.4442,-393.865"/>
<polygon fill="#cd950c" stroke="#cd950c" points="751.9716,-391.4183 743.0247,-385.7434 746.48,-395.759 751.9716,-391.4183"/>
</g>
<!-- spring -->
<g id="node13" class="node">
<title>spring</title>
<ellipse fill="none" stroke="#000000" stroke-dasharray="5,2" cx="1068" cy="-111" rx="27.8951" ry="18"/>
<text text-anchor="middle" x="1068" y="-107.3" font-family="Times,serif" font-size="14.00" fill="#000000">spring</text>
</g>
<!-- poms_backend&#45;&gt;spring -->
<g id="edge31" class="edge">
<title>poms_backend&#45;&gt;spring</title>
<path fill="none" stroke="#cd950c" d="M923.5772,-521.1689C945.4213,-514.2721 969.1629,-504.2597 988,-490 1009.5462,-473.6895 1024,-468.0235 1024,-441 1024,-441 1024,-441 1024,-258.5 1024,-214.7551 1041.9914,-166.6434 1054.9651,-137.6366"/>
<polygon fill="#cd950c" stroke="#cd950c" points="1058.3016,-138.7589 1059.307,-128.2118 1051.9438,-135.8299 1058.3016,-138.7589"/>
</g>
<!-- resteasy -->
<g id="node14" class="node">
<title>resteasy</title>
<ellipse fill="none" stroke="#000000" cx="899" cy="-111" rx="32.4942" ry="18"/>
<text text-anchor="middle" x="899" y="-107.3" font-family="Times,serif" font-size="14.00" fill="#000000">resteasy</text>
</g>
<!-- poms_backend&#45;&gt;resteasy -->
<g id="edge32" class="edge">
<title>poms_backend&#45;&gt;resteasy</title>
<path fill="none" stroke="#cd950c" d="M892.409,-517.7985C917.3291,-501.6007 948,-474.7994 948,-441 948,-441 948,-441 948,-184 948,-164.7328 936.0871,-146.7181 924.0091,-133.4049"/>
<polygon fill="#cd950c" stroke="#cd950c" points="926.4392,-130.8832 916.9676,-126.1357 921.4114,-135.7536 926.4392,-130.8832"/>
</g>
<!-- hibernate -->
<g id="node15" class="node">
<title>hibernate</title>
<ellipse fill="none" stroke="#000000" cx="986" cy="-111" rx="36.2938" ry="18"/>
<text text-anchor="middle" x="986" y="-107.3" font-family="Times,serif" font-size="14.00" fill="#000000">hibernate</text>
</g>
<!-- poms_backend&#45;&gt;hibernate -->
<g id="edge33" class="edge">
<title>poms_backend&#45;&gt;hibernate</title>
<path fill="none" stroke="#cd950c" d="M911.122,-519.5142C945.898,-505.2992 986,-480.3716 986,-441 986,-441 986,-441 986,-184 986,-169.2996 986,-152.934 986,-139.4302"/>
<polygon fill="#cd950c" stroke="#cd950c" points="989.5001,-139.3003 986,-129.3003 982.5001,-139.3004 989.5001,-139.3003"/>
</g>
<!-- angular -->
<g id="node16" class="node">
<title>angular</title>
<ellipse fill="none" stroke="#000000" cx="817" cy="-111" rx="31.3957" ry="18"/>
<text text-anchor="middle" x="817" y="-107.3" font-family="Times,serif" font-size="14.00" fill="#000000">angular</text>
</g>
<!-- poms_gui&#45;&gt;angular -->
<g id="edge34" class="edge">
<title>poms_gui&#45;&gt;angular</title>
<path fill="none" stroke="#c0c0c0" d="M735.188,-349.9283C750.3724,-305.583 789.5488,-191.1701 807.6169,-138.403"/>
<polygon fill="#c0c0c0" stroke="#c0c0c0" points="811.0074,-139.3052 810.9357,-128.7106 804.3849,-137.0375 811.0074,-139.3052"/>
</g>
<!-- poms_shared_backend -->
<g id="node6" class="node">
<title>poms_shared_backend</title>
<g id="a_node6"><a xlink:href="https://subversion.vpro.nl/viewvc/nl/publiekeomroep/poms-shared-backend/" xlink:title="poms_shared_backend">
<ellipse fill="none" stroke="#00cdcd" cx="359" cy="-368" rx="72.5877" ry="18"/>
<text text-anchor="middle" x="359" y="-364.3" font-family="Times,serif" font-size="14.00" fill="#0000ff">poms_shared_backend</text>
</a>
</g>
</g>
<!-- poms_shared_backend&#45;&gt;vpro_shared -->
<g id="edge4" class="edge">
<title>poms_shared_backend&#45;&gt;vpro_shared</title>
<path fill="none" stroke="#00cdcd" d="M346.0052,-350.0223C322.3448,-317.2891 272.1566,-247.8557 244.7769,-209.9771"/>
<polygon fill="#00cdcd" stroke="#00cdcd" points="247.3518,-207.5647 238.6571,-201.5106 241.6787,-211.6654 247.3518,-207.5647"/>
</g>
<!-- poms_shared_backend&#45;&gt;poms_shared -->
<g id="edge5" class="edge">
<title>poms_shared_backend&#45;&gt;poms_shared</title>
<path fill="none" stroke="#00cdcd" d="M328.4789,-351.6174C308.0583,-340.6563 281.0798,-326.1752 259.5194,-314.6023"/>
<polygon fill="#00cdcd" stroke="#00cdcd" points="261.1121,-311.4849 250.6458,-309.8393 257.8015,-317.6526 261.1121,-311.4849"/>
</g>
<!-- poms_shared_backend&#45;&gt;slf4j -->
<g id="edge6" class="edge">
<title>poms_shared_backend&#45;&gt;slf4j</title>
<path fill="none" stroke="#00cdcd" d="M413.4219,-355.8506C463.8125,-342.9792 531,-320.9514 531,-295 531,-295 531,-295 531,-184 531,-103.8951 632.6845,-171.4566 705,-137 708.5778,-135.2953 712.1704,-133.2268 715.6275,-131.0093"/>
<polygon fill="#00cdcd" stroke="#00cdcd" points="717.6263,-133.8825 723.8564,-125.3129 713.6421,-128.1269 717.6263,-133.8825"/>
</g>
<!-- api -->
<g id="node7" class="node">
<title>api</title>
<g id="a_node7"><a xlink:href="https://subversion.vpro.nl/viewvc/nl/vpro/api/" xlink:title="Frontend API">
<ellipse fill="none" stroke="#6495ed" cx="698" cy="-535" rx="48.1917" ry="18"/>
<text text-anchor="middle" x="698" y="-531.3" font-family="Times,serif" font-size="14.00" fill="#0000ff">Frontend API</text>
</a>
</g>
</g>
<!-- api&#45;&gt;vpro_shared -->
<g id="edge7" class="edge">
<title>api&#45;&gt;vpro_shared</title>
<path fill="none" stroke="#6495ed" d="M717.6984,-518.1951C745.6722,-492.8854 795.6572,-441.953 815,-386 832.2948,-335.9713 812.0585,-304.7796 767,-277 685.6127,-226.8229 399.4514,-198.1697 279.5175,-188.1254"/>
<polygon fill="#6495ed" stroke="#6495ed" points="279.718,-184.6301 269.4636,-187.2945 279.1414,-191.6063 279.718,-184.6301"/>
</g>
<!-- api&#45;&gt;poms_shared -->
<g id="edge8" class="edge">
<title>api&#45;&gt;poms_shared</title>
<path fill="none" stroke="#6495ed" d="M670.9238,-520.1227C661.6968,-515.7455 651.145,-511.4714 641,-509 586.8673,-495.8129 440.9533,-514.6763 391,-490 383.3138,-486.2031 282.4132,-392.6477 277,-386 260.7257,-366.0143 246.0707,-340.6032 236.148,-321.7158"/>
<polygon fill="#6495ed" stroke="#6495ed" points="239.2267,-320.0494 231.5389,-312.7591 233.0025,-323.2523 239.2267,-320.0494"/>
</g>
<!-- api&#45;&gt;poms_shared_backend -->
<g id="edge9" class="edge">
<title>api&#45;&gt;poms_shared_backend</title>
<path fill="none" stroke="#6495ed" d="M670.6331,-519.9936C661.4751,-515.6647 651.0377,-511.4521 641,-509 598.8492,-498.7032 483.7002,-520.4805 446,-499 443.3098,-497.4672 400.7245,-432.293 376.151,-394.4657"/>
<polygon fill="#6495ed" stroke="#6495ed" points="378.9987,-392.4242 370.6181,-385.9421 373.1272,-396.2356 378.9987,-392.4242"/>
</g>
<!-- api&#45;&gt;resteasy -->
<g id="edge10" class="edge">
<title>api&#45;&gt;resteasy</title>
<path fill="none" stroke="#6495ed" d="M727.5167,-520.721C777.1597,-496.4815 872,-449.1116 872,-441 872,-441 872,-441 872,-331.5 872,-261.7842 885.462,-180.5827 893.3747,-138.8758"/>
<polygon fill="#6495ed" stroke="#6495ed" points="896.8384,-139.3985 895.3024,-128.9156 889.9659,-138.0684 896.8384,-139.3985"/>
</g>
<!-- media_publish -->
<g id="node8" class="node">
<title>media_publish</title>
<g id="a_node8"><a xlink:href="https://subversion.vpro.nl/viewvc/nl/publiekeomroep/npo-publish/" xlink:title="Media Publisher">
<ellipse fill="none" stroke="#bf3eff" cx="576" cy="-535" rx="55.7903" ry="18"/>
<text text-anchor="middle" x="576" y="-531.3" font-family="Times,serif" font-size="14.00" fill="#0000ff">Media Publisher</text>
</a>
</g>
</g>
<!-- media_publish&#45;&gt;poms_shared -->
<g id="edge13" class="edge">
<title>media_publish&#45;&gt;poms_shared</title>
<path fill="none" stroke="#bf3eff" d="M521.7521,-530.3619C460.6724,-524.1852 366.2511,-511.4657 338,-490 288.391,-452.3062 272.8189,-441.239 244,-386 233.7333,-366.3213 228.4418,-341.6672 225.7403,-322.9859"/>
<polygon fill="#bf3eff" stroke="#bf3eff" points="229.2065,-322.4986 224.4608,-313.0261 222.2636,-323.3905 229.2065,-322.4986"/>
</g>
<!-- media_publish&#45;&gt;poms_shared_backend -->
<g id="edge14" class="edge">
<title>media_publish&#45;&gt;poms_shared_backend</title>
<path fill="none" stroke="#bf3eff" d="M522.5332,-529.6728C462.03,-523.0967 370.4752,-511.2704 360,-499 335.9319,-470.8075 342.1048,-425.4143 349.7679,-396.1497"/>
<polygon fill="#bf3eff" stroke="#bf3eff" points="353.24,-396.7353 352.6053,-386.1595 346.5063,-394.8227 353.24,-396.7353"/>
</g>
<!-- pages_publish -->
<g id="node9" class="node">
<title>pages_publish</title>
<g id="a_node9"><a xlink:href="https://subversion.vpro.nl/viewvc/nl/publiekeomroep/npo-publish/" xlink:title="Pages Publisher">
<ellipse fill="none" stroke="#8fbc8f" cx="580" cy="-368" rx="53.8905" ry="18"/>
<text text-anchor="middle" x="580" y="-364.3" font-family="Times,serif" font-size="14.00" fill="#0000ff">Pages Publisher</text>
</a>
</g>
</g>
<!-- media_publish&#45;&gt;pages_publish -->
<g id="edge15" class="edge">
<title>media_publish&#45;&gt;pages_publish</title>
<path fill="none" stroke="#c0c0c0" d="M576.4357,-516.8102C577.2051,-484.6863 578.7958,-418.2753 579.5649,-386.1674"/>
<text text-anchor="middle" x="626.5" y="-437.3" font-family="Times,serif" font-size="14.00" fill="#000000">we plan to merge these</text>
</g>
<!-- pages_publish&#45;&gt;poms_shared -->
<g id="edge11" class="edge">
<title>pages_publish&#45;&gt;poms_shared</title>
<path fill="none" stroke="#8fbc8f" d="M555.5016,-351.7586C542.9898,-344.2353 527.2258,-335.8961 512,-331 469.9646,-317.4829 350.762,-305.6528 279.2564,-299.4997"/>
<polygon fill="#8fbc8f" stroke="#8fbc8f" points="279.3279,-295.9933 269.0673,-298.6336 278.7349,-302.9681 279.3279,-295.9933"/>
</g>
<!-- pages_publish&#45;&gt;poms_shared_backend -->
<g id="edge12" class="edge">
<title>pages_publish&#45;&gt;poms_shared_backend</title>
<path fill="none" stroke="#8fbc8f" d="M525.9261,-368C498.0261,-368 470.1261,-368 442.2262,-368"/>
<polygon fill="#8fbc8f" stroke="#8fbc8f" points="441.9473,-364.5001 431.9473,-368 441.9472,-371.5001 441.9473,-364.5001"/>
</g>
<!-- images -->
<g id="node10" class="node">
<title>images</title>
<g id="a_node10"><a xlink:href="https://subversion.vpro.nl/viewvc/nl/vpro/images/" xlink:title="Images Frontend &amp; Backend">
<ellipse fill="none" stroke="#caff70" cx="1066" cy="-535" rx="89.8845" ry="18"/>
<text text-anchor="middle" x="1066" y="-531.3" font-family="Times,serif" font-size="14.00" fill="#0000ff">Images Frontend &amp; Backend</text>
</a>
</g>
</g>
<!-- images&#45;&gt;poms_shared -->
<g id="edge18" class="edge">
<title>images&#45;&gt;poms_shared</title>
<path fill="none" stroke="#caff70" d="M1016.8231,-519.9225C1001.055,-515.6728 983.4224,-511.5241 967,-509 923.68,-502.3417 611.5826,-510.7926 573,-490 501.3174,-451.3694 529.4598,-391.7559 465,-342 454.416,-333.8303 449.8841,-334.5727 437,-331 384.0637,-316.321 322.0052,-306.6847 278.3892,-301.1087"/>
<polygon fill="#caff70" stroke="#caff70" points="278.6256,-297.6111 268.269,-299.8454 277.7585,-304.5572 278.6256,-297.6111"/>
</g>
<!-- images&#45;&gt;spring -->
<g id="edge19" class="edge">
<title>images&#45;&gt;spring</title>
<path fill="none" stroke="#caff70" d="M1076.7578,-516.9719C1086.7188,-498.5437 1100,-468.7667 1100,-441 1100,-441 1100,-441 1100,-184 1100,-167.1352 1092.7473,-149.783 1085.1476,-136.2298"/>
<polygon fill="#caff70" stroke="#caff70" points="1088.0607,-134.2821 1079.9156,-127.5064 1082.0576,-137.8825 1088.0607,-134.2821"/>
</g>
<!-- images&#45;&gt;hibernate -->
<g id="edge20" class="edge">
<title>images&#45;&gt;hibernate</title>
<path fill="none" stroke="#caff70" d="M1064.7781,-516.9893C1063.6018,-498.0751 1062,-467.4614 1062,-441 1062,-441 1062,-441 1062,-258.5 1062,-210.9864 1030.452,-163.4695 1008.0079,-135.6767"/>
<polygon fill="#caff70" stroke="#caff70" points="1010.4648,-133.1573 1001.3797,-127.7064 1005.0827,-137.6331 1010.4648,-133.1573"/>
</g>
<!-- magnolia -->
<g id="node17" class="node">
<title>magnolia</title>
<ellipse fill="none" stroke="#000000" cx="52" cy="-535" rx="36.2938" ry="18"/>
<text text-anchor="middle" x="52" y="-531.3" font-family="Times,serif" font-size="14.00" fill="#000000">magnolia</text>
</g>
<!-- magnolia&#45;&gt;vpro_shared -->
<g id="edge21" class="edge">
<title>magnolia&#45;&gt;vpro_shared</title>
<path fill="none" stroke="#8b8878" d="M40.3923,-517.8203C29.2172,-499.5839 14,-469.516 14,-441 14,-441 14,-441 14,-239.5 14,-206.8842 109.0948,-193.0619 171.9056,-187.4895"/>
<polygon fill="#8b8878" stroke="#8b8878" points="172.4023,-190.9602 182.0735,-186.6338 171.8151,-183.9849 172.4023,-190.9602"/>
</g>
<!-- magnolia&#45;&gt;poms_shared -->
<g id="edge22" class="edge">
<title>magnolia&#45;&gt;poms_shared</title>
<path fill="none" stroke="#8b8878" d="M52.7776,-516.8606C54.44,-493.777 59.6535,-453.2709 76,-423 101.7566,-375.3034 152.8352,-337.1807 187.4621,-315.3253"/>
<polygon fill="#8b8878" stroke="#8b8878" points="189.6476,-318.0896 196.3212,-309.8607 185.9726,-312.1318 189.6476,-318.0896"/>
</g>
<!-- magnolia&#45;&gt;api_client -->
<g id="edge23" class="edge">
<title>magnolia&#45;&gt;api_client</title>
<path fill="none" stroke="#8b8878" d="M73.8763,-520.5185C97.7807,-504.6945 136.2567,-479.2244 163.2054,-461.3852"/>
<polygon fill="#8b8878" stroke="#8b8878" points="165.4583,-464.0912 171.8649,-455.6528 161.5944,-458.2542 165.4583,-464.0912"/>
</g>
<!-- vpro_rs -->
<g id="node18" class="node">
<title>vpro_rs</title>
<ellipse fill="none" stroke="#000000" cx="138" cy="-535" rx="31.6951" ry="18"/>
<text text-anchor="middle" x="138" y="-531.3" font-family="Times,serif" font-size="14.00" fill="#000000">vpro_rs</text>
</g>
<!-- vpro_rs&#45;&gt;vpro_shared -->
<g id="edge24" class="edge">
<title>vpro_rs&#45;&gt;vpro_shared</title>
<path fill="none" stroke="#8b8878" d="M134.3597,-516.7591C133.3909,-511.0928 132.4808,-504.8095 132,-499 129.214,-465.3373 130.1723,-456.7283 132,-423 136.451,-340.8611 135.0876,-319.5021 152,-239 153.8207,-230.3337 152.3298,-226.8021 158,-220 164.6714,-211.9968 173.5901,-205.5285 182.7674,-200.4027"/>
<polygon fill="#8b8878" stroke="#8b8878" points="184.6381,-203.3777 191.9573,-195.7174 181.4586,-197.1414 184.6381,-203.3777"/>
</g>
<!-- vpro_rs&#45;&gt;poms_shared -->
<g id="edge25" class="edge">
<title>vpro_rs&#45;&gt;poms_shared</title>
<path fill="none" stroke="#8b8878" d="M136.5561,-516.743C135.2218,-490.5839 135.4872,-441.4642 152,-404 165.4495,-373.4857 187.0043,-341.9097 202.84,-320.6482"/>
<polygon fill="#8b8878" stroke="#8b8878" points="205.7799,-322.5634 209.0236,-312.4773 200.1981,-318.3392 205.7799,-322.5634"/>
</g>
<!-- vpro_rs&#45;&gt;api_client -->
<g id="edge26" class="edge">
<title>vpro_rs&#45;&gt;api_client</title>
<path fill="none" stroke="#8b8878" d="M148.2713,-517.759C156.665,-503.6695 168.6695,-483.519 178.2729,-467.3991"/>
<polygon fill="#8b8878" stroke="#8b8878" points="181.493,-468.8324 183.6042,-458.4501 175.4792,-465.2498 181.493,-468.8324"/>
</g>
<!-- vpro_rs&#45;&gt;poms_shared_backend -->
<g id="edge27" class="edge">
<title>vpro_rs&#45;&gt;poms_shared_backend</title>
<path fill="none" stroke="#8b8878" d="M169.5452,-531.5362C200.8304,-526.7328 248.7738,-515.5396 282,-490 298.9893,-476.941 327.6674,-426.8353 344.8188,-395.0407"/>
<polygon fill="#8b8878" stroke="#8b8878" points="347.9098,-396.6826 349.5387,-386.2137 341.7369,-393.3818 347.9098,-396.6826"/>
</g>
</g>
</svg>
