<?xml version="1.0" encoding="UTF-8" standalone="no"?>
<!DOCTYPE svg PUBLIC "-//W3C//DTD SVG 1.1//EN"
 "http://www.w3.org/Graphics/SVG/1.1/DTD/svg11.dtd">
<!-- Generated by graphviz version 10.0.1 (20240210.2158)
 -->
<!-- Title: poms_universe Pages: 1 -->
<svg width="1973pt" height="391pt"
 viewBox="0.00 0.00 1973.00 390.50" xmlns="http://www.w3.org/2000/svg" xmlns:xlink="http://www.w3.org/1999/xlink">
<g id="graph0" class="graph" transform="scale(1 1) rotate(0) translate(4 386.5)">
<title>poms_universe</title>
<polygon fill="white" stroke="none" points="-4,4 -4,-386.5 1969,-386.5 1969,4 -4,4"/>
<text text-anchor="middle" x="982.5" y="-7.2" font-family="Times,serif" font-size="14.00">Deployments relevant for POMS</text>
<g id="clust1" class="cluster">
<title>cluster_0</title>
<polygon fill="azure" stroke="black" points="651,-32.5 651,-109 1282,-109 1282,-32.5 651,-32.5"/>
<text text-anchor="middle" x="966.5" y="-39.7" font-family="Times,serif" font-size="14.00">Generic backend services</text>
</g>
<g id="clust2" class="cluster">
<title>cluster_3</title>
<polygon fill="none" stroke="black" points="425,-213.5 425,-374.5 993,-374.5 993,-213.5 425,-213.5"/>
<text text-anchor="middle" x="709" y="-357.2" font-family="Times,serif" font-size="14.00">World</text>
</g>
<g id="clust3" class="cluster">
<title>cluster_2</title>
<polygon fill="none" stroke="black" points="433,-221.5 433,-298 952,-298 952,-221.5 433,-221.5"/>
<text text-anchor="middle" x="692.5" y="-280.7" font-family="Times,serif" font-size="14.00">VPRO</text>
</g>
<g id="clust4" class="cluster">
<title>cluster_4</title>
<polygon fill="azure" stroke="black" points="395,-129 395,-205.5 1436,-205.5 1436,-129 395,-129"/>
<text text-anchor="middle" x="915.5" y="-188.2" font-family="Times,serif" font-size="14.00">POMS &#160;Services</text>
</g>
<g id="clust5" class="cluster">
<title>cluster_5</title>
<polygon fill="none" stroke="black" points="1290,-32.5 1290,-109 1957,-109 1957,-32.5 1290,-32.5"/>
<text text-anchor="middle" x="1623.5" y="-39.7" font-family="Times,serif" font-size="14.00">NPO Services</text>
</g>
<g id="clust6" class="cluster">
<title>cluster_6</title>
<polygon fill="none" stroke="black" points="8,-32.5 8,-109 643,-109 643,-32.5 8,-32.5"/>
<text text-anchor="middle" x="325.5" y="-39.7" font-family="Times,serif" font-size="14.00">Auxiliary API&#39;s</text>
</g>
<!-- poms -->
<g id="node1" class="node">
<title>poms</title>
<g id="a_node1"><a xlink:href="https://poms.omroep.nl/" xlink:title="POMS">
<ellipse fill="none" stroke="black" cx="1200" cy="-155" rx="36.51" ry="18"/>
<text text-anchor="middle" x="1200" y="-149.95" font-family="Times,serif" font-size="14.00" fill="blue">POMS</text>
</a>
</g>
</g>
<!-- gtaa -->
<g id="node8" class="node">
<title>gtaa</title>
<g id="a_node8"><a xlink:href="http://gtaa.beeldengeluid.nl/" xlink:title="B&amp;G Thesaurus">
<ellipse fill="none" stroke="black" cx="564" cy="-83" rx="71.31" ry="18"/>
<text text-anchor="middle" x="564" y="-77.95" font-family="Times,serif" font-size="14.00" fill="blue">B&amp;G Thesaurus</text>
</a>
</g>
</g>
<!-- poms&#45;&gt;gtaa -->
<g id="edge9" class="edge">
<title>poms&#45;&gt;gtaa</title>
<path fill="none" stroke="blue" d="M1178.88,-139.89C1171.34,-135.58 1162.59,-131.36 1154,-129 1045.29,-99.07 758.2,-127.63 647,-109 636.42,-107.23 625.31,-104.51 614.77,-101.5"/>
<polygon fill="blue" stroke="blue" points="616.07,-98.24 605.49,-98.73 614.07,-104.94 616.07,-98.24"/>
</g>
<!-- postgresql_media -->
<g id="node12" class="node">
<title>postgresql_media</title>
<ellipse fill="none" stroke="black" cx="1198" cy="-83" rx="76.43" ry="18"/>
<text text-anchor="middle" x="1198" y="-77.95" font-family="Times,serif" font-size="14.00">postgresql_media</text>
</g>
<!-- poms&#45;&gt;postgresql_media -->
<g id="edge10" class="edge">
<title>poms&#45;&gt;postgresql_media</title>
<path fill="none" stroke="blue" d="M1199.51,-136.7C1199.3,-129.41 1199.05,-120.73 1198.82,-112.54"/>
<polygon fill="blue" stroke="blue" points="1202.32,-112.51 1198.53,-102.62 1195.32,-112.71 1202.32,-112.51"/>
</g>
<!-- jms -->
<g id="node15" class="node">
<title>jms</title>
<ellipse fill="none" stroke="black" cx="1033" cy="-83" rx="70.29" ry="18"/>
<text text-anchor="middle" x="1033" y="-77.95" font-family="Times,serif" font-size="14.00">JMS ActiveMQ</text>
</g>
<!-- poms&#45;&gt;jms -->
<g id="edge11" class="edge">
<title>poms&#45;&gt;jms</title>
<path fill="none" stroke="blue" d="M1176.92,-140.63C1169.69,-136.67 1161.61,-132.46 1154,-129 1131.92,-118.96 1106.89,-109.36 1085.34,-101.63"/>
<polygon fill="blue" stroke="blue" points="1086.77,-98.43 1076.18,-98.39 1084.44,-105.03 1086.77,-98.43"/>
</g>
<!-- pd -->
<g id="node22" class="node">
<title>pd</title>
<ellipse fill="none" stroke="black" cx="1435" cy="-83" rx="27" ry="18"/>
<text text-anchor="middle" x="1435" y="-77.95" font-family="Times,serif" font-size="14.00">pd</text>
</g>
<!-- poms&#45;&gt;pd -->
<g id="edge12" class="edge">
<title>poms&#45;&gt;pd</title>
<path fill="none" stroke="blue" d="M1221.21,-140.05C1228.49,-135.87 1236.85,-131.68 1245,-129 1310.56,-107.41 1334.6,-133.83 1399,-109 1402.48,-107.66 1405.94,-105.91 1409.28,-103.97"/>
<polygon fill="blue" stroke="blue" points="1411.04,-107 1417.47,-98.58 1407.2,-101.15 1411.04,-107"/>
</g>
<!-- miranda -->
<g id="node24" class="node">
<title>miranda</title>
<ellipse fill="none" stroke="black" cx="1522" cy="-83" rx="41.63" ry="18"/>
<text text-anchor="middle" x="1522" y="-77.95" font-family="Times,serif" font-size="14.00">miranda</text>
</g>
<!-- poms&#45;&gt;miranda -->
<g id="edge13" class="edge">
<title>poms&#45;&gt;miranda</title>
<path fill="none" stroke="blue" d="M1221.15,-139.86C1228.42,-135.66 1236.8,-131.52 1245,-129 1341.4,-99.42 1373.87,-136.09 1471,-109 1476.56,-107.45 1482.24,-105.3 1487.69,-102.91"/>
<polygon fill="blue" stroke="blue" points="1488.92,-106.21 1496.45,-98.76 1485.92,-99.88 1488.92,-106.21"/>
</g>
<!-- pluto -->
<g id="node25" class="node">
<title>pluto</title>
<ellipse fill="none" stroke="black" cx="1611" cy="-83" rx="29.86" ry="18"/>
<text text-anchor="middle" x="1611" y="-77.95" font-family="Times,serif" font-size="14.00">pluto</text>
</g>
<!-- poms&#45;&gt;pluto -->
<g id="edge14" class="edge">
<title>poms&#45;&gt;pluto</title>
<path fill="none" stroke="blue" d="M1220.66,-139.99C1228.03,-135.69 1236.59,-131.45 1245,-129 1385.2,-88.08 1434.43,-155.14 1573,-109 1576.79,-107.74 1580.56,-106 1584.17,-104.03"/>
<polygon fill="blue" stroke="blue" points="1585.9,-107.07 1592.55,-98.82 1582.21,-101.13 1585.9,-107.07"/>
</g>
<!-- nep -->
<g id="node26" class="node">
<title>nep</title>
<ellipse fill="none" stroke="black" cx="1686" cy="-83" rx="27" ry="18"/>
<text text-anchor="middle" x="1686" y="-77.95" font-family="Times,serif" font-size="14.00">nep</text>
</g>
<!-- poms&#45;&gt;nep -->
<g id="edge15" class="edge">
<title>poms&#45;&gt;nep</title>
<path fill="none" stroke="blue" d="M1220.64,-139.93C1228.01,-135.63 1236.58,-131.41 1245,-129 1331.64,-104.25 1564.7,-138.04 1650,-109 1653.71,-107.74 1657.39,-105.97 1660.9,-103.95"/>
<polygon fill="blue" stroke="blue" points="1662.53,-107.06 1668.95,-98.64 1658.67,-101.22 1662.53,-107.06"/>
</g>
<!-- sourcing_service -->
<g id="node27" class="node">
<title>sourcing_service</title>
<ellipse fill="none" stroke="black" cx="1804" cy="-83" rx="73.36" ry="18"/>
<text text-anchor="middle" x="1804" y="-77.95" font-family="Times,serif" font-size="14.00">sourcing_service</text>
</g>
<!-- poms&#45;&gt;sourcing_service -->
<g id="edge16" class="edge">
<title>poms&#45;&gt;sourcing_service</title>
<path fill="none" stroke="blue" d="M1220.63,-139.9C1228,-135.59 1236.57,-131.37 1245,-129 1347.12,-100.24 1617.42,-126.84 1722,-109 1732.24,-107.25 1742.98,-104.6 1753.2,-101.67"/>
<polygon fill="blue" stroke="blue" points="1754.02,-105.08 1762.58,-98.84 1752,-98.38 1754.02,-105.08"/>
</g>
<!-- keycloak -->
<g id="node28" class="node">
<title>keycloak</title>
<g id="a_node28"><a xlink:href="https://ident.poms.omroep.nl/auth/" xlink:title="Keycloak">
<ellipse fill="none" stroke="black" cx="1344" cy="-83" rx="46.23" ry="18"/>
<text text-anchor="middle" x="1344" y="-77.95" font-family="Times,serif" font-size="14.00" fill="blue">Keycloak</text>
</a>
</g>
</g>
<!-- poms&#45;&gt;keycloak -->
<g id="edge17" class="edge">
<title>poms&#45;&gt;keycloak</title>
<path fill="none" stroke="blue" d="M1223.16,-140.66C1230.12,-136.78 1237.82,-132.62 1245,-129 1263.94,-119.46 1285.32,-109.62 1303.35,-101.59"/>
<polygon fill="blue" stroke="blue" points="1304.7,-104.82 1312.43,-97.58 1301.86,-98.42 1304.7,-104.82"/>
</g>
<!-- poms_backend -->
<g id="node2" class="node">
<title>poms_backend</title>
<g id="a_node2"><a xlink:href="https://api.poms.omroep.nl/" xlink:title="POMS backend API">
<ellipse fill="none" stroke="black" cx="1341" cy="-155" rx="86.67" ry="18"/>
<text text-anchor="middle" x="1341" y="-149.95" font-family="Times,serif" font-size="14.00" fill="blue">POMS backend API</text>
</a>
</g>
</g>
<!-- poms_backend&#45;&gt;postgresql_media -->
<g id="edge18" class="edge">
<title>poms_backend&#45;&gt;postgresql_media</title>
<path fill="none" stroke="#ff7f00" d="M1308.19,-137.94C1288.07,-128.09 1262.09,-115.37 1240.41,-104.76"/>
<polygon fill="#ff7f00" stroke="#ff7f00" points="1242.04,-101.66 1231.52,-100.41 1238.96,-107.95 1242.04,-101.66"/>
</g>
<!-- poms_backend&#45;&gt;jms -->
<g id="edge19" class="edge">
<title>poms_backend&#45;&gt;jms</title>
<path fill="none" stroke="#ff7f00" d="M1291.44,-139.88C1276.88,-136.02 1260.87,-132.06 1246,-129 1187.46,-116.93 1171.25,-122.4 1113,-109 1103.72,-106.87 1093.97,-104.19 1084.58,-101.39"/>
<polygon fill="#ff7f00" stroke="#ff7f00" points="1085.81,-98.11 1075.22,-98.51 1083.75,-104.8 1085.81,-98.11"/>
</g>
<!-- poms_backend&#45;&gt;nep -->
<g id="edge20" class="edge">
<title>poms_backend&#45;&gt;nep</title>
<path fill="none" stroke="#ff7f00" d="M1426.98,-152.03C1490.54,-148.08 1578.14,-137.35 1650,-109 1653.47,-107.63 1656.93,-105.87 1660.25,-103.92"/>
<polygon fill="#ff7f00" stroke="#ff7f00" points="1662.03,-106.94 1668.45,-98.52 1658.17,-101.1 1662.03,-106.94"/>
</g>
<!-- poms_backend&#45;&gt;keycloak -->
<g id="edge21" class="edge">
<title>poms_backend&#45;&gt;keycloak</title>
<path fill="none" stroke="#ff7f00" d="M1341.74,-136.7C1342.05,-129.41 1342.43,-120.73 1342.78,-112.54"/>
<polygon fill="#ff7f00" stroke="#ff7f00" points="1346.27,-112.76 1343.2,-102.62 1339.28,-112.46 1346.27,-112.76"/>
</g>
<!-- api -->
<g id="node3" class="node">
<title>api</title>
<g id="a_node3"><a xlink:href="https://rs.poms.omroep.nl/" xlink:title="NPO Frontend API">
<ellipse fill="none" stroke="black" cx="743" cy="-155" rx="82.06" ry="18"/>
<text text-anchor="middle" x="743" y="-149.95" font-family="Times,serif" font-size="14.00" fill="blue">NPO Frontend API</text>
</a>
</g>
</g>
<!-- api&#45;&gt;gtaa -->
<g id="edge24" class="edge">
<title>api&#45;&gt;gtaa</title>
<path fill="none" stroke="cornflowerblue" d="M704.16,-138.81C677.17,-128.26 641.02,-114.12 612.19,-102.85"/>
<polygon fill="cornflowerblue" stroke="cornflowerblue" points="613.54,-99.61 602.95,-99.23 610.99,-106.13 613.54,-99.61"/>
</g>
<!-- elasticsearch -->
<g id="node14" class="node">
<title>elasticsearch</title>
<ellipse fill="none" stroke="black" cx="887" cy="-83" rx="58" ry="18"/>
<text text-anchor="middle" x="887" y="-77.95" font-family="Times,serif" font-size="14.00">elasticsearch</text>
</g>
<!-- api&#45;&gt;elasticsearch -->
<g id="edge25" class="edge">
<title>api&#45;&gt;elasticsearch</title>
<path fill="none" stroke="cornflowerblue" d="M775.68,-138.12C796.74,-127.88 824.27,-114.49 846.69,-103.6"/>
<polygon fill="cornflowerblue" stroke="cornflowerblue" points="848.08,-106.81 855.55,-99.29 845.02,-100.51 848.08,-106.81"/>
</g>
<!-- pages_publish -->
<g id="node4" class="node">
<title>pages_publish</title>
<g id="a_node4"><a xlink:href="https://publish.pages.omroep.nl/" xlink:title="Pages Publisher">
<ellipse fill="none" stroke="black" cx="913" cy="-155" rx="69.78" ry="18"/>
<text text-anchor="middle" x="913" y="-149.95" font-family="Times,serif" font-size="14.00" fill="blue">Pages Publisher</text>
</a>
</g>
</g>
<!-- pages_publish&#45;&gt;gtaa -->
<g id="edge26" class="edge">
<title>pages_publish&#45;&gt;gtaa</title>
<path fill="none" stroke="darkseagreen" d="M873.63,-139.84C861.1,-135.79 847.09,-131.74 834,-129 752.19,-111.86 728.93,-125.57 647,-109 636.82,-106.94 626.09,-104.17 615.86,-101.23"/>
<polygon fill="darkseagreen" stroke="darkseagreen" points="617.02,-97.93 606.44,-98.43 615.02,-104.64 617.02,-97.93"/>
</g>
<!-- pages_publish&#45;&gt;elasticsearch -->
<g id="edge27" class="edge">
<title>pages_publish&#45;&gt;elasticsearch</title>
<path fill="none" stroke="darkseagreen" d="M906.57,-136.7C903.77,-129.15 900.42,-120.12 897.28,-111.68"/>
<polygon fill="darkseagreen" stroke="darkseagreen" points="900.64,-110.68 893.88,-102.52 894.08,-113.12 900.64,-110.68"/>
</g>
<!-- pages_publish&#45;&gt;keycloak -->
<g id="edge28" class="edge">
<title>pages_publish&#45;&gt;keycloak</title>
<path fill="none" stroke="darkseagreen" d="M951.91,-139.66C964.53,-135.56 978.71,-131.52 992,-129 1120.68,-104.63 1158.71,-139.81 1286,-109 1292.85,-107.34 1299.92,-104.94 1306.67,-102.27"/>
<polygon fill="darkseagreen" stroke="darkseagreen" points="1307.69,-105.64 1315.53,-98.52 1304.96,-99.19 1307.69,-105.64"/>
</g>
<!-- media_publish -->
<g id="node5" class="node">
<title>media_publish</title>
<ellipse fill="none" stroke="black" cx="1073" cy="-155" rx="72.34" ry="18"/>
<text text-anchor="middle" x="1073" y="-149.95" font-family="Times,serif" font-size="14.00">Media Publisher</text>
</g>
<!-- media_publish&#45;&gt;elasticsearch -->
<g id="edge29" class="edge">
<title>media_publish&#45;&gt;elasticsearch</title>
<path fill="none" stroke="#bf3eff" d="M1034.46,-139.5C1005.14,-128.46 964.68,-113.23 933.55,-101.52"/>
<polygon fill="#bf3eff" stroke="#bf3eff" points="934.97,-98.32 924.38,-98.07 932.51,-104.87 934.97,-98.32"/>
</g>
<!-- media_publish&#45;&gt;jms -->
<g id="edge30" class="edge">
<title>media_publish&#45;&gt;jms</title>
<path fill="none" stroke="#bf3eff" d="M1063.11,-136.7C1058.66,-128.9 1053.29,-119.51 1048.33,-110.83"/>
<polygon fill="#bf3eff" stroke="#bf3eff" points="1051.53,-109.36 1043.52,-102.42 1045.45,-112.84 1051.53,-109.36"/>
</g>
<!-- images_frontend -->
<g id="node6" class="node">
<title>images_frontend</title>
<g id="a_node6"><a xlink:href="https://images.poms.omroep.nl" xlink:title="Images">
<ellipse fill="none" stroke="black" cx="605" cy="-155" rx="38.04" ry="18"/>
<text text-anchor="middle" x="605" y="-149.95" font-family="Times,serif" font-size="14.00" fill="blue">Images</text>
</a>
</g>
</g>
<!-- postgresql_image -->
<g id="node13" class="node">
<title>postgresql_image</title>
<ellipse fill="none" stroke="black" cx="735" cy="-83" rx="76.43" ry="18"/>
<text text-anchor="middle" x="735" y="-77.95" font-family="Times,serif" font-size="14.00">postgresql_image</text>
</g>
<!-- images_frontend&#45;&gt;postgresql_image -->
<g id="edge31" class="edge">
<title>images_frontend&#45;&gt;postgresql_image</title>
<path fill="none" stroke="#caff70" d="M629.45,-140.83C648.12,-130.78 674.22,-116.73 695.79,-105.11"/>
<polygon fill="#caff70" stroke="#caff70" points="697.17,-108.34 704.32,-100.52 693.85,-102.18 697.17,-108.34"/>
</g>
<!-- images_backend -->
<g id="node7" class="node">
<title>images_backend</title>
<g id="a_node7"><a xlink:href="https://poms.omroep.nl/images/" xlink:title="Images Backend">
<ellipse fill="none" stroke="black" cx="476" cy="-155" rx="72.85" ry="18"/>
<text text-anchor="middle" x="476" y="-149.95" font-family="Times,serif" font-size="14.00" fill="blue">Images Backend</text>
</a>
</g>
</g>
<!-- thineye -->
<g id="node9" class="node">
<title>thineye</title>
<ellipse fill="none" stroke="black" cx="318" cy="-83" rx="38.04" ry="18"/>
<text text-anchor="middle" x="318" y="-77.95" font-family="Times,serif" font-size="14.00">thineye</text>
</g>
<!-- images_backend&#45;&gt;thineye -->
<g id="edge32" class="edge">
<title>images_backend&#45;&gt;thineye</title>
<path fill="none" stroke="#caff70" d="M437.05,-139.35C415.57,-130.99 388.55,-120 365,-109 360.67,-106.98 356.16,-104.75 351.74,-102.48"/>
<polygon fill="#caff70" stroke="#caff70" points="353.49,-99.45 343.01,-97.91 350.24,-105.65 353.49,-99.45"/>
</g>
<!-- images_backend&#45;&gt;postgresql_image -->
<g id="edge33" class="edge">
<title>images_backend&#45;&gt;postgresql_image</title>
<path fill="none" stroke="#caff70" d="M519.23,-140.16C531.69,-136.35 545.34,-132.35 558,-129 597.2,-118.64 607.71,-118.99 647,-109 656.95,-106.47 667.48,-103.63 677.67,-100.79"/>
<polygon fill="#caff70" stroke="#caff70" points="678.41,-104.21 687.09,-98.13 676.52,-97.47 678.41,-104.21"/>
</g>
<!-- images_backend&#45;&gt;jms -->
<g id="edge34" class="edge">
<title>images_backend&#45;&gt;jms</title>
<path fill="none" stroke="#caff70" d="M515.98,-139.66C529.19,-135.51 544.07,-131.44 558,-129 731.59,-98.63 780.57,-140.28 954,-109 963.77,-107.24 974.02,-104.61 983.77,-101.71"/>
<polygon fill="#caff70" stroke="#caff70" points="984.58,-105.12 993.08,-98.8 982.49,-98.44 984.58,-105.12"/>
</g>
<!-- images_backend&#45;&gt;keycloak -->
<g id="edge35" class="edge">
<title>images_backend&#45;&gt;keycloak</title>
<path fill="none" stroke="#caff70" d="M515.53,-139.61C528.84,-135.39 543.9,-131.3 558,-129 717.73,-102.95 1127.96,-143.88 1286,-109 1292.96,-107.46 1300.12,-105.1 1306.93,-102.42"/>
<polygon fill="#caff70" stroke="#caff70" points="1308.04,-105.75 1315.88,-98.63 1305.31,-99.31 1308.04,-105.75"/>
</g>
<!-- wikimedia -->
<g id="node29" class="node">
<title>wikimedia</title>
<ellipse fill="none" stroke="black" cx="424" cy="-83" rx="50.33" ry="18"/>
<text text-anchor="middle" x="424" y="-77.95" font-family="Times,serif" font-size="14.00">wikimedia</text>
</g>
<!-- images_backend&#45;&gt;wikimedia -->
<g id="edge36" class="edge">
<title>images_backend&#45;&gt;wikimedia</title>
<path fill="none" stroke="#caff70" d="M463.41,-137.05C457.34,-128.89 449.93,-118.91 443.18,-109.82"/>
<polygon fill="#caff70" stroke="#caff70" points="446.15,-107.94 437.37,-102 440.53,-112.12 446.15,-107.94"/>
</g>
<!-- pixabay -->
<g id="node30" class="node">
<title>pixabay</title>
<ellipse fill="none" stroke="black" cx="142" cy="-83" rx="40.09" ry="18"/>
<text text-anchor="middle" x="142" y="-77.95" font-family="Times,serif" font-size="14.00">pixabay</text>
</g>
<!-- images_backend&#45;&gt;pixabay -->
<g id="edge37" class="edge">
<title>images_backend&#45;&gt;pixabay</title>
<path fill="none" stroke="#caff70" d="M406.63,-149.19C348.02,-143.68 262.46,-132.22 191,-109 185.88,-107.34 180.63,-105.19 175.57,-102.86"/>
<polygon fill="#caff70" stroke="#caff70" points="177.4,-99.86 166.88,-98.57 174.3,-106.14 177.4,-99.86"/>
</g>
<!-- flickr -->
<g id="node31" class="node">
<title>flickr</title>
<ellipse fill="none" stroke="black" cx="231" cy="-83" rx="30.88" ry="18"/>
<text text-anchor="middle" x="231" y="-77.95" font-family="Times,serif" font-size="14.00">flickr</text>
</g>
<!-- images_backend&#45;&gt;flickr -->
<g id="edge38" class="edge">
<title>images_backend&#45;&gt;flickr</title>
<path fill="none" stroke="#caff70" d="M412.43,-145.8C371.06,-139.08 316.55,-127.58 271,-109 267.13,-107.42 263.22,-105.48 259.43,-103.38"/>
<polygon fill="#caff70" stroke="#caff70" points="261.49,-100.54 251.11,-98.39 257.88,-106.54 261.49,-100.54"/>
</g>
<!-- api_tests -->
<g id="node10" class="node">
<title>api_tests</title>
<g id="a_node10"><a xlink:href="https://git.vpro.nl/npo/test/api-tests/pipelines" xlink:title="api_tests">
<ellipse fill="azure" stroke="black" cx="554" cy="-324" rx="43.16" ry="18"/>
<text text-anchor="middle" x="554" y="-318.95" font-family="Times,serif" font-size="14.00" fill="blue">api_tests</text>
</a>
</g>
</g>
<!-- api_tests&#45;&gt;poms_backend -->
<g id="edge42" class="edge">
<title>api_tests&#45;&gt;poms_backend</title>
<path fill="none" stroke="gray" d="M585.24,-311.12C592,-309.03 599.16,-307.15 606,-306 631.42,-301.72 1046.84,-309.33 1070,-298 1113.3,-276.81 1095.32,-235.91 1138,-213.5 1159.31,-202.31 1222.85,-212.08 1246,-205.5 1267.08,-199.5 1288.89,-188.53 1306.29,-178.44"/>
<polygon fill="gray" stroke="gray" points="1307.89,-181.56 1314.68,-173.43 1304.3,-175.55 1307.89,-181.56"/>
</g>
<!-- api_tests&#45;&gt;api -->
<g id="edge43" class="edge">
<title>api_tests&#45;&gt;api</title>
<path fill="none" stroke="gray" d="M585.25,-311.13C592,-309.04 599.16,-307.16 606,-306 617.45,-304.06 1015.87,-306.29 1024,-298 1050.3,-271.19 1049.99,-240.61 1024,-213.5 1009.38,-198.25 854.36,-211.14 834,-205.5 813.43,-199.8 792.37,-188.75 775.69,-178.53"/>
<polygon fill="gray" stroke="gray" points="778.02,-175.86 767.7,-173.46 774.28,-181.77 778.02,-175.86"/>
</g>
<!-- api_tests&#45;&gt;pages_publish -->
<g id="edge44" class="edge">
<title>api_tests&#45;&gt;pages_publish</title>
<path fill="none" stroke="gray" d="M585.25,-311.13C592,-309.03 599.16,-307.15 606,-306 618.08,-303.96 1038.42,-306.74 1047,-298 1073.31,-271.2 1071.57,-241.9 1047,-213.5 1038.92,-204.16 1003.59,-209.76 992,-205.5 974.72,-199.15 957.2,-188.67 943.06,-178.98"/>
<polygon fill="gray" stroke="gray" points="945.28,-176.27 935.1,-173.34 941.23,-181.98 945.28,-176.27"/>
</g>
<!-- fitnesse_tests -->
<g id="node11" class="node">
<title>fitnesse_tests</title>
<g id="a_node11"><a xlink:href="https://jenkins.vpro.nl/view/POMS/job/POMS-Fitnesse-Tests/" xlink:title="fitnesse_tests">
<ellipse fill="azure" stroke="black" cx="675" cy="-324" rx="60.05" ry="18"/>
<text text-anchor="middle" x="675" y="-318.95" font-family="Times,serif" font-size="14.00" fill="blue">fitnesse_tests</text>
</a>
</g>
</g>
<!-- fitnesse_tests&#45;&gt;poms -->
<g id="edge45" class="edge">
<title>fitnesse_tests&#45;&gt;poms</title>
<path fill="none" stroke="gray" d="M717.79,-310.93C726.4,-308.93 735.44,-307.14 744,-306 762.78,-303.5 1067.99,-306.36 1085,-298 1134.58,-273.63 1169.93,-216.7 1187.46,-182.79"/>
<polygon fill="gray" stroke="gray" points="1190.5,-184.52 1191.84,-174.01 1184.24,-181.4 1190.5,-184.52"/>
</g>
<!-- fitnesse_tests&#45;&gt;poms_backend -->
<g id="edge46" class="edge">
<title>fitnesse_tests&#45;&gt;poms_backend</title>
<path fill="none" stroke="gray" d="M717.42,-310.99C726.14,-308.96 735.32,-307.14 744,-306 787.74,-300.24 1099.34,-312.52 1141,-298 1199.55,-277.59 1201.26,-249.13 1252,-213.5 1268.96,-201.6 1288.22,-189.04 1304.48,-178.7"/>
<polygon fill="gray" stroke="gray" points="1306.3,-181.69 1312.88,-173.39 1302.56,-175.77 1306.3,-181.69"/>
</g>
<!-- fitnesse_tests&#45;&gt;api -->
<g id="edge47" class="edge">
<title>fitnesse_tests&#45;&gt;api</title>
<path fill="none" stroke="gray" d="M717.79,-310.94C726.4,-308.94 735.44,-307.15 744,-306 761.52,-303.65 1049.66,-310.65 1062,-298 1088.22,-271.11 1088.09,-240.52 1062,-213.5 1053.2,-204.38 846.23,-208.84 834,-205.5 813.41,-199.88 792.34,-188.82 775.68,-178.59"/>
<polygon fill="gray" stroke="gray" points="778,-175.92 767.69,-173.51 774.25,-181.83 778,-175.92"/>
</g>
<!-- users -->
<g id="node16" class="node">
<title>users</title>
<ellipse fill="none" stroke="black" cx="463" cy="-324" rx="29.86" ry="18"/>
<text text-anchor="middle" x="463" y="-318.95" font-family="Times,serif" font-size="14.00">users</text>
</g>
<!-- users&#45;&gt;api -->
<g id="edge4" class="edge">
<title>users&#45;&gt;api</title>
<path fill="none" stroke="gray" d="M485.18,-311.55C490.55,-309.28 496.37,-307.22 502,-306 514.95,-303.19 969.71,-307.45 979,-298 1005.33,-271.22 1004.81,-240.78 979,-213.5 967.91,-201.78 849.52,-209.91 834,-205.5 813.46,-199.67 792.41,-188.6 775.73,-178.41"/>
<polygon fill="gray" stroke="gray" points="778.05,-175.74 767.73,-173.36 774.32,-181.66 778.05,-175.74"/>
</g>
<!-- users&#45;&gt;images_frontend -->
<g id="edge5" class="edge">
<title>users&#45;&gt;images_frontend</title>
<path fill="none" stroke="gray" d="M485.18,-311.55C490.55,-309.28 496.37,-307.23 502,-306 514.32,-303.32 947.16,-307 956,-298 982.32,-271.21 982.2,-240.4 956,-213.5 944.21,-201.4 667.43,-212.37 652,-205.5 640.47,-200.37 630.4,-190.94 622.57,-181.68"/>
<polygon fill="gray" stroke="gray" points="625.36,-179.56 616.45,-173.83 619.84,-183.86 625.36,-179.56"/>
</g>
<!-- magnolia_frontend -->
<g id="node19" class="node">
<title>magnolia_frontend</title>
<ellipse fill="none" stroke="black" cx="682" cy="-247.5" rx="81.55" ry="18"/>
<text text-anchor="middle" x="682" y="-242.45" font-family="Times,serif" font-size="14.00">magnolia_frontend</text>
</g>
<!-- users&#45;&gt;magnolia_frontend -->
<g id="edge6" class="edge">
<title>users&#45;&gt;magnolia_frontend</title>
<path fill="none" stroke="gray" d="M485.25,-311.84C490.62,-309.56 496.42,-307.42 502,-306 540.91,-296.07 553.59,-309.7 592,-298 611.92,-291.93 632.39,-281.1 648.77,-271.11"/>
<polygon fill="gray" stroke="gray" points="650.51,-274.15 657.11,-265.86 646.78,-268.23 650.51,-274.15"/>
</g>
<!-- backendsystems -->
<g id="node17" class="node">
<title>backendsystems</title>
<ellipse fill="none" stroke="black" cx="824" cy="-324" rx="71.31" ry="18"/>
<text text-anchor="middle" x="824" y="-318.95" font-family="Times,serif" font-size="14.00">backendsystems</text>
</g>
<!-- backendsystems&#45;&gt;poms_backend -->
<g id="edge7" class="edge">
<title>backendsystems&#45;&gt;poms_backend</title>
<path fill="none" stroke="gray" d="M874.56,-310.9C884.28,-308.96 894.42,-307.2 904,-306 949.02,-300.38 1064.57,-311.11 1108,-298 1189.16,-273.49 1270.72,-213.85 1312.45,-180.18"/>
<polygon fill="gray" stroke="gray" points="1314.52,-183.01 1320.05,-173.97 1310.09,-177.59 1314.52,-183.01"/>
</g>
<!-- backendsystems&#45;&gt;pages_publish -->
<g id="edge8" class="edge">
<title>backendsystems&#45;&gt;pages_publish</title>
<path fill="none" stroke="gray" d="M874.57,-310.94C884.29,-308.99 894.42,-307.22 904,-306 913.98,-304.73 1078.04,-305.27 1085,-298 1110.96,-270.86 1110.39,-241.17 1085,-213.5 1070.98,-198.22 1011.67,-212.08 992,-205.5 974.42,-199.62 956.75,-189.09 942.59,-179.25"/>
<polygon fill="gray" stroke="gray" points="944.78,-176.51 934.63,-173.5 940.69,-182.19 944.78,-176.51"/>
</g>
<!-- editors -->
<g id="node18" class="node">
<title>editors</title>
<ellipse fill="none" stroke="black" cx="949" cy="-324" rx="36" ry="18"/>
<text text-anchor="middle" x="949" y="-318.95" font-family="Times,serif" font-size="14.00">editors</text>
</g>
<!-- editors&#45;&gt;poms -->
<g id="edge1" class="edge">
<title>editors&#45;&gt;poms</title>
<path fill="none" stroke="gray" d="M984.75,-320.76C1025.25,-317.64 1088.2,-310.86 1108,-298 1150.09,-270.67 1176.98,-216.57 1190.21,-183.6"/>
<polygon fill="gray" stroke="gray" points="1193.46,-184.91 1193.78,-174.32 1186.92,-182.4 1193.46,-184.91"/>
</g>
<!-- magnolia_backend -->
<g id="node20" class="node">
<title>magnolia_backend</title>
<ellipse fill="none" stroke="black" cx="863" cy="-247.5" rx="81.04" ry="18"/>
<text text-anchor="middle" x="863" y="-242.45" font-family="Times,serif" font-size="14.00">magnolia_backend</text>
</g>
<!-- editors&#45;&gt;magnolia_backend -->
<g id="edge2" class="edge">
<title>editors&#45;&gt;magnolia_backend</title>
<path fill="none" stroke="gray" d="M931.6,-307.92C919.92,-297.81 904.29,-284.27 890.89,-272.66"/>
<polygon fill="gray" stroke="gray" points="893.47,-270.27 883.62,-266.36 888.89,-275.56 893.47,-270.27"/>
</g>
<!-- editors&#45;&gt;keycloak -->
<g id="edge3" class="edge">
<title>editors&#45;&gt;keycloak</title>
<path fill="none" stroke="gray" d="M984.51,-320.29C1088.04,-311.55 1385.7,-280.21 1440,-205.5 1459.99,-178 1458.24,-157.69 1440,-129 1439.13,-127.63 1409.89,-114.02 1383.91,-102.13"/>
<polygon fill="gray" stroke="gray" points="1385.37,-98.95 1374.81,-97.97 1382.46,-105.31 1385.37,-98.95"/>
</g>
<!-- magnolia_frontend&#45;&gt;api -->
<g id="edge41" class="edge">
<title>magnolia_frontend&#45;&gt;api</title>
<path fill="none" stroke="gray" d="M693.47,-229.48C702.36,-216.29 714.84,-197.77 725.05,-182.63"/>
<polygon fill="gray" stroke="gray" points="727.84,-184.76 730.52,-174.51 722.03,-180.84 727.84,-184.76"/>
</g>
<!-- magnolia_backend&#45;&gt;poms_backend -->
<g id="edge39" class="edge">
<title>magnolia_backend&#45;&gt;poms_backend</title>
<path fill="none" stroke="gray" d="M928.11,-236.46C977.83,-229.12 1048.09,-219.45 1110,-213.5 1140.14,-210.6 1216.82,-213.56 1246,-205.5 1267.28,-199.62 1289.25,-188.55 1306.7,-178.37"/>
<polygon fill="gray" stroke="gray" points="1308.35,-181.46 1315.11,-173.3 1304.74,-175.46 1308.35,-181.46"/>
</g>
<!-- magnolia_backend&#45;&gt;pages_publish -->
<g id="edge40" class="edge">
<title>magnolia_backend&#45;&gt;pages_publish</title>
<path fill="none" stroke="gray" d="M872.4,-229.48C879.62,-216.41 889.73,-198.13 898.05,-183.06"/>
<polygon fill="gray" stroke="gray" points="900.96,-185.02 902.74,-174.58 894.84,-181.64 900.96,-185.02"/>
</g>
<!-- amara_importer -->
<g id="node21" class="node">
<title>amara_importer</title>
<ellipse fill="none" stroke="black" cx="512" cy="-247.5" rx="70.8" ry="18"/>
<text text-anchor="middle" x="512" y="-242.45" font-family="Times,serif" font-size="14.00">amara_importer</text>
</g>
<!-- amara_importer&#45;&gt;poms_backend -->
<g id="edge48" class="edge">
<title>amara_importer&#45;&gt;poms_backend</title>
<path fill="none" stroke="gray" d="M541.89,-230.82C556.31,-224.1 574.12,-216.99 591,-213.5 662.27,-198.76 1175.41,-223.24 1246,-205.5 1267.56,-200.08 1289.7,-188.93 1307.18,-178.58"/>
<polygon fill="gray" stroke="gray" points="1308.9,-181.63 1315.6,-173.42 1305.24,-175.66 1308.9,-181.63"/>
</g>
<!-- amara -->
<g id="node32" class="node">
<title>amara</title>
<ellipse fill="none" stroke="black" cx="50" cy="-83" rx="33.95" ry="18"/>
<text text-anchor="middle" x="50" y="-77.95" font-family="Times,serif" font-size="14.00">amara</text>
</g>
<!-- amara_importer&#45;&gt;amara -->
<g id="edge49" class="edge">
<title>amara_importer&#45;&gt;amara</title>
<path fill="none" stroke="gray" d="M463.33,-234.11C383.93,-213.1 222.39,-167.07 93,-109 88.95,-107.18 84.79,-105.09 80.73,-102.9"/>
<polygon fill="gray" stroke="gray" points="82.71,-100 72.29,-98.12 79.26,-106.09 82.71,-100"/>
</g>
<!-- rcrs -->
<g id="node23" class="node">
<title>rcrs</title>
<ellipse fill="none" stroke="black" cx="1922" cy="-83" rx="27" ry="18"/>
<text text-anchor="middle" x="1922" y="-77.95" font-family="Times,serif" font-size="14.00">rcrs</text>
</g>
<!-- rcrs&#45;&gt;poms_backend -->
<g id="edge23" class="edge">
<title>rcrs&#45;&gt;poms_backend</title>
<path fill="none" stroke="#ff7f00" d="M1905.81,-97.93C1899.94,-102.23 1893.02,-106.48 1886,-109 1806.23,-137.64 1572.63,-148.22 1438.57,-152"/>
<polygon fill="#ff7f00" stroke="#ff7f00" points="1438.52,-148.5 1428.62,-152.27 1438.72,-155.5 1438.52,-148.5"/>
</g>
<!-- sourcing_service&#45;&gt;poms_backend -->
<g id="edge22" class="edge">
<title>sourcing_service&#45;&gt;poms_backend</title>
<path fill="none" stroke="#ff7f00" d="M1762.66,-98.17C1749.76,-102.17 1735.4,-106.19 1722,-109 1624.76,-129.39 1511.49,-141.3 1433.88,-147.69"/>
<polygon fill="#ff7f00" stroke="#ff7f00" points="1433.89,-144.17 1424.2,-148.47 1434.45,-151.15 1433.89,-144.17"/>
</g>
</g>
</svg>
